<?xml version="1.0" encoding="UTF-8" standalone="no"?>
<svg xmlns:xlink="http://www.w3.org/1999/xlink" height="300.0px" width="300.0px" xmlns="http://www.w3.org/2000/svg">
  <g transform="matrix(1.0, 0.0, 0.0, 1.0, 0.0, 0.0)">
    <use height="141.65" transform="matrix(0.8, 0.0, 0.0, 0.8, 14.0521, 107.2609)" width="340.55" xlink:href="#sprite0"/>
  </g>
  <defs>
    <g id="sprite0" transform="matrix(1.0, 0.0, 0.0, 1.0, 170.25, 70.8)">
      <use height="141.65" transform="matrix(1.0, 0.0, 0.0, 1.0, -170.25, -70.8)" width="340.55" xlink:href="#shape0"/>
    </g>
    <g id="shape0" transform="matrix(1.0, 0.0, 0.0, 1.0, 170.25, 70.8)">
      <path d="M-155.65 17.25 L-155.65 63.0 -153.4 63.0 -153.4 19.9 -149.5 19.6 -144.25 20.25 Q-142.35 20.9 -140.35 22.75 -144.75 20.7 -149.6 20.7 L-152.4 20.85 -152.4 63.0 Q-147.75 63.0 -145.45 62.25 -143.0 61.5 -140.95 59.35 -135.05 53.4 -135.05 39.2 -135.05 25.35 -141.45 20.3 -145.3 17.25 -153.75 17.25 L-155.65 17.25 M-151.95 13.8 Q-140.1 13.8 -134.45 18.35 -126.0 25.05 -126.0 39.3 -126.0 54.05 -133.4 60.7 -136.75 63.65 -140.9 64.95 -145.0 66.15 -151.9 66.15 L-169.25 66.15 -163.65 61.85 -163.65 18.5 -168.0 13.8 -151.95 13.8 M-131.0 19.1 Q-122.35 24.6 -122.35 39.85 -122.35 56.05 -130.9 63.6 -137.45 69.5 -152.4 69.5 L-166.7 69.5 -167.3 68.4 -152.4 68.4 Q-141.45 68.4 -135.65 65.35 -123.35 58.85 -123.35 40.1 -123.35 27.6 -128.9 21.45 L-131.0 19.1" fill="#000000" fill-rule="evenodd" stroke="none"/>
      <path d="M-96.75 16.15 L-100.9 20.25 -100.9 61.8 -94.05 69.5 -115.25 69.5 -116.3 68.4 -96.45 68.4 -102.05 62.25 -102.05 19.9 -97.45 15.3 -96.75 16.15 M-117.95 13.8 L-98.6 13.8 -104.05 19.35 -104.05 61.8 -98.9 66.15 -117.95 66.15 -112.25 61.45 -112.25 18.9 -117.95 13.8" fill="#000000" fill-rule="evenodd" stroke="none"/>
      <path d="M-77.7 20.35 Q-82.05 26.05 -82.05 39.45 -82.05 51.05 -78.05 57.6 -74.0 64.2 -66.85 64.2 -61.15 64.2 -57.75 60.4 -54.35 56.6 -53.7 49.45 -53.55 47.75 -52.3 47.75 -50.7 47.75 -50.7 50.4 -50.7 54.35 -52.5 58.6 -56.3 67.6 -68.15 67.6 -78.75 67.6 -85.0 60.15 -91.25 52.7 -91.25 40.0 -91.25 28.3 -84.8 20.35 -78.25 12.45 -68.65 12.45 -64.1 12.45 -58.25 14.7 -55.15 15.9 -53.2 15.9 -51.0 15.9 -49.35 14.7 L-48.65 15.05 -49.1 15.85 Q-52.8 22.25 -55.5 28.65 L-55.85 29.6 -56.4 29.3 Q-57.3 23.1 -60.75 19.5 -64.2 15.85 -69.05 15.85 -74.15 15.85 -77.7 20.35 M-60.5 21.6 L-60.5 22.15 Q-64.25 19.15 -67.5 19.15 -78.1 19.15 -78.1 39.3 -78.1 48.3 -75.65 54.6 -73.15 60.7 -68.75 62.5 L-68.75 62.9 Q-73.5 61.95 -76.45 55.5 -79.3 49.05 -79.3 39.2 -79.3 18.15 -67.75 18.15 -63.8 18.15 -60.5 21.6 M-45.7 17.05 L-46.15 17.8 Q-50.5 25.3 -53.25 31.65 L-54.35 31.1 -53.9 30.1 -50.3 23.0 -46.65 16.45 -45.7 17.05 M-47.2 50.15 Q-47.9 60.35 -52.85 65.55 -57.85 70.85 -66.85 70.85 -73.65 70.85 -79.5 66.65 L-79.5 66.3 Q-74.3 69.75 -66.9 69.75 -58.85 69.75 -53.75 64.55 -51.25 62.05 -50.05 58.9 -48.9 55.95 -48.45 50.55 L-48.4 49.65 -47.2 50.15" fill="#000000" fill-rule="evenodd" stroke="none"/>
      <path d="M8.5 17.5 Q2.4 17.95 -3.55 24.6 L-10.65 32.5 3.75 61.7 15.3 69.5 -10.65 69.5 -11.8 68.4 11.8 68.4 3.1 62.5 -11.8 32.5 -4.2 23.9 Q1.75 17.25 8.05 16.65 L8.5 17.5 M6.45 14.2 Q-0.55 15.9 -8.75 25.7 L-14.4 32.45 0.65 61.7 7.5 66.15 -13.7 66.15 -8.35 62.15 -18.45 41.9 -25.1 50.05 -25.1 61.7 -18.45 69.5 -39.4 69.5 -40.5 68.4 -20.9 68.4 -26.1 62.15 -26.1 49.5 -19.0 40.75 -19.9 39.0 -28.35 49.0 -28.35 61.7 -23.4 66.15 -42.1 66.15 -36.5 61.4 -36.5 18.65 -41.75 13.8 -22.65 13.8 -28.35 19.2 -28.35 43.85 -26.1 41.25 -26.1 19.5 -21.5 15.05 -20.9 15.95 -25.1 20.05 -25.1 40.0 -12.45 24.9 Q-9.75 21.7 -9.75 19.05 -9.75 17.45 -11.3 16.05 -12.85 14.65 -15.05 14.2 L-15.05 13.8 6.45 13.8 6.45 14.2" fill="#000000" fill-rule="evenodd" stroke="none"/>
      <path d="M16.0 13.8 L59.5 13.8 58.85 14.6 Q54.75 19.7 52.25 26.3 L51.65 24.9 Q49.4 20.05 46.85 18.6 44.2 17.15 37.6 17.15 L30.25 17.35 30.25 36.1 32.9 36.1 32.9 19.5 38.8 19.25 Q44.05 19.25 46.45 20.35 48.8 21.4 50.8 24.6 L50.0 24.0 Q46.7 21.4 45.2 20.9 L39.4 20.4 34.75 20.6 33.9 20.6 33.9 36.1 41.4 36.1 46.65 28.9 46.65 46.5 41.4 39.65 30.25 39.65 30.25 62.55 32.9 62.55 32.9 41.6 41.75 41.6 42.8 42.65 33.9 42.65 33.9 62.55 Q42.15 62.55 45.75 61.4 49.25 60.2 51.25 56.7 L53.9 52.1 Q54.9 56.45 56.5 59.3 58.1 62.0 61.75 65.6 L16.0 65.6 22.2 60.85 22.2 42.65 Q18.95 43.0 16.0 44.75 L15.4 43.9 Q17.9 42.15 22.2 41.6 L22.2 39.65 21.2 39.6 Q17.0 39.6 13.6 42.65 15.55 36.1 22.2 36.1 L22.2 18.7 16.0 13.8 M61.2 17.05 Q56.15 23.85 54.55 28.25 L53.85 27.4 Q56.5 21.2 60.9 15.8 L61.5 16.65 61.2 17.05 M49.5 30.25 L49.5 48.3 48.45 47.75 48.45 29.7 49.5 30.25 M66.4 65.8 L64.25 69.5 19.7 69.5 19.05 68.4 63.75 68.4 65.1 65.8 Q59.25 60.4 56.85 54.25 L58.15 54.75 Q60.45 60.05 65.7 65.15 L66.4 65.8" fill="#000000" fill-rule="evenodd" stroke="none"/>
      <path d="M87.9 15.65 L84.2 19.05 95.5 36.5 104.6 22.1 106.4 19.05 106.55 19.05 Q104.85 17.15 101.15 14.15 L100.7 13.8 115.8 13.8 110.75 19.05 110.8 19.05 95.1 44.15 95.1 60.7 101.05 66.15 81.15 66.15 87.05 60.7 87.05 44.15 75.15 25.7 Q72.25 21.2 70.35 19.1 68.9 17.4 64.9 14.15 L64.45 13.8 85.05 13.8 80.0 19.05 93.55 39.55 94.85 37.45 82.75 19.05 87.05 15.0 87.9 15.65" fill="#000000" fill-rule="evenodd" stroke="none"/>
      <path d="M118.65 15.65 L114.95 19.05 114.85 19.05 98.55 44.75 98.55 60.7 105.8 69.5 80.25 69.5 79.8 68.4 103.65 68.4 97.45 60.7 97.45 44.45 113.55 19.05 113.5 19.05 117.8 15.0 118.65 15.65" fill="#000000" fill-rule="evenodd" stroke="none"/>
      <path d="M162.3 15.45 L163.35 15.95 163.0 16.6 Q161.3 19.3 160.15 21.95 L156.9 28.65 156.7 28.95 155.7 28.55 155.9 28.15 159.3 21.15 162.1 15.75 162.3 15.45 M160.8 14.25 Q158.8 17.0 157.45 20.2 155.0 26.35 154.15 27.7 L153.95 27.95 153.7 27.25 151.8 22.15 Q151.0 20.65 149.6 19.45 145.95 16.15 141.15 16.15 136.85 16.15 133.9 18.55 131.0 21.0 131.0 24.65 131.0 31.5 141.3 34.0 L148.2 35.65 Q162.95 39.25 162.95 51.2 162.95 57.85 157.9 62.45 152.9 67.0 145.45 67.0 140.65 67.0 135.05 65.6 L130.25 64.4 125.5 63.7 Q123.0 63.7 120.35 65.3 L120.0 64.7 Q125.05 57.2 127.1 50.2 L127.85 50.4 Q128.75 56.85 133.0 60.35 137.3 63.9 144.2 63.9 149.65 63.9 152.9 61.4 156.15 58.85 156.15 54.55 156.15 49.65 151.65 46.4 148.35 44.1 138.45 42.15 130.65 40.65 127.25 37.15 123.8 33.65 123.8 27.4 123.8 20.9 128.4 16.95 133.05 12.9 140.45 12.9 145.05 12.9 151.6 14.6 L156.0 15.45 Q157.95 15.45 160.35 14.05 L160.8 14.25 M154.3 51.9 Q152.35 49.7 150.3 48.8 148.25 47.85 142.1 46.4 133.5 44.45 130.25 42.85 127.2 41.4 126.7 38.8 L128.05 39.6 Q129.4 42.0 135.95 43.6 L142.5 45.2 Q149.35 46.95 151.4 48.1 153.65 49.3 154.6 51.75 L154.3 51.9 M160.8 40.55 L160.8 40.3 Q166.35 44.5 166.35 51.8 166.35 59.6 160.35 65.0 154.3 70.4 145.65 70.4 L137.7 69.5 131.15 67.9 126.25 67.35 Q123.95 67.35 122.0 68.25 L121.5 67.1 Q123.65 66.1 125.8 66.1 128.25 66.1 131.4 66.85 L137.7 68.35 Q141.45 69.25 145.6 69.25 153.75 69.25 159.5 64.05 165.25 58.85 165.25 51.45 165.25 45.25 160.8 40.55 M141.75 18.25 Q145.25 18.25 147.85 19.75 150.45 21.25 151.75 23.9 L151.45 24.1 Q146.95 19.3 141.8 19.3 138.75 19.3 136.65 21.1 134.65 22.9 134.65 25.7 134.65 28.7 138.75 31.9 L139.1 32.1 138.85 32.4 Q133.5 30.0 133.5 25.45 133.5 22.3 135.75 20.25 138.05 18.25 141.75 18.25 M131.75 52.05 Q133.35 59.4 139.85 62.45 L139.85 62.75 Q132.3 60.6 130.65 52.25 L131.75 52.05" fill="#000000" fill-rule="evenodd" stroke="none"/>
      <path d="M-109.8 -33.25 Q-109.8 -12.5 -120.15 -3.3 -124.75 0.85 -130.6 2.6 -136.3 4.3 -146.0 4.3 L-170.25 4.3 -162.4 -1.7 -162.4 -62.35 -168.55 -68.9 -146.05 -68.9 Q-129.5 -68.9 -121.6 -62.55 -109.8 -53.25 -109.8 -33.25 M-116.75 -61.5 Q-104.65 -53.9 -104.65 -32.45 -104.65 -9.9 -116.65 0.8 -125.9 9.0 -146.65 9.0 L-166.7 9.0 -167.55 7.45 -146.65 7.45 Q-131.2 7.45 -123.25 3.15 -106.1 -5.9 -106.1 -32.15 -106.1 -49.7 -113.8 -58.2 L-116.75 -61.5 M-135.3 -59.85 Q-132.5 -58.9 -129.85 -56.4 -135.85 -59.25 -142.8 -59.25 L-146.65 -59.05 -146.65 -0.1 Q-140.25 -0.1 -136.95 -1.15 -133.6 -2.2 -130.7 -5.2 -122.4 -13.6 -122.4 -33.4 -122.4 -52.7 -131.4 -59.85 -136.75 -64.1 -148.55 -64.1 L-151.25 -64.1 -151.25 -0.1 -148.1 -0.1 -148.1 -60.35 -142.65 -60.8 Q-137.95 -60.8 -135.3 -59.85" fill="#000000" fill-rule="evenodd" stroke="none"/>
      <path d="M-70.0 -65.65 L-75.85 -59.9 -75.85 -1.75 -66.25 9.0 -95.95 9.0 -97.35 7.45 -69.65 7.45 -77.45 -1.15 -77.45 -60.4 -71.0 -66.8 -70.0 -65.65 M-80.25 -61.15 L-80.25 -1.75 -73.05 4.3 -99.65 4.3 -91.7 -2.25 -91.7 -61.75 -99.65 -68.9 -72.6 -68.9 -80.25 -61.15" fill="#000000" fill-rule="evenodd" stroke="none"/>
      <path d="M-3.95 -67.15 L-4.55 -66.05 Q-9.55 -57.4 -13.45 -48.15 L-14.0 -46.8 -14.7 -47.2 Q-16.05 -55.95 -20.85 -60.95 -25.65 -66.05 -32.4 -66.05 -39.7 -66.05 -44.5 -59.7 -50.6 -51.9 -50.6 -33.0 -50.6 -16.8 -45.0 -7.6 -39.35 1.6 -29.4 1.6 -21.4 1.6 -16.65 -3.75 -11.85 -9.05 -10.95 -19.05 -10.75 -21.4 -9.0 -21.4 -6.8 -21.4 -6.8 -17.7 -6.8 -12.25 -9.3 -6.25 -14.6 6.3 -31.2 6.3 -46.05 6.3 -54.8 -4.1 -63.5 -14.5 -63.5 -32.25 -63.5 -48.7 -54.45 -59.7 -45.35 -70.8 -31.9 -70.8 -25.5 -70.8 -17.35 -67.65 -13.05 -66.0 -10.25 -66.0 -7.25 -66.0 -4.85 -67.65 L-3.95 -67.15 M-1.1 -65.2 L0.25 -64.4 -0.4 -63.3 Q-6.55 -52.9 -10.35 -43.95 L-11.85 -44.7 -11.25 -46.15 -6.2 -56.05 -1.1 -65.2 M-1.9 -18.05 Q-2.8 -3.95 -9.8 3.5 -16.8 10.9 -29.35 10.9 -38.8 10.9 -47.1 5.0 L-47.1 4.55 Q-39.75 9.35 -29.45 9.35 -18.15 9.35 -11.0 2.1 -7.55 -1.4 -5.9 -5.85 -4.25 -9.95 -3.65 -17.5 L-3.55 -18.8 -1.9 -18.05 M-20.5 -57.25 Q-25.65 -61.45 -30.3 -61.45 -45.1 -61.45 -45.1 -33.25 -45.1 -20.4 -41.65 -11.85 -38.25 -3.35 -32.0 -0.8 L-32.0 -0.25 Q-38.8 -1.6 -42.75 -10.6 -46.8 -19.6 -46.8 -33.35 -46.8 -62.85 -30.6 -62.85 -25.05 -62.85 -20.5 -58.0 L-20.5 -57.25" fill="#000000" fill-rule="evenodd" stroke="none"/>
      <path d="M74.9 -63.7 Q66.5 -63.2 58.05 -53.85 L48.05 -42.75 68.2 -1.9 84.35 9.0 48.05 9.0 46.45 7.45 79.5 7.45 67.35 -0.8 46.45 -42.75 57.05 -54.75 Q65.5 -64.1 74.25 -64.9 L74.9 -63.7 M72.0 -68.35 Q62.2 -65.95 50.75 -52.25 L42.8 -42.85 63.85 -1.9 73.45 4.3 43.85 4.3 51.3 -1.3 37.15 -29.6 27.85 -18.25 27.85 -1.9 37.15 9.0 7.9 9.0 6.35 7.45 33.75 7.45 26.5 -1.3 26.5 -18.95 36.4 -31.2 35.15 -33.7 23.35 -19.65 23.35 -1.9 30.25 4.3 4.1 4.3 11.95 -2.35 11.95 -62.1 4.55 -68.9 31.3 -68.9 23.35 -61.35 23.35 -26.9 26.5 -30.5 26.5 -60.9 32.85 -67.15 33.75 -65.9 27.85 -60.15 27.85 -32.25 45.55 -53.4 Q49.35 -57.95 49.35 -61.6 49.35 -63.8 47.2 -65.75 45.05 -67.65 41.95 -68.35 L41.95 -68.9 72.0 -68.9 72.0 -68.35" fill="#000000" fill-rule="evenodd" stroke="none"/>
      <path d="M100.15 -61.55 Q100.15 -47.3 83.25 -41.85 L82.8 -42.7 83.4 -43.15 Q89.25 -48.15 89.25 -55.0 89.25 -59.85 86.25 -63.45 L87.3 -63.85 Q93.6 -66.1 98.45 -69.35 100.15 -65.45 100.15 -61.55 M103.55 -60.9 Q103.55 -63.85 102.5 -68.45 L104.1 -67.65 Q105.05 -64.3 105.05 -61.3 105.05 -45.15 86.2 -37.95 L85.45 -39.5 86.4 -39.85 Q96.05 -43.75 99.75 -49.25 103.55 -55.1 103.55 -60.9" fill="#000000" fill-rule="evenodd" stroke="none"/>
      <path d="M166.05 -65.9 L165.55 -65.05 Q163.05 -60.8 161.55 -57.5 L157.05 -48.15 156.75 -47.75 155.4 -48.3 155.65 -48.8 Q157.15 -52.35 160.45 -58.65 L164.3 -66.15 164.6 -66.6 166.05 -65.9 M162.55 -68.3 Q159.6 -64.35 157.8 -59.95 154.4 -51.55 153.2 -49.45 L152.9 -49.1 152.55 -50.05 Q151.0 -55.15 149.9 -57.2 149.0 -59.05 146.85 -61.05 141.65 -65.65 135.05 -65.65 128.95 -65.65 124.85 -62.25 120.8 -58.85 120.8 -53.75 120.8 -44.2 135.25 -40.65 L144.9 -38.3 Q165.5 -33.35 165.5 -16.55 165.5 -7.2 158.45 -0.85 151.45 5.5 141.0 5.5 134.45 5.5 126.45 3.5 L119.8 1.85 Q115.85 0.9 113.1 0.9 109.7 0.9 105.9 3.1 L105.45 2.3 Q112.55 -8.3 115.4 -18.0 L116.4 -17.7 Q117.6 -8.75 123.6 -3.8 129.65 1.2 139.3 1.2 146.9 1.2 151.45 -2.35 155.95 -5.85 155.95 -11.9 155.95 -18.85 149.7 -23.3 145.3 -26.45 131.2 -29.25 120.45 -31.35 115.55 -36.25 110.7 -41.25 110.7 -49.9 110.7 -58.9 117.2 -64.55 123.6 -70.15 134.05 -70.15 140.75 -70.15 149.65 -67.75 153.85 -66.6 155.8 -66.6 158.6 -66.6 161.9 -68.55 L162.55 -68.3 M162.55 -31.85 Q170.3 -26.0 170.3 -15.75 170.3 -4.85 161.85 2.7 153.4 10.25 141.3 10.25 135.05 10.25 130.2 9.0 L121.05 6.75 114.2 5.95 Q111.0 5.95 108.2 7.3 L107.5 5.65 Q110.45 4.25 113.55 4.25 117.0 4.25 121.4 5.3 L130.2 7.4 Q135.35 8.65 141.25 8.65 152.75 8.65 160.7 1.35 168.7 -5.9 168.7 -16.25 168.7 -24.95 162.55 -31.55 L162.55 -31.85 M149.4 -54.55 Q143.2 -61.2 135.95 -61.2 131.65 -61.2 128.75 -58.7 125.9 -56.15 125.9 -52.3 125.9 -48.05 131.65 -43.65 L132.1 -43.35 131.85 -42.9 Q124.3 -46.25 124.3 -52.65 124.3 -57.15 127.5 -59.9 130.75 -62.7 135.85 -62.7 140.75 -62.7 144.4 -60.6 148.1 -58.5 149.8 -54.75 L149.4 -54.55 M114.75 -33.9 L116.7 -32.85 Q118.55 -29.5 127.7 -27.25 L136.9 -24.95 Q146.15 -22.65 149.4 -20.95 152.55 -19.2 153.8 -15.85 L153.4 -15.6 Q150.85 -18.6 147.85 -19.95 144.65 -21.4 136.35 -23.3 124.0 -26.15 119.8 -28.25 115.6 -30.35 114.75 -33.9 M133.2 -0.9 L133.2 -0.4 Q122.6 -3.55 120.35 -15.15 L121.9 -15.45 Q124.0 -5.2 133.2 -0.9" fill="#000000" fill-rule="evenodd" stroke="none"/>
    </g>
  </defs>
</svg>
