<?xml version="1.0" encoding="UTF-8" standalone="no"?>
<svg xmlns:xlink="http://www.w3.org/1999/xlink" height="300.0px" width="300.0px" xmlns="http://www.w3.org/2000/svg">
  <g transform="matrix(1.0, 0.0, 0.0, 1.0, 0.0, 0.0)">
    <use height="50.15" transform="matrix(1.0, 0.0, 0.0, 1.0, 44.85, 223.3)" width="205.9" xlink:href="#shape0"/>
    <use height="197.7" transform="matrix(1.0, 0.0, 0.0, 1.0, 48.0, 19.0)" width="218.9" xlink:href="#sprite0"/>
  </g>
  <defs>
    <g id="shape0" transform="matrix(1.0, 0.0, 0.0, 1.0, -44.85, -223.3)">
      <path d="M129.45 224.15 Q130.65 224.15 130.65 225.4 130.65 227.8 127.25 231.15 124.7 233.7 123.5 233.7 123.0 233.7 123.0 233.35 L123.3 232.9 Q126.75 229.4 126.75 226.85 L126.5 225.55 Q128.6 224.15 129.45 224.15 M138.9 240.05 Q140.65 240.05 140.65 241.55 140.65 242.4 138.8 243.6 134.55 246.3 134.55 248.7 134.55 249.85 137.1 250.55 L140.7 251.3 Q141.9 251.7 142.8 252.2 145.8 254.05 145.8 257.7 145.8 263.65 140.25 267.1 137.75 268.6 135.0 268.6 133.4 268.6 132.15 267.9 130.55 267.05 130.55 265.55 130.55 264.95 131.05 264.45 131.45 263.9 132.0 263.9 L133.0 264.15 135.8 264.85 Q139.3 264.85 141.35 261.5 142.25 259.95 142.25 258.3 142.25 255.75 139.95 254.7 L138.1 254.15 135.5 253.65 Q130.9 252.9 130.9 249.25 130.9 245.1 135.7 241.5 137.65 240.05 138.9 240.05 M160.3 245.4 Q160.3 244.3 162.15 243.5 162.95 234.1 164.5 231.25 165.75 228.8 167.35 228.8 168.05 228.8 168.05 229.6 L167.5 232.35 Q166.9 234.5 165.8 242.05 L165.75 242.75 169.55 242.5 175.3 242.85 175.3 242.25 175.75 238.15 176.1 235.1 176.4 233.05 177.0 229.3 177.4 227.25 Q177.65 226.1 178.25 225.55 179.6 224.1 181.15 224.1 181.8 224.1 181.8 224.75 L181.55 225.9 181.3 226.75 180.55 230.25 179.6 235.7 178.75 243.0 178.7 243.55 Q180.85 244.15 180.85 245.35 180.85 246.8 179.25 246.8 L178.5 246.65 178.5 247.55 178.35 253.5 Q178.35 261.75 179.25 266.45 179.7 268.8 180.45 270.85 178.25 273.45 177.15 273.45 176.25 273.45 175.8 271.5 175.3 269.1 175.05 265.3 174.65 260.15 174.65 254.8 174.65 250.15 175.0 246.1 L169.35 245.75 165.45 245.9 Q165.3 247.7 165.3 250.95 165.3 251.65 165.85 253.85 166.8 257.4 166.8 262.25 166.8 268.35 165.0 268.35 163.1 268.35 162.3 261.2 161.8 257.2 161.8 252.2 L161.8 251.5 161.8 250.95 161.75 250.2 161.3 249.05 160.8 247.4 Q160.3 246.1 160.3 245.4 M90.5 244.7 L90.45 246.35 91.2 245.1 Q92.85 242.2 94.1 242.2 94.9 242.2 95.4 242.9 L96.75 244.85 Q97.6 246.1 99.05 246.2 L98.55 247.4 Q97.95 249.25 96.85 249.25 96.1 249.25 95.15 247.7 94.4 246.35 93.95 246.35 93.2 246.35 92.45 247.95 90.25 252.15 90.25 258.95 L90.3 261.7 90.45 265.45 Q90.5 267.6 89.3 267.6 86.9 267.6 86.9 256.5 86.9 248.9 87.35 245.1 L87.55 243.2 Q87.85 241.0 88.65 241.0 90.5 241.0 90.5 244.7 M104.65 243.65 L104.35 247.95 104.2 251.0 104.45 250.25 Q107.75 241.75 112.55 241.75 115.3 241.75 116.6 244.75 117.65 246.95 117.65 250.0 117.65 256.1 114.5 261.5 112.85 264.15 110.9 265.85 107.65 268.75 105.3 268.75 103.25 268.75 103.25 266.85 103.25 265.7 104.35 265.45 L105.1 265.3 Q108.75 264.5 111.2 260.8 114.3 256.15 114.3 250.65 114.3 245.25 111.7 245.25 109.0 245.25 106.6 252.15 105.4 255.55 104.7 259.8 L104.3 262.4 Q104.05 263.9 103.0 263.9 100.9 263.9 100.9 254.05 100.9 247.3 101.55 239.55 102.2 232.55 103.35 226.7 104.05 223.3 105.15 223.3 106.3 223.3 107.5 225.85 L107.3 226.45 106.3 230.7 Q105.1 236.9 104.65 243.65 M83.6 257.85 L83.9 259.1 Q83.9 260.65 82.05 263.65 79.3 268.0 75.9 268.0 71.5 268.0 69.65 262.45 68.75 259.85 68.75 256.5 68.75 250.3 71.2 245.55 73.6 240.7 76.6 240.7 78.5 240.7 79.55 242.55 80.35 244.0 80.35 246.1 80.35 254.05 72.45 260.4 73.75 264.7 76.1 264.7 78.85 264.7 81.6 258.25 82.05 257.15 82.6 257.15 83.15 257.15 83.6 257.85 M52.05 232.35 Q51.45 234.5 50.35 242.05 L50.3 242.75 54.1 242.5 59.85 242.85 59.85 242.25 60.3 238.15 60.65 235.1 60.95 233.05 61.55 229.3 61.95 227.25 Q62.2 226.1 62.8 225.55 64.15 224.1 65.7 224.1 66.35 224.1 66.35 224.75 L66.1 225.9 65.85 226.75 65.1 230.25 64.15 235.7 63.3 243.0 63.25 243.55 Q65.4 244.15 65.4 245.35 65.4 246.8 63.8 246.8 L63.05 246.65 63.05 247.55 62.9 253.5 Q62.9 261.75 63.8 266.45 64.25 268.8 65.0 270.85 62.8 273.45 61.7 273.45 60.8 273.45 60.35 271.5 59.85 269.1 59.6 265.3 59.2 260.15 59.2 254.8 59.2 250.15 59.55 246.1 L53.9 245.75 50.0 245.9 Q49.85 247.7 49.85 250.95 49.85 251.65 50.4 253.85 51.35 257.4 51.35 262.25 51.35 268.35 49.55 268.35 47.65 268.35 46.85 261.2 46.35 257.2 46.35 252.2 L46.35 251.5 46.35 250.95 46.3 250.2 45.85 249.05 45.35 247.4 Q44.85 246.1 44.85 245.4 44.85 244.3 46.7 243.5 47.5 234.1 49.05 231.25 50.3 228.8 51.9 228.8 52.6 228.8 52.6 229.6 L52.05 232.35 M76.4 244.25 Q74.2 244.25 72.65 251.15 71.95 254.2 71.95 257.1 75.25 254.45 76.8 250.2 77.45 248.15 77.45 246.25 77.45 244.25 76.4 244.25 M245.6 241.55 Q245.6 242.4 243.75 243.6 239.55 246.3 239.55 248.7 239.55 249.85 242.1 250.55 L245.65 251.3 Q246.9 251.7 247.75 252.2 250.75 254.05 250.75 257.7 250.75 263.65 245.2 267.1 242.7 268.6 240.0 268.6 238.4 268.6 237.1 267.9 235.55 267.05 235.55 265.55 235.55 264.95 236.0 264.45 236.4 263.9 237.0 263.9 L237.95 264.15 240.75 264.85 Q244.3 264.85 246.3 261.5 247.25 259.95 247.25 258.3 247.25 255.75 244.9 254.7 L243.05 254.15 240.45 253.65 Q235.9 252.9 235.9 249.25 235.9 245.1 240.7 241.5 242.6 240.05 243.9 240.05 245.6 240.05 245.6 241.55 M220.6 223.3 Q221.75 223.3 222.95 225.85 L222.75 226.45 221.75 230.7 Q220.55 236.9 220.1 243.65 L219.8 247.95 219.65 251.0 219.9 250.25 Q223.2 241.75 228.0 241.75 230.75 241.75 232.05 244.75 233.1 246.95 233.1 250.0 233.1 256.1 229.95 261.5 228.3 264.15 226.35 265.85 223.1 268.75 220.75 268.75 218.7 268.75 218.7 266.85 218.7 265.7 219.8 265.45 L220.55 265.3 Q224.2 264.5 226.65 260.8 229.75 256.15 229.75 250.65 229.75 245.25 227.15 245.25 224.45 245.25 222.05 252.15 220.85 255.55 220.15 259.8 L219.75 262.4 Q219.5 263.9 218.45 263.9 216.35 263.9 216.35 254.05 216.35 247.3 217.05 239.55 217.65 232.55 218.8 226.7 219.5 223.3 220.6 223.3 M212.2 244.85 Q213.05 246.1 214.5 246.2 L214.0 247.4 Q213.4 249.25 212.3 249.25 211.55 249.25 210.6 247.7 209.85 246.35 209.4 246.35 208.65 246.35 207.9 247.95 205.7 252.15 205.7 258.95 L205.75 261.7 205.9 265.45 Q205.95 267.6 204.75 267.6 202.35 267.6 202.35 256.5 202.35 248.9 202.8 245.1 L203.0 243.2 Q203.3 241.0 204.1 241.0 205.95 241.0 205.95 244.7 L205.9 246.35 206.65 245.1 Q208.3 242.2 209.55 242.2 210.35 242.2 210.85 242.9 L212.2 244.85 M195.0 242.55 Q195.8 244.0 195.8 246.1 195.8 254.05 187.9 260.4 189.2 264.7 191.55 264.7 194.3 264.7 197.05 258.25 197.5 257.15 198.05 257.15 198.6 257.15 199.05 257.85 L199.35 259.1 Q199.35 260.65 197.5 263.65 194.75 268.0 191.35 268.0 186.95 268.0 185.1 262.45 184.2 259.85 184.2 256.5 184.2 250.3 186.65 245.55 189.05 240.7 192.05 240.7 193.95 240.7 195.0 242.55 M191.85 244.25 Q189.65 244.25 188.1 251.15 187.4 254.2 187.4 257.1 190.7 254.45 192.25 250.2 192.9 248.15 192.9 246.25 192.9 244.25 191.85 244.25" fill="#000000" fill-rule="evenodd" stroke="none"/>
    </g>
    <g id="sprite0" transform="matrix(1.0, 0.0, 0.0, 1.0, 0.0, 0.0)">
      <use height="197.7" transform="matrix(1.0, 0.0, 0.0, 1.0, 0.0, 0.0)" width="218.9" xlink:href="#shape1"/>
    </g>
    <g id="shape1" transform="matrix(1.0, 0.0, 0.0, 1.0, 0.0, 0.0)">
      <path d="M85.35 21.75 Q80.45 27.15 79.75 23.0 L79.45 22.9 Q73.5 25.6 67.7 26.75 L67.7 26.45 Q83.35 14.35 85.25 21.2 L85.35 21.75 M70.05 15.25 Q64.7 12.9 68.85 12.05 L68.85 12.35 Q79.2 13.85 76.05 17.75 75.9 17.9 75.9 18.2 65.45 24.3 59.55 12.85 L59.45 12.35 Q63.1 12.65 69.45 15.2 L70.05 15.25 M49.45 176.5 L49.45 176.8 Q42.5 173.2 39.45 162.35 L39.45 162.1 Q29.25 165.6 32.95 168.25 L33.4 168.1 Q36.0 165.4 40.0 173.55 L39.95 174.15 Q37.85 184.9 34.15 172.35 L34.15 172.1 Q33.65 173.5 32.95 178.85 L32.9 178.3 Q30.65 171.8 27.1 162.95 L27.1 162.65 Q32.95 164.6 34.75 159.45 L34.6 158.9 Q31.2 151.0 25.3 160.0 26.7 162.8 25.45 164.8 25.3 165.0 25.3 165.3 L25.3 165.9 25.3 166.5 25.65 166.6 Q28.75 172.3 28.25 172.95 L28.1 172.5 Q23.15 167.95 17.1 165.3 L16.8 165.3 Q22.95 158.85 11.8 160.6 L11.4 160.45 Q9.8 158.2 18.25 157.1 L18.7 156.95 Q22.05 154.35 20.6 153.55 L20.65 153.25 Q26.65 151.95 15.9 150.0 L15.55 149.9 Q13.95 146.65 10.0 145.9 L9.95 145.35 Q6.7 135.7 14.15 137.65 L14.7 137.65 Q18.95 137.4 21.2 131.8 L21.1 131.4 Q14.85 128.75 11.8 128.25 L12.1 128.25 Q11.5 121.05 4.7 124.15 L4.45 124.15 Q6.2 117.0 4.15 112.95 L4.7 113.05 Q13.95 116.2 0.6 104.7 2.2 96.3 5.9 95.9 L6.5 95.9 Q5.0 88.35 17.1 89.95 L17.65 90.0 14.2 98.85 14.15 99.4 Q19.0 101.4 17.7 96.45 L17.65 95.9 Q24.75 83.95 20.0 87.35 L20.0 87.05 Q14.85 89.95 16.2 82.35 L15.9 82.35 Q18.25 77.25 23.55 76.5 L24.15 76.45 Q33.85 78.25 25.35 76.2 L25.3 75.9 Q23.45 65.95 29.45 65.6 L29.45 65.9 Q27.6 73.3 32.95 73.25 L32.95 72.95 Q31.15 62.65 34.65 53.5 L34.75 52.95 Q44.25 52.2 39.6 48.65 39.45 48.5 39.45 48.2 35.0 49.15 44.0 39.25 L44.1 39.05 Q42.95 48.45 47.25 53.95 L47.65 54.1 Q54.3 48.8 48.4 43.3 L54.8 46.9 Q56.55 40.7 60.5 38.55 L60.6 38.2 Q56.9 40.6 51.95 35.7 51.8 35.55 51.8 35.3 55.25 32.2 49.6 27.45 49.45 27.35 49.45 27.05 53.9 28.25 60.15 23.05 60.3 22.9 60.6 22.9 61.1 29.7 64.05 30.85 L64.15 31.15 Q66.3 28.7 69.55 31.6 L70.05 31.75 Q71.45 26.0 78.25 27.0 L78.85 27.05 78.85 26.45 Q80.15 26.65 80.55 27.65 L80.6 28.2 Q86.4 29.6 92.55 21.9 92.7 21.75 93.0 21.75 93.0 16.85 90.35 15.85 L90.65 15.85 Q92.5 7.2 96.7 0.1 L97.1 0.0 100.15 10.55 Q100.9 7.5 104.75 7.35 L104.75 7.6 Q106.0 13.0 110.55 12.05 L110.65 11.75 Q114.65 4.4 113.6 12.9 L113.55 13.5 Q117.85 15.1 113.15 20.7 113.0 20.85 113.0 21.15 108.95 20.2 104.6 24.55 L104.15 24.7 Q104.0 27.6 109.55 24.2 L110.05 24.1 Q116.2 28.4 121.1 25.05 L121.2 24.7 Q126.15 29.7 126.5 27.5 124.95 18.0 129.9 21.35 L130.05 21.75 Q130.65 28.15 135.85 26.2 L135.95 25.85 Q140.5 27.95 140.95 30.55 L140.65 30.55 Q149.25 33.5 150.35 24.7 L150.65 24.7 160.05 25.0 160.05 24.7 Q163.65 27.35 168.6 28.8 L168.3 28.8 Q165.05 33.85 161.4 29.3 161.25 29.1 161.25 28.8 156.05 27.35 152.2 32.8 152.1 32.95 151.8 32.95 L151.8 33.5 151.9 33.8 Q168.6 36.95 147.1 40.55 L146.95 40.1 144.75 37.05 Q144.75 39.7 146.1 41.0 L146.5 41.15 Q151.9 41.65 156.65 46.9 L157.1 47.05 Q158.9 45.7 165.4 48.7 L165.95 48.8 Q157.9 56.35 167.2 52.45 L167.7 52.35 175.0 68.1 175.35 68.25 Q179.05 64.0 180.35 60.1 L180.65 60.0 Q178.45 66.5 188.9 65.3 L189.5 65.3 Q190.75 70.1 197.4 61.15 L197.15 61.15 Q197.2 52.3 200.9 64.05 203.55 63.2 207.7 59.7 L207.7 60.0 Q215.5 65.25 204.85 68.5 204.75 68.5 204.75 68.8 197.15 66.15 195.05 67.05 L195.35 67.05 Q186.4 74.15 174.75 71.25 L174.2 71.15 Q169.75 73.25 178.25 74.4 L178.3 74.7 Q171.25 83.65 167.1 82.45 L166.55 82.35 166.45 82.05 Q164.95 81.65 164.2 82.35 L165.45 83.4 165.95 83.55 165.8 83.95 164.75 84.7 Q169.75 87.9 172.6 84.25 L173.0 84.1 Q173.3 85.9 175.2 83.95 L175.35 83.55 Q182.55 76.1 186.45 77.3 L186.55 77.65 Q184.0 79.8 188.15 83.65 L188.3 84.1 Q196.1 75.65 195.4 81.75 L195.35 82.35 Q196.15 88.15 200.9 78.35 L201.25 78.25 Q198.2 86.45 202.6 80.75 209.15 86.65 205.15 77.75 L204.75 77.65 Q204.15 75.6 210.65 75.9 L211.25 75.9 Q213.7 79.25 212.15 88.75 L211.85 88.8 Q205.75 92.55 198.25 90.65 L197.7 90.6 Q197.35 98.75 194.9 101.9 194.75 102.05 194.75 102.35 194.4 112.65 196.05 111.35 L196.55 111.2 Q199.85 119.5 193.6 119.7 194.0 124.6 191.55 128.85 L191.85 128.85 Q188.55 131.7 181.95 125.75 L181.85 125.3 Q176.45 125.35 181.1 129.0 L181.25 129.4 Q182.25 129.6 182.4 130.6 L182.4 131.2 183.0 131.25 Q191.15 132.6 184.2 140.0 L184.7 140.15 Q193.55 144.3 182.4 144.7 L182.25 145.2 175.35 152.95 174.75 152.9 Q165.6 150.9 163.0 155.3 167.4 160.4 168.95 161.1 L169.45 161.2 Q176.95 160.1 186.05 153.7 186.25 153.55 186.55 153.55 175.6 165.65 164.75 164.75 L164.2 164.75 163.6 164.75 162.4 164.75 162.4 165.0 Q156.8 165.65 150.65 170.0 L150.65 170.3 Q145.5 168.55 143.0 169.45 L143.1 169.95 Q147.25 178.5 141.25 177.65 L141.25 177.4 Q137.0 186.55 134.75 181.8 L135.1 181.65 Q136.6 178.8 127.7 182.4 L127.8 181.8 Q129.6 176.25 125.35 184.15 125.05 184.15 124.95 184.3 119.85 190.45 111.8 182.95 L111.3 183.1 Q103.65 188.1 95.35 185.3 L95.05 185.3 Q94.4 181.0 90.65 179.45 L90.65 179.75 Q87.4 177.35 81.2 174.75 L80.9 174.8 Q78.55 183.0 72.95 182.4 L72.7 182.4 Q77.75 186.4 68.85 186.5 L68.8 186.15 Q57.1 183.3 50.6 174.75 50.6 174.45 50.75 174.3 56.55 168.95 47.65 171.2 48.9 173.55 49.15 176.45 L49.45 176.5 M46.5 33.5 Q38.6 45.1 36.0 38.2 L35.9 37.65 Q40.25 33.45 45.9 33.5 L46.5 33.5 M16.5 65.3 Q26.95 60.6 19.35 67.4 L16.5 65.3 M98.85 39.4 L98.9 40.0 Q100.25 51.3 104.15 47.05 L104.2 46.75 Q108.65 46.0 98.85 39.4 M83.55 63.5 L83.55 63.8 Q94.35 62.75 90.05 54.7 L90.0 55.3 Q89.7 60.3 83.55 63.5 M100.05 55.3 L99.65 55.15 Q94.8 49.35 94.15 60.6 L94.2 61.15 Q94.65 66.45 100.65 66.45 L100.9 66.45 Q91.25 56.65 102.4 60.6 L102.9 60.7 Q104.3 61.5 100.05 55.3 M87.7 71.75 L87.8 72.1 Q94.15 74.8 97.1 78.25 L97.5 78.1 Q102.55 71.8 97.1 75.3 L97.1 75.6 Q95.2 71.45 87.7 71.75 M97.1 81.15 L97.4 81.05 88.25 80.6 88.4 81.05 Q92.65 85.6 97.1 81.15 M134.15 7.05 Q144.75 -1.65 140.05 12.65 L140.05 12.35 Q133.9 12.35 134.15 7.6 L134.15 7.05 M119.6 21.2 Q119.45 21.45 119.45 21.75 116.95 20.55 113.0 22.05 L113.0 21.75 Q123.45 13.3 119.6 21.2 M118.0 35.85 Q115.5 30.55 111.2 26.45 L111.15 27.05 Q109.95 34.0 117.7 35.85 L118.0 35.85 M127.1 78.25 L126.8 78.25 Q134.3 75.4 127.1 75.3 L126.8 75.3 Q125.45 84.15 117.7 85.9 L117.7 86.45 Q118.7 93.35 119.45 88.25 L119.55 87.9 Q123.3 86.45 128.05 82.0 126.1 86.55 129.45 88.25 129.45 87.95 129.6 87.75 133.3 82.15 127.1 78.25 M136.05 74.05 Q140.8 84.3 138.85 77.05 138.85 76.75 139.0 76.6 147.1 67.5 135.95 73.5 L136.05 74.05 M188.9 41.75 Q184.65 49.5 186.65 51.0 L187.1 51.15 Q189.6 53.0 185.85 55.75 L185.35 55.85 175.5 49.2 Q175.35 49.1 175.35 48.8 181.05 47.6 188.9 41.45 L188.9 41.75 M181.25 29.4 Q195.45 28.85 182.75 31.7 181.25 32.0 181.25 29.4 M214.2 120.3 L214.2 120.6 Q210.85 128.5 206.1 124.0 205.95 123.85 205.95 123.55 212.15 113.85 218.75 122.5 L218.9 122.95 Q214.4 132.0 214.2 120.3 M169.45 98.25 Q169.8 101.7 170.15 101.6 176.7 99.9 169.45 98.25 M179.45 113.55 L179.45 113.85 Q187.0 113.25 187.65 112.5 184.1 101.15 179.45 113.55 M165.95 112.35 L165.65 112.35 Q167.5 117.9 163.55 120.25 L163.5 120.3 Q161.55 121.4 158.3 121.75 L158.45 122.2 Q162.2 125.4 165.35 127.05 L165.8 126.9 Q173.5 120.7 167.1 118.85 L167.15 118.25 Q167.75 111.55 165.95 112.35 M146.5 88.25 Q146.25 88.25 146.1 88.4 142.25 91.85 137.1 92.35 L137.25 92.9 Q141.6 100.85 146.5 88.25 M144.15 101.75 Q144.15 102.05 144.3 102.1 147.25 103.4 151.25 100.0 L151.3 99.45 Q152.25 97.05 144.15 101.75 M151.25 104.1 Q152.3 108.85 154.45 107.6 159.3 104.75 151.25 104.1 M128.85 108.85 L129.0 109.35 Q131.65 114.45 133.6 102.95 L133.5 102.4 Q132.5 99.4 128.85 108.85 M119.0 124.85 Q124.65 118.75 120.35 117.7 119.65 128.3 112.4 118.25 L112.55 118.75 Q117.65 126.15 114.15 129.4 114.15 129.7 114.3 129.85 117.75 132.75 115.95 138.85 L116.5 138.8 Q125.3 138.35 119.45 135.3 L119.75 135.3 Q120.3 127.05 122.4 131.8 L122.5 132.15 Q124.7 133.45 126.5 134.15 L126.4 133.6 Q123.2 126.1 118.85 125.3 118.85 125.0 119.0 124.85 M130.05 127.05 L130.1 126.5 Q132.15 117.85 124.15 125.3 124.15 125.6 124.3 125.65 128.0 127.4 130.05 127.05 M147.8 118.15 Q152.0 125.25 155.35 118.85 L155.25 118.3 Q154.4 116.45 147.7 117.65 L147.8 118.15 M137.7 131.8 L137.8 132.1 Q143.1 133.8 147.1 129.6 L145.45 129.15 145.35 128.85 147.3 129.45 149.45 126.5 149.4 126.15 Q146.65 125.3 144.3 116.95 145.35 124.25 137.7 131.8 M135.35 164.75 L135.65 164.75 Q134.75 157.65 130.05 166.5 L130.05 166.8 135.35 164.75 M138.85 154.15 L139.0 153.6 Q141.1 149.45 134.15 159.45 134.15 159.7 134.3 159.75 140.25 162.25 138.85 154.15 M118.3 151.2 L118.15 150.7 Q111.55 143.3 108.85 154.15 L108.95 154.45 Q114.55 156.25 115.35 162.95 L115.65 162.95 Q115.5 155.85 118.85 158.85 L118.75 158.3 Q117.3 154.9 118.3 151.2 M118.85 172.35 L122.4 173.0 Q120.35 163.35 118.85 172.35 M128.3 197.7 Q124.6 193.4 124.7 190.6 L124.75 190.05 Q134.3 189.8 128.65 197.55 L128.3 197.7 M195.35 164.75 Q208.35 158.8 199.65 169.55 199.5 169.75 199.5 170.0 195.2 169.75 195.35 165.3 L195.35 164.75 M102.4 103.55 L102.55 104.05 Q104.85 107.55 105.9 112.35 105.9 112.05 106.05 112.0 114.8 105.85 110.65 104.7 L110.65 105.0 Q105.85 105.2 102.4 103.55 M92.4 100.0 L92.4 99.4 Q93.55 86.05 85.9 88.8 85.9 89.1 86.05 89.25 89.75 93.3 87.1 100.6 L86.8 100.65 Q86.55 101.6 92.4 100.0 M97.7 104.7 L97.1 104.75 Q93.8 105.5 93.55 114.7 L93.55 115.0 Q88.9 110.95 87.1 120.6 L87.15 121.2 Q87.75 125.4 89.45 127.65 L89.6 128.1 Q92.65 131.3 91.8 128.25 L91.7 127.7 Q87.75 119.55 95.35 116.5 L95.4 115.9 Q96.05 112.25 99.45 108.85 L99.55 108.5 Q104.95 106.5 97.7 104.7 M68.25 86.45 L68.1 86.0 Q65.65 82.95 57.1 84.7 L57.2 85.05 Q63.4 88.2 68.25 86.45 M71.2 94.1 L71.2 94.4 Q76.9 93.4 77.1 98.85 L77.1 99.1 Q82.05 86.95 71.2 94.1 M76.0 105.6 Q82.55 107.6 84.15 110.0 L84.6 109.85 Q85.5 109.0 88.25 107.1 87.75 104.95 82.05 105.85 L82.15 105.75 Q85.55 97.7 75.9 105.3 L76.0 105.6 M71.6 122.45 Q69.1 112.7 65.9 121.75 L66.05 122.3 Q69.85 129.95 75.85 123.65 71.25 116.15 71.6 122.45 M72.95 134.7 L73.1 135.05 Q81.3 139.7 76.5 130.6 L76.6 130.05 Q81.15 122.2 72.95 134.7 M66.5 128.85 L66.5 128.55 Q66.25 133.5 62.4 140.0 L62.5 140.55 Q64.0 143.15 67.7 140.0 L68.05 139.9 Q71.1 132.7 66.5 128.85 M101.2 119.4 L101.3 120.0 Q103.2 125.35 107.7 128.25 L107.7 127.65 Q107.7 117.4 101.2 119.4 M95.35 139.4 L94.75 139.4 84.15 139.4 84.15 140.0 Q84.35 145.15 89.45 147.05 L89.75 147.05 Q87.15 148.75 94.15 155.9 L94.65 155.75 Q97.4 153.4 98.1 154.15 98.45 148.8 96.5 145.9 L96.8 145.9 Q93.75 142.55 95.35 139.4 M92.4 134.15 L92.55 134.55 Q99.3 139.55 102.4 140.0 101.95 134.85 92.4 134.15 M57.7 109.4 L58.2 109.3 Q62.15 106.95 56.5 101.2 L56.55 101.75 57.7 109.4 M42.95 91.75 L42.7 94.1 Q41.15 91.7 38.25 95.3 L38.3 95.85 Q41.3 108.25 45.9 95.9 L46.3 95.75 Q48.35 92.55 42.95 91.75 M24.15 101.75 L24.1 101.45 Q20.85 101.0 15.3 107.05 L15.3 107.35 Q19.75 107.55 24.15 101.75 M36.5 118.85 L36.6 119.35 Q43.1 130.0 38.85 120.6 L39.35 120.45 Q42.2 118.6 48.85 112.35 L48.75 111.85 Q47.3 108.75 40.0 116.5 L39.75 116.5 Q43.2 104.4 36.5 118.85 M21.8 122.35 L21.85 122.9 Q23.95 129.2 27.65 131.2 L28.05 131.05 Q33.0 123.75 21.8 122.35 M30.6 128.25 L30.7 128.8 Q32.3 134.7 37.1 132.35 L37.0 131.8 Q34.85 119.0 30.6 128.25 M49.45 132.95 L49.55 133.5 Q52.1 138.4 51.3 142.45 57.15 131.85 49.45 132.95 M41.2 134.7 Q41.2 135.0 41.35 135.15 44.65 137.65 44.25 140.2 L44.3 140.1 Q50.15 131.1 41.2 134.7 M97.7 157.65 L97.75 158.25 Q98.55 162.7 101.2 162.35 L101.3 161.8 Q106.25 146.65 97.7 157.65 M97.1 167.65 Q97.1 167.95 97.25 168.05 106.95 174.95 110.65 171.2 L110.6 170.6 Q110.35 167.7 97.1 167.65 M91.8 166.5 L91.85 165.95 Q95.5 151.7 87.1 155.3 87.1 155.6 87.25 155.8 90.75 159.85 88.85 165.9 89.15 165.9 89.25 166.05 96.2 173.95 91.8 166.5 M77.1 153.55 L76.8 153.55 Q80.2 162.35 71.8 163.55 71.8 163.85 71.95 164.0 80.2 173.45 80.6 158.25 L80.7 157.7 Q81.7 153.8 77.1 153.55 M63.55 151.8 L63.7 152.3 Q65.85 156.7 66.5 155.9 L66.8 155.9 Q66.55 163.15 70.05 160.6 L69.75 160.6 Q75.0 154.85 71.2 151.8 L71.2 151.5 63.55 151.8 M82.4 157.65 L82.45 158.25 85.35 174.75 85.65 174.65 Q88.55 163.6 82.4 157.65 M8.85 64.1 Q17.95 53.2 15.35 71.75 L15.3 72.35 Q12.5 68.15 9.0 64.55 8.85 64.4 8.85 64.1 M2.95 131.2 L2.65 131.15 Q2.35 130.0 2.35 128.85 5.3 128.55 6.35 130.1 L6.5 130.6 6.8 130.6 Q6.6 140.2 0.0 137.05 4.65 136.05 3.05 131.75 L2.95 131.2" fill="#8f9863" fill-rule="evenodd" stroke="none"/>
      <path d="M98.85 39.4 Q108.65 46.0 104.2 46.75 L104.15 47.05 Q100.25 51.3 98.9 40.0 L98.85 39.4 M127.1 78.25 Q133.3 82.15 129.6 87.75 129.45 87.95 129.45 88.25 126.1 86.55 128.05 82.0 123.3 86.45 119.55 87.9 L119.45 88.25 Q118.7 93.35 117.7 86.45 L117.7 85.9 Q125.45 84.15 126.8 75.3 L127.1 75.3 Q134.3 75.4 126.8 78.25 L127.1 78.25" fill="#5f683b" fill-rule="evenodd" stroke="none"/>
      <path d="M83.55 63.5 Q89.7 60.3 90.0 55.3 L90.05 54.7 Q94.35 62.75 83.55 63.8 L83.55 63.5" fill="#60643a" fill-rule="evenodd" stroke="none"/>
      <path d="M100.05 55.3 Q104.3 61.5 102.9 60.7 L102.4 60.6 Q91.25 56.65 100.9 66.45 L100.65 66.45 Q94.65 66.45 94.2 61.15 L94.15 60.6 Q94.8 49.35 99.65 55.15 L100.05 55.3" fill="#656b3f" fill-rule="evenodd" stroke="none"/>
      <path d="M87.7 71.75 Q95.2 71.45 97.1 75.6 L97.1 75.3 Q102.55 71.8 97.5 78.1 L97.1 78.25 Q94.15 74.8 87.8 72.1 L87.7 71.75" fill="#5e6438" fill-rule="evenodd" stroke="none"/>
      <path d="M97.1 81.15 Q92.65 85.6 88.4 81.05 L88.25 80.6 97.4 81.05 97.1 81.15" fill="#5c653a" fill-rule="evenodd" stroke="none"/>
      <path d="M147.1 40.55 L146.95 41.0 146.5 41.15 146.1 41.0 Q144.75 39.7 144.75 37.05 L146.95 40.1 147.1 40.55" fill="#67703a" fill-rule="evenodd" stroke="none"/>
      <path d="M118.0 35.85 L117.7 35.85 Q109.95 34.0 111.15 27.05 L111.2 26.45 Q115.5 30.55 118.0 35.85" fill="#656d3c" fill-rule="evenodd" stroke="none"/>
      <path d="M136.05 74.05 L135.95 73.5 Q147.1 67.5 139.0 76.6 138.85 76.75 138.85 77.05 140.8 84.3 136.05 74.05" fill="#606639" fill-rule="evenodd" stroke="none"/>
      <path d="M24.15 101.75 Q19.75 107.55 15.3 107.35 L15.3 107.05 Q20.85 101.0 24.1 101.45 L24.15 101.75" fill="#646d39" fill-rule="evenodd" stroke="none"/>
      <path d="M173.0 84.1 L173.0 83.55 Q174.2 82.4 174.95 83.4 L175.35 83.55 175.2 83.95 Q173.3 85.9 173.0 84.1" fill="#69713e" fill-rule="evenodd" stroke="none"/>
      <path d="M166.55 82.35 L166.4 82.9 165.95 83.55 165.45 83.4 164.2 82.35 Q164.95 81.65 166.45 82.05 L166.55 82.35" fill="#6c723e" fill-rule="evenodd" stroke="none"/>
      <path d="M169.45 98.25 Q176.7 99.9 170.15 101.6 169.8 101.7 169.45 98.25" fill="#61643a" fill-rule="evenodd" stroke="none"/>
      <path d="M179.45 113.55 Q184.1 101.15 187.65 112.5 187.0 113.25 179.45 113.85 L179.45 113.55" fill="#646b3d" fill-rule="evenodd" stroke="none"/>
      <path d="M165.95 112.35 Q167.75 111.55 167.15 118.25 L167.1 118.85 Q173.5 120.7 165.8 126.9 L165.35 127.05 Q162.2 125.4 158.45 122.2 L158.3 121.75 Q161.55 121.4 163.5 120.3 L163.55 120.25 Q167.5 117.9 165.65 112.35 L165.95 112.35" fill="#606539" fill-rule="evenodd" stroke="none"/>
      <path d="M146.5 88.25 Q141.6 100.85 137.25 92.9 L137.1 92.35 Q142.25 91.85 146.1 88.4 146.25 88.25 146.5 88.25" fill="#5d6539" fill-rule="evenodd" stroke="none"/>
      <path d="M144.15 101.75 Q152.25 97.05 151.3 99.45 L151.25 100.0 Q147.25 103.4 144.3 102.1 144.15 102.05 144.15 101.75" fill="#5e633a" fill-rule="evenodd" stroke="none"/>
      <path d="M151.25 104.1 Q159.3 104.75 154.45 107.6 152.3 108.85 151.25 104.1" fill="#5f6237" fill-rule="evenodd" stroke="none"/>
      <path d="M128.85 108.85 Q132.5 99.4 133.5 102.4 L133.6 102.95 Q131.65 114.45 129.0 109.35 L128.85 108.85" fill="#5b6336" fill-rule="evenodd" stroke="none"/>
      <path d="M119.0 124.85 Q118.85 125.0 118.85 125.3 123.2 126.1 126.4 133.6 L126.5 134.15 Q124.7 133.45 122.5 132.15 L122.4 131.8 Q120.3 127.05 119.75 135.3 L119.45 135.3 Q125.3 138.35 116.5 138.8 L115.95 138.85 Q117.75 132.75 114.3 129.85 114.15 129.7 114.15 129.4 117.65 126.15 112.55 118.75 L112.4 118.25 Q119.65 128.3 120.35 117.7 124.65 118.75 119.0 124.85" fill="#5d643a" fill-rule="evenodd" stroke="none"/>
      <path d="M130.05 127.05 Q128.0 127.4 124.3 125.65 124.15 125.6 124.15 125.3 132.15 117.85 130.1 126.5 L130.05 127.05" fill="#61683b" fill-rule="evenodd" stroke="none"/>
      <path d="M147.8 118.15 L147.7 117.65 Q154.4 116.45 155.25 118.3 L155.35 118.85 Q152.0 125.25 147.8 118.15" fill="#63693c" fill-rule="evenodd" stroke="none"/>
      <path d="M137.7 131.8 Q145.35 124.25 144.3 116.95 146.65 125.3 149.4 126.15 L149.45 126.5 147.3 129.45 145.35 128.85 145.45 129.15 147.1 129.6 Q143.1 133.8 137.8 132.1 L137.7 131.8" fill="#62693d" fill-rule="evenodd" stroke="none"/>
      <path d="M135.35 164.75 L130.05 166.8 130.05 166.5 Q134.75 157.65 135.65 164.75 L135.35 164.75" fill="#5d6537" fill-rule="evenodd" stroke="none"/>
      <path d="M138.85 154.15 Q140.25 162.25 134.3 159.75 134.15 159.7 134.15 159.45 141.1 149.45 139.0 153.6 L138.85 154.15" fill="#5b653b" fill-rule="evenodd" stroke="none"/>
      <path d="M118.3 151.2 Q117.3 154.9 118.75 158.3 L118.85 158.85 Q115.5 155.85 115.65 162.95 L115.35 162.95 Q114.55 156.25 108.95 154.45 L108.85 154.15 Q111.55 143.3 118.15 150.7 L118.3 151.2" fill="#63683e" fill-rule="evenodd" stroke="none"/>
      <path d="M118.85 172.35 Q120.35 163.35 122.4 173.0 L118.85 172.35" fill="#656c3e" fill-rule="evenodd" stroke="none"/>
      <path d="M97.7 104.7 Q104.95 106.5 99.55 108.5 L99.45 108.85 Q96.05 112.25 95.4 115.9 L95.35 116.5 Q87.75 119.55 91.7 127.7 L91.8 128.25 Q92.65 131.3 89.6 128.1 L89.45 127.65 Q87.75 125.4 87.15 121.2 L87.1 120.6 Q88.9 110.95 93.55 115.0 L93.55 114.7 Q93.8 105.5 97.1 104.75 L97.7 104.7" fill="#5e653b" fill-rule="evenodd" stroke="none"/>
      <path d="M102.4 103.55 Q105.85 105.2 110.65 105.0 L110.65 104.7 Q114.8 105.85 106.05 112.0 105.9 112.05 105.9 112.35 104.85 107.55 102.55 104.05 L102.4 103.55" fill="#60653a" fill-rule="evenodd" stroke="none"/>
      <path d="M92.4 100.0 Q86.55 101.6 86.8 100.65 L87.1 100.6 Q89.75 93.3 86.05 89.25 85.9 89.1 85.9 88.8 93.55 86.05 92.4 99.4 L92.4 100.0" fill="#5f683b" fill-rule="evenodd" stroke="none"/>
      <path d="M68.25 86.45 Q63.4 88.2 57.2 85.05 L57.1 84.7 Q65.65 82.95 68.1 86.0 L68.25 86.45" fill="#666d3e" fill-rule="evenodd" stroke="none"/>
      <path d="M71.2 94.1 Q82.05 86.95 77.1 99.1 L77.1 98.85 Q76.9 93.4 71.2 94.4 L71.2 94.1" fill="#5d6637" fill-rule="evenodd" stroke="none"/>
      <path d="M76.0 105.6 L75.9 105.3 Q85.55 97.7 82.15 105.75 L82.05 105.85 Q87.75 104.95 88.25 107.1 85.5 109.0 84.6 109.85 L84.15 110.0 Q82.55 107.6 76.0 105.6" fill="#5c653b" fill-rule="evenodd" stroke="none"/>
      <path d="M71.6 122.45 Q71.25 116.15 75.85 123.65 69.85 129.95 66.05 122.3 L65.9 121.75 Q69.1 112.7 71.6 122.45" fill="#5a6438" fill-rule="evenodd" stroke="none"/>
      <path d="M66.5 128.85 Q71.1 132.7 68.05 139.9 L67.7 140.0 Q64.0 143.15 62.5 140.55 L62.4 140.0 Q66.25 133.5 66.5 128.55 L66.5 128.85" fill="#5d653a" fill-rule="evenodd" stroke="none"/>
      <path d="M72.95 134.7 Q81.15 122.2 76.6 130.05 L76.5 130.6 Q81.3 139.7 73.1 135.05 L72.95 134.7" fill="#5d643a" fill-rule="evenodd" stroke="none"/>
      <path d="M101.2 119.4 Q107.7 117.4 107.7 127.65 L107.7 128.25 Q103.2 125.35 101.3 120.0 L101.2 119.4" fill="#697342" fill-rule="evenodd" stroke="none"/>
      <path d="M92.4 134.15 Q101.95 134.85 102.4 140.0 99.3 139.55 92.55 134.55 L92.4 134.15" fill="#61683a" fill-rule="evenodd" stroke="none"/>
      <path d="M95.35 139.4 Q93.75 142.55 96.8 145.9 L96.5 145.9 Q98.45 148.8 98.1 154.15 97.4 153.4 94.65 155.75 L94.15 155.9 Q87.15 148.75 89.75 147.05 L89.45 147.05 Q84.35 145.15 84.15 140.0 L84.15 139.4 94.75 139.4 95.35 139.4 M87.85 142.2 Q94.1 148.35 87.7 141.8 L87.85 142.2" fill="#646b3e" fill-rule="evenodd" stroke="none"/>
      <path d="M57.7 109.4 L56.55 101.75 56.5 101.2 Q62.15 106.95 58.2 109.3 L57.7 109.4" fill="#5a6339" fill-rule="evenodd" stroke="none"/>
      <path d="M42.95 91.75 Q48.35 92.55 46.3 95.75 L45.9 95.9 Q41.3 108.25 38.3 95.85 L38.25 95.3 Q41.15 91.7 42.7 94.1 L42.95 91.75" fill="#59633a" fill-rule="evenodd" stroke="none"/>
      <path d="M36.5 118.85 Q43.2 104.4 39.75 116.5 L40.0 116.5 Q47.3 108.75 48.75 111.85 L48.85 112.35 Q42.2 118.6 39.35 120.45 L38.85 120.6 Q43.1 130.0 36.6 119.35 L36.5 118.85" fill="#5d673b" fill-rule="evenodd" stroke="none"/>
      <path d="M21.8 122.35 Q33.0 123.75 28.05 131.05 L27.65 131.2 Q23.95 129.2 21.85 122.9 L21.8 122.35" fill="#5d643b" fill-rule="evenodd" stroke="none"/>
      <path d="M30.6 128.25 Q34.85 119.0 37.0 131.8 L37.1 132.35 Q32.3 134.7 30.7 128.8 L30.6 128.25" fill="#5b6439" fill-rule="evenodd" stroke="none"/>
      <path d="M49.45 132.95 Q57.15 131.85 51.3 142.45 52.1 138.4 49.55 133.5 L49.45 132.95" fill="#565f36" fill-rule="evenodd" stroke="none"/>
      <path d="M41.2 134.7 Q50.15 131.1 44.3 140.1 L44.25 140.2 Q44.65 137.65 41.35 135.15 41.2 135.0 41.2 134.7" fill="#666e3b" fill-rule="evenodd" stroke="none"/>
      <path d="M50.6 174.75 L50.45 175.15 49.45 175.9 49.45 176.5 49.15 176.45 Q48.9 173.55 47.65 171.2 56.55 168.95 50.75 174.3 50.6 174.45 50.6 174.75" fill="#676d45" fill-rule="evenodd" stroke="none"/>
      <path d="M97.1 167.65 Q110.35 167.7 110.6 170.6 L110.65 171.2 Q106.95 174.95 97.25 168.05 97.1 167.95 97.1 167.65" fill="#636b3a" fill-rule="evenodd" stroke="none"/>
      <path d="M97.7 157.65 Q106.25 146.65 101.3 161.8 L101.2 162.35 Q98.55 162.7 97.75 158.25 L97.7 157.65" fill="#5d6337" fill-rule="evenodd" stroke="none"/>
      <path d="M91.8 166.5 Q96.2 173.95 89.25 166.05 89.15 165.9 88.85 165.9 90.75 159.85 87.25 155.8 87.1 155.6 87.1 155.3 95.5 151.7 91.85 165.95 L91.8 166.5" fill="#5d663a" fill-rule="evenodd" stroke="none"/>
      <path d="M77.1 153.55 Q81.7 153.8 80.7 157.7 L80.6 158.25 Q80.2 173.45 71.95 164.0 71.8 163.85 71.8 163.55 80.2 162.35 76.8 153.55 L77.1 153.55" fill="#5e663a" fill-rule="evenodd" stroke="none"/>
      <path d="M63.55 151.8 L71.2 151.5 71.2 151.8 Q75.0 154.85 69.75 160.6 L70.05 160.6 Q66.55 163.15 66.8 155.9 L66.5 155.9 Q65.85 156.7 63.7 152.3 L63.55 151.8 M67.7 155.3 L67.75 155.6 Q71.8 156.45 67.7 155.3" fill="#656d3d" fill-rule="evenodd" stroke="none"/>
      <path d="M82.4 157.65 Q88.55 163.6 85.65 174.65 L85.35 174.75 82.45 158.25 82.4 157.65" fill="#626739" fill-rule="evenodd" stroke="none"/>
    </g>
  </defs>
</svg>
