<?xml version="1.0" encoding="UTF-8" standalone="no"?>
<svg xmlns:xlink="http://www.w3.org/1999/xlink" height="300.0px" width="300.0px" xmlns="http://www.w3.org/2000/svg">
  <g transform="matrix(1.0, 0.0, 0.0, 1.0, 0.0, 0.0)">
    <use height="73.55" transform="matrix(1.0, 0.0, 0.0, 1.0, 10.85, 112.5)" width="286.35" xlink:href="#shape0"/>
    <use height="103.35" transform="matrix(-0.6754, 0.0865, 0.0862, 0.6726, 180.75, 34.85)" width="98.2" xlink:href="#shape1"/>
    <use height="89.55" transform="matrix(1.0, 0.0, 0.0, 1.0, 8.5, 109.55)" width="296.8" xlink:href="#shape2"/>
  </g>
  <defs>
    <g id="shape0" transform="matrix(1.0, 0.0, 0.0, 1.0, -10.85, -112.5)">
      <path d="M255.85 157.3 Q267.9 164.25 276.55 172.05 282.4 177.35 286.7 183.05 L288.15 185.05 288.8 186.05 277.75 186.05 276.7 185.05 274.4 183.05 Q267.7 177.3 259.05 172.05 L255.85 170.15 Q213.65 145.85 154.0 145.85 94.35 145.85 52.2 170.15 L49.0 172.05 Q40.35 177.3 33.65 183.05 L31.4 185.05 30.3 186.05 19.3 186.05 19.95 185.05 21.4 183.05 Q25.65 177.35 31.55 172.05 40.15 164.25 52.2 157.3 94.35 132.95 154.0 132.95 213.65 132.95 255.85 157.3" fill="url(#gradient0)" fill-rule="evenodd" stroke="none"/>
      <path d="M276.55 172.05 Q267.9 164.25 255.85 157.3 213.65 132.95 154.0 132.95 94.35 132.95 52.2 157.3 40.15 164.25 31.55 172.05 25.65 177.35 21.4 183.05 L19.95 185.05 19.3 186.05 13.55 186.05 13.95 185.05 14.8 183.05 Q17.35 177.4 21.35 172.05 31.85 157.95 52.2 146.2 94.35 121.85 154.0 121.85 213.65 121.85 255.85 146.2 276.2 157.95 286.75 172.05 290.75 177.4 293.3 183.05 L294.2 185.05 294.6 186.05 288.8 186.05 288.15 185.05 286.7 183.05 Q282.4 177.35 276.55 172.05" fill="url(#gradient1)" fill-rule="evenodd" stroke="none"/>
      <path d="M297.0 185.05 L297.2 186.05 294.6 186.05 294.2 185.05 293.3 183.05 Q290.75 177.4 286.75 172.05 276.2 157.95 255.85 146.2 213.65 121.85 154.0 121.85 94.35 121.85 52.2 146.2 31.85 157.95 21.35 172.05 17.35 177.4 14.8 183.05 L13.95 185.05 13.55 186.05 10.85 186.05 11.05 185.05 11.5 183.05 Q12.85 177.4 15.5 172.05 25.25 152.35 52.2 136.8 94.35 112.5 154.0 112.5 213.65 112.5 255.85 136.8 282.8 152.35 292.55 172.05 295.15 177.4 296.55 183.05 L297.0 185.05" fill="url(#gradient2)" fill-rule="evenodd" stroke="none"/>
    </g>
    <linearGradient gradientTransform="matrix(0.0, -0.0708, 0.0779, 0.0, 149.95, 138.45)" gradientUnits="userSpaceOnUse" id="gradient0" spreadMethod="pad" x1="-819.2" x2="819.2">
      <stop offset="0.0" stop-color="#33d7ff" stop-opacity="0.0"/>
      <stop offset="1.0" stop-color="#33ffff"/>
    </linearGradient>
    <linearGradient gradientTransform="matrix(0.0, -0.0708, 0.0779, 0.0, 149.95, 127.35)" gradientUnits="userSpaceOnUse" id="gradient1" spreadMethod="pad" x1="-819.2" x2="819.2">
      <stop offset="0.0" stop-color="#d633ff" stop-opacity="0.0"/>
      <stop offset="1.0" stop-color="#8433ff"/>
    </linearGradient>
    <linearGradient gradientTransform="matrix(0.0, -0.0708, 0.0779, 0.0, 149.95, 118.0)" gradientUnits="userSpaceOnUse" id="gradient2" spreadMethod="pad" x1="-819.2" x2="819.2">
      <stop offset="0.0" stop-color="#ff3366" stop-opacity="0.0"/>
      <stop offset="1.0" stop-color="#ff3366"/>
    </linearGradient>
    <g id="shape1" transform="matrix(1.0, 0.0, 0.0, 1.0, 0.0, 0.0)">
      <path d="M95.6 43.7 Q91.55 51.6 78.9 53.45 L55.85 56.05 62.0 53.45 Q67.7 51.0 73.4 47.9 79.05 44.8 79.3 42.7 78.7 40.0 76.1 40.25 L73.15 40.75 76.9 35.1 Q80.15 30.0 79.3 27.05 77.4 24.3 74.2 25.6 71.05 26.9 68.9 30.0 L69.2 25.85 Q69.45 22.05 68.9 18.6 68.3 15.15 65.95 16.0 62.2 17.5 56.85 26.15 51.45 34.8 45.75 53.15 45.75 52.7 47.1 44.5 48.45 36.35 51.25 25.7 54.05 15.1 58.25 7.35 62.5 -0.4 68.25 0.0 79.05 2.05 79.7 6.6 80.3 11.2 78.65 14.7 L84.9 14.2 Q88.35 13.65 91.35 17.6 94.45 22.05 94.65 26.0 94.8 29.95 90.05 32.95 L93.5 36.65 Q96.4 40.05 95.6 43.7" fill="#ff3366" fill-rule="evenodd" stroke="none"/>
      <path d="M42.5 22.45 Q40.65 16.8 37.95 15.6 34.6 14.55 33.45 19.35 32.35 24.05 32.45 25.0 L31.1 20.1 Q29.85 15.85 27.65 15.6 25.8 16.7 27.0 21.4 28.15 26.1 28.45 26.75 L26.4 25.55 Q24.55 24.55 23.5 25.05 22.05 27.45 25.75 33.7 29.5 39.9 30.2 40.7 25.5 35.55 20.4 28.4 15.35 21.2 16.4 17.45 18.2 14.5 20.4 15.2 22.45 15.85 22.8 16.2 22.4 15.6 21.95 11.05 21.5 6.35 25.35 2.1 29.55 -1.0 31.35 2.1 33.1 5.2 33.05 5.95 35.65 2.35 39.65 4.3 43.65 6.2 45.6 12.45 46.65 16.85 46.35 23.55 46.05 30.25 45.35 35.6 L44.55 41.2 Q44.35 28.05 42.5 22.45" fill="#ff3366" fill-rule="evenodd" stroke="none"/>
      <path d="M43.85 55.75 Q46.0 56.15 44.4 58.35 43.2 59.55 42.1 59.35 L40.85 59.0 Q29.6 46.7 22.05 44.4 14.55 42.05 13.85 44.65 12.85 47.05 10.7 47.75 8.6 48.4 11.2 45.0 12.05 43.75 10.5 43.35 8.9 43.0 7.65 44.05 L4.95 45.9 3.4 46.0 Q3.65 45.35 4.5 44.85 5.35 44.4 4.9 43.65 4.35 43.05 3.55 43.85 2.7 44.7 1.0 44.95 -0.6 44.9 0.3 43.95 1.15 43.0 2.2 42.8 2.95 42.8 2.05 42.05 1.15 41.25 0.4 39.3 0.05 37.8 2.2 39.8 4.4 41.85 6.15 41.5 7.25 40.7 5.8 39.7 4.35 38.7 4.9 37.15 5.8 35.85 6.65 37.8 L8.1 40.85 Q9.95 42.2 11.85 40.45 12.55 39.1 11.7 37.55 10.85 36.0 12.25 36.05 13.9 36.7 14.4 39.5 L14.8 42.7 Q19.6 40.2 26.9 44.1 34.2 48.0 39.55 52.4 L43.85 55.75" fill="#ff3366" fill-rule="evenodd" stroke="none"/>
      <path d="M96.95 90.2 Q94.45 94.3 82.9 94.55 83.15 95.05 82.75 98.8 82.35 102.55 78.0 103.35 L73.3 102.05 Q69.05 100.85 65.95 99.1 66.1 99.4 65.4 101.05 64.7 102.7 61.4 101.7 54.45 98.1 51.55 87.75 48.7 77.45 48.35 71.4 L50.65 76.55 Q52.8 81.35 55.4 85.8 58.0 90.25 59.45 89.65 61.35 87.95 62.05 85.8 L62.7 83.45 67.0 88.7 Q70.8 93.15 71.8 91.25 72.2 88.35 71.9 85.5 L71.5 82.45 Q72.1 83.0 76.4 83.95 80.65 84.9 81.25 79.85 80.75 74.5 74.35 69.3 67.9 64.1 61.45 60.65 55.05 57.2 54.55 57.05 L61.5 58.95 Q68.1 60.85 76.35 64.25 84.65 67.65 90.1 72.2 94.15 75.75 96.8 80.9 99.5 86.1 96.95 90.2" fill="#ff3366" fill-rule="evenodd" stroke="none"/>
      <path d="M28.95 79.25 L33.35 75.95 Q36.9 81.3 39.0 78.15 41.05 75.0 41.95 69.9 L42.8 64.25 44.25 68.2 46.7 75.3 Q47.55 78.6 45.5 83.1 43.4 87.55 39.85 91.6 37.55 93.9 35.4 91.75 33.25 89.55 31.85 86.5 L30.4 83.15 Q29.05 86.6 25.7 88.6 22.35 90.6 21.95 90.65 18.0 91.75 17.6 87.05 17.15 82.3 17.4 81.5 L11.75 81.8 Q6.8 81.65 5.65 75.95 5.25 69.55 9.5 63.95 13.8 58.35 21.95 57.05 L32.35 56.25 33.35 56.4 Q29.5 57.2 23.25 61.4 16.95 65.65 16.05 70.1 16.65 73.7 22.15 71.85 L28.45 69.45 25.4 73.75 Q22.8 77.7 23.55 80.55 25.05 82.0 28.95 79.25" fill="#ff3366" fill-rule="evenodd" stroke="none"/>
    </g>
    <g id="shape2" transform="matrix(1.0, 0.0, 0.0, 1.0, -8.5, -109.55)">
      <path d="M239.7 169.2 L242.35 169.55 Q245.05 170.4 245.65 171.9 245.65 173.2 244.8 176.15 243.95 179.0 243.95 180.45 243.95 181.85 244.5 183.05 L244.7 183.5 Q247.6 189.1 247.6 193.35 L247.3 196.0 Q244.75 198.65 239.65 198.65 236.35 198.65 233.05 197.5 229.85 195.55 229.85 190.8 229.85 189.05 230.2 187.3 230.4 185.1 231.4 183.05 232.0 181.85 232.85 180.75 235.15 177.75 238.55 176.65 239.6 176.05 239.6 174.8 L239.4 173.95 Q238.75 173.0 237.6 173.45 236.85 173.85 236.3 175.35 235.7 176.95 234.75 177.25 L234.05 177.3 Q232.35 177.3 232.15 176.05 L231.95 174.7 Q231.95 173.3 232.85 172.1 233.75 170.85 235.65 170.0 237.55 169.2 239.7 169.2 M236.65 183.7 L236.7 184.55 Q236.7 186.25 238.2 186.15 238.75 185.3 238.9 183.05 L239.0 180.45 Q239.0 180.0 238.2 180.45 236.85 181.15 236.7 183.05 L236.65 183.7 M266.65 163.5 Q264.3 168.8 264.3 175.25 264.3 179.55 265.45 183.05 L266.1 184.85 Q268.2 189.8 268.2 192.4 268.2 194.55 267.1 196.4 264.2 199.1 259.3 199.1 255.75 199.1 252.8 197.7 249.0 194.4 249.35 185.75 L249.5 183.05 Q250.15 174.9 252.8 170.75 253.4 170.05 254.5 170.05 255.2 170.05 255.7 170.4 256.9 171.3 258.15 171.3 L259.05 171.2 Q259.6 170.4 259.6 169.5 259.6 168.5 258.8 166.6 258.0 164.65 258.0 163.75 258.0 162.15 260.15 161.5 L262.2 161.15 Q264.6 161.15 266.2 162.4 266.75 162.55 266.75 163.1 L266.65 163.5 M279.6 169.6 Q282.45 169.6 284.45 171.25 286.0 172.55 285.8 175.8 284.65 178.15 283.2 178.5 282.55 179.05 281.35 179.05 L277.9 178.75 Q276.3 178.75 276.3 180.0 L276.55 181.25 Q277.1 182.25 278.75 182.25 L280.65 182.1 Q281.55 181.95 282.7 180.65 283.9 179.3 284.55 179.3 285.0 179.3 285.45 179.75 286.45 181.2 287.05 183.05 287.85 185.65 287.85 189.0 L287.75 191.25 Q287.4 195.85 283.0 198.05 L279.0 198.7 Q276.2 198.7 274.25 197.45 269.75 193.2 269.75 185.45 L269.9 183.05 Q270.1 180.55 270.8 178.05 272.05 173.1 275.6 170.7 277.4 169.6 279.6 169.6 M258.7 177.0 Q258.7 175.4 257.4 175.4 256.35 175.4 255.9 176.95 255.35 178.7 255.7 180.6 256.6 182.3 257.7 182.15 258.95 182.15 258.95 181.4 L258.9 181.0 Q258.6 180.5 258.65 179.3 L258.7 177.0 M281.5 174.5 Q281.0 173.3 279.4 173.3 L277.65 173.5 Q275.85 174.15 276.1 175.6 L280.9 175.6 Q281.3 175.6 281.5 175.25 L281.5 174.5 M301.5 170.2 Q303.2 171.3 303.2 173.9 L302.95 175.8 Q302.8 176.5 301.5 177.0 L300.9 177.0 Q299.15 177.0 298.8 175.45 L298.85 175.0 Q298.85 173.75 297.85 173.2 L297.45 173.15 Q296.85 173.15 296.45 173.5 296.0 173.85 296.1 174.25 296.25 175.8 298.0 177.0 L301.1 178.9 Q303.4 180.5 304.45 183.05 305.3 185.15 305.3 187.85 305.3 190.9 304.15 193.75 302.75 196.8 300.15 198.05 L297.05 198.5 Q294.25 198.5 292.55 197.05 289.5 193.8 289.5 187.8 289.5 185.3 290.0 183.05 L290.6 180.95 Q290.8 180.25 291.55 180.25 292.0 180.25 292.3 180.6 L292.9 181.6 Q293.2 182.15 293.8 182.3 295.0 182.3 295.45 181.4 295.35 179.8 293.25 178.35 291.15 176.85 291.0 175.25 290.7 171.8 293.3 170.15 295.05 169.1 297.4 169.1 299.7 169.1 301.5 170.2" fill="url(#gradient3)" fill-rule="evenodd" stroke="none"/>
      <path d="M225.15 173.2 L224.5 176.55 Q223.9 178.8 223.9 180.0 223.9 181.15 224.25 182.05 L224.55 183.05 Q225.15 185.0 226.65 188.25 228.4 192.1 228.8 194.6 229.0 195.85 228.1 197.2 227.1 198.55 225.8 198.75 L223.05 198.9 Q219.95 198.9 219.05 196.9 218.0 193.5 218.55 186.65 L218.75 183.05 Q218.9 178.65 218.3 176.4 218.0 175.7 217.7 175.7 217.2 175.7 216.85 176.65 216.45 177.55 216.35 178.75 216.2 180.4 216.4 183.05 L216.6 185.25 Q217.2 190.0 217.2 191.75 217.2 195.55 215.55 197.65 214.0 199.05 211.45 199.05 L209.1 198.75 Q207.9 198.35 207.1 197.4 206.25 196.4 206.25 195.2 206.4 191.85 208.65 185.7 L209.6 183.05 Q210.95 178.85 210.95 176.25 210.95 173.85 210.1 171.4 L208.4 168.1 Q207.35 166.1 207.35 164.7 207.35 163.35 208.15 162.05 209.3 160.9 211.9 160.9 215.5 160.9 215.95 162.8 L216.05 163.55 Q216.05 164.55 215.15 166.35 214.3 168.2 214.3 169.05 214.3 171.0 215.95 171.0 L217.7 170.65 Q220.4 169.8 221.6 169.8 223.45 169.8 224.65 171.05 225.15 172.0 225.15 173.2" fill="url(#gradient4)" fill-rule="evenodd" stroke="none"/>
      <path d="M201.1 170.2 Q202.8 171.3 202.8 173.9 L202.55 175.8 Q202.5 176.45 201.1 177.0 L200.5 177.0 Q198.75 177.0 198.4 175.45 L198.45 175.0 Q198.45 173.75 197.5 173.2 L197.05 173.15 Q196.45 173.15 196.1 173.5 195.65 173.9 195.7 174.25 195.85 175.8 197.6 177.0 L200.7 178.9 Q203.05 180.5 204.1 183.05 204.95 185.15 204.95 187.85 204.95 191.0 203.75 193.75 202.35 196.8 199.8 198.05 L196.65 198.5 Q193.85 198.5 192.15 197.05 189.1 193.8 189.1 187.8 189.1 185.4 189.65 183.05 L190.2 180.95 Q190.4 180.25 191.2 180.25 191.7 180.25 191.9 180.6 L192.5 181.6 Q192.9 182.15 193.45 182.3 194.6 182.3 195.05 181.4 194.95 179.85 192.9 178.35 190.75 176.85 190.65 175.25 190.25 171.85 192.95 170.15 194.6 169.1 197.0 169.1 199.3 169.1 201.1 170.2" fill="url(#gradient5)" fill-rule="evenodd" stroke="none"/>
      <path d="M187.8 173.05 Q188.45 174.4 188.45 175.7 L188.2 177.05 Q187.9 178.65 185.7 179.7 184.8 180.2 183.15 180.25 L180.5 180.6 Q179.15 181.05 178.7 182.55 L178.75 183.05 Q178.9 185.35 180.9 189.3 183.0 193.4 182.85 196.0 182.7 197.65 180.55 198.3 L175.55 198.7 Q171.95 198.7 171.1 197.4 170.05 195.6 170.05 193.65 170.05 191.1 172.0 187.25 173.3 184.65 173.7 183.05 L173.9 181.7 Q173.9 179.9 172.4 176.65 170.9 173.3 170.85 171.75 172.9 168.8 178.1 168.8 L182.35 169.3 Q186.45 170.25 187.8 173.05 M165.1 172.6 Q165.1 173.6 164.3 176.1 163.5 178.35 163.5 179.75 163.5 181.0 164.0 182.15 L164.25 183.05 166.25 187.7 Q167.85 191.3 167.85 193.35 167.85 195.5 166.5 197.5 165.35 198.75 163.15 198.75 L160.95 198.4 Q157.9 196.85 157.9 191.75 L158.3 186.15 158.85 180.5 Q159.1 175.15 157.65 175.15 157.1 175.15 156.8 175.8 156.0 178.05 156.0 181.15 L156.1 183.05 156.45 186.8 156.9 192.4 Q156.9 195.2 156.05 197.6 155.45 198.75 153.8 198.75 L152.45 198.35 Q150.0 196.2 150.0 192.35 150.0 191.0 150.45 187.6 L150.85 183.05 150.8 182.65 150.5 177.95 Q150.05 175.15 148.75 175.15 147.45 175.15 147.35 178.0 L147.5 181.5 147.7 183.05 Q147.9 184.55 148.45 187.05 149.2 190.75 149.2 192.7 149.2 195.05 148.45 196.85 147.1 198.5 144.25 198.5 L140.85 198.0 Q138.75 196.95 138.6 193.8 138.9 191.85 140.75 186.85 L141.85 183.05 Q142.25 181.25 142.25 179.85 L142.15 178.05 140.35 174.6 Q139.25 172.6 139.25 171.0 L139.3 170.1 Q140.1 169.4 141.35 169.4 L142.75 169.8 144.25 171.8 145.65 170.3 Q146.6 169.3 147.5 169.2 150.75 169.15 151.65 170.1 L152.5 171.55 153.35 173.0 Q155.45 169.4 158.9 169.4 164.0 169.4 164.55 170.4 165.1 171.5 165.1 172.6 M181.35 174.3 L181.3 173.85 Q180.9 173.05 178.5 173.05 178.0 173.4 178.0 174.15 L178.25 175.7 178.5 177.05 179.0 177.2 179.5 177.05 Q181.35 175.7 181.35 174.3 M107.1 171.9 Q107.1 174.2 108.8 175.8 109.95 175.95 110.75 174.35 111.5 172.75 112.3 172.75 112.85 172.75 113.5 173.1 115.75 175.35 116.2 179.85 L116.65 187.6 Q116.6 191.75 115.75 194.05 114.45 197.45 111.5 198.4 L104.45 198.9 Q98.8 198.9 96.8 194.8 L96.6 192.05 Q96.6 188.75 98.4 183.05 100.4 176.75 100.6 173.95 100.55 172.5 98.8 169.25 97.1 166.0 97.1 164.55 97.1 162.4 99.85 161.2 L104.6 160.5 Q107.4 160.5 109.55 161.8 110.15 162.35 110.0 163.05 L108.3 167.4 Q107.1 170.1 107.1 171.9 M120.1 183.05 L121.5 180.75 Q123.9 177.75 127.25 176.65 128.3 176.05 128.3 174.8 L128.1 173.95 Q127.45 173.0 126.3 173.45 125.55 173.85 125.0 175.35 124.4 176.95 123.45 177.25 L122.75 177.3 Q121.05 177.3 120.85 176.05 L120.65 174.7 Q120.65 173.3 121.55 172.1 122.45 170.85 124.35 170.0 126.15 169.2 128.4 169.2 L131.05 169.55 Q133.8 170.4 134.35 171.9 134.35 173.2 133.5 176.15 132.65 179.0 132.65 180.45 132.65 181.85 133.2 183.05 L133.4 183.5 Q136.3 189.2 136.3 193.35 L136.0 196.0 Q133.45 198.65 128.35 198.65 125.05 198.65 121.75 197.5 118.55 195.55 118.55 190.8 118.55 189.05 118.9 187.3 119.1 185.1 120.1 183.05 M125.35 183.7 L125.4 184.55 Q125.4 186.25 126.9 186.15 127.45 185.3 127.6 183.05 L127.7 180.45 Q127.7 180.0 126.9 180.45 125.55 181.15 125.4 183.05 L125.35 183.7" fill="url(#gradient6)" fill-rule="evenodd" stroke="none"/>
      <path d="M79.3 170.0 Q81.2 169.2 83.35 169.2 L86.0 169.55 Q88.7 170.4 89.3 171.9 89.3 173.2 88.45 176.15 87.6 179.0 87.6 180.45 87.6 181.85 88.15 183.05 L88.35 183.5 Q91.25 189.1 91.25 193.35 L91.0 196.0 Q88.35 198.65 83.3 198.65 80.0 198.65 76.7 197.5 73.5 195.55 73.5 190.8 73.5 189.05 73.85 187.3 74.1 185.05 75.1 183.05 75.65 181.85 76.5 180.75 78.8 177.75 82.2 176.65 83.25 176.05 83.25 174.8 L83.05 173.95 Q82.45 173.0 81.25 173.45 80.6 173.8 80.0 175.35 79.4 176.95 78.4 177.25 L77.75 177.3 Q76.0 177.3 75.8 176.05 L75.6 174.7 Q75.6 173.3 76.5 172.1 77.4 170.85 79.3 170.0 M80.35 184.55 Q80.35 186.25 81.85 186.15 82.4 185.3 82.55 183.05 L82.65 180.45 Q82.65 180.0 81.85 180.45 80.5 181.15 80.35 183.05 L80.3 183.7 80.35 184.55" fill="url(#gradient7)" fill-rule="evenodd" stroke="none"/>
      <path d="M20.5 171.9 Q20.5 174.2 22.2 175.8 23.35 175.95 24.15 174.35 25.0 172.75 25.75 172.75 26.25 172.75 26.95 173.1 29.15 175.4 29.6 179.85 L30.05 187.6 Q30.0 191.75 29.15 194.05 27.85 197.45 24.9 198.4 L21.4 198.75 17.85 198.9 Q12.2 198.9 10.25 194.8 L10.0 192.05 Q10.0 188.75 11.8 183.05 13.8 176.75 14.0 173.95 14.0 172.5 12.25 169.25 10.5 165.9 10.5 164.55 10.5 162.4 13.25 161.2 L18.0 160.5 Q20.8 160.5 23.0 161.8 23.55 162.35 23.4 163.05 L21.7 167.4 Q20.5 170.1 20.5 171.9 M71.2 170.55 Q72.55 171.55 72.55 173.35 L72.45 174.5 68.85 182.1 68.5 183.05 Q66.95 186.8 66.3 190.2 L65.65 194.65 Q65.0 197.85 63.3 198.45 L62.35 198.65 Q61.0 198.65 59.95 197.35 58.55 195.15 58.1 190.8 L57.3 183.8 57.15 183.05 Q56.25 179.8 53.85 177.95 51.6 175.1 51.6 173.3 51.6 172.65 51.75 172.05 52.8 169.5 56.2 169.5 57.9 169.5 60.1 170.75 61.65 172.15 61.65 174.75 L61.55 176.75 61.5 178.9 Q61.6 181.7 62.55 181.7 63.5 181.7 63.65 178.95 L63.45 176.5 63.25 174.1 Q63.25 171.25 65.85 170.05 L67.9 169.75 Q69.9 169.75 71.2 170.55" fill="url(#gradient8)" fill-rule="evenodd" stroke="none"/>
      <path d="M38.75 170.0 Q40.65 169.2 42.8 169.2 L45.45 169.55 Q48.15 170.4 48.75 171.9 48.75 173.2 47.9 176.15 47.05 179.0 47.05 180.45 47.05 181.85 47.6 183.05 L47.8 183.5 Q50.7 189.1 50.7 193.35 L50.45 196.0 Q47.8 198.65 42.75 198.65 39.45 198.65 36.15 197.5 32.95 195.55 32.95 190.8 32.95 189.05 33.3 187.3 33.55 185.05 34.55 183.05 35.1 181.85 35.95 180.75 38.25 177.75 41.65 176.65 42.7 176.05 42.7 174.8 L42.5 173.95 Q41.9 173.0 40.7 173.45 40.05 173.8 39.45 175.35 38.85 176.95 37.85 177.25 L37.2 177.3 Q35.45 177.3 35.25 176.05 L35.05 174.7 Q35.05 173.3 35.95 172.1 36.85 170.85 38.75 170.0 M39.75 183.7 L39.8 184.55 Q39.8 186.25 41.3 186.15 41.85 185.3 42.0 183.05 L42.1 180.45 Q42.1 180.0 41.3 180.45 39.95 181.2 39.8 183.05 L39.75 183.7" fill="url(#gradient9)" fill-rule="evenodd" stroke="none"/>
      <path d="M231.35 170.4 Q232.25 169.15 234.15 168.3 236.05 167.5 238.2 167.5 L240.85 167.85 Q243.55 168.7 244.15 170.2 244.15 171.5 243.3 174.45 242.45 177.3 242.45 178.75 242.45 180.4 243.2 181.8 L243.85 183.05 Q246.1 187.9 246.1 191.65 L245.8 194.3 Q243.25 196.95 238.15 196.95 234.85 196.95 231.55 195.8 228.35 193.85 228.35 189.1 228.35 187.35 228.7 185.6 228.8 184.3 229.2 183.05 229.9 180.95 231.35 179.05 233.65 176.05 237.05 174.95 238.1 174.35 238.1 173.1 L237.9 172.25 Q237.25 171.3 236.1 171.75 235.35 172.15 234.8 173.65 234.2 175.25 233.25 175.55 L232.55 175.6 Q230.85 175.6 230.65 174.35 L230.45 173.0 Q230.45 171.6 231.35 170.4 M236.7 178.75 Q235.15 179.55 235.15 182.0 L235.2 182.85 235.2 183.05 Q235.3 184.55 236.7 184.45 L237.2 183.05 237.5 178.75 Q237.5 178.3 236.7 178.75 M265.25 161.4 L265.15 161.8 Q262.8 167.1 262.8 173.55 262.8 178.9 264.55 183.05 L264.6 183.15 Q266.7 188.1 266.7 190.7 266.7 192.85 265.6 194.7 262.7 197.4 257.8 197.4 254.25 197.4 251.3 196.0 247.5 192.7 247.85 184.05 L247.9 183.05 Q248.35 173.6 251.3 169.05 251.9 168.35 253.0 168.35 253.7 168.35 254.2 168.7 255.4 169.6 256.65 169.6 L257.55 169.5 Q258.1 168.7 258.1 167.8 258.1 166.8 257.3 164.9 256.5 162.95 256.5 162.05 256.5 160.45 258.65 159.8 L260.7 159.45 Q263.1 159.45 264.7 160.7 265.25 160.85 265.25 161.4 M282.95 169.55 Q284.5 170.85 284.3 174.1 283.15 176.45 281.7 176.8 281.05 177.35 279.85 177.35 L276.4 177.05 Q274.8 177.05 274.8 178.3 L275.05 179.55 Q275.6 180.55 277.25 180.55 L279.15 180.4 Q280.05 180.25 281.2 178.95 282.4 177.6 283.05 177.6 283.5 177.6 283.95 178.05 285.4 180.15 286.0 183.05 286.35 185.0 286.35 187.3 L286.25 189.55 Q285.9 194.15 281.5 196.35 L277.5 197.0 Q274.7 197.0 272.75 195.75 268.25 191.5 268.25 183.75 L268.25 183.05 Q268.35 179.75 269.3 176.35 270.55 171.4 274.1 169.0 275.9 167.9 278.1 167.9 280.95 167.9 282.95 169.55 M277.9 171.6 L276.15 171.8 Q274.35 172.45 274.6 173.9 L279.4 173.9 280.0 173.55 280.0 172.8 Q279.5 171.6 277.9 171.6 M257.2 175.3 Q257.2 173.7 255.9 173.7 254.85 173.7 254.4 175.25 253.85 177.0 254.2 178.9 255.1 180.6 256.2 180.45 257.45 180.45 257.45 179.7 L257.4 179.3 Q257.1 178.8 257.15 177.6 L257.2 175.3 M300.0 168.5 Q301.7 169.6 301.7 172.2 L301.45 174.1 Q301.3 174.8 300.0 175.3 L299.4 175.3 Q297.65 175.3 297.3 173.75 L297.35 173.3 Q297.35 172.05 296.35 171.5 L295.95 171.45 Q295.35 171.45 294.95 171.8 294.5 172.15 294.6 172.55 294.75 174.1 296.5 175.3 L299.6 177.2 Q302.65 179.35 303.5 183.05 L303.8 186.15 Q303.8 189.2 302.65 192.05 301.25 195.1 298.65 196.35 L295.55 196.8 Q292.75 196.8 291.05 195.35 288.0 192.1 288.0 186.1 L288.2 183.05 Q288.45 181.05 289.1 179.25 289.3 178.55 290.05 178.55 290.5 178.55 290.8 178.9 L291.4 179.9 Q291.7 180.45 292.3 180.6 293.5 180.6 293.95 179.7 293.85 178.1 291.75 176.65 289.65 175.15 289.5 173.55 289.2 170.1 291.8 168.45 293.55 167.4 295.9 167.4 298.2 167.4 300.0 168.5" fill="url(#gradient10)" fill-rule="evenodd" stroke="none"/>
      <path d="M223.65 171.5 L223.0 174.85 Q222.4 177.1 222.4 178.3 222.4 179.45 222.75 180.35 L223.65 183.05 225.15 186.55 Q226.9 190.4 227.3 192.9 227.5 194.15 226.6 195.5 225.6 196.85 224.3 197.05 L221.55 197.2 Q218.45 197.2 217.55 195.2 216.5 191.8 217.05 184.95 L217.2 183.05 Q217.5 177.35 216.8 174.7 216.5 174.0 216.2 174.0 215.7 174.0 215.35 174.95 214.95 175.85 214.85 177.05 214.65 179.15 215.05 183.05 L215.1 183.55 Q215.7 188.3 215.7 190.05 215.7 193.85 214.05 195.95 212.5 197.35 209.95 197.35 L207.6 197.05 Q206.4 196.65 205.6 195.7 204.75 194.7 204.75 193.5 204.9 190.15 207.15 184.0 L207.5 183.05 Q209.45 177.65 209.45 174.55 209.45 172.15 208.6 169.7 L206.9 166.4 Q205.85 164.4 205.85 163.0 205.85 161.65 206.65 160.35 207.8 159.2 210.4 159.2 214.0 159.2 214.45 161.1 L214.55 161.85 Q214.55 162.85 213.65 164.65 212.8 166.5 212.8 167.35 212.8 169.3 214.45 169.3 L216.2 168.95 Q218.9 168.1 220.1 168.1 221.95 168.1 223.15 169.35 223.65 170.3 223.65 171.5" fill="url(#gradient11)" fill-rule="evenodd" stroke="none"/>
      <path d="M194.6 171.8 Q194.15 172.2 194.2 172.55 194.35 174.1 196.1 175.3 L199.2 177.2 Q202.25 179.35 203.15 183.05 L203.45 186.15 Q203.45 189.3 202.25 192.05 200.85 195.1 198.3 196.35 L195.15 196.8 Q192.35 196.8 190.65 195.35 187.6 192.1 187.6 186.1 187.6 184.55 187.85 183.05 188.1 181.15 188.7 179.25 188.9 178.55 189.7 178.55 190.2 178.55 190.4 178.9 L191.0 179.9 Q191.4 180.45 191.95 180.6 193.1 180.6 193.55 179.7 193.45 178.15 191.4 176.65 189.25 175.15 189.15 173.55 188.75 170.15 191.45 168.45 193.1 167.4 195.5 167.4 197.8 167.4 199.6 168.5 201.3 169.6 201.3 172.2 L201.05 174.1 Q201.0 174.75 199.6 175.3 L199.0 175.3 Q197.25 175.3 196.9 173.75 L196.95 173.3 Q196.95 172.05 196.0 171.5 L195.55 171.45 Q194.95 171.45 194.6 171.8" fill="url(#gradient12)" fill-rule="evenodd" stroke="none"/>
      <path d="M176.6 167.1 L180.85 167.6 Q184.95 168.55 186.3 171.35 186.95 172.7 186.95 174.0 L186.7 175.35 Q186.4 176.95 184.2 178.0 L181.65 178.55 179.0 178.9 Q177.65 179.35 177.2 180.85 177.2 181.8 177.55 183.05 178.1 184.95 179.4 187.6 181.5 191.7 181.35 194.3 181.2 195.95 179.05 196.6 L174.05 197.0 Q170.45 197.0 169.6 195.7 168.55 193.9 168.55 191.95 168.55 189.4 170.5 185.55 L171.65 183.05 Q172.4 181.1 172.4 180.0 172.4 178.2 170.9 174.95 169.4 171.6 169.35 170.05 171.4 167.1 176.6 167.1 M176.5 172.45 L176.75 174.0 177.0 175.35 177.5 175.5 178.0 175.35 Q179.85 174.0 179.85 172.6 L179.8 172.15 Q179.4 171.35 177.0 171.35 176.5 171.7 176.5 172.45 M163.6 170.9 Q163.6 171.9 162.8 174.4 162.0 176.65 162.0 178.05 162.0 179.3 162.5 180.45 162.7 181.3 163.45 183.05 L164.75 186.0 Q166.35 189.6 166.35 191.65 166.35 193.8 165.0 195.8 163.85 197.05 161.65 197.05 L159.45 196.7 Q156.4 195.15 156.4 190.05 L156.8 184.45 157.35 178.8 Q157.6 173.45 156.15 173.45 155.6 173.45 155.3 174.1 154.5 176.35 154.5 179.45 L154.75 183.05 154.95 185.1 155.4 190.7 Q155.4 193.5 154.55 195.9 153.95 197.05 152.3 197.05 151.6 197.05 150.95 196.65 148.5 194.5 148.5 190.65 148.5 189.3 148.95 185.9 L149.3 183.05 149.3 180.95 149.0 176.25 Q148.55 173.45 147.25 173.45 145.95 173.45 145.85 176.3 L146.0 179.8 146.5 183.05 146.95 185.35 Q147.7 189.05 147.7 191.0 147.7 193.35 146.95 195.15 145.6 196.8 142.75 196.8 L139.35 196.3 Q137.25 195.25 137.1 192.1 137.4 190.15 139.25 185.15 L139.95 183.05 Q140.75 180.2 140.75 178.15 L140.65 176.35 138.85 172.9 Q137.75 170.9 137.75 169.3 L137.8 168.4 Q138.6 167.7 139.85 167.7 140.8 167.7 141.25 168.1 L142.75 170.1 144.15 168.6 Q145.1 167.6 146.0 167.5 149.25 167.45 150.15 168.4 L151.0 169.85 151.85 171.3 Q153.95 167.7 157.4 167.7 162.5 167.7 163.05 168.7 163.6 169.8 163.6 170.9 M108.5 161.35 L106.8 165.7 Q105.6 168.4 105.6 170.2 105.6 172.5 107.3 174.1 108.45 174.25 109.25 172.65 110.0 171.05 110.8 171.05 111.35 171.05 112.0 171.4 114.25 173.65 114.7 178.15 L115.15 185.9 Q115.1 190.05 114.25 192.35 112.95 195.75 110.0 196.7 L102.95 197.2 Q97.3 197.2 95.3 193.1 L95.1 190.35 Q95.1 187.55 96.4 183.05 L96.9 181.35 Q98.9 175.05 99.1 172.25 99.05 170.8 97.3 167.55 95.6 164.3 95.6 162.85 95.6 160.7 98.35 159.5 101.15 158.8 103.1 158.8 105.9 158.8 108.05 160.1 108.65 160.65 108.5 161.35 M120.05 170.4 Q120.95 169.15 122.85 168.3 124.65 167.5 126.9 167.5 L129.55 167.85 Q132.3 168.7 132.85 170.2 132.85 171.5 132.0 174.45 131.15 177.3 131.15 178.75 131.15 180.4 131.9 181.8 L132.5 183.05 Q134.8 187.95 134.8 191.65 L134.5 194.3 Q131.95 196.95 126.85 196.95 123.55 196.95 120.25 195.8 117.05 193.85 117.05 189.1 117.05 187.35 117.4 185.6 117.5 184.3 117.9 183.05 118.55 181.0 120.0 179.05 122.4 176.05 125.75 174.95 126.8 174.35 126.8 173.1 L126.6 172.25 Q125.95 171.3 124.8 171.75 124.05 172.15 123.5 173.65 122.9 175.25 121.95 175.55 L121.25 175.6 Q119.55 175.6 119.35 174.35 L119.15 173.0 Q119.15 171.6 120.05 170.4 M125.4 178.75 Q123.85 179.55 123.85 182.0 L123.9 182.85 123.9 183.05 Q124.0 184.55 125.4 184.45 L125.9 183.05 126.2 178.75 Q126.2 178.3 125.4 178.75" fill="url(#gradient13)" fill-rule="evenodd" stroke="none"/>
      <path d="M75.0 170.4 Q75.9 169.15 77.8 168.3 79.7 167.5 81.85 167.5 L84.5 167.85 Q87.2 168.7 87.8 170.2 87.8 171.5 86.95 174.45 86.1 177.3 86.1 178.75 86.1 180.4 86.85 181.8 L87.5 183.05 Q89.75 187.9 89.75 191.65 L89.5 194.3 Q86.85 196.95 81.8 196.95 78.5 196.95 75.2 195.8 72.0 193.85 72.0 189.1 72.0 187.35 72.35 185.6 72.5 184.3 72.9 183.05 73.55 180.9 75.0 179.05 77.3 176.05 80.7 174.95 81.75 174.35 81.75 173.1 L81.55 172.25 Q80.95 171.3 79.75 171.75 79.1 172.1 78.5 173.65 77.9 175.25 76.9 175.55 L76.25 175.6 Q74.5 175.6 74.3 174.35 L74.1 173.0 Q74.1 171.6 75.0 170.4 M80.85 183.05 L81.15 178.75 Q81.15 178.3 80.35 178.75 78.8 179.55 78.8 182.0 L78.85 182.85 78.85 183.05 Q78.95 184.55 80.35 184.45 L80.85 183.05" fill="url(#gradient14)" fill-rule="evenodd" stroke="none"/>
      <path d="M24.25 171.05 Q24.75 171.05 25.45 171.4 27.65 173.7 28.1 178.15 L28.55 185.9 Q28.5 190.05 27.65 192.35 26.35 195.75 23.4 196.7 L19.9 197.05 16.35 197.2 Q10.7 197.2 8.75 193.1 L8.5 190.35 Q8.5 187.55 9.8 183.05 L10.3 181.35 Q12.3 175.05 12.5 172.25 12.5 170.8 10.75 167.55 9.0 164.2 9.0 162.85 9.0 160.7 11.75 159.5 14.65 158.8 16.5 158.8 19.3 158.8 21.5 160.1 22.05 160.65 21.9 161.35 L20.2 165.7 Q19.0 168.4 19.0 170.2 19.0 172.5 20.7 174.1 21.85 174.25 22.65 172.65 23.5 171.05 24.25 171.05 M64.35 168.35 L66.4 168.05 Q68.4 168.05 69.7 168.85 71.05 169.85 71.05 171.65 L70.95 172.8 Q68.45 177.75 67.35 180.4 L66.35 183.05 Q65.3 185.9 64.8 188.5 L64.15 192.95 Q63.5 196.15 61.8 196.75 L60.85 196.95 Q59.5 196.95 58.45 195.65 57.05 193.45 56.6 189.1 L55.95 183.05 55.8 182.1 Q55.0 178.3 52.35 176.25 50.1 173.4 50.1 171.6 50.1 170.95 50.25 170.35 51.3 167.8 54.7 167.8 56.4 167.8 58.6 169.05 60.15 170.45 60.15 173.05 L60.05 175.05 60.0 177.2 Q60.1 180.0 61.05 180.0 62.0 180.0 62.15 177.25 L61.95 174.8 61.75 172.4 Q61.75 169.55 64.35 168.35" fill="url(#gradient15)" fill-rule="evenodd" stroke="none"/>
      <path d="M34.45 170.4 Q35.35 169.15 37.25 168.3 39.15 167.5 41.3 167.5 L43.95 167.85 Q46.65 168.7 47.25 170.2 47.25 171.5 46.4 174.45 45.55 177.3 45.55 178.75 45.55 180.4 46.3 181.8 L46.95 183.05 Q49.2 187.9 49.2 191.65 L48.95 194.3 Q46.3 196.95 41.25 196.95 37.95 196.95 34.65 195.8 31.45 193.85 31.45 189.1 31.45 187.35 31.8 185.6 31.95 184.3 32.35 183.05 33.0 180.9 34.45 179.05 36.75 176.05 40.15 174.95 41.2 174.35 41.2 173.1 L41.0 172.25 Q40.4 171.3 39.2 171.75 38.55 172.1 37.95 173.65 37.35 175.25 36.35 175.55 L35.7 175.6 Q33.95 175.6 33.75 174.35 L33.55 173.0 Q33.55 171.6 34.45 170.4 M40.3 183.05 L40.6 178.75 Q40.6 178.3 39.8 178.75 38.25 179.6 38.25 182.0 L38.3 182.85 38.3 183.05 Q38.4 184.55 39.8 184.45 L40.3 183.05" fill="url(#gradient16)" fill-rule="evenodd" stroke="none"/>
      <path d="M227.1 115.5 Q229.05 115.9 229.05 117.95 L223.65 145.6 Q223.65 146.35 224.1 148.2 224.45 149.55 224.35 150.8 223.3 151.7 221.35 151.35 L218.75 150.7 217.9 150.65 Q217.55 150.45 217.0 149.45 217.1 148.85 217.95 147.6 L219.2 145.8 219.7 144.55 224.5 119.85 223.85 118.45 Q223.35 117.55 223.4 116.9 L223.6 116.45 Q225.0 115.15 227.1 115.5 M240.7 119.1 L242.3 119.2 Q243.45 119.5 244.05 120.15 L244.8 121.25 Q245.1 122.3 244.9 123.35 244.45 125.35 242.7 127.0 240.95 128.65 238.55 129.6 236.2 130.5 234.25 130.1 L233.05 129.65 Q233.15 129.15 233.85 128.8 234.3 128.5 235.7 127.85 L237.5 126.8 238.3 125.85 Q238.4 125.35 237.75 124.7 L237.05 123.5 Q236.9 122.75 237.05 122.05 237.2 121.15 237.75 120.6 238.55 119.85 239.2 119.55 L240.7 119.1 M209.45 135.0 Q207.5 134.7 206.1 136.1 204.8 137.25 204.4 139.25 204.15 141.1 205.3 142.75 206.4 144.5 208.3 144.8 210.4 145.1 211.65 143.0 L212.05 141.4 212.7 137.45 211.75 136.3 210.7 135.45 Q210.1 135.15 209.45 135.0 M212.4 131.45 Q216.15 132.05 217.2 135.0 215.9 137.3 215.35 140.55 214.75 144.35 215.55 147.45 L215.55 148.25 Q215.35 149.6 214.2 149.65 L212.95 149.75 Q212.3 149.6 211.8 149.25 L211.1 148.15 Q210.65 147.35 210.25 147.3 L209.65 147.35 Q206.85 149.0 205.65 148.75 L204.65 148.4 Q202.7 147.15 201.7 144.35 200.9 141.7 201.35 139.25 202.1 134.55 206.75 132.25 209.35 131.0 212.4 131.45 M242.85 143.05 L246.1 145.45 Q247.85 146.8 249.0 148.3 250.15 150.0 250.25 152.25 249.85 153.9 248.4 154.9 246.95 155.95 245.15 156.15 L241.5 155.8 Q237.3 154.75 235.4 151.5 235.2 151.2 235.35 150.65 235.4 150.3 235.8 149.9 237.55 148.65 238.65 148.85 L239.45 149.25 Q241.55 151.85 243.35 152.3 L245.2 152.25 Q245.75 151.85 245.9 151.2 L245.95 149.95 Q245.25 148.65 241.65 146.1 238.6 144.1 238.2 141.5 L238.35 140.85 Q238.75 139.4 240.4 138.4 L245.75 138.15 Q250.15 139.25 251.35 142.4 251.2 143.5 249.35 144.35 L248.7 144.25 Q248.0 144.1 246.45 142.9 245.05 141.7 244.2 141.5 L242.35 141.7 242.25 142.0 Q242.2 142.3 242.85 143.05 M195.5 115.7 Q198.25 110.9 201.0 111.15 203.75 111.45 203.3 115.65 203.15 117.35 201.1 119.95 L197.35 123.95 Q195.4 126.1 195.1 127.05 L194.55 130.4 Q193.75 138.6 199.25 142.1 L200.6 143.4 Q200.75 144.5 199.1 145.1 L194.8 146.65 Q193.35 146.5 193.0 146.0 191.95 143.65 191.35 139.2 190.9 135.45 191.1 133.3 L191.25 131.6 191.7 129.85 Q191.8 128.75 191.5 127.7 L190.9 127.5 189.8 127.8 188.7 128.15 185.9 129.0 Q184.5 129.6 183.9 130.95 L183.45 132.4 183.3 133.85 Q182.85 138.25 180.85 141.25 178.2 145.3 174.35 144.95 172.05 144.7 170.8 143.1 169.45 141.45 169.25 139.15 L169.2 138.5 Q169.3 137.95 169.7 137.8 L170.8 137.85 171.35 137.95 173.6 138.6 Q175.75 138.75 178.2 136.45 180.4 134.35 180.7 131.85 180.35 131.15 179.3 131.1 L176.65 131.2 Q175.95 131.15 176.05 130.55 176.1 129.55 177.3 129.0 L179.5 128.4 180.85 127.9 Q181.55 127.55 181.65 126.8 L181.95 122.9 181.9 120.35 Q181.45 116.55 179.4 114.45 L177.5 113.15 175.4 112.0 175.3 111.7 175.6 111.4 176.25 110.9 179.05 110.15 Q181.05 109.45 182.05 109.6 182.95 109.7 183.5 110.1 184.95 112.05 185.15 114.9 L185.15 117.6 185.0 120.25 Q184.6 123.9 184.75 125.55 184.85 126.2 185.45 126.35 L185.9 126.25 192.3 123.75 Q192.45 122.05 193.25 119.9 194.2 117.8 195.5 115.7 M79.55 121.5 L77.1 126.45 Q75.85 129.15 75.8 130.0 L76.25 133.4 Q77.75 141.45 84.05 143.3 85.1 143.6 85.75 144.15 86.2 145.15 84.8 146.2 L81.1 148.9 79.2 148.8 Q77.6 147.1 75.65 142.75 74.25 139.6 73.75 137.2 L73.35 133.7 72.55 131.7 71.9 131.65 70.95 132.25 Q70.35 132.85 70.0 132.9 L67.55 134.55 Q66.35 135.45 66.2 136.95 L66.15 138.5 66.45 139.9 Q67.3 144.2 66.15 147.7 64.9 152.35 61.0 153.1 58.75 153.45 57.05 152.35 55.45 151.25 54.45 148.95 L54.25 148.35 Q54.15 147.8 54.5 147.55 L56.15 147.2 57.0 147.25 58.45 147.2 Q60.55 146.85 62.3 143.85 63.8 141.1 63.35 138.75 62.8 138.2 61.8 138.4 L59.3 139.25 Q58.65 139.35 58.55 138.8 58.35 137.75 59.35 136.95 L61.25 135.8 62.4 134.9 Q63.0 134.3 62.85 133.65 L62.05 129.75 61.25 127.35 Q59.8 123.9 57.15 122.4 56.25 121.9 55.0 121.7 L52.65 121.2 52.5 120.95 52.7 120.55 53.15 119.9 Q53.95 119.65 55.65 118.4 57.25 117.25 58.35 117.0 L59.9 117.05 Q61.85 118.6 62.85 121.2 L64.2 126.35 Q64.9 130.1 65.45 131.5 65.7 132.1 66.4 132.1 L72.2 127.65 Q71.85 125.8 72.05 123.7 L72.95 119.0 Q74.3 113.7 76.95 113.15 79.7 112.6 80.45 116.75 80.85 118.55 79.55 121.5 M150.35 119.25 Q150.35 120.15 149.7 120.9 149.1 121.55 148.15 121.55 147.35 121.55 146.65 120.85 146.05 120.05 146.1 119.2 146.1 118.35 146.7 117.6 147.4 116.9 148.25 116.9 149.15 117.0 149.75 117.65 150.35 118.4 150.35 119.25 M159.9 117.9 Q160.5 118.7 160.45 119.5 160.45 120.4 159.75 121.1 159.25 121.75 158.25 121.75 157.45 121.7 156.75 121.0 156.2 120.3 156.2 119.35 156.3 118.45 156.85 117.8 157.5 117.1 158.4 117.1 159.3 117.2 159.9 117.9 M138.4 132.0 L137.3 131.05 136.05 130.4 134.75 130.2 Q132.8 130.3 131.65 131.85 130.55 133.3 130.6 135.3 130.6 137.1 132.1 138.6 133.5 140.05 135.4 140.05 137.5 140.0 138.4 137.65 L138.5 136.0 138.4 132.0 M131.6 127.95 Q133.95 126.2 137.0 126.2 140.75 126.05 142.35 128.8 141.55 131.45 141.6 134.6 141.7 138.45 143.0 141.3 L143.15 142.15 Q143.25 143.45 142.1 143.75 L140.9 144.05 139.65 143.8 138.8 142.8 Q138.2 142.15 137.75 142.15 L137.2 142.3 Q134.75 144.35 133.5 144.45 L132.45 144.25 Q130.25 143.35 128.85 140.75 127.6 138.35 127.55 135.85 127.5 131.2 131.6 127.95 M122.3 133.35 Q121.85 132.2 120.8 131.35 L119.8 130.7 118.65 130.55 118.2 130.65 Q117.45 130.65 117.1 129.95 116.95 128.75 118.8 127.2 L120.85 126.6 122.2 126.75 Q125.65 128.4 126.05 133.35 L126.05 135.1 Q125.55 137.8 123.25 140.3 L119.05 144.8 117.8 145.05 Q115.65 145.2 113.55 143.05 112.7 143.15 111.05 144.4 109.5 145.65 108.6 145.75 L107.55 145.65 Q105.45 144.45 104.7 142.05 L104.45 140.35 104.15 137.45 Q103.95 134.6 103.0 133.0 101.25 131.15 101.15 130.35 101.15 129.9 101.3 129.5 102.45 128.0 103.85 127.85 L104.75 128.0 Q106.4 128.7 106.55 130.9 L106.55 134.45 107.35 138.4 Q108.0 140.45 109.75 141.3 111.25 141.3 111.85 140.4 113.05 139.3 112.9 137.05 L112.45 134.2 Q111.1 131.15 108.75 131.0 108.25 130.75 108.2 129.75 110.0 127.6 112.3 127.35 113.95 127.3 115.15 128.6 115.9 129.4 115.95 130.45 L115.6 132.75 115.3 135.3 115.35 136.15 Q115.65 139.75 117.95 140.35 L119.85 139.95 121.15 139.05 Q122.65 137.2 122.45 134.55 L122.3 133.35 M157.7 125.7 L158.25 125.7 Q160.05 125.75 160.75 127.55 L160.1 134.85 Q160.05 137.45 160.4 139.4 160.9 141.4 161.85 142.85 162.0 144.0 161.0 144.25 L157.65 144.25 Q155.8 144.15 154.85 143.45 154.7 142.65 155.45 141.45 L156.55 139.65 157.1 134.65 Q157.25 130.6 155.35 128.4 L155.15 127.9 Q155.15 127.3 156.0 126.45 L156.9 125.9 157.7 125.7 M145.4 128.25 L145.15 127.75 Q145.25 127.05 146.0 126.3 L146.9 125.7 147.7 125.5 148.25 125.55 Q150.1 125.55 150.75 127.35 L150.25 134.65 Q150.25 137.5 150.65 139.15 151.1 141.05 152.15 142.6 152.3 143.75 151.3 144.05 L147.95 144.05 Q146.25 144.05 145.15 143.35 145.0 142.45 145.7 141.3 L146.8 139.5 147.25 134.5 Q147.3 130.5 145.4 128.25 M94.4 134.2 L93.15 133.65 91.8 133.6 Q89.85 133.9 88.9 135.6 87.95 137.05 88.2 139.1 88.45 140.9 90.05 142.25 91.65 143.55 93.5 143.3 95.6 143.1 96.2 140.65 L96.15 139.0 95.65 135.0 94.4 134.2 M99.25 131.4 Q98.65 134.05 99.05 137.25 99.6 141.1 101.2 143.8 L101.45 144.6 Q101.6 145.85 100.55 146.3 L99.35 146.7 98.1 146.6 97.15 145.75 Q96.5 145.1 96.05 145.2 L95.55 145.4 Q93.2 147.75 92.05 147.9 L91.0 147.8 Q88.75 147.15 87.05 144.75 85.65 142.65 85.25 140.0 84.65 135.3 88.45 131.7 90.6 129.75 93.65 129.35 97.4 128.9 99.25 131.4" fill="#0a506d" fill-rule="evenodd" stroke="none"/>
    </g>
    <linearGradient gradientTransform="matrix(0.0, -0.0251, 0.0179, 0.0, 195.5, 183.8)" gradientUnits="userSpaceOnUse" id="gradient3" spreadMethod="pad" x1="-819.2" x2="819.2">
      <stop offset="0.0" stop-color="#025c01"/>
      <stop offset="0.4" stop-color="#016d6d"/>
      <stop offset="0.5843137254901961" stop-color="#01017e"/>
      <stop offset="0.788235294117647" stop-color="#970198"/>
      <stop offset="1.0" stop-color="#7e0101"/>
    </linearGradient>
    <linearGradient gradientTransform="matrix(0.0, -0.0251, 0.0179, 0.0, 196.5, 183.8)" gradientUnits="userSpaceOnUse" id="gradient4" spreadMethod="pad" x1="-819.2" x2="819.2">
      <stop offset="0.0" stop-color="#025c01"/>
      <stop offset="0.4" stop-color="#016d6d"/>
      <stop offset="0.5843137254901961" stop-color="#01017e"/>
      <stop offset="0.788235294117647" stop-color="#970198"/>
      <stop offset="1.0" stop-color="#7e0101"/>
    </linearGradient>
    <linearGradient gradientTransform="matrix(0.0, -0.0251, 0.0179, 0.0, 197.0, 183.8)" gradientUnits="userSpaceOnUse" id="gradient5" spreadMethod="pad" x1="-819.2" x2="819.2">
      <stop offset="0.0" stop-color="#025c01"/>
      <stop offset="0.4" stop-color="#016d6d"/>
      <stop offset="0.5843137254901961" stop-color="#01017e"/>
      <stop offset="0.788235294117647" stop-color="#970198"/>
      <stop offset="1.0" stop-color="#7e0101"/>
    </linearGradient>
    <linearGradient gradientTransform="matrix(0.0, -0.0251, 0.0179, 0.0, 198.0, 183.8)" gradientUnits="userSpaceOnUse" id="gradient6" spreadMethod="pad" x1="-819.2" x2="819.2">
      <stop offset="0.0" stop-color="#025c01"/>
      <stop offset="0.4" stop-color="#016d6d"/>
      <stop offset="0.5843137254901961" stop-color="#01017e"/>
      <stop offset="0.788235294117647" stop-color="#970198"/>
      <stop offset="1.0" stop-color="#7e0101"/>
    </linearGradient>
    <linearGradient gradientTransform="matrix(0.0, -0.0251, 0.0179, 0.0, 206.0, 183.8)" gradientUnits="userSpaceOnUse" id="gradient7" spreadMethod="pad" x1="-819.2" x2="819.2">
      <stop offset="0.0" stop-color="#025c01"/>
      <stop offset="0.4" stop-color="#016d6d"/>
      <stop offset="0.5843137254901961" stop-color="#01017e"/>
      <stop offset="0.788235294117647" stop-color="#970198"/>
      <stop offset="1.0" stop-color="#7e0101"/>
    </linearGradient>
    <linearGradient gradientTransform="matrix(0.0, -0.0251, 0.0179, 0.0, 207.0, 183.8)" gradientUnits="userSpaceOnUse" id="gradient8" spreadMethod="pad" x1="-819.2" x2="819.2">
      <stop offset="0.0" stop-color="#025c01"/>
      <stop offset="0.4" stop-color="#016d6d"/>
      <stop offset="0.5843137254901961" stop-color="#01017e"/>
      <stop offset="0.788235294117647" stop-color="#970198"/>
      <stop offset="1.0" stop-color="#7e0101"/>
    </linearGradient>
    <linearGradient gradientTransform="matrix(0.0, -0.0251, 0.0179, 0.0, 208.0, 183.8)" gradientUnits="userSpaceOnUse" id="gradient9" spreadMethod="pad" x1="-819.2" x2="819.2">
      <stop offset="0.0" stop-color="#025c01"/>
      <stop offset="0.4" stop-color="#016d6d"/>
      <stop offset="0.5843137254901961" stop-color="#01017e"/>
      <stop offset="0.788235294117647" stop-color="#970198"/>
      <stop offset="1.0" stop-color="#7e0101"/>
    </linearGradient>
    <linearGradient gradientTransform="matrix(0.0, -0.0251, 0.0179, 0.0, 194.0, 182.1)" gradientUnits="userSpaceOnUse" id="gradient10" spreadMethod="pad" x1="-819.2" x2="819.2">
      <stop offset="0.0" stop-color="#00ff00"/>
      <stop offset="0.28627450980392155" stop-color="#00ffff"/>
      <stop offset="0.6627450980392157" stop-color="#4e4efe"/>
      <stop offset="1.0" stop-color="#ff00ff"/>
    </linearGradient>
    <linearGradient gradientTransform="matrix(0.0, -0.0251, 0.0179, 0.0, 195.0, 182.1)" gradientUnits="userSpaceOnUse" id="gradient11" spreadMethod="pad" x1="-819.2" x2="819.2">
      <stop offset="0.0" stop-color="#00ff00"/>
      <stop offset="0.28627450980392155" stop-color="#00ffff"/>
      <stop offset="0.6627450980392157" stop-color="#4e4efe"/>
      <stop offset="1.0" stop-color="#ff00ff"/>
    </linearGradient>
    <linearGradient gradientTransform="matrix(0.0, -0.0251, 0.0179, 0.0, 195.5, 182.1)" gradientUnits="userSpaceOnUse" id="gradient12" spreadMethod="pad" x1="-819.2" x2="819.2">
      <stop offset="0.0" stop-color="#00ff00"/>
      <stop offset="0.28627450980392155" stop-color="#00ffff"/>
      <stop offset="0.6627450980392157" stop-color="#4e4efe"/>
      <stop offset="1.0" stop-color="#ff00ff"/>
    </linearGradient>
    <linearGradient gradientTransform="matrix(0.0, -0.0251, 0.0179, 0.0, 196.5, 182.1)" gradientUnits="userSpaceOnUse" id="gradient13" spreadMethod="pad" x1="-819.2" x2="819.2">
      <stop offset="0.0" stop-color="#00ff00"/>
      <stop offset="0.28627450980392155" stop-color="#00ffff"/>
      <stop offset="0.6627450980392157" stop-color="#4e4efe"/>
      <stop offset="1.0" stop-color="#ff00ff"/>
    </linearGradient>
    <linearGradient gradientTransform="matrix(0.0, -0.0251, 0.0179, 0.0, 204.5, 182.1)" gradientUnits="userSpaceOnUse" id="gradient14" spreadMethod="pad" x1="-819.2" x2="819.2">
      <stop offset="0.0" stop-color="#00ff00"/>
      <stop offset="0.28627450980392155" stop-color="#00ffff"/>
      <stop offset="0.6627450980392157" stop-color="#4e4efe"/>
      <stop offset="1.0" stop-color="#ff00ff"/>
    </linearGradient>
    <linearGradient gradientTransform="matrix(0.0, -0.0251, 0.0179, 0.0, 205.5, 182.1)" gradientUnits="userSpaceOnUse" id="gradient15" spreadMethod="pad" x1="-819.2" x2="819.2">
      <stop offset="0.0" stop-color="#00ff00"/>
      <stop offset="0.28627450980392155" stop-color="#00ffff"/>
      <stop offset="0.6627450980392157" stop-color="#4e4efe"/>
      <stop offset="1.0" stop-color="#ff00ff"/>
    </linearGradient>
    <linearGradient gradientTransform="matrix(0.0, -0.0251, 0.0179, 0.0, 206.5, 182.1)" gradientUnits="userSpaceOnUse" id="gradient16" spreadMethod="pad" x1="-819.2" x2="819.2">
      <stop offset="0.0" stop-color="#00ff00"/>
      <stop offset="0.28627450980392155" stop-color="#00ffff"/>
      <stop offset="0.6627450980392157" stop-color="#4e4efe"/>
      <stop offset="1.0" stop-color="#ff00ff"/>
    </linearGradient>
  </defs>
</svg>
