<?xml version="1.0" encoding="UTF-8" standalone="no"?>
<svg xmlns:xlink="http://www.w3.org/1999/xlink" height="300.0px" width="300.0px" xmlns="http://www.w3.org/2000/svg">
  <g transform="matrix(1.0, 0.0, 0.0, 1.0, 0.0, 0.0)">
    <use height="207.65" transform="matrix(0.96, 0.0, 0.0, 0.96, 12.0012, 65.3029)" width="287.5" xlink:href="#sprite0"/>
  </g>
  <defs>
    <g id="sprite0" transform="matrix(1.0, 0.0, 0.0, 1.0, 143.75, 103.8)">
      <use height="207.65" transform="matrix(1.0, 0.0, 0.0, 1.0, -143.75, -103.8)" width="287.5" xlink:href="#shape0"/>
    </g>
    <g id="shape0" transform="matrix(1.0, 0.0, 0.0, 1.0, 143.75, 103.8)">
      <path d="M13.15 -101.75 L11.05 -97.15 9.6 -92.95 Q9.0 -90.6 8.75 -88.55 8.45 -86.3 8.45 -83.3 8.45 -80.2 9.55 -76.75 10.65 -73.3 10.65 -70.2 10.65 -69.35 9.95 -68.75 L8.7 -67.7 7.25 -67.7 Q6.8 -67.7 6.0 -68.35 5.25 -69.0 6.3 -69.6 5.6 -70.65 5.3 -71.85 L4.4 -74.3 4.4 -74.9 Q4.4 -77.25 2.3 -79.45 0.35 -81.45 -2.75 -83.3 -5.6 -84.9 -8.8 -86.0 -12.05 -87.0 -13.95 -87.0 L-17.1 -86.75 -20.2 -86.55 -22.6 -86.95 -25.15 -87.35 Q-25.55 -87.35 -27.0 -86.4 L-45.3 -72.6 -45.4 -70.7 Q-47.25 -67.5 -48.7 -64.05 -50.25 -60.3 -51.4 -56.75 -52.7 -52.8 -53.25 -49.2 -53.95 -45.25 -53.95 -41.75 -53.95 -40.2 -53.4 -37.55 L-52.05 -32.35 -50.4 -27.15 -48.75 -23.05 -50.1 -21.35 -49.35 -20.65 -48.15 -20.9 -45.3 -18.05 -40.9 -13.55 Q-38.35 -10.75 -37.15 -9.05 -35.55 -6.95 -35.95 -6.35 L-34.95 -6.25 -33.3 -6.5 -31.75 -6.95 -30.75 -6.0 -25.75 -5.25 -20.7 -3.95 -19.85 -4.8 -18.9 -5.0 -18.05 -5.15 Q-17.2 -5.15 -16.3 -4.75 L-14.55 -4.35 -14.1 -4.4 -14.2 -4.7 -13.75 -4.8 Q-13.0 -4.8 -12.4 -5.25 -11.75 -5.65 -11.1 -5.65 -10.2 -5.65 -8.95 -6.35 L-6.6 -8.1 -4.6 -10.25 Q-3.75 -11.35 -3.55 -12.35 -4.3 -13.25 -4.5 -14.85 L-4.75 -18.35 -4.55 -22.05 -4.15 -24.85 -4.95 -25.35 Q-4.95 -31.3 -5.7 -33.55 -6.35 -35.7 -7.65 -36.25 L-10.55 -36.65 Q-12.05 -36.6 -14.1 -38.15 L-14.1 -39.0 -12.9 -40.35 -6.65 -39.9 Q-3.65 -39.6 -0.4 -39.85 L0.45 -39.35 17.0 -41.4 18.2 -40.2 18.2 -39.5 Q18.2 -39.15 17.25 -38.75 L11.0 -36.95 Q10.1 -35.4 9.55 -33.6 9.0 -31.8 8.6 -29.65 L8.1 -25.55 Q8.0 -23.15 8.25 -21.85 7.65 -20.45 7.7 -18.15 L8.0 -14.15 7.25 -11.7 6.15 -8.6 4.8 -5.6 Q4.15 -4.2 3.45 -3.75 L1.4 -2.75 -1.25 -1.8 -3.65 -0.8 -4.95 0.35 -5.35 0.35 -11.1 0.75 -22.8 3.25 -28.75 3.85 -29.25 3.75 -29.2 3.45 -29.7 3.35 -32.65 3.15 -35.7 3.0 -37.6 2.55 -40.0 1.55 -42.3 0.3 Q-43.4 -0.4 -43.95 -0.95 L-45.55 -0.95 -46.35 0.0 Q-48.95 -1.45 -51.0 -2.9 L-55.5 -6.15 -56.95 -5.65 -58.6 -7.45 -60.45 -9.8 -61.95 -12.3 Q-62.55 -13.55 -62.55 -14.55 L-62.1 -15.85 -63.65 -16.8 Q-64.95 -17.6 -66.4 -20.95 -67.85 -24.3 -69.1 -28.2 -70.35 -32.15 -71.2 -35.85 -72.05 -39.55 -72.05 -41.15 -72.05 -42.7 -71.65 -44.4 L-70.75 -47.4 -69.95 -50.4 Q-69.65 -52.0 -70.0 -53.65 -69.65 -54.6 -68.8 -55.2 -67.95 -55.8 -67.5 -56.65 L-67.5 -57.15 Q-67.5 -59.0 -66.45 -61.8 -65.6 -64.25 -63.7 -67.7 L-59.8 -73.95 -55.25 -79.55 Q-52.9 -82.05 -50.45 -83.65 -48.1 -85.2 -46.0 -85.2 L-45.55 -85.2 -45.55 -84.95 -45.35 -84.65 Q-45.15 -84.55 -45.15 -84.85 -40.2 -88.2 -34.85 -90.45 -29.5 -92.55 -23.55 -92.55 -21.65 -92.55 -19.2 -93.45 -16.7 -94.35 -14.55 -94.35 L-5.75 -93.45 3.05 -92.55 Q4.3 -92.55 5.1 -94.25 L6.75 -98.15 Q7.5 -100.3 8.4 -102.05 9.3 -103.8 10.85 -103.8 11.55 -103.8 12.25 -103.1 L13.15 -101.75" fill="#000000" fill-rule="evenodd" stroke="none"/>
      <path d="M67.55 -40.55 L70.5 -40.55 72.75 -40.95 74.95 -41.45 75.35 -41.3 76.35 -41.6 77.0 -41.15 77.7 -40.55 77.4 -40.35 77.1 -39.45 76.65 -39.05 76.35 -38.75 75.6 -38.9 Q74.75 -38.9 74.3 -38.25 73.8 -37.55 73.65 -36.75 L73.4 -34.95 73.4 -28.2 73.8 -27.15 73.9 -25.95 73.25 -25.0 73.55 -21.8 73.75 -18.7 73.65 -16.1 73.55 -13.5 Q73.55 -12.5 73.7 -11.55 L73.9 -9.6 73.55 -8.25 73.15 -7.1 Q73.15 -6.65 73.4 -6.25 L73.8 -5.5 72.95 -3.85 72.95 -3.8 73.75 -3.8 73.7 -2.65 Q73.7 -0.6 74.3 0.15 75.0 0.9 76.85 1.35 77.35 1.55 77.3 2.05 L77.3 2.25 77.2 2.9 77.05 3.4 72.0 3.05 67.05 2.7 66.7 3.15 65.95 3.0 65.3 3.0 63.5 3.5 62.9 3.2 62.15 3.05 62.0 2.7 61.95 2.35 Q61.95 1.9 62.65 1.6 L64.6 0.85 Q65.55 0.5 65.9 -0.85 66.5 -2.85 66.65 -5.25 L66.85 -9.85 66.5 -11.75 Q66.1 -12.8 66.1 -13.7 66.1 -15.35 66.4 -16.95 L66.7 -20.1 66.25 -27.4 66.75 -28.35 Q66.2 -29.15 66.2 -29.95 L66.25 -31.7 66.1 -32.2 65.95 -35.3 65.65 -36.85 65.2 -38.0 Q64.85 -38.35 64.3 -38.5 L63.15 -38.9 Q62.6 -39.1 62.05 -39.45 61.6 -39.75 61.6 -40.35 L62.45 -41.3 66.5 -40.8 67.55 -40.55" fill="#000000" fill-rule="evenodd" stroke="none"/>
      <path d="M123.05 -38.55 Q122.1 -39.25 122.1 -40.0 122.1 -40.6 122.75 -40.95 L123.9 -41.3 125.05 -41.1 126.15 -40.95 138.25 -41.05 Q138.1 -39.55 137.15 -38.95 136.2 -38.3 135.0 -38.25 134.2 -37.55 134.05 -36.4 L133.85 -34.25 133.75 -32.2 Q133.6 -31.15 133.0 -30.65 133.35 -29.2 133.25 -27.4 L133.2 -24.15 133.6 -22.95 134.15 -21.5 134.6 -16.0 134.65 -10.45 Q134.65 -7.75 134.8 -5.2 135.05 -2.55 135.7 0.1 L137.3 0.7 138.1 1.1 138.45 1.6 Q138.45 2.25 137.9 2.9 137.35 3.4 136.5 3.4 L133.7 3.1 130.95 2.75 127.9 2.85 124.85 3.3 124.2 3.55 123.4 3.75 122.55 3.8 Q121.9 3.3 121.9 2.65 121.9 1.9 122.8 1.2 123.65 0.5 124.4 0.4 L124.85 0.6 Q125.5 0.6 125.85 0.15 126.2 -0.25 126.35 -1.1 L126.6 -2.85 126.8 -9.45 127.05 -11.05 127.6 -12.2 Q127.0 -13.0 126.8 -13.95 L126.5 -15.8 126.35 -17.65 125.8 -19.4 125.95 -23.8 125.85 -28.1 125.7 -28.25 119.0 -16.9 Q115.8 -11.2 113.5 -5.2 L112.65 -2.75 111.6 0.3 110.35 3.15 Q109.75 4.35 108.8 5.0 L107.7 3.9 107.0 2.4 Q106.7 1.65 106.55 0.7 L106.35 -0.75 105.85 -0.75 Q104.85 -1.5 104.6 -2.25 L103.95 -4.0 Q103.65 -5.0 102.8 -5.3 L100.3 -10.75 97.9 -16.25 95.3 -21.65 Q93.75 -24.55 92.1 -26.65 L91.05 -18.55 Q90.45 -14.5 90.45 -10.55 90.45 -9.25 91.0 -8.15 91.5 -7.1 91.5 -5.65 91.5 -4.95 91.1 -3.9 90.65 -2.9 90.65 -2.1 90.65 -0.95 91.8 -0.05 92.9 0.9 94.2 0.9 L95.2 1.0 95.85 1.25 96.4 1.6 97.05 1.85 96.45 3.05 Q96.1 3.5 95.4 3.5 L90.25 3.1 85.1 2.7 83.4 3.05 81.7 3.35 81.0 3.25 80.3 3.05 80.0 1.5 84.05 -0.45 Q84.7 -0.75 84.75 -1.25 85.45 -1.7 85.65 -2.45 L85.9 -4.0 85.75 -7.1 86.0 -9.3 Q86.2 -10.25 87.0 -11.35 L86.35 -12.35 Q86.1 -12.95 86.1 -13.45 L86.35 -15.7 86.75 -17.95 87.05 -20.2 86.9 -22.55 87.8 -26.05 Q88.35 -27.95 88.35 -29.55 L88.25 -31.8 87.75 -34.85 86.65 -37.6 Q85.95 -38.75 84.9 -38.75 L84.05 -38.65 83.15 -38.55 Q82.05 -38.55 81.35 -39.55 L81.35 -40.8 82.5 -41.05 86.1 -41.15 86.25 -40.95 91.9 -41.2 97.4 -41.5 Q98.3 -41.5 99.45 -40.8 L99.45 -39.85 97.05 -38.35 97.9 -34.8 Q98.2 -33.05 99.1 -31.45 99.8 -30.15 100.65 -28.95 L101.7 -27.4 102.3 -25.65 102.45 -22.45 105.05 -19.35 107.05 -16.0 108.7 -12.55 110.5 -9.05 111.55 -11.7 112.95 -14.75 Q113.7 -16.3 114.6 -17.6 L116.5 -19.6 Q117.05 -22.0 118.0 -24.25 L120.1 -28.65 124.5 -37.35 123.05 -38.55" fill="#000000" fill-rule="evenodd" stroke="none"/>
      <path d="M-124.15 -27.7 L-107.25 -27.85 -90.35 -28.05 -87.4 -27.2 Q-85.3 -26.45 -82.9 -25.15 -80.65 -24.0 -79.1 -22.6 -77.6 -21.15 -78.1 -20.15 -77.05 -19.45 -76.15 -17.6 -75.05 -15.25 -74.45 -13.4 L-73.15 -8.95 Q-72.7 -6.85 -72.7 -5.75 -72.7 -1.25 -74.45 2.3 -76.15 5.95 -79.05 8.95 -81.75 11.8 -85.6 14.15 -89.5 16.45 -93.1 17.8 L-92.25 20.55 -90.5 22.35 -88.6 25.05 Q-87.8 26.4 -87.2 28.0 -86.75 29.45 -87.1 30.25 -86.45 30.7 -83.9 34.1 L-65.6 60.65 -65.15 61.1 -64.6 62.35 -63.8 63.65 -62.15 66.65 Q-61.1 68.4 -60.55 69.75 -60.05 71.0 -59.85 72.5 -56.7 74.9 -53.95 77.5 -51.2 80.1 -48.8 82.95 L-48.25 83.75 -47.25 84.85 -46.1 85.95 Q-45.55 86.45 -45.35 86.3 L-44.65 86.0 -44.0 85.85 Q-43.65 85.85 -42.4 86.6 L-36.2 91.1 -34.65 92.25 -31.0 94.05 -26.75 95.7 -23.35 96.4 Q-21.2 98.7 -18.1 98.7 -17.5 98.7 -16.75 97.95 L-16.55 97.7 Q-16.2 97.35 -15.8 97.35 L-14.95 97.55 -14.0 97.7 -13.05 98.8 Q-12.6 97.85 -11.9 97.55 L-10.4 97.35 -6.95 97.7 Q-2.75 97.7 0.7 95.6 4.1 93.5 7.0 90.5 L14.9 81.05 17.3 78.4 Q18.15 78.65 18.15 79.45 L17.3 81.55 13.45 89.0 12.15 91.1 9.1 93.75 5.45 96.25 1.55 98.55 Q-0.75 99.75 -2.15 100.35 L-3.1 101.2 -7.65 101.95 -12.2 102.15 Q-13.2 102.15 -13.9 102.8 -14.55 103.45 -15.55 103.45 L-18.45 103.85 -19.3 103.0 -21.75 103.25 -24.2 103.45 -27.4 102.65 -33.15 100.45 -40.15 97.45 -52.95 91.55 -56.25 89.7 Q-59.0 87.75 -61.65 85.2 L-66.95 79.85 -72.05 74.2 -76.75 68.9 -79.9 65.0 -84.2 58.6 -100.65 33.85 -105.85 26.85 -110.25 21.95 Q-112.2 20.05 -113.25 20.05 L-115.9 19.9 -116.35 19.95 Q-116.75 20.1 -116.75 20.65 L-116.65 21.15 -116.3 26.7 -116.35 29.25 Q-116.5 30.4 -116.95 30.95 -116.2 33.2 -116.0 35.3 L-115.75 40.25 -115.75 45.5 -115.75 50.5 -115.55 55.2 Q-115.2 57.65 -114.7 59.1 -114.05 60.8 -112.9 61.7 -111.65 62.7 -109.75 62.7 L-108.8 62.45 -107.95 62.2 Q-107.2 62.2 -106.55 62.8 -105.85 63.35 -105.45 64.0 L-105.45 65.7 -106.7 66.05 -108.65 66.35 -110.6 66.55 -111.95 66.65 -115.1 66.3 -121.35 64.7 -124.65 64.35 -128.5 64.55 -133.45 65.0 -138.5 65.8 Q-140.95 66.25 -142.4 67.0 -143.75 66.2 -143.75 64.6 -143.75 63.45 -143.0 62.75 L-141.35 61.8 -139.35 61.45 -137.6 61.35 Q-136.75 61.35 -135.7 60.15 -134.7 59.05 -133.65 57.4 L-132.05 54.3 Q-131.35 52.65 -131.35 52.05 -131.35 51.2 -131.85 50.55 L-132.95 49.4 Q-132.45 48.8 -132.35 47.5 -132.2 46.15 -132.2 44.85 -132.2 43.15 -132.35 41.8 L-132.75 23.3 -132.75 14.85 Q-132.65 10.35 -132.2 7.15 -131.95 5.1 -132.05 2.7 -132.05 0.35 -132.35 -2.05 L-132.8 -6.85 -133.05 -11.3 Q-133.05 -16.0 -134.75 -19.85 -136.35 -23.65 -140.35 -26.5 L-139.55 -27.85 Q-138.95 -28.65 -138.35 -28.65 L-136.65 -28.4 -131.95 -27.45 -131.15 -27.35 -130.75 -27.35 -130.3 -27.45 -129.7 -27.7 -129.35 -27.7 Q-129.35 -27.35 -128.95 -27.35 L-126.4 -27.5 -124.15 -27.7 M-113.0 -23.95 L-116.2 -22.8 -117.55 -22.4 -117.65 -19.95 -117.45 -16.75 -117.1 -13.1 -116.75 -9.1 Q-116.45 -5.25 -116.55 -1.7 -116.6 1.65 -117.8 2.8 -116.1 5.1 -116.85 7.25 L-118.05 11.8 -118.1 13.3 -117.8 14.9 -108.1 14.3 Q-102.9 13.9 -99.45 12.65 -96.0 11.3 -93.75 8.9 -91.55 6.55 -90.35 2.85 -89.15 -0.85 -88.55 -5.75 L-89.8 -6.65 -89.75 -7.15 -89.25 -8.25 -89.0 -9.8 Q-89.0 -10.6 -89.45 -11.6 L-90.2 -13.15 -90.95 -14.9 -91.3 -16.4 -96.5 -19.55 -100.65 -22.05 Q-102.75 -23.0 -105.4 -23.6 L-111.8 -24.2 -113.0 -23.95" fill="#000000" fill-rule="evenodd" stroke="none"/>
      <path d="M-63.55 59.2 L-62.55 58.75 -60.7 58.05 -60.25 57.55 -59.6 53.75 -58.9 49.45 -58.4 45.15 -58.15 41.35 Q-58.15 41.0 -58.6 40.7 L-59.05 39.85 Q-59.05 38.35 -58.6 36.9 -58.15 35.5 -58.15 33.95 -58.15 31.6 -58.3 29.25 L-58.45 24.5 -58.5 23.85 Q-58.5 23.45 -58.9 23.2 L-59.3 19.1 -60.25 18.85 -61.1 18.7 -61.9 18.5 -62.7 17.75 -62.7 16.6 -61.9 16.05 -61.05 15.8 -60.35 16.0 -59.75 16.25 -53.55 16.4 -52.8 16.5 -51.85 16.6 -50.2 16.8 -48.6 17.05 -36.85 16.05 -32.65 15.0 Q-30.75 14.4 -29.45 13.4 -28.15 12.4 -27.95 11.1 L-26.9 11.1 Q-26.15 11.35 -26.15 12.15 -26.15 12.55 -26.5 13.2 L-27.7 16.65 -28.1 18.05 -28.35 20.35 Q-28.5 21.5 -29.6 22.35 L-32.65 20.95 -34.5 20.3 -35.65 20.05 -36.15 20.25 -36.65 20.4 -44.0 19.25 -44.2 19.4 -44.55 19.6 -45.5 20.05 -46.45 20.15 -49.05 20.95 -49.7 21.4 -50.0 22.7 -50.85 28.85 -50.55 32.2 -50.1 34.05 Q-49.8 34.9 -49.4 34.95 L-45.45 35.6 -45.45 35.55 -45.0 35.25 Q-44.3 34.8 -44.0 34.8 L-37.45 34.65 -35.7 34.35 -34.65 33.85 -33.85 33.15 -32.2 31.1 -30.65 29.5 -29.45 29.5 -28.7 30.5 Q-29.5 31.7 -30.0 33.2 L-30.55 35.9 -30.8 38.7 -31.1 41.65 -32.25 41.65 -33.1 41.0 -33.55 40.3 Q-34.5 39.95 -36.2 39.7 L-39.65 39.4 -43.1 39.25 -45.85 39.2 Q-48.4 39.2 -49.35 39.7 -50.3 40.2 -50.6 41.0 -50.9 41.75 -50.75 43.25 L-50.6 49.85 -51.2 49.95 -51.55 50.45 Q-50.7 51.15 -50.7 52.4 L-50.8 53.55 -50.85 54.85 -50.1 55.2 -49.7 54.95 Q-49.0 55.0 -48.5 55.5 -48.0 56.0 -47.6 56.0 L-35.2 55.6 Q-34.0 55.6 -33.2 55.05 L-31.8 53.65 -30.65 51.85 -29.6 50.05 -29.25 50.05 Q-28.75 50.05 -28.2 50.7 L-27.35 51.65 Q-28.3 52.85 -28.45 54.05 L-28.6 56.55 -28.35 59.4 -27.65 62.15 -27.5 62.6 -27.5 62.95 -28.1 64.05 Q-28.5 64.75 -28.95 64.75 L-30.0 64.05 -30.65 63.4 -31.4 62.7 Q-32.15 61.9 -33.35 61.2 -34.45 60.55 -36.0 60.3 L-39.15 59.95 -49.7 59.65 -54.3 60.15 -58.95 61.0 -61.75 61.25 -62.5 61.15 -63.2 61.0 -63.55 60.1 -63.55 59.2" fill="#000000" fill-rule="evenodd" stroke="none"/>
      <path d="M22.95 60.75 Q22.55 61.3 21.75 61.3 L17.85 60.85 13.9 60.45 9.3 60.95 4.75 61.45 3.95 61.25 3.25 60.65 Q3.25 59.85 3.8 59.45 4.35 59.1 5.15 58.85 L6.8 58.45 Q7.65 58.3 8.15 57.85 7.15 55.0 6.5 52.75 5.8 50.35 4.55 47.7 4.95 47.05 4.95 46.25 4.95 45.7 4.15 45.65 L2.3 45.4 -2.0 45.45 -2.35 45.7 -2.75 45.95 -3.3 46.1 -3.95 45.75 -4.45 45.4 -6.5 45.7 -8.55 45.95 -10.1 46.35 -11.0 47.35 -11.55 48.7 -12.15 51.25 -13.3 54.15 -13.75 56.1 Q-13.75 56.7 -13.4 57.0 L-12.6 57.55 -10.65 58.15 -9.3 58.7 Q-8.7 59.1 -8.55 59.95 L-9.8 60.75 -11.25 60.85 -13.25 60.65 -15.25 60.45 -17.35 60.6 -19.35 61.1 -19.95 60.65 -21.9 61.15 -23.85 61.45 -24.4 61.35 -25.05 61.15 -25.4 60.15 Q-22.15 57.9 -20.25 55.9 -18.1 53.75 -17.05 50.6 L-16.4 48.35 -15.35 45.1 -14.05 42.2 Q-13.3 40.95 -12.5 40.95 L-12.9 40.7 -12.9 39.85 -13.05 38.9 Q-12.6 38.45 -11.85 37.1 L-5.6 24.1 Q-5.1 22.8 -5.1 22.3 -5.1 20.35 -6.3 19.75 -7.5 19.2 -8.9 19.0 L-11.55 18.65 Q-12.75 18.5 -12.75 17.4 -12.75 16.8 -12.2 16.35 -11.6 15.85 -11.1 15.85 L-7.75 16.3 -4.45 16.75 -3.9 16.5 -3.15 16.3 3.8 16.1 Q4.45 16.1 4.85 16.45 5.35 16.8 5.35 17.4 5.35 18.0 4.55 18.55 3.75 19.0 3.75 19.4 3.75 21.05 4.45 24.15 5.25 27.25 6.4 30.85 L9.15 38.5 Q11.0 43.35 12.2 46.0 13.75 49.6 15.25 52.4 16.6 55.15 17.85 56.7 17.85 57.1 18.6 57.55 19.35 58.05 20.25 58.4 L22.15 59.05 23.55 59.35 22.95 60.75 M-3.75 31.15 Q-3.85 32.65 -4.55 34.0 L-6.1 36.85 -7.65 39.25 Q-8.35 40.4 -8.35 41.0 L-8.2 41.6 -6.25 41.95 -4.4 42.15 -1.9 41.7 0.65 41.3 1.8 41.15 -0.35 35.2 -2.95 29.4 Q-3.7 30.35 -3.75 31.15" fill="#000000" fill-rule="evenodd" stroke="none"/>
      <path d="M59.25 31.05 Q58.35 32.9 56.9 34.25 55.55 35.6 53.65 36.7 51.6 37.85 49.95 38.4 L49.5 38.55 49.15 38.65 45.05 39.0 40.4 39.25 Q40.1 39.25 39.95 39.4 L39.9 39.35 39.75 39.5 Q38.9 39.5 38.75 40.0 L38.65 41.15 38.65 42.1 38.2 43.4 37.3 44.45 Q38.0 46.4 38.05 48.8 L38.4 53.3 Q38.55 55.6 39.25 57.0 39.85 58.45 41.5 58.45 L41.9 58.3 42.35 58.2 Q42.85 58.2 43.35 58.55 L44.05 59.3 44.05 60.45 43.3 60.7 41.1 61.0 40.4 61.0 37.25 60.5 Q35.5 60.0 34.05 60.0 L27.25 60.7 Q26.25 60.9 25.35 61.25 24.25 60.6 24.25 59.7 24.25 59.1 24.65 58.7 L25.6 58.15 26.7 57.9 27.7 57.85 Q28.0 57.85 28.5 57.35 L29.4 56.2 30.1 54.9 30.4 53.95 30.15 53.35 Q29.75 52.95 29.15 52.65 29.8 52.45 29.9 51.8 L30.05 50.6 29.9 49.2 30.35 35.2 30.75 31.35 Q31.05 29.6 30.55 27.95 30.1 26.3 30.1 24.6 30.1 22.55 29.1 20.7 28.05 18.9 25.65 18.3 L26.35 17.2 Q26.8 16.65 27.2 16.65 L28.5 16.75 31.25 17.3 32.55 17.4 33.1 17.2 Q33.45 17.05 33.6 17.4 L35.75 17.15 37.35 17.3 38.95 17.4 44.95 17.0 51.0 16.6 52.45 17.0 Q53.45 17.35 54.65 18.0 L56.65 19.3 Q57.55 20.0 57.55 20.5 L58.5 21.8 59.35 23.7 59.9 25.7 60.1 27.2 Q60.1 29.2 59.25 31.05 M41.9 19.55 L40.7 19.85 39.45 20.35 Q39.3 21.25 39.3 22.8 L39.15 26.0 38.75 29.05 38.0 31.2 38.65 32.45 38.8 33.65 38.8 34.8 39.05 36.05 42.35 36.05 46.35 35.55 Q47.95 35.05 49.05 33.95 50.1 32.9 50.7 31.25 51.3 29.45 51.55 27.45 50.8 27.15 50.4 26.3 50.25 26.0 50.25 25.5 L50.25 22.55 Q48.85 21.85 47.95 21.2 L46.45 20.25 Q45.5 19.85 44.75 19.75 L41.9 19.55" fill="#000000" fill-rule="evenodd" stroke="none"/>
      <path d="M79.85 19.4 L79.5 19.6 Q78.9 20.05 78.55 20.05 L77.6 20.15 75.05 20.95 Q74.5 21.15 74.4 21.4 74.2 21.7 74.05 22.7 L73.25 28.85 73.5 32.2 73.95 34.05 Q74.25 34.85 74.65 34.95 L78.65 35.6 78.65 35.55 79.05 35.25 80.05 34.8 86.6 34.65 88.35 34.35 89.45 33.85 90.2 33.15 91.85 31.1 93.4 29.5 94.6 29.5 95.35 30.5 Q94.55 31.7 94.05 33.2 L93.5 35.9 93.25 38.7 92.95 41.65 91.8 41.65 90.95 41.0 90.5 40.3 87.85 39.7 84.4 39.4 80.95 39.25 78.2 39.2 Q75.65 39.2 74.7 39.7 73.75 40.2 73.45 41.0 73.15 41.75 73.3 43.25 L73.45 49.85 72.85 49.95 72.5 50.45 Q73.35 51.15 73.35 52.4 L73.25 53.55 73.25 54.85 73.95 55.2 74.4 54.95 Q75.1 55.05 75.55 55.5 76.15 56.0 76.45 56.0 L88.85 55.6 Q90.1 55.6 90.85 55.05 L92.25 53.65 93.4 51.85 94.45 50.05 94.85 50.05 95.85 50.7 96.7 51.65 Q95.75 52.85 95.6 54.05 95.45 55.25 95.45 56.55 95.45 58.0 95.75 59.4 96.0 60.9 96.4 62.15 L96.55 62.6 96.55 62.95 96.0 64.05 Q95.55 64.75 95.1 64.75 L94.05 64.05 93.4 63.4 92.65 62.7 Q91.9 61.9 90.7 61.2 89.6 60.55 88.05 60.3 L84.95 59.95 74.4 59.65 69.75 60.15 65.1 61.0 62.3 61.25 61.55 61.15 60.85 61.0 60.5 60.1 60.5 59.2 Q61.25 58.8 61.5 58.75 L63.35 58.05 63.8 57.55 65.65 45.15 65.9 41.35 65.45 40.7 Q65.0 40.4 65.0 39.85 65.0 38.35 65.45 36.9 65.9 35.5 65.9 33.95 L65.75 29.25 65.6 24.5 65.55 23.85 Q65.55 23.45 65.15 23.2 L64.75 19.1 63.8 18.85 62.95 18.7 62.15 18.5 61.35 17.75 61.35 16.6 62.15 16.05 Q62.65 15.8 63.0 15.8 L63.7 16.0 64.3 16.25 70.5 16.4 71.25 16.5 72.2 16.6 73.85 16.8 75.45 17.05 87.2 16.05 91.4 15.0 Q93.25 14.45 94.6 13.4 95.95 12.35 96.1 11.1 L97.15 11.1 Q97.9 11.35 97.9 12.15 L97.55 13.2 96.35 16.65 96.0 18.05 95.7 20.35 Q95.55 21.5 94.45 22.35 L91.4 20.95 89.55 20.3 88.4 20.05 87.9 20.25 87.4 20.4 80.05 19.25 79.85 19.4" fill="#000000" fill-rule="evenodd" stroke="none"/>
      <path d="M41.55 69.35 L42.65 69.5 42.85 69.65 Q43.95 69.8 45.5 70.6 46.8 71.25 48.0 72.45 49.1 73.4 49.9 74.85 50.6 76.1 50.6 77.45 L50.75 78.25 50.95 79.05 50.75 79.4 50.8 79.5 50.9 79.6 51.05 80.85 51.05 81.25 50.95 81.6 50.65 82.05 51.0 82.9 50.65 84.05 50.8 84.25 Q49.95 87.35 48.95 89.1 L46.85 91.85 45.0 93.3 Q44.3 93.7 44.05 94.15 L43.75 94.05 43.8 94.15 43.75 94.2 43.55 94.35 38.7 95.7 35.35 95.9 34.1 95.85 31.65 95.5 30.45 95.5 30.2 95.35 30.1 95.4 29.95 95.55 29.75 95.3 27.4 95.55 26.15 95.85 Q25.45 96.05 25.2 96.2 L24.65 96.2 Q24.5 95.9 24.5 95.5 24.5 95.15 24.65 94.9 24.8 94.7 25.05 94.6 L26.05 94.35 26.1 94.25 26.45 94.15 26.65 94.2 27.0 94.05 27.4 93.8 27.7 92.9 27.85 92.05 27.85 91.2 27.8 89.95 27.9 89.65 28.05 87.85 28.35 87.45 28.4 87.35 28.05 86.9 28.1 84.15 28.0 83.6 28.15 82.9 28.2 81.4 Q28.2 81.1 28.45 80.85 L28.15 80.5 27.95 79.7 28.15 74.2 Q28.15 73.6 28.3 73.15 28.05 72.9 27.95 72.4 L27.8 71.6 27.35 70.95 26.3 70.8 26.2 70.65 25.25 70.5 Q24.8 70.3 24.8 69.7 L24.95 69.4 25.25 69.2 25.7 69.1 26.0 69.1 26.6 69.2 27.15 69.35 29.0 69.65 29.45 69.6 35.5 69.45 36.45 69.3 37.45 69.15 40.5 69.15 41.55 69.35 M37.15 70.85 L34.95 70.95 32.8 71.35 32.4 73.55 32.05 75.8 32.45 76.7 32.25 79.3 31.95 81.85 32.1 82.15 32.2 82.5 31.95 84.4 32.1 84.85 32.0 86.55 Q31.85 87.1 31.85 87.7 L32.1 92.25 32.4 93.5 32.45 93.75 32.65 93.9 33.1 94.15 33.2 94.15 33.85 94.0 34.3 94.1 34.65 94.25 34.65 94.3 35.45 94.2 35.6 94.35 36.85 94.5 38.1 94.45 38.4 94.55 Q38.4 94.45 38.55 94.45 L38.7 94.45 39.2 94.35 40.65 93.9 41.05 93.65 Q42.0 93.35 42.7 92.65 L43.9 91.1 46.05 87.8 45.85 87.45 46.65 84.85 47.0 84.15 46.8 84.05 46.8 83.55 Q46.8 82.25 47.1 81.05 L46.65 79.0 46.8 78.5 46.9 78.05 44.45 73.7 44.6 73.4 42.5 72.4 Q41.5 71.8 40.45 71.5 L40.25 71.3 39.75 71.1 39.5 71.2 38.3 71.0 37.15 70.85" fill="#000000" fill-rule="evenodd" stroke="none"/>
      <path d="M57.5 69.3 L58.45 69.45 59.4 69.55 61.1 69.5 63.5 69.35 66.1 69.0 68.55 68.35 70.45 67.35 Q71.15 66.8 71.3 65.95 L71.75 65.95 72.05 66.4 71.9 67.0 70.9 70.0 70.8 71.3 Q70.7 72.0 70.2 72.45 L67.45 71.2 66.75 71.05 Q66.6 71.05 66.5 71.2 L66.2 71.3 62.0 70.55 61.6 70.85 61.15 71.05 59.75 71.35 59.0 71.65 58.6 72.0 57.95 76.6 58.15 78.8 58.45 79.95 Q58.6 80.5 58.9 80.55 L61.15 80.9 61.55 80.7 61.8 80.5 62.0 80.45 64.8 80.4 66.5 80.2 67.45 79.85 68.0 79.25 69.7 77.15 70.25 77.15 70.5 77.6 Q70.0 78.5 69.8 79.25 L69.5 80.85 69.35 82.55 69.2 84.3 68.75 84.3 68.35 83.95 68.05 83.45 66.55 83.1 60.95 82.8 58.85 83.1 Q58.2 83.45 58.05 84.0 L57.95 85.45 58.05 87.45 58.05 89.25 57.7 89.45 57.45 89.85 57.9 90.4 58.0 91.05 57.95 91.7 57.95 92.4 57.95 92.55 58.5 92.9 58.8 92.75 59.4 93.1 59.95 93.4 67.05 93.15 Q67.75 93.15 68.25 92.8 L69.05 91.95 70.3 89.8 70.45 89.8 Q70.7 89.8 70.9 90.1 L71.25 90.6 Q70.75 91.25 70.7 92.0 L70.65 93.6 Q70.65 95.3 70.95 96.25 L71.25 97.45 71.0 98.0 70.55 98.4 70.1 98.05 69.3 97.2 68.2 96.25 Q67.65 95.85 66.6 95.7 L64.8 95.5 62.7 95.35 57.1 95.45 51.85 96.25 51.15 96.15 50.95 95.3 52.05 94.85 52.6 94.55 52.85 94.2 53.65 89.25 53.95 86.6 54.1 84.3 53.85 83.85 53.6 83.35 Q53.6 82.3 53.85 81.55 L54.1 79.75 53.9 73.5 53.7 73.1 53.4 70.55 52.85 70.35 52.35 70.3 51.9 70.15 51.45 69.8 51.45 69.2 51.85 68.95 Q52.1 68.8 52.3 68.8 L52.65 68.95 53.05 69.1 57.5 69.3" fill="#000000" fill-rule="evenodd" stroke="none"/>
      <path d="M78.9 69.6 L79.8 69.7 80.7 69.75 84.15 69.5 87.6 69.25 88.45 69.5 89.75 70.1 90.85 70.85 Q91.3 71.2 91.15 71.55 L91.7 72.25 92.55 74.7 92.65 75.6 Q92.65 76.9 92.15 77.9 L90.85 79.8 89.0 81.25 Q87.95 81.95 86.9 82.3 L86.7 82.4 86.5 82.4 84.5 82.6 81.2 82.9 81.15 82.9 81.15 82.95 80.6 83.15 80.4 83.55 80.35 84.15 80.4 84.7 80.1 85.5 79.6 86.15 80.0 88.75 80.15 91.65 80.7 93.95 Q81.05 94.9 82.15 94.9 L82.4 94.85 82.65 94.75 83.1 94.95 83.4 95.3 83.4 95.9 83.1 96.0 81.9 96.15 81.5 96.15 79.75 95.85 77.9 95.5 74.0 95.95 72.9 96.25 Q72.5 96.1 72.5 95.5 L72.7 95.0 73.15 94.65 73.75 94.55 74.3 94.55 74.8 94.2 75.35 93.45 75.8 92.6 76.0 92.0 75.8 91.55 75.45 91.25 75.7 90.8 75.7 89.05 75.65 88.5 76.2 78.15 76.2 77.05 75.8 74.0 Q75.8 72.75 75.25 71.5 74.65 70.35 73.35 70.05 73.35 69.85 73.6 69.6 L74.0 69.3 76.35 69.7 77.05 69.75 77.3 69.65 Q77.5 69.6 77.5 69.75 L77.65 69.75 78.9 69.6 M87.3 74.1 L87.3 73.35 87.3 72.65 86.0 71.8 85.1 71.2 84.1 70.85 82.4 70.75 81.65 70.95 80.85 71.25 80.4 76.8 Q80.25 77.7 79.95 78.0 L80.35 78.8 80.45 80.4 80.6 81.2 82.6 81.2 85.0 80.85 Q86.0 80.45 86.6 79.8 L87.55 78.05 88.05 75.65 Q87.45 75.35 87.4 75.0 L87.3 74.1" fill="#000000" fill-rule="evenodd" stroke="none"/>
      <path d="M98.3 80.1 Q98.25 81.1 97.85 81.9 L97.85 84.9 98.8 87.2 99.95 89.9 Q100.65 91.25 101.45 92.25 102.35 93.25 103.4 93.45 L103.65 93.7 104.45 93.85 105.25 93.95 105.5 94.25 108.25 94.5 108.55 94.4 109.0 94.15 109.4 93.85 109.8 93.7 110.15 93.3 111.45 92.55 112.35 91.5 113.15 90.3 114.1 89.2 115.6 83.35 115.8 81.6 115.7 81.1 115.5 80.55 115.05 79.65 114.0 76.85 113.85 75.85 114.05 75.3 114.45 74.85 Q113.85 74.65 113.4 73.95 L112.65 72.7 112.45 72.8 112.25 72.85 111.4 72.5 110.05 71.75 108.4 70.95 106.6 70.6 Q106.0 70.6 105.05 71.15 L103.3 72.35 101.7 73.6 100.4 74.25 99.95 75.25 98.9 77.2 98.55 78.25 98.3 80.1 M98.15 72.45 L101.4 70.45 Q103.5 69.55 104.75 69.2 L107.8 68.7 109.9 69.0 111.9 69.25 Q112.45 69.25 113.3 69.8 L115.15 71.15 117.1 73.05 118.8 75.1 120.0 76.95 120.4 78.25 120.2 78.65 120.6 80.05 120.9 80.75 121.05 81.35 120.75 83.05 Q120.45 83.9 120.45 84.8 120.45 86.35 119.65 87.8 L117.7 90.65 115.15 93.15 112.65 95.15 106.7 95.95 104.7 96.05 103.3 96.0 101.75 95.75 98.9 94.85 99.25 94.25 98.95 93.8 98.2 93.5 97.4 93.35 96.8 93.15 96.25 92.45 95.4 91.2 94.7 89.9 94.35 89.15 Q93.25 88.05 92.9 86.85 92.55 85.75 92.55 84.25 92.55 83.6 92.7 82.9 L92.95 81.6 92.75 81.2 92.65 80.75 Q92.65 79.2 93.4 77.75 94.15 76.25 95.35 74.9 96.45 73.65 98.15 72.45" fill="#000000" fill-rule="evenodd" stroke="none"/>
      <path d="M120.95 67.85 L120.85 67.4 121.15 66.95 121.6 66.65 122.05 67.3 122.25 67.9 122.65 68.35 123.5 68.5 124.1 68.7 124.8 68.9 130.15 69.25 132.45 69.0 132.65 69.15 132.9 69.25 133.2 69.1 133.25 69.1 133.4 69.0 134.7 69.15 136.05 69.25 136.25 69.1 136.25 69.0 136.35 69.0 138.15 69.2 138.35 69.25 138.95 69.1 139.55 68.85 139.85 68.75 140.7 68.7 141.55 68.4 142.2 67.85 142.35 66.9 143.3 66.9 143.1 70.1 142.7 73.25 142.55 73.5 142.45 73.55 142.35 73.55 142.2 73.6 Q141.65 72.2 140.9 71.75 140.1 71.15 138.65 71.15 L138.45 71.2 138.35 71.3 138.35 71.35 138.25 71.45 138.05 71.35 138.05 71.3 136.95 71.15 136.65 71.15 Q135.8 71.15 135.35 71.65 L134.15 73.15 133.75 73.55 134.15 74.2 134.4 74.9 134.4 83.8 133.9 87.5 133.8 88.75 133.9 90.1 134.3 92.15 134.9 94.0 Q135.25 94.8 135.7 94.8 L137.4 95.0 137.65 95.3 137.65 95.85 137.1 96.15 136.9 96.2 136.45 96.2 133.8 96.0 131.05 95.85 127.7 96.25 127.0 96.3 126.6 96.05 126.25 95.55 Q126.65 95.15 127.05 95.1 L128.0 94.9 128.85 94.55 129.3 93.7 129.45 92.35 Q129.55 91.55 129.95 91.05 L129.55 90.85 129.6 81.6 129.55 81.1 129.75 80.4 130.05 79.7 129.7 78.65 129.55 77.55 129.6 76.9 129.95 75.6 130.05 74.95 129.95 74.3 129.1 71.9 128.75 71.7 128.05 71.4 127.75 71.0 127.2 71.15 124.55 71.3 123.9 71.4 Q123.25 71.45 122.75 71.9 122.25 72.25 121.95 73.3 L121.6 73.3 121.35 72.75 121.3 71.85 121.4 70.15 121.15 68.5 120.95 67.85" fill="#000000" fill-rule="evenodd" stroke="none"/>
      <path d="M-142.4 -60.9 L-141.95 -60.35 -141.7 -59.75 -141.45 -59.45 -140.75 -59.3 -140.2 -59.15 -139.65 -59.0 -134.85 -58.7 -133.85 -58.8 -132.85 -58.9 -132.6 -58.8 -132.4 -58.7 -132.2 -58.8 -131.95 -58.9 -130.8 -58.8 -129.65 -58.7 -129.55 -58.75 -129.55 -58.8 -129.35 -58.9 -127.75 -58.75 -127.55 -58.7 -126.9 -58.9 -126.25 -59.1 -125.5 -59.15 -124.8 -59.4 -124.3 -59.85 Q-124.15 -60.15 -124.15 -60.65 L-123.05 -60.65 -123.25 -57.85 Q-123.35 -56.3 -123.6 -55.25 -123.65 -54.9 -124.05 -54.9 L-124.1 -54.85 -124.3 -54.75 Q-124.65 -55.9 -125.4 -56.4 -126.15 -56.9 -127.35 -56.9 L-127.4 -56.85 -127.4 -56.8 -127.45 -56.75 -127.65 -56.65 -128.15 -56.8 -128.85 -56.9 -129.1 -56.9 -129.85 -56.7 -130.45 -56.2 -131.45 -55.0 -131.15 -54.5 -130.95 -53.95 -130.95 -46.6 Q-130.95 -45.65 -131.2 -44.55 L-131.5 -42.5 -131.4 -41.4 -131.05 -39.75 -130.6 -38.3 -129.95 -37.65 -128.3 -37.5 -128.05 -37.1 -128.05 -36.55 -128.6 -36.3 -129.25 -36.2 -131.6 -36.35 -134.05 -36.5 -135.0 -36.45 -137.65 -36.1 Q-137.8 -36.1 -138.15 -36.35 L-138.45 -36.9 -137.7 -37.4 -136.8 -37.6 -136.1 -37.85 Q-135.85 -38.0 -135.75 -38.45 L-135.65 -39.5 -135.25 -40.55 -135.55 -40.7 -135.55 -48.85 -135.15 -49.95 -135.55 -51.4 -135.55 -51.75 -135.35 -52.8 Q-135.1 -53.25 -135.1 -53.9 L-135.2 -54.35 -135.4 -55.05 -135.9 -56.3 -136.45 -56.55 -137.0 -56.95 -139.2 -56.75 -140.15 -56.7 -140.9 -56.55 -141.55 -56.1 -142.0 -55.15 -142.5 -55.15 -142.8 -55.6 -142.9 -56.35 -142.75 -57.8 Q-142.75 -58.35 -142.9 -58.75 L-143.25 -60.1 -142.95 -60.6 -142.4 -60.9" fill="#000000" fill-rule="evenodd" stroke="none"/>
      <path d="M-99.85 -58.15 L-101.55 -57.3 -102.1 -55.9 -102.1 -54.35 -102.2 -53.65 -102.35 -52.05 -102.5 -51.3 -102.25 -48.3 -102.05 -45.25 -102.3 -43.7 -102.25 -42.25 Q-102.15 -41.35 -102.3 -40.8 L-102.05 -39.3 -101.95 -38.95 -101.05 -37.8 -99.95 -37.7 -99.75 -37.5 -99.75 -37.4 -99.7 -37.35 -99.5 -37.2 Q-99.55 -36.8 -100.05 -36.55 L-101.0 -36.25 -102.0 -36.2 -102.8 -36.3 -103.75 -36.45 -107.75 -36.3 -108.4 -36.15 -108.55 -36.3 -108.75 -36.7 -108.5 -37.25 -107.95 -37.65 -106.65 -38.05 -106.45 -38.0 -106.3 -38.25 -106.25 -38.75 -106.25 -43.9 -105.95 -44.2 -106.1 -44.9 -106.1 -46.45 -106.25 -47.35 -106.9 -47.5 -107.65 -47.5 -107.7 -47.45 -108.95 -47.45 -109.5 -47.75 -111.45 -47.55 -113.35 -47.45 -113.8 -47.5 -114.3 -47.65 -114.8 -47.25 -116.3 -47.3 Q-116.75 -47.3 -116.75 -47.0 L-116.6 -45.1 -116.5 -43.2 Q-116.5 -42.75 -116.65 -42.4 L-116.8 -41.6 -116.65 -41.15 -116.5 -40.65 -116.6 -40.3 -116.8 -39.95 -116.55 -39.95 -116.55 -39.25 -116.3 -38.2 -115.45 -37.65 -114.8 -37.25 -114.4 -37.35 -114.35 -36.9 Q-114.35 -36.45 -114.55 -36.4 L-114.95 -36.05 -117.45 -36.2 -119.9 -36.4 -119.95 -36.15 -120.9 -36.3 -121.3 -36.2 Q-121.5 -36.05 -121.8 -36.05 L-122.0 -36.15 -122.25 -36.2 -122.45 -36.3 -122.55 -36.4 -122.7 -36.55 -122.75 -36.8 -122.15 -37.35 -121.35 -37.75 -120.75 -38.2 Q-120.5 -38.5 -120.65 -38.95 L-120.25 -43.0 -120.45 -43.95 -120.65 -44.9 -120.5 -46.5 -120.3 -48.1 -120.55 -51.65 -120.3 -52.2 -120.55 -52.95 -120.7 -55.35 -120.9 -56.25 -121.2 -56.9 -121.6 -57.15 -122.2 -57.35 -122.7 -57.6 -122.95 -58.1 -122.65 -58.55 -122.3 -58.75 -121.0 -58.7 -119.75 -58.4 -118.3 -58.4 -117.2 -58.6 -116.0 -58.85 -115.85 -58.75 -115.35 -58.9 -114.9 -58.65 -114.4 -58.2 -114.7 -58.0 -114.95 -57.75 -115.4 -57.2 -115.8 -57.25 -116.35 -57.0 -116.6 -56.35 -116.7 -55.6 -116.7 -52.1 -116.5 -51.6 -116.45 -51.0 -116.75 -50.5 -116.4 -49.85 -115.9 -49.7 -115.75 -49.75 -115.5 -49.7 -112.25 -49.4 -111.45 -49.65 -111.2 -49.55 -110.55 -49.65 -110.3 -49.5 -108.15 -49.5 -107.15 -49.55 -107.0 -49.65 -106.4 -49.65 -106.3 -49.7 -106.15 -49.8 -106.1 -51.75 -105.85 -52.2 -106.1 -53.35 -106.0 -54.65 -106.15 -54.5 -106.25 -56.3 -106.55 -56.9 -106.85 -57.15 -107.2 -57.3 -108.4 -58.0 -108.4 -58.5 -108.15 -58.8 -107.85 -58.95 -106.25 -58.85 -104.65 -58.85 -104.45 -58.7 -100.15 -59.2 -99.7 -58.9 -99.6 -58.7 -99.6 -58.45 -99.85 -58.15" fill="#000000" fill-rule="evenodd" stroke="none"/>
      <path d="M-98.25 -59.05 L-97.55 -58.85 -91.95 -58.45 -86.0 -58.95 -83.85 -59.45 Q-82.75 -59.9 -82.25 -60.3 -81.6 -60.75 -81.5 -61.45 L-81.0 -61.45 -80.6 -60.9 -80.75 -60.35 -81.4 -58.65 -81.7 -56.75 Q-81.8 -56.2 -82.3 -55.75 L-84.8 -56.8 -85.4 -56.9 -85.55 -56.85 -85.65 -56.8 -85.9 -56.75 -89.6 -57.3 -89.9 -57.15 -90.35 -56.9 -90.85 -56.85 -91.5 -56.7 -92.15 -56.45 -92.5 -56.2 -93.0 -53.2 -93.05 -52.45 -92.9 -50.75 -92.7 -49.85 -92.35 -49.4 -90.35 -49.05 -90.35 -49.1 -90.1 -49.25 -89.6 -49.45 -85.4 -49.7 -84.85 -49.95 -84.5 -50.3 -84.15 -50.75 -82.85 -52.15 -82.25 -52.15 -81.9 -51.65 -82.5 -50.25 -82.95 -47.5 -83.1 -46.0 -83.65 -46.0 -84.1 -46.3 -84.25 -46.5 -84.3 -46.7 -85.65 -47.0 -90.55 -47.25 -92.3 -47.0 -92.95 -46.3 -93.0 -45.2 -92.95 -41.85 -93.25 -41.8 -93.4 -41.55 Q-93.0 -41.15 -93.0 -40.6 L-93.05 -39.95 -93.05 -39.35 -92.7 -39.15 -92.5 -39.25 -91.9 -39.0 -91.4 -38.75 -85.15 -38.95 Q-84.6 -38.95 -84.15 -39.25 L-83.45 -39.95 -82.3 -41.75 -82.15 -41.75 Q-81.85 -41.75 -81.65 -41.45 L-81.2 -40.95 -81.75 -39.75 -81.7 -37.05 -81.35 -35.65 -81.25 -35.4 -81.25 -35.25 -81.55 -34.7 -82.0 -34.3 -82.55 -34.7 -83.25 -35.35 -84.2 -36.1 -85.55 -36.55 -87.15 -36.75 -89.0 -36.85 -92.5 -36.9 -94.8 -36.65 -97.15 -36.2 -98.6 -36.1 -99.3 -36.2 -99.5 -36.65 -99.5 -37.1 -99.0 -37.35 -98.05 -37.7 -97.85 -37.95 -96.75 -46.15 -97.0 -46.45 -97.2 -46.9 -97.0 -48.4 -96.75 -49.9 -96.9 -54.65 -96.95 -55.0 -97.15 -55.3 -97.35 -57.4 -97.85 -57.55 -98.65 -57.7 -99.05 -58.1 -99.05 -58.65 -98.65 -58.95 -98.25 -59.05" fill="#000000" fill-rule="evenodd" stroke="none"/>
      <path d="M113.2 19.3 L111.9 19.75 111.85 20.75 112.4 26.95 112.4 29.45 Q112.3 30.7 111.9 31.2 112.4 31.95 112.35 32.6 L112.1 33.95 111.65 35.25 Q111.5 35.9 111.65 36.55 L116.35 36.25 120.5 35.55 Q122.25 34.9 123.25 33.85 124.35 32.8 124.9 31.2 125.5 29.6 125.8 27.4 125.0 27.05 125.3 26.45 L125.55 25.95 125.65 25.4 Q125.65 24.85 125.1 24.0 124.6 23.25 124.5 22.5 L121.95 21.05 119.85 19.95 117.6 19.2 114.5 18.95 113.2 19.3 M99.15 61.4 Q98.2 60.8 98.2 59.95 98.2 59.3 98.55 58.95 98.95 58.55 99.45 58.4 L100.6 58.2 101.6 58.15 102.4 57.65 103.3 56.45 104.1 55.1 104.4 54.1 Q104.4 53.5 103.45 52.9 104.15 52.15 104.0 50.7 L103.95 33.15 Q104.25 31.15 103.95 28.95 103.6 26.9 103.6 24.65 103.6 22.6 102.75 20.75 101.85 18.95 99.8 17.7 L100.5 16.7 Q100.9 16.3 101.25 16.3 L104.45 16.8 105.0 16.9 105.5 16.75 105.75 16.7 106.0 16.95 106.05 16.9 125.2 16.6 126.65 17.0 128.85 17.95 130.85 19.2 Q131.7 19.8 131.7 20.4 L132.65 21.75 133.5 23.7 134.1 25.7 134.35 27.2 Q134.35 29.1 133.5 30.9 132.55 32.7 131.2 34.05 129.95 35.3 127.95 36.55 125.95 37.7 124.2 38.25 L124.5 39.2 126.35 41.25 127.05 42.6 127.25 43.8 133.05 51.3 133.65 52.1 134.95 53.9 136.7 55.45 138.05 56.7 Q138.05 57.1 138.75 57.55 L140.4 58.4 142.35 59.05 143.75 59.35 143.15 60.75 Q142.7 61.3 141.95 61.3 L138.05 60.85 134.1 60.45 129.5 60.95 124.95 61.45 124.1 61.25 123.45 60.65 Q123.45 59.9 123.95 59.45 L125.35 58.85 127.0 58.45 128.35 57.85 127.75 56.7 127.15 55.85 125.9 54.3 124.85 52.75 124.55 52.2 124.0 51.5 Q121.7 48.95 121.1 47.7 L121.2 47.6 119.8 45.7 117.25 42.5 115.15 40.25 113.75 39.4 112.3 39.35 112.3 39.4 112.45 42.2 Q112.6 43.6 112.25 44.3 L112.7 46.4 112.85 48.8 112.75 53.4 Q112.85 55.7 113.35 57.2 113.8 58.7 115.5 58.7 L115.95 58.6 116.45 58.5 Q116.85 58.5 117.3 58.8 L117.95 59.5 117.95 60.65 117.15 60.85 114.4 61.1 111.2 60.6 108.0 60.1 101.15 60.75 Q99.7 61.1 99.15 61.4" fill="#000000" fill-rule="evenodd" stroke="none"/>
      <path d="M43.7 -41.15 L45.15 -40.75 47.35 -39.8 49.3 -38.55 Q50.2 -37.85 50.2 -37.35 L51.15 -36.0 52.0 -34.05 52.6 -32.05 52.85 -30.55 Q52.85 -28.6 52.0 -26.8 51.05 -24.95 49.65 -23.7 48.15 -22.2 46.45 -21.2 44.55 -20.1 42.7 -19.45 L43.0 -18.55 43.85 -17.7 44.8 -16.5 45.55 -15.1 45.7 -13.95 53.45 -3.85 55.2 -2.25 56.55 -1.05 Q56.55 -0.55 57.25 -0.2 L58.9 0.65 60.8 1.3 62.2 1.6 61.65 3.0 Q61.25 3.55 60.4 3.55 L56.55 3.15 52.6 2.7 47.95 3.2 43.45 3.7 42.6 3.5 41.9 2.9 Q41.9 2.15 42.45 1.75 42.95 1.35 43.85 1.1 L45.5 0.7 Q46.35 0.55 46.8 0.1 L46.2 -1.05 45.65 -1.9 Q43.65 -4.35 43.35 -4.95 L43.05 -5.5 42.5 -6.25 40.9 -8.15 39.6 -10.05 39.7 -10.15 38.3 -12.0 35.75 -15.25 33.65 -17.5 Q32.8 -18.3 32.25 -18.3 L30.95 -18.4 30.8 -18.4 30.8 -18.3 30.95 -15.55 Q31.1 -14.15 30.75 -13.45 L31.15 -11.35 31.3 -8.95 31.25 -4.35 Q31.3 -2.15 31.8 -0.55 32.35 0.95 34.0 0.95 L34.45 0.85 34.9 0.75 Q35.4 0.75 35.8 1.1 L36.45 1.75 36.45 2.9 35.65 3.15 32.9 3.35 29.7 2.85 26.5 2.35 22.15 2.65 19.6 3.05 Q18.35 3.3 17.65 3.65 16.7 3.05 16.7 2.2 16.7 1.55 17.05 1.2 17.45 0.8 17.95 0.65 L19.05 0.45 20.1 0.4 20.85 -0.1 21.8 -1.3 22.55 -2.65 22.9 -3.65 Q22.9 -4.25 21.95 -4.85 22.6 -5.55 22.5 -7.0 L22.4 -9.4 22.2 -21.0 22.45 -24.6 Q22.75 -26.7 22.4 -28.8 22.1 -30.95 22.1 -33.1 22.1 -35.1 21.25 -36.95 20.35 -38.75 18.3 -40.05 L18.95 -41.05 Q19.45 -41.45 19.7 -41.45 L22.95 -40.95 23.5 -40.8 23.95 -41.0 24.25 -41.05 24.45 -40.8 24.55 -40.85 25.65 -40.95 26.8 -41.0 43.7 -41.15 M44.25 -30.35 Q43.55 -30.7 43.75 -31.3 L44.0 -31.8 44.15 -32.35 43.6 -33.75 Q43.0 -34.6 43.0 -35.25 L40.4 -36.7 38.35 -37.8 36.05 -38.5 32.95 -38.75 31.7 -38.45 30.4 -38.0 30.35 -36.95 30.9 -30.8 30.9 -28.3 Q30.85 -27.15 30.4 -26.55 L30.85 -25.15 30.6 -23.8 30.15 -22.5 Q29.95 -21.85 30.15 -21.2 L34.85 -21.5 39.0 -22.2 Q40.75 -22.85 41.75 -23.85 42.85 -25.0 43.4 -26.55 44.05 -28.2 44.25 -30.35" fill="#000000" fill-rule="evenodd" stroke="none"/>
    </g>
  </defs>
</svg>
