<?xml version="1.0" encoding="UTF-8" standalone="no"?>
<svg xmlns:xlink="http://www.w3.org/1999/xlink" height="300.0px" width="300.0px" xmlns="http://www.w3.org/2000/svg">
  <g transform="matrix(1.0, 0.0, 0.0, 1.0, 0.0, 0.0)">
    <use height="192.0" transform="matrix(0.504, 0.0, 0.0, 0.504, 3.7627, 111.7177)" width="583.75" xlink:href="#sprite0"/>
    <use height="20.4" transform="matrix(0.504, 0.0, 0.0, 0.504, 32.4641, 249.3094)" width="470.0" xlink:href="#sprite2"/>
    <use height="31.15" transform="matrix(1.0, 0.0, 0.0, 1.0, 51.0, 210.2)" width="199.8" xlink:href="#shape4"/>
    <use height="189.9" transform="matrix(0.504, 0.0, 0.0, 0.504, 97.6919, 67.1925)" width="217.5" xlink:href="#sprite3"/>
  </g>
  <defs>
    <g id="sprite0" transform="matrix(1.0, 0.0, 0.0, 1.0, 291.85, 96.0)">
      <use height="192.0" transform="matrix(1.0, 0.0, 0.0, 1.0, -291.85, -96.0)" width="583.75" xlink:href="#shape0"/>
      <use height="184.0" transform="matrix(1.0, 0.0, 0.0, 1.0, -287.85, -92.0)" width="575.75" xlink:href="#sprite1"/>
      <use height="175.35" transform="matrix(1.0, 0.0, 0.0, 1.0, -283.5, -87.7)" width="567.1" xlink:href="#shape2"/>
    </g>
    <g id="shape0" transform="matrix(1.0, 0.0, 0.0, 1.0, 291.85, 96.0)">
      <path d="M-165.2 -65.75 Q-174.8 -62.4 -183.05 -55.25 -191.3 -48.2 -195.85 -39.45 L-190.15 -44.1 Q-187.35 -46.55 -184.35 -46.7 L-183.75 -46.7 Q-181.05 -46.7 -178.75 -45.3 -176.45 -43.95 -175.2 -41.55 -173.4 -38.2 -174.1 -33.95 -175.4 -26.25 -184.0 -13.6 -195.5 3.45 -213.3 5.2 L-214.65 5.3 Q-219.15 5.3 -223.55 3.05 -228.85 0.3 -231.85 -4.85 L-233.4 -8.2 Q-236.2 0.3 -236.55 7.65 -236.85 14.5 -235.4 20.0 -233.9 25.5 -230.95 28.6 -227.25 32.5 -221.2 32.5 -216.4 32.5 -210.35 30.05 -196.05 24.1 -179.2 1.0 -163.4 -20.6 -154.95 -43.35 -151.7 -52.4 -152.1 -58.65 -152.35 -62.45 -153.8 -64.5 -155.4 -66.9 -159.3 -66.9 -161.9 -66.9 -165.2 -65.75 M187.45 -11.95 Q193.1 -18.0 195.55 -19.65 200.15 -22.75 204.8 -22.75 207.65 -22.75 210.0 -21.5 212.35 -20.25 213.75 -17.95 217.0 -12.85 213.75 -6.05 210.0 1.85 187.9 28.4 L207.5 7.85 227.05 -12.55 Q233.65 -19.2 236.35 -20.95 241.3 -24.35 246.3 -24.35 249.15 -24.35 251.55 -23.05 253.95 -21.75 255.35 -19.45 258.55 -14.2 254.85 -7.35 250.5 0.85 226.25 28.0 228.35 26.8 231.75 25.1 237.2 22.35 243.85 20.8 250.55 19.25 257.0 19.25 269.6 19.25 273.75 25.8 275.6 28.85 275.8 32.15 279.5 31.4 282.6 32.9 285.7 34.35 287.1 37.45 288.25 40.1 287.75 42.9 287.2 45.7 285.1 48.0 276.45 57.3 265.35 65.6 243.5 81.95 226.25 82.15 L225.75 82.15 Q219.75 82.15 214.95 80.0 210.25 77.85 207.15 73.85 200.4 78.25 191.6 81.1 187.1 82.55 182.8 82.55 178.0 82.55 173.75 80.8 169.5 79.05 166.5 75.8 160.95 79.35 155.5 81.15 151.4 82.5 147.25 82.5 142.15 82.5 137.7 80.45 133.35 78.35 130.4 74.6 122.2 80.35 115.1 81.8 L110.05 82.3 Q103.0 82.3 97.6 78.45 92.85 75.1 90.9 70.1 83.3 76.15 76.05 79.95 70.95 82.65 66.2 82.65 61.1 82.65 57.2 79.7 53.35 76.75 51.45 71.45 45.05 77.15 39.5 80.15 33.85 83.2 26.45 83.2 L19.7 82.55 15.25 81.3 13.4 80.5 Q7.35 77.9 4.05 73.45 -6.15 81.3 -13.75 82.6 L-17.95 82.95 -22.55 82.45 -25.7 81.45 -27.3 80.8 Q-33.85 77.45 -35.95 70.05 L-36.15 69.3 -42.8 77.55 Q-47.5 82.85 -53.7 82.85 -56.9 82.85 -59.9 81.35 -62.9 79.8 -65.25 77.0 -76.25 84.05 -86.85 84.05 L-87.4 84.05 Q-95.15 83.9 -100.5 79.8 -105.8 75.7 -107.65 68.6 -116.7 76.65 -122.3 79.85 -129.8 84.05 -139.05 84.9 L-141.6 85.05 Q-151.45 85.05 -158.3 78.45 -168.4 83.95 -177.95 83.95 -182.2 83.95 -185.8 82.75 -190.3 81.35 -193.45 78.1 -196.6 74.9 -197.85 70.55 L-198.45 67.7 -200.8 69.8 Q-212.75 80.35 -225.65 86.2 -238.5 92.0 -249.95 92.0 -260.95 92.0 -269.35 86.6 -277.75 81.2 -282.45 71.1 L-282.5 70.95 Q-291.55 50.5 -285.3 24.35 -279.0 -1.75 -257.95 -31.55 -241.0 -55.25 -222.25 -69.15 -212.05 -76.75 -199.65 -82.05 L-198.45 -82.6 -198.3 -82.65 Q-192.5 -85.1 -189.5 -85.1 -186.4 -85.1 -184.1 -83.4 -176.55 -87.2 -168.9 -89.5 -162.35 -91.45 -157.05 -91.9 L-154.4 -92.0 Q-146.9 -92.0 -140.4 -88.35 -133.9 -84.75 -129.85 -78.3 -124.55 -69.9 -124.45 -58.6 -124.25 -43.7 -133.15 -25.0 -145.0 1.15 -159.4 22.45 -156.7 21.15 -154.8 20.55 -151.25 19.5 -148.3 19.5 -144.8 19.5 -142.05 20.95 -139.3 22.4 -137.75 25.05 -136.1 27.75 -136.3 31.05 -122.95 20.55 -114.25 20.55 -110.0 20.55 -107.1 22.95 -101.65 20.5 -96.35 20.25 L-95.7 20.25 Q-91.75 20.25 -88.45 22.1 -85.1 23.95 -83.15 27.2 L-82.75 28.0 Q-79.7 26.25 -77.35 25.05 -72.65 22.6 -67.35 21.3 -62.05 19.95 -57.15 19.95 -49.65 19.95 -45.15 22.9 -41.95 25.0 -40.55 28.35 -36.4 24.75 -33.15 22.95 -29.65 21.05 -25.95 20.55 -23.05 20.15 -20.45 21.0 -17.85 21.85 -16.05 23.8 -6.3 19.05 1.1 19.05 4.0 19.05 6.1 19.75 9.6 20.85 12.2 23.55 14.75 26.2 15.75 29.9 16.35 31.95 16.35 34.0 L21.4 29.55 Q21.7 25.7 23.25 22.3 28.55 11.05 37.45 9.5 L40.35 9.25 Q46.9 9.25 50.75 13.9 54.55 18.4 53.45 24.75 52.45 30.35 46.65 34.95 L47.95 37.15 51.15 43.05 52.35 42.2 Q53.15 40.15 55.35 36.15 61.2 25.45 67.25 21.8 70.25 20.0 73.15 20.0 77.0 20.0 79.75 22.65 L81.2 21.45 Q85.6 18.15 91.1 18.15 96.8 18.15 101.4 21.7 106.6 25.7 108.2 32.8 L108.4 32.5 108.4 33.25 Q112.6 28.7 115.8 26.35 120.05 23.35 123.0 22.2 123.0 19.1 124.05 15.95 125.1 12.85 126.85 10.45 129.75 6.45 134.25 3.75 139.3 0.7 144.45 0.7 L147.95 1.05 Q151.25 1.8 153.65 3.9 156.05 6.0 157.15 9.05 158.45 12.9 157.45 17.25 156.4 21.6 153.25 25.45 151.0 28.25 147.65 30.4 144.35 32.5 140.75 33.5 140.3 36.45 137.8 40.45 146.75 33.55 160.85 17.8 L170.35 7.1 187.45 -11.95" fill="#cccccc" fill-rule="evenodd" stroke="none"/>
      <path d="M187.45 -11.95 L170.35 7.1 160.85 17.8 Q146.75 33.55 137.8 40.45 140.3 36.45 140.75 33.5 144.35 32.5 147.65 30.4 151.0 28.25 153.25 25.45 156.4 21.6 157.45 17.25 158.45 12.9 157.15 9.05 156.05 6.0 153.65 3.9 151.25 1.8 147.95 1.05 L144.45 0.7 Q139.3 0.7 134.25 3.75 129.75 6.45 126.85 10.45 125.1 12.85 124.05 15.95 123.0 19.1 123.0 22.2 120.05 23.35 115.8 26.35 112.6 28.7 108.4 33.25 L108.4 32.5 108.2 32.8 Q106.6 25.7 101.4 21.7 96.8 18.15 91.1 18.15 85.6 18.15 81.2 21.45 L79.75 22.65 Q77.0 20.0 73.15 20.0 70.25 20.0 67.25 21.8 61.2 25.45 55.35 36.15 53.15 40.15 52.35 42.2 L51.15 43.05 47.95 37.15 46.65 34.95 Q52.45 30.35 53.45 24.75 54.55 18.4 50.75 13.9 46.9 9.25 40.35 9.25 L37.45 9.5 Q28.55 11.05 23.25 22.3 21.7 25.7 21.4 29.55 L16.35 34.0 Q16.35 31.95 15.75 29.9 14.75 26.2 12.2 23.55 9.6 20.85 6.1 19.75 4.0 19.05 1.1 19.05 -6.3 19.05 -16.05 23.8 -17.85 21.85 -20.45 21.0 -23.05 20.15 -25.95 20.55 -29.65 21.05 -33.15 22.95 -36.4 24.75 -40.55 28.35 -41.95 25.0 -45.15 22.9 -49.65 19.95 -57.15 19.95 -62.05 19.95 -67.35 21.3 -72.65 22.6 -77.35 25.05 -79.7 26.25 -82.75 28.0 L-83.15 27.2 Q-85.1 23.95 -88.45 22.1 -91.75 20.25 -95.7 20.25 L-96.35 20.25 Q-101.65 20.5 -107.1 22.95 -110.0 20.55 -114.25 20.55 -122.95 20.55 -136.3 31.05 -136.1 27.75 -137.75 25.05 -139.3 22.4 -142.05 20.95 -144.8 19.5 -148.3 19.5 -151.25 19.5 -154.8 20.55 -156.7 21.15 -159.4 22.45 -145.0 1.15 -133.15 -25.0 -124.25 -43.7 -124.45 -58.6 -124.55 -69.9 -129.85 -78.3 -133.9 -84.75 -140.4 -88.35 -146.9 -92.0 -154.4 -92.0 L-157.05 -91.9 Q-162.35 -91.45 -168.9 -89.5 -176.55 -87.2 -184.1 -83.4 -186.4 -85.1 -189.5 -85.1 -192.5 -85.1 -198.3 -82.65 L-198.45 -82.6 -199.65 -82.05 Q-212.05 -76.75 -222.25 -69.15 -241.0 -55.25 -257.95 -31.55 -279.0 -1.75 -285.3 24.35 -291.55 50.5 -282.5 70.95 L-282.45 71.1 Q-277.75 81.2 -269.35 86.6 -260.95 92.0 -249.95 92.0 -238.5 92.0 -225.65 86.2 -212.75 80.35 -200.8 69.8 L-198.45 67.7 -197.85 70.55 Q-196.6 74.9 -193.45 78.1 -190.3 81.35 -185.8 82.75 -182.2 83.95 -177.95 83.95 -168.4 83.95 -158.3 78.45 -151.45 85.05 -141.6 85.05 L-139.05 84.9 Q-129.8 84.05 -122.3 79.85 -116.7 76.65 -107.65 68.6 -105.8 75.7 -100.5 79.8 -95.15 83.9 -87.4 84.05 L-86.85 84.05 Q-76.25 84.05 -65.25 77.0 -62.9 79.8 -59.9 81.35 -56.9 82.85 -53.7 82.85 -47.5 82.85 -42.8 77.55 L-36.15 69.3 -35.95 70.05 Q-33.85 77.45 -27.3 80.8 L-25.7 81.45 -22.55 82.45 -17.95 82.95 -13.75 82.6 Q-6.15 81.3 4.05 73.45 7.35 77.9 13.4 80.5 L15.25 81.3 19.7 82.55 26.45 83.2 Q33.85 83.2 39.5 80.15 45.05 77.15 51.45 71.45 53.35 76.75 57.2 79.7 61.1 82.65 66.2 82.65 70.95 82.65 76.05 79.95 83.3 76.15 90.9 70.1 92.85 75.1 97.6 78.45 103.0 82.3 110.05 82.3 L115.1 81.8 Q122.2 80.35 130.4 74.6 133.35 78.35 137.7 80.45 142.15 82.5 147.25 82.5 151.4 82.5 155.5 81.15 160.95 79.35 166.5 75.8 169.5 79.05 173.75 80.8 178.0 82.55 182.8 82.55 187.1 82.55 191.6 81.1 200.4 78.25 207.15 73.85 210.25 77.85 214.95 80.0 219.75 82.15 225.75 82.15 L226.25 82.15 Q243.5 81.95 265.35 65.6 276.45 57.3 285.1 48.0 287.2 45.7 287.75 42.9 288.25 40.1 287.1 37.45 285.7 34.35 282.6 32.9 279.5 31.4 275.8 32.15 275.6 28.85 273.75 25.8 269.6 19.25 257.0 19.25 250.55 19.25 243.85 20.8 237.2 22.35 231.75 25.1 228.35 26.8 226.25 28.0 250.5 0.85 254.85 -7.35 258.55 -14.2 255.35 -19.45 253.95 -21.75 251.55 -23.05 249.15 -24.35 246.3 -24.35 241.3 -24.35 236.35 -20.95 233.65 -19.2 227.05 -12.55 L207.5 7.85 187.9 28.4 Q210.0 1.85 213.75 -6.05 217.0 -12.85 213.75 -17.95 212.35 -20.25 210.0 -21.5 207.65 -22.75 204.8 -22.75 200.15 -22.75 195.55 -19.65 193.1 -18.0 187.45 -11.95 M-165.2 -65.75 Q-161.9 -66.9 -159.3 -66.9 -155.4 -66.9 -153.8 -64.5 -152.35 -62.45 -152.1 -58.65 -151.7 -52.4 -154.95 -43.35 -163.4 -20.6 -179.2 1.0 -196.05 24.1 -210.35 30.05 -216.4 32.5 -221.2 32.5 -227.25 32.5 -230.95 28.6 -233.9 25.5 -235.4 20.0 -236.85 14.5 -236.55 7.65 -236.2 0.3 -233.4 -8.2 L-231.85 -4.85 Q-228.85 0.3 -223.55 3.05 -219.15 5.3 -214.65 5.3 L-213.3 5.2 Q-195.5 3.45 -184.0 -13.6 -175.4 -26.25 -174.1 -33.95 -173.4 -38.2 -175.2 -41.55 -176.45 -43.95 -178.75 -45.3 -181.05 -46.7 -183.75 -46.7 L-184.35 -46.7 Q-187.35 -46.55 -190.15 -44.1 L-195.85 -39.45 Q-191.3 -48.2 -183.05 -55.25 -174.8 -62.4 -165.2 -65.75" fill="none" stroke="#cccccc" stroke-linecap="round" stroke-linejoin="round" stroke-width="8.0"/>
    </g>
    <g id="sprite1" transform="matrix(1.0, 0.0, 0.0, 1.0, 287.85, 92.0)">
      <use height="184.0" transform="matrix(1.0, 0.0, 0.0, 1.0, -287.85, -92.0)" width="575.75" xlink:href="#shape1"/>
    </g>
    <g id="shape1" transform="matrix(1.0, 0.0, 0.0, 1.0, 287.85, 92.0)">
      <path d="M-165.2 -65.75 Q-174.8 -62.4 -183.05 -55.25 -191.3 -48.2 -195.85 -39.45 L-190.15 -44.1 Q-187.35 -46.55 -184.35 -46.7 L-183.75 -46.7 Q-181.05 -46.7 -178.75 -45.3 -176.45 -43.95 -175.2 -41.55 -173.4 -38.2 -174.1 -33.95 -175.4 -26.25 -184.0 -13.6 -195.5 3.45 -213.3 5.2 L-214.65 5.3 Q-219.15 5.3 -223.55 3.05 -228.85 0.3 -231.85 -4.85 L-233.4 -8.2 Q-236.2 0.3 -236.55 7.65 -236.85 14.5 -235.4 20.0 -233.9 25.5 -230.95 28.6 -227.25 32.5 -221.2 32.5 -216.4 32.5 -210.35 30.05 -196.05 24.1 -179.2 1.0 -163.4 -20.6 -154.95 -43.35 -151.7 -52.4 -152.1 -58.65 -152.35 -62.45 -153.8 -64.5 -155.4 -66.9 -159.3 -66.9 -161.9 -66.9 -165.2 -65.75 M187.45 -11.95 Q193.1 -18.0 195.55 -19.65 200.15 -22.75 204.8 -22.75 207.65 -22.75 210.0 -21.5 212.35 -20.25 213.75 -17.95 217.0 -12.85 213.75 -6.05 210.0 1.85 187.9 28.4 L207.5 7.85 227.05 -12.55 Q233.65 -19.2 236.35 -20.95 241.3 -24.35 246.3 -24.35 249.15 -24.35 251.55 -23.05 253.95 -21.75 255.35 -19.45 258.55 -14.2 254.85 -7.35 250.5 0.85 226.25 28.0 228.35 26.8 231.75 25.1 237.2 22.35 243.85 20.8 250.55 19.25 257.0 19.25 269.6 19.25 273.75 25.8 275.6 28.85 275.8 32.15 279.5 31.4 282.6 32.9 285.7 34.35 287.1 37.45 288.25 40.1 287.75 42.9 287.2 45.7 285.1 48.0 276.45 57.3 265.35 65.6 243.5 81.95 226.25 82.15 L225.75 82.15 Q219.75 82.15 214.95 80.0 210.25 77.85 207.15 73.85 200.4 78.25 191.6 81.1 187.1 82.55 182.8 82.55 178.0 82.55 173.75 80.8 169.5 79.05 166.5 75.8 160.95 79.35 155.5 81.15 151.4 82.5 147.25 82.5 142.15 82.5 137.7 80.45 133.35 78.35 130.4 74.6 122.2 80.35 115.1 81.8 L110.05 82.3 Q103.0 82.3 97.6 78.45 92.85 75.1 90.9 70.1 83.3 76.15 76.05 79.95 70.95 82.65 66.2 82.65 61.1 82.65 57.2 79.7 53.35 76.75 51.45 71.45 45.05 77.15 39.5 80.15 33.85 83.2 26.45 83.2 L19.7 82.55 15.25 81.3 13.4 80.5 Q7.35 77.9 4.05 73.45 -6.15 81.3 -13.75 82.6 L-17.95 82.95 -22.55 82.45 -25.7 81.45 -27.3 80.8 Q-33.85 77.45 -35.95 70.05 L-36.15 69.3 -42.8 77.55 Q-47.5 82.85 -53.7 82.85 -56.9 82.85 -59.9 81.35 -62.9 79.8 -65.25 77.0 -76.25 84.05 -86.85 84.05 L-87.4 84.05 Q-95.15 83.9 -100.5 79.8 -105.8 75.7 -107.65 68.6 -116.7 76.65 -122.3 79.85 -129.8 84.05 -139.05 84.9 L-141.6 85.05 Q-151.45 85.05 -158.3 78.45 -168.4 83.95 -177.95 83.95 -182.2 83.95 -185.8 82.75 -190.3 81.35 -193.45 78.1 -196.6 74.9 -197.85 70.55 L-198.45 67.7 -200.8 69.8 Q-212.75 80.35 -225.65 86.2 -238.5 92.0 -249.95 92.0 -260.95 92.0 -269.35 86.6 -277.75 81.2 -282.45 71.1 L-282.5 70.95 Q-291.55 50.5 -285.3 24.35 -279.0 -1.75 -257.95 -31.55 -241.0 -55.25 -222.25 -69.15 -212.05 -76.75 -199.65 -82.05 L-198.45 -82.6 -198.3 -82.65 Q-192.5 -85.1 -189.5 -85.1 -186.4 -85.1 -184.1 -83.4 -176.55 -87.2 -168.9 -89.5 -162.35 -91.45 -157.05 -91.9 L-154.4 -92.0 Q-146.9 -92.0 -140.4 -88.35 -133.9 -84.75 -129.85 -78.3 -124.55 -69.9 -124.45 -58.6 -124.25 -43.7 -133.15 -25.0 -145.0 1.15 -159.4 22.45 -156.7 21.15 -154.8 20.55 -151.25 19.5 -148.3 19.5 -144.8 19.5 -142.05 20.95 -139.3 22.4 -137.75 25.05 -136.1 27.75 -136.3 31.05 -122.95 20.55 -114.25 20.55 -110.0 20.55 -107.1 22.95 -101.65 20.5 -96.35 20.25 L-95.7 20.25 Q-91.75 20.25 -88.45 22.1 -85.1 23.95 -83.15 27.2 L-82.75 28.0 Q-79.7 26.25 -77.35 25.05 -72.65 22.6 -67.35 21.3 -62.05 19.95 -57.15 19.95 -49.65 19.95 -45.15 22.9 -41.95 25.0 -40.55 28.35 -36.4 24.75 -33.15 22.95 -29.65 21.05 -25.95 20.55 -23.05 20.15 -20.45 21.0 -17.85 21.85 -16.05 23.8 -6.3 19.05 1.1 19.05 4.0 19.05 6.1 19.75 9.6 20.85 12.2 23.55 14.75 26.2 15.75 29.9 16.35 31.95 16.35 34.0 L21.4 29.55 Q21.7 25.7 23.25 22.3 28.55 11.05 37.45 9.5 L40.35 9.25 Q46.9 9.25 50.75 13.9 54.55 18.4 53.45 24.75 52.45 30.35 46.65 34.95 L47.95 37.15 51.15 43.05 52.35 42.2 Q53.15 40.15 55.35 36.15 61.2 25.45 67.25 21.8 70.25 20.0 73.15 20.0 77.0 20.0 79.75 22.65 L81.2 21.45 Q85.6 18.15 91.1 18.15 96.8 18.15 101.4 21.7 106.6 25.7 108.2 32.8 L108.4 32.5 108.4 33.25 Q112.6 28.7 115.8 26.35 120.05 23.35 123.0 22.2 123.0 19.1 124.05 15.95 125.1 12.85 126.85 10.45 129.75 6.45 134.25 3.75 139.3 0.7 144.45 0.7 L147.95 1.05 Q151.25 1.8 153.65 3.9 156.05 6.0 157.15 9.05 158.45 12.9 157.45 17.25 156.4 21.6 153.25 25.45 151.0 28.25 147.65 30.4 144.35 32.5 140.75 33.5 140.3 36.45 137.8 40.45 146.75 33.55 160.85 17.8 L170.35 7.1 187.45 -11.95" fill="#ffffff" fill-rule="evenodd" stroke="none"/>
    </g>
    <g id="shape2" transform="matrix(1.0, 0.0, 0.0, 1.0, 283.5, 87.7)">
      <path d="M-166.65 -69.85 Q-179.1 -65.4 -188.75 -55.95 -196.85 -48.0 -200.95 -38.75 -202.6 -35.0 -202.9 -32.5 -203.0 -31.15 -202.75 -30.6 L-202.3 -30.55 -201.1 -30.75 Q-198.1 -31.8 -187.4 -40.8 L-185.9 -41.9 -184.1 -42.4 -183.75 -42.4 Q-180.5 -42.4 -179.0 -39.55 -175.75 -33.45 -187.55 -16.0 -197.85 -0.65 -213.7 0.95 L-214.65 0.95 Q-218.25 0.95 -221.8 -0.95 -225.85 -3.15 -228.1 -7.0 -233.6 -16.5 -226.7 -32.6 -232.85 -22.5 -236.5 -12.45 -240.45 -1.6 -240.85 7.45 -241.2 15.25 -239.45 21.55 -237.7 27.75 -234.05 31.6 -229.05 36.8 -221.2 36.8 -215.55 36.8 -208.7 34.05 -193.25 27.65 -175.75 3.75 -159.6 -18.25 -150.85 -41.9 -147.95 -50.1 -147.75 -56.7 -147.6 -63.25 -150.25 -67.0 -153.15 -71.2 -159.3 -71.2 -162.75 -71.2 -166.65 -69.85 M90.55 39.8 L90.15 38.1 Q89.85 38.3 89.7 38.65 89.4 39.25 89.35 40.65 89.35 42.4 89.9 43.85 L90.1 44.35 Q90.75 42.15 90.55 39.8 M238.0 55.75 L239.1 55.85 Q243.4 55.85 251.0 52.1 245.05 54.45 238.0 55.75 M243.1 41.35 Q248.75 39.4 252.95 35.75 249.55 36.15 245.95 37.9 242.65 39.55 240.1 42.35 L243.1 41.35 M189.6 -7.9 Q195.75 -14.55 197.95 -16.05 201.4 -18.45 204.8 -18.45 208.4 -18.45 210.1 -15.65 212.15 -12.55 209.85 -7.9 206.3 -0.4 183.9 26.45 163.1 51.4 160.3 55.2 L159.9 56.0 160.05 56.0 Q162.6 55.8 164.8 54.95 166.9 54.1 169.3 52.45 L173.1 49.2 177.65 44.7 Q188.7 33.9 201.3 20.65 L210.65 10.8 228.95 -8.35 Q236.25 -15.75 238.7 -17.4 242.75 -20.05 246.3 -20.05 249.95 -20.05 251.65 -17.25 253.5 -14.05 251.05 -9.4 246.95 -1.6 222.15 26.15 199.9 51.1 196.65 55.35 L196.3 55.95 196.6 55.95 Q200.0 55.55 202.6 54.35 205.3 53.1 208.9 50.1 213.35 42.75 219.6 37.7 224.75 33.45 233.7 28.9 239.15 26.15 246.0 24.75 251.75 23.55 257.0 23.55 267.2 23.55 270.1 28.1 272.25 31.65 271.2 35.5 270.35 38.75 267.3 41.9 L270.55 39.45 Q274.65 36.2 278.25 36.2 279.9 36.2 281.25 37.0 282.5 37.8 283.15 39.2 284.5 42.25 281.9 45.1 274.3 53.35 263.65 61.5 242.35 77.65 226.2 77.85 L225.75 77.85 Q219.5 77.85 215.0 75.2 210.6 72.6 208.4 67.65 200.8 73.6 190.25 77.0 186.5 78.2 182.8 78.2 178.4 78.2 174.6 76.45 170.85 74.7 168.45 71.5 L167.45 69.9 Q160.85 74.9 154.15 77.05 150.8 78.15 147.25 78.15 142.85 78.15 139.2 76.3 135.5 74.5 133.2 71.15 132.3 69.85 131.65 68.2 122.2 75.95 114.25 77.55 L110.05 78.0 Q104.1 78.0 99.75 74.75 95.85 71.85 94.65 67.75 93.9 65.45 93.9 62.7 L93.15 62.7 92.8 62.65 Q89.55 65.95 83.95 69.95 78.55 73.8 74.05 76.15 69.8 78.35 66.2 78.35 62.1 78.35 59.2 75.75 56.25 73.15 55.0 68.4 54.35 65.8 54.1 62.95 44.7 72.45 37.45 76.35 32.65 78.9 26.45 78.9 20.1 78.9 14.6 76.4 8.4 73.55 6.05 68.5 L5.4 66.85 Q-6.95 77.15 -14.45 78.3 L-17.95 78.6 Q-23.25 78.6 -26.85 76.05 -30.5 73.5 -31.85 68.85 -33.2 64.1 -29.6 57.65 -27.05 53.0 -21.25 46.6 L-22.0 47.15 Q-27.15 51.2 -42.1 69.85 L-46.1 74.7 Q-49.4 78.55 -53.7 78.55 -56.35 78.55 -58.85 77.0 -61.3 75.45 -63.15 72.6 L-64.05 70.9 Q-75.65 79.75 -86.85 79.75 L-87.3 79.75 Q-94.75 79.6 -99.2 75.2 -103.65 70.8 -104.15 63.15 L-104.25 61.75 -106.2 61.5 -107.25 62.45 Q-118.2 72.35 -123.05 75.3 -130.25 79.8 -139.45 80.65 L-141.6 80.75 Q-151.4 80.75 -157.4 72.95 -162.3 76.1 -167.75 77.85 -173.2 79.65 -177.95 79.65 -181.35 79.65 -184.45 78.7 -188.0 77.55 -190.35 75.15 -192.75 72.75 -193.7 69.4 L-194.05 68.0 -194.25 65.5 -194.25 64.8 -194.25 64.35 -193.9 61.6 -193.8 61.25 -193.1 58.7 -193.05 58.6 -191.3 54.85 -203.65 66.6 Q-215.05 76.65 -227.15 82.15 -239.25 87.65 -249.95 87.65 -259.75 87.65 -267.05 83.0 -274.35 78.3 -278.55 69.3 L-278.55 69.2 Q-287.1 49.85 -280.95 24.8 -274.8 -0.2 -254.4 -29.05 -237.95 -52.1 -219.8 -65.6 -209.95 -72.9 -197.95 -78.1 L-196.7 -78.65 Q-191.6 -80.8 -189.5 -80.8 -188.0 -80.8 -186.85 -80.05 -185.65 -79.3 -185.1 -78.05 -177.2 -82.4 -169.05 -84.95 -162.15 -87.15 -156.6 -87.6 L-154.4 -87.7 Q-148.05 -87.7 -142.5 -84.6 -136.95 -81.5 -133.45 -76.0 -128.7 -68.45 -128.7 -58.0 -128.7 -44.3 -137.05 -26.75 L-147.95 -4.85 -161.3 17.45 -168.8 28.25 -169.1 28.65 Q-173.95 35.2 -177.5 39.4 L-175.85 38.1 -175.8 38.05 -172.5 35.55 -172.4 35.45 -169.1 33.1 -169.0 33.05 -167.45 32.0 -167.35 31.95 -165.75 30.9 -165.7 30.85 -164.25 30.0 -164.05 29.85 -158.3 26.65 -158.0 26.55 -157.05 26.1 -156.8 25.95 -155.7 25.5 -155.5 25.4 -153.55 24.7 Q-150.6 23.8 -148.3 23.8 -143.5 23.8 -141.45 27.2 -139.45 30.8 -142.0 35.35 -143.7 38.45 -146.2 41.1 L-153.8 48.5 -156.5 51.05 Q-160.15 54.5 -161.05 56.05 L-158.65 56.3 -155.45 55.9 -151.05 50.9 Q-144.0 43.3 -136.7 36.95 -129.95 31.2 -124.05 28.0 -118.2 24.85 -114.25 24.85 -110.6 24.85 -108.85 27.3 -108.35 27.9 -108.15 28.4 -102.05 24.8 -96.15 24.55 L-95.7 24.55 Q-92.95 24.55 -90.6 25.85 -88.25 27.15 -86.85 29.45 -85.45 31.8 -85.45 34.8 -81.55 32.15 -75.35 28.85 -71.1 26.65 -66.35 25.45 -61.55 24.25 -57.15 24.25 -51.8 24.25 -48.4 26.0 -45.05 27.75 -44.25 30.9 -43.35 34.65 -44.85 38.3 L-43.1 36.65 Q-36.65 30.35 -32.85 27.85 -29.1 25.35 -25.35 24.8 -23.0 24.5 -21.1 25.4 -19.15 26.35 -18.2 28.2 L-17.7 29.55 Q-6.8 23.35 1.1 23.35 L4.8 23.85 Q7.3 24.6 9.1 26.5 10.9 28.45 11.6 31.05 12.45 34.1 11.6 37.3 10.8 40.45 8.45 43.05 L7.2 44.45 Q-0.75 53.15 -3.1 57.0 L-2.55 56.6 16.05 40.05 25.65 31.6 Q25.65 27.45 27.2 24.15 31.4 14.95 38.2 13.75 L43.45 14.05 Q45.9 14.8 47.45 16.65 49.95 19.7 49.2 24.0 48.3 28.75 41.9 33.05 L42.15 35.25 Q42.25 35.95 44.25 39.4 47.3 44.25 48.35 47.75 L49.0 50.35 Q51.65 47.95 55.9 44.95 57.1 41.9 59.1 38.25 64.4 28.55 69.5 25.5 71.4 24.3 73.15 24.3 75.7 24.3 77.3 26.35 78.65 28.25 78.4 31.15 80.45 27.45 83.85 24.9 87.1 22.45 91.1 22.45 95.9 22.45 99.6 25.85 103.75 29.7 104.4 36.4 104.75 40.45 103.95 44.2 L109.45 38.45 Q115.2 32.1 118.3 29.85 124.65 25.25 129.05 25.25 127.65 22.75 128.1 19.2 128.55 15.45 130.75 12.45 132.8 9.6 136.0 7.7 139.65 5.5 143.3 5.5 L145.8 5.75 Q148.15 6.3 149.9 7.8 151.6 9.3 152.35 11.5 153.3 14.2 152.55 17.3 151.8 20.4 149.6 23.15 147.3 25.95 143.75 27.75 140.2 29.5 136.8 29.5 L136.2 29.5 136.45 30.45 Q136.95 32.8 135.55 35.65 134.65 37.55 131.15 42.75 L127.05 48.9 Q123.5 54.05 122.9 55.7 126.05 54.8 134.95 48.0 L137.1 46.4 Q142.7 42.25 147.0 38.35 153.95 31.95 164.05 20.65 L173.6 9.95 189.6 -7.9" fill="#ffeb00" fill-rule="evenodd" stroke="none"/>
      <path d="M-104.05 37.2 Q-108.75 41.55 -109.6 46.55 -109.95 48.75 -109.25 50.1 -108.6 51.15 -107.55 51.35 -104.8 48.7 -102.0 45.25 -98.5 40.95 -97.95 38.85 -97.3 36.35 -99.35 35.65 -101.5 34.9 -104.05 37.2 M-77.6 48.95 Q-74.05 48.5 -68.35 46.45 -61.8 44.1 -57.25 39.4 -53.3 35.3 -54.25 33.85 -55.2 32.35 -58.15 32.15 -61.9 31.95 -66.7 34.4 -72.15 37.2 -76.6 43.4 -78.85 46.5 -79.95 49.05 L-77.6 48.95 M-168.05 -73.9 Q-180.75 -69.4 -190.9 -59.85 -200.25 -51.05 -204.9 -40.5 -208.85 -31.55 -206.2 -28.0 -204.15 -25.2 -199.75 -26.65 -196.95 -27.65 -190.15 -32.95 L-183.9 -38.1 Q-181.5 -38.3 -183.2 -33.05 -185.1 -27.3 -191.1 -18.45 -200.35 -4.7 -214.15 -3.35 -216.5 -3.15 -219.3 -4.5 -222.9 -6.25 -224.7 -9.75 -229.8 -19.75 -218.3 -39.8 -205.9 -60.7 -185.55 -72.8 -169.85 -82.15 -156.25 -83.3 -150.4 -83.9 -145.0 -81.05 -139.1 -77.9 -135.95 -71.6 -128.05 -55.75 -140.95 -28.6 -166.85 28.3 -206.5 63.35 -226.1 80.65 -245.15 83.05 -266.15 85.7 -274.65 67.45 -282.95 48.6 -276.2 23.6 -269.85 0.2 -250.9 -26.55 -234.1 -50.1 -215.4 -63.45 -207.3 -69.2 -194.9 -74.7 -184.9 -78.9 -191.85 -73.3 L-197.05 -69.6 -204.55 -64.4 Q-219.05 -54.15 -231.4 -33.1 -244.35 -11.0 -245.15 7.25 -246.1 26.85 -235.75 35.9 -225.0 45.35 -207.1 38.0 -190.25 31.0 -171.75 5.4 -155.5 -17.1 -146.85 -40.4 -139.75 -60.2 -147.0 -69.85 -150.25 -74.15 -155.8 -75.2 -161.35 -76.25 -168.05 -73.9 M94.8 39.35 Q94.3 34.1 90.75 33.7 87.45 33.3 85.8 36.8 84.4 39.7 85.4 43.85 86.55 48.95 91.0 50.9 L93.2 48.0 Q95.25 44.1 94.8 39.35 M147.85 14.2 Q148.1 17.05 145.7 20.0 143.25 23.0 139.3 24.1 135.2 25.25 133.65 23.15 132.8 21.95 133.1 19.65 133.45 17.35 134.8 15.4 136.4 13.15 139.0 11.75 142.05 10.05 144.7 10.65 147.6 11.3 147.85 14.2 M256.7 38.1 Q260.95 33.9 259.4 32.65 257.85 31.3 254.05 31.4 249.3 31.45 244.0 34.05 238.15 36.95 234.1 42.95 L231.25 48.4 234.05 48.25 Q238.05 47.65 244.5 45.45 252.0 42.85 256.7 38.1 M227.15 -0.25 Q238.4 -12.0 241.1 -13.8 244.6 -16.1 246.85 -15.7 249.3 -15.25 247.25 -11.45 243.25 -3.95 218.9 23.3 196.7 48.25 193.2 52.75 191.2 55.45 191.9 57.85 192.75 60.65 197.05 60.2 201.3 59.75 204.65 58.15 207.85 56.6 212.2 52.95 216.25 46.1 221.75 41.45 226.8 37.25 235.65 32.75 243.95 28.55 254.45 27.95 264.55 27.35 266.45 30.4 268.35 33.45 265.75 37.1 262.9 41.05 254.95 45.5 248.0 49.3 238.95 51.2 L231.3 52.3 231.4 54.85 Q232.0 57.65 234.6 59.1 240.85 62.7 255.95 54.35 264.5 49.65 273.2 42.85 276.1 40.55 278.2 40.55 280.2 40.5 278.7 42.2 271.9 49.85 260.25 58.6 240.55 73.4 226.15 73.55 217.55 73.7 213.65 68.2 211.2 64.75 210.85 59.4 203.15 68.3 188.95 72.9 183.85 74.55 179.25 73.55 174.6 72.45 171.95 68.9 169.65 65.8 170.25 61.75 167.4 64.6 163.95 67.1 158.35 71.2 152.85 72.95 148.0 74.5 143.7 73.45 139.2 72.3 136.75 68.7 134.65 65.65 135.15 61.7 L136.1 58.3 Q133.1 61.5 128.75 65.0 120.05 72.0 113.4 73.35 107.8 74.45 103.5 72.05 99.8 69.95 98.75 66.5 97.75 63.15 98.65 60.1 L99.75 57.75 Q97.75 58.6 93.35 58.4 L91.2 57.95 Q89.25 60.65 83.15 65.2 77.15 69.7 72.05 72.35 67.0 74.95 63.7 73.55 60.45 72.2 59.2 67.35 58.15 63.4 58.15 57.5 L58.3 52.45 55.0 55.8 47.0 63.8 Q40.55 69.75 35.4 72.55 29.25 75.85 20.9 73.95 12.45 72.05 9.95 66.65 6.05 58.3 14.2 53.7 17.05 52.1 19.7 53.95 22.4 55.8 22.2 59.5 22.05 62.65 19.4 63.35 L16.75 63.4 Q16.9 68.6 22.05 67.2 26.35 66.1 28.75 62.85 30.7 60.25 31.75 55.6 33.35 48.6 30.9 37.95 L30.6 36.75 20.65 46.7 6.05 60.6 Q-7.75 72.85 -15.15 74.05 -19.3 74.75 -22.45 73.55 -26.45 72.0 -27.7 67.65 -28.85 63.55 -23.6 56.25 -21.15 52.85 -13.9 44.95 L-6.6 37.2 Q-3.95 33.95 -6.2 33.1 -8.45 32.2 -14.05 35.85 -16.7 37.6 -24.6 43.75 -29.05 47.2 -38.3 58.35 L-49.35 71.9 Q-51.9 74.85 -54.9 74.1 -57.5 73.45 -59.55 70.25 -61.1 67.85 -60.1 63.8 L-58.75 60.2 Q-62.05 64.05 -67.25 67.9 -77.65 75.6 -87.25 75.45 -97.0 75.25 -99.3 66.5 -100.0 63.75 -99.9 60.5 L-99.55 57.8 -107.6 56.9 -108.55 57.8 Q-120.4 68.45 -124.5 71.15 -131.3 75.55 -139.8 76.35 -147.6 77.05 -152.6 71.95 -154.2 70.35 -155.3 68.35 L-156.05 66.7 Q-162.0 71.55 -169.35 73.9 -177.4 76.45 -183.1 74.6 -189.4 72.55 -189.9 66.2 -190.45 59.45 -183.8 51.55 -177.5 44.05 -166.8 36.75 -157.55 30.45 -152.25 28.8 -147.75 27.4 -145.85 28.7 -143.9 30.0 -145.75 33.2 -147.4 36.15 -150.15 39.0 L-159.5 47.95 Q-162.65 50.95 -164.05 52.8 -165.1 54.2 -165.7 55.8 -166.35 57.65 -165.4 58.7 -164.65 59.55 -162.45 60.15 L-155.8 60.4 -152.85 59.65 -147.85 53.8 Q-141.4 46.7 -133.9 40.25 -125.6 33.15 -119.15 30.4 -113.6 28.05 -112.3 29.85 -111.1 31.45 -112.6 34.35 -114.15 37.25 -119.2 43.0 L-127.65 51.6 Q-131.05 55.0 -131.0 57.65 -130.95 60.75 -127.5 61.75 L-121.0 61.45 Q-118.45 60.6 -115.05 57.85 L-112.15 55.25 Q-114.1 54.3 -115.1 51.45 -116.65 47.2 -114.3 41.45 -111.75 35.45 -105.65 31.95 -100.75 29.1 -95.95 28.9 -92.35 28.75 -90.6 31.55 -88.75 34.6 -90.9 38.6 -93.0 42.5 -103.65 53.05 L-98.15 53.9 Q-93.35 46.55 -87.35 41.6 -82.15 37.25 -73.35 32.7 -65.4 28.6 -57.15 28.6 -49.3 28.6 -48.45 31.95 -46.65 39.2 -59.85 47.0 -65.9 50.65 -73.8 52.25 L-80.5 53.15 -80.7 55.75 Q-80.55 58.75 -78.55 60.45 -76.1 62.55 -71.25 62.0 -66.25 61.5 -61.85 58.4 -53.15 52.45 -40.1 39.7 -34.15 33.9 -30.85 31.65 -27.7 29.5 -24.8 29.1 -22.2 28.75 -21.8 30.9 -21.45 32.8 -22.7 34.45 -23.8 36.0 -24.05 37.25 -24.4 38.65 -23.2 38.3 -14.75 32.0 -6.9 29.25 0.0 26.85 3.55 27.95 6.85 29.0 7.6 32.75 8.35 36.7 5.25 40.15 L-2.55 49.05 Q-7.25 54.7 -8.05 57.35 -8.95 60.4 -5.8 61.3 -2.65 62.25 0.2 59.95 L19.0 43.2 30.1 33.5 Q29.6 29.15 31.1 25.95 34.35 18.8 38.9 18.0 41.9 17.5 43.65 18.95 45.45 20.4 44.95 23.25 44.5 25.65 41.0 28.4 L37.55 30.7 37.55 32.05 37.9 35.9 Q38.15 37.6 40.6 41.7 43.4 46.3 44.2 49.0 45.25 52.4 45.25 55.8 L45.05 58.5 46.4 58.1 Q48.15 57.25 50.25 55.1 53.55 51.75 59.45 47.7 L60.55 44.9 62.9 40.3 Q64.95 36.5 67.15 33.6 69.65 30.4 71.7 29.15 75.55 26.85 73.3 34.6 72.2 38.15 71.9 44.2 71.55 50.7 72.45 54.55 73.35 58.65 75.65 60.5 77.95 62.4 80.85 61.4 83.95 60.35 88.1 56.35 85.65 54.65 83.8 52.1 81.75 49.35 80.8 46.15 79.3 40.95 80.9 36.1 82.45 31.4 86.45 28.35 90.25 25.45 94.65 27.6 99.45 29.95 100.1 36.8 100.65 42.95 98.0 48.6 96.7 51.45 95.25 53.05 L97.2 53.25 Q99.9 52.9 103.65 50.1 106.75 47.8 112.5 41.5 118.2 35.3 120.85 33.35 124.65 30.6 127.2 29.85 129.7 29.1 131.45 30.25 133.05 31.3 131.35 34.4 L125.4 43.6 Q119.95 51.85 119.3 53.2 117.6 56.95 119.75 59.2 121.85 61.45 127.9 58.1 131.0 56.35 138.15 51.0 145.4 45.55 148.65 42.65 156.3 35.85 167.25 23.55 L187.9 0.35 Q198.0 -10.9 200.35 -12.5 203.45 -14.55 205.5 -14.05 207.75 -13.45 206.0 -9.75 202.55 -2.55 180.6 23.7 159.55 48.9 156.8 52.7 154.9 55.4 155.6 57.85 156.4 60.7 160.45 60.3 166.5 59.7 171.85 55.95 L176.15 52.25 185.85 42.75 204.45 23.6 227.15 -0.25" fill="#008717" fill-rule="evenodd" stroke="none"/>
    </g>
    <g id="sprite2" transform="matrix(1.0, 0.0, 0.0, 1.0, 235.0, 10.2)">
      <use height="20.4" transform="matrix(1.0, 0.0, 0.0, 1.0, -235.0, -10.2)" width="470.0" xlink:href="#shape3"/>
    </g>
    <g id="shape3" transform="matrix(1.0, 0.0, 0.0, 1.0, 235.0, 10.2)">
      <path d="M124.15 -8.2 Q125.2 -6.5 125.2 -4.75 125.2 -3.55 124.45 -2.95 123.9 -2.55 123.1 -2.55 122.35 -2.55 121.8 -2.95 121.25 -3.35 120.75 -4.35 L120.0 -5.45 119.35 -5.7 Q118.85 -5.7 118.65 -5.3 118.4 -4.85 118.4 -3.85 L118.4 3.95 Q118.4 5.15 118.65 5.7 L119.6 6.55 120.65 7.15 120.9 7.95 Q120.9 8.95 119.55 9.45 L115.35 9.95 110.2 9.35 Q108.8 8.9 108.8 7.85 108.8 7.25 109.3 6.95 L110.3 6.6 111.05 6.0 111.35 4.35 111.55 0.8 111.65 -3.4 111.45 -5.2 Q111.25 -5.75 110.8 -5.75 110.3 -5.75 109.75 -4.95 L108.2 -3.05 Q107.5 -2.5 106.85 -2.5 106.1 -2.5 105.6 -3.1 105.1 -3.65 105.1 -4.55 105.1 -5.4 105.5 -6.45 105.9 -7.5 106.55 -8.35 107.6 -9.8 108.65 -9.8 L109.3 -9.7 110.55 -9.5 111.65 -9.45 119.0 -9.45 121.15 -9.75 121.9 -9.9 Q123.05 -9.9 124.15 -8.2 M133.95 -5.85 Q134.5 -7.0 135.55 -7.85 137.9 -9.85 141.3 -9.85 L145.1 -9.1 145.55 -9.05 146.35 -9.3 146.85 -9.4 Q147.8 -9.4 148.85 -7.9 149.85 -6.4 149.85 -5.05 149.85 -4.3 149.4 -3.75 148.95 -3.2 148.25 -3.2 147.7 -3.2 147.35 -3.45 147.0 -3.65 145.8 -4.75 144.15 -6.35 142.5 -6.35 141.75 -6.35 141.25 -5.95 140.8 -5.55 140.8 -4.95 140.8 -3.75 142.95 -3.1 L146.65 -1.9 Q150.2 -0.15 150.2 3.25 150.2 6.2 147.75 8.1 145.3 10.05 141.25 10.05 L137.5 9.6 134.6 8.6 Q133.95 8.15 133.4 6.65 132.85 5.15 132.85 3.7 132.85 3.05 133.15 2.7 133.5 2.25 134.05 2.25 134.55 2.25 135.05 2.8 L136.45 4.75 Q136.95 5.55 138.1 6.05 L140.4 6.55 142.1 6.2 Q142.75 5.8 142.75 5.2 142.75 4.65 142.25 4.25 141.75 3.85 140.6 3.5 L137.55 2.35 Q136.5 1.8 135.6 1.0 133.4 -0.95 133.4 -3.45 133.4 -4.65 133.95 -5.85 M156.4 -9.5 L157.5 -9.45 164.85 -9.45 167.0 -9.75 167.75 -9.9 Q168.9 -9.9 170.0 -8.2 171.05 -6.5 171.05 -4.75 171.05 -3.55 170.3 -2.95 169.75 -2.55 168.95 -2.55 168.2 -2.55 167.65 -2.95 167.1 -3.35 166.6 -4.35 L165.85 -5.45 165.2 -5.7 Q164.7 -5.7 164.5 -5.3 164.25 -4.85 164.25 -3.85 L164.25 3.95 Q164.25 5.15 164.5 5.7 164.75 6.25 165.45 6.55 L166.5 7.15 166.75 7.95 Q166.75 8.95 165.4 9.45 L161.2 9.95 Q157.75 9.95 156.05 9.35 154.65 8.9 154.65 7.85 154.65 7.25 155.15 6.95 L156.15 6.6 156.9 6.0 157.2 4.35 157.4 0.8 157.5 -3.4 157.3 -5.2 156.65 -5.75 Q156.15 -5.75 155.6 -4.95 L154.05 -3.05 Q153.35 -2.5 152.7 -2.5 151.95 -2.5 151.45 -3.1 150.95 -3.65 150.95 -4.55 150.95 -5.4 151.35 -6.45 L152.4 -8.35 Q153.45 -9.8 154.5 -9.8 L155.15 -9.7 156.4 -9.5 M173.4 -5.8 Q175.1 -8.05 177.95 -9.1 179.85 -9.85 182.15 -9.85 185.75 -9.85 188.45 -7.8 190.25 -6.35 191.4 -4.1 192.5 -1.9 192.5 0.35 192.5 3.65 190.3 6.25 188.45 8.45 185.5 9.45 L181.8 10.05 Q179.4 10.05 177.15 9.0 174.5 7.8 173.0 5.35 171.5 2.95 171.5 0.1 171.5 -3.25 173.4 -5.8 M196.7 -9.6 L199.0 -9.45 200.1 -9.4 203.45 -9.6 205.3 -9.7 Q208.3 -9.7 210.25 -8.25 212.05 -6.95 212.05 -4.65 212.05 -3.35 211.4 -2.3 210.8 -1.25 209.75 -0.7 209.3 -0.5 209.3 -0.15 209.3 0.25 209.95 0.5 211.45 1.0 212.1 2.1 212.8 3.15 213.1 5.4 213.2 6.3 213.45 6.6 L214.55 7.1 215.0 7.5 215.2 8.1 214.85 8.95 214.0 9.65 210.8 10.2 Q208.05 10.2 206.85 8.75 L206.0 7.15 205.1 4.1 Q204.8 2.75 204.3 2.2 203.8 1.65 202.85 1.6 202.35 1.6 202.2 1.95 202.05 2.25 202.05 3.45 L202.25 6.2 202.45 6.65 203.0 7.0 Q203.85 7.5 203.85 8.25 203.85 9.15 202.7 9.55 L198.7 9.95 Q193.55 9.95 193.55 7.95 L193.7 7.45 194.4 6.85 195.25 5.9 195.55 4.0 195.6 -3.1 195.4 -5.75 194.55 -6.8 193.75 -7.3 193.55 -7.95 Q193.55 -8.5 193.95 -8.85 194.35 -9.25 195.05 -9.45 L196.7 -9.6 M183.45 -3.95 L182.25 -5.3 Q181.55 -5.8 180.8 -5.8 179.65 -5.8 178.95 -4.75 178.45 -4.0 178.45 -2.9 178.45 -1.35 179.1 0.75 179.7 2.8 180.7 4.45 L181.8 5.5 183.05 5.95 Q184.15 5.95 184.8 5.15 185.45 4.35 185.45 3.05 185.45 1.35 184.9 -0.6 184.35 -2.6 183.45 -3.95 M46.55 -7.55 L45.65 -6.95 Q44.9 -6.5 44.8 -6.05 L44.65 -2.45 44.65 0.95 Q44.65 4.05 44.2 5.35 43.2 8.05 39.85 9.25 37.8 10.05 35.25 10.05 30.75 10.05 28.05 7.9 26.7 6.85 26.2 5.45 25.7 4.05 25.7 1.45 L25.8 -1.9 25.8 -4.1 25.65 -5.7 24.9 -6.55 Q23.95 -7.15 23.95 -7.9 23.95 -8.4 24.45 -8.85 24.9 -9.25 25.65 -9.4 L29.3 -9.75 33.15 -9.4 Q34.65 -9.05 34.65 -7.85 34.65 -7.25 34.2 -6.9 L33.35 -6.5 Q32.9 -6.3 32.75 -5.75 32.6 -5.25 32.6 -4.05 L32.5 1.2 Q32.4 3.6 33.8 4.85 34.9 5.9 36.65 5.9 L38.7 5.5 40.1 4.35 40.6 3.15 40.75 1.3 40.75 -1.75 40.55 -5.9 Q40.4 -6.5 39.65 -6.85 38.9 -7.2 38.65 -7.45 38.35 -7.7 38.35 -8.1 38.35 -8.95 39.4 -9.35 L42.6 -9.75 45.75 -9.35 Q46.7 -8.95 46.7 -8.15 L46.55 -7.55 M50.65 -9.8 L51.3 -9.7 52.55 -9.5 53.65 -9.45 61.0 -9.45 63.15 -9.75 63.9 -9.9 Q65.05 -9.9 66.15 -8.2 67.2 -6.5 67.2 -4.75 67.2 -3.55 66.45 -2.95 65.9 -2.55 65.1 -2.55 64.35 -2.55 63.8 -2.95 63.25 -3.35 62.75 -4.35 L62.0 -5.45 61.35 -5.7 Q60.85 -5.7 60.65 -5.3 60.4 -4.85 60.4 -3.85 L60.4 3.95 Q60.4 5.15 60.65 5.7 L61.6 6.55 62.65 7.15 62.9 7.95 Q62.9 8.95 61.55 9.45 L57.35 9.95 52.2 9.35 Q50.8 8.9 50.8 7.85 50.8 7.25 51.3 6.95 L52.3 6.6 53.05 6.0 53.35 4.35 53.55 0.8 53.65 -3.4 53.45 -5.2 52.8 -5.75 Q52.3 -5.75 51.75 -4.95 L50.2 -3.05 Q49.5 -2.5 48.85 -2.5 48.1 -2.5 47.6 -3.1 47.1 -3.65 47.1 -4.55 47.1 -5.4 47.5 -6.45 47.9 -7.5 48.55 -8.35 49.6 -9.8 50.65 -9.8 M73.1 -9.75 L77.15 -9.45 Q78.85 -9.05 78.85 -7.95 78.85 -7.45 78.65 -7.25 L77.5 -6.65 Q77.0 -6.4 76.85 -5.85 76.7 -5.25 76.7 -3.35 L76.7 3.1 Q76.7 5.25 77.1 5.9 77.55 6.65 79.05 6.65 80.6 6.65 81.55 5.95 82.45 5.25 82.85 3.75 83.05 2.85 83.8 2.85 84.5 2.85 85.0 3.5 85.45 4.15 85.45 5.25 85.45 6.95 84.15 8.95 L83.45 9.8 82.7 10.05 79.6 9.65 69.85 9.65 68.5 9.45 Q67.9 9.1 67.9 8.45 L68.1 7.9 69.0 7.35 70.05 6.3 70.2 2.95 70.15 -0.75 70.05 -4.25 69.9 -5.8 69.15 -6.4 68.0 -6.9 Q67.55 -7.25 67.55 -7.7 67.55 -8.75 69.2 -9.25 L73.1 -9.75 M95.95 -9.45 L99.15 -9.55 101.1 -9.9 101.55 -10.0 Q102.25 -10.0 102.85 -9.2 103.75 -7.95 103.75 -6.15 103.75 -5.2 103.35 -4.7 103.0 -4.15 102.3 -4.15 L101.6 -4.35 100.9 -5.2 Q100.3 -6.15 99.35 -6.45 L96.25 -6.75 Q94.65 -6.75 94.3 -6.2 94.1 -5.9 94.05 -5.35 L94.05 -2.75 Q94.05 -1.9 94.3 -1.7 L95.8 -1.5 96.65 -1.7 96.95 -2.6 97.2 -3.7 97.55 -4.25 98.25 -4.5 99.2 -3.95 99.7 -2.5 99.9 -0.35 Q99.9 1.85 99.25 3.25 98.85 4.05 98.1 4.05 97.6 4.05 97.45 3.8 97.25 3.55 97.15 2.75 96.95 1.2 95.3 1.2 94.65 1.2 94.45 1.6 94.2 2.0 94.2 3.05 L94.3 4.75 94.5 6.15 Q94.6 6.55 95.2 6.75 L97.1 6.9 Q99.2 6.9 100.3 6.35 101.35 5.8 102.0 4.4 102.4 3.6 102.75 3.3 103.05 3.0 103.55 3.0 104.15 3.0 104.5 3.55 104.9 4.05 104.9 4.8 L104.45 6.9 103.4 9.15 102.85 9.8 102.35 9.95 101.55 9.85 99.2 9.65 87.3 9.65 86.2 9.35 Q85.8 9.0 85.8 8.45 L86.0 7.85 86.75 7.4 87.4 6.95 87.7 6.15 Q88.15 4.05 88.15 0.45 88.15 -4.95 87.5 -6.35 L87.15 -6.75 86.5 -7.0 Q85.7 -7.25 85.7 -8.05 L85.95 -8.85 86.65 -9.3 88.75 -9.45 95.95 -9.45 M216.05 -8.85 L216.75 -9.3 218.85 -9.45 226.05 -9.45 229.25 -9.55 231.2 -9.9 231.65 -10.0 Q232.35 -10.0 232.95 -9.2 233.85 -7.95 233.85 -6.15 233.85 -5.2 233.45 -4.7 233.1 -4.15 232.4 -4.15 L231.7 -4.35 231.0 -5.2 Q230.4 -6.15 229.45 -6.45 L226.35 -6.75 Q224.75 -6.75 224.4 -6.2 224.2 -5.9 224.15 -5.35 L224.15 -2.75 Q224.15 -1.9 224.4 -1.7 L225.9 -1.5 226.75 -1.7 227.05 -2.6 227.3 -3.7 227.65 -4.25 228.35 -4.5 Q228.9 -4.5 229.3 -3.95 L229.8 -2.5 230.0 -0.35 Q230.0 1.85 229.35 3.25 228.95 4.05 228.2 4.05 L227.55 3.8 Q227.35 3.55 227.25 2.75 227.05 1.2 225.4 1.2 224.75 1.2 224.55 1.6 224.3 2.0 224.3 3.05 L224.4 4.75 224.6 6.15 Q224.7 6.55 225.3 6.75 L227.2 6.9 Q229.3 6.9 230.4 6.35 231.45 5.8 232.1 4.4 232.5 3.6 232.85 3.3 233.15 3.0 233.65 3.0 234.25 3.0 234.6 3.55 235.0 4.05 235.0 4.8 L234.55 6.9 233.5 9.15 232.95 9.8 232.45 9.95 231.65 9.85 229.3 9.65 217.4 9.65 216.3 9.35 Q215.9 9.0 215.9 8.45 L216.1 7.85 216.85 7.4 217.5 6.95 217.8 6.15 Q218.25 4.05 218.25 0.45 218.25 -4.95 217.6 -6.35 L217.25 -6.75 216.6 -7.0 Q215.8 -7.25 215.8 -8.05 L216.05 -8.85 M205.0 -3.95 Q205.0 -6.65 203.05 -6.65 202.5 -6.65 202.3 -6.4 202.1 -6.15 202.05 -5.5 L201.9 -2.25 201.9 -2.15 Q201.9 -1.65 202.05 -1.45 L202.65 -1.3 Q203.85 -1.3 204.45 -1.9 205.0 -2.55 205.0 -3.95 M-199.7 -7.8 Q-197.9 -6.35 -196.75 -4.1 -195.65 -1.9 -195.65 0.35 -195.65 3.65 -197.85 6.25 -199.7 8.45 -202.65 9.45 L-206.35 10.05 Q-208.75 10.05 -211.0 9.0 -213.65 7.8 -215.15 5.35 -216.65 2.95 -216.65 0.1 -216.65 -3.25 -214.75 -5.8 -213.05 -8.05 -210.2 -9.1 -208.3 -9.85 -206.0 -9.85 -202.4 -9.85 -199.7 -7.8 M-205.9 -5.3 Q-206.6 -5.8 -207.35 -5.8 -208.5 -5.8 -209.2 -4.75 -209.7 -4.0 -209.7 -2.9 -209.7 -1.35 -209.05 0.75 -208.45 2.8 -207.45 4.45 L-206.35 5.5 -205.1 5.95 Q-204.0 5.95 -203.35 5.15 -202.7 4.35 -202.7 3.05 -202.7 1.35 -203.25 -0.6 -203.8 -2.6 -204.7 -3.95 L-205.9 -5.3 M-193.35 -5.85 Q-192.8 -7.0 -191.75 -7.85 -189.4 -9.85 -186.0 -9.85 -184.55 -9.85 -182.2 -9.1 L-181.75 -9.05 -180.95 -9.3 -180.45 -9.4 Q-179.5 -9.4 -178.45 -7.9 -177.45 -6.4 -177.45 -5.05 -177.45 -4.3 -177.9 -3.75 -178.35 -3.2 -179.05 -3.2 L-179.95 -3.45 -181.5 -4.75 Q-183.15 -6.35 -184.8 -6.35 L-186.05 -5.95 Q-186.5 -5.55 -186.5 -4.95 -186.5 -3.75 -184.35 -3.1 L-180.65 -1.9 Q-177.1 -0.15 -177.1 3.25 -177.1 6.2 -179.55 8.1 -182.0 10.05 -186.05 10.05 L-189.8 9.6 Q-191.8 9.15 -192.7 8.6 -193.35 8.15 -193.9 6.65 -194.45 5.15 -194.45 3.7 -194.45 3.05 -194.15 2.7 -193.8 2.25 -193.25 2.25 -192.75 2.25 -192.25 2.8 L-190.85 4.75 Q-190.35 5.55 -189.2 6.05 L-186.9 6.55 Q-185.85 6.55 -185.2 6.2 -184.55 5.8 -184.55 5.2 -184.55 4.65 -185.05 4.25 -185.55 3.85 -186.7 3.5 L-189.75 2.35 -191.7 1.0 Q-193.9 -0.95 -193.9 -3.45 -193.9 -4.65 -193.35 -5.85 M-169.8 -9.45 L-162.45 -9.45 -160.3 -9.75 -159.55 -9.9 Q-158.4 -9.9 -157.3 -8.2 -156.25 -6.5 -156.25 -4.75 -156.25 -3.55 -157.0 -2.95 -157.55 -2.55 -158.35 -2.55 -159.1 -2.55 -159.65 -2.95 L-160.7 -4.35 -161.45 -5.45 -162.1 -5.7 Q-162.6 -5.7 -162.8 -5.3 L-163.05 -3.85 -163.05 3.95 -162.8 5.7 -161.85 6.55 Q-161.1 6.9 -160.8 7.15 -160.55 7.45 -160.55 7.95 -160.55 8.95 -161.9 9.45 L-166.1 9.95 -171.25 9.35 Q-172.65 8.9 -172.65 7.85 -172.65 7.25 -172.15 6.95 L-171.15 6.6 -170.4 6.0 Q-170.2 5.6 -170.1 4.35 L-169.9 0.8 -169.8 -3.4 -170.0 -5.2 Q-170.2 -5.75 -170.65 -5.75 -171.15 -5.75 -171.7 -4.95 L-173.25 -3.05 Q-173.95 -2.5 -174.6 -2.5 -175.35 -2.5 -175.85 -3.1 -176.35 -3.65 -176.35 -4.55 -176.35 -5.4 -175.95 -6.45 L-174.9 -8.35 Q-173.85 -9.8 -172.8 -9.8 L-172.15 -9.7 -170.9 -9.5 -169.8 -9.45 M-147.65 -0.6 L-146.3 -1.7 Q-145.75 -1.95 -145.75 -2.2 L-145.9 -2.6 Q-146.75 -4.05 -146.75 -5.05 -146.75 -6.1 -146.15 -7.1 -145.55 -8.15 -144.55 -8.8 -143.6 -9.45 -142.35 -9.8 L-139.9 -10.2 Q-137.95 -10.2 -136.55 -9.4 -135.15 -8.65 -135.15 -7.55 -135.15 -6.95 -135.65 -6.45 -136.15 -6.0 -136.75 -6.0 L-137.2 -6.05 -138.1 -6.65 -139.5 -7.1 Q-140.2 -7.1 -140.65 -6.6 -141.15 -6.05 -141.15 -5.25 -141.15 -4.15 -140.3 -3.7 L-139.0 -3.45 Q-138.15 -3.35 -138.15 -2.3 -138.15 -1.15 -139.1 -0.6 -139.55 -0.35 -140.65 -0.2 -141.3 -0.1 -141.3 1.05 -141.3 2.45 -140.45 3.95 -139.6 5.25 -138.35 6.0 -137.15 6.7 -135.9 6.7 -134.2 6.7 -132.95 5.7 -131.8 4.75 -131.8 3.4 -131.8 2.7 -132.3 2.25 -132.8 1.75 -133.55 1.75 -134.7 1.75 -135.55 3.15 -135.9 3.8 -136.3 3.8 -136.8 3.8 -137.2 3.2 -137.55 2.6 -137.55 1.8 -137.55 0.1 -136.3 -1.25 -135.1 -2.6 -132.8 -3.45 -131.0 -4.1 -130.55 -4.5 -130.05 -4.95 -130.05 -5.45 L-130.25 -5.95 -130.75 -6.15 -131.25 -6.0 -131.45 -6.0 Q-131.65 -6.0 -131.85 -6.15 L-132.0 -6.6 Q-132.0 -7.2 -131.45 -7.7 L-130.1 -8.5 -128.4 -8.8 Q-126.85 -8.8 -125.7 -8.0 -125.0 -7.55 -124.65 -6.8 -124.25 -6.05 -124.25 -5.2 -124.25 -4.0 -125.05 -2.85 -125.9 -1.75 -127.3 -1.0 -128.35 -0.4 -128.35 0.0 L-127.65 0.7 Q-127.0 1.1 -126.65 1.75 -126.3 2.45 -126.3 3.25 -126.3 4.55 -127.3 5.9 -128.8 7.95 -131.85 9.1 -134.35 10.05 -137.55 10.05 -141.7 10.05 -144.7 8.45 -146.85 7.35 -148.0 5.25 -148.75 3.85 -148.75 2.3 -148.75 0.6 -147.65 -0.6 M-235.0 -7.7 Q-235.0 -8.75 -233.35 -9.25 L-229.45 -9.75 -225.4 -9.45 Q-223.7 -9.05 -223.7 -7.95 -223.7 -7.45 -223.9 -7.25 L-225.05 -6.65 -225.7 -5.85 -225.85 -3.35 -225.85 3.1 Q-225.85 5.25 -225.45 5.9 -225.0 6.65 -223.5 6.65 -221.95 6.65 -221.0 5.95 -220.1 5.25 -219.7 3.75 -219.5 2.85 -218.75 2.85 -218.05 2.85 -217.55 3.5 -217.1 4.15 -217.1 5.25 -217.1 6.95 -218.4 8.95 L-219.1 9.8 -219.85 10.05 -222.95 9.65 -232.7 9.65 -234.05 9.45 Q-234.65 9.1 -234.65 8.45 L-234.45 7.9 -233.55 7.35 Q-232.75 6.95 -232.5 6.3 -232.35 5.7 -232.35 2.95 L-232.4 -0.75 -232.5 -4.25 Q-232.5 -5.4 -232.65 -5.8 -232.85 -6.2 -233.4 -6.4 L-234.55 -6.9 -235.0 -7.7 M-27.35 -9.3 L-25.5 -9.65 -24.55 -9.65 -22.85 -9.6 -18.35 -9.75 -17.0 -9.75 -11.95 -9.05 Q-9.2 -7.95 -7.8 -5.35 -6.55 -3.1 -6.55 0.05 -6.55 1.6 -7.0 3.2 -7.45 4.8 -8.25 5.95 -9.85 8.3 -12.7 9.25 L-16.3 9.8 -19.45 9.7 -22.45 9.65 -23.45 9.65 -25.4 9.75 -26.35 9.8 -27.9 9.35 Q-28.45 8.9 -28.45 8.2 L-28.2 7.45 -27.35 7.0 Q-26.8 6.9 -26.6 6.55 -26.4 6.25 -26.3 5.35 L-26.1 1.25 -26.0 -4.75 -26.2 -6.35 Q-26.35 -6.75 -27.05 -6.95 -28.0 -7.35 -28.0 -8.2 -28.0 -8.9 -27.35 -9.3 M-30.55 -9.5 Q-29.25 -9.1 -29.25 -8.0 -29.25 -7.1 -30.3 -6.65 L-30.9 -6.3 -31.15 -5.9 Q-31.55 -4.95 -31.55 -2.4 L-31.55 2.15 -31.55 5.05 Q-31.5 7.5 -31.8 8.6 -32.2 9.95 -33.2 9.95 L-33.95 9.75 -35.0 8.9 -43.3 1.5 Q-44.15 0.7 -44.7 0.7 -45.55 0.7 -45.55 3.1 L-45.35 5.75 Q-45.15 6.45 -44.45 6.8 -43.55 7.25 -43.55 8.0 -43.55 9.95 -47.7 9.95 L-50.65 9.45 Q-51.7 8.95 -51.7 8.05 L-51.5 7.3 -50.6 6.65 Q-49.95 6.3 -49.8 5.3 -49.55 3.5 -49.55 0.1 -49.55 -3.5 -50.0 -5.15 L-50.4 -6.05 -51.15 -6.6 -52.05 -7.2 -52.3 -7.95 Q-52.3 -9.3 -50.0 -9.65 L-47.25 -9.75 -45.6 -9.55 -44.4 -8.75 -37.45 -2.65 Q-36.45 -1.8 -36.0 -1.8 -35.3 -1.8 -35.3 -3.35 L-35.5 -5.8 -36.4 -6.75 -37.15 -7.3 -37.35 -8.1 Q-37.35 -9.25 -35.75 -9.6 L-33.45 -9.75 -30.55 -9.5 M-19.5 -5.5 L-19.5 5.3 Q-19.5 6.2 -19.1 6.55 -18.75 6.95 -17.85 6.95 -13.75 6.95 -13.75 0.7 -13.75 -2.7 -14.7 -4.6 -15.75 -6.7 -18.25 -6.7 L-19.2 -6.4 Q-19.5 -6.15 -19.5 -5.5 M12.6 -9.85 Q16.2 -9.85 18.9 -7.8 20.7 -6.35 21.85 -4.1 22.95 -1.9 22.95 0.35 22.95 3.65 20.75 6.25 18.9 8.45 15.95 9.45 L12.25 10.05 Q9.85 10.05 7.6 9.0 4.95 7.8 3.45 5.35 1.95 2.95 1.95 0.1 1.95 -3.25 3.85 -5.8 5.55 -8.05 8.4 -9.1 10.3 -9.85 12.6 -9.85 M12.7 -5.3 L11.25 -5.8 Q10.1 -5.8 9.4 -4.75 8.9 -4.0 8.9 -2.9 8.9 -1.35 9.55 0.75 10.15 2.8 11.15 4.45 L12.25 5.5 Q12.85 5.95 13.5 5.95 14.6 5.95 15.25 5.15 15.9 4.35 15.9 3.05 15.9 1.35 15.35 -0.6 14.8 -2.6 13.9 -3.95 L12.7 -5.3 M-112.8 -9.55 L-107.35 -9.4 -100.5 -9.65 -100.15 -9.7 Q-99.65 -9.7 -99.2 -9.1 -97.95 -7.55 -97.95 -5.65 -97.95 -4.8 -98.35 -4.25 -98.75 -3.75 -99.45 -3.75 -99.9 -3.75 -100.15 -3.95 L-101.45 -5.3 -102.95 -6.25 -106.3 -6.55 Q-107.25 -6.55 -107.5 -6.05 L-107.8 -4.65 -107.95 -2.7 Q-107.95 -2.2 -107.6 -2.0 L-106.35 -1.8 Q-105.75 -1.8 -105.45 -2.05 -105.15 -2.25 -105.05 -2.8 -104.7 -4.3 -103.7 -4.3 -102.0 -4.3 -102.0 -0.25 -102.0 2.35 -102.75 3.6 -103.2 4.3 -104.0 4.3 -104.8 4.3 -104.95 3.2 L-105.1 2.2 -105.5 1.65 Q-105.95 1.2 -106.85 1.2 L-107.7 1.45 -107.9 2.3 -107.9 3.6 Q-107.9 6.0 -107.4 6.55 L-107.05 6.8 -106.15 7.0 Q-105.8 7.05 -105.55 7.35 L-105.3 8.1 Q-105.3 9.2 -106.55 9.5 L-111.65 9.95 -115.6 9.6 -116.4 9.05 -116.7 8.15 Q-116.7 7.5 -116.25 7.15 L-115.5 6.8 Q-114.7 6.5 -114.55 5.35 -114.3 3.65 -114.3 -2.5 -114.3 -5.1 -114.5 -5.9 -114.7 -6.7 -115.4 -7.0 -116.1 -7.3 -116.3 -7.55 L-116.5 -8.2 Q-116.5 -8.8 -115.9 -9.2 -115.3 -9.65 -114.45 -9.65 L-112.8 -9.55 M-87.15 -9.85 Q-83.55 -9.85 -80.85 -7.8 -79.05 -6.35 -77.9 -4.1 -76.8 -1.9 -76.8 0.35 -76.8 3.65 -79.0 6.25 -80.85 8.45 -83.8 9.45 -85.65 10.05 -87.5 10.05 -89.9 10.05 -92.15 9.0 -94.8 7.8 -96.3 5.35 -97.8 2.95 -97.8 0.1 -97.8 -3.25 -95.9 -5.8 -94.2 -8.05 -91.35 -9.1 -89.45 -9.85 -87.15 -9.85 M-88.5 -5.8 Q-89.65 -5.8 -90.35 -4.75 -90.85 -4.0 -90.85 -2.9 -90.85 -1.35 -90.2 0.75 -89.6 2.8 -88.6 4.45 L-87.5 5.5 -86.25 5.95 Q-85.15 5.95 -84.5 5.15 -83.85 4.35 -83.85 3.05 -83.85 1.35 -84.4 -0.6 -84.95 -2.6 -85.85 -3.95 L-87.05 -5.3 -88.5 -5.8 M-66.6 -9.4 Q-65.1 -9.05 -65.1 -7.85 -65.1 -7.25 -65.55 -6.9 L-66.4 -6.5 -67.0 -5.75 -67.15 -4.05 -67.25 1.2 Q-67.35 3.6 -65.95 4.85 -64.85 5.9 -63.1 5.9 L-61.05 5.5 Q-60.15 5.1 -59.65 4.35 L-59.15 3.15 Q-59.0 2.45 -59.0 1.3 L-59.0 -1.75 -59.2 -5.9 Q-59.35 -6.5 -60.1 -6.85 L-61.1 -7.45 -61.4 -8.1 Q-61.4 -8.95 -60.35 -9.35 L-57.15 -9.75 -54.0 -9.35 Q-53.05 -8.95 -53.05 -8.15 -53.05 -7.75 -53.2 -7.55 L-54.1 -6.95 -54.95 -6.05 -55.1 -2.45 -55.1 0.95 Q-55.1 4.05 -55.55 5.35 -56.55 8.05 -59.9 9.25 -61.95 10.05 -64.5 10.05 -69.0 10.05 -71.7 7.9 -73.05 6.85 -73.55 5.45 -74.05 4.05 -74.05 1.45 L-73.95 -1.9 -73.95 -4.1 Q-73.95 -5.25 -74.1 -5.7 L-74.85 -6.55 Q-75.8 -7.15 -75.8 -7.9 -75.8 -8.4 -75.3 -8.85 L-74.1 -9.4 -70.45 -9.75 -66.6 -9.4" fill="#000000" fill-rule="evenodd" stroke="none"/>
    </g>
    <g id="shape4" transform="matrix(1.0, 0.0, 0.0, 1.0, -51.0, -210.2)">
      <path d="M185.4 210.6 L190.65 210.6 190.65 240.95 185.4 240.95 185.4 227.5 179.9 227.5 179.9 240.95 174.65 240.95 174.65 210.6 179.9 210.6 179.9 223.0 185.4 223.0 185.4 210.6 M203.65 210.2 Q206.4 210.25 208.15 211.3 209.9 212.3 210.75 214.05 211.65 215.8 211.65 218.0 L211.65 233.6 Q211.65 235.75 210.75 237.5 209.9 239.25 208.15 240.3 206.4 241.35 203.65 241.35 200.9 241.35 199.15 240.3 197.4 239.25 196.55 237.5 195.65 235.75 195.65 233.6 L195.65 218.0 Q195.65 215.8 196.55 214.05 197.4 212.3 199.15 211.3 200.9 210.25 203.65 210.2 M205.8 215.55 Q205.2 214.75 203.65 214.75 202.1 214.75 201.5 215.55 200.85 216.4 200.9 218.1 L200.9 233.45 Q200.85 235.15 201.5 236.0 202.1 236.85 203.65 236.85 205.2 236.85 205.8 236.0 206.45 235.15 206.4 233.45 L206.4 218.1 Q206.45 216.4 205.8 215.55 M227.4 218.1 Q227.45 216.4 226.8 215.55 226.2 214.75 224.65 214.75 223.1 214.75 222.5 215.55 221.85 216.4 221.9 218.1 L221.9 233.45 Q221.85 235.15 222.5 236.0 223.1 236.85 224.65 236.85 226.2 236.85 226.8 236.0 227.45 235.15 227.4 233.45 L227.4 218.1 M224.65 210.2 Q227.4 210.25 229.15 211.3 230.9 212.3 231.75 214.05 232.65 215.8 232.65 218.0 L232.65 233.6 Q232.65 235.75 231.75 237.5 230.9 239.25 229.15 240.3 227.4 241.35 224.65 241.35 221.9 241.35 220.15 240.3 218.4 239.25 217.55 237.5 216.65 235.75 216.65 233.6 L216.65 218.0 Q216.65 215.8 217.55 214.05 218.4 212.3 220.15 211.3 221.9 210.25 224.65 210.2 M250.8 236.4 L250.8 240.95 237.45 240.95 237.45 210.6 242.65 210.6 242.65 236.4 250.8 236.4 M72.75 210.6 L77.95 210.6 77.95 240.95 72.75 240.95 72.75 210.6 M61.75 210.6 L67.0 210.6 67.0 240.95 61.75 240.95 61.75 227.5 56.25 227.5 56.25 240.95 51.0 240.95 51.0 210.6 56.25 210.6 56.25 223.0 61.75 223.0 61.75 210.6 M89.6 215.45 Q88.95 216.2 88.95 218.05 L88.95 233.65 Q88.9 235.1 89.45 235.95 90.05 236.8 91.35 236.85 92.95 236.85 93.6 235.85 94.25 234.9 94.2 232.6 L94.2 229.7 90.9 229.7 90.9 225.55 99.45 225.55 99.45 240.95 96.9 240.95 95.95 238.65 Q94.8 240.05 93.65 240.7 92.5 241.35 90.7 241.35 87.55 241.3 85.65 239.3 83.75 237.25 83.7 233.6 L83.7 218.0 Q83.7 215.8 84.55 214.05 85.4 212.3 87.1 211.3 88.8 210.25 91.35 210.2 94.0 210.25 95.7 211.35 97.45 212.5 98.3 214.35 99.2 216.2 99.2 218.5 L99.2 220.45 94.2 220.45 93.9 216.95 Q93.6 215.7 92.95 215.2 92.25 214.7 91.25 214.75 90.25 214.7 89.6 215.45 M104.7 210.6 L109.95 210.6 109.95 223.0 115.45 223.0 115.45 210.6 120.7 210.6 120.7 240.95 115.45 240.95 115.45 227.5 109.95 227.5 109.95 240.95 104.7 240.95 104.7 210.6 M153.65 218.0 Q153.65 215.8 154.55 214.05 155.4 212.3 157.15 211.3 158.9 210.25 161.65 210.2 164.25 210.25 166.0 211.35 167.7 212.5 168.55 214.35 169.4 216.2 169.4 218.5 L169.4 220.75 164.15 220.75 164.15 218.4 Q164.15 216.5 163.4 215.6 162.7 214.7 161.65 214.75 160.1 214.75 159.5 215.55 158.85 216.4 158.9 218.1 L158.9 233.45 Q158.85 235.15 159.5 236.0 160.1 236.85 161.65 236.85 163.05 236.85 163.6 236.05 164.2 235.25 164.15 233.75 L164.15 230.1 169.4 230.1 169.4 233.6 Q169.4 235.75 168.55 237.5 167.7 239.25 166.0 240.3 164.25 241.35 161.65 241.35 158.9 241.35 157.15 240.3 155.4 239.25 154.55 237.5 153.65 235.75 153.65 233.6 L153.65 218.0 M143.5 215.45 Q142.65 214.7 141.75 214.75 140.5 214.75 139.8 215.5 139.15 216.3 139.15 217.7 139.2 219.25 140.25 220.55 141.3 221.9 142.85 223.15 L146.0 225.95 Q147.55 227.4 148.6 229.3 149.7 231.15 149.75 233.6 149.7 236.1 148.7 237.85 147.65 239.55 145.8 240.45 143.95 241.35 141.5 241.35 139.05 241.35 137.35 240.2 135.65 239.05 134.7 237.15 133.8 235.25 133.65 232.95 L138.65 232.25 Q138.8 234.55 139.65 235.7 140.45 236.85 141.75 236.85 143.1 236.85 143.9 236.15 144.75 235.4 144.75 234.05 144.7 232.3 143.65 230.9 142.6 229.5 141.05 228.25 L137.9 225.55 Q136.35 224.1 135.3 222.25 134.2 220.35 134.2 217.75 134.2 214.15 136.3 212.2 138.4 210.25 142.25 210.2 144.35 210.25 145.9 211.15 147.45 212.1 148.35 213.75 149.25 215.4 149.5 217.55 L144.5 218.1 Q144.3 216.2 143.5 215.45" fill="#000000" fill-rule="evenodd" stroke="none"/>
    </g>
    <g id="sprite3" transform="matrix(1.0, 0.0, 0.0, 1.0, 108.75, 96.05)">
      <use height="179.5" transform="matrix(1.0, 0.0, 0.0, 1.0, -108.75, -85.65)" width="217.5" xlink:href="#shape5"/>
      <use height="171.5" transform="matrix(1.0, 0.0, 0.0, 1.0, -104.75, -81.65)" width="209.5" xlink:href="#sprite4"/>
      <use height="171.45" transform="matrix(1.0, 0.0, 0.0, 1.0, -99.75, -87.65)" width="199.5" xlink:href="#shape7"/>
      <use height="149.5" transform="matrix(1.0, -0.0041, 0.0, 1.0, -64.65, -95.5501)" width="122.7" xlink:href="#sprite5"/>
      <use height="127.8" transform="matrix(1.0, 0.0, 0.0, 1.0, -99.75, -42.95)" width="199.5" xlink:href="#shape9"/>
    </g>
    <g id="shape5" transform="matrix(1.0, 0.0, 0.0, 1.0, 108.75, 85.65)">
      <path d="M49.1 -81.5 L50.25 -81.65 Q52.15 -81.65 53.65 -80.3 L103.15 -33.8 Q104.75 -32.3 104.75 -30.15 L104.75 45.85 Q104.75 47.6 103.7 48.95 102.65 50.3 101.0 50.7 L-49.0 89.7 -50.25 89.85 Q-52.4 89.85 -53.85 88.4 L-103.35 38.4 Q-104.75 36.9 -104.75 34.85 L-104.75 -42.65 Q-104.75 -44.4 -103.65 -45.75 -102.6 -47.1 -100.9 -47.5 L49.1 -81.5" fill="#cccccc" fill-rule="evenodd" stroke="none"/>
      <path d="M49.1 -81.5 L-100.9 -47.5 Q-102.6 -47.1 -103.65 -45.75 -104.75 -44.4 -104.75 -42.65 L-104.75 34.85 Q-104.75 36.9 -103.35 38.4 L-53.85 88.4 Q-52.4 89.85 -50.25 89.85 L-49.0 89.7 101.0 50.7 Q102.65 50.3 103.7 48.95 104.75 47.6 104.75 45.85 L104.75 -30.15 Q104.75 -32.3 103.15 -33.8 L53.65 -80.3 Q52.15 -81.65 50.25 -81.65 L49.1 -81.5 Z" fill="none" stroke="#cccccc" stroke-linecap="round" stroke-linejoin="round" stroke-width="8.0"/>
    </g>
    <g id="sprite4" transform="matrix(1.0, 0.0, 0.0, 1.0, 104.75, 85.75)">
      <use height="171.5" transform="matrix(1.0, 0.0, 0.0, 1.0, -104.75, -85.75)" width="209.5" xlink:href="#shape6"/>
    </g>
    <g id="shape6" transform="matrix(1.0, 0.0, 0.0, 1.0, 104.75, 85.75)">
      <path d="M50.25 -85.75 Q52.15 -85.75 53.65 -84.4 L103.15 -37.9 Q104.75 -36.4 104.75 -34.25 L104.75 41.75 Q104.75 43.5 103.7 44.85 102.65 46.2 101.0 46.6 L-49.0 85.6 -50.25 85.75 Q-52.4 85.75 -53.85 84.3 L-103.35 34.3 Q-104.75 32.8 -104.75 30.75 L-104.75 -46.75 Q-104.75 -48.5 -103.65 -49.85 -102.6 -51.2 -100.9 -51.6 L49.1 -85.6 50.25 -85.75" fill="#ffffff" fill-rule="evenodd" stroke="none"/>
    </g>
    <g id="shape7" transform="matrix(1.0, 0.0, 0.0, 1.0, 99.75, 87.65)">
      <path d="M-98.45 -36.8 L-85.25 22.7 50.25 -14.65 50.25 -17.65 98.4 43.15 98.4 45.3 -49.6 83.8 -98.45 34.45 -98.45 -36.8" fill="#705f2b" fill-rule="evenodd" stroke="none"/>
      <path d="M49.45 -73.6 L49.25 -73.8 50.25 -76.65 99.75 -30.15 98.75 -27.3 50.25 -72.85 49.45 -73.6" fill="#91782e" fill-rule="evenodd" stroke="none"/>
      <path d="M49.45 -73.6 L50.25 -72.85 50.25 -17.65 50.25 -14.65 -85.25 22.7 -98.45 -36.8 -99.15 -39.95 49.45 -73.6" fill="#806a2e" fill-rule="evenodd" stroke="none"/>
      <path d="M50.25 -76.65 L49.25 -73.8 49.45 -73.6 -99.15 -39.95 -99.2 -39.95 -99.75 -42.65 50.25 -76.65" fill="#a38734" fill-rule="evenodd" stroke="none"/>
      <path d="M50.25 -72.85 L98.75 -27.3 99.75 -30.15 99.75 44.85 98.4 43.15 50.25 -17.65 50.25 -72.85" fill="#544720" fill-rule="evenodd" stroke="none"/>
      <path d="M21.7 -61.05 Q18.85 -60.9 15.7 -59.3 7.15 -54.95 1.85 -48.1 L4.65 -48.95 6.1 -49.15 Q9.0 -49.25 11.5 -47.95 14.05 -46.7 15.6 -44.4 20.7 -36.9 13.25 -19.7 10.3 -12.8 5.2 -7.85 -1.35 -1.4 -11.0 1.05 L-14.65 1.5 -20.8 1.0 Q-25.85 -0.15 -29.65 -3.05 L-28.9 1.05 Q-26.95 8.35 -22.5 12.25 -18.1 16.25 -12.15 16.0 -7.0 15.7 -1.3 12.5 9.45 6.35 18.45 -12.35 26.9 -29.85 28.9 -47.2 29.3 -51.35 28.7 -54.55 28.1 -57.65 26.55 -59.3 24.85 -61.2 21.7 -61.05 M50.55 -76.05 Q55.5 -70.1 57.45 -61.75 59.9 -50.8 56.75 -36.85 51.65 -12.2 41.95 8.35 36.05 20.85 28.35 32.1 L-71.8 32.1 Q-72.45 28.25 -72.6 24.1 -73.4 2.6 -60.95 -24.15 -51.0 -45.15 -36.6 -59.2 -28.8 -66.75 -18.85 -72.6 L-17.75 -73.25 Q-14.45 -75.2 -12.4 -75.9 -10.3 -76.75 -8.35 -76.85 -6.35 -76.95 -4.6 -76.3 2.15 -80.8 9.3 -83.8 13.85 -85.7 17.85 -86.65 L24.25 -87.6 Q31.9 -87.9 38.9 -84.9 45.85 -81.8 50.55 -76.05" fill="#544720" fill-rule="evenodd" stroke="none"/>
    </g>
    <g id="sprite5" transform="matrix(1.0, 0.0, 0.0, 1.0, 61.35, 74.75)">
      <use height="149.5" transform="matrix(1.0, 0.0, 0.0, 1.0, -61.35, -74.75)" width="122.7" xlink:href="#shape8"/>
    </g>
    <g id="shape8" transform="matrix(1.0, 0.0, 0.0, 1.0, 61.35, 74.75)">
      <path d="M9.0 38.85 L10.45 37.1 Q2.8 40.7 -4.75 41.0 -16.65 41.55 -25.85 34.15 -35.05 26.75 -38.45 13.9 L-39.6 7.85 Q-43.2 20.2 -42.45 30.2 -41.5 42.6 -33.85 50.75 -28.2 56.4 -20.35 56.0 -13.25 55.7 -5.35 51.1 2.5 46.5 9.0 38.85 M33.45 -43.7 Q32.9 -46.65 31.45 -48.2 29.85 -49.95 26.9 -49.8 24.25 -49.7 21.3 -48.2 13.3 -44.15 8.35 -37.65 9.6 -38.25 10.95 -38.5 L12.35 -38.65 Q15.05 -38.75 17.4 -37.55 19.75 -36.4 21.2 -34.2 26.0 -27.2 19.0 -11.1 16.25 -4.65 11.5 0.0 5.35 6.05 -3.65 8.35 L-7.1 8.8 -12.85 8.3 Q-17.55 7.25 -21.1 4.5 L-20.4 8.35 Q-18.6 15.15 -14.45 18.85 -10.3 22.6 -4.75 22.35 0.05 22.1 5.4 19.1 15.45 13.3 23.9 -4.2 31.8 -20.6 33.65 -36.85 34.05 -40.7 33.45 -43.7 M53.9 -63.9 Q58.55 -58.3 60.35 -50.45 62.65 -40.2 59.7 -27.15 54.95 -4.05 45.85 15.2 36.75 34.5 23.0 50.6 13.8 61.45 2.3 67.85 -9.2 74.2 -20.35 74.7 -28.25 75.0 -35.1 72.3 -42.05 69.6 -47.5 64.05 L-47.6 63.9 Q-60.6 50.1 -61.3 29.95 -62.05 9.8 -50.4 -15.3 -41.1 -34.95 -27.6 -48.1 -20.3 -55.15 -11.0 -60.65 L-10.0 -61.25 Q-6.9 -63.05 -5.0 -63.75 -3.0 -64.5 -1.2 -64.6 L2.3 -64.1 Q8.65 -68.35 15.3 -71.1 19.6 -72.9 23.3 -73.8 L29.3 -74.7 Q36.45 -75.0 43.0 -72.15 49.5 -69.25 53.9 -63.9" fill="#ffffff" fill-rule="evenodd" stroke="none"/>
      <path d="M55.65 -48.85 Q57.65 -39.75 54.95 -27.95 50.35 -5.55 41.5 13.2 32.7 31.9 19.35 47.55 10.8 57.6 0.3 63.5 -10.25 69.4 -20.35 69.8 -34.25 70.4 -43.95 60.55 -55.9 47.85 -56.45 29.0 -56.95 10.2 -46.0 -13.4 -37.15 -32.2 -24.6 -44.45 -17.9 -51.0 -8.7 -56.5 L-7.75 -57.05 Q-3.2 -59.65 -1.2 -59.75 0.95 -59.85 2.35 -58.35 8.1 -62.55 14.4 -65.45 19.7 -67.95 24.35 -69.1 L29.3 -69.8 Q35.35 -70.05 40.85 -67.65 46.4 -65.25 50.1 -60.75 54.15 -55.8 55.65 -48.85 M26.9 -54.7 Q23.05 -54.45 19.25 -52.55 10.1 -47.85 4.35 -40.3 -0.5 -33.9 -1.85 -27.25 L-2.1 -24.0 Q-2.05 -23.05 -1.8 -22.75 L-1.6 -22.75 Q-1.0 -22.75 -0.55 -23.05 1.4 -23.9 8.35 -31.65 10.05 -33.45 11.55 -33.7 L14.7 -33.35 Q16.2 -32.75 17.15 -31.4 20.45 -26.45 14.55 -12.85 8.95 0.1 -4.65 3.6 L-7.1 3.95 -13.05 3.2 Q-17.85 1.7 -20.8 -2.25 -24.0 -6.6 -24.1 -13.1 -27.65 0.25 -25.1 9.8 -22.9 18.15 -17.4 22.85 -11.95 27.5 -4.75 27.2 1.1 27.0 7.7 23.3 19.3 16.6 28.55 -3.15 36.6 -20.35 38.5 -36.5 39.5 -46.9 35.05 -51.6 32.0 -54.8 26.9 -54.7" fill="#ffeb00" fill-rule="evenodd" stroke="none"/>
      <path d="M25.2 -64.75 Q30.05 -66.0 35.25 -64.75 40.95 -63.45 45.05 -59.5 55.3 -49.55 50.6 -28.75 41.6 14.6 16.0 44.75 3.3 59.65 -12.25 64.0 -29.4 68.85 -40.7 57.35 -52.0 45.35 -51.95 27.0 -51.9 9.75 -41.95 -11.65 -33.05 -30.45 -20.3 -42.45 -14.8 -47.6 -5.55 -53.25 2.0 -57.55 -2.6 -52.7 L-6.2 -49.35 -11.3 -44.65 Q-21.25 -35.4 -26.95 -19.0 -32.85 -1.75 -29.4 11.15 -25.7 24.95 -14.95 29.75 -3.7 34.8 9.75 27.15 22.45 19.85 32.3 -0.65 40.95 -18.65 42.95 -36.15 44.45 -51.0 36.1 -56.7 28.3 -62.05 17.4 -56.5 7.65 -51.6 1.25 -43.45 -4.65 -36.0 -6.2 -27.95 -7.5 -21.15 -4.45 -19.05 -2.05 -17.4 1.3 -19.05 3.45 -20.1 8.0 -24.8 L12.1 -29.25 Q14.05 -29.75 13.8 -25.85 13.5 -21.5 10.45 -14.5 5.8 -3.7 -5.6 -0.7 -7.55 -0.2 -10.2 -0.75 -13.65 -1.45 -15.95 -3.65 -22.55 -9.9 -17.35 -25.55 -11.65 -41.85 2.85 -53.25 13.95 -62.0 25.2 -64.75" fill="#008717" fill-rule="evenodd" stroke="none"/>
    </g>
    <g id="shape9" transform="matrix(1.0, 0.0, 0.0, 1.0, 99.75, 42.95)">
      <path d="M-99.75 -39.95 L-99.75 -42.65 -98.5 -42.95 -49.15 7.45 99.75 -30.15 99.75 -27.45 -50.25 10.55 -99.75 -39.95" fill="#ba9f4e" fill-rule="evenodd" stroke="none"/>
      <path d="M-99.75 -39.95 L-50.25 10.55 -50.25 84.85 -99.75 34.85 -99.75 -39.95" fill="#91782e" fill-rule="evenodd" stroke="none"/>
      <path d="M-50.25 10.55 L99.75 -27.45 99.75 45.85 -50.25 84.85 -50.25 10.55" fill="#a38734" fill-rule="evenodd" stroke="none"/>
    </g>
  </defs>
</svg>
