<?xml version="1.0" encoding="UTF-8" standalone="no"?>
<svg xmlns:xlink="http://www.w3.org/1999/xlink" height="300.0px" width="300.0px" xmlns="http://www.w3.org/2000/svg">
  <g transform="matrix(1.0, 0.0, 0.0, 1.0, 0.0, 0.0)">
    <use height="176.05" transform="matrix(1.0, 0.0, 0.0, 1.0, 0.25, 53.55)" width="299.75" xlink:href="#sprite0"/>
  </g>
  <defs>
    <g id="sprite0" transform="matrix(1.0, 0.0, 0.0, 1.0, 149.85, 87.85)">
      <use height="176.05" transform="matrix(1.0, 0.0, 0.0, 1.0, -149.85, -87.85)" width="299.75" xlink:href="#shape0"/>
    </g>
    <g id="shape0" transform="matrix(1.0, 0.0, 0.0, 1.0, 149.85, 87.85)">
      <path d="M136.65 39.6 L136.65 61.95 127.6 61.95 127.6 39.6 114.35 39.6 114.35 32.25 149.9 32.25 149.9 39.6 136.65 39.6 M109.25 32.25 L109.25 61.95 100.2 61.95 100.2 32.25 109.25 32.25 M96.35 55.05 L80.9 55.05 80.9 47.45 96.35 47.45 96.35 55.05 M77.0 32.25 L77.0 61.95 62.5 61.95 44.7 39.6 45.0 61.95 36.25 61.95 36.25 32.25 50.65 32.25 68.7 54.85 68.45 32.25 77.0 32.25 M15.85 32.25 L32.1 61.95 22.25 61.95 19.3 56.65 0.1 56.65 -2.75 61.95 -13.0 61.95 3.7 32.25 15.85 32.25 M16.15 50.45 L9.65 38.65 3.35 50.45 16.15 50.45 M-61.25 32.3 Q-58.55 32.45 -56.8 33.35 -54.3 34.6 -53.35 37.55 -52.7 39.5 -52.7 43.1 -52.7 51.05 -56.05 53.2 -57.45 54.15 -60.2 54.45 L-65.1 54.65 -79.65 54.65 -79.65 61.95 -88.65 61.95 -88.65 32.25 -65.85 32.25 -61.25 32.3 M-66.5 47.45 Q-64.05 47.45 -63.05 46.85 -61.7 46.05 -61.7 43.8 -61.7 41.1 -62.8 40.25 -63.65 39.5 -66.5 39.5 L-79.65 39.5 -79.65 47.45 -66.5 47.45 M-16.8 61.95 L-46.3 61.95 -46.3 32.25 -37.2 32.25 -37.2 54.65 -16.8 54.65 -16.8 61.95 M-120.7 32.25 L-111.65 32.25 -111.65 47.8 Q-111.65 53.3 -112.2 55.45 -113.2 59.8 -118.05 61.4 -120.35 62.15 -124.45 62.25 L-131.15 62.25 -140.75 61.95 Q-148.05 61.25 -149.3 55.5 -149.85 53.15 -149.85 48.2 L-149.85 32.25 -140.75 32.25 -140.75 48.0 -140.6 51.7 Q-140.05 54.4 -136.55 54.9 L-131.75 55.1 -124.9 54.95 Q-121.8 54.65 -121.15 52.65 -120.7 51.25 -120.7 48.4 L-120.7 32.25 M-92.5 47.45 L-92.5 55.05 -107.95 55.05 -107.95 47.45 -92.5 47.45" fill="#000000" fill-rule="evenodd" stroke="none"/>
      <path d="M97.1 79.6 L95.95 79.9 91.0 79.9 90.5 80.0 90.4 80.35 Q90.4 81.2 91.0 81.8 91.65 82.35 92.5 82.35 93.45 82.35 94.2 81.6 L94.95 80.9 95.75 80.75 Q96.35 80.75 96.75 81.1 97.15 81.45 97.15 82.05 97.15 83.25 95.8 84.1 94.45 84.95 92.5 84.95 89.95 84.95 88.5 83.4 87.05 81.9 87.05 79.4 87.05 76.9 88.45 75.35 89.9 73.7 92.4 73.7 94.7 73.7 96.05 75.0 97.3 76.3 97.3 78.6 97.3 79.4 97.1 79.6 M93.45 77.65 Q93.95 77.65 93.95 77.3 93.95 76.8 93.55 76.45 93.1 76.0 92.4 76.0 91.7 76.0 91.1 76.45 90.55 76.95 90.55 77.35 90.55 77.65 91.4 77.65 L93.45 77.65 M82.4 83.3 Q82.4 84.7 81.2 84.7 L78.65 84.5 77.5 84.6 76.35 84.7 Q75.2 84.7 75.2 83.3 75.2 82.1 76.1 82.1 L76.75 82.25 Q77.1 82.25 77.1 80.85 L77.1 77.9 77.05 76.75 76.75 76.45 76.1 76.55 Q75.2 76.55 75.2 75.45 75.2 74.0 76.4 74.0 L78.05 74.25 79.9 74.0 Q80.5 74.0 80.5 75.05 L80.5 80.85 Q80.5 82.25 80.85 82.25 L81.5 82.1 Q82.4 82.1 82.4 83.3 M111.85 76.95 Q111.85 77.8 110.7 77.8 109.85 77.8 109.15 76.95 108.5 76.05 107.5 76.05 106.4 76.05 106.4 76.9 106.4 77.25 106.65 77.45 L107.65 77.8 108.55 77.95 Q110.5 78.35 111.3 78.85 112.45 79.6 112.45 81.3 112.45 82.95 111.1 84.0 109.85 84.95 108.15 84.95 106.2 84.95 104.8 83.8 104.85 84.75 103.75 84.75 102.6 84.75 102.6 83.85 L102.6 81.4 Q102.6 80.95 103.0 80.7 L103.8 80.5 104.65 80.7 105.3 81.35 106.15 82.2 107.65 82.55 108.75 82.25 109.1 81.65 Q109.1 81.2 108.65 80.95 L107.25 80.6 104.4 79.8 Q103.15 79.0 103.15 77.25 103.15 75.6 104.25 74.65 105.35 73.7 107.0 73.7 108.65 73.7 109.7 74.65 109.75 73.8 110.85 73.8 111.85 73.8 111.85 74.5 L111.7 75.75 111.85 76.95 M22.85 74.2 L22.95 74.7 22.95 80.85 Q22.95 82.25 23.3 82.25 L23.95 82.1 Q24.9 82.1 24.9 83.3 24.9 84.7 23.7 84.7 L22.25 84.5 21.55 84.6 20.95 84.7 Q20.2 84.7 20.2 84.05 L20.2 83.2 20.15 83.2 Q19.6 84.05 18.6 84.5 L16.55 84.95 Q15.0 84.95 14.05 84.1 13.2 83.2 13.2 81.65 L13.2 77.9 Q13.2 76.45 12.85 76.45 L12.15 76.55 Q11.25 76.55 11.25 75.45 11.25 74.0 12.55 74.0 L13.5 74.1 14.4 74.25 15.2 74.1 15.9 74.0 16.35 74.25 16.4 74.95 16.4 80.0 Q16.4 81.2 16.65 81.6 17.0 82.2 17.8 82.2 18.7 82.2 19.25 81.4 19.75 80.6 19.75 79.25 L19.75 77.9 Q19.75 76.45 19.35 76.45 L18.7 76.55 Q17.8 76.55 17.8 75.45 17.8 74.0 19.05 74.0 L19.95 74.1 20.85 74.25 21.6 74.1 22.3 74.0 22.85 74.2 M31.15 74.1 L31.8 74.25 33.25 74.0 33.75 74.3 33.9 75.1 33.9 75.45 Q35.15 73.7 37.15 73.7 39.35 73.7 40.5 75.35 41.6 76.8 41.6 79.15 41.6 81.55 40.55 83.15 39.35 84.95 37.1 84.95 36.4 84.95 35.7 84.55 L34.5 83.7 34.5 84.35 Q34.5 85.8 34.85 85.8 L35.2 85.7 35.55 85.65 Q36.45 85.65 36.45 86.85 36.45 88.2 35.25 88.2 L32.7 88.05 30.45 88.2 Q29.95 88.2 29.65 87.8 29.35 87.45 29.35 86.85 29.35 85.65 30.25 85.65 L30.65 85.7 30.95 85.8 Q31.3 85.8 31.3 84.35 L31.3 77.9 Q31.3 76.45 30.95 76.45 L30.25 76.55 Q29.35 76.55 29.35 75.45 29.35 74.0 30.5 74.0 L31.15 74.1 M0.0 73.25 Q-0.5 73.65 -0.5 74.25 -0.5 74.75 -0.1 75.1 L1.75 75.7 Q6.8 76.55 6.8 80.1 6.8 82.3 5.3 83.65 3.85 84.95 1.65 84.95 -0.35 84.95 -1.95 83.6 -1.95 84.75 -3.2 84.75 -4.55 84.75 -4.55 83.45 L-4.55 80.0 Q-4.55 79.4 -4.0 79.05 -3.55 78.75 -2.85 78.75 -1.55 78.75 -1.25 80.45 -1.0 82.05 1.1 82.05 L2.45 81.7 Q3.1 81.3 3.1 80.5 3.1 79.7 2.4 79.4 L0.35 78.75 -1.2 78.35 -2.7 77.6 Q-4.2 76.45 -4.2 74.5 -4.2 72.5 -2.85 71.3 -1.55 70.2 0.45 70.2 2.8 70.2 3.85 71.65 L3.9 71.6 Q3.9 70.35 5.1 70.35 6.45 70.35 6.45 71.55 L6.35 73.15 6.45 74.5 Q6.45 75.85 5.0 75.85 3.8 75.85 3.4 74.35 3.15 72.95 1.1 72.95 0.45 72.95 0.0 73.25 M36.2 76.45 Q35.45 76.45 35.0 77.15 34.5 77.95 34.5 79.25 34.5 80.65 35.05 81.4 35.5 82.05 36.25 82.05 37.05 82.05 37.6 81.45 38.2 80.7 38.2 79.25 38.2 77.85 37.6 77.1 37.05 76.45 36.2 76.45 M66.55 70.65 L68.4 70.45 Q69.05 70.45 69.05 71.55 L69.05 80.85 Q69.05 82.25 69.35 82.25 L70.05 82.1 Q70.95 82.1 70.95 83.3 70.95 84.7 69.75 84.7 L67.2 84.5 66.05 84.6 64.95 84.7 Q63.75 84.7 63.75 83.3 63.75 82.1 64.6 82.1 L65.3 82.25 Q65.7 82.25 65.7 80.85 L65.7 74.3 Q65.7 72.9 65.3 72.9 L64.6 73.05 Q63.75 73.05 63.75 71.9 63.75 70.45 64.95 70.45 L65.75 70.55 66.55 70.65 M77.3 69.9 Q77.9 69.35 78.65 69.35 79.45 69.35 80.0 69.9 80.6 70.45 80.6 71.3 80.6 72.1 80.0 72.65 79.5 73.2 78.65 73.2 77.9 73.2 77.3 72.65 76.75 72.1 76.75 71.3 76.75 70.45 77.3 69.9 M48.3 74.1 L48.95 74.25 50.4 74.0 Q50.8 74.0 50.95 74.3 L51.05 75.1 51.05 75.45 51.1 75.45 Q52.35 73.7 54.3 73.7 56.5 73.7 57.65 75.35 58.75 76.8 58.75 79.15 58.75 81.55 57.75 83.15 56.5 84.95 54.3 84.95 L52.9 84.55 51.7 83.7 51.7 84.35 Q51.7 85.8 52.05 85.8 L52.35 85.7 52.7 85.65 Q53.65 85.65 53.65 86.85 53.65 88.2 52.45 88.2 L49.9 88.05 47.65 88.2 Q47.1 88.2 46.85 87.8 46.55 87.45 46.55 86.85 46.55 85.65 47.45 85.65 L47.85 85.7 48.1 85.8 Q48.5 85.8 48.5 84.35 L48.5 77.9 Q48.5 76.45 48.1 76.45 L47.45 76.55 Q46.55 76.55 46.55 75.45 46.55 74.0 47.7 74.0 L48.3 74.1 M51.7 79.25 Q51.7 80.65 52.25 81.4 52.7 82.05 53.45 82.05 54.25 82.05 54.8 81.45 55.4 80.7 55.4 79.25 55.4 77.85 54.8 77.1 54.25 76.45 53.4 76.45 52.65 76.45 52.2 77.15 51.7 77.95 51.7 79.25 M-54.95 73.0 Q-56.05 73.0 -56.05 71.9 L-55.7 70.9 Q-55.4 70.45 -54.9 70.45 L-53.25 70.65 -51.45 70.45 Q-50.85 70.45 -50.65 70.75 L-50.55 71.9 -50.55 80.8 Q-50.55 82.2 -50.1 82.2 L-49.25 82.1 Q-48.2 82.1 -48.2 83.25 -48.2 84.7 -49.55 84.7 L-51.25 84.5 -52.75 84.7 Q-53.45 84.7 -53.35 83.05 L-53.4 83.05 Q-53.85 84.0 -54.75 84.5 L-56.6 84.95 Q-58.65 84.95 -59.95 83.15 -61.05 81.6 -61.05 79.4 -61.05 77.1 -59.95 75.5 -58.75 73.7 -56.6 73.7 -55.1 73.7 -53.75 75.15 L-53.75 74.35 Q-53.75 72.9 -54.1 72.9 L-54.95 73.0 M-71.9 74.2 Q-71.75 74.35 -71.75 74.9 L-71.75 76.45 -71.7 76.45 Q-71.5 75.2 -70.6 74.5 -69.7 73.8 -68.4 73.8 -67.3 73.8 -66.55 74.55 -65.75 75.3 -65.75 76.35 -65.75 77.15 -66.2 77.75 -66.7 78.4 -67.45 78.4 L-68.5 78.05 Q-68.9 77.65 -68.9 77.05 L-68.65 76.25 Q-70.15 76.15 -70.7 77.85 L-71.0 80.85 Q-71.0 82.25 -70.65 82.25 L-70.0 82.1 Q-69.05 82.1 -69.05 83.3 -69.05 83.9 -69.3 84.25 -69.6 84.7 -70.1 84.7 L-72.85 84.5 -74.05 84.6 -75.15 84.7 -75.9 84.25 -76.15 83.3 Q-76.15 82.1 -75.25 82.1 L-74.6 82.25 Q-74.2 82.25 -74.2 80.85 L-74.2 77.9 -74.3 76.7 -74.6 76.45 -75.25 76.55 Q-76.15 76.55 -76.15 75.45 L-75.9 74.45 -75.15 74.0 -73.75 74.25 -73.05 74.1 -72.4 74.0 -71.9 74.2 M-42.45 75.35 Q-40.95 73.7 -38.5 73.7 -36.15 73.7 -34.85 75.0 -33.55 76.3 -33.55 78.6 -33.55 79.4 -33.8 79.6 L-34.9 79.9 -39.9 79.9 -40.4 80.0 -40.5 80.35 Q-40.5 81.2 -39.9 81.8 -39.3 82.35 -38.35 82.35 -37.45 82.35 -36.75 81.6 L-35.95 80.9 -35.15 80.75 Q-34.5 80.75 -34.15 81.1 -33.75 81.45 -33.75 82.05 -33.75 83.2 -35.1 84.1 -36.45 84.95 -38.45 84.95 -40.9 84.95 -42.4 83.4 -43.85 81.9 -43.85 79.4 -43.85 76.9 -42.45 75.35 M-54.35 77.4 Q-55.1 76.45 -55.8 76.45 -56.8 76.45 -57.3 77.6 -57.65 78.45 -57.65 79.6 -57.65 80.6 -57.3 81.35 -56.8 82.2 -55.8 82.2 -54.8 82.2 -54.2 81.25 -53.75 80.5 -53.75 79.4 -53.75 78.15 -54.35 77.4 M-24.95 74.0 L-24.45 74.2 Q-24.3 74.35 -24.3 74.9 L-24.3 76.45 -24.25 76.45 Q-24.0 75.2 -23.15 74.5 -22.25 73.8 -20.95 73.8 -19.85 73.8 -19.1 74.55 -18.25 75.3 -18.25 76.35 -18.25 77.15 -18.75 77.75 -19.25 78.4 -20.05 78.4 -20.6 78.4 -21.05 78.05 -21.45 77.65 -21.45 77.05 L-21.2 76.25 Q-22.7 76.15 -23.25 77.85 L-23.55 80.85 Q-23.55 82.25 -23.2 82.25 L-22.55 82.1 Q-21.65 82.1 -21.65 83.3 -21.65 84.7 -22.65 84.7 L-25.4 84.5 -26.55 84.6 -27.7 84.7 Q-28.7 84.7 -28.7 83.3 -28.7 82.1 -27.8 82.1 L-27.15 82.25 Q-26.8 82.25 -26.8 80.85 L-26.8 77.9 -26.85 76.7 -27.15 76.45 -27.8 76.55 Q-28.7 76.55 -28.7 75.45 -28.7 74.0 -27.7 74.0 L-26.3 74.25 -25.6 74.1 -24.95 74.0 M-37.35 76.45 Q-37.75 76.0 -38.45 76.0 -39.2 76.0 -39.8 76.45 -40.4 76.95 -40.4 77.35 -40.4 77.65 -39.55 77.65 L-37.45 77.65 Q-36.95 77.65 -36.95 77.3 -36.95 76.8 -37.35 76.45 M-100.05 73.25 L-100.4 73.5 -100.55 74.9 -100.55 80.25 -100.45 81.6 Q-100.35 81.9 -100.05 81.9 L-99.15 81.75 Q-98.65 81.75 -98.3 82.2 L-98.05 83.15 Q-98.05 83.8 -98.4 84.25 -98.8 84.7 -99.5 84.7 L-101.95 84.5 -103.45 84.6 -104.65 84.7 Q-105.75 84.7 -105.75 83.15 L-105.55 82.2 -105.1 81.75 -104.3 81.9 Q-104.0 81.9 -104.0 80.25 L-104.0 73.2 -104.05 73.2 -106.85 82.9 Q-107.25 84.5 -108.05 84.5 L-109.45 84.5 Q-110.0 84.5 -110.25 84.15 L-110.7 82.9 -113.4 73.2 -113.45 73.2 -113.45 80.25 Q-113.45 81.9 -113.1 81.9 L-112.45 81.75 Q-112.1 81.75 -111.9 82.2 -111.75 82.6 -111.75 83.15 -111.75 84.7 -112.7 84.7 L-113.95 84.6 -115.15 84.5 -117.85 84.7 Q-118.6 84.7 -119.05 84.25 -119.45 83.85 -119.45 83.15 -119.45 82.5 -119.05 82.1 -118.7 81.75 -118.35 81.75 L-117.45 81.9 Q-117.15 81.9 -117.05 81.6 -116.9 81.25 -116.9 80.25 L-116.9 74.9 -117.0 73.55 Q-117.1 73.25 -117.45 73.25 L-118.35 73.4 Q-118.85 73.4 -119.15 72.95 L-119.45 72.0 Q-119.45 70.45 -117.5 70.45 L-115.9 70.55 -114.35 70.65 -111.55 70.45 Q-111.0 70.45 -110.8 70.75 -110.6 71.05 -110.35 72.0 L-108.7 79.1 -108.65 79.1 -106.95 72.3 Q-106.65 71.2 -106.35 70.85 -106.05 70.45 -105.35 70.45 L-103.8 70.55 -102.3 70.65 -99.5 70.45 Q-98.8 70.45 -98.4 70.95 -98.05 71.3 -98.05 72.0 L-98.3 72.9 Q-98.65 73.4 -99.15 73.4 L-100.05 73.25 M-92.05 74.1 L-91.1 74.25 -90.3 74.1 -89.65 74.0 -89.2 74.25 -89.1 74.95 -89.1 80.0 -88.9 81.6 Q-88.5 82.2 -87.75 82.2 -86.8 82.2 -86.3 81.4 -85.8 80.65 -85.8 79.25 L-85.8 77.9 Q-85.8 76.45 -86.15 76.45 L-86.85 76.55 Q-87.75 76.55 -87.75 75.45 -87.75 74.0 -86.5 74.0 L-85.55 74.1 -84.7 74.25 -83.95 74.1 -83.2 74.0 Q-82.6 74.0 -82.6 74.7 L-82.6 80.85 Q-82.6 82.25 -82.25 82.25 L-81.55 82.1 Q-80.65 82.1 -80.65 83.3 -80.65 84.7 -81.85 84.7 L-83.3 84.5 -83.95 84.6 -84.6 84.7 Q-85.3 84.7 -85.3 84.05 L-85.3 83.2 -85.35 83.2 Q-85.9 84.05 -86.95 84.5 L-88.95 84.95 Q-90.55 84.95 -91.45 84.1 -92.35 83.2 -92.35 81.65 L-92.35 77.9 Q-92.35 76.45 -92.7 76.45 L-93.4 76.55 Q-94.3 76.55 -94.3 75.45 -94.3 74.0 -93.0 74.0 L-92.05 74.1" fill="#990000" fill-rule="evenodd" stroke="none"/>
      <path d="M-58.4 -87.4 L55.6 -87.4 55.6 26.6 -58.4 26.6 -58.4 -87.4" fill="#ffffff" fill-rule="evenodd" stroke="none"/>
      <path d="M54.75 -64.7 L53.95 -63.1 53.2 -63.65 53.25 -63.65 Q51.95 -64.65 51.1 -64.6 49.75 -64.75 49.3 -63.2 L49.25 -63.15 Q48.85 -61.9 50.65 -58.25 L50.85 -57.85 50.5 -57.8 49.95 -57.3 42.75 -43.25 33.6 -47.0 33.05 -49.45 36.2 -49.25 Q41.8 -49.5 44.7 -53.55 48.95 -59.55 44.25 -65.3 L44.25 -65.35 Q42.2 -67.7 39.55 -68.6 L34.1 -68.45 Q30.2 -66.8 27.05 -64.3 L27.0 -64.25 25.45 -62.85 22.55 -66.05 22.4 -66.2 15.2 -71.6 Q7.35 -77.4 4.85 -78.45 2.2 -79.7 -8.65 -76.55 L-18.55 -73.4 Q-18.95 -73.3 -19.15 -73.0 L-19.3 -72.3 -19.3 -71.65 -21.1 -70.85 Q-24.2 -69.5 -25.05 -68.1 L-25.0 -68.2 Q-26.15 -66.65 -25.8 -64.9 L-24.95 -62.25 Q-24.6 -60.35 -21.15 -60.85 L-21.1 -60.9 Q-19.45 -61.2 -19.15 -61.5 L-19.3 -60.55 -19.3 -60.6 -19.45 -58.75 Q-19.3 -57.2 -18.0 -57.3 -16.7 -57.15 -14.9 -59.8 -13.4 -61.95 -13.2 -63.4 L-6.25 -65.3 0.8 -66.8 7.9 -60.9 -5.9 -45.15 -31.65 -36.55 -31.85 -36.45 -58.25 -20.9 -59.0 -20.95 -59.0 -87.85 56.2 -87.85 56.2 -67.1 55.75 -66.45 55.7 -66.4 54.75 -64.7 M-59.0 -12.95 L-59.0 -18.8 -58.1 -18.7 -57.45 -18.85 -30.85 -34.55 -5.0 -43.15 -4.55 -43.5 10.2 -60.35 10.45 -60.85 10.4 -61.4 10.1 -61.85 1.8 -68.75 1.4 -69.0 0.9 -69.0 -6.75 -67.4 Q-15.4 -65.3 -15.35 -63.7 L-15.35 -63.65 Q-15.55 -62.65 -16.65 -61.0 L-16.7 -61.0 -17.15 -60.35 -17.0 -61.9 Q-17.1 -63.55 -18.15 -63.5 L-17.95 -63.4 -21.5 -63.0 -21.45 -63.0 -22.9 -62.95 -22.95 -63.05 -23.7 -65.3 Q-23.85 -66.15 -23.25 -66.9 L-23.25 -66.95 Q-22.6 -67.9 -20.25 -68.9 L-17.85 -69.85 -17.3 -70.3 -17.1 -70.95 -17.15 -71.6 -8.0 -74.5 -8.05 -74.5 Q1.7 -77.3 4.0 -76.45 6.35 -75.4 13.95 -69.85 L13.9 -69.85 20.95 -64.6 24.55 -60.6 Q24.85 -60.3 25.3 -60.25 L26.1 -60.55 28.4 -62.6 Q31.3 -64.9 34.95 -66.5 36.7 -67.3 38.85 -66.55 41.0 -65.8 42.6 -63.95 46.25 -59.45 42.95 -54.8 40.6 -51.6 36.1 -51.4 L33.1 -51.6 33.15 -51.6 31.85 -51.85 31.15 -51.75 30.65 -51.25 Q30.45 -50.95 30.55 -50.55 L31.6 -46.0 Q31.65 -45.75 31.85 -45.55 32.0 -45.35 32.25 -45.25 L42.85 -40.9 Q43.25 -40.75 43.65 -40.9 L44.2 -41.4 51.45 -55.45 52.85 -54.9 53.5 -54.9 54.05 -55.3 54.3 -55.9 54.1 -56.55 52.55 -59.2 Q51.5 -61.4 51.35 -62.3 L51.9 -61.95 Q52.85 -61.2 53.4 -60.9 L53.95 -60.6 54.4 -60.5 Q55.4 -60.5 55.5 -61.35 L56.2 -62.85 56.2 -44.75 55.65 -43.6 54.95 -42.2 54.95 -42.25 Q49.95 -32.55 47.75 -32.05 45.15 -31.85 35.9 -34.8 L26.85 -37.95 26.35 -38.0 25.85 -37.8 9.6 -24.9 9.2 -24.25 7.6 -15.65 Q5.65 -6.35 3.5 -1.85 1.9 1.05 -10.0 5.9 L-22.2 10.25 -22.65 10.55 -22.9 11.0 -24.35 16.65 -24.3 16.6 Q-25.7 21.45 -26.05 22.0 L-26.9 21.55 -27.5 20.95 Q-28.55 9.35 -29.1 6.85 L-27.65 6.4 -24.9 5.95 -24.35 5.65 -24.0 5.15 -24.0 4.5 -25.35 0.55 -10.45 -4.35 -10.0 -4.65 -9.75 -5.15 -5.2 -24.45 Q-5.15 -24.75 -5.25 -25.05 -5.35 -25.4 -5.6 -25.55 L-6.2 -25.75 -26.2 -26.5 -26.8 -26.35 -48.4 -12.25 -49.8 -12.75 -50.35 -12.8 -50.85 -12.55 -53.5 -10.35 -58.55 -12.75 -58.6 -12.75 -59.0 -12.95 M56.2 -40.0 L56.2 27.05 -59.0 27.05 -59.0 -10.55 -53.8 -8.1 -53.2 -8.0 Q-52.9 -8.05 -52.65 -8.25 L-50.0 -10.5 -48.65 -10.05 -48.15 -9.95 Q-47.95 -10.0 -47.7 -10.15 L-25.95 -24.35 -7.6 -23.65 -11.7 -6.25 -27.1 -1.15 -27.7 -0.6 -27.75 0.2 -26.5 4.0 -28.1 4.3 Q-29.7 4.65 -30.4 5.05 -32.05 5.95 -31.25 7.15 L-31.25 7.2 Q-30.8 8.3 -29.6 21.5 L-29.3 22.15 -28.3 23.15 -28.2 23.25 Q-26.35 24.65 -25.15 23.95 L-25.1 23.9 Q-24.1 23.6 -22.25 17.2 L-20.95 12.1 -9.3 7.95 -9.25 7.9 Q3.9 2.6 5.45 -0.9 7.65 -5.55 9.7 -15.2 L9.7 -15.25 11.25 -23.4 26.7 -35.7 35.2 -32.75 35.25 -32.75 Q45.15 -29.55 48.0 -29.9 50.9 -30.05 56.2 -40.0" fill="#a3a3a3" fill-rule="evenodd" stroke="none"/>
      <path d="M56.2 -44.75 L56.2 -40.0 Q50.9 -30.05 48.0 -29.9 45.15 -29.55 35.25 -32.75 L35.2 -32.75 26.7 -35.7 11.25 -23.4 9.7 -15.25 9.7 -15.2 Q7.65 -5.55 5.45 -0.9 3.9 2.6 -9.25 7.9 L-9.3 7.95 -20.95 12.1 -22.25 17.2 Q-24.1 23.6 -25.1 23.9 L-25.15 23.95 Q-26.35 24.65 -28.2 23.25 L-28.3 23.15 -29.3 22.15 -29.6 21.5 Q-30.8 8.3 -31.25 7.2 L-31.25 7.15 Q-32.05 5.95 -30.4 5.05 -29.7 4.65 -28.1 4.3 L-26.5 4.0 -27.75 0.2 -27.7 -0.6 -27.1 -1.15 -11.7 -6.25 -7.6 -23.65 -25.95 -24.35 -47.7 -10.15 Q-47.95 -10.0 -48.15 -9.95 L-48.65 -10.05 -50.0 -10.5 -52.65 -8.25 Q-52.9 -8.05 -53.2 -8.0 L-53.8 -8.1 -59.0 -10.55 -59.0 -12.95 -58.6 -12.75 -58.55 -12.75 -53.5 -10.35 -50.85 -12.55 -50.35 -12.8 -49.8 -12.75 -48.4 -12.25 -26.8 -26.35 -26.2 -26.5 -6.2 -25.75 -5.6 -25.55 Q-5.35 -25.4 -5.25 -25.05 -5.15 -24.75 -5.2 -24.45 L-9.75 -5.15 -10.0 -4.65 -10.45 -4.35 -25.35 0.55 -24.0 4.5 -24.0 5.15 -24.35 5.65 -24.9 5.95 -27.65 6.4 -29.1 6.85 Q-28.55 9.35 -27.5 20.95 L-26.9 21.55 -26.05 22.0 Q-25.7 21.45 -24.3 16.6 L-24.35 16.65 -22.9 11.0 -22.65 10.55 -22.2 10.25 -10.0 5.9 Q1.9 1.05 3.5 -1.85 5.65 -6.35 7.6 -15.65 L9.2 -24.25 9.6 -24.9 25.85 -37.8 26.35 -38.0 26.85 -37.95 35.9 -34.8 Q45.15 -31.85 47.75 -32.05 49.95 -32.55 54.95 -42.25 L54.95 -42.2 55.65 -43.6 56.2 -44.75" fill="#ffffff" fill-rule="evenodd" stroke="none"/>
      <path d="M7.95 -72.25 L8.9 -71.0 9.0 -69.95 Q8.95 -69.4 9.3 -69.25 L8.35 -66.95 Q7.65 -65.75 6.35 -65.5 L6.0 -65.1 Q5.85 -64.8 6.0 -64.6 6.45 -64.5 6.65 -64.9 L7.1 -65.5 Q7.8 -65.65 8.0 -65.05 8.2 -64.5 7.75 -64.15 L8.9 -63.3 10.1 -62.5 10.15 -61.8 Q10.1 -61.3 10.2 -61.1 10.55 -61.1 10.95 -61.45 11.25 -61.85 11.85 -61.7 L11.95 -61.45 12.1 -61.35 11.7 -60.35 Q11.35 -59.85 11.5 -59.35 10.7 -59.0 10.3 -59.5 L8.5 -57.05 Q7.45 -55.5 8.2 -54.1 7.7 -50.45 7.85 -45.8 L8.45 -37.35 Q8.9 -38.45 10.0 -38.35 11.2 -38.15 11.1 -37.0 11.1 -36.05 10.0 -35.8 8.95 -35.6 8.55 -36.7 8.2 -33.15 8.7 -31.35 8.75 -31.15 9.15 -31.1 L9.65 -31.0 9.5 -30.65 9.3 -30.4 Q8.9 -30.35 8.7 -30.75 L8.2 -31.25 Q8.2 -30.4 9.4 -30.15 10.65 -29.85 11.35 -30.4 L11.1 -29.5 10.45 -28.9 10.65 -27.9 10.65 -26.8 12.45 -26.6 Q13.55 -26.1 13.8 -26.2 13.7 -25.85 14.25 -25.2 14.7 -24.65 14.3 -24.25 L14.55 -24.0 14.85 -23.9 Q14.35 -22.1 13.1 -20.85 L13.55 -19.75 13.45 -18.3 Q13.45 -18.15 13.85 -18.0 14.2 -17.9 14.15 -17.6 L13.7 -17.4 13.2 -17.3 Q12.85 -16.2 13.05 -14.6 L13.35 -11.55 13.25 -8.7 13.2 -5.9 13.7 -3.8 13.95 -1.55 13.4 0.4 Q12.9 1.85 12.75 2.65 12.2 5.9 12.1 7.5 L12.0 10.3 11.95 13.05 11.6 14.65 11.25 16.25 Q10.3 24.75 10.65 37.95 L10.65 40.4 10.55 42.85 10.8 45.2 10.9 47.5 10.65 51.0 Q10.55 53.1 10.75 54.95 L11.2 57.0 Q11.35 58.15 10.75 58.65 L9.05 58.7 Q8.1 58.0 8.2 56.7 L8.8 51.8 8.65 48.4 Q8.45 46.35 8.55 45.3 L8.9 42.85 8.9 30.55 Q8.95 22.6 8.55 17.7 8.45 16.1 8.8 13.65 L9.3 9.4 Q9.35 8.05 10.2 3.95 10.9 0.55 10.65 -1.45 L10.65 -4.1 10.75 -7.15 Q10.65 -11.45 10.9 -15.85 L10.5 -16.7 Q10.25 -17.2 10.55 -17.6 9.85 -17.8 9.9 -16.9 L10.1 -15.5 9.55 -14.8 Q9.4 -14.45 9.75 -14.0 L9.15 -13.85 8.7 -13.65 Q7.8 -11.5 7.55 -6.45 L7.7 -3.35 7.9 -0.4 7.7 0.1 7.55 0.75 Q7.45 1.45 7.5 3.15 7.4 4.45 6.45 4.5 L5.85 4.25 5.35 3.65 5.6 -3.1 Q5.9 -7.35 5.8 -9.45 L6.0 -9.85 6.1 -10.3 5.6 -11.6 5.1 -12.95 3.95 -14.4 Q3.3 -15.3 3.45 -16.2 2.85 -16.2 2.7 -15.55 L2.65 -14.1 2.45 -14.55 2.2 -14.95 Q1.35 -14.7 0.95 -13.75 0.65 -13.05 0.55 -11.65 L2.75 -11.05 Q3.75 -10.4 3.35 -9.0 L2.75 -8.3 Q2.5 -6.5 2.5 -4.1 L2.65 0.3 2.5 2.65 2.45 4.95 2.6 5.65 2.75 6.35 Q3.15 11.5 1.35 11.35 0.4 11.25 0.4 9.85 L0.45 7.3 Q0.25 5.45 0.6 -0.15 0.95 -5.9 0.7 -8.3 L0.25 -8.8 0.0 -9.35 -0.65 -9.65 -1.3 -10.05 Q-1.75 -10.55 -1.85 -11.9 -2.05 -13.55 -2.2 -14.0 L-3.2 -15.35 Q-4.05 -16.05 -4.9 -16.0 -5.25 -14.95 -5.7 -14.5 -6.35 -13.95 -7.6 -14.1 L-8.45 -15.05 Q-8.85 -15.65 -8.65 -16.55 -8.45 -17.15 -7.55 -17.55 -6.75 -17.9 -6.75 -18.4 L-7.0 -18.6 -7.25 -18.75 Q-7.2 -20.5 -5.75 -21.45 -4.4 -22.3 -2.85 -21.8 L-1.85 -20.95 Q-1.25 -20.45 -0.5 -20.5 L-0.3 -20.75 -0.4 -21.1 1.05 -20.5 Q1.95 -20.25 2.55 -20.75 L3.55 -19.75 Q4.05 -19.15 4.15 -18.3 L5.3 -18.85 6.6 -19.25 Q7.0 -20.45 8.45 -20.4 9.9 -20.35 10.1 -19.0 10.6 -19.35 10.25 -19.6 L9.65 -20.15 Q9.9 -20.7 9.3 -21.35 L8.35 -22.4 8.55 -22.55 8.7 -22.85 Q8.3 -23.3 7.2 -23.6 L5.55 -24.15 Q5.35 -24.1 5.5 -23.9 5.65 -23.65 5.45 -23.65 L4.15 -24.15 2.75 -24.5 2.55 -24.55 2.3 -24.7 Q1.6 -24.5 1.9 -22.7 2.2 -21.1 0.8 -21.1 0.0 -21.1 -0.25 -21.8 -0.55 -21.1 -0.95 -21.45 L-0.25 -23.25 Q0.35 -24.15 1.6 -24.15 L1.55 -24.5 1.45 -24.95 0.9 -25.25 0.2 -25.4 0.1 -26.0 Q-0.8 -26.1 -1.3 -27.2 L-2.2 -28.9 -2.8 -28.8 -3.4 -29.0 -3.95 -28.65 Q-4.2 -28.5 -4.65 -28.65 L-4.95 -28.25 -5.05 -27.7 Q-5.3 -27.7 -5.35 -28.05 L-5.6 -28.45 Q-7.4 -28.05 -8.9 -28.85 -10.2 -29.55 -10.85 -31.0 L-11.15 -30.9 -11.5 -30.85 Q-11.15 -31.3 -11.5 -32.25 -12.55 -32.35 -12.6 -33.2 -12.6 -34.0 -11.75 -34.35 -11.95 -35.4 -11.25 -36.6 L-9.7 -38.55 -9.7 -38.95 -9.8 -39.35 -9.4 -39.1 -9.1 -38.8 -7.7 -39.5 -6.2 -40.05 Q-5.85 -39.7 -5.05 -39.7 -4.2 -39.65 -4.1 -40.15 L-3.95 -39.95 -4.0 -39.45 -2.45 -38.7 Q-1.65 -38.2 -1.4 -37.5 -1.2 -37.5 -1.0 -37.65 L-0.65 -37.85 Q-0.55 -37.55 -0.8 -37.35 L-1.1 -36.9 -0.15 -35.3 1.0 -33.9 Q0.9 -33.55 0.65 -33.75 L0.2 -34.0 Q0.95 -32.95 2.35 -32.6 L5.45 -32.25 5.45 -32.8 Q5.3 -33.15 5.55 -33.3 5.85 -33.4 6.1 -33.1 L5.85 -38.0 5.65 -43.0 5.35 -43.4 Q5.0 -43.6 5.0 -43.75 5.0 -44.0 5.35 -44.2 L5.65 -44.6 5.3 -50.8 Q5.0 -54.35 3.9 -55.95 L2.2 -57.45 0.7 -58.9 Q0.6 -59.3 1.25 -59.25 0.85 -60.0 1.4 -61.2 1.95 -62.5 1.6 -63.3 1.7 -63.6 2.0 -63.4 L2.45 -63.2 3.4 -63.9 3.9 -64.6 Q3.9 -65.05 2.8 -65.6 L1.35 -66.45 0.35 -68.65 0.7 -71.55 Q1.75 -72.0 2.2 -73.1 L6.85 -73.45 7.95 -72.25 M2.05 -64.5 Q2.15 -63.6 1.3 -63.65 0.4 -63.8 0.7 -64.7 0.95 -65.0 1.45 -64.9 2.0 -64.9 2.05 -64.5 M17.3 -59.7 L16.75 -59.25 Q16.35 -59.2 16.0 -59.5 15.85 -60.4 16.55 -60.45 17.3 -60.5 17.3 -59.7 M14.65 -60.4 L14.65 -59.95 Q14.0 -59.85 14.05 -60.3 L14.65 -60.4 M11.05 -55.8 Q11.2 -55.15 10.65 -55.05 10.15 -54.95 9.9 -55.45 9.65 -55.95 10.3 -56.2 10.9 -56.45 11.05 -55.8 M31.0 -66.6 Q31.05 -66.2 30.6 -66.1 L29.85 -66.25 Q29.7 -66.85 30.35 -66.95 30.9 -67.1 31.0 -66.6 M33.45 -38.1 Q33.1 -37.1 34.15 -36.45 L33.95 -34.9 Q33.85 -34.0 34.05 -33.3 L33.5 -33.2 33.1 -32.85 Q33.0 -32.55 33.15 -32.35 L33.35 -31.9 32.8 -31.8 32.3 -31.6 32.45 -31.2 32.55 -30.75 Q31.9 -31.15 31.3 -30.5 30.7 -29.8 30.2 -29.95 29.5 -24.45 29.5 -19.25 L29.4 -18.4 29.8 -15.8 30.1 -13.2 29.75 -11.45 29.4 -9.6 29.4 -6.8 28.8 -1.8 Q28.5 1.15 28.55 4.95 L28.8 11.95 Q29.1 16.8 27.4 16.8 26.3 16.8 26.15 15.0 L26.35 11.7 26.5 -1.3 Q26.45 -9.6 26.95 -14.0 L27.1 -14.3 27.3 -14.6 27.1 -18.6 Q26.9 -21.2 26.25 -22.6 24.95 -22.4 24.4 -23.15 23.95 -23.85 24.2 -24.85 24.45 -25.85 25.25 -26.2 26.1 -26.7 27.05 -26.0 L27.4 -26.2 27.75 -26.2 26.8 -29.0 Q26.05 -30.6 25.05 -29.15 L24.95 -29.55 25.05 -30.05 Q24.0 -31.25 23.1 -31.1 L23.2 -31.45 23.35 -31.7 22.2 -33.1 22.0 -35.75 Q22.0 -37.25 22.85 -37.95 22.85 -38.45 22.3 -38.65 L22.65 -38.75 23.1 -38.65 Q23.85 -39.8 25.35 -40.5 L28.25 -41.2 29.5 -40.8 30.8 -40.65 33.45 -38.1 M20.15 -31.6 Q21.2 -30.85 21.05 -29.7 20.8 -28.2 19.15 -28.2 17.5 -28.15 17.2 -29.7 L15.7 -29.65 Q15.0 -29.85 14.75 -30.25 13.85 -31.8 15.6 -32.65 17.35 -33.45 18.0 -31.7 L20.15 -31.6 M19.8 -24.45 L20.3 -23.65 Q20.55 -22.3 19.2 -22.1 17.85 -21.85 17.75 -23.3 17.75 -24.15 18.6 -24.5 L19.8 -24.45 M17.4 -19.5 L17.55 -18.7 Q17.35 -18.35 16.75 -18.4 16.4 -18.8 16.6 -19.2 16.75 -19.6 17.4 -19.5 M14.95 -20.0 Q15.6 -19.95 15.45 -19.15 15.2 -18.8 14.8 -18.9 L14.3 -19.35 Q14.35 -20.0 14.95 -20.0 M6.1 -22.25 Q6.35 -22.15 6.2 -21.95 L5.9 -21.7 Q5.7 -21.75 5.85 -21.95 L6.1 -22.25 M6.6 -22.8 L6.85 -23.3 6.85 -22.9 6.6 -22.4 Q6.45 -22.5 6.6 -22.8 M5.55 -20.8 L5.55 -20.3 Q5.15 -20.1 5.1 -20.45 5.0 -20.8 5.2 -20.95 L5.55 -20.8 M4.85 -22.5 L4.7 -22.8 Q4.65 -23.0 4.75 -23.05 5.15 -23.2 4.85 -22.5 M5.0 -22.05 Q5.5 -22.05 5.2 -21.2 4.8 -21.2 4.75 -21.55 L5.0 -22.05 M3.35 -12.4 L2.65 -12.25 Q2.15 -12.9 2.85 -13.15 3.55 -13.3 3.35 -12.4 M21.25 -21.8 Q23.0 -22.3 23.05 -20.6 23.1 -18.85 21.5 -19.0 20.4 -19.15 20.3 -20.3 20.15 -21.45 21.25 -21.8 M-7.5 -82.4 Q-5.6 -82.2 -5.5 -80.4 -5.4 -79.3 -6.2 -78.6 -6.9 -77.95 -7.95 -77.95 -10.55 -78.0 -10.05 -81.0 -9.3 -82.65 -7.5 -82.4 M-21.7 -62.5 Q-21.35 -62.3 -21.3 -61.8 -21.2 -60.85 -21.75 -60.7 -22.2 -60.55 -22.8 -60.95 -23.35 -61.4 -23.35 -61.85 -23.35 -62.45 -22.45 -62.6 L-21.7 -62.5 M-37.1 -61.45 Q-36.2 -61.45 -36.2 -60.6 -37.1 -60.55 -37.1 -61.45 M-36.25 -57.6 Q-35.85 -57.4 -35.85 -56.8 -35.75 -55.85 -36.3 -55.65 -36.75 -55.45 -37.35 -55.85 -37.95 -56.25 -38.0 -56.75 -38.05 -57.3 -37.2 -57.6 -36.65 -57.8 -36.25 -57.6 M-21.8 -56.7 Q-21.95 -57.45 -21.45 -57.75 -21.0 -58.0 -20.35 -57.75 -19.8 -57.05 -20.55 -56.5 -21.3 -55.95 -21.8 -56.7 M-21.35 -54.25 L-21.05 -53.75 Q-20.55 -51.45 -22.9 -51.4 -25.3 -51.3 -24.9 -53.55 -24.75 -54.5 -23.75 -54.9 L-21.8 -54.85 -21.35 -54.25 M-6.2 -73.2 L-6.65 -73.3 Q-6.9 -74.2 -6.2 -74.2 -5.45 -74.2 -5.75 -73.3 L-6.2 -73.2 M-7.7 -70.5 Q-7.7 -71.5 -6.85 -71.1 -6.05 -70.7 -6.75 -70.05 -7.5 -70.05 -7.7 -70.5 M-18.75 -62.2 L-18.5 -61.8 Q-18.45 -60.8 -19.4 -61.2 -20.35 -61.7 -19.35 -62.25 L-18.75 -62.2 M-16.15 -66.45 L-16.4 -66.7 Q-16.5 -67.4 -15.9 -67.45 -15.35 -67.45 -15.4 -66.8 -15.75 -66.35 -16.15 -66.45 M-19.25 -59.35 Q-19.8 -60.55 -18.6 -60.6 -17.4 -60.6 -17.95 -59.5 -18.15 -59.3 -18.5 -59.25 L-19.25 -59.35 M-18.5 -50.65 Q-18.75 -51.2 -18.5 -51.6 -18.25 -52.05 -17.6 -51.9 -17.0 -51.5 -17.4 -50.85 -17.8 -50.2 -18.5 -50.65 M-0.85 -60.6 Q-1.25 -60.6 -1.75 -60.95 -1.85 -61.65 -1.4 -61.85 -0.9 -62.0 -0.65 -61.6 -0.5 -60.95 -0.85 -60.6 M-3.6 -57.7 Q-3.1 -56.85 -4.2 -57.25 -4.15 -58.55 -3.6 -57.7 M-51.15 -29.6 L-50.6 -29.7 Q-50.45 -29.2 -50.85 -29.15 -51.3 -29.05 -51.15 -29.6 M-42.85 -30.05 L-43.25 -30.15 -43.5 -30.4 Q-43.45 -30.95 -42.95 -30.95 -42.45 -30.95 -42.6 -30.25 L-42.85 -30.05 M-48.45 -35.9 Q-48.6 -36.85 -47.6 -37.15 -46.15 -37.6 -46.05 -36.15 -46.0 -34.7 -47.35 -34.8 -48.3 -34.9 -48.45 -35.9 M-49.2 -23.9 Q-49.0 -23.65 -49.2 -23.4 -49.4 -23.05 -49.8 -23.2 L-49.6 -23.65 -49.2 -23.9 M-41.25 -24.75 Q-41.25 -25.35 -40.4 -25.6 L-39.15 -25.5 Q-38.8 -25.2 -38.85 -24.5 -39.05 -22.65 -40.65 -23.8 -41.25 -24.25 -41.25 -24.75 M-16.55 -34.6 Q-16.75 -35.55 -16.05 -35.75 -15.3 -35.95 -15.15 -35.3 -14.95 -34.65 -15.5 -34.4 -16.05 -34.05 -16.55 -34.6 M-18.15 -26.5 Q-18.85 -25.95 -19.25 -26.8 -19.25 -27.7 -18.15 -27.6 -17.4 -27.1 -18.15 -26.5 M-15.5 -25.85 Q-15.55 -25.5 -16.05 -25.4 -16.6 -25.35 -16.8 -25.75 -16.9 -26.6 -16.15 -26.6 -15.5 -26.6 -15.5 -25.85 M-11.65 -24.95 L-10.75 -25.4 -9.95 -24.85 Q-10.05 -23.75 -11.05 -23.8 -11.15 -22.15 -12.6 -22.0 -14.0 -21.85 -14.7 -23.05 -14.95 -24.5 -13.75 -25.15 -12.6 -25.85 -11.65 -24.95 M-5.25 -26.6 L-5.05 -26.9 Q-4.25 -27.0 -4.3 -26.35 L-4.65 -26.45 -4.55 -26.25 Q-4.55 -26.1 -4.65 -26.1 L-4.4 -25.6 -4.0 -25.15 Q-3.75 -24.4 -4.2 -23.65 L-4.65 -22.5 Q-5.3 -22.45 -5.15 -22.85 -7.15 -22.45 -7.2 -24.4 -7.25 -26.4 -5.4 -26.2 L-5.25 -26.6 M-3.05 -26.9 L-2.7 -27.35 -2.1 -27.25 Q-2.0 -26.9 -2.35 -26.7 L-2.75 -26.75 -3.05 -26.9 M-22.8 -46.0 Q-21.55 -44.55 -22.05 -42.45 -22.55 -40.25 -24.45 -40.05 -25.3 -39.05 -25.85 -36.45 -26.45 -33.4 -26.9 -32.5 -26.8 -32.15 -26.3 -31.95 L-25.5 -31.7 Q-25.45 -31.45 -25.55 -31.25 L-25.6 -30.85 -24.5 -29.3 Q-23.95 -28.2 -25.0 -27.95 L-25.65 -28.05 -26.2 -28.3 Q-26.7 -28.05 -26.8 -26.7 -26.9 -25.35 -27.35 -25.05 -26.6 -24.0 -27.2 -22.8 -27.95 -21.2 -27.9 -20.5 L-26.35 -20.4 Q-25.45 -20.1 -25.6 -19.0 L-24.7 -17.9 Q-24.15 -17.05 -24.55 -16.2 L-25.4 -14.35 Q-25.75 -13.5 -25.7 -12.65 L-25.35 -9.25 Q-25.15 -7.6 -25.25 -7.1 -25.45 -5.9 -26.8 -6.1 -28.05 -6.3 -27.55 -10.45 -27.05 -14.95 -28.05 -15.75 L-28.3 -15.45 -28.75 -15.4 Q-28.25 -15.6 -28.4 -16.3 L-28.55 -17.75 -29.35 -17.85 Q-29.85 -17.7 -29.9 -18.2 -29.7 -18.5 -29.35 -18.4 L-28.75 -18.1 -29.15 -18.55 -29.9 -19.0 Q-29.8 -19.6 -30.45 -23.1 -30.85 -25.2 -28.75 -25.6 L-28.75 -27.2 Q-28.8 -28.05 -29.1 -28.45 -30.45 -28.95 -30.2 -30.55 -30.0 -32.1 -28.55 -32.25 -28.35 -32.95 -28.75 -33.7 L-29.55 -34.8 -29.35 -35.5 Q-28.15 -35.5 -27.9 -36.65 -27.65 -37.75 -28.3 -38.65 L-28.9 -37.85 Q-29.0 -38.4 -28.3 -39.4 -27.55 -40.5 -27.55 -41.2 -28.7 -41.85 -28.6 -43.65 -28.5 -45.45 -27.35 -46.0 -28.3 -47.0 -27.15 -47.55 -26.0 -48.15 -26.1 -46.55 -25.2 -46.85 -24.35 -46.55 L-22.8 -46.0 M-39.8 -46.9 Q-40.45 -46.85 -40.4 -47.5 L-40.05 -47.65 -39.65 -47.5 -39.8 -46.9 M-32.9 -42.05 L-33.05 -42.75 Q-32.95 -43.65 -32.3 -43.65 -31.8 -43.7 -31.3 -43.15 -30.8 -42.6 -31.0 -42.15 -31.2 -41.55 -32.45 -41.55 L-32.9 -42.05 M-33.55 -25.75 Q-33.4 -26.15 -33.05 -26.1 -32.95 -25.35 -33.4 -25.15 -33.8 -25.3 -33.55 -25.75 M-24.6 -33.55 Q-25.0 -33.5 -25.25 -33.8 -25.45 -34.6 -24.75 -34.65 -24.1 -34.7 -24.1 -34.0 L-24.6 -33.55 M-29.05 -37.1 Q-29.2 -37.35 -29.0 -37.6 -28.4 -37.6 -28.55 -36.9 -28.9 -36.75 -29.05 -37.1 M-25.35 -27.3 L-24.0 -27.95 Q-22.65 -28.25 -22.05 -27.3 -21.55 -26.5 -21.8 -25.2 -22.05 -23.9 -22.9 -23.2 -23.9 -22.45 -25.25 -22.95 -26.2 -23.3 -26.45 -24.55 -26.75 -25.75 -26.2 -26.6 L-25.35 -27.3 M-25.0 -20.5 L-25.35 -20.35 -25.7 -20.4 -25.85 -21.1 -25.15 -21.2 -25.05 -20.9 -25.0 -20.5 M-29.65 -14.85 L-29.75 -15.1 -29.8 -15.4 -29.2 -15.5 -29.1 -15.15 -29.2 -14.85 -29.65 -14.85 M-24.9 -14.35 Q-23.7 -16.3 -21.15 -15.35 -18.6 -14.35 -19.45 -11.9 L-18.9 -11.75 -18.4 -11.55 Q-17.7 -10.55 -18.75 -10.05 -19.7 -9.5 -20.15 -10.55 L-21.3 -9.35 Q-21.95 -8.55 -22.9 -8.9 L-24.35 -10.6 Q-25.25 -11.6 -25.35 -12.75 L-25.1 -13.6 -24.9 -14.35 M-40.4 -5.9 L-40.55 -6.15 -40.5 -6.45 -39.9 -6.35 Q-39.9 -5.9 -40.4 -5.9 M-32.35 -9.6 Q-32.3 -9.2 -32.55 -8.9 L-32.95 -8.9 -33.3 -9.0 Q-33.5 -9.6 -33.05 -9.8 -32.6 -9.95 -32.35 -9.6 M-1.3 -23.55 L-1.65 -23.5 -1.75 -23.9 Q-1.25 -23.95 -1.3 -23.55 M-3.3 -22.85 L-2.85 -22.9 Q-2.65 -22.75 -2.7 -22.4 -3.3 -22.05 -3.3 -22.85 M-6.55 -22.4 Q-6.75 -21.85 -7.35 -22.0 -7.95 -22.15 -7.95 -22.75 -7.65 -23.15 -7.1 -23.05 -6.5 -22.95 -6.55 -22.4 M-10.15 -19.5 Q-10.15 -18.35 -10.9 -18.15 -11.55 -18.0 -12.35 -18.55 -13.1 -19.1 -13.1 -19.75 -13.15 -20.45 -12.0 -20.75 L-10.6 -20.6 Q-10.15 -20.25 -10.15 -19.5 M-15.25 -17.6 Q-14.6 -18.75 -14.0 -17.6 -13.4 -16.5 -14.9 -16.7 L-15.2 -17.05 -15.25 -17.6 M-14.45 -11.55 Q-12.45 -12.15 -12.45 -10.25 -12.4 -8.35 -14.2 -8.55 -15.4 -8.7 -15.5 -9.95 -15.6 -11.2 -14.45 -11.55 M-9.8 -7.75 Q-9.2 -8.25 -8.75 -7.5 -8.75 -6.55 -9.8 -6.7 -10.45 -7.25 -9.8 -7.75 M-6.85 -3.35 Q-6.9 -4.3 -5.75 -4.6 L-4.6 -4.45 -4.1 -3.9 Q-3.55 -2.25 -5.2 -2.0 -6.85 -1.75 -6.85 -3.35" fill="#c40000" fill-rule="evenodd" stroke="none"/>
    </g>
  </defs>
</svg>
