<?xml version="1.0" encoding="UTF-8" standalone="no"?>
<svg xmlns:xlink="http://www.w3.org/1999/xlink" height="300.0px" width="300.0px" xmlns="http://www.w3.org/2000/svg">
  <g transform="matrix(1.0, 0.0, 0.0, 1.0, 0.0, 0.0)">
    <use height="221.65" transform="matrix(1.0, 0.0, 0.0, 1.0, 5.45, 51.15)" width="288.85" xlink:href="#shape0"/>
  </g>
  <defs>
    <g id="shape0" transform="matrix(1.0, 0.0, 0.0, 1.0, -5.45, -51.15)">
      <path d="M294.3 242.3 Q265.6 254.6 228.35 257.45 206.0 259.15 160.8 257.55 115.55 255.95 93.2 257.6 55.95 260.5 27.3 272.8 L5.45 81.65 Q34.1 69.35 71.35 66.45 93.7 64.8 138.95 66.4 184.15 67.95 206.5 66.25 243.75 63.45 272.45 51.15 L294.3 242.3" fill="#ff0033" fill-rule="evenodd" stroke="none"/>
      <path d="M183.25 119.25 Q184.9 133.5 175.95 144.75 167.1 155.95 152.85 157.55 138.6 159.2 127.35 150.3 116.15 141.4 114.5 127.1 112.9 112.85 121.8 101.7 130.75 90.45 145.0 88.8 159.25 87.2 170.4 96.15 181.65 105.0 183.25 119.25" fill="#ffffff" fill-rule="evenodd" stroke="none"/>
      <path d="M176.5 120.0 Q177.85 131.45 170.65 140.5 163.55 149.5 152.1 150.8 140.65 152.15 131.6 144.95 122.6 137.8 121.25 126.35 119.95 114.9 127.15 105.9 134.3 96.9 145.75 95.55 157.2 94.25 166.2 101.45 175.2 108.6 176.5 120.0" fill="#000087" fill-rule="evenodd" stroke="none"/>
      <path d="M162.15 110.8 Q167.75 118.2 168.3 126.4 168.9 135.7 159.95 141.25 151.6 146.5 143.9 143.75 138.25 141.75 134.65 137.75 132.55 135.5 130.35 131.25 128.2 127.15 127.65 118.85 127.1 110.95 128.2 101.3 128.5 98.7 133.05 96.0 137.6 93.3 137.25 96.35 136.1 105.3 135.75 112.7 135.45 121.7 136.6 124.9 139.6 132.85 145.5 136.15 153.1 140.35 160.8 132.1 162.8 129.75 163.05 124.85 163.3 120.4 162.05 118.45 L155.6 124.1 Q157.1 122.05 157.95 118.6 159.7 111.75 156.65 105.05 L162.15 110.8" fill="#ffffff" fill-rule="evenodd" stroke="none"/>
      <path d="M115.25 176.85 L118.2 176.7 Q121.5 176.45 121.65 176.65 L122.45 184.15 120.7 184.1 118.45 183.85 112.5 184.1 111.85 177.15 115.25 176.85" fill="#000000" fill-rule="evenodd" stroke="none"/>
      <path d="M60.5 213.35 L51.8 215.2 51.3 210.8 60.0 208.9 60.5 213.35 M49.9 211.15 L52.7 235.45 48.25 236.5 45.5 212.25 49.9 211.15 M52.45 221.0 L58.9 219.55 59.4 224.05 53.0 225.45 52.45 221.0" fill="#ffffff" fill-rule="evenodd" stroke="none"/>
      <path d="M74.8 206.1 L84.7 229.55 80.05 230.2 71.25 209.05 71.65 206.6 74.8 206.1 M77.0 227.35 L72.4 228.1 71.9 231.5 67.45 232.25 70.6 211.9 73.95 218.75 73.0 224.1 75.6 223.65 77.0 227.35" fill="#ffffff" fill-rule="evenodd" stroke="none"/>
      <path d="M99.4 209.25 Q98.8 206.95 96.2 207.25 L95.75 202.85 Q98.5 202.65 100.75 204.35 103.05 206.1 103.6 208.9 L99.4 209.3 99.4 209.25 M91.7 210.5 Q92.05 213.75 95.1 213.4 L95.6 217.8 Q92.7 218.15 90.25 216.15 87.85 214.25 87.5 211.2 87.2 208.35 89.0 205.8 90.95 203.4 93.8 203.05 L94.25 207.45 Q92.8 207.65 92.15 208.65 91.55 209.4 91.7 210.5 M100.2 222.45 Q100.8 221.6 100.7 220.55 100.5 219.1 99.75 218.4 98.9 217.55 97.3 217.6 L96.8 213.2 Q99.7 212.9 102.1 214.95 104.5 216.85 104.85 220.0 105.2 222.95 103.3 225.3 101.45 227.6 98.5 227.95 L98.0 223.55 Q99.55 223.5 100.2 222.45 M93.9 223.25 Q94.8 223.95 96.15 223.75 L96.65 228.15 Q93.85 228.4 91.55 226.75 89.3 225.05 88.65 222.3 L92.9 221.75 Q93.2 222.75 93.9 223.25" fill="#ffffff" fill-rule="evenodd" stroke="none"/>
      <path d="M125.3 208.4 L120.75 208.7 Q120.65 207.6 119.7 206.8 118.7 205.9 117.3 205.95 L116.8 201.5 Q119.7 201.25 122.25 203.2 124.9 205.25 125.3 208.4 M126.4 218.3 Q126.75 221.5 124.6 223.7 122.55 225.8 119.55 226.05 L119.05 221.65 Q120.45 221.5 121.25 220.5 122.0 219.6 121.9 218.6 L126.4 218.3 M113.6 207.4 Q112.9 208.35 113.05 209.5 L114.1 218.85 Q114.25 220.0 115.15 220.85 116.2 221.95 117.55 221.8 L118.1 226.2 Q114.85 226.5 112.4 224.45 110.0 222.5 109.7 219.5 L108.55 209.5 Q108.2 206.5 110.1 204.15 112.05 201.8 115.25 201.6 L115.8 206.1 Q114.4 206.2 113.6 207.4" fill="#ffffff" fill-rule="evenodd" stroke="none"/>
      <path d="M136.5 225.15 L131.95 225.4 129.15 201.1 133.75 200.95 136.5 225.15" fill="#ffffff" fill-rule="evenodd" stroke="none"/>
      <path d="M147.65 199.45 Q150.5 199.3 152.7 201.15 154.95 202.95 155.55 205.8 L151.35 205.95 151.35 205.9 Q150.7 203.6 148.1 203.75 L147.65 199.45 M146.15 203.9 Q144.7 203.9 144.0 204.95 143.45 205.7 143.6 206.7 143.95 209.95 146.95 209.85 L147.45 214.2 Q144.55 214.4 142.15 212.25 139.7 210.2 139.35 207.1 139.0 204.1 140.9 201.9 142.75 199.65 145.65 199.55 L146.15 203.9 M140.5 218.2 L144.75 217.95 Q145.0 218.9 145.75 219.5 146.75 220.3 148.0 220.25 L148.5 224.6 Q145.8 224.7 143.45 222.85 141.1 221.0 140.5 218.2 M156.85 216.85 Q157.2 219.8 155.25 222.05 153.35 224.3 150.35 224.45 L149.85 220.1 Q151.45 220.1 152.15 219.05 152.75 218.15 152.65 217.2 152.5 215.9 151.65 215.05 150.85 214.1 149.2 214.1 L148.7 209.75 Q151.6 209.65 154.05 211.7 156.5 213.85 156.85 216.85" fill="#ffffff" fill-rule="evenodd" stroke="none"/>
      <path d="M173.05 223.35 L168.5 223.55 166.35 204.9 170.9 204.7 173.05 223.35 M176.45 202.95 L160.15 203.7 159.65 199.3 175.9 198.5 176.45 202.95" fill="#ffffff" fill-rule="evenodd" stroke="none"/>
      <path d="M211.8 210.95 L205.25 211.6 204.75 207.1 211.3 206.5 211.8 210.95 M212.95 200.5 L204.1 201.35 203.6 196.85 212.45 196.1 212.95 200.5 M205.0 221.3 L200.45 221.7 197.65 197.4 202.25 197.0 205.0 221.3" fill="#ffffff" fill-rule="evenodd" stroke="none"/>
      <path d="M224.4 219.4 L219.95 219.9 217.2 195.7 221.65 195.15 224.4 219.4" fill="#ffffff" fill-rule="evenodd" stroke="none"/>
      <path d="M240.45 193.5 Q242.7 195.15 243.25 197.9 L239.1 198.65 239.1 198.6 Q238.45 196.35 235.95 196.7 L235.45 192.4 Q238.2 191.9 240.45 193.5 M236.5 202.8 Q239.45 202.25 241.8 204.05 244.2 205.9 244.55 208.9 244.85 211.85 243.0 214.4 241.1 217.05 238.15 217.45 L237.65 213.15 Q239.2 212.9 239.9 211.8 240.5 211.0 240.35 209.85 240.2 208.4 239.45 207.75 238.5 206.9 237.0 207.15 L236.5 202.8 M229.95 205.95 Q227.55 204.05 227.2 201.0 226.85 198.05 228.7 195.6 230.6 193.15 233.5 192.7 L234.0 197.05 Q232.5 197.3 231.85 198.35 231.25 199.15 231.4 200.25 231.75 203.5 234.8 203.0 L235.3 207.35 Q232.35 207.85 229.95 205.95 M236.35 217.75 Q233.6 218.15 231.25 216.5 228.95 214.85 228.4 212.1 L232.6 211.5 Q232.75 212.3 233.65 212.95 234.55 213.6 235.85 213.4 L236.35 217.75" fill="#ffffff" fill-rule="evenodd" stroke="none"/>
      <path d="M247.25 191.1 L251.75 190.15 253.0 200.9 255.7 200.25 256.2 204.7 253.5 205.35 254.5 214.4 250.0 215.3 247.25 191.1 M263.1 187.55 L265.85 211.75 261.45 212.85 260.4 203.75 257.7 204.35 257.2 199.95 259.9 199.35 258.65 188.65 263.1 187.55" fill="#ffffff" fill-rule="evenodd" stroke="none"/>
      <path d="M49.95 174.6 L56.3 173.4 61.35 173.15 61.4 174.35 61.3 176.05 61.6 179.9 Q61.85 182.0 61.7 182.15 61.6 182.4 59.9 182.65 L56.9 183.05 53.7 183.65 Q53.55 183.9 53.65 185.25 L53.9 187.4 54.2 191.0 55.55 197.25 Q56.55 201.4 56.25 201.95 56.1 202.25 54.15 202.75 L51.1 203.35 Q46.05 204.7 45.55 204.3 44.8 203.8 44.35 199.5 L43.65 192.45 42.65 183.4 Q42.15 177.85 43.05 176.65 43.45 176.05 46.0 175.45 L49.95 174.6 M56.85 185.25 Q59.65 183.45 59.85 183.5 L61.0 185.8 61.75 187.35 62.05 188.4 Q61.9 188.85 59.45 190.05 L56.4 191.65 55.8 189.85 Q54.65 187.15 54.75 186.95 L56.85 185.25" fill="#000000" fill-rule="evenodd" stroke="none"/>
      <path d="M78.75 167.6 Q79.9 167.55 86.35 176.65 L90.75 182.85 Q93.4 186.9 93.4 188.5 93.35 189.25 91.8 191.1 L89.2 194.0 86.2 197.15 84.2 199.0 Q83.75 198.9 80.95 192.8 L78.15 186.75 Q77.9 186.75 76.65 189.2 L74.6 193.45 73.0 197.95 72.0 200.8 Q71.4 201.0 67.3 197.6 L64.6 195.35 Q62.85 193.8 62.7 193.1 62.5 191.6 65.25 187.0 L69.95 179.65 74.8 172.3 Q78.0 167.65 78.75 167.6 M75.75 195.6 Q75.0 193.85 75.1 193.7 75.1 193.55 76.1 193.2 L77.7 192.6 79.7 191.55 Q80.05 191.7 80.95 194.0 81.8 196.2 81.55 196.6 81.35 196.95 78.95 197.9 76.8 198.8 76.4 198.55 L76.0 197.25 75.75 195.6" fill="#000000" fill-rule="evenodd" stroke="none"/>
      <path d="M94.2 168.3 L98.7 167.8 105.25 167.3 108.45 167.1 110.5 167.1 Q110.85 167.4 111.3 171.2 L111.85 174.25 Q112.25 176.35 112.05 176.7 L109.9 177.15 107.3 177.5 Q107.15 177.75 107.4 179.2 L107.8 181.55 108.7 190.1 108.9 192.9 Q109.05 194.85 108.8 195.1 L106.9 195.35 103.9 195.4 100.75 195.6 98.55 195.45 98.15 192.6 97.05 183.15 Q96.9 178.85 96.65 178.65 L95.65 178.65 94.1 178.8 91.35 178.8 91.1 176.55 90.85 172.85 Q90.7 169.2 91.05 168.85 L92.25 168.55 94.2 168.3" fill="#000000" fill-rule="evenodd" stroke="none"/>
      <path d="M125.1 177.3 Q126.65 174.05 128.85 170.75 134.4 162.35 135.1 162.35 L136.9 164.7 138.1 166.35 139.45 163.65 140.65 161.8 Q142.05 161.7 150.65 172.85 L155.6 179.25 Q158.35 183.15 158.25 184.55 158.2 185.85 154.3 189.9 150.55 193.85 150.05 193.75 L149.15 192.2 148.2 190.05 145.05 184.65 144.15 186.15 142.9 188.45 Q140.65 191.9 140.2 191.9 139.75 191.9 137.05 188.55 L134.5 185.05 132.45 189.35 130.55 194.2 Q130.2 194.3 128.35 192.6 L125.5 189.8 Q121.75 186.15 121.6 185.2 121.5 183.8 123.1 180.85 L125.1 177.3" fill="#000000" fill-rule="evenodd" stroke="none"/>
      <path d="M170.25 162.65 Q176.45 162.35 181.2 166.45 186.05 170.55 186.75 176.7 187.45 183.0 183.65 187.65 179.85 192.35 173.7 192.65 167.6 193.0 162.75 188.75 157.95 184.55 157.25 178.3 156.55 172.15 160.35 167.55 164.1 162.95 170.25 162.65 M179.8 182.5 Q179.65 181.1 178.65 180.3 177.7 179.45 176.3 179.5 175.0 179.6 174.2 180.55 173.45 181.45 173.6 182.85 173.8 184.2 174.75 185.0 175.75 185.9 177.0 185.8 178.3 185.75 179.15 184.75 179.95 183.8 179.8 182.5" fill="#000000" fill-rule="evenodd" stroke="none"/>
      <path d="M197.35 162.25 Q199.65 162.1 199.75 162.25 199.95 162.5 199.95 164.0 L200.05 166.4 Q200.3 168.7 200.85 170.2 201.55 171.6 202.45 171.45 203.8 171.3 204.05 169.3 204.35 167.65 204.05 165.25 L203.8 163.5 203.55 162.25 Q203.7 162.0 206.8 161.65 210.5 161.25 211.0 161.6 211.5 162.0 211.85 164.7 L212.25 168.85 Q213.3 178.05 210.3 183.9 207.25 189.85 201.8 190.3 196.55 190.75 193.3 187.05 189.6 182.8 188.5 173.05 L188.1 168.15 Q187.7 163.25 188.1 162.9 L191.7 162.6 194.65 162.45 197.35 162.25" fill="#000000" fill-rule="evenodd" stroke="none"/>
      <path d="M212.75 168.45 L212.5 164.85 212.4 162.55 Q212.35 161.05 212.7 160.8 L215.85 160.25 226.8 158.85 230.1 158.3 232.05 158.2 232.5 159.7 232.85 162.1 233.45 165.2 Q233.8 167.25 233.55 167.7 L232.7 168.05 231.5 168.4 228.9 168.9 Q228.75 169.15 229.0 170.6 L229.4 172.95 229.8 176.6 230.3 181.5 230.55 184.25 Q230.7 186.15 230.4 186.45 L228.55 186.9 225.5 187.05 222.35 187.4 220.25 187.3 219.95 186.35 219.75 184.5 218.65 175.05 218.3 170.55 217.25 170.65 215.8 170.75 213.0 170.7 212.75 168.45" fill="#000000" fill-rule="evenodd" stroke="none"/>
      <path d="M248.5 156.45 Q248.55 155.0 248.75 154.7 249.05 154.4 250.6 154.05 L253.0 153.55 Q258.85 152.2 259.1 152.45 259.45 152.75 259.4 157.35 259.25 163.0 259.45 164.95 259.65 166.55 261.35 173.5 262.7 179.15 262.3 179.9 L259.55 180.7 256.15 181.6 253.15 182.3 252.1 182.3 Q251.75 182.0 251.25 179.9 L250.65 176.9 Q249.95 174.05 249.55 170.5 L246.35 172.65 Q246.65 175.2 247.45 179.05 L248.05 181.15 248.3 182.9 245.3 183.8 238.55 185.1 Q237.3 181.2 236.35 177.05 235.4 172.6 235.0 168.85 L234.5 163.5 Q233.9 158.0 234.35 157.45 234.55 157.15 236.75 156.85 L240.7 156.25 244.7 155.35 Q244.95 155.55 244.7 159.2 L245.25 164.85 248.75 162.75 248.5 158.8 248.5 156.45" fill="#000000" fill-rule="evenodd" stroke="none"/>
    </g>
  </defs>
</svg>
