<?xml version="1.0" encoding="UTF-8" standalone="no"?>
<svg xmlns:xlink="http://www.w3.org/1999/xlink" height="300.0px" width="300.0px" xmlns="http://www.w3.org/2000/svg">
  <g transform="matrix(1.0, 0.0, 0.0, 1.0, 0.0, 0.0)">
    <use height="217.85" transform="matrix(1.0, 0.0, 0.0, 1.0, 25.95, 54.7)" width="245.65" xlink:href="#shape0"/>
  </g>
  <defs>
    <g id="shape0" transform="matrix(1.0, 0.0, 0.0, 1.0, -25.95, -54.7)">
      <path d="M164.5 61.55 Q162.85 59.1 157.65 59.1 L157.65 56.15 183.3 56.15 183.3 59.1 Q178.05 59.1 176.4 61.55 174.9 63.85 174.9 71.4 L174.9 140.0 196.05 140.0 196.05 71.4 Q196.05 63.85 194.55 61.55 193.0 59.1 187.75 59.1 L187.75 56.15 213.5 56.15 213.5 59.1 Q208.05 59.1 206.45 61.55 204.95 63.85 204.95 71.4 L204.95 210.9 Q204.95 218.5 206.45 220.8 208.05 223.2 213.5 223.2 L213.5 226.2 187.75 226.2 187.75 223.2 Q193.0 223.2 194.55 220.8 196.05 218.5 196.05 210.9 L196.05 144.15 174.9 144.15 174.9 210.9 Q174.9 218.45 176.4 220.8 178.0 223.2 183.3 223.2 L183.3 226.2 157.65 226.2 157.65 223.2 Q162.9 223.2 164.5 220.8 166.0 218.45 166.0 210.9 L166.0 71.4 Q166.0 63.85 164.5 61.55 M103.0 71.4 L103.0 210.9 Q103.0 218.5 104.55 220.8 106.15 223.2 111.55 223.2 L111.55 226.2 85.65 226.2 85.65 223.2 Q90.95 223.2 92.55 220.8 94.05 218.5 94.05 210.9 L94.05 71.4 Q94.05 63.85 92.55 61.55 90.95 59.1 85.65 59.1 L85.65 56.15 111.55 56.15 111.55 59.1 Q106.15 59.1 104.55 61.55 103.0 63.85 103.0 71.4 M119.95 58.35 Q123.7 55.15 130.95 55.15 133.75 55.15 136.65 55.95 L140.95 56.75 Q142.75 56.75 144.5 56.15 L147.8 54.7 153.85 71.6 151.25 72.75 Q146.7 65.55 143.8 62.75 138.95 58.1 132.8 58.1 127.1 58.1 124.25 63.4 121.65 68.3 120.75 79.45 120.05 88.2 120.15 106.6 L120.45 145.3 120.45 182.65 Q120.6 199.0 121.5 207.0 122.6 216.25 125.3 220.2 128.0 224.2 133.4 224.2 140.4 224.2 142.75 219.7 144.4 216.5 144.4 208.2 L144.35 164.4 Q144.0 154.95 141.75 151.9 139.85 149.4 134.4 149.4 L134.4 146.45 160.05 146.45 160.05 149.4 Q154.8 149.6 153.3 152.8 152.3 154.85 152.3 160.95 L152.3 224.55 148.55 223.85 Q145.65 223.85 140.55 225.5 135.5 227.15 131.5 227.15 123.75 227.15 120.2 224.95 115.85 222.25 113.7 214.45 111.55 206.5 110.8 189.6 110.1 174.9 110.1 144.5 110.1 113.8 110.8 98.3 111.55 80.3 113.6 71.15 115.75 61.95 119.95 58.35 M82.2 59.1 Q76.8 59.1 75.15 61.55 73.65 63.85 73.65 71.4 L73.65 210.9 Q73.65 218.55 75.15 220.8 76.75 223.2 82.2 223.2 L82.2 226.2 56.45 226.2 56.45 223.2 Q61.7 223.2 63.3 220.8 64.75 218.5 64.75 210.9 L64.75 144.15 43.25 144.15 43.25 210.9 Q43.25 218.45 44.75 220.8 46.3 223.2 51.6 223.2 L51.6 226.2 25.95 226.2 25.95 223.2 Q31.25 223.2 32.8 220.8 34.3 218.45 34.3 210.9 L34.3 71.4 Q34.3 63.85 32.8 61.55 31.2 59.1 25.95 59.1 L25.95 56.15 51.6 56.15 51.6 59.1 Q46.35 59.1 44.75 61.55 43.25 63.85 43.25 71.4 L43.25 140.0 64.75 140.0 64.75 71.4 Q64.75 63.85 63.3 61.55 61.7 59.1 56.45 59.1 L56.45 56.15 82.2 56.15 82.2 59.1" fill="#000000" fill-rule="evenodd" stroke="none"/>
      <path d="M253.8 61.05 Q256.85 62.65 261.2 68.2 L257.1 58.25 223.3 58.25 Q226.35 58.7 227.5 60.55 L227.5 60.6 Q228.85 62.5 228.85 68.95 L228.85 96.55 Q228.85 103.05 227.5 105.0 226.45 106.75 223.6 107.25 L257.95 107.25 262.0 96.8 Q257.2 102.65 254.35 104.2 250.45 106.35 241.75 106.35 236.35 106.35 234.85 104.6 L234.85 104.55 Q233.35 103.05 233.35 98.05 L233.35 83.2 Q233.35 82.7 233.75 82.35 234.1 81.95 234.6 81.95 L237.5 81.95 Q243.2 81.6 245.95 83.15 248.9 84.65 249.85 88.3 L249.85 74.6 Q248.9 78.1 246.25 79.7 L246.25 79.65 Q243.55 81.4 237.5 81.4 L234.6 81.4 Q234.1 81.4 233.75 81.05 233.35 80.65 233.35 80.15 L233.35 68.4 Q233.35 62.4 234.75 61.05 236.15 59.15 242.2 59.15 250.25 59.15 253.8 61.05 M264.0 68.6 Q264.2 69.0 264.05 69.45 L263.5 70.15 261.7 71.2 260.85 71.35 260.05 70.85 Q255.55 64.9 252.6 63.25 L252.65 63.25 Q249.45 61.65 242.2 61.65 237.75 61.65 236.65 62.7 235.85 63.8 235.85 68.4 L235.85 78.9 237.5 78.9 Q242.65 78.9 244.95 77.55 247.55 75.8 247.85 71.3 247.9 70.8 248.25 70.45 248.6 70.1 249.1 70.1 L251.1 70.1 Q251.6 70.1 252.0 70.5 252.35 70.85 252.35 71.35 L252.35 92.3 252.0 93.2 251.1 93.55 249.05 93.55 Q248.55 93.55 248.2 93.2 247.8 92.8 247.8 92.3 247.8 87.1 244.75 85.35 242.4 84.15 237.6 84.45 L237.5 84.45 235.85 84.45 235.85 98.05 Q235.85 101.75 236.7 102.9 L236.65 102.85 Q237.8 103.85 241.75 103.85 249.65 103.85 253.15 102.0 256.05 100.35 261.35 93.7 261.6 93.35 262.0 93.25 L262.8 93.3 264.5 94.0 265.15 94.65 Q265.35 95.1 265.2 95.6 L260.0 108.95 259.5 109.55 258.8 109.75 221.1 109.75 Q220.6 109.75 220.25 109.4 219.85 109.0 219.85 108.5 L219.85 106.2 Q219.85 105.7 220.25 105.35 220.6 104.95 221.1 104.95 224.35 104.95 225.4 103.65 226.35 101.95 226.35 96.55 L226.35 68.95 Q226.35 63.6 225.4 61.95 224.3 60.6 221.1 60.6 220.6 60.6 220.25 60.25 219.85 59.85 219.85 59.35 L219.85 57.0 Q219.85 56.5 220.25 56.15 220.6 55.75 221.1 55.75 L257.9 55.75 258.6 55.95 259.05 56.55 264.0 68.6 M225.45 121.2 Q224.4 119.85 221.1 119.85 220.6 119.85 220.25 119.5 219.85 119.1 219.85 118.6 L219.85 115.55 Q219.85 115.05 220.25 114.7 220.6 114.3 221.1 114.3 L233.35 114.3 233.95 114.45 234.4 114.85 259.3 150.0 259.3 128.25 Q259.3 122.85 258.35 121.2 257.35 119.85 254.0 119.85 253.5 119.85 253.15 119.5 252.75 119.1 252.75 118.6 L252.75 115.55 Q252.75 115.05 253.15 114.7 253.5 114.3 254.0 114.3 L270.35 114.3 Q270.85 114.3 271.25 114.7 271.6 115.05 271.6 115.55 L271.6 118.6 271.25 119.5 270.35 119.85 Q267.1 119.85 266.05 121.2 265.05 122.85 265.05 128.25 L265.05 167.1 264.7 168.0 263.8 168.35 261.4 168.35 260.85 168.2 260.4 167.85 232.2 128.15 232.2 154.4 Q232.2 159.8 233.15 161.5 234.2 162.8 237.5 162.8 238.0 162.8 238.4 163.2 238.75 163.55 238.75 164.05 L238.75 167.1 238.4 168.0 Q238.0 168.35 237.5 168.35 L221.1 168.35 Q220.6 168.35 220.25 168.0 219.85 167.6 219.85 167.1 L219.85 164.05 Q219.85 163.55 220.25 163.2 220.6 162.8 221.1 162.8 224.4 162.8 225.45 161.5 L225.45 161.45 Q226.45 159.8 226.45 154.4 L226.45 128.25 Q226.45 122.85 225.45 121.2 M231.35 123.05 Q231.75 123.15 232.0 123.5 L262.05 165.85 262.55 165.85 262.55 128.25 Q262.55 121.75 263.95 119.8 L263.95 119.85 Q265.2 117.7 269.1 117.4 L269.1 116.8 255.25 116.8 255.25 117.4 Q259.25 117.65 260.45 119.85 261.8 121.75 261.8 128.25 L261.8 153.9 261.55 154.65 260.95 155.1 260.15 155.1 259.55 154.65 232.7 116.8 222.35 116.8 222.35 117.4 Q226.3 117.7 227.55 119.85 L227.55 119.8 Q228.95 121.75 228.95 128.25 L228.95 154.4 Q228.95 160.9 227.55 162.85 226.3 164.95 222.35 165.25 L222.35 165.85 236.25 165.85 236.25 165.25 Q232.3 164.95 231.05 162.85 229.7 160.9 229.7 154.4 L229.7 124.2 Q229.7 123.8 229.95 123.5 230.2 123.15 230.6 123.0 L231.35 123.05 M241.5 178.45 Q237.9 178.45 236.8 179.65 235.85 181.1 235.9 186.15 L235.9 212.35 Q235.85 217.55 236.95 219.25 238.05 220.7 241.5 220.7 250.8 220.7 255.25 214.55 259.1 209.0 259.1 199.05 259.1 189.2 255.3 184.1 251.0 178.45 241.5 178.45 M234.75 178.2 L234.75 178.15 Q236.25 175.95 241.5 175.95 252.4 175.95 257.3 182.6 261.6 188.2 261.6 199.05 261.6 209.9 257.3 216.0 252.2 223.2 241.5 223.2 236.4 223.2 234.9 220.65 L234.9 220.7 Q233.35 218.65 233.4 212.35 L233.4 186.15 Q233.35 179.9 234.75 178.2 M137.45 234.75 Q139.2 235.4 142.2 237.05 144.55 235.65 148.35 235.65 151.4 235.65 153.0 236.8 154.25 237.65 154.25 239.0 154.25 240.2 153.2 241.0 152.15 241.8 150.45 241.8 147.25 241.8 142.35 239.1 140.55 240.75 140.55 244.6 140.55 246.4 140.95 248.7 L141.4 253.25 Q141.4 255.9 140.8 257.35 139.7 260.15 136.65 260.15 L135.8 260.05 Q135.3 259.9 135.3 259.3 135.3 258.7 135.75 258.5 L136.65 258.4 Q138.3 258.4 139.0 257.0 139.65 255.85 139.65 253.25 L139.5 251.2 139.2 248.9 Q138.75 246.3 138.75 244.6 138.75 240.55 140.8 238.25 138.2 236.8 136.45 236.15 134.3 235.4 132.4 235.4 130.3 235.4 129.05 236.35 127.95 237.25 127.95 238.6 127.95 239.65 128.8 240.45 129.65 241.3 130.8 241.3 L131.75 241.2 Q132.65 241.2 132.65 241.95 132.65 243.0 130.8 243.0 129.15 243.0 127.8 241.95 126.15 240.6 126.15 238.6 126.15 236.65 127.65 235.3 129.4 233.75 132.4 233.75 134.85 233.75 137.45 234.75 M151.8 239.85 Q152.45 239.55 152.45 239.05 152.45 238.35 151.5 237.9 150.45 237.35 148.35 237.35 145.75 237.35 143.95 238.1 147.55 240.15 150.45 240.15 L151.8 239.85 M156.95 245.85 Q158.9 245.85 160.05 247.35 161.2 248.85 161.2 251.25 161.2 254.7 159.45 257.3 157.5 260.15 154.6 260.15 152.55 260.15 151.3 258.45 150.0 256.75 150.0 254.0 150.0 252.35 150.6 250.75 150.75 250.1 151.4 250.1 151.75 250.1 152.0 250.4 L152.25 251.0 152.2 251.35 Q151.85 252.25 151.85 253.95 151.85 255.7 152.55 257.0 153.3 258.45 154.7 258.45 156.75 258.45 158.15 256.15 159.4 254.0 159.4 251.25 159.4 249.85 158.85 248.8 158.15 247.55 156.85 247.55 155.85 247.55 155.25 248.3 154.8 248.9 154.8 249.75 154.8 250.8 155.5 251.15 L156.7 251.35 Q157.1 251.35 157.4 251.6 L157.65 252.25 Q157.65 253.1 156.55 253.1 154.85 253.1 153.95 252.15 153.05 251.2 153.05 249.75 153.05 248.15 154.05 247.05 155.15 245.85 156.95 245.85 M85.4 243.85 Q85.4 243.5 85.65 243.25 L86.2 243.05 88.5 242.95 Q89.55 239.5 91.2 237.2 93.15 234.5 95.3 234.5 96.6 234.5 97.3 235.2 98.0 235.9 98.0 237.15 98.0 239.45 95.45 241.6 93.1 243.6 89.9 244.4 88.95 248.15 88.45 252.5 89.3 249.6 90.95 247.8 92.55 246.05 94.2 246.05 96.25 246.05 97.0 248.4 97.4 249.7 97.4 252.0 97.4 254.1 97.0 256.6 L96.45 258.95 Q96.25 259.65 95.6 259.65 L94.95 259.35 Q94.7 259.05 94.7 258.75 L94.7 258.5 Q95.6 255.1 95.6 252.0 95.6 247.9 94.1 247.9 92.15 247.9 90.2 251.8 88.25 255.7 88.65 259.0 L88.45 259.65 87.8 259.9 Q87.1 259.9 87.0 259.15 86.7 257.6 86.7 255.9 86.7 253.0 87.2 249.3 87.6 246.4 88.05 244.75 L86.95 244.75 85.9 244.65 Q85.4 244.45 85.4 243.85 M84.25 246.6 Q84.55 246.8 84.55 247.15 84.55 247.95 83.8 247.95 L80.9 247.8 Q79.8 251.7 79.8 254.95 79.8 258.1 81.4 258.4 L81.95 258.65 82.2 259.2 81.95 259.85 81.3 260.15 81.05 260.1 Q78.05 259.65 78.05 255.05 78.05 251.9 79.05 247.9 L77.75 248.0 76.9 248.05 Q76.35 248.05 76.35 247.4 76.35 246.65 77.35 246.4 L79.45 246.2 80.7 241.4 81.5 240.8 Q82.45 240.8 82.45 241.6 L82.35 242.05 81.2 246.25 83.65 246.3 84.25 246.6 M96.25 237.15 Q96.25 236.1 95.25 236.1 94.15 236.1 92.8 237.9 91.4 239.75 90.45 242.5 92.85 241.65 94.55 240.15 96.25 238.6 96.25 237.15 M112.85 246.8 Q113.1 246.55 113.45 246.55 114.1 246.55 114.65 247.5 115.3 248.55 115.25 249.9 115.9 248.05 117.35 247.0 118.7 246.05 120.3 246.05 120.7 246.05 120.95 246.3 121.25 246.55 121.25 246.95 121.25 247.65 120.4 247.75 117.65 247.9 116.25 251.05 115.45 252.85 114.5 258.0 L114.3 259.3 Q114.1 260.05 113.4 260.05 L112.8 259.8 112.6 259.15 113.7 251.0 Q113.7 249.0 112.85 248.05 112.6 247.9 112.6 247.4 112.6 247.05 112.85 246.8 M109.75 247.1 Q110.55 247.9 110.55 249.2 110.55 251.4 108.6 252.75 106.9 253.95 104.85 253.95 L104.25 253.75 104.0 253.1 Q104.0 252.75 104.25 252.5 104.5 252.25 104.85 252.25 106.35 252.2 107.5 251.35 108.75 250.5 108.75 249.2 108.75 248.6 108.3 248.25 107.85 247.9 107.1 247.9 105.45 247.9 103.95 249.7 102.3 251.75 102.3 254.7 102.3 256.15 102.85 257.1 103.7 258.5 105.6 258.5 107.35 258.5 108.4 257.2 L109.05 256.85 109.65 257.1 109.85 257.75 Q109.85 258.45 108.6 259.25 107.2 260.15 105.5 260.15 103.2 260.15 101.85 258.7 100.5 257.25 100.5 254.7 100.5 251.1 102.65 248.55 104.65 246.15 107.2 246.15 108.85 246.15 109.75 247.1 M45.75 233.75 Q44.45 233.75 43.15 235.4 41.5 237.55 40.85 241.55 43.5 240.5 45.2 238.65 46.95 236.8 46.95 235.0 46.95 234.5 46.6 234.15 46.3 233.75 45.75 233.75 M48.75 235.0 Q48.75 237.6 46.35 240.0 44.1 242.2 40.65 243.45 L40.05 249.5 Q44.5 250.15 46.7 252.9 48.35 255.05 48.35 257.9 48.35 260.3 46.8 262.2 45.55 263.65 44.8 263.65 44.4 263.65 44.15 263.4 L43.9 262.8 Q43.9 262.35 44.25 262.1 46.6 260.5 46.6 257.85 46.6 255.6 45.3 253.9 43.5 251.7 39.75 251.2 37.65 261.45 31.35 261.45 29.6 261.45 28.45 260.3 27.2 259.15 27.2 257.35 27.2 254.4 29.85 252.05 33.05 249.3 38.25 249.4 L38.8 243.9 36.45 244.1 Q33.6 244.1 31.9 242.75 30.1 241.3 30.1 238.75 30.1 238.35 30.35 238.1 L31.0 237.85 Q31.35 237.85 31.55 238.1 L31.8 238.75 Q31.8 240.75 33.45 241.7 34.7 242.4 36.45 242.4 L39.0 242.1 Q39.45 237.75 41.4 234.9 43.4 231.95 46.05 231.95 47.2 231.95 47.95 232.75 48.75 233.6 48.75 235.0 M60.35 247.1 Q61.15 247.9 61.15 249.2 61.15 251.4 59.2 252.75 57.5 253.95 55.5 253.95 54.6 253.95 54.6 253.1 54.6 252.75 54.85 252.5 55.1 252.25 55.5 252.25 57.0 252.2 58.15 251.35 59.35 250.5 59.35 249.2 59.35 248.6 58.95 248.25 58.5 247.9 57.75 247.9 56.1 247.9 54.6 249.7 52.95 251.75 52.95 254.7 52.95 256.15 53.5 257.1 54.35 258.5 56.25 258.5 57.95 258.5 59.05 257.2 59.25 256.85 59.7 256.85 60.05 256.85 60.25 257.1 L60.5 257.75 Q60.5 258.45 59.2 259.25 57.8 260.15 56.15 260.15 53.85 260.15 52.5 258.7 51.15 257.25 51.15 254.7 51.15 251.1 53.3 248.55 55.25 246.15 57.8 246.15 59.45 246.15 60.35 247.1 M73.0 247.0 Q73.95 248.1 73.95 250.15 73.95 252.1 73.4 254.95 L73.0 258.15 73.1 258.65 73.25 259.15 73.0 259.75 72.35 260.0 Q71.75 260.0 71.45 259.3 71.2 258.8 71.2 258.05 L71.35 256.6 71.65 254.7 72.2 250.2 Q72.2 248.9 71.55 248.2 70.95 247.6 70.1 247.6 67.9 247.6 66.3 250.35 64.8 252.95 64.8 255.85 64.8 257.0 65.25 257.65 65.7 258.4 66.5 258.4 68.0 258.4 68.8 256.35 69.0 255.85 69.55 255.85 69.95 255.85 70.2 256.1 L70.4 256.7 Q70.4 257.5 69.4 258.65 68.1 260.05 66.25 260.05 64.9 260.05 64.05 259.1 63.0 257.95 63.0 255.85 63.0 252.4 64.95 249.3 67.2 245.9 70.3 245.9 72.0 245.9 73.0 247.0 M38.05 251.1 Q33.75 251.1 31.2 253.2 29.0 255.0 29.0 257.35 29.0 258.4 29.7 259.1 30.4 259.75 31.4 259.75 36.25 259.75 38.05 251.1 M259.25 247.1 Q260.0 247.9 260.0 249.2 260.0 251.4 258.05 252.75 256.35 253.95 254.35 253.95 L253.7 253.75 253.45 253.1 Q253.45 252.75 253.7 252.5 253.95 252.25 254.35 252.25 255.8 252.2 256.95 251.35 258.2 250.5 258.2 249.2 258.2 247.9 256.6 247.9 254.9 247.9 253.45 249.7 251.75 251.75 251.75 254.7 251.75 256.15 252.35 257.1 253.2 258.5 255.1 258.5 256.85 258.5 257.9 257.2 258.1 256.85 258.5 256.85 258.85 256.85 259.1 257.1 L259.35 257.75 Q259.35 258.45 258.1 259.25 256.65 260.15 254.95 260.15 252.7 260.15 251.35 258.7 249.95 257.25 249.95 254.7 249.95 251.1 252.1 248.55 254.15 246.15 256.65 246.15 258.35 246.15 259.25 247.1 M262.35 246.8 Q262.6 246.55 262.95 246.55 263.6 246.55 264.15 247.5 264.75 248.55 264.75 249.9 265.35 248.05 266.8 247.0 268.15 246.05 269.75 246.05 L270.45 246.3 270.75 246.95 Q270.75 247.65 269.85 247.75 267.1 247.9 265.75 251.05 264.9 252.9 264.0 258.0 L263.75 259.3 Q263.65 260.05 262.9 260.05 L262.3 259.8 Q262.05 259.55 262.05 259.15 263.2 252.35 263.2 251.0 263.2 248.95 262.3 248.05 262.05 247.85 262.05 247.4 262.05 247.05 262.35 246.8 M245.45 249.45 Q244.85 247.8 243.55 247.8 241.1 247.8 239.25 251.8 237.35 255.9 237.2 261.8 240.15 261.8 242.1 263.9 243.85 265.9 243.85 268.6 243.85 270.55 242.9 271.6 242.05 272.55 240.5 272.55 238.2 272.55 236.8 270.0 235.5 267.6 235.45 263.75 234.8 264.0 234.3 264.55 233.8 265.05 233.7 265.55 L233.45 265.9 232.95 266.05 Q232.2 266.05 232.2 265.2 232.2 264.4 233.0 263.5 233.95 262.45 235.45 262.1 235.5 255.05 237.8 250.6 240.1 246.15 243.55 246.15 245.55 246.15 246.65 247.8 247.75 249.35 247.75 252.0 247.75 255.85 246.2 258.05 244.8 260.15 242.65 260.15 241.05 260.15 240.0 259.05 239.2 258.25 239.2 257.6 239.2 257.2 239.45 256.95 239.7 256.7 240.1 256.7 240.6 256.7 240.9 257.15 241.5 258.45 242.65 258.45 244.05 258.45 244.95 256.8 245.95 255.05 245.95 252.0 245.95 250.6 245.45 249.45 M207.95 233.75 Q209.45 234.6 210.6 236.05 213.25 234.55 216.5 234.55 219.8 234.55 221.95 236.55 224.0 238.5 224.0 241.55 224.0 244.75 221.45 246.9 219.3 248.7 216.85 248.7 L216.25 248.45 216.0 247.8 Q216.0 247.05 216.85 247.0 218.75 246.9 220.4 245.5 222.25 243.85 222.25 241.55 222.25 239.25 220.6 237.7 219.0 236.25 216.5 236.25 213.8 236.25 211.6 237.5 213.95 241.9 213.95 248.7 213.95 254.1 212.35 257.2 210.8 260.2 208.2 260.2 205.9 260.2 204.6 258.15 203.2 255.95 203.2 251.75 203.2 247.65 204.7 243.85 206.3 239.6 209.25 237.05 207.3 234.55 204.5 234.55 L203.9 234.35 Q203.65 234.15 203.65 233.75 203.65 233.4 203.95 233.1 204.2 232.85 204.5 232.85 206.3 232.85 207.95 233.75 M206.15 244.9 Q205.0 248.3 205.0 251.75 205.0 254.6 205.75 256.5 206.65 258.65 208.25 258.65 209.85 258.65 210.9 256.1 212.05 253.35 212.1 249.05 212.25 242.5 210.1 238.5 207.55 240.85 206.15 244.9 M232.3 247.0 Q233.25 248.1 233.25 250.15 L232.75 254.95 232.35 258.15 232.45 258.65 232.55 259.15 232.3 259.75 231.7 260.0 Q231.05 260.0 230.8 259.3 L230.55 258.05 231.0 254.7 231.5 250.2 Q231.5 248.9 230.85 248.2 230.25 247.6 229.4 247.6 227.25 247.6 225.65 250.35 224.1 252.95 224.1 255.85 224.1 257.0 224.55 257.65 225.05 258.4 225.8 258.4 227.3 258.4 228.1 256.35 228.3 255.85 228.85 255.85 229.25 255.85 229.5 256.1 L229.7 256.7 Q229.7 257.5 228.7 258.65 227.45 260.05 225.55 260.05 224.2 260.05 223.35 259.1 222.3 257.95 222.3 255.85 222.3 252.4 224.25 249.3 226.5 245.9 229.6 245.9 231.3 245.9 232.3 247.0 M174.35 234.9 Q175.1 234.9 175.3 235.8 L175.45 237.7 Q175.45 238.9 175.05 240.9 L174.25 244.45 Q172.1 252.95 172.1 257.0 172.1 258.05 172.25 258.65 L172.35 259.0 172.1 259.65 171.5 259.9 Q170.3 259.9 170.3 257.0 170.3 252.9 172.25 245.0 L173.3 240.6 173.7 237.7 173.55 236.15 173.45 235.85 Q173.45 235.25 174.0 235.0 L174.35 234.9 M165.85 246.55 L166.55 246.5 Q167.2 246.65 167.2 247.35 L167.2 247.55 Q166.65 249.7 166.15 253.15 165.65 256.6 165.45 259.4 L165.15 260.0 164.55 260.25 163.9 260.0 163.65 259.35 Q163.65 258.4 164.15 254.8 164.7 250.15 165.45 247.1 165.55 246.75 165.85 246.55 M185.35 247.1 Q186.1 247.9 186.1 249.2 186.1 251.4 184.2 252.75 182.5 253.95 180.45 253.95 L179.85 253.75 179.6 253.1 Q179.6 252.75 179.85 252.5 180.1 252.25 180.45 252.25 181.95 252.2 183.1 251.35 184.3 250.5 184.3 249.2 184.3 247.9 182.75 247.9 181.05 247.9 179.6 249.7 177.9 251.75 177.9 254.7 177.9 256.15 178.45 257.1 179.3 258.5 181.2 258.5 182.9 258.5 184.0 257.2 184.3 256.85 184.65 256.85 L185.2 257.1 185.45 257.75 Q185.45 258.45 184.2 259.25 182.8 260.15 181.1 260.15 178.8 260.15 177.45 258.7 176.1 257.25 176.1 254.7 176.1 251.1 178.25 248.55 180.25 246.15 182.8 246.15 184.45 246.15 185.35 247.1 M190.6 246.2 L191.85 241.4 Q192.05 240.9 192.65 240.8 193.55 240.8 193.55 241.6 L193.5 242.05 Q192.8 244.1 192.35 246.25 L194.8 246.3 195.4 246.6 195.7 247.15 Q195.7 247.95 194.9 247.95 L192.05 247.8 Q190.95 251.7 190.95 254.95 190.95 258.1 192.5 258.4 192.85 258.4 193.1 258.65 L193.35 259.2 193.05 259.85 Q192.8 260.1 192.45 260.15 L192.15 260.1 Q189.2 259.65 189.2 255.05 189.2 251.9 190.2 247.9 L188.9 248.0 188.05 248.05 Q187.5 248.05 187.5 247.4 187.5 246.65 188.55 246.4 L190.6 246.2 M240.45 271.0 Q242.05 271.0 242.05 268.6 242.05 266.55 240.75 265.05 239.35 263.4 237.2 263.45 237.25 266.95 238.3 269.1 239.2 271.0 240.45 271.0" fill="#54450b" fill-rule="evenodd" stroke="none"/>
      <path d="M221.1 173.8 L240.35 173.8 249.4 174.55 Q254.55 175.7 259.0 178.85 263.85 182.3 266.25 187.6 268.45 192.6 268.45 198.8 268.45 211.4 260.6 218.5 253.0 225.3 240.35 225.3 L221.1 225.3 221.1 221.95 Q225.25 221.95 226.5 220.05 227.7 218.25 227.7 212.3 L227.7 186.85 Q227.7 180.95 226.5 179.1 225.25 177.2 221.1 177.2 L221.1 173.8 Z" fill="none" stroke="#54450b" stroke-linecap="round" stroke-linejoin="round" stroke-width="2.8000000000000003"/>
    </g>
  </defs>
</svg>
