<?xml version="1.0" encoding="UTF-8" standalone="no"?>
<svg xmlns:xlink="http://www.w3.org/1999/xlink" height="300.0px" width="300.0px" xmlns="http://www.w3.org/2000/svg">
  <g transform="matrix(1.0, 0.0, 0.0, 1.0, 0.0, 0.0)">
    <use height="261.0" transform="matrix(1.0, 0.0, 0.0, 1.0, 33.05, 4.25)" width="230.65" xlink:href="#shape0"/>
  </g>
  <defs>
    <g id="shape0" transform="matrix(1.0, 0.0, 0.0, 1.0, -33.05, -4.25)">
      <path d="M172.85 245.3 L173.65 241.2 Q174.0 239.05 174.0 236.3 L173.95 234.9 173.85 233.45 177.45 233.45 177.5 234.65 177.5 235.7 Q177.5 239.3 177.0 242.25 L175.95 247.6 175.3 250.85 175.15 253.45 Q175.15 257.4 177.05 259.25 178.9 261.1 182.5 261.1 L189.5 261.1 189.5 233.45 193.05 233.45 193.05 264.05 180.9 264.05 Q176.55 264.0 174.1 261.4 171.65 258.75 171.6 253.65 L171.7 251.45 172.05 249.15 172.85 245.3 M232.25 235.75 Q230.55 235.75 229.2 236.55 227.85 237.35 227.0 238.5 226.15 239.75 225.9 241.0 L227.95 241.05 231.25 241.05 234.4 241.05 236.95 241.0 237.95 241.0 Q237.95 239.75 237.25 238.55 236.5 237.35 235.25 236.55 233.95 235.75 232.25 235.75 M235.3 233.1 Q236.85 233.65 238.2 234.65 240.05 236.1 240.9 238.6 241.8 241.15 241.65 243.95 L225.0 243.95 224.55 246.35 Q224.4 247.6 224.4 249.0 224.4 252.35 225.35 255.2 226.3 258.15 228.3 259.95 230.25 261.75 233.3 261.8 235.35 261.8 237.15 261.0 239.05 260.2 240.45 258.9 L240.45 262.35 Q238.7 263.7 236.8 264.3 L233.05 264.95 Q229.75 264.95 227.0 263.15 224.25 261.35 222.55 257.9 220.85 254.45 220.8 249.6 220.85 243.55 222.5 239.85 224.2 236.1 226.8 234.3 229.4 232.55 232.25 232.55 233.7 232.55 235.3 233.1 M207.05 232.85 L210.9 233.3 Q212.8 233.75 214.55 234.65 L214.55 238.05 Q213.1 237.15 211.05 236.55 L207.0 235.85 204.75 236.2 Q203.6 236.55 202.85 237.35 202.1 238.15 202.05 239.4 202.05 240.5 203.0 241.5 204.0 242.55 206.05 243.1 209.15 243.85 211.7 245.1 214.3 246.4 215.9 248.6 217.45 250.8 217.5 254.35 217.45 257.45 215.9 259.85 214.4 262.25 211.7 263.65 209.05 265.0 205.6 265.05 L201.75 264.6 Q199.8 264.15 197.7 263.15 L197.7 259.6 Q199.75 260.8 201.7 261.4 L205.5 261.95 Q209.2 261.9 211.55 259.9 213.9 257.95 213.95 254.7 214.0 252.75 213.1 251.25 212.25 249.7 210.2 248.5 208.15 247.25 204.6 246.35 201.4 245.4 200.0 243.65 198.6 241.8 198.65 239.7 198.65 237.9 199.6 236.4 200.5 234.85 202.4 233.85 204.25 232.9 207.05 232.85 M253.25 232.85 L257.1 233.3 Q259.0 233.75 260.75 234.65 L260.75 238.05 Q259.3 237.15 257.25 236.55 255.25 235.9 253.2 235.85 L250.95 236.2 Q249.8 236.55 249.05 237.35 248.3 238.15 248.25 239.4 248.25 240.5 249.2 241.5 250.2 242.55 252.25 243.1 255.35 243.85 257.9 245.1 260.5 246.4 262.1 248.6 263.65 250.8 263.7 254.35 263.65 257.45 262.1 259.85 260.6 262.25 257.9 263.65 255.25 265.0 251.8 265.05 L247.95 264.6 243.9 263.15 243.9 259.6 Q245.95 260.8 247.9 261.4 L251.7 261.95 Q255.4 261.9 257.75 259.9 260.1 257.95 260.15 254.7 260.2 252.75 259.3 251.25 258.45 249.7 256.4 248.5 254.35 247.25 250.8 246.35 247.6 245.4 246.2 243.65 244.8 241.8 244.85 239.7 244.85 237.9 245.8 236.4 246.7 234.85 248.6 233.85 250.45 232.9 253.25 232.85 M42.2 227.0 Q46.5 224.6 52.1 224.55 57.85 224.6 62.15 227.1 66.5 229.55 68.9 234.15 71.35 238.75 71.4 245.05 71.35 251.25 68.6 255.8 65.85 260.3 61.3 262.75 56.75 265.25 51.2 265.25 45.95 265.25 41.9 262.8 37.8 260.4 35.45 256.0 33.1 251.55 33.05 245.55 33.1 238.8 35.5 234.1 37.9 229.45 42.2 227.0 M60.0 230.0 Q56.5 227.9 52.0 227.9 47.45 227.95 44.1 230.15 40.75 232.35 38.85 236.4 37.05 240.35 37.0 245.75 37.05 250.95 38.95 254.6 40.85 258.2 44.1 260.1 47.4 261.95 51.55 261.95 56.2 261.95 59.75 259.8 63.35 257.7 65.4 254.0 67.4 250.3 67.45 245.55 67.4 240.0 65.4 236.05 63.45 232.1 60.0 230.0 M109.55 227.2 L109.55 233.45 113.95 233.45 113.95 236.55 109.45 236.55 109.45 264.05 105.9 264.05 105.9 236.55 101.65 236.55 101.65 233.45 106.0 233.45 106.0 227.2 109.55 227.2 M81.95 233.45 L82.0 234.65 82.0 235.7 Q82.0 239.3 81.5 242.25 L80.45 247.6 79.8 250.85 79.65 253.45 Q79.65 257.4 81.55 259.25 83.4 261.1 87.0 261.1 L94.0 261.1 94.0 233.45 97.55 233.45 97.55 264.05 85.4 264.05 Q81.05 264.0 78.6 261.4 76.15 258.75 76.1 253.65 L76.2 251.45 76.55 249.15 77.35 245.3 78.15 241.2 Q78.5 239.05 78.5 236.3 L78.45 234.9 78.35 233.45 81.95 233.45 M151.2 237.55 Q149.4 239.35 148.65 242.4 147.85 245.45 147.9 249.2 147.85 252.15 148.55 255.0 149.3 257.85 151.0 259.7 152.7 261.6 155.6 261.65 158.6 261.6 160.4 259.85 162.2 258.1 162.95 255.2 163.75 252.35 163.75 248.95 163.8 242.7 162.05 239.25 160.3 235.8 156.1 235.75 153.0 235.75 151.2 237.55 M149.15 235.0 Q151.8 232.65 156.2 232.55 161.45 232.55 164.4 236.8 167.3 241.05 167.35 249.35 167.35 252.05 166.65 254.8 165.95 257.5 164.55 259.75 163.1 262.0 160.9 263.35 158.65 264.7 155.55 264.75 152.7 264.7 150.6 263.35 148.5 262.05 147.1 259.85 145.7 257.6 145.0 254.85 144.3 252.15 144.3 249.35 144.25 244.95 145.4 241.15 146.55 237.35 149.15 235.0 M124.95 233.9 Q127.1 232.95 129.55 232.95 132.3 232.9 134.8 234.3 137.35 235.7 139.0 238.9 139.8 240.6 140.15 242.6 140.5 244.55 140.5 246.75 140.5 249.8 140.0 252.9 L138.65 258.9 137.1 264.05 133.25 264.05 134.95 259.4 136.4 253.45 Q136.95 250.25 137.0 247.2 137.0 244.85 136.55 242.75 136.1 240.7 135.05 239.15 134.05 237.7 132.45 236.95 130.9 236.25 129.05 236.25 127.2 236.25 125.5 237.05 123.85 237.85 122.75 239.5 121.65 241.15 121.65 243.6 L121.65 264.05 118.0 264.05 118.0 222.1 121.65 222.1 121.65 236.25 Q122.85 234.75 124.95 233.9 M152.25 193.6 Q154.9 191.25 159.3 191.15 164.55 191.15 167.5 195.4 170.4 199.65 170.45 207.95 170.45 210.65 169.75 213.4 169.05 216.1 167.65 218.35 166.2 220.6 164.0 221.95 161.75 223.3 158.65 223.35 155.8 223.3 153.7 221.95 151.6 220.65 150.2 218.45 148.8 216.2 148.1 213.45 147.4 210.75 147.4 207.95 147.35 203.55 148.5 199.75 149.65 195.95 152.25 193.6 M159.2 194.35 Q156.1 194.35 154.3 196.15 152.5 197.95 151.75 201.0 150.95 204.05 151.0 207.8 150.95 210.75 151.65 213.6 152.4 216.45 154.1 218.3 155.8 220.2 158.7 220.25 161.7 220.2 163.5 218.45 165.3 216.7 166.05 213.8 166.85 210.95 166.85 207.55 166.9 201.3 165.15 197.85 163.4 194.4 159.2 194.35 M130.65 194.55 Q128.6 194.5 126.8 195.65 125.0 196.85 123.85 199.45 122.65 202.1 122.65 206.4 122.65 211.25 124.05 214.15 125.45 217.05 127.95 218.3 130.5 219.6 133.9 219.55 L138.15 219.55 138.15 201.2 Q138.15 199.3 137.05 197.75 136.0 196.3 134.3 195.4 132.6 194.55 130.65 194.55 M153.8 164.6 Q152.8 162.4 150.75 161.25 148.7 160.05 146.25 160.05 144.15 160.05 142.25 161.05 140.25 162.05 139.0 164.25 137.75 166.45 137.75 170.0 137.75 172.8 138.85 174.85 139.95 176.85 141.8 177.9 143.65 178.95 145.85 178.95 148.2 178.95 150.35 177.75 152.45 176.55 153.8 174.1 L153.8 164.6 M153.5 151.6 Q155.7 152.95 156.6 155.5 157.45 158.0 157.4 161.5 L157.4 176.4 157.5 179.2 Q157.6 180.55 157.9 181.2 L154.4 181.2 Q154.05 180.75 153.95 180.05 L153.8 178.65 Q151.75 180.4 149.6 181.2 147.45 182.0 145.35 182.0 L141.8 181.5 141.8 222.65 132.9 222.65 Q129.35 222.7 126.25 221.1 123.1 219.55 121.1 216.05 119.15 212.6 119.1 206.95 119.15 201.1 120.9 197.6 122.6 194.15 125.25 192.6 127.85 191.1 130.6 191.1 133.05 191.15 135.1 192.15 137.1 193.1 138.15 194.75 L138.15 180.7 140.0 180.7 139.8 180.6 Q137.35 179.2 135.8 176.5 134.3 173.85 134.25 170.0 134.35 165.85 135.95 162.95 137.55 160.05 140.25 158.5 142.95 157.0 146.15 157.0 148.2 157.0 150.15 157.65 152.05 158.35 153.65 159.75 153.6 157.2 152.7 155.75 151.85 154.35 150.3 153.85 148.75 153.3 146.8 153.3 L146.2 153.35 145.55 153.4 145.55 150.3 146.4 150.25 147.25 150.25 Q151.3 150.25 153.5 151.6 M93.8 192.05 L97.4 192.05 97.4 194.85 Q98.6 193.35 100.6 192.5 102.6 191.55 104.95 191.55 107.5 191.5 109.9 192.9 112.3 194.3 113.95 197.5 114.75 199.2 115.1 201.2 115.5 203.15 115.5 205.35 L114.95 211.5 113.65 217.5 112.05 222.65 108.2 222.65 109.9 218.0 111.35 212.05 Q111.9 208.85 111.95 205.8 111.95 203.45 111.5 201.35 111.05 199.3 110.0 197.75 109.0 196.3 107.45 195.5 105.95 194.75 104.35 194.75 102.6 194.75 101.0 195.6 99.45 196.45 98.4 198.05 97.45 199.75 97.4 202.2 L97.4 222.65 93.8 222.65 93.8 192.05 M82.95 184.0 L86.95 184.0 86.95 222.65 82.95 222.65 82.95 184.0 M106.05 108.3 Q111.3 108.3 114.25 112.55 117.15 116.8 117.2 125.1 117.2 127.8 116.5 130.55 115.8 133.25 114.4 135.5 112.95 137.75 110.75 139.1 L110.5 139.25 111.8 139.25 111.8 153.4 Q113.0 151.9 115.1 151.05 117.25 150.1 119.7 150.1 122.45 150.05 124.95 151.45 127.5 152.85 129.15 156.05 129.95 157.75 130.3 159.75 130.65 161.7 130.65 163.9 130.65 166.95 130.15 170.05 L128.8 176.05 127.25 181.2 123.4 181.2 125.1 176.55 126.55 170.6 Q127.1 167.4 127.15 164.35 127.15 162.0 126.7 159.9 126.25 157.85 125.2 156.3 124.2 154.85 122.6 154.1 121.05 153.4 119.2 153.4 117.35 153.4 115.65 154.2 114.0 155.0 112.9 156.65 111.8 158.3 111.8 160.75 L111.8 181.2 108.15 181.2 108.15 140.15 105.4 140.5 Q102.55 140.45 100.45 139.1 98.35 137.8 96.95 135.6 95.55 133.35 94.85 130.6 94.15 127.9 94.15 125.1 94.1 120.7 95.25 116.9 96.4 113.1 99.0 110.75 101.65 108.4 106.05 108.3 M111.9 115.0 Q110.15 111.55 105.95 111.5 102.85 111.5 101.05 113.3 99.25 115.1 98.5 118.15 97.7 121.2 97.75 124.95 97.7 127.9 98.4 130.75 99.15 133.6 100.85 135.45 102.55 137.35 105.45 137.4 108.45 137.35 110.25 135.6 112.05 133.85 112.8 130.95 113.6 128.1 113.6 124.7 113.65 118.45 111.9 115.0 M127.3 109.2 L127.35 110.4 127.35 111.45 Q127.35 115.05 126.85 118.0 L125.8 123.35 125.15 126.6 125.0 129.2 Q125.0 133.15 126.9 135.0 128.75 136.85 132.35 136.85 L139.35 136.85 139.35 109.2 142.9 109.2 142.9 139.8 130.75 139.8 Q126.4 139.75 123.95 137.15 121.5 134.5 121.45 129.4 L121.55 127.2 121.9 124.9 122.7 121.05 123.5 116.95 Q123.85 114.8 123.85 112.05 L123.8 110.65 123.7 109.2 127.3 109.2 M80.55 170.8 Q78.95 167.25 78.9 162.7 78.95 156.7 81.85 152.05 84.7 147.4 89.65 144.75 94.65 142.1 101.0 142.05 L102.0 142.05 103.0 142.1 103.0 145.7 101.95 145.6 100.85 145.6 Q95.95 145.6 91.85 147.6 87.8 149.6 85.35 153.4 82.9 157.2 82.85 162.7 82.9 166.65 84.3 169.6 85.65 172.5 88.0 174.45 90.35 176.4 93.3 177.35 96.25 178.3 99.4 178.3 L101.3 178.2 103.15 178.0 103.15 181.15 100.75 181.5 98.45 181.65 Q94.65 181.65 91.15 180.4 87.65 179.15 84.9 176.75 82.15 174.35 80.55 170.8 M80.6 139.0 Q77.1 137.75 74.35 135.35 71.6 132.95 70.0 129.4 68.4 125.85 68.35 121.3 68.4 115.3 71.3 110.65 74.15 106.0 79.1 103.35 84.1 100.7 90.45 100.65 L91.45 100.65 92.45 100.7 92.45 104.3 91.4 104.2 90.3 104.2 Q85.4 104.2 81.3 106.2 77.25 108.2 74.8 112.0 72.35 115.8 72.3 121.3 72.35 125.25 73.75 128.2 75.1 131.1 77.45 133.05 79.8 135.0 82.75 135.95 85.7 136.9 88.85 136.9 L90.75 136.8 92.6 136.6 92.6 139.75 90.2 140.1 87.9 140.25 Q84.1 140.25 80.6 139.0 M209.15 192.35 Q210.65 191.55 212.25 191.55 L214.0 191.85 Q214.85 192.2 215.55 192.85 L216.55 194.45 216.85 196.25 Q216.85 198.15 215.75 199.75 214.65 201.4 212.8 202.35 L211.15 199.9 212.95 198.2 Q213.55 197.25 213.5 196.55 213.5 195.8 213.05 195.25 212.6 194.7 211.75 194.7 210.4 194.7 209.25 195.7 208.05 196.75 207.3 198.45 206.55 200.1 206.5 202.0 L206.5 222.65 203.05 222.65 203.05 192.05 206.5 192.05 206.5 194.5 Q207.6 193.15 209.15 192.35 M186.6 191.15 Q191.85 191.15 194.8 195.4 197.7 199.65 197.75 207.95 197.75 210.65 197.05 213.4 196.35 216.1 194.95 218.35 193.5 220.6 191.3 221.95 189.05 223.3 185.95 223.35 183.1 223.3 181.0 221.95 178.9 220.65 177.5 218.45 176.1 216.2 175.4 213.45 174.7 210.75 174.7 207.95 174.65 203.55 175.8 199.75 176.95 195.95 179.55 193.6 182.2 191.25 186.6 191.15 M192.45 197.85 Q190.7 194.4 186.5 194.35 183.4 194.35 181.6 196.15 179.8 197.95 179.05 201.0 178.25 204.05 178.3 207.8 178.25 210.75 178.95 213.6 179.7 216.45 181.4 218.3 183.1 220.2 186.0 220.25 189.0 220.2 190.8 218.45 192.6 216.7 193.35 213.8 194.15 210.95 194.15 207.55 194.2 201.3 192.45 197.85 M174.15 153.8 Q173.7 153.25 172.85 153.25 171.5 153.25 170.35 154.25 169.15 155.3 168.4 157.0 167.65 158.65 167.6 160.55 L167.6 181.2 164.15 181.2 164.15 150.6 167.6 150.6 167.6 153.05 Q168.7 151.7 170.25 150.9 171.75 150.1 173.35 150.1 L175.1 150.4 Q175.95 150.75 176.65 151.4 L177.65 153.0 177.95 154.8 Q177.95 156.7 176.85 158.3 175.75 159.95 173.9 160.9 L172.25 158.45 174.05 156.75 Q174.65 155.8 174.6 155.1 174.6 154.35 174.15 153.8 M195.6 150.95 Q197.45 152.0 198.85 154.25 L198.95 154.35 199.05 154.4 199.15 154.35 199.2 154.25 Q200.55 152.4 202.65 151.25 204.8 150.15 207.2 150.15 209.7 150.1 211.95 151.5 214.25 152.9 215.7 155.9 217.1 158.95 217.15 163.9 217.15 166.95 216.65 170.05 L215.4 176.05 213.85 181.2 209.9 181.2 212.35 173.1 Q213.4 168.65 213.45 164.3 213.45 161.45 212.75 159.05 212.1 156.6 210.55 155.15 209.0 153.65 206.45 153.6 204.95 153.6 203.55 154.4 202.15 155.2 201.25 156.8 200.4 158.4 200.4 160.85 L200.4 181.2 196.8 181.2 196.8 160.2 Q196.8 158.55 196.25 157.05 195.7 155.5 194.6 154.5 193.55 153.55 191.85 153.5 189.55 153.55 188.0 154.5 186.45 155.45 185.6 157.1 184.8 158.75 184.8 160.75 L184.8 181.2 181.2 181.2 181.2 150.6 184.8 150.6 184.8 153.4 Q186.05 151.85 187.95 150.9 189.75 150.0 191.85 149.95 193.8 149.95 195.6 150.95 M168.0 122.95 Q168.0 120.6 167.55 118.5 167.1 116.45 166.05 114.9 165.05 113.45 163.5 112.65 162.0 111.9 160.4 111.9 158.65 111.9 157.05 112.75 155.5 113.6 154.45 115.2 153.5 116.9 153.45 119.35 L153.45 139.8 149.85 139.8 149.85 109.2 153.45 109.2 153.45 112.0 Q154.65 110.5 156.65 109.65 158.65 108.7 161.0 108.7 163.55 108.65 165.95 110.05 168.35 111.45 170.0 114.65 170.8 116.35 171.15 118.35 171.55 120.3 171.55 122.5 L171.0 128.65 169.7 134.65 168.1 139.8 164.25 139.8 165.95 135.15 167.4 129.2 Q167.95 126.0 168.0 122.95 M186.25 109.2 L186.25 112.3 181.75 112.3 181.75 139.8 178.2 139.8 178.2 112.3 173.95 112.3 173.95 109.2 178.3 109.2 178.3 102.95 181.85 102.95 181.85 109.2 186.25 109.2 M204.15 113.4 Q204.15 115.3 203.05 116.9 201.95 118.55 200.1 119.5 L198.45 117.05 Q199.7 116.25 200.25 115.35 200.85 114.4 200.8 113.7 200.8 112.95 200.35 112.4 199.9 111.85 199.05 111.85 197.7 111.85 196.55 112.85 195.35 113.9 194.6 115.6 193.85 117.25 193.8 119.15 L193.8 139.8 190.35 139.8 190.35 109.2 193.8 109.2 193.8 111.65 Q194.9 110.3 196.45 109.5 197.95 108.7 199.55 108.7 L201.3 109.0 202.85 110.0 203.85 111.6 204.15 113.4 M210.05 109.2 L210.35 111.1 210.4 113.15 210.15 117.55 209.5 121.7 208.9 125.05 208.55 127.4 Q208.4 128.5 208.4 129.5 208.45 132.45 209.35 134.3 210.25 136.15 211.65 137.05 213.1 137.9 214.8 137.9 217.1 137.9 219.25 136.45 221.4 135.05 222.55 132.45 L222.55 109.2 226.2 109.2 226.2 140.65 Q226.15 144.4 225.0 146.75 223.9 149.1 221.9 150.2 219.95 151.3 217.5 151.3 L214.2 150.85 Q212.45 150.45 210.75 149.65 L211.5 148.05 212.25 146.55 Q213.5 147.3 214.7 147.7 L217.25 148.05 Q219.55 148.1 221.05 146.45 222.5 144.85 222.55 141.5 L222.55 137.25 Q220.9 139.15 218.75 140.15 216.55 141.15 214.3 141.15 211.8 141.15 209.65 139.9 207.55 138.7 206.2 136.2 204.85 133.7 204.85 129.75 L204.9 128.2 205.05 126.5 206.15 120.35 Q206.7 117.1 206.75 113.55 L206.65 111.35 206.35 109.2 210.05 109.2 M170.8 6.8 L169.05 6.75 Q153.45 6.75 142.4 17.8 131.4 28.8 131.4 44.4 131.4 60.0 142.4 71.05 153.45 82.05 169.05 82.05 173.7 82.05 178.2 80.95 168.2 87.1 156.5 87.1 139.3 87.1 127.15 74.95 115.05 62.85 115.05 45.65 115.05 28.5 127.15 16.4 139.3 4.25 156.5 4.25 163.9 4.25 170.8 6.8" fill="#4f3131" fill-rule="evenodd" stroke="none"/>
    </g>
  </defs>
</svg>
