<?xml version="1.0" encoding="UTF-8" standalone="no"?>
<svg xmlns:xlink="http://www.w3.org/1999/xlink" height="300.0px" width="300.0px" xmlns="http://www.w3.org/2000/svg">
  <g transform="matrix(1.0, 0.0, 0.0, 1.0, 0.0, 0.0)">
    <use height="98.05" transform="matrix(1.0, 0.0, 0.0, 1.0, -1.65, 122.4)" width="316.0" xlink:href="#shape0"/>
  </g>
  <defs>
    <g id="shape0" transform="matrix(1.0, 0.0, 0.0, 1.0, 1.65, -122.4)">
      <path d="M182.2 187.25 Q182.6 187.25 182.6 187.55 182.6 187.95 182.05 188.05 180.95 188.3 180.6 188.9 180.2 189.45 180.2 190.85 L180.2 210.65 180.0 213.2 Q179.3 216.25 177.3 218.35 175.3 220.45 173.05 220.45 172.4 220.45 172.0 220.15 171.5 219.9 171.5 219.45 L171.55 219.05 171.7 218.35 Q172.0 217.15 172.45 217.15 L173.1 217.65 Q173.85 218.55 174.8 218.55 175.9 218.55 176.65 217.1 177.35 215.65 177.35 213.55 L177.3 192.55 Q177.3 190.3 176.9 189.45 176.45 188.55 175.25 188.3 L174.15 188.05 Q173.55 187.95 173.55 187.55 173.55 187.1 174.2 187.2 L175.55 187.3 178.75 187.4 181.1 187.35 182.2 187.25 M210.4 197.9 L212.45 198.0 214.65 197.85 215.25 197.8 Q215.85 197.8 215.85 198.2 L215.4 198.6 214.8 198.75 Q214.05 198.9 214.05 199.85 L214.5 201.35 217.85 210.25 220.55 203.85 Q221.55 201.7 221.55 200.3 221.55 199.55 221.05 199.1 220.55 198.6 219.85 198.6 219.3 198.6 219.3 198.25 219.3 197.85 219.75 197.85 L220.5 197.9 222.35 198.0 224.2 197.9 225.0 197.85 Q225.35 197.85 225.35 198.2 L224.9 198.6 Q224.3 198.85 223.9 199.2 L223.15 200.45 217.85 212.95 Q217.5 213.65 216.95 213.65 216.4 213.65 216.15 213.1 L212.85 204.25 208.5 213.25 207.75 213.7 Q207.25 213.7 207.1 213.3 L202.3 200.85 Q201.7 199.3 200.35 198.8 L199.95 198.3 Q199.95 197.9 200.55 197.9 L201.15 198.0 203.25 198.05 206.05 198.0 206.5 198.1 206.6 198.35 206.3 198.75 205.75 198.85 Q204.9 199.1 204.9 199.95 L205.4 201.9 208.6 210.4 212.25 202.8 211.9 201.85 210.8 199.45 Q210.35 198.85 209.5 198.6 209.0 198.5 209.0 198.25 209.0 197.8 209.6 197.8 L210.4 197.9 M241.85 187.2 L243.05 186.85 244.15 186.35 246.0 185.45 Q246.25 185.3 246.35 185.3 246.7 185.3 246.7 186.15 L246.65 186.7 246.65 208.85 Q246.65 210.4 247.0 211.25 247.45 212.15 249.4 212.5 249.85 212.6 249.9 212.85 249.9 213.3 249.5 213.3 L249.0 213.25 248.15 213.2 245.5 213.2 243.3 213.25 242.6 213.35 Q242.1 213.35 242.1 212.95 242.05 212.65 242.6 212.5 L243.8 211.85 244.05 210.55 244.05 189.65 Q244.05 187.95 242.85 187.95 L241.9 187.95 241.6 187.95 241.35 187.6 Q241.35 187.35 241.85 187.2 M273.0 197.65 L273.0 200.85 Q275.25 197.4 277.05 197.4 277.65 197.4 278.6 198.1 279.5 198.8 279.6 199.2 L279.0 200.25 278.05 201.0 277.25 200.55 Q276.45 199.95 275.75 199.95 274.6 199.95 273.85 200.85 273.0 201.65 273.0 202.85 L273.0 209.6 Q273.0 211.2 273.45 211.85 273.9 212.55 274.95 212.6 L275.9 212.7 Q276.5 212.75 276.5 213.1 276.5 213.45 276.0 213.45 L275.1 213.35 274.05 213.3 271.85 213.3 269.75 213.4 269.1 213.5 Q268.55 213.5 268.55 213.15 268.55 212.8 269.15 212.7 L270.25 212.0 270.45 209.85 270.45 201.75 Q270.45 199.6 268.35 199.6 L267.75 199.6 Q267.25 199.6 267.25 199.2 267.25 199.0 267.6 198.85 L267.95 198.8 Q269.75 198.6 272.15 197.1 L272.6 197.0 Q273.0 196.95 273.0 197.65 M289.3 197.75 L290.15 198.05 Q290.65 198.2 290.65 198.6 L290.65 198.9 290.7 199.45 290.75 200.2 290.8 200.9 Q290.8 201.65 290.45 201.65 290.15 201.7 289.95 201.15 288.95 198.3 286.1 198.3 284.95 198.3 284.25 198.95 283.5 199.6 283.5 200.55 283.5 201.65 284.3 202.3 285.05 202.85 287.4 203.85 289.8 204.75 290.7 205.75 291.6 206.8 291.6 208.5 291.6 210.65 290.05 212.15 288.5 213.65 286.3 213.65 284.75 213.65 282.9 212.8 L282.35 212.6 281.9 212.55 Q281.45 212.5 281.4 212.05 L281.3 208.85 281.35 208.3 Q281.45 207.75 281.8 207.75 282.15 207.75 282.25 208.3 282.65 210.4 283.75 211.55 284.9 212.75 286.5 212.75 287.9 212.75 288.75 211.9 289.65 211.1 289.65 209.85 289.65 207.9 287.55 206.95 L285.85 206.25 Q283.6 205.25 282.65 204.2 281.75 203.15 281.75 201.7 281.75 199.85 283.2 198.6 284.65 197.4 286.75 197.4 L289.3 197.75 M10.15 191.25 Q7.5 194.5 7.5 199.65 7.5 205.15 10.6 208.85 13.65 212.55 18.25 212.55 22.65 212.55 25.1 209.4 25.7 208.65 25.7 206.85 L25.7 202.6 Q25.7 201.45 25.2 201.05 24.7 200.6 23.2 200.5 22.5 200.45 22.45 200.05 22.45 199.7 23.05 199.7 L25.2 199.75 28.65 199.7 30.15 199.6 Q30.6 199.6 30.6 199.95 L30.0 200.4 Q28.6 200.7 28.6 202.5 L28.6 209.15 28.65 209.75 28.5 210.0 27.95 210.2 Q27.5 210.25 26.4 210.9 L25.15 211.55 Q21.5 213.7 17.25 213.7 11.6 213.7 7.95 210.05 4.35 206.45 4.35 200.85 4.35 194.85 8.25 190.9 12.05 186.95 17.8 186.95 L22.55 187.6 Q25.05 188.25 26.5 189.15 L26.85 189.35 27.2 189.15 27.65 188.85 27.9 188.75 Q28.3 188.75 28.3 189.65 L28.4 190.9 28.55 192.65 28.8 194.1 28.95 194.65 Q28.95 195.15 28.55 195.15 L28.1 194.8 Q26.65 191.8 23.6 189.9 20.55 188.05 17.1 188.05 12.85 188.05 10.15 191.25 M54.2 185.3 Q54.5 185.3 54.5 186.15 L54.45 186.7 54.45 208.85 Q54.45 210.4 54.85 211.25 55.25 212.15 57.2 212.5 57.7 212.6 57.75 212.85 L57.3 213.3 56.8 213.25 55.95 213.2 53.35 213.2 51.1 213.25 50.45 213.35 Q49.95 213.35 49.95 212.95 49.9 212.65 50.45 212.5 51.3 212.25 51.6 211.85 L51.9 210.55 51.9 189.65 Q51.9 187.95 50.7 187.95 L49.75 187.95 49.4 187.95 49.2 187.6 Q49.2 187.35 49.65 187.2 L50.85 186.85 52.0 186.35 53.8 185.45 54.2 185.3 M60.7 186.85 L61.8 186.35 63.65 185.45 Q63.9 185.3 64.0 185.3 64.35 185.3 64.35 186.15 L64.3 186.7 64.3 208.85 Q64.3 210.4 64.65 211.25 65.1 212.15 67.05 212.5 67.5 212.6 67.55 212.85 67.55 213.3 67.15 213.3 L66.65 213.25 65.8 213.2 63.15 213.2 60.95 213.25 60.25 213.35 Q59.8 213.35 59.8 212.95 59.7 212.65 60.25 212.5 L61.45 211.85 61.7 210.55 61.7 189.65 Q61.7 187.95 60.55 187.95 L59.55 187.95 59.25 187.95 59.0 187.6 Q59.0 187.35 59.5 187.2 L60.7 186.85 M79.3 188.85 Q81.55 186.95 85.15 186.95 87.2 186.95 88.6 187.55 L89.85 188.1 90.2 188.15 90.7 188.0 90.9 187.7 91.1 187.65 Q91.6 187.65 91.6 188.55 L91.85 190.5 92.15 192.45 92.25 193.2 Q92.25 193.8 91.85 193.8 91.55 193.8 91.2 192.85 90.5 190.85 88.45 189.5 86.4 188.2 83.85 188.2 81.8 188.2 80.4 189.4 79.05 190.55 79.05 192.4 79.05 193.95 80.0 195.15 80.75 196.1 81.65 196.55 L86.15 198.2 Q93.1 200.5 93.1 205.65 93.1 209.2 90.5 211.4 88.0 213.65 83.95 213.65 L80.8 213.25 78.2 212.35 77.8 211.85 77.4 210.5 76.95 208.8 Q76.45 207.1 76.45 206.35 76.45 205.8 76.8 205.8 77.2 205.9 77.45 206.75 78.15 209.1 80.3 210.7 82.5 212.25 85.05 212.25 87.65 212.25 89.45 210.75 91.2 209.2 91.2 207.05 91.2 204.95 89.6 203.5 88.75 202.75 84.65 201.4 80.5 200.0 78.75 198.3 77.05 196.6 77.05 193.85 77.05 190.8 79.3 188.85 M100.3 197.85 L104.35 197.85 105.6 197.55 106.05 197.35 106.2 197.55 106.05 198.05 105.6 199.1 Q105.4 199.65 104.8 199.65 L100.3 199.65 100.3 209.15 Q100.3 211.0 100.85 211.5 101.65 212.35 103.05 212.35 L104.95 211.9 106.1 211.4 106.3 211.65 Q106.3 212.2 104.8 212.95 103.35 213.65 102.05 213.65 97.7 213.65 97.7 209.15 L97.7 199.65 96.05 199.65 Q95.55 199.65 95.55 199.4 95.55 199.1 96.05 198.7 98.25 196.8 99.45 194.9 L100.15 194.1 Q100.4 194.1 100.4 194.6 L100.3 197.85 M131.15 197.1 L131.65 196.95 Q131.95 196.95 131.9 197.5 L131.9 198.25 131.9 200.35 Q134.4 197.4 137.15 197.4 140.15 197.4 141.9 199.85 143.15 201.5 143.15 205.0 L143.15 209.55 143.1 210.05 143.15 211.0 Q143.35 212.2 144.75 212.45 L145.55 212.55 Q146.05 212.65 146.1 212.9 146.1 213.35 145.45 213.35 L144.7 213.3 142.45 213.2 139.3 213.3 139.05 213.25 Q138.9 213.15 138.9 212.9 138.9 212.65 139.25 212.55 L139.8 212.45 Q140.55 212.2 140.55 211.05 L140.55 204.6 Q140.55 201.95 139.35 200.5 138.15 199.1 135.85 199.1 134.3 199.1 133.15 200.0 131.9 200.95 131.9 202.1 L131.95 210.9 Q132.05 212.45 134.6 212.6 135.2 212.65 135.2 212.95 L134.75 213.35 133.8 213.25 132.0 213.2 128.45 213.3 127.65 213.35 Q127.35 213.35 127.35 213.05 L127.7 212.65 129.0 211.85 Q129.3 211.35 129.3 210.25 L129.3 201.75 Q129.3 200.4 129.0 199.9 128.65 199.45 127.8 199.45 L127.0 199.5 126.7 199.4 126.5 199.1 Q126.5 198.85 127.0 198.75 L129.45 198.0 130.45 197.5 131.15 197.1 M161.15 201.75 L161.6 203.25 Q161.6 203.9 160.4 203.9 L150.55 203.85 150.55 204.2 Q150.55 207.45 152.3 209.65 154.1 211.85 156.75 211.85 158.75 211.85 161.2 210.0 L161.45 209.85 161.7 210.2 Q161.7 210.7 160.45 211.8 157.95 213.65 155.2 213.65 152.15 213.65 150.1 211.35 148.0 209.0 148.0 205.55 148.0 202.3 150.15 199.8 152.3 197.4 155.15 197.4 158.35 197.4 160.2 199.95 L161.15 201.75 M158.55 202.15 Q158.55 200.7 157.3 199.45 156.05 198.2 154.5 198.2 152.95 198.2 151.95 199.45 150.9 200.65 150.65 202.75 L157.05 202.75 Q158.55 202.75 158.55 202.15 M123.95 205.45 Q123.95 209.0 121.6 211.35 119.15 213.65 115.5 213.65 111.9 213.65 109.6 211.4 107.3 209.15 107.3 205.6 107.3 202.15 109.75 199.75 112.25 197.4 115.65 197.4 119.1 197.4 121.55 199.75 123.95 202.1 123.95 205.45 M115.25 198.15 Q112.85 198.15 111.4 199.85 109.95 201.65 109.95 204.45 109.95 208.05 111.75 210.45 113.55 212.85 116.25 212.85 118.55 212.85 119.9 211.15 121.25 209.5 121.25 206.5 121.25 202.8 119.6 200.45 117.85 198.15 115.25 198.15 M75.15 202.6 Q75.35 202.6 75.35 203.6 L75.2 204.95 Q75.1 205.2 74.15 205.45 L72.0 206.2 69.25 207.1 Q68.7 207.3 68.55 207.4 L68.15 207.55 Q67.9 207.6 67.9 206.95 67.9 205.6 68.1 205.3 68.3 204.95 69.55 204.6 L71.55 203.9 73.6 203.2 74.9 202.7 75.15 202.6 M44.8 201.75 L44.8 209.1 Q44.8 210.9 45.2 211.65 45.65 212.35 46.65 212.35 L47.1 212.35 47.5 212.2 Q47.85 212.2 47.85 212.5 L47.0 213.2 45.25 213.5 Q43.7 213.5 42.45 211.65 39.75 213.65 37.4 213.65 35.65 213.65 34.55 212.75 33.55 211.8 33.55 210.2 33.55 208.05 35.55 206.8 37.45 205.6 42.2 204.9 L42.2 202.6 Q42.2 200.4 41.4 199.6 40.25 198.45 38.45 198.45 35.95 198.45 35.95 200.55 L36.2 201.95 36.35 202.6 Q36.35 202.9 35.95 202.9 L34.35 202.55 Q33.65 202.15 33.65 201.7 33.65 200.55 34.9 199.2 36.6 197.4 39.4 197.4 42.0 197.4 43.4 198.5 44.8 199.65 44.8 201.75 M42.2 205.65 Q39.25 205.95 37.7 206.95 36.1 208.05 36.1 209.7 36.1 211.0 36.85 211.75 37.65 212.5 38.85 212.5 40.5 212.5 41.55 211.45 42.2 210.8 42.2 209.35 L42.2 205.65 M265.35 203.25 Q265.35 203.9 264.1 203.9 L254.25 203.85 254.25 204.2 Q254.25 207.45 256.05 209.65 257.8 211.85 260.45 211.85 262.5 211.85 264.9 210.0 L265.2 209.85 265.45 210.2 Q265.45 210.7 264.15 211.8 261.7 213.65 258.95 213.65 255.9 213.65 253.85 211.35 251.75 209.0 251.75 205.55 251.75 202.3 253.9 199.8 256.05 197.4 258.9 197.4 262.05 197.4 263.95 199.95 L264.85 201.75 265.35 203.25 M258.25 198.2 Q256.7 198.2 255.65 199.45 254.65 200.65 254.35 202.75 L260.75 202.75 Q262.25 202.75 262.25 202.15 262.25 200.7 261.05 199.45 259.75 198.2 258.25 198.2 M239.45 210.2 Q239.45 210.7 238.15 211.8 235.65 213.65 232.95 213.65 229.85 213.65 227.85 211.35 225.75 209.0 225.75 205.55 225.75 202.3 227.9 199.8 230.05 197.4 232.9 197.4 236.05 197.4 237.95 199.95 L238.85 201.75 239.35 203.25 Q239.35 203.9 238.1 203.9 L228.25 203.85 228.25 204.2 Q228.25 207.45 230.05 209.65 231.8 211.85 234.45 211.85 236.5 211.85 238.9 210.0 L239.15 209.85 Q239.45 209.85 239.45 210.2 M235.05 199.45 Q233.75 198.2 232.25 198.2 230.65 198.2 229.65 199.45 228.65 200.65 228.35 202.75 L234.75 202.75 Q236.25 202.75 236.25 202.15 236.25 200.7 235.05 199.45 M198.15 203.9 L188.35 203.85 188.35 204.2 Q188.35 207.45 190.1 209.65 191.85 211.85 194.5 211.85 196.55 211.85 198.95 210.0 L199.25 209.85 199.5 210.2 Q199.5 210.7 198.2 211.8 195.75 213.65 193.0 213.65 189.95 213.65 187.9 211.35 185.8 209.0 185.8 205.55 185.8 202.3 187.95 199.8 190.1 197.4 192.95 197.4 196.1 197.4 198.0 199.95 L198.9 201.75 199.4 203.25 Q199.4 203.9 198.15 203.9 M195.1 199.45 Q193.8 198.2 192.3 198.2 190.75 198.2 189.7 199.45 188.7 200.65 188.45 202.75 L194.85 202.75 Q196.35 202.75 196.35 202.15 196.35 200.7 195.1 199.45" fill="#000000" fill-rule="evenodd" stroke="none"/>
      <path d="M218.3 133.65 L218.65 133.2 Q218.75 132.9 219.65 132.25 L219.85 132.0 220.75 131.35 Q221.15 130.2 222.6 129.95 L222.85 129.8 Q222.95 129.2 223.6 129.1 224.55 128.0 225.7 128.0 L225.55 127.65 Q225.55 127.2 226.05 127.2 L226.5 127.35 Q226.85 126.65 227.3 126.45 L227.9 126.15 228.25 125.85 228.75 125.75 229.55 125.2 230.25 124.9 230.4 124.9 230.5 124.95 Q231.2 124.35 231.65 124.35 L232.5 124.05 232.95 124.15 233.15 124.25 233.8 124.0 233.9 124.0 235.1 124.25 Q235.85 124.3 236.1 125.3 L236.5 126.05 236.65 126.7 236.85 127.6 237.0 127.95 236.85 128.5 236.65 129.3 236.4 129.95 236.15 130.55 Q235.3 133.4 234.55 133.4 232.75 133.4 232.75 132.25 232.75 131.0 234.55 129.45 L235.15 128.65 235.5 127.75 Q235.5 127.15 234.9 127.15 234.45 127.15 234.05 127.45 L233.15 127.75 232.4 127.95 231.85 128.15 230.0 129.35 221.55 136.05 221.45 136.6 220.95 136.95 Q220.45 137.25 220.25 137.85 L218.9 139.55 217.85 141.0 217.55 141.6 Q217.15 141.75 215.3 144.25 L214.3 145.2 214.2 145.25 214.35 145.75 214.35 145.85 212.25 149.2 212.2 149.3 211.65 151.1 211.1 152.1 210.8 152.85 Q210.5 153.2 210.35 153.8 L209.95 154.6 209.7 155.25 209.35 156.1 209.5 156.8 209.0 158.95 209.0 159.05 209.25 159.9 209.7 160.3 211.35 159.5 213.3 157.85 214.05 157.45 214.5 157.05 215.3 156.9 Q215.9 155.6 216.25 155.35 L216.85 155.35 Q217.2 155.1 217.2 154.55 L218.1 153.45 219.45 151.9 220.05 151.35 220.95 150.2 221.9 148.95 Q222.15 148.35 222.55 148.35 L223.05 148.2 223.2 147.7 223.25 147.45 224.2 146.35 224.5 146.0 225.0 145.35 225.35 145.0 Q225.4 144.6 225.75 144.3 L226.55 143.2 227.45 141.85 Q228.2 141.45 228.65 140.15 229.1 138.9 229.85 138.3 L230.65 137.05 Q231.2 136.35 232.0 136.35 232.65 136.35 233.7 137.7 234.7 139.1 234.7 140.3 L234.45 141.55 Q234.15 143.1 233.7 143.75 233.2 144.4 233.15 144.9 L232.6 145.9 Q232.2 146.45 231.85 147.7 L230.95 149.4 230.75 150.15 230.35 151.55 230.25 151.8 230.1 152.1 229.85 152.4 229.75 152.6 229.4 153.45 Q229.4 153.75 229.55 153.75 L230.15 153.35 230.8 152.85 231.2 152.45 Q231.25 152.15 231.8 151.85 232.35 151.55 232.45 151.55 L232.7 151.55 233.8 150.7 Q233.9 150.5 234.8 150.1 L235.75 149.65 Q236.35 149.45 237.35 148.5 L237.7 148.6 Q238.25 148.3 238.35 148.3 L238.5 148.95 238.5 149.05 239.5 148.5 240.25 147.9 241.6 147.1 243.0 146.4 Q243.7 145.95 244.1 145.95 L244.3 145.95 246.05 145.2 246.2 145.2 246.8 145.4 246.9 145.4 247.4 145.2 247.7 145.1 Q249.65 145.1 249.8 147.85 249.85 148.35 250.15 148.35 250.45 148.35 251.0 147.25 251.6 146.1 253.45 146.1 254.8 146.1 254.8 147.85 254.8 149.85 253.05 151.65 L252.8 152.25 252.4 153.5 252.4 153.6 252.1 154.1 251.85 154.65 251.9 155.45 251.8 156.35 252.0 157.1 Q253.05 156.85 253.45 156.25 L254.1 155.65 254.45 155.5 255.0 154.7 255.55 154.3 256.1 153.85 Q256.2 153.45 256.8 153.2 257.4 152.95 257.85 152.2 258.35 151.4 258.9 151.4 L259.3 151.7 259.6 152.15 259.7 151.7 259.9 151.1 259.75 150.6 Q259.75 149.85 260.2 149.4 L260.8 148.05 262.5 143.65 262.8 143.15 263.25 142.45 263.7 141.6 264.05 141.55 264.15 141.3 264.05 140.8 265.75 137.65 266.45 136.95 Q267.1 135.75 267.6 135.55 267.75 134.95 268.25 134.25 L268.85 134.2 269.15 133.5 269.2 132.9 269.35 132.8 269.85 131.65 270.7 130.7 270.95 130.25 271.45 129.4 272.2 128.7 272.85 128.15 Q272.8 127.85 273.6 126.65 L274.65 126.05 275.05 125.95 Q275.05 124.9 275.8 124.45 L276.2 124.25 276.8 124.0 277.0 123.9 277.85 123.75 Q279.05 123.75 279.95 124.65 280.9 125.5 280.9 126.6 L280.45 127.5 280.3 127.75 279.7 129.45 279.3 129.65 279.2 130.8 Q278.65 130.9 278.65 132.25 L278.2 132.9 Q277.8 133.35 277.6 134.15 277.4 134.95 277.1 134.95 L276.8 134.95 276.85 135.35 276.45 136.3 Q276.05 136.65 275.9 137.15 L275.15 138.25 274.85 138.75 274.35 139.4 273.85 140.45 273.0 142.0 Q272.15 143.55 271.75 143.5 L271.35 144.9 270.95 145.2 Q270.55 145.35 270.4 145.8 L269.95 146.35 269.4 147.5 Q268.95 147.75 268.65 148.3 268.2 148.45 268.1 149.2 L267.75 149.7 266.7 150.8 Q265.8 151.4 265.75 152.2 265.7 152.95 264.95 152.95 L263.35 152.45 263.3 152.45 262.85 153.45 263.05 154.3 262.5 156.25 262.75 156.9 262.7 157.6 262.85 158.4 Q263.05 159.5 263.6 159.5 L264.35 159.6 265.1 159.1 266.3 158.55 266.35 158.6 266.85 158.7 267.15 158.2 267.15 157.8 267.65 157.4 268.1 157.15 268.45 156.9 268.8 156.9 Q269.2 156.9 269.2 155.85 L269.55 155.6 269.9 155.6 270.5 155.0 270.85 154.25 271.7 154.0 Q272.65 152.25 273.2 152.25 L273.4 152.25 274.0 151.35 Q274.0 150.95 274.3 150.8 L274.75 150.5 275.05 150.3 Q275.5 150.3 275.5 150.7 L275.45 151.55 275.5 151.65 275.65 151.1 275.5 150.6 Q275.5 149.85 275.9 149.4 L276.55 148.05 278.25 143.65 278.55 143.15 279.0 142.45 279.45 141.6 279.8 141.55 279.9 141.3 279.8 140.8 281.5 137.65 282.2 136.95 Q282.85 135.75 283.35 135.55 283.5 134.95 284.0 134.25 L284.6 134.2 284.9 133.5 284.95 132.9 285.1 132.8 285.6 131.65 286.45 130.7 286.65 130.25 287.2 129.4 287.95 128.7 288.6 128.15 Q288.55 127.85 289.35 126.65 L290.4 126.05 290.8 125.95 Q290.8 124.9 291.55 124.45 L291.95 124.25 292.55 124.0 292.75 123.9 293.6 123.75 Q294.8 123.75 295.7 124.65 296.65 125.5 296.65 126.6 L296.2 127.5 296.0 127.75 295.45 129.45 295.05 129.65 294.95 130.8 Q294.4 130.9 294.4 132.25 L293.95 132.9 Q293.55 133.35 293.35 134.15 293.1 134.95 292.85 134.95 L292.55 134.95 292.6 135.35 Q292.6 135.85 292.2 136.3 291.8 136.65 291.65 137.15 L290.9 138.25 290.6 138.75 290.1 139.4 289.55 140.45 288.75 142.0 Q287.9 143.55 287.5 143.5 L287.1 144.9 286.65 145.2 Q286.3 145.35 286.15 145.8 L285.7 146.35 285.15 147.5 Q284.7 147.75 284.4 148.3 283.95 148.45 283.8 149.2 L283.5 149.7 282.45 150.8 Q281.55 151.4 281.5 152.2 281.45 152.95 280.7 152.95 L279.1 152.45 279.05 152.45 278.6 153.45 278.75 154.3 278.25 156.25 278.5 156.9 278.45 157.6 278.6 158.4 Q278.75 159.5 279.35 159.5 L280.1 159.6 280.85 159.1 282.05 158.55 282.1 158.6 282.6 158.7 282.9 158.2 282.9 157.8 Q283.05 157.45 283.4 157.4 L283.8 157.15 284.2 156.9 284.5 156.9 Q284.95 156.9 284.95 155.85 L285.3 155.6 285.65 155.6 286.25 155.0 286.6 154.25 Q287.2 154.2 287.4 154.0 288.4 152.25 288.95 152.25 L289.15 152.25 289.75 151.35 Q289.75 150.95 290.05 150.8 L290.5 150.5 290.8 150.3 291.25 150.7 291.2 151.55 291.4 152.45 291.15 153.0 Q290.85 153.3 290.85 153.75 290.85 154.65 290.55 154.7 290.2 154.75 290.05 155.15 L289.35 155.85 Q288.9 156.1 288.6 156.65 L288.1 156.8 287.8 156.95 Q287.4 157.95 287.0 158.15 286.55 158.35 285.9 159.5 L285.85 159.55 285.35 159.5 284.8 160.1 284.3 160.45 283.65 160.9 283.0 161.35 282.65 161.6 Q282.45 161.65 282.2 161.85 L281.85 162.0 281.35 161.95 281.25 161.95 280.4 162.35 279.8 162.5 279.2 162.3 278.3 161.95 277.65 162.15 Q277.1 162.15 276.3 161.05 275.5 160.05 275.5 159.0 L275.15 158.55 Q274.8 158.1 274.8 157.55 L274.8 157.25 274.85 156.85 274.85 156.25 274.9 156.05 275.4 155.95 274.95 155.35 274.95 155.15 275.0 154.5 274.8 154.7 274.3 155.15 273.6 155.85 Q273.15 156.1 272.85 156.65 L272.05 156.95 Q271.7 157.95 271.25 158.15 270.8 158.35 270.15 159.5 L270.1 159.55 269.6 159.5 269.05 160.1 268.55 160.45 267.9 160.9 267.25 161.35 266.9 161.6 Q266.7 161.65 266.45 161.85 L266.1 162.0 265.6 161.95 265.5 161.95 Q264.95 162.35 264.65 162.35 L264.05 162.5 263.45 162.3 262.55 161.95 261.9 162.15 Q261.35 162.15 260.55 161.05 259.75 160.05 259.75 159.0 L259.45 158.55 Q259.05 158.1 259.05 157.55 L259.05 157.25 259.1 156.85 259.1 156.25 259.15 156.05 259.65 155.95 259.2 155.35 259.2 155.15 259.25 154.5 259.15 154.0 258.95 154.35 258.85 155.25 258.6 155.65 Q258.15 155.9 258.05 156.15 L257.3 156.85 256.95 157.3 Q256.25 157.5 256.05 158.0 L255.4 158.6 Q254.95 158.65 254.45 159.2 L253.7 159.5 253.6 159.8 252.65 160.3 Q251.95 160.45 251.7 160.7 L251.2 160.85 250.15 160.65 249.05 160.3 248.85 159.9 248.5 159.35 248.25 158.3 248.35 157.75 248.25 157.4 248.1 157.1 248.15 156.9 248.2 156.7 248.15 156.4 248.1 156.05 248.25 154.55 248.15 154.35 Q248.0 154.35 247.7 154.65 247.35 155.0 246.9 155.0 246.65 155.15 246.55 155.75 L245.9 156.35 245.8 156.5 245.3 156.85 Q244.85 157.05 244.7 157.25 L244.45 157.55 243.8 157.45 243.45 158.05 242.75 158.8 240.35 160.8 239.25 161.4 239.1 161.6 Q236.6 163.25 235.55 163.25 L233.6 162.8 Q232.45 162.3 232.35 161.65 L232.05 160.35 Q231.75 159.95 231.75 159.1 L231.8 158.65 231.75 157.4 Q231.75 157.05 232.35 157.05 L232.3 156.2 232.9 155.25 233.6 154.25 233.9 153.8 233.95 153.5 232.75 154.35 232.25 154.75 231.8 155.05 229.9 156.4 Q228.3 157.05 227.85 157.95 L227.25 158.9 226.8 159.6 226.3 161.55 225.7 162.5 225.7 162.55 225.8 163.25 225.3 163.9 Q224.85 164.45 224.45 166.0 L223.85 167.95 223.6 168.4 222.95 169.3 Q222.95 170.15 222.15 170.9 L221.6 172.25 221.2 173.55 220.55 174.2 220.45 174.7 219.95 175.45 Q219.6 175.9 219.35 176.65 L218.55 177.95 Q217.9 178.5 217.9 178.85 L216.85 180.35 Q215.8 181.75 215.7 182.25 215.5 182.7 214.85 182.75 L214.7 183.35 Q214.65 183.85 214.25 183.9 213.85 184.0 213.65 184.5 213.4 184.9 212.9 184.9 212.25 184.9 212.1 185.2 L211.65 185.5 Q209.7 185.5 209.3 183.7 L209.0 183.15 208.75 182.5 208.35 181.55 208.35 181.45 208.5 181.05 208.6 180.95 208.35 180.3 208.7 179.1 208.65 178.35 Q208.55 177.7 209.7 175.3 210.5 174.15 211.1 171.9 L211.65 171.25 212.3 170.15 212.55 169.8 212.45 169.55 Q212.45 169.15 213.1 168.8 L213.8 168.1 214.25 167.6 214.6 166.95 Q214.7 166.1 215.35 166.1 L215.55 166.15 215.8 165.65 215.8 165.45 215.7 165.2 216.25 164.5 217.4 163.3 217.7 162.8 219.65 161.15 220.25 160.4 223.2 157.45 223.45 157.35 223.75 157.2 Q223.75 156.5 224.15 155.85 L224.75 154.6 224.75 154.25 225.05 153.75 225.35 153.5 225.55 153.0 225.5 152.35 226.25 151.3 Q226.25 150.75 226.85 149.65 L226.85 149.4 Q226.85 148.75 227.5 148.25 L227.85 147.6 228.05 147.0 228.0 146.6 Q227.05 147.85 226.15 148.25 L224.15 150.45 223.8 150.9 223.4 150.9 222.95 151.15 222.65 151.6 222.85 152.25 222.45 152.65 222.4 152.8 222.1 152.65 221.9 152.9 221.95 153.3 221.8 153.55 220.95 154.25 220.2 155.1 219.8 155.45 Q219.8 156.2 218.75 156.8 L218.45 157.1 217.95 157.65 217.8 158.0 217.55 158.1 217.2 158.15 Q217.0 158.2 216.8 158.95 L216.65 159.05 216.25 159.1 216.05 159.7 213.9 161.8 212.5 162.3 211.05 162.55 Q210.1 162.55 209.55 161.95 L209.45 161.9 208.65 161.95 207.65 161.25 207.1 160.95 206.3 160.0 205.45 158.7 205.4 157.6 205.45 157.05 205.4 155.75 205.65 154.9 205.95 154.1 206.15 153.65 206.3 153.2 206.5 152.6 206.8 152.25 206.9 152.1 207.45 152.15 207.25 151.65 207.3 151.6 207.6 151.6 207.45 151.15 207.25 151.15 207.05 150.9 Q207.05 150.4 207.5 149.75 L207.5 149.45 Q207.5 148.9 208.75 147.6 L209.2 147.7 209.1 147.05 209.35 146.6 209.55 145.85 209.95 145.8 210.0 145.4 210.0 145.1 Q210.0 144.4 210.7 144.35 L210.5 143.85 210.8 143.4 210.95 143.0 211.55 142.25 212.1 141.45 212.5 140.65 212.55 140.35 213.65 138.95 214.65 137.85 215.15 137.15 Q215.4 136.45 215.8 136.45 L215.9 136.45 216.1 136.6 216.15 136.5 216.1 136.0 216.75 135.15 Q216.75 134.65 218.3 133.65 M206.0 130.55 Q207.05 130.55 207.05 131.4 L206.75 132.1 Q206.45 132.5 206.3 133.1 L204.8 134.95 Q204.05 135.9 203.35 135.9 L202.55 135.05 202.45 135.0 201.8 135.1 201.2 135.2 199.55 135.7 198.85 135.85 198.2 135.95 196.65 136.3 Q195.85 136.65 195.35 137.8 L195.05 138.05 193.65 140.65 Q192.95 140.85 192.75 141.45 L192.65 141.65 Q192.25 141.7 192.0 142.05 L191.45 142.55 190.9 143.4 190.2 144.35 189.7 145.45 189.45 146.1 189.35 146.45 189.25 146.7 Q188.85 147.1 188.85 147.55 L189.0 148.05 188.6 149.65 188.65 150.0 188.65 150.2 Q188.65 150.9 188.1 151.9 L188.2 152.4 188.0 153.8 188.2 154.9 188.05 155.05 Q188.05 155.9 188.95 156.95 189.95 158.0 189.95 160.25 L189.85 160.8 Q189.7 161.15 189.7 161.6 L189.2 162.4 Q188.75 162.8 188.45 162.8 186.75 162.8 185.95 160.4 185.15 158.0 185.15 157.3 L185.2 156.05 185.05 155.45 185.2 152.65 185.1 152.05 185.8 149.35 185.8 148.35 186.25 147.9 186.1 147.85 Q185.95 147.85 185.65 148.2 L184.85 148.9 184.6 149.35 184.3 149.25 183.25 150.7 Q182.65 150.8 182.25 151.45 181.9 152.1 181.25 152.1 L181.05 152.15 Q180.95 153.05 180.2 153.05 L180.1 153.15 Q179.6 154.2 179.15 154.2 178.8 155.05 177.7 155.45 L177.4 156.0 177.1 156.35 176.95 156.6 176.65 157.15 176.25 157.85 175.9 158.4 175.6 158.9 175.2 159.3 174.9 159.55 173.4 160.85 Q173.3 160.7 173.1 160.7 172.85 160.7 172.35 161.25 L171.7 161.8 171.4 161.75 170.3 162.45 169.45 162.8 168.55 163.1 Q168.15 163.1 167.95 163.35 L166.7 163.6 166.25 163.55 165.7 163.7 165.15 163.5 Q164.9 163.15 164.5 163.15 L163.85 162.7 163.25 162.15 162.75 161.7 162.3 161.35 161.3 159.95 Q160.8 158.95 160.8 158.35 L160.8 158.25 160.85 157.65 160.8 156.95 161.1 156.45 161.1 155.45 161.85 152.95 161.6 152.5 160.95 153.1 160.55 153.55 160.15 153.85 159.8 153.75 159.5 154.4 Q159.3 155.0 158.75 155.0 158.2 155.0 158.2 154.55 L158.25 153.95 158.25 153.85 157.5 154.35 156.95 154.75 156.5 155.05 154.65 156.4 Q153.0 157.05 152.55 157.95 L151.95 158.9 151.5 159.6 151.05 161.55 150.4 162.5 150.4 162.55 150.5 163.25 150.0 163.9 Q149.6 164.45 149.15 166.0 L148.55 167.95 148.3 168.4 147.65 169.3 Q147.65 170.15 146.85 170.9 L146.3 172.25 145.9 173.55 145.3 174.2 145.15 174.7 144.65 175.45 Q144.3 175.9 144.05 176.65 L143.25 177.95 Q142.6 178.5 142.6 178.85 L141.55 180.35 Q140.5 181.75 140.4 182.25 140.25 182.7 139.6 182.75 L139.4 183.35 138.95 183.9 Q138.55 184.0 138.35 184.5 138.15 184.9 137.6 184.9 136.95 184.9 136.8 185.2 L136.35 185.5 Q134.4 185.5 134.0 183.7 L133.7 183.15 133.45 182.5 133.1 181.55 133.1 181.45 133.2 181.05 133.3 180.95 133.1 180.3 133.4 179.1 133.35 178.35 Q133.25 177.7 134.4 175.3 135.25 174.15 135.8 171.9 L136.35 171.25 137.0 170.15 137.25 169.8 137.15 169.55 Q137.15 169.15 137.8 168.8 L138.5 168.1 138.95 167.6 139.3 166.95 Q139.4 166.1 140.05 166.1 L140.3 166.15 140.5 165.65 140.5 165.45 140.4 165.2 141.0 164.5 142.1 163.3 142.45 162.8 144.35 161.15 144.95 160.4 147.9 157.45 148.2 157.35 148.45 157.2 Q148.45 156.5 148.9 155.85 L149.45 154.6 149.45 154.25 149.75 153.75 150.05 153.5 Q150.1 153.15 150.3 153.0 L150.2 152.35 151.0 151.3 Q151.0 150.75 151.55 149.65 L151.55 149.4 Q151.55 148.75 152.2 148.25 L152.55 147.6 152.75 147.0 152.7 146.6 150.85 148.25 148.9 150.45 148.5 150.9 148.15 150.9 147.65 151.15 147.35 151.6 147.55 152.25 147.15 152.65 147.1 152.8 146.8 152.65 146.6 152.9 146.7 153.3 146.5 153.55 145.65 154.25 144.9 155.1 Q144.55 155.15 144.55 155.45 144.55 156.2 143.45 156.8 L143.2 157.1 142.65 157.65 142.5 158.0 142.25 158.1 141.9 158.15 Q141.75 158.2 141.5 158.95 L141.35 159.05 141.0 159.1 140.75 159.7 138.6 161.8 137.2 162.3 135.75 162.55 Q134.8 162.55 134.25 161.95 L134.15 161.9 133.35 161.95 132.4 161.25 131.8 160.95 131.0 160.0 Q130.2 159.05 130.2 158.7 L130.1 157.6 130.2 157.05 130.1 155.75 130.35 154.9 130.65 154.1 130.9 153.65 131.0 153.2 131.2 152.6 131.5 152.25 131.65 152.1 132.15 152.15 131.95 151.65 132.0 151.6 132.35 151.6 132.15 151.15 131.95 151.15 131.75 150.9 Q131.75 150.4 132.2 149.75 L132.2 149.45 Q132.2 148.9 133.45 147.6 L133.9 147.7 133.85 147.05 134.05 146.6 134.25 145.85 134.65 145.8 134.7 145.4 134.7 145.1 Q134.7 144.4 135.4 144.35 L135.25 143.85 135.5 143.4 135.65 143.0 136.25 142.25 136.8 141.45 137.2 140.65 137.25 140.35 138.35 138.95 139.35 137.85 139.85 137.15 Q140.1 136.45 140.5 136.45 L140.6 136.45 140.8 136.6 140.85 136.5 140.8 136.0 141.45 135.15 Q141.45 134.65 143.0 133.65 L143.35 133.2 144.35 132.25 144.6 132.0 145.45 131.35 Q145.85 130.2 147.3 129.95 L147.55 129.8 Q147.65 129.2 148.3 129.1 149.25 128.0 150.4 128.0 L150.3 127.65 Q150.3 127.2 150.75 127.2 L151.2 127.35 Q151.55 126.65 152.0 126.45 L152.6 126.15 152.95 125.85 153.45 125.75 154.25 125.2 154.95 124.9 155.1 124.9 155.2 124.95 Q155.9 124.35 156.35 124.35 L157.2 124.05 157.65 124.15 157.85 124.25 158.5 124.0 158.6 124.0 159.8 124.25 Q160.55 124.3 160.8 125.3 L161.2 126.05 161.35 126.7 161.55 127.6 161.7 127.95 161.55 128.5 161.35 129.3 161.15 129.95 160.85 130.55 Q160.0 133.4 159.25 133.4 157.5 133.4 157.5 132.25 157.5 131.0 159.25 129.45 L159.85 128.65 160.2 127.75 Q160.2 127.15 159.65 127.15 159.15 127.15 158.75 127.45 L157.85 127.75 157.1 127.95 156.55 128.15 154.7 129.35 146.25 136.05 146.15 136.6 145.65 136.95 Q145.15 137.25 144.95 137.85 L143.6 139.55 142.55 141.0 142.25 141.6 Q141.85 141.75 140.0 144.25 L139.0 145.2 138.9 145.25 139.05 145.75 139.05 145.85 136.95 149.2 136.9 149.3 136.35 151.1 135.8 152.1 135.5 152.85 135.05 153.8 134.65 154.6 134.4 155.25 134.05 156.1 134.2 156.8 133.7 158.95 133.7 159.05 133.95 159.9 134.4 160.3 136.05 159.5 138.0 157.85 138.8 157.45 139.2 157.05 140.0 156.9 Q140.6 155.6 141.0 155.35 L141.55 155.35 141.9 154.55 Q141.9 154.35 142.8 153.45 L144.15 151.9 144.75 151.35 145.65 150.2 146.6 148.95 Q146.85 148.35 147.25 148.35 L147.75 148.2 147.9 147.7 147.95 147.45 148.95 146.35 149.2 146.0 149.7 145.35 150.05 145.0 Q150.1 144.6 150.45 144.3 L151.25 143.2 152.15 141.85 Q152.9 141.45 153.35 140.15 153.8 138.9 154.6 138.3 L155.4 137.05 Q155.9 136.35 156.75 136.35 157.35 136.35 158.4 137.7 159.4 139.1 159.4 140.3 L159.15 141.55 Q158.9 143.1 158.4 143.75 157.9 144.4 157.85 144.9 L157.3 145.9 Q156.9 146.45 156.55 147.7 L155.65 149.4 155.45 150.15 155.05 151.55 154.95 151.8 154.8 152.1 154.6 152.4 154.45 152.6 154.1 153.45 Q154.1 153.75 154.25 153.75 L154.85 153.35 155.5 152.85 155.9 152.45 Q155.95 152.15 156.5 151.85 157.05 151.55 157.15 151.55 L157.4 151.55 158.5 150.7 159.5 150.1 160.45 149.65 162.05 148.5 162.4 148.6 Q162.95 148.3 163.05 148.3 L163.15 148.35 163.6 148.2 164.7 147.55 166.85 146.3 Q168.6 145.35 169.4 145.35 L170.1 145.25 170.9 145.0 171.7 144.65 Q172.1 144.4 172.35 144.4 L173.3 144.7 174.5 145.1 175.1 145.4 Q175.7 145.6 176.35 145.95 176.95 146.3 176.95 147.2 L176.4 148.05 177.1 148.45 177.85 149.65 178.2 150.75 178.3 151.55 178.3 151.4 179.1 150.5 180.25 149.4 180.9 148.9 181.0 148.8 Q181.05 148.0 181.6 148.0 181.8 147.95 181.95 147.85 L182.0 147.55 182.2 147.45 182.4 147.45 182.6 147.3 Q182.65 146.55 183.35 146.1 L185.8 143.65 187.8 141.05 188.6 139.55 Q189.2 138.6 189.25 137.75 L189.1 137.45 187.75 138.15 Q187.75 138.05 187.1 137.85 L186.4 138.45 186.05 138.7 185.65 138.65 184.25 138.8 Q182.4 138.95 181.45 139.55 L180.2 139.95 179.9 139.95 179.15 140.25 178.45 140.15 177.0 140.7 176.6 140.65 173.4 141.55 171.7 142.8 171.45 142.9 170.7 142.2 Q170.3 141.45 170.3 140.9 170.3 137.8 175.6 137.3 L176.9 136.8 177.0 136.8 177.3 136.95 177.4 136.95 178.0 136.7 Q178.45 136.45 179.85 136.1 L181.1 135.75 181.55 135.85 182.2 135.6 Q182.65 135.3 183.4 135.2 L184.5 135.0 185.05 134.85 185.55 134.6 186.55 134.4 187.05 134.55 187.45 134.4 187.8 134.15 187.85 134.15 188.1 134.25 188.2 134.25 189.5 133.95 190.5 133.5 190.95 133.35 Q191.05 133.25 191.1 133.25 L191.65 133.35 192.3 132.45 193.25 131.1 Q193.8 130.75 194.35 129.6 L194.6 129.15 Q194.75 128.8 194.9 128.8 L195.65 128.15 Q196.55 127.1 197.15 127.1 197.95 127.1 198.2 128.6 L198.55 129.8 198.4 130.25 Q198.2 130.65 198.25 131.1 L198.2 131.65 198.15 132.0 Q198.15 132.25 198.7 132.25 L199.4 132.0 199.55 131.95 200.1 132.1 201.0 131.75 202.05 131.45 202.8 131.2 203.15 131.2 203.45 131.3 203.95 131.0 205.4 130.7 205.9 130.55 206.0 130.55 M173.8 148.3 Q173.6 148.75 171.6 149.45 L170.9 149.2 Q170.7 149.2 170.55 149.55 L170.15 150.05 169.75 150.05 169.3 150.45 168.45 150.9 168.05 151.3 Q168.1 151.75 167.45 152.3 L167.1 152.65 166.3 153.6 165.7 155.0 165.4 156.2 165.0 156.6 Q164.65 156.8 164.65 157.1 L164.85 157.4 165.05 157.8 164.95 158.2 164.85 159.35 165.25 161.05 165.3 161.15 165.8 161.15 165.95 161.2 166.95 161.35 Q167.9 161.35 168.5 160.85 169.05 160.35 169.4 160.35 L169.95 159.9 170.25 159.45 170.7 159.45 170.8 159.35 Q170.8 158.65 171.45 158.3 L172.35 157.5 173.0 156.7 173.45 156.0 173.7 155.65 173.8 155.15 174.4 154.0 174.6 152.85 Q174.6 152.15 173.9 151.75 173.3 151.4 173.3 150.3 173.3 149.6 174.0 149.0 L174.75 148.25 174.55 148.05 173.8 148.3 M238.25 154.35 L237.45 155.1 237.25 155.65 236.6 156.0 Q236.2 156.1 236.15 156.65 L235.75 157.6 235.35 158.25 Q235.35 159.8 235.95 159.8 L237.0 159.5 237.95 159.0 238.4 158.75 239.0 158.4 239.35 158.3 239.6 158.1 240.2 157.75 240.85 157.2 Q241.3 156.85 242.55 156.2 L243.2 155.7 244.05 155.15 Q244.15 154.95 244.65 154.7 244.8 154.0 245.45 153.7 L246.2 152.95 247.9 151.4 249.0 150.0 248.9 149.95 248.85 149.95 248.55 150.05 248.0 150.0 247.4 150.05 246.95 149.85 246.6 149.95 245.95 149.75 Q245.45 149.75 245.1 150.0 L243.75 150.4 Q242.7 150.7 241.85 151.35 241.05 151.9 240.65 151.9 L239.2 153.25 Q238.45 153.5 238.25 154.35 M222.15 161.75 L221.95 161.8 Q221.95 162.4 221.15 162.85 220.4 163.25 220.2 163.65 L219.5 164.1 Q219.1 164.25 219.05 165.2 L218.1 165.65 Q217.35 165.85 217.25 166.7 217.15 167.55 216.8 167.65 L216.05 167.85 215.65 168.3 214.5 170.05 214.05 171.15 213.75 171.55 Q213.2 172.4 212.95 173.9 L212.4 174.75 Q211.95 175.25 211.95 175.6 L211.35 177.2 211.35 177.65 211.05 178.3 211.1 179.0 210.9 179.45 211.1 180.2 210.95 181.55 Q210.95 182.25 211.25 182.25 L212.8 180.95 213.6 179.85 214.2 178.85 Q214.5 178.0 214.65 178.0 L214.95 178.0 215.2 177.15 215.45 176.0 Q215.8 174.9 216.1 174.85 L216.2 174.35 216.65 173.8 217.0 173.15 217.2 172.35 Q217.85 170.45 218.75 170.2 L218.85 169.9 219.1 168.95 Q219.4 167.7 220.2 167.45 L220.2 167.35 220.15 166.95 220.15 166.75 220.3 166.3 220.55 165.65 221.2 164.5 221.2 164.1 Q221.2 163.5 221.75 163.2 222.3 162.95 222.3 162.5 L222.15 161.75 M292.4 128.85 Q292.15 128.95 291.9 130.0 290.95 130.2 290.8 130.9 L290.05 132.05 289.85 132.4 289.25 133.1 Q288.7 133.5 288.25 134.4 L286.5 136.7 286.2 137.1 285.7 137.05 285.85 137.65 285.65 138.0 285.4 138.4 285.0 138.95 284.5 140.05 284.05 140.9 283.6 140.85 Q283.25 141.05 283.25 141.35 L283.35 141.75 283.2 142.1 Q282.95 142.25 282.8 142.75 L282.05 144.3 Q281.4 145.25 281.1 146.45 L280.35 147.9 280.55 147.95 Q280.9 147.95 281.3 147.1 L281.95 146.7 Q282.1 146.2 282.8 145.55 283.45 144.85 283.75 144.85 L284.0 144.85 284.1 144.35 284.2 143.75 285.05 142.75 285.3 142.2 Q285.55 141.4 286.65 140.85 287.15 139.95 287.35 139.95 L287.6 139.9 288.1 139.0 288.25 138.8 288.25 138.3 288.65 137.85 289.25 137.0 289.8 136.35 290.2 135.6 290.75 135.55 290.8 135.0 290.85 134.65 291.95 132.7 292.5 131.55 Q292.5 131.35 292.75 131.1 L292.95 130.3 293.25 129.3 Q293.25 128.55 292.95 128.55 L292.4 128.85 M303.15 138.4 L303.6 137.2 303.9 136.8 304.25 135.6 304.6 135.2 Q305.1 133.65 305.55 133.15 L306.15 131.95 Q306.35 131.2 306.6 131.0 L307.1 130.05 Q307.25 129.2 308.2 128.9 L308.05 128.5 308.05 128.45 308.45 127.9 309.6 125.2 Q310.35 123.05 311.5 123.05 312.1 123.05 313.2 124.6 314.35 126.2 314.35 126.95 314.35 127.9 313.1 129.3 311.9 130.75 311.25 132.05 L310.35 133.85 310.05 134.55 309.75 134.8 308.85 136.35 308.65 136.7 308.2 137.3 307.7 138.4 Q307.3 138.75 307.25 139.2 L306.95 139.8 Q306.7 140.0 306.5 141.0 L305.8 143.1 305.35 143.65 305.35 144.0 304.9 144.5 304.9 145.65 304.2 146.8 303.85 148.9 Q303.55 151.7 302.95 152.25 L302.6 152.6 Q302.4 152.95 301.95 152.95 L300.85 152.1 300.5 152.0 299.4 150.8 Q298.95 149.85 298.95 149.0 298.95 147.95 299.2 147.45 L299.5 146.7 301.15 142.5 Q302.1 140.05 303.15 138.4 M276.7 128.85 Q276.4 128.95 276.15 130.0 275.25 130.2 275.05 130.9 L274.3 132.05 274.1 132.4 273.5 133.1 Q272.95 133.5 272.5 134.4 L270.75 136.7 270.45 137.1 269.95 137.05 270.1 137.65 269.9 138.0 269.65 138.4 269.25 138.95 268.8 140.05 268.3 140.9 267.85 140.85 Q267.5 141.05 267.5 141.35 L267.6 141.75 267.45 142.1 Q267.2 142.25 267.05 142.75 L266.3 144.3 Q265.65 145.25 265.35 146.45 L264.6 147.9 264.8 147.95 Q265.2 147.95 265.55 147.1 L266.2 146.7 Q266.35 146.2 267.05 145.55 267.7 144.85 268.0 144.85 L268.25 144.85 268.35 144.35 268.45 143.75 269.3 142.75 269.55 142.2 Q269.8 141.4 270.95 140.85 271.4 139.95 271.6 139.95 L271.85 139.9 Q272.0 139.4 272.4 139.0 L272.5 138.8 272.5 138.3 272.9 137.85 273.5 137.0 Q273.7 136.6 274.05 136.35 L274.45 135.6 275.0 135.55 275.05 135.0 275.1 134.65 276.2 132.7 276.75 131.55 Q276.75 131.35 277.0 131.1 L277.2 130.3 277.5 129.3 Q277.5 128.55 277.2 128.55 L276.7 128.85 M298.55 155.25 L299.15 155.15 299.7 155.05 Q300.25 155.05 300.9 155.7 L301.2 155.95 301.9 156.95 302.2 157.75 302.45 158.35 302.1 158.95 Q301.7 159.45 301.45 160.95 301.25 162.5 299.9 162.5 298.7 162.5 298.25 161.9 L297.55 161.75 297.0 160.8 296.3 159.65 Q296.0 159.35 296.0 158.8 296.0 158.15 296.5 157.55 L297.25 156.25 Q298.25 155.3 298.55 155.25 M42.1 145.4 Q42.7 145.6 43.35 145.95 43.9 146.3 43.9 147.2 L43.4 148.05 44.1 148.45 44.85 149.65 45.2 150.65 Q45.6 150.15 46.15 150.15 L46.55 150.3 Q46.6 149.75 47.15 149.4 L47.35 149.4 Q47.75 149.4 48.2 148.6 L48.75 148.25 49.15 148.3 49.45 148.05 50.35 147.1 50.5 147.1 50.9 146.8 Q51.2 146.55 51.65 146.55 L52.7 146.2 53.25 146.1 Q53.55 146.0 54.65 147.3 55.75 148.5 55.75 149.65 55.75 150.3 55.05 150.4 L54.9 150.6 54.9 151.15 54.35 152.35 53.8 152.95 53.45 153.65 53.0 153.7 52.8 153.85 52.8 154.65 52.0 156.35 Q51.45 157.55 51.45 157.95 51.45 158.55 51.7 158.55 L52.1 158.35 52.65 158.0 53.05 157.55 53.75 157.2 54.65 156.55 55.3 155.9 55.7 155.5 56.0 155.25 56.6 155.1 56.7 154.6 57.45 154.25 59.3 152.6 59.5 152.3 60.15 152.1 Q60.4 151.3 61.0 150.9 61.0 150.75 61.35 150.7 61.55 150.2 62.0 149.95 L62.55 149.2 63.3 148.6 63.75 148.2 65.75 146.55 67.05 146.35 Q67.9 146.35 68.45 147.05 L69.6 148.05 Q70.3 148.35 70.3 149.35 70.3 150.25 68.85 152.85 L67.95 156.1 67.7 156.8 67.4 157.05 67.4 157.2 Q67.4 157.95 67.7 157.95 L68.15 157.6 Q68.5 157.3 69.5 156.9 L69.75 156.95 Q70.7 155.65 71.0 155.5 L71.65 154.95 Q72.0 154.5 72.4 154.45 L72.95 154.3 Q73.0 153.55 74.2 152.6 74.55 152.3 74.9 152.15 75.15 151.5 76.1 150.75 L76.5 150.3 Q76.6 150.05 77.35 150.0 L77.8 149.35 77.95 149.05 Q78.95 149.05 79.3 148.25 L79.4 148.1 Q80.5 147.75 81.0 147.3 81.5 146.75 82.7 146.4 L84.05 145.95 Q84.3 145.95 85.2 146.55 86.15 147.1 86.15 148.65 86.15 149.75 85.55 150.75 L85.55 151.7 85.45 152.0 Q85.0 152.35 85.0 152.85 L85.05 153.95 84.1 155.9 Q83.65 156.1 83.65 156.35 L83.85 156.65 84.1 157.1 83.95 158.35 84.05 158.4 84.25 158.4 Q84.35 158.2 84.7 158.1 L85.05 157.85 85.25 157.35 85.65 157.35 Q85.85 157.35 85.85 156.85 L87.25 155.25 88.9 153.45 89.55 152.8 90.0 152.2 90.3 151.65 90.8 151.15 91.3 150.7 92.0 149.95 Q92.4 149.4 93.6 148.45 L94.0 147.85 94.9 147.05 96.2 146.0 Q96.8 145.35 98.3 145.35 99.1 145.35 99.9 146.15 100.75 147.0 100.75 147.85 L100.55 148.5 100.05 149.3 Q99.7 149.85 99.4 149.85 L98.8 149.65 Q98.2 150.25 97.6 150.25 L97.0 150.15 96.1 150.5 95.5 150.9 95.0 151.35 Q94.7 151.35 94.4 151.6 L93.9 151.85 Q93.6 152.6 92.5 153.0 L91.85 153.85 91.55 154.1 90.95 154.7 90.4 155.1 90.15 155.1 89.75 155.95 Q89.65 156.6 88.75 156.8 L88.35 157.25 87.65 157.85 Q87.45 158.6 86.85 159.0 L86.5 159.65 85.85 160.3 85.35 160.65 85.0 161.5 84.1 162.45 Q83.7 162.65 83.25 163.15 L82.5 163.65 Q81.4 163.65 80.15 161.85 78.9 160.1 78.9 159.6 78.9 157.85 79.4 156.85 L79.95 155.0 Q80.05 154.1 80.3 153.45 L80.45 152.45 80.75 152.05 81.1 151.15 81.25 150.7 Q81.25 150.15 80.9 150.15 80.45 150.15 80.15 150.7 L80.05 150.8 79.25 150.65 Q79.0 150.65 78.8 151.6 L78.2 152.05 Q77.65 152.1 77.1 153.0 L76.95 153.15 76.65 153.25 76.65 153.65 Q76.65 154.0 76.25 154.2 L75.7 155.0 75.15 154.95 74.9 155.25 74.7 155.35 73.85 156.2 72.65 157.45 72.55 157.65 72.1 157.95 71.55 158.35 71.15 158.2 70.9 158.4 70.1 159.1 Q69.5 159.5 69.2 160.0 L68.7 160.45 68.05 160.55 67.75 160.85 67.15 161.6 Q66.75 162.15 65.9 162.15 65.7 162.15 65.35 161.8 L64.85 161.2 63.65 159.8 62.75 158.6 62.9 157.45 62.85 156.7 63.1 156.05 63.45 155.6 63.4 154.35 63.5 154.2 63.9 153.45 63.85 152.8 64.0 151.7 Q63.45 152.0 63.0 152.8 62.55 153.5 61.95 153.5 61.35 154.55 61.0 154.55 L60.8 154.75 60.35 155.05 59.85 155.0 59.65 155.75 Q58.95 156.1 58.75 156.45 L58.1 157.05 57.55 157.55 57.1 157.55 Q57.0 158.35 56.1 158.95 L55.85 159.3 55.3 159.2 Q55.0 160.2 54.5 160.4 53.95 160.4 53.05 161.4 L51.75 162.35 Q49.05 162.35 47.35 158.95 L47.05 158.5 Q46.8 158.15 46.8 157.4 46.8 156.2 47.15 155.75 L48.0 154.1 Q48.5 152.9 48.75 153.05 L48.8 152.65 Q49.35 152.1 49.35 151.75 49.35 151.65 49.2 151.65 L48.8 151.85 48.4 152.05 48.0 152.3 47.5 152.65 47.0 152.95 46.95 152.95 46.65 152.8 46.35 153.35 45.95 153.45 45.1 154.2 44.9 154.1 44.95 154.6 44.65 155.45 44.4 156.0 44.1 156.35 43.9 156.6 43.65 157.15 43.2 157.85 42.9 158.4 42.6 158.9 42.2 159.3 41.9 159.55 40.4 160.85 Q40.25 160.7 40.1 160.7 L39.35 161.25 38.7 161.8 38.4 161.75 37.3 162.45 36.45 162.8 35.55 163.1 Q35.15 163.1 34.95 163.35 L33.7 163.6 33.25 163.55 32.7 163.7 32.15 163.5 Q31.9 163.15 31.5 163.15 L30.85 162.7 30.2 162.15 29.75 161.7 29.3 161.35 Q28.75 160.95 28.3 159.95 27.8 158.95 27.8 158.35 L27.8 158.25 27.85 157.65 27.8 156.95 28.05 156.45 28.05 155.45 28.8 152.95 28.6 152.5 27.95 153.1 27.55 153.55 27.15 153.85 26.8 153.75 26.5 154.4 Q26.3 155.0 25.75 155.0 L25.25 154.9 25.1 155.0 23.5 156.35 23.0 157.05 22.6 157.85 22.2 158.6 Q22.2 160.85 21.35 161.15 21.2 161.2 21.2 161.7 21.2 163.25 20.7 163.7 L20.05 165.0 20.0 165.05 20.05 165.75 19.75 166.65 Q19.4 167.15 19.4 167.5 L19.1 168.8 18.7 169.45 17.75 171.9 17.05 173.0 16.5 173.2 16.15 173.25 16.35 173.65 16.45 174.1 16.15 175.3 15.75 176.2 15.6 176.65 15.45 177.0 15.05 177.7 14.85 178.15 14.2 178.9 13.25 181.1 11.85 182.95 11.5 183.25 11.35 183.3 11.15 183.3 10.75 183.15 Q10.55 183.15 10.5 183.8 10.4 184.35 9.9 184.35 L9.55 184.2 8.35 185.15 7.75 185.25 7.5 185.3 Q7.2 185.3 6.75 184.5 L6.05 183.6 5.6 183.3 5.0 182.2 Q4.5 181.1 4.5 180.25 L4.25 178.95 4.4 178.45 4.2 177.8 Q4.2 177.15 4.65 176.6 L5.0 176.0 4.7 175.35 4.7 175.25 5.35 173.4 5.5 172.85 5.6 172.75 5.85 172.75 6.1 172.4 Q6.15 171.95 6.4 171.8 L6.7 171.55 6.7 171.45 6.5 171.0 6.85 170.55 7.45 169.7 7.85 169.0 Q8.1 168.9 8.15 168.3 8.65 167.25 9.55 167.25 L9.75 167.0 9.6 166.65 Q9.6 166.2 11.1 165.0 L11.35 164.5 Q11.5 164.1 11.8 164.1 L12.7 164.35 12.8 164.3 12.6 163.3 12.8 163.15 13.05 162.5 Q13.2 161.95 13.4 161.95 L14.1 162.35 14.35 162.15 14.2 161.8 14.1 161.45 Q14.1 160.7 15.45 160.4 L15.8 159.65 Q16.0 159.2 16.4 159.05 L17.5 158.2 18.15 157.3 Q18.15 156.65 18.7 155.7 L19.25 155.3 19.05 154.95 18.95 154.75 Q18.95 154.25 19.45 154.1 L19.5 154.0 19.4 153.15 Q20.0 152.3 20.2 150.9 L20.2 150.5 Q20.2 150.3 20.5 150.05 L21.05 149.0 20.95 148.35 21.4 147.5 21.45 147.15 Q20.95 147.4 20.7 147.95 L20.4 148.25 19.85 148.95 19.5 149.4 19.15 149.9 18.85 150.3 18.55 150.75 18.4 151.05 17.8 151.55 17.1 152.9 Q16.25 153.15 16.25 154.1 L16.25 154.35 15.8 154.5 Q15.45 154.55 15.45 154.9 L15.15 155.45 Q14.8 155.35 13.9 156.85 L13.55 157.3 12.75 157.8 12.1 158.4 11.85 158.75 11.9 159.35 Q11.9 159.6 11.15 159.65 10.8 159.95 10.75 160.65 10.7 161.35 10.05 161.35 L9.4 161.75 Q9.15 161.8 8.85 162.2 L8.45 162.5 8.2 162.65 7.7 162.55 7.25 163.1 6.45 163.05 6.0 163.15 Q5.3 163.15 4.05 162.3 2.85 161.4 2.4 160.65 L1.55 159.55 Q1.25 159.3 1.2 158.9 L0.8 158.15 Q0.5 157.75 0.4 156.65 L0.3 156.2 0.3 155.95 0.4 155.15 0.35 154.6 0.9 152.45 0.8 151.75 1.15 151.1 1.25 150.5 1.5 149.65 1.65 148.95 Q1.65 148.6 1.95 148.2 2.25 147.9 2.55 147.9 L2.85 147.7 Q2.5 147.45 2.5 147.2 2.5 146.8 2.65 146.55 L2.9 145.65 4.65 142.25 4.95 141.35 5.35 140.55 5.75 139.95 6.05 139.45 6.25 138.9 6.95 138.0 7.1 137.55 8.0 136.4 8.25 135.75 8.8 134.95 9.3 134.2 Q9.75 132.7 10.15 132.25 L10.95 131.05 11.3 130.7 11.9 130.7 11.95 130.6 11.85 130.25 11.7 129.95 Q11.7 129.1 12.25 129.1 L12.5 129.2 12.75 129.3 12.85 129.25 12.85 128.95 12.75 128.55 12.75 128.5 12.9 127.65 13.15 126.75 12.9 126.25 12.5 125.85 12.0 126.0 11.95 126.0 11.55 125.75 11.5 125.75 11.4 126.0 10.85 126.4 10.4 126.25 9.75 126.55 9.05 126.8 9.0 126.8 8.45 126.7 Q8.25 126.7 8.15 127.15 8.0 127.6 7.0 127.65 L6.35 128.15 3.7 129.95 3.5 130.05 2.65 131.35 Q2.0 131.9 2.0 132.55 L1.95 133.35 2.0 133.75 1.35 134.4 0.6 134.85 Q-1.65 134.85 -1.65 133.6 L-1.45 132.9 -1.5 132.1 Q-1.5 131.6 -0.4 130.55 L0.45 129.85 Q1.05 129.3 2.25 128.9 L2.65 128.4 3.85 127.8 5.25 127.1 Q6.25 126.55 7.25 126.15 L9.05 125.25 9.7 125.05 10.15 124.65 Q10.4 124.5 10.75 124.45 L11.45 124.25 11.6 124.15 12.0 124.15 12.25 124.0 14.05 123.65 15.65 123.5 Q16.45 123.5 17.15 124.45 17.8 125.45 17.8 126.7 17.8 127.65 17.15 128.65 L16.15 130.4 15.5 131.55 Q15.2 131.75 14.85 132.5 L13.75 134.2 13.35 135.6 Q13.15 136.45 12.45 136.65 L11.75 138.15 11.3 139.1 11.05 139.7 10.55 141.0 Q9.65 142.05 9.45 142.8 9.35 143.6 8.6 143.9 L8.1 145.2 7.7 146.0 7.45 146.6 6.3 150.0 5.75 151.05 5.45 152.05 5.45 152.5 5.3 153.15 5.05 153.7 Q5.05 154.4 4.65 154.65 L4.65 154.7 4.85 155.5 4.85 155.65 4.5 156.6 4.5 156.7 4.7 157.35 4.65 158.25 Q4.65 158.75 5.0 159.55 L5.6 160.35 5.8 160.1 Q6.5 159.95 6.85 159.6 L7.7 159.1 7.85 158.8 8.35 158.35 8.45 158.3 8.85 158.35 8.9 158.35 9.05 158.15 9.45 157.6 10.5 156.5 Q11.2 155.5 11.95 155.15 L13.9 152.85 14.65 152.15 15.05 151.2 15.6 150.6 15.9 150.25 16.05 150.0 17.05 148.55 17.55 147.85 18.15 146.75 19.3 144.9 20.2 143.4 20.6 142.55 21.3 141.65 23.8 137.1 24.0 136.95 24.25 136.25 24.7 135.3 24.95 134.55 25.45 133.8 25.5 133.6 25.75 132.9 26.2 132.7 26.4 131.95 Q26.45 131.4 26.85 131.05 27.2 130.7 27.5 130.7 L27.95 129.85 Q28.4 128.95 29.45 128.95 30.75 128.95 31.9 130.55 32.95 132.05 32.95 132.95 32.95 133.85 31.85 134.15 30.95 135.2 30.55 136.3 L29.75 137.95 29.1 140.05 Q28.75 140.4 28.55 141.15 L28.2 142.1 27.6 143.5 26.9 144.95 26.9 145.7 Q26.9 146.9 25.75 148.6 L25.55 149.3 25.2 149.55 25.2 150.3 Q24.8 150.5 24.75 151.05 L24.6 151.85 Q24.5 151.85 24.5 152.0 L24.75 152.1 Q25.4 152.1 25.75 151.1 L26.5 150.75 27.25 150.3 27.7 149.95 28.4 149.3 Q28.65 148.85 29.05 148.8 L29.7 148.45 30.9 147.55 32.6 146.2 Q33.05 145.8 34.0 145.8 L34.4 146.0 Q35.75 145.35 36.4 145.35 L37.1 145.25 37.9 145.0 38.7 144.65 Q39.1 144.4 39.35 144.4 L40.25 144.7 41.5 145.1 42.1 145.4 M40.8 148.3 Q40.6 148.75 38.6 149.45 L37.9 149.2 Q37.7 149.2 37.55 149.55 L37.15 150.05 36.7 150.05 36.3 150.45 Q35.95 150.9 35.45 150.9 L35.05 151.3 Q35.1 151.75 34.45 152.3 L34.1 152.65 33.3 153.6 32.7 155.0 Q32.35 155.8 32.35 156.2 L32.0 156.6 Q31.6 156.8 31.6 157.1 L31.85 157.4 32.05 157.8 31.95 158.2 31.85 159.35 32.25 161.05 32.3 161.15 32.8 161.15 32.95 161.2 33.95 161.35 Q34.9 161.35 35.5 160.85 36.0 160.35 36.4 160.35 L36.95 159.9 37.25 159.45 37.7 159.45 37.8 159.35 Q37.8 158.65 38.45 158.3 L39.35 157.5 Q39.6 156.95 40.0 156.7 L40.45 156.0 40.7 155.65 40.8 155.15 41.4 154.0 41.6 152.85 Q41.6 152.15 40.9 151.75 40.25 151.4 40.25 150.3 40.25 149.6 40.95 149.0 L41.7 148.25 41.55 148.05 40.8 148.3 M16.5 161.9 L14.3 164.4 13.6 165.3 12.65 166.8 11.55 168.4 10.95 169.6 10.05 171.45 9.2 173.25 Q9.0 173.85 8.95 174.75 8.8 175.6 8.1 176.0 L8.0 176.1 8.2 176.3 8.3 176.5 8.3 177.2 8.1 177.55 8.1 177.95 7.75 179.5 Q8.1 179.95 8.1 180.8 L7.9 181.05 8.1 181.25 8.25 181.65 8.3 181.75 8.55 181.35 9.0 180.95 9.6 179.85 Q10.0 179.0 10.35 178.8 L10.65 178.45 10.55 177.8 10.55 177.75 Q10.55 177.4 10.85 177.25 L11.15 176.95 11.35 176.5 11.7 175.25 12.1 174.7 Q12.5 174.4 12.5 174.1 L12.45 173.55 Q12.45 172.85 13.85 170.55 L14.3 170.6 14.35 170.5 14.1 170.3 Q13.85 170.3 13.85 169.9 13.85 169.45 14.2 169.25 L14.4 169.05 14.35 168.85 Q14.35 168.6 14.7 168.05 L14.6 167.65 14.95 166.95 15.05 166.4 Q15.1 165.85 15.35 165.75 L15.6 165.25 15.85 164.4 16.1 163.6 16.5 161.9 M88.4 122.75 Q88.75 122.4 89.35 122.4 90.1 122.4 91.1 123.85 92.2 125.25 92.2 125.65 92.2 126.2 91.45 126.75 91.45 127.8 90.85 128.55 L90.05 129.65 89.75 130.15 88.65 131.65 Q87.55 133.1 86.95 133.1 L86.05 132.75 85.2 132.3 Q85.2 131.5 86.1 130.7 86.95 129.9 87.1 129.05 L86.5 128.3 86.05 127.65 85.8 126.05 86.0 125.6 86.25 125.05 86.5 124.65 87.0 123.7 Q87.4 122.85 88.4 122.75 M105.5 147.0 Q105.95 146.5 108.05 145.75 L108.8 145.2 108.9 145.1 109.45 145.25 110.45 145.05 111.7 144.85 113.0 144.7 113.5 144.95 114.5 145.1 Q115.2 145.1 115.75 145.75 116.3 146.4 116.3 146.9 116.3 147.9 115.35 148.85 L113.75 150.0 112.95 150.7 Q112.6 150.8 112.35 151.1 L111.85 151.4 111.65 151.35 111.5 151.3 Q111.0 151.3 110.4 152.45 L109.85 152.4 109.15 153.15 108.5 153.6 Q107.35 154.7 106.95 154.7 L106.5 154.6 Q106.25 154.95 106.25 155.25 106.25 155.65 105.75 155.7 L105.35 156.05 105.05 156.0 104.4 156.65 Q103.95 156.65 103.4 156.95 L103.25 157.95 103.1 158.6 Q103.1 159.5 104.75 159.5 L106.25 159.3 107.4 158.95 108.5 158.65 109.05 158.55 109.4 158.65 Q109.6 158.15 110.2 157.8 110.8 157.4 111.15 157.4 L111.4 157.25 111.8 156.7 112.05 156.5 112.55 156.25 113.0 156.25 113.1 156.2 Q113.45 155.35 114.1 155.25 114.8 155.1 114.95 154.75 115.2 154.5 115.6 154.4 116.05 154.35 116.3 154.0 L117.05 153.3 117.65 152.85 Q117.85 152.65 118.0 152.65 118.2 152.65 118.2 153.0 L118.3 153.25 118.4 153.15 118.35 152.85 118.35 152.6 Q118.35 152.15 118.85 152.0 L120.3 151.05 Q120.35 150.4 120.65 150.3 L121.1 150.05 121.4 149.95 Q121.85 149.95 121.85 150.35 L121.7 151.15 121.85 152.05 121.55 152.55 Q121.25 152.9 121.1 153.6 120.95 154.25 120.65 154.3 L120.5 154.3 119.6 155.0 119.05 155.35 118.05 156.6 117.5 157.2 117.1 157.4 116.9 157.2 116.75 157.1 Q116.45 157.1 116.35 157.45 L116.05 158.15 114.8 158.95 114.65 159.0 114.05 159.0 Q113.7 159.0 113.5 159.65 113.35 160.25 112.6 160.3 111.9 160.4 111.6 160.7 L111.25 160.85 110.4 161.35 107.75 162.3 107.4 162.4 106.5 162.55 106.1 162.3 105.9 162.0 105.3 162.25 104.1 162.4 103.4 162.2 102.8 161.9 Q101.9 161.9 101.55 160.45 L101.15 160.55 100.3 158.3 Q100.15 158.1 99.7 158.0 99.3 157.85 99.3 157.35 99.3 155.95 99.9 155.45 L100.55 154.7 101.0 153.1 101.3 152.45 102.05 151.15 102.6 150.05 103.25 149.55 Q104.0 149.45 104.1 148.75 104.15 148.05 105.15 147.5 L105.5 147.0 M109.8 148.05 L109.25 148.2 108.9 148.35 108.15 148.9 106.95 149.7 Q106.35 150.0 105.75 151.3 L105.15 152.65 105.35 152.9 106.4 152.4 107.5 151.7 109.0 150.65 109.25 150.35 109.8 149.95 110.6 149.3 110.9 149.2 Q111.4 148.3 111.95 148.1 L112.55 147.75 Q112.55 147.35 111.95 147.35 111.7 147.35 111.2 147.7 L110.45 147.7 109.8 148.05 M146.85 161.75 L146.7 161.8 Q146.7 162.4 145.85 162.85 145.1 163.25 144.9 163.65 L144.2 164.1 Q143.85 164.25 143.75 165.2 L142.8 165.65 Q142.05 165.85 141.95 166.7 141.85 167.55 141.5 167.65 L140.75 167.85 140.35 168.3 139.2 170.05 138.8 171.15 138.45 171.55 Q137.9 172.4 137.65 173.9 L137.1 174.75 Q136.7 175.25 136.7 175.6 L136.05 177.2 136.05 177.65 135.75 178.3 135.8 179.0 135.6 179.45 135.8 180.2 135.65 181.55 Q135.65 182.25 136.0 182.25 136.95 181.7 137.5 180.95 L138.3 179.85 138.9 178.85 139.35 178.0 139.65 178.0 Q139.9 178.0 139.9 177.15 L140.15 176.0 Q140.5 174.9 140.8 174.85 L140.95 174.35 141.35 173.8 141.75 173.15 141.9 172.35 Q142.55 170.45 143.45 170.2 L143.55 169.9 143.85 168.95 Q144.1 167.7 144.9 167.45 L144.9 167.35 144.85 166.95 144.85 166.75 145.0 166.3 145.3 165.65 145.9 164.5 145.9 164.1 Q145.9 163.5 146.45 163.2 147.0 162.95 147.0 162.5 L146.85 161.75" fill="#ec297b" fill-rule="evenodd" stroke="none"/>
    </g>
  </defs>
</svg>
