<?xml version="1.0" encoding="UTF-8" standalone="no"?>
<svg xmlns:xlink="http://www.w3.org/1999/xlink" height="300.0px" width="300.0px" xmlns="http://www.w3.org/2000/svg">
  <g transform="matrix(1.0, 0.0, 0.0, 1.0, 0.0, 0.0)">
    <use height="256.05" transform="matrix(1.0, 0.0, 0.0, 1.0, 13.35, 23.9)" width="248.3" xlink:href="#sprite0"/>
  </g>
  <defs>
    <g id="sprite0" transform="matrix(1.0, 0.0, 0.0, 1.0, 124.15, 128.0)">
      <use height="256.05" transform="matrix(1.0, 0.0, 0.0, 1.0, -124.15, -128.0)" width="248.3" xlink:href="#shape0"/>
    </g>
    <g id="shape0" transform="matrix(1.0, 0.0, 0.0, 1.0, 124.15, 128.0)">
      <path d="M-48.7 -116.3 Q-49.6 -113.4 -52.05 -110.85 L-54.8 -108.55 -57.75 -106.5 Q-61.5 -104.0 -63.5 -101.85 -65.75 -99.55 -67.7 -95.8 -69.8 -91.85 -70.0 -88.65 -66.8 -87.05 -62.85 -86.65 -58.6 -86.2 -55.5 -87.35 -53.55 -88.05 -50.1 -90.45 -46.55 -92.9 -44.65 -93.6 L-37.55 -93.85 Q-34.0 -92.65 -32.6 -88.85 -31.05 -84.7 -33.25 -80.3 -35.4 -76.0 -39.6 -74.4 -43.8 -72.8 -47.35 -74.75 -51.35 -76.85 -52.5 -82.35 -52.85 -84.0 -53.3 -84.4 -53.9 -85.0 -55.4 -84.4 L-72.35 -79.25 -77.95 -64.7 -73.85 -64.7 -73.85 -55.9 -92.65 -55.9 -92.65 -64.7 -87.05 -64.7 -81.95 -76.3 -124.15 -66.4 Q-117.55 -75.85 -107.3 -79.65 L-76.1 -89.35 -72.75 -95.8 Q-70.5 -99.5 -68.35 -101.35 L-65.1 -104.05 Q-62.8 -106.3 -63.25 -107.45 L-65.0 -109.3 Q-66.65 -111.0 -67.3 -112.8 -68.85 -116.9 -66.6 -121.4 -64.35 -125.85 -60.15 -127.35 -56.7 -128.65 -53.5 -127.35 -50.2 -126.05 -48.85 -122.55 -47.7 -119.5 -48.7 -116.3 M-52.6 -114.85 Q-50.35 -118.2 -51.35 -120.95 -52.4 -123.7 -54.45 -124.7 -56.55 -125.75 -59.2 -124.75 -62.0 -123.7 -63.75 -120.5 -65.6 -117.2 -64.55 -114.5 -63.7 -112.2 -61.85 -111.05 -59.85 -109.8 -57.65 -110.6 -54.75 -111.7 -52.6 -114.85 M-38.75 -91.0 Q-41.1 -91.85 -43.55 -90.95 -46.95 -89.65 -48.55 -86.95 -50.25 -84.0 -49.0 -80.7 -48.05 -78.15 -45.55 -77.15 -43.15 -76.15 -40.6 -77.1 -37.55 -78.25 -35.95 -81.4 -34.25 -84.6 -35.4 -87.7 -36.3 -90.1 -38.75 -91.0" fill="#787878" fill-rule="evenodd" stroke="none"/>
      <path d="M-67.2 -82.45 L-84.7 -46.6 Q-89.4 -37.0 -98.15 -31.7 L-83.45 -72.1 -67.2 -82.45" fill="#787878" fill-rule="evenodd" stroke="none"/>
      <path d="M6.75 -62.85 L6.75 -14.95 Q6.75 -6.55 4.65 -0.8 2.65 4.95 -1.25 8.45 -5.15 11.95 -10.5 13.6 -15.8 15.2 -22.55 15.2 -29.25 15.2 -34.55 13.6 -40.05 11.9 -43.8 8.5 -47.6 5.1 -49.75 -0.8 -51.9 -6.8 -51.9 -14.95 L-51.9 -62.85 Q-51.9 -63.65 -51.25 -64.3 -50.7 -64.85 -49.75 -64.85 L-39.15 -64.85 Q-38.3 -64.85 -37.65 -64.3 -37.05 -63.65 -37.05 -62.85 L-37.05 -14.95 Q-37.05 -8.6 -35.75 -4.7 -34.5 -0.9 -31.35 1.05 -28.2 2.95 -22.55 2.95 -16.85 2.95 -13.7 1.05 -10.55 -0.9 -9.25 -4.7 -8.05 -8.6 -8.05 -14.95 L-8.05 -62.85 Q-8.05 -63.65 -7.4 -64.3 -6.85 -64.85 -5.9 -64.85 L4.6 -64.85 Q5.55 -64.85 6.15 -64.35 6.75 -63.75 6.75 -62.85" fill="#000000" fill-rule="evenodd" stroke="none"/>
      <path d="M59.75 -58.7 L59.75 -51.45 Q59.75 -48.85 57.1 -49.85 54.3 -50.9 48.85 -51.95 L39.2 -53.0 Q28.0 -53.0 28.0 -45.55 28.0 -42.95 29.75 -41.2 31.5 -39.45 36.7 -36.3 L49.55 -28.7 Q55.15 -25.35 58.3 -22.0 61.45 -18.65 62.7 -15.15 63.95 -11.65 63.95 -7.1 63.95 -1.2 61.25 3.85 58.55 8.9 52.45 12.0 46.35 15.2 36.5 15.2 29.8 15.2 24.5 13.65 19.05 12.15 16.95 10.9 L14.95 9.55 Q14.55 9.05 14.55 8.05 L14.55 0.8 Q14.55 -1.6 17.2 -0.8 27.55 2.55 36.1 2.55 42.9 2.55 45.8 0.2 48.7 -2.15 48.7 -7.1 48.7 -10.15 46.85 -12.3 45.1 -14.45 39.85 -17.5 L25.75 -25.95 Q21.05 -28.8 18.2 -31.9 15.4 -34.9 14.25 -38.25 13.15 -41.6 13.15 -45.45 13.15 -54.9 19.35 -60.3 25.5 -65.7 39.1 -65.7 44.35 -65.7 49.55 -64.4 54.7 -63.05 57.4 -61.55 58.6 -60.9 59.2 -60.25 59.75 -59.65 59.75 -58.7" fill="#000000" fill-rule="evenodd" stroke="none"/>
      <path d="M120.05 -64.35 Q120.7 -63.8 120.7 -62.85 L120.7 -54.4 Q120.7 -53.5 120.05 -52.95 119.45 -52.5 118.55 -52.5 L99.9 -52.5 99.9 12.25 Q99.9 13.2 99.3 13.75 98.65 14.35 97.8 14.35 L87.2 14.35 Q86.45 14.35 85.75 13.75 85.05 13.1 85.05 12.25 L85.05 -52.5 66.45 -52.5 Q65.55 -52.5 64.9 -53.0 64.3 -53.55 64.3 -54.4 L64.3 -62.85 Q64.3 -63.7 64.9 -64.3 65.5 -64.85 66.45 -64.85 L118.55 -64.85 Q119.45 -64.85 120.05 -64.35" fill="#000000" fill-rule="evenodd" stroke="none"/>
      <path d="M-60.85 -64.3 Q-60.15 -63.65 -60.15 -62.85 L-60.15 -1.85 Q-60.15 3.7 -62.05 7.2 -63.95 10.65 -67.7 12.2 -71.45 13.7 -77.25 13.7 L-82.25 13.4 -89.6 11.95 -95.95 10.55 Q-96.95 10.25 -96.95 9.05 L-96.95 1.5 Q-96.95 0.65 -96.4 0.1 -95.8 -0.4 -94.9 -0.4 L-77.65 1.9 Q-76.15 1.9 -75.55 1.15 -75.0 0.35 -75.0 -1.85 L-75.0 -52.5 -95.05 -52.5 Q-95.95 -52.5 -96.55 -53.0 -97.2 -53.5 -97.2 -54.4 L-97.2 -62.85 Q-97.2 -63.7 -96.6 -64.3 -96.0 -64.85 -95.05 -64.85 L-62.3 -64.85 Q-61.45 -64.85 -60.85 -64.3" fill="#000000" fill-rule="evenodd" stroke="none"/>
      <path d="M-36.65 21.5 L-36.65 96.6 Q-36.65 97.5 -37.25 98.15 -37.9 98.75 -38.75 98.75 L-49.35 98.75 Q-50.1 98.75 -50.8 98.15 -51.5 97.45 -51.5 96.6 L-51.5 63.95 -81.7 63.95 -81.7 96.6 Q-81.7 97.45 -82.4 98.15 -83.1 98.75 -83.85 98.75 L-94.4 98.75 Q-95.15 98.75 -95.85 98.15 -96.55 97.45 -96.55 96.6 L-96.55 21.5 Q-96.55 20.65 -95.9 20.1 -95.2 19.5 -94.4 19.5 L-83.85 19.5 Q-83.0 19.5 -82.4 20.1 -81.7 20.65 -81.7 21.5 L-81.7 50.95 -51.5 50.95 -51.5 21.5 Q-51.5 20.65 -50.8 20.1 -50.1 19.5 -49.35 19.5 L-38.75 19.5 Q-37.8 19.5 -37.2 20.05 -36.65 20.6 -36.65 21.5" fill="#000000" fill-rule="evenodd" stroke="none"/>
      <path d="M-30.2 96.4 L-12.7 29.55 Q-9.9 18.7 2.1 18.7 14.15 18.7 16.95 29.55 L34.5 96.65 34.55 96.9 Q34.55 97.75 34.0 98.25 33.4 98.75 32.6 98.75 L21.3 98.75 Q20.65 98.75 20.0 98.2 19.4 97.65 19.3 96.9 L14.4 76.65 -10.15 76.65 -15.05 96.9 Q-15.2 97.65 -15.8 98.2 -16.35 98.75 -17.05 98.75 L-28.4 98.75 Q-29.15 98.75 -29.75 98.25 -30.3 97.75 -30.3 96.9 L-30.2 96.7 -30.2 96.4 M0.45 32.8 L-7.25 64.55 11.5 64.55 3.8 32.8 Q3.5 31.8 3.2 31.5 2.85 31.15 2.1 31.15 1.35 31.15 1.0 31.5 0.7 31.8 0.45 32.8" fill="#000000" fill-rule="evenodd" stroke="none"/>
      <path d="M57.1 21.5 L57.1 96.6 Q57.1 97.45 56.4 98.15 55.7 98.75 54.95 98.75 L44.35 98.75 Q43.65 98.75 42.95 98.15 42.25 97.45 42.25 96.6 L42.25 21.5 Q42.25 20.65 42.9 20.1 43.6 19.5 44.35 19.5 L54.95 19.5 Q55.8 19.5 56.4 20.1 57.1 20.65 57.1 21.5" fill="#000000" fill-rule="evenodd" stroke="none"/>
      <path d="M121.6 43.7 Q121.6 51.85 117.8 57.35 114.05 62.75 107.15 65.45 L123.95 96.6 124.15 97.45 Q124.15 98.75 122.85 98.75 L109.9 98.75 Q109.1 98.75 108.7 98.25 L107.75 96.6 92.4 68.1 81.4 67.7 81.4 96.6 Q81.4 97.55 80.8 98.15 80.15 98.75 79.35 98.75 L68.7 98.75 Q67.95 98.75 67.25 98.15 66.6 97.45 66.6 96.6 L66.6 23.25 Q66.6 21.75 67.45 21.05 68.25 20.35 70.0 20.1 78.5 18.7 90.9 18.7 104.6 18.7 113.05 24.35 121.6 30.0 121.6 42.75 L121.6 43.7 M106.9 43.7 L106.9 42.75 Q106.9 36.8 102.95 34.05 99.05 31.4 90.9 31.4 L86.1 31.55 81.4 31.8 81.4 55.75 90.9 56.1 Q99.35 56.1 103.05 53.3 106.9 50.55 106.9 43.7" fill="#000000" fill-rule="evenodd" stroke="none"/>
      <path d="M-81.6 107.9 L-81.6 127.35 -81.75 127.75 -82.15 127.9 -83.55 127.9 -83.95 127.75 -84.1 127.35 -84.1 118.15 -93.6 118.15 -93.6 127.35 -93.7 127.75 -94.15 127.9 -95.55 127.9 -95.95 127.75 -96.1 127.35 -96.1 107.9 -95.95 107.5 -95.55 107.35 -94.15 107.35 Q-93.85 107.35 -93.7 107.5 L-93.6 107.9 -93.6 115.9 -84.1 115.9 -84.1 107.9 -83.95 107.5 -83.55 107.35 -82.15 107.35 Q-81.9 107.35 -81.75 107.5 -81.6 107.65 -81.6 107.9" fill="#808080" fill-rule="evenodd" stroke="none"/>
      <path d="M-71.2 107.15 L-70.1 107.35 Q-69.65 107.5 -69.1 107.95 L-68.4 109.2 -63.3 127.25 -63.25 127.45 Q-63.25 127.9 -63.75 127.9 L-65.4 127.9 -65.85 127.5 -67.65 121.1 -74.85 121.1 -76.6 127.5 -76.8 127.8 -77.1 127.9 -78.75 127.9 -79.05 127.75 -79.15 127.45 -79.15 127.25 -74.05 109.25 Q-73.7 108.1 -72.9 107.6 -72.15 107.15 -71.2 107.15 M-70.7 109.85 Q-70.8 109.35 -71.2 109.35 -71.65 109.35 -71.75 109.85 L-74.3 118.9 -68.2 118.9 -70.7 109.85" fill="#808080" fill-rule="evenodd" stroke="none"/>
      <path d="M-58.15 107.85 L-58.15 127.35 -58.3 127.7 -58.6 127.9 -60.15 127.9 -60.5 127.75 -60.65 127.35 -60.65 107.85 -60.5 107.5 Q-60.4 107.35 -60.15 107.35 L-58.6 107.35 Q-58.4 107.35 -58.3 107.5 -58.15 107.6 -58.15 107.85" fill="#808080" fill-rule="evenodd" stroke="none"/>
      <path d="M-44.9 107.7 Q-43.15 108.3 -42.15 109.6 -41.15 110.95 -41.15 113.1 L-41.15 113.25 Q-41.15 115.5 -42.35 116.9 -43.45 118.3 -45.45 118.85 L-40.45 127.25 -40.4 127.5 Q-40.4 127.9 -40.7 127.9 L-42.5 127.9 -42.95 127.8 -43.2 127.5 -48.15 119.25 -48.9 119.25 -51.95 119.2 -51.95 127.35 -52.05 127.75 -52.45 127.9 -53.95 127.9 -54.25 127.75 -54.4 127.35 -54.4 107.95 Q-54.4 107.45 -53.75 107.35 L-48.9 107.15 -44.9 107.7 M-51.95 117.05 L-48.9 117.15 -45.95 116.75 Q-44.85 116.45 -44.2 115.6 -43.65 114.7 -43.65 113.25 L-43.65 113.1 Q-43.65 111.7 -44.2 110.9 -44.8 110.1 -45.95 109.75 L-48.9 109.4 -51.95 109.45 -51.95 117.05" fill="#808080" fill-rule="evenodd" stroke="none"/>
      <path d="M-19.95 108.65 L-19.95 110.05 Q-19.95 110.6 -20.5 110.4 -21.6 110.0 -22.2 109.9 L-23.8 109.55 -25.45 109.4 Q-27.2 109.4 -28.15 110.0 -29.0 110.6 -29.0 112.0 -29.0 112.95 -28.35 113.65 L-26.0 115.35 -23.45 116.9 Q-21.1 118.3 -20.1 119.6 -19.15 120.9 -19.15 122.55 -19.15 124.85 -20.65 126.5 -22.15 128.05 -25.75 128.05 L-28.55 127.75 Q-30.15 127.4 -31.0 126.95 L-31.45 126.65 -31.5 126.2 -31.5 125.05 Q-31.5 124.6 -30.95 124.7 L-28.3 125.45 -25.65 125.8 -23.35 125.4 Q-22.5 125.0 -22.1 124.3 -21.75 123.6 -21.75 122.55 -21.75 121.5 -22.4 120.75 -23.3 119.85 -25.05 118.85 L-27.7 117.2 Q-29.75 115.95 -30.65 114.8 -31.55 113.65 -31.55 112.0 -31.55 110.45 -30.8 109.35 -30.05 108.2 -28.65 107.65 L-25.45 107.15 -22.55 107.5 -20.4 108.15 -20.1 108.35 -19.95 108.65" fill="#808080" fill-rule="evenodd" stroke="none"/>
      <path d="M-16.15 107.5 Q-16.0 107.35 -15.8 107.35 L-14.3 107.35 Q-14.05 107.35 -13.95 107.5 L-13.75 107.85 -13.75 120.4 Q-13.75 123.2 -12.7 124.6 -11.7 125.95 -9.25 125.95 -7.6 125.95 -6.55 125.3 -5.55 124.7 -5.1 123.45 -4.7 122.2 -4.7 120.4 L-4.7 107.85 -4.55 107.5 -4.2 107.35 -2.65 107.35 Q-2.45 107.35 -2.3 107.5 -2.15 107.6 -2.15 107.85 L-2.15 120.4 Q-2.15 122.4 -2.65 123.85 -3.05 125.15 -4.0 126.25 -4.95 127.25 -6.25 127.65 L-9.25 128.05 -12.2 127.65 Q-13.5 127.2 -14.4 126.25 -15.4 125.2 -15.8 123.85 -16.3 122.4 -16.3 120.4 L-16.3 107.85 -16.15 107.5" fill="#808080" fill-rule="evenodd" stroke="none"/>
      <path d="M1.9 107.35 L6.5 107.15 10.6 107.75 Q12.35 108.35 13.3 109.65 14.25 111.05 14.25 113.1 L14.25 113.5 Q14.25 119.7 6.5 119.7 L3.75 119.55 3.75 127.35 3.6 127.75 3.2 127.9 1.75 127.9 1.4 127.75 1.25 127.35 1.25 108.05 Q1.25 107.45 1.9 107.35 M6.5 117.6 L9.5 117.15 Q10.75 116.75 11.2 115.85 11.75 114.9 11.75 113.5 L11.75 113.1 Q11.75 111.05 10.5 110.15 9.25 109.3 6.5 109.3 L3.75 109.35 3.75 117.5 6.5 117.6" fill="#808080" fill-rule="evenodd" stroke="none"/>
      <path d="M28.25 107.3 Q28.55 107.35 28.55 107.7 L28.55 109.05 28.25 109.4 22.9 109.4 20.7 109.7 Q20.0 110.0 19.75 110.6 19.5 111.1 19.5 112.25 L19.5 116.15 28.0 116.15 28.4 116.3 28.55 116.7 28.55 117.7 28.4 118.15 28.0 118.3 19.5 118.3 19.5 122.9 Q19.5 124.1 19.75 124.65 L20.7 125.55 22.9 125.8 28.25 125.8 Q28.55 125.8 28.55 126.15 L28.55 127.55 Q28.55 127.95 28.25 127.95 L22.9 128.05 19.6 127.55 Q18.35 127.0 17.65 125.85 17.0 124.7 17.0 122.9 L17.0 112.25 Q17.0 109.6 18.45 108.35 19.95 107.15 22.9 107.15 L25.9 107.2 28.25 107.3" fill="#808080" fill-rule="evenodd" stroke="none"/>
      <path d="M37.05 107.15 L41.1 107.7 Q42.85 108.35 43.8 109.6 44.75 111.0 44.75 113.1 L44.75 113.25 Q44.75 115.5 43.6 116.9 42.5 118.3 40.45 118.85 L45.45 127.25 45.55 127.5 Q45.55 127.9 45.2 127.9 L43.45 127.9 43.0 127.8 42.7 127.5 37.8 119.25 37.05 119.25 34.0 119.2 34.0 127.35 33.85 127.75 33.5 127.9 32.05 127.9 31.65 127.75 31.5 127.35 31.5 107.95 Q31.5 107.45 32.2 107.35 L37.05 107.15 M34.0 109.45 L34.0 117.05 37.05 117.15 40.0 116.75 Q41.1 116.45 41.7 115.6 42.3 114.8 42.3 113.25 L42.3 113.1 Q42.3 111.7 41.7 110.9 41.15 110.1 40.0 109.75 L37.05 109.4 34.0 109.45" fill="#808080" fill-rule="evenodd" stroke="none"/>
      <path d="M53.7 107.15 L56.55 107.5 58.65 108.15 59.05 108.35 59.15 108.65 59.15 110.05 Q59.15 110.55 58.6 110.4 L56.95 109.9 55.3 109.55 53.7 109.4 Q51.85 109.4 50.95 110.0 50.1 110.6 50.1 112.0 50.1 112.95 50.8 113.65 51.45 114.35 53.15 115.35 L55.7 116.9 Q58.05 118.3 59.0 119.6 60.0 120.9 60.0 122.55 60.0 124.9 58.45 126.5 56.95 128.05 53.35 128.05 L50.55 127.75 48.15 126.95 47.7 126.65 Q47.55 126.55 47.55 126.2 L47.55 125.05 Q47.55 124.6 48.15 124.7 L50.8 125.45 53.45 125.8 55.75 125.4 Q56.65 125.0 56.95 124.3 57.35 123.55 57.35 122.55 57.35 121.55 56.65 120.75 55.95 119.95 54.05 118.85 L51.35 117.2 Q49.45 116.05 48.45 114.8 47.55 113.6 47.55 112.0 47.55 110.4 48.3 109.35 49.0 108.25 50.45 107.65 L53.7 107.15" fill="#808080" fill-rule="evenodd" stroke="none"/>
      <path d="M76.3 107.8 L76.3 109.05 Q76.3 109.45 75.75 109.45 L70.35 109.45 70.35 127.35 70.25 127.75 69.9 127.9 68.35 127.9 68.0 127.75 67.85 127.35 67.85 109.45 62.45 109.45 Q61.9 109.45 61.9 109.05 L61.9 107.8 62.1 107.5 Q62.25 107.35 62.45 107.35 L75.75 107.35 Q76.0 107.35 76.1 107.5 L76.3 107.8" fill="#808080" fill-rule="evenodd" stroke="none"/>
      <path d="M87.9 107.65 Q89.25 108.15 90.25 109.2 91.25 110.3 91.8 111.9 92.35 113.55 92.35 115.8 L92.35 119.4 Q92.35 121.65 91.8 123.3 91.35 124.95 90.3 126.0 89.3 127.05 87.9 127.55 L84.9 128.05 81.9 127.55 Q80.5 127.05 79.5 126.0 78.5 125.0 77.95 123.3 77.4 121.65 77.4 119.4 L77.4 115.8 Q77.4 113.6 77.95 111.95 78.5 110.3 79.5 109.2 80.6 108.1 81.9 107.65 83.2 107.15 84.9 107.15 86.6 107.15 87.9 107.65 M84.9 109.4 Q79.95 109.4 79.95 115.8 L79.95 119.4 Q79.95 121.65 80.55 123.05 81.15 124.5 82.25 125.15 83.25 125.8 84.9 125.8 89.8 125.8 89.8 119.4 L89.8 115.8 89.5 112.85 88.55 110.85 87.0 109.75 84.9 109.4" fill="#808080" fill-rule="evenodd" stroke="none"/>
      <path d="M105.0 107.7 Q106.75 108.3 107.7 109.6 108.7 110.95 108.7 113.1 L108.7 113.25 Q108.7 115.5 107.55 116.9 106.45 118.3 104.35 118.85 L109.4 127.25 109.5 127.5 Q109.5 127.9 109.15 127.9 L107.4 127.9 106.95 127.8 106.65 127.5 101.7 119.25 101.0 119.25 97.95 119.2 97.95 127.35 97.8 127.75 97.45 127.9 95.95 127.9 95.6 127.75 95.45 127.35 95.45 107.95 Q95.45 107.45 96.1 107.35 L101.0 107.15 105.0 107.7 M97.95 117.05 L101.0 117.15 103.9 116.75 Q105.05 116.45 105.65 115.6 106.25 114.7 106.25 113.25 L106.25 113.1 Q106.25 111.8 105.65 110.9 105.0 110.05 103.95 109.75 L101.0 109.4 97.95 109.45 97.95 117.05" fill="#808080" fill-rule="evenodd" stroke="none"/>
      <path d="M121.0 107.2 L123.4 107.3 123.7 107.7 123.7 109.05 123.4 109.4 118.05 109.4 115.85 109.7 Q115.15 110.0 114.85 110.6 L114.65 112.25 114.65 116.15 123.15 116.15 123.55 116.3 123.7 116.7 123.7 117.7 123.55 118.15 123.15 118.3 114.65 118.3 114.65 122.9 114.85 124.65 Q115.15 125.3 115.85 125.55 L118.05 125.8 123.4 125.8 Q123.7 125.8 123.7 126.15 L123.7 127.55 123.4 127.95 118.05 128.05 114.75 127.55 Q113.45 127.0 112.8 125.85 112.15 124.7 112.15 122.9 L112.15 112.25 Q112.15 109.6 113.6 108.35 115.1 107.15 118.05 107.15 L121.0 107.2" fill="#808080" fill-rule="evenodd" stroke="none"/>
    </g>
  </defs>
</svg>
