<?xml version="1.0" encoding="UTF-8" standalone="no"?>
<svg xmlns:xlink="http://www.w3.org/1999/xlink" height="300.0px" width="300.0px" xmlns="http://www.w3.org/2000/svg">
  <g transform="matrix(1.0, 0.0, 0.0, 1.0, 0.0, 0.0)">
    <use height="239.3" transform="matrix(1.0, 0.0, 0.0, 1.0, 14.5, 57.5)" width="273.1" xlink:href="#sprite0"/>
  </g>
  <defs>
    <g id="sprite0" transform="matrix(1.0, 0.0, 0.0, 1.0, 136.55, 119.65)">
      <use height="239.3" transform="matrix(1.0, 0.0, 0.0, 1.0, -136.55, -119.65)" width="273.1" xlink:href="#shape0"/>
    </g>
    <g id="shape0" transform="matrix(1.0, 0.0, 0.0, 1.0, 136.55, 119.65)">
      <path d="M77.7 -110.4 Q94.45 -106.0 108.4 -99.45 122.4 -92.9 132.55 -84.75 L136.55 -81.5 136.0 -78.45 Q126.9 -27.45 136.0 23.55 L136.55 26.65 132.55 29.85 Q122.4 38.05 108.4 44.6 94.45 51.15 77.65 55.55 42.8 64.75 0.0 64.75 -42.8 64.75 -77.7 55.55 -94.45 51.15 -108.45 44.6 -122.4 38.05 -132.55 29.85 L-136.55 26.65 -136.0 23.55 Q-126.9 -27.45 -136.0 -78.45 L-136.55 -81.5 -132.55 -84.75 Q-122.4 -92.9 -108.45 -99.45 -94.45 -106.0 -77.65 -110.4 -42.65 -119.65 0.0 -119.65 42.65 -119.65 77.7 -110.4" fill="#ff8a00" fill-rule="evenodd" stroke="none"/>
      <path d="M0.0 -114.35 Q20.65 -114.35 39.9 -112.1 59.25 -109.8 76.3 -105.3 92.7 -100.95 106.15 -94.7 119.5 -88.45 129.2 -80.6 L130.8 -79.35 Q126.15 -53.6 126.15 -27.45 126.15 -1.25 130.8 24.5 L129.2 25.75 Q119.5 33.6 106.15 39.8 92.7 46.1 76.3 50.45 59.3 54.95 39.9 57.25 20.7 59.5 0.0 59.5 -20.7 59.5 -39.9 57.25 -59.3 54.95 -76.3 50.45 -92.7 46.1 -106.2 39.8 -119.5 33.6 -129.2 25.75 L-130.8 24.5 Q-126.2 -1.25 -126.2 -27.45 -126.2 -53.6 -130.8 -79.35 L-129.2 -80.6 Q-119.5 -88.45 -106.2 -94.7 -92.7 -100.95 -76.3 -105.3 -59.3 -109.8 -39.9 -112.1 -20.65 -114.35 0.0 -114.35" fill="#ffd500" fill-rule="evenodd" stroke="none"/>
      <path d="M115.75 -27.45 Q115.75 -3.8 119.8 19.55 102.25 33.25 72.15 41.2 39.7 49.75 0.0 49.8 -39.7 49.75 -72.1 41.2 -102.25 33.25 -119.8 19.55 -115.75 -3.8 -115.75 -27.45 -115.75 -51.05 -119.8 -74.35 -102.25 -88.1 -72.1 -96.1 -39.7 -104.65 0.0 -104.65 39.7 -104.65 72.15 -96.1 102.25 -88.1 119.8 -74.35 115.75 -51.05 115.75 -27.45" fill="#000000" fill-rule="evenodd" stroke="none"/>
      <path d="M115.75 -27.45 Q115.75 -51.05 119.8 -74.35 102.25 -88.1 72.15 -96.1 39.7 -104.65 0.0 -104.65 -39.7 -104.65 -72.1 -96.1 -102.25 -88.1 -119.8 -74.35 -115.75 -51.05 -115.75 -27.45 -115.75 -3.8 -119.8 19.55 -102.25 33.25 -72.1 41.2 -39.7 49.75 0.0 49.8 39.7 49.75 72.15 41.2 102.25 33.25 119.8 19.55 115.75 -3.8 115.75 -27.45 M0.0 -110.65 Q40.6 -110.65 73.7 -101.9 106.45 -93.2 124.95 -77.9 L125.9 -76.6 Q126.15 -75.85 126.0 -75.05 121.75 -51.45 121.75 -27.45 121.75 -3.4 126.0 20.25 126.15 21.0 125.9 21.8 L124.95 23.1 Q106.45 38.35 73.7 47.0 40.6 55.75 0.0 55.8 -40.6 55.75 -73.65 47.0 -106.45 38.35 -124.95 23.1 -125.6 22.55 -125.85 21.8 L-126.0 20.25 Q-121.75 -3.4 -121.75 -27.45 -121.75 -51.45 -126.0 -75.05 L-125.85 -76.6 Q-125.6 -77.4 -124.95 -77.9 -106.45 -93.2 -73.65 -101.9 -40.6 -110.65 0.0 -110.65" fill="#ffffff" fill-rule="evenodd" stroke="none"/>
      <path d="M-53.45 -87.65 Q-50.4 -63.85 -49.85 -39.8 L-57.45 -39.45 Q-57.7 -48.2 -58.25 -56.3 L-64.7 -55.45 Q-63.95 -45.3 -63.75 -35.1 L-55.8 -35.35 Q-55.7 -30.35 -55.75 -23.25 L-63.7 -23.45 Q-63.9 -12.1 -64.6 -1.35 L-58.15 -0.5 Q-57.65 -8.65 -57.4 -17.55 L-49.15 -17.2 Q-49.65 7.8 -52.75 32.35 -67.3 29.3 -80.25 24.75 -77.95 10.95 -76.8 -3.15 L-73.7 -2.65 Q-71.8 -28.2 -73.85 -54.05 L-76.9 -53.5 Q-78.1 -67.45 -80.25 -80.2 -67.4 -84.7 -53.45 -87.65" fill="#ffffff" fill-rule="evenodd" stroke="none"/>
      <path d="M-18.6 -92.45 Q-17.25 -64.5 -17.1 -35.35 L-22.75 -35.3 -23.2 -59.35 -27.6 -59.1 Q-26.5 -28.25 -27.55 2.15 L-24.35 2.35 Q-24.85 20.05 -25.95 36.4 L-43.25 34.15 Q-41.5 17.95 -40.75 1.3 L-37.05 1.55 Q-35.7 -28.5 -37.1 -58.5 L-41.65 -58.1 Q-41.0 -45.95 -40.9 -34.95 L-46.55 -34.85 Q-46.9 -61.8 -50.05 -88.35 -34.7 -91.35 -18.6 -92.45" fill="#ffffff" fill-rule="evenodd" stroke="none"/>
      <path d="M12.1 -92.9 Q11.35 -66.85 11.15 -40.9 L2.75 -40.9 2.75 -43.35 Q2.8 -59.55 -0.65 -59.55 -3.0 -59.55 -3.5 -54.2 -3.95 -49.5 -3.95 -24.1 -4.0 3.05 -0.6 3.05 2.55 3.05 2.5 -12.0 L2.5 -22.45 11.75 -22.5 Q12.3 -12.0 12.4 -1.3 12.75 19.4 9.6 29.5 6.4 39.7 -0.65 39.75 -10.25 39.65 -12.45 27.9 -13.5 22.5 -13.85 8.5 L-14.05 -26.55 -13.9 -61.05 Q-13.6 -75.3 -12.8 -81.5 -11.05 -95.0 -4.35 -95.15 0.65 -95.2 2.9 -85.75 L2.95 -93.1 12.1 -92.9" fill="#ffffff" fill-rule="evenodd" stroke="none"/>
      <path d="M50.05 -88.5 Q48.25 -73.35 47.35 -57.65 L44.05 -57.95 Q42.5 -28.85 44.0 1.05 L47.25 0.75 Q48.2 17.15 50.05 33.05 L35.05 35.5 Q33.6 18.05 32.95 1.9 L34.55 1.8 Q34.05 -10.15 34.0 -22.95 L28.1 -22.85 Q28.15 -11.65 28.6 2.15 L30.2 2.05 Q30.9 19.5 32.15 35.85 L16.8 37.15 Q16.1 20.25 15.75 2.75 L19.05 2.6 Q18.35 -28.2 19.1 -59.55 L15.8 -59.7 Q16.15 -76.4 16.8 -92.65 L32.15 -91.25 Q30.9 -74.75 30.3 -59.0 L28.65 -59.1 Q28.2 -46.65 28.15 -36.1 L34.0 -35.95 Q34.1 -46.95 34.6 -58.7 L33.05 -58.85 Q33.7 -75.45 35.05 -90.9 L50.05 -88.5" fill="#ffffff" fill-rule="evenodd" stroke="none"/>
      <path d="M68.5 -84.15 Q66.3 -69.65 65.25 -55.45 L63.05 -55.8 Q61.7 -36.7 62.2 -17.0 62.45 -9.1 63.4 -5.0 64.35 -1.1 65.8 -1.3 67.4 -1.55 67.95 -5.7 68.45 -9.55 68.2 -17.9 67.7 -36.45 69.1 -54.9 L67.0 -55.25 Q68.05 -69.45 70.2 -83.65 L82.45 -79.75 Q80.2 -66.6 79.1 -53.25 L75.9 -53.85 Q73.85 -28.15 75.8 -2.8 L76.55 5.4 77.05 13.4 Q77.15 20.65 75.1 24.85 73.05 29.25 68.55 30.6 62.75 32.3 59.05 26.55 55.25 20.65 54.25 7.85 L53.65 -1.3 Q52.05 -29.15 53.8 -56.95 L50.55 -57.3 Q51.45 -72.4 53.35 -87.85 61.25 -86.2 68.5 -84.15" fill="#ffffff" fill-rule="evenodd" stroke="none"/>
      <path d="M97.85 -73.4 Q105.3 -69.95 107.25 -63.35 108.1 -60.4 108.15 -55.2 108.2 -50.65 107.7 -42.95 107.25 -36.3 106.6 -32.55 105.95 -28.35 104.8 -26.3 102.4 -21.95 95.15 -21.45 L93.2 -21.3 Q93.35 -13.7 94.0 -6.25 L97.35 -6.95 Q98.3 4.85 100.4 16.8 93.25 20.2 85.5 23.15 83.15 9.6 82.1 -3.95 L85.15 -4.5 Q83.3 -28.4 85.25 -52.1 L82.2 -52.7 Q83.25 -65.65 85.5 -78.6 91.85 -76.2 97.85 -73.4 M94.05 -50.3 Q93.25 -40.7 93.15 -31.5 L95.0 -31.4 Q96.95 -31.35 97.95 -33.45 98.95 -35.45 99.15 -39.7 99.4 -44.4 98.45 -46.9 97.5 -49.5 95.3 -50.0 L94.05 -50.3" fill="#ffffff" fill-rule="evenodd" stroke="none"/>
      <path d="M-86.45 -72.6 Q-84.6 -70.5 -83.25 -65.45 -81.8 -60.0 -81.15 -52.0 -80.2 -40.25 -81.75 -35.35 -83.2 -31.0 -88.0 -29.5 -82.5 -27.3 -81.05 -23.1 -80.35 -20.9 -80.15 -16.65 -79.95 -11.95 -80.4 -5.5 -81.0 2.95 -82.5 8.9 -83.9 14.35 -85.8 16.8 -87.65 19.1 -90.65 19.3 -93.65 19.55 -97.7 17.65 -103.7 14.85 -109.7 11.5 -107.95 1.1 -107.1 -9.4 L-104.1 -8.7 Q-102.5 -28.2 -104.15 -47.7 L-107.15 -46.95 Q-108.05 -57.35 -109.7 -66.95 L-98.6 -72.65 Q-94.4 -74.7 -91.3 -74.65 -88.25 -74.6 -86.45 -72.6 M-95.6 -49.8 Q-94.95 -42.0 -94.7 -34.1 L-93.1 -34.25 Q-91.25 -34.35 -90.4 -36.5 -89.55 -38.65 -89.8 -42.8 -90.0 -46.85 -91.15 -48.7 -92.25 -50.55 -94.2 -50.1 L-95.6 -49.8 M-90.0 -21.95 Q-91.05 -24.05 -93.3 -24.1 L-94.65 -24.15 Q-94.8 -15.25 -95.5 -6.75 L-94.1 -6.4 Q-91.9 -5.95 -90.6 -8.2 -89.3 -10.6 -89.05 -15.6 -88.9 -19.75 -90.0 -21.95" fill="#ffffff" fill-rule="evenodd" stroke="none"/>
      <path d="M-97.35 65.35 Q-96.15 65.9 -95.25 66.95 -94.15 68.15 -93.55 69.85 -93.0 71.45 -93.0 73.05 -93.0 76.4 -95.35 78.0 -94.05 78.9 -93.3 80.75 -92.65 82.4 -92.65 84.15 -92.65 87.7 -94.7 89.5 -96.6 91.1 -99.75 91.05 L-103.95 91.0 -103.95 63.75 -99.7 64.65 -97.35 65.35 M-97.75 74.85 Q-97.1 74.05 -97.1 72.55 -97.1 71.1 -97.75 70.2 -98.45 69.2 -99.65 69.05 L-99.65 75.5 Q-98.45 75.65 -97.75 74.85 M-99.65 86.7 Q-98.35 86.85 -97.6 85.9 -96.9 84.95 -96.9 83.3 -96.9 81.7 -97.65 80.7 -98.4 79.65 -99.65 79.55 L-99.65 86.7" fill="#000000" fill-rule="evenodd" stroke="none"/>
      <path d="M-84.2 73.75 L-84.3 73.75 -85.65 83.6 -82.6 83.8 -84.2 73.75 M-81.8 68.05 L-76.55 91.55 -81.2 91.45 -81.95 87.5 -86.35 87.3 -87.15 91.35 -91.4 91.25 -86.35 67.25 -81.8 68.05" fill="#000000" fill-rule="evenodd" stroke="none"/>
      <path d="M-70.5 80.55 L-70.5 91.65 -74.8 91.55 -74.8 69.2 -70.5 69.8 -70.5 79.6 -70.45 79.6 -66.8 70.35 -62.4 70.95 -66.45 80.2 -61.9 91.8 -66.45 91.7 -70.45 80.55 -70.5 80.55" fill="#000000" fill-rule="evenodd" stroke="none"/>
      <path d="M-51.15 72.25 L-51.15 75.9 -55.55 75.5 -55.55 79.85 -51.7 80.15 -51.7 83.8 -55.55 83.6 -55.55 88.15 -51.1 88.25 -51.1 91.9 -59.9 91.8 -59.9 71.25 -51.15 72.25" fill="#000000" fill-rule="evenodd" stroke="none"/>
      <path d="M-35.3 83.0 Q-35.3 92.05 -44.6 91.95 L-48.5 91.95 -48.5 72.5 -45.15 72.85 Q-41.7 73.2 -39.95 74.15 -35.35 76.6 -35.3 83.0 M-39.65 82.8 Q-39.65 80.5 -40.55 78.75 -41.75 76.5 -44.15 76.35 L-44.15 88.6 Q-41.8 88.75 -40.6 86.65 -39.65 85.05 -39.65 82.8" fill="#000000" fill-rule="evenodd" stroke="none"/>
      <path d="M-19.2 74.7 Q-18.0 74.95 -17.05 75.6 -15.95 76.3 -15.35 77.4 -14.8 78.45 -14.8 79.6 -14.8 81.95 -17.15 83.2 -15.85 83.7 -15.1 84.95 -14.4 86.05 -14.4 87.3 -14.4 89.75 -16.5 91.0 -18.45 92.15 -21.6 92.15 L-25.85 92.1 -25.85 74.25 -21.6 74.5 -19.2 74.7 M-19.6 81.15 Q-18.9 80.6 -18.9 79.55 -18.9 78.6 -19.55 78.0 -20.3 77.4 -21.5 77.4 L-21.5 81.7 Q-20.3 81.75 -19.6 81.15 M-21.5 84.4 L-21.5 89.2 Q-20.25 89.3 -19.45 88.6 -18.7 87.95 -18.7 86.85 -18.7 85.75 -19.45 85.1 -20.25 84.4 -21.5 84.4" fill="#000000" fill-rule="evenodd" stroke="none"/>
      <path d="M-3.0 89.0 L-3.0 92.2 -11.85 92.15 -11.85 74.8 -3.05 74.95 -3.05 78.15 -7.5 78.1 -7.5 81.85 -3.6 81.9 -3.6 85.1 -7.5 85.1 -7.5 88.95 -3.0 89.0" fill="#000000" fill-rule="evenodd" stroke="none"/>
      <path d="M5.6 79.35 L5.55 79.35 4.15 86.6 7.2 86.6 5.6 79.35 M8.05 74.9 L13.3 92.15 8.65 92.2 7.85 89.3 3.4 89.3 2.65 92.2 -1.7 92.2 3.4 74.95 8.05 74.9" fill="#000000" fill-rule="evenodd" stroke="none"/>
      <path d="M28.75 74.15 L28.75 92.1 24.65 92.15 19.25 81.55 19.2 81.6 19.45 84.1 19.45 92.15 15.05 92.15 15.05 74.75 19.25 74.6 24.7 85.1 24.75 85.05 Q24.4 83.9 24.4 82.35 L24.4 74.35 28.75 74.15" fill="#000000" fill-rule="evenodd" stroke="none"/>
      <path d="M44.2 72.7 Q46.2 72.5 48.05 73.3 L48.05 77.0 Q46.4 75.9 44.9 76.05 43.85 76.1 43.25 76.65 42.7 77.15 42.7 78.05 42.7 79.05 43.7 79.9 L46.0 81.3 Q49.3 83.3 49.3 86.2 49.3 88.85 47.7 90.55 45.95 92.3 42.95 92.3 40.8 92.3 39.25 91.4 L39.25 87.9 Q41.0 88.85 42.55 88.8 43.65 88.75 44.3 88.2 45.05 87.6 45.05 86.65 45.05 85.7 44.25 85.05 L42.5 84.0 39.5 81.85 Q38.4 80.55 38.4 78.65 38.4 76.35 39.9 74.7 41.5 72.95 44.2 72.7" fill="#000000" fill-rule="evenodd" stroke="none"/>
      <path d="M57.75 76.8 L57.7 76.8 56.3 85.3 59.4 85.2 57.75 76.8 M60.2 71.3 L65.45 91.7 60.85 91.8 60.0 88.35 55.6 88.5 54.8 91.9 50.5 91.9 55.6 71.85 60.2 71.3" fill="#000000" fill-rule="evenodd" stroke="none"/>
      <path d="M71.4 69.8 L71.4 83.95 71.6 86.6 Q72.0 88.05 73.55 88.0 74.95 87.95 75.4 86.9 75.65 86.3 75.7 84.6 L75.7 69.15 80.05 68.45 80.05 85.25 Q80.05 88.05 79.15 89.5 77.65 91.9 73.55 91.95 70.45 92.0 68.8 90.6 67.05 89.15 67.05 86.2 L67.05 70.45 71.4 69.8" fill="#000000" fill-rule="evenodd" stroke="none"/>
      <path d="M93.85 70.75 L92.25 70.75 Q89.6 71.2 88.1 73.75 86.8 76.05 86.8 79.1 86.8 82.1 88.1 84.3 89.6 86.9 92.2 86.8 L93.85 86.35 93.85 91.05 Q93.0 91.5 91.85 91.55 87.4 91.55 84.7 87.85 82.2 84.4 82.2 79.55 82.2 75.0 84.75 71.15 87.45 67.0 91.7 66.15 92.7 65.95 93.85 66.15 L93.85 70.75" fill="#000000" fill-rule="evenodd" stroke="none"/>
      <path d="M104.75 85.95 L104.75 91.0 96.05 91.15 96.05 65.6 104.7 63.8 104.7 68.85 100.35 69.6 100.35 75.35 104.2 74.8 104.2 79.85 100.35 80.25 100.35 86.15 104.75 85.95" fill="#000000" fill-rule="evenodd" stroke="none"/>
      <path d="M-72.15 100.9 Q-70.1 100.8 -68.0 101.6 L-68.0 106.9 Q-68.7 106.05 -69.75 105.65 -70.8 105.2 -71.95 105.3 -74.0 105.4 -75.35 106.95 -76.6 108.45 -76.6 110.6 -76.6 112.75 -75.3 113.9 -74.0 115.15 -71.9 114.85 -70.85 114.75 -69.75 114.1 -68.7 113.5 -68.0 112.6 L-68.0 117.9 -70.05 118.75 -72.0 119.3 Q-75.8 119.8 -78.55 117.6 -81.3 115.45 -81.3 111.05 -81.3 109.15 -80.65 107.35 -80.0 105.5 -78.75 104.1 -77.5 102.65 -75.75 101.8 -74.0 100.95 -72.15 100.9" fill="#ff8a00" fill-rule="evenodd" stroke="none"/>
      <path d="M-58.1 105.65 Q-59.55 107.0 -59.55 108.75 -59.55 110.85 -58.1 112.05 -56.65 113.3 -54.6 113.1 -52.55 112.9 -51.15 111.45 -49.7 110.0 -49.7 108.0 -49.7 106.4 -51.15 105.25 -52.6 104.1 -54.6 104.2 -56.65 104.25 -58.1 105.65 M-47.9 102.2 Q-44.95 104.4 -44.95 107.75 -44.95 111.35 -47.7 114.0 -50.4 116.6 -54.6 117.1 -58.85 117.6 -61.5 115.4 -64.25 113.15 -64.25 109.1 -64.25 105.35 -61.3 102.75 -58.5 100.25 -54.6 100.15 -50.75 100.1 -47.9 102.2" fill="#ff8a00" fill-rule="evenodd" stroke="none"/>
      <path d="M-28.1 108.8 L-28.1 100.05 -23.55 100.0 -23.55 114.1 -28.1 114.35 -36.4 105.9 -36.45 105.9 -36.45 114.85 -41.0 115.25 -41.0 100.3 -36.45 100.2 -28.15 108.8 -28.1 108.8" fill="#ff8a00" fill-rule="evenodd" stroke="none"/>
      <path d="M-13.1 102.9 L-14.15 102.95 -14.15 110.65 -13.15 110.65 Q-10.95 110.6 -9.6 109.65 -8.1 108.65 -8.1 106.7 -8.1 104.95 -9.5 103.9 -10.85 102.9 -13.1 102.9 M-5.95 101.85 Q-3.35 103.8 -3.35 106.65 -3.35 109.55 -5.95 111.55 -8.6 113.6 -12.25 113.7 L-18.7 113.9 -18.7 99.95 -12.25 99.85 Q-8.6 99.85 -5.95 101.85" fill="#ff8a00" fill-rule="evenodd" stroke="none"/>
      <path d="M0.6 113.5 L0.6 99.8 5.15 99.8 5.15 113.5 0.6 113.5" fill="#ff8a00" fill-rule="evenodd" stroke="none"/>
      <path d="M14.95 105.75 L13.5 113.7 8.95 113.6 11.9 99.85 16.4 99.9 19.95 107.4 23.7 100.0 28.25 100.05 30.9 114.45 26.35 114.2 25.05 106.0 25.0 106.0 20.85 113.9 19.0 113.85 15.0 105.75 14.95 105.75" fill="#ff8a00" fill-rule="evenodd" stroke="none"/>
      <path d="M34.65 114.7 L34.65 100.15 44.6 100.4 44.6 103.7 39.2 103.5 39.2 106.0 44.3 106.2 44.3 109.55 39.2 109.25 39.2 111.8 44.6 112.15 44.6 115.5 34.65 114.7" fill="#ff8a00" fill-rule="evenodd" stroke="none"/>
      <path d="M62.15 111.0 L62.15 100.95 66.7 101.1 66.7 117.95 62.15 117.35 53.85 106.75 53.8 106.75 53.8 116.4 49.25 115.95 49.25 100.5 53.8 100.65 62.1 111.0 62.15 111.0" fill="#ff8a00" fill-rule="evenodd" stroke="none"/>
      <path d="M82.15 101.75 L82.15 105.85 78.4 105.55 78.4 119.65 73.85 118.95 73.85 105.25 70.15 105.05 70.15 101.2 82.15 101.75" fill="#ff8a00" fill-rule="evenodd" stroke="none"/>
    </g>
  </defs>
</svg>
