<?xml version="1.0" encoding="UTF-8" standalone="no"?>
<svg xmlns:xlink="http://www.w3.org/1999/xlink" height="300.0px" width="300.0px" xmlns="http://www.w3.org/2000/svg">
  <g transform="matrix(1.0, 0.0, 0.0, 1.0, 0.0, 0.0)">
    <use height="381.25" transform="matrix(1.0, 0.0, 0.0, 1.0, 29.8, -62.85)" width="242.45" xlink:href="#shape0"/>
  </g>
  <defs>
    <g id="shape0" transform="matrix(1.0, 0.0, 0.0, 1.0, -29.8, 62.85)">
      <path d="M272.25 106.4 L272.25 318.4 247.55 318.4 237.05 179.65 236.1 318.4 70.7 318.4 65.0 184.4 58.3 318.4 29.8 318.4 29.8 106.4 Q32.3 96.95 36.95 86.7 46.2 66.25 56.95 62.4 75.9 55.6 95.75 51.65 121.4 46.5 146.75 46.5 172.85 46.5 200.95 51.95 222.55 56.1 243.9 63.15 254.9 66.8 264.65 87.0 269.55 97.05 272.25 106.4" fill="#000000" fill-rule="evenodd" stroke="none"/>
      <path d="M78.3 186.3 Q79.8 130.45 113.4 89.55 123.95 76.75 136.4 67.05 142.65 62.15 146.75 59.85 163.8 67.8 179.0 82.85 193.45 97.2 204.35 116.0 215.05 134.45 220.6 154.3 226.35 174.55 225.65 192.95 223.9 242.85 190.35 283.25 179.9 295.9 167.5 306.0 161.3 311.1 157.2 313.65 152.15 310.15 144.6 303.75 129.5 291.05 117.05 276.7 77.1 230.85 78.3 186.3" fill="#7a0014" fill-rule="evenodd" stroke="none"/>
      <path d="M172.4 -1.0 L160.05 10.4 157.2 52.25 133.45 50.3 133.45 15.15 110.6 10.4 104.9 -21.0 107.3 -23.55 Q110.2 -27.15 112.5 -32.4 113.0 -33.55 113.15 -38.5 113.25 -43.15 114.15 -44.65 120.4 -54.5 128.95 -59.1 139.7 -64.8 153.4 -61.85 178.35 -56.5 177.9 -28.25 177.75 -19.4 175.05 -9.3 173.7 -4.3 172.4 -1.0" fill="#000000" fill-rule="evenodd" stroke="none"/>
      <path d="M172.4 82.25 L172.4 82.5 169.0 92.65 171.6 92.65 171.95 92.8 172.1 93.15 172.1 93.8 171.95 94.15 171.6 94.3 168.45 94.3 164.0 107.65 164.0 110.0 164.75 110.7 166.9 109.65 170.95 104.2 171.15 104.05 171.45 104.0 171.65 104.1 172.15 104.5 172.35 104.85 172.25 105.2 168.0 110.85 167.85 111.0 164.85 112.5 164.6 112.55 164.4 112.5 161.25 110.95 161.05 110.8 160.95 110.5 160.95 107.45 161.0 107.3 162.35 103.25 161.1 105.15 160.8 105.35 160.7 105.35 158.0 109.4 157.9 109.45 156.45 110.95 156.35 111.05 153.35 112.5 153.1 112.55 152.9 112.5 149.8 110.95 149.6 110.8 149.5 110.5 149.5 108.05 146.65 110.95 146.55 111.05 143.6 112.5 143.35 112.55 141.75 112.55 141.55 112.5 138.55 110.95 138.35 110.75 138.25 110.5 138.25 108.55 137.7 109.4 137.6 109.45 136.15 110.95 136.05 111.05 133.0 112.55 132.75 112.6 132.5 112.55 132.35 112.45 129.5 110.95 129.3 110.8 129.1 111.0 126.15 112.5 125.9 112.55 122.85 112.55 122.55 112.45 119.75 111.0 119.5 110.8 118.7 109.15 118.5 109.45 118.35 109.6 113.95 112.5 113.65 112.55 109.3 112.55 109.1 112.5 106.15 111.0 105.9 110.8 104.4 107.85 104.35 107.6 104.35 104.65 104.4 104.45 105.85 101.5 105.95 101.35 107.45 99.9 107.6 99.8 110.5 98.35 110.7 98.3 112.3 98.3 112.65 98.45 114.3 100.05 114.45 100.4 114.45 103.4 114.4 103.65 112.95 106.55 112.85 106.65 111.35 108.15 111.25 108.25 108.45 109.65 109.7 110.9 113.35 110.9 Q115.25 109.6 117.2 108.35 L117.95 107.2 117.95 104.65 118.0 104.45 119.45 101.5 119.55 101.35 121.05 99.9 121.2 99.8 124.1 98.35 124.3 98.3 127.25 98.3 127.5 98.35 130.5 99.8 130.7 100.05 131.25 101.2 132.05 98.8 Q132.05 98.65 132.2 98.55 L132.5 98.45 133.9 98.45 134.1 98.5 134.75 98.8 135.0 99.05 135.05 99.4 132.25 107.65 132.25 110.0 133.0 110.75 135.15 109.65 136.4 108.45 139.15 104.3 139.35 104.1 141.1 98.8 141.25 98.55 141.55 98.45 142.95 98.45 143.15 98.5 143.8 98.8 144.05 99.05 144.1 99.4 141.3 107.65 141.3 110.0 142.2 110.9 143.1 110.9 145.65 109.65 148.25 107.05 151.0 102.9 152.35 98.8 152.5 98.55 152.8 98.45 154.2 98.45 154.4 98.5 155.05 98.8 155.3 99.05 155.35 99.4 152.55 107.65 152.55 110.0 153.3 110.7 155.45 109.65 156.7 108.45 159.45 104.3 Q159.55 104.1 159.75 104.1 L159.85 104.05 162.5 100.05 165.25 94.55 165.35 94.3 163.2 94.3 162.85 94.15 162.7 93.8 162.7 93.15 Q162.7 92.95 162.85 92.8 163.0 92.65 163.2 92.65 L165.85 92.65 169.45 82.0 169.6 81.75 169.9 81.65 171.25 81.65 171.4 81.7 172.05 81.9 172.3 82.05 172.4 82.25 M179.2 91.3 L181.05 93.15 181.2 93.5 181.05 93.85 179.2 95.7 178.85 95.85 178.5 95.7 176.65 93.85 176.5 93.5 Q176.5 93.3 176.65 93.15 L178.5 91.3 Q178.65 91.15 178.85 91.15 179.05 91.15 179.2 91.3 M175.4 98.55 L175.7 98.45 177.1 98.45 177.3 98.5 177.95 98.8 178.2 99.05 178.25 99.4 175.45 107.65 175.45 110.0 176.2 110.75 178.4 109.65 179.6 108.45 182.35 104.3 182.65 104.1 183.0 104.1 183.6 104.4 183.8 104.6 183.85 104.85 183.8 105.15 180.95 109.4 180.85 109.45 179.4 110.95 179.3 111.05 176.2 112.55 175.95 112.6 175.75 112.55 172.7 110.95 172.5 110.75 172.4 110.5 172.4 107.5 172.45 107.35 175.25 98.8 175.4 98.55 M195.75 81.4 L196.05 81.35 196.3 81.5 197.95 83.2 198.1 83.55 198.1 86.5 198.1 86.65 196.65 91.0 196.6 91.15 193.75 95.4 193.65 95.45 189.55 99.55 186.25 109.4 187.75 110.9 190.05 110.9 192.6 109.65 193.8 108.45 196.6 104.3 196.8 104.1 198.55 98.8 198.7 98.55 199.0 98.45 200.4 98.45 200.6 98.5 201.25 98.8 201.5 99.05 201.55 99.4 198.75 107.65 198.75 110.0 199.65 110.9 200.55 110.9 203.1 109.65 205.7 107.05 208.45 102.9 209.8 98.8 209.95 98.55 210.25 98.45 211.65 98.45 211.85 98.5 212.5 98.8 212.75 99.05 212.8 99.4 210.0 107.65 210.0 110.0 210.75 110.7 212.9 109.65 214.15 108.45 216.9 104.3 Q217.0 104.1 217.2 104.1 L217.25 104.1 219.9 100.05 222.65 94.55 226.85 82.0 227.0 81.75 227.3 81.65 228.65 81.65 228.8 81.7 229.45 81.9 Q229.6 81.9 229.7 82.05 L229.8 82.25 229.8 82.5 221.4 107.65 221.4 110.0 222.15 110.7 Q223.2 110.2 224.3 109.65 L228.35 104.2 228.55 104.05 228.85 104.0 229.05 104.1 229.55 104.5 229.75 104.85 229.65 105.2 225.4 110.85 225.25 111.0 222.25 112.5 222.0 112.55 221.8 112.5 218.65 110.95 218.45 110.8 218.35 110.5 218.35 107.45 218.4 107.3 219.75 103.25 218.5 105.15 218.2 105.35 218.15 105.35 215.45 109.4 215.35 109.45 213.9 110.95 213.8 111.05 210.8 112.5 210.55 112.55 210.35 112.5 207.25 110.95 207.05 110.8 206.95 110.5 206.95 108.05 204.1 110.95 204.0 111.05 201.05 112.5 200.8 112.55 199.2 112.55 199.0 112.5 196.0 110.95 195.8 110.75 195.7 110.5 195.7 108.55 195.15 109.4 195.05 109.45 193.6 110.95 193.5 111.05 190.55 112.5 190.3 112.55 187.3 112.55 186.95 112.4 186.65 112.1 185.45 123.05 185.45 123.15 184.0 127.55 183.75 127.85 180.6 129.4 180.3 129.45 180.0 129.3 178.35 127.6 178.2 127.25 178.2 124.3 178.25 124.15 190.9 86.2 190.9 86.15 192.35 83.25 192.6 83.0 195.75 81.4 M193.7 84.3 L192.45 86.75 190.3 96.55 192.4 94.45 195.1 90.3 196.45 86.35 196.45 84.0 195.7 83.25 193.7 84.3 M202.85 144.9 Q203.0 144.9 203.1 145.05 L203.2 145.35 203.2 149.1 207.15 151.7 207.3 151.9 208.8 154.85 208.85 155.05 208.85 158.05 208.7 158.4 207.2 159.9 207.75 159.9 211.6 157.35 214.35 153.3 214.5 153.15 216.25 147.8 216.4 147.55 216.7 147.45 218.1 147.45 218.3 147.5 218.95 147.8 219.2 148.05 219.25 148.4 216.45 156.65 216.45 159.0 217.2 159.75 219.4 158.65 220.6 157.45 223.35 153.3 223.45 153.15 224.75 150.5 224.85 150.35 226.35 148.9 226.5 148.8 229.4 147.35 229.6 147.3 232.55 147.3 232.8 147.35 235.8 148.8 236.0 149.05 236.6 150.2 242.95 131.0 243.1 130.75 243.4 130.65 244.8 130.65 244.95 130.7 245.6 130.9 Q245.75 130.9 245.85 131.05 L245.95 131.25 245.95 131.5 237.55 156.65 237.55 159.0 238.3 159.75 240.45 158.65 241.7 157.45 244.45 153.3 244.75 153.1 245.1 153.1 245.65 153.4 245.85 153.6 245.9 153.9 245.85 154.15 243.0 158.4 242.9 158.45 241.45 159.95 241.35 160.05 238.3 161.55 238.05 161.6 237.8 161.55 237.65 161.45 234.8 159.95 234.6 159.8 234.4 160.0 231.45 161.5 231.2 161.55 228.2 161.55 228.0 161.5 225.05 160.0 224.8 159.8 223.3 156.85 223.25 156.6 223.25 156.4 221.95 158.4 221.85 158.45 220.4 159.95 220.3 160.05 217.2 161.55 216.95 161.6 216.75 161.55 213.7 159.95 213.5 159.75 213.4 159.5 213.4 157.65 212.9 158.45 212.75 158.6 208.35 161.5 208.05 161.55 200.9 161.55 200.7 161.5 197.85 160.05 197.65 159.9 197.55 159.65 197.6 159.35 197.9 158.8 Q198.0 158.65 198.2 158.6 L198.6 158.6 201.2 159.9 203.45 159.9 205.75 157.6 205.75 155.35 204.5 152.8 201.7 150.0 201.65 149.95 198.9 154.15 198.6 154.35 198.5 154.35 195.85 158.4 195.75 158.45 194.3 159.95 194.2 160.05 191.1 161.55 190.85 161.6 190.65 161.55 187.6 159.95 187.4 159.75 187.3 159.5 187.3 156.5 187.35 156.35 188.7 152.25 188.7 149.85 187.8 148.95 186.95 148.95 184.4 150.3 181.85 152.8 179.1 161.0 178.9 161.25 178.6 161.35 177.2 161.35 177.05 161.35 176.4 161.1 176.1 160.85 176.1 160.45 178.85 152.25 178.85 149.85 178.15 149.15 176.05 150.15 173.4 154.2 173.05 154.4 172.7 154.35 172.15 154.0 171.95 153.8 171.9 153.55 172.0 153.3 174.9 149.05 175.1 148.85 178.1 147.35 178.3 147.3 178.55 147.35 181.65 148.85 181.85 149.05 181.9 149.3 181.9 150.35 183.35 148.9 183.5 148.8 186.4 147.35 186.6 147.3 188.2 147.3 188.45 147.35 191.5 148.85 191.7 149.05 191.75 149.3 191.75 152.35 191.75 152.5 190.35 156.7 190.25 159.0 191.05 159.75 193.25 158.65 194.5 157.45 197.25 153.3 Q197.35 153.1 197.55 153.1 L197.65 153.05 200.3 149.1 202.25 145.15 202.5 144.9 202.85 144.9 M222.05 142.15 L222.2 142.5 222.05 142.85 220.2 144.7 219.85 144.85 219.5 144.7 217.65 142.85 217.5 142.5 217.65 142.15 219.5 140.3 219.85 140.15 220.2 140.3 222.05 142.15 M184.9 113.05 L179.85 124.5 179.85 126.85 180.6 127.55 182.55 126.55 183.8 122.75 184.9 113.05 M175.3 132.1 L171.75 132.1 166.4 133.45 163.9 134.7 162.65 137.1 162.65 139.5 163.9 141.9 166.3 143.05 169.0 143.05 170.95 138.0 171.0 137.9 173.85 133.6 173.9 133.5 175.3 132.1 M178.4 130.6 L178.55 130.95 178.4 131.3 175.2 134.55 173.8 137.25 172.1 142.45 174.05 141.8 176.7 139.1 Q176.85 138.95 177.05 138.95 L177.4 139.1 177.9 139.6 178.05 139.85 178.05 140.1 177.9 140.3 175.0 143.1 174.85 143.25 171.45 144.4 168.25 154.0 168.2 154.1 166.8 156.95 166.7 157.05 163.75 159.95 163.55 160.1 159.25 161.55 159.1 161.55 156.1 161.55 155.75 161.4 154.15 159.8 154.0 159.45 154.0 156.4 Q154.0 156.2 154.15 156.05 L155.9 154.3 156.15 154.2 156.4 154.2 156.65 154.3 158.45 156.2 158.55 156.55 158.4 156.9 156.8 158.5 156.45 158.65 156.1 158.5 155.65 158.05 155.65 159.0 156.55 159.9 158.85 159.9 161.3 158.7 163.95 154.7 163.9 154.75 168.4 144.7 166.0 144.7 165.8 144.65 162.8 143.2 162.55 143.0 161.05 140.0 161.0 139.75 161.0 136.8 161.05 136.6 162.55 133.6 162.8 133.35 165.75 131.9 165.85 131.9 171.5 130.5 171.6 130.45 178.05 130.45 Q178.25 130.45 178.4 130.6 M171.7 189.3 Q171.85 189.15 172.05 189.15 L172.4 189.3 174.25 191.15 174.4 191.5 174.25 191.85 172.4 193.7 172.05 193.85 171.7 193.7 169.85 191.85 169.7 191.5 169.85 191.15 171.7 189.3 M168.6 196.55 L168.9 196.45 170.3 196.45 170.5 196.5 171.15 196.8 171.4 197.05 171.45 197.4 168.65 205.65 168.65 208.0 169.4 208.75 171.6 207.65 172.8 206.45 174.65 203.6 174.65 202.65 174.7 202.45 176.15 199.5 176.25 199.35 177.75 197.9 177.9 197.8 180.8 196.35 181.0 196.3 184.0 196.3 184.35 196.45 185.95 198.05 186.1 198.4 186.1 200.2 185.95 200.55 185.6 200.7 183.15 200.7 182.8 200.55 182.65 200.2 Q182.65 200.0 182.8 199.85 L184.15 198.5 183.6 197.9 181.4 197.9 179.0 200.4 177.7 202.95 177.7 206.6 180.0 208.9 183.65 208.9 187.5 206.35 189.25 203.7 189.25 202.65 189.3 202.45 190.75 199.5 190.85 199.35 192.35 197.9 192.5 197.8 195.4 196.35 195.6 196.3 198.55 196.3 198.8 196.35 201.8 197.8 202.0 198.05 202.55 199.2 203.35 196.8 203.5 196.55 203.8 196.45 205.2 196.45 205.4 196.5 206.05 196.8 206.3 197.05 206.35 197.4 203.55 205.65 203.55 208.0 204.3 208.75 206.45 207.65 207.7 206.45 210.45 202.3 Q210.55 202.1 210.75 202.1 L210.85 202.05 213.5 198.05 216.25 192.55 220.45 180.0 220.6 179.75 220.9 179.65 222.25 179.65 222.4 179.7 223.05 179.9 223.3 180.05 223.4 180.25 223.4 180.5 215.0 205.65 215.0 208.0 215.75 208.7 217.9 207.65 221.95 202.2 222.15 202.05 222.45 202.0 222.65 202.1 223.15 202.5 223.35 202.85 223.25 203.2 219.0 208.85 218.85 209.0 215.85 210.5 215.6 210.55 215.4 210.5 212.25 208.95 212.05 208.8 211.95 208.5 211.95 205.45 212.0 205.3 213.35 201.25 212.1 203.15 211.8 203.35 211.7 203.35 209.0 207.4 208.9 207.45 207.45 208.95 207.35 209.05 204.3 210.55 204.05 210.6 203.8 210.55 203.65 210.45 200.8 208.95 200.6 208.8 200.4 209.0 197.45 210.5 197.2 210.55 194.15 210.55 193.85 210.45 191.05 209.0 190.8 208.8 189.55 206.3 188.8 207.45 188.65 207.6 184.25 210.5 183.95 210.55 179.5 210.5 179.3 210.45 176.45 209.0 176.2 208.8 174.9 206.25 174.15 207.4 174.05 207.45 172.6 208.95 172.5 209.05 169.4 210.55 169.15 210.6 168.95 210.55 165.9 208.95 165.7 208.75 165.6 208.5 165.6 205.5 165.65 205.35 165.65 205.3 164.25 207.45 164.1 207.6 159.8 210.45 159.75 210.45 156.65 212.0 155.95 214.2 155.9 214.3 150.2 225.65 150.0 225.85 146.9 227.4 146.6 227.45 146.3 227.3 144.65 225.6 144.5 225.25 144.5 222.3 144.55 222.15 146.0 217.85 146.1 217.65 149.0 214.75 149.1 214.7 153.6 211.7 154.3 209.7 152.7 210.5 152.45 210.55 149.45 210.55 149.25 210.5 146.3 209.0 146.05 208.8 144.55 205.85 144.5 205.6 144.5 204.05 142.8 204.9 142.55 204.95 140.85 204.95 140.6 204.9 140.4 204.7 138.85 201.6 138.8 201.35 138.85 201.15 138.85 198.45 137.35 199.25 134.8 201.8 132.05 210.0 131.85 210.25 131.55 210.35 130.15 210.35 130.0 210.35 129.35 210.1 129.05 209.85 129.05 209.45 131.8 201.25 131.8 198.85 131.1 198.15 129.0 199.15 126.8 202.5 126.9 202.6 126.95 202.9 126.9 203.15 124.05 207.4 123.95 207.45 122.5 208.95 122.4 209.05 119.4 210.5 119.15 210.55 118.95 210.5 115.85 208.95 115.65 208.8 115.55 208.5 115.55 206.05 112.7 208.95 112.6 209.05 109.65 210.5 109.4 210.55 107.8 210.55 107.6 210.5 104.6 208.95 104.4 208.75 104.3 208.5 104.3 205.5 104.35 205.35 107.15 196.8 Q107.15 196.65 107.3 196.55 L107.6 196.45 109.0 196.45 109.2 196.5 109.85 196.8 110.1 197.05 110.15 197.4 107.35 205.65 107.35 208.0 108.25 208.9 109.15 208.9 111.7 207.65 114.3 205.05 117.05 200.9 118.4 196.8 Q118.4 196.65 118.55 196.55 L118.85 196.45 120.25 196.45 120.45 196.5 121.1 196.8 121.35 197.05 121.4 197.4 118.6 205.65 118.6 208.0 119.35 208.7 Q120.4 208.15 121.5 207.65 L122.75 206.45 125.05 202.95 124.85 202.65 124.95 202.3 127.85 198.05 128.05 197.85 131.05 196.35 131.25 196.3 131.5 196.35 134.6 197.85 134.8 198.05 134.85 198.3 134.85 199.35 136.3 197.9 136.45 197.8 139.35 196.35 139.55 196.3 141.5 196.3 141.8 196.4 142.0 196.65 142.0 196.95 140.6 201.2 141.6 203.3 142.25 203.3 144.75 202.1 146.0 199.5 146.1 199.35 147.6 197.9 147.75 197.8 150.65 196.35 150.85 196.3 153.8 196.3 154.05 196.35 157.05 197.8 157.25 198.05 157.8 199.2 158.6 196.8 158.75 196.55 159.05 196.45 160.45 196.45 160.65 196.5 161.3 196.8 161.55 197.05 161.6 197.4 157.4 209.8 158.95 209.05 163.0 206.35 165.7 202.3 Q165.8 202.1 166.0 202.1 L166.35 202.1 166.65 202.25 168.45 196.8 168.6 196.55 M196.0 197.9 L193.6 200.4 192.3 202.95 192.3 206.6 194.6 208.9 196.9 208.9 199.3 207.75 200.55 205.2 201.8 201.4 200.7 199.15 198.3 197.9 196.0 197.9 M234.7 150.15 L232.3 148.9 230.0 148.9 227.6 151.4 226.3 153.95 226.3 157.6 228.6 159.9 230.9 159.9 233.3 158.75 234.55 156.2 235.8 152.4 234.7 150.15 M252.3 147.3 L253.9 147.3 254.25 147.45 255.9 149.05 256.05 149.4 256.05 152.4 256.0 152.65 254.55 155.55 254.45 155.65 252.95 157.15 252.85 157.25 250.05 158.65 251.3 159.9 254.95 159.9 258.8 157.35 261.55 153.3 261.85 153.1 262.2 153.1 262.75 153.4 262.95 153.6 263.0 153.9 262.95 154.15 260.1 158.45 259.95 158.6 255.55 161.5 255.25 161.55 250.9 161.55 250.7 161.5 247.75 160.0 247.5 159.8 246.0 156.85 245.95 156.6 245.95 153.65 246.0 153.45 247.45 150.5 247.55 150.35 249.05 148.9 249.2 148.8 252.1 147.35 252.3 147.3 M253.45 148.9 L252.7 148.9 250.3 151.4 249.0 153.95 249.0 157.35 249.2 157.2 Q250.55 156.5 251.95 155.85 L253.1 154.65 254.4 152.1 254.4 149.8 253.45 148.9 M91.3 84.5 L92.75 83.1 89.25 83.1 85.3 84.4 82.6 85.8 80.0 88.35 78.7 90.9 78.7 93.15 79.6 94.05 81.8 94.05 82.8 93.05 84.15 90.3 84.35 90.1 84.6 90.0 84.85 90.1 85.45 90.45 85.7 90.7 85.65 91.1 84.25 93.95 84.15 94.1 82.55 95.6 82.2 95.7 79.2 95.7 78.85 95.55 77.2 93.95 77.05 93.6 77.05 90.6 77.1 90.4 78.55 87.5 78.65 87.35 81.55 84.45 81.7 84.35 84.6 82.95 84.65 82.95 88.9 81.5 89.05 81.45 97.6 81.45 97.85 81.5 100.8 83.0 101.0 83.25 102.5 86.2 102.55 86.4 102.55 89.35 102.5 89.6 101.0 92.55 100.8 92.75 97.9 94.25 97.8 94.3 94.9 95.0 96.45 95.55 96.65 95.65 98.15 97.15 98.25 97.3 99.7 100.2 99.75 100.4 99.75 104.75 99.75 104.9 98.3 109.2 98.2 109.4 96.75 110.95 96.6 111.05 Q95.1 111.8 93.65 112.5 L93.4 112.55 90.4 112.55 90.05 112.4 88.45 110.8 88.3 110.45 88.3 107.5 88.35 107.35 89.75 103.05 89.9 102.85 90.15 102.7 90.4 102.75 91.05 103.0 91.3 103.25 91.35 103.6 89.95 107.65 89.95 110.0 90.85 110.9 93.0 110.9 95.4 108.5 96.7 104.6 96.7 100.75 95.45 98.2 94.25 97.0 91.75 95.7 89.75 95.7 87.1 105.0 87.05 105.1 85.65 107.95 85.55 108.05 82.6 110.95 82.4 111.1 78.1 112.55 77.95 112.55 74.95 112.55 74.6 112.4 73.0 110.8 72.85 110.45 72.85 107.4 73.0 107.05 74.75 105.3 Q74.9 105.15 75.1 105.15 L75.45 105.3 77.3 107.2 77.45 107.55 77.3 107.9 75.65 109.5 75.3 109.65 74.95 109.5 74.5 109.05 74.5 110.0 75.4 110.9 77.7 110.9 80.15 109.7 82.8 105.7 84.15 103.0 86.95 94.6 86.95 94.55 91.2 84.65 91.3 84.5 M93.9 84.25 L92.65 85.5 90.2 94.05 91.9 94.05 97.1 92.75 98.25 91.65 99.55 89.1 99.55 86.7 98.25 84.15 97.2 83.1 93.45 83.1 93.9 83.55 94.05 83.9 93.9 84.25 M74.5 107.85 L74.5 108.35 75.35 107.55 75.1 107.25 74.5 107.85 M53.4 147.35 L56.4 148.8 56.6 149.05 58.1 152.0 58.15 152.2 58.15 155.2 58.1 155.45 58.0 155.7 58.55 155.7 61.05 154.45 62.35 153.1 62.5 153.0 65.2 149.05 65.4 148.85 68.4 147.35 68.6 147.3 68.85 147.35 71.95 148.85 72.15 149.05 72.2 149.3 72.2 150.35 73.65 148.9 73.8 148.8 76.7 147.35 76.9 147.3 78.5 147.3 78.75 147.35 81.8 148.85 82.0 149.05 82.05 149.3 82.05 152.35 82.05 152.5 80.65 156.7 80.55 159.0 81.35 159.75 83.55 158.65 84.8 157.45 87.55 153.3 87.85 153.1 88.2 153.1 88.75 153.4 88.95 153.6 89.0 153.9 88.95 154.15 86.15 158.4 86.05 158.45 84.6 159.95 84.5 160.05 81.4 161.55 81.15 161.6 80.95 161.55 77.9 159.95 77.7 159.75 77.6 159.5 77.6 156.5 77.65 156.35 79.0 152.25 79.0 149.85 78.1 148.95 77.25 148.95 74.7 150.3 72.15 152.8 69.4 161.0 69.2 161.25 68.9 161.35 67.5 161.35 67.35 161.35 66.7 161.1 66.4 160.85 66.4 160.45 69.15 152.25 69.15 149.85 68.45 149.15 66.35 150.15 63.7 154.2 63.45 154.4 62.05 155.75 61.95 155.85 59.05 157.3 58.8 157.35 57.15 157.35 56.65 158.35 56.55 158.45 55.05 159.95 54.95 160.05 52.05 161.5 51.8 161.55 48.8 161.55 48.6 161.5 45.65 160.0 45.4 159.8 43.9 156.85 43.85 156.6 43.85 153.65 43.9 153.45 45.35 150.5 45.45 150.35 46.95 148.9 47.1 148.8 50.0 147.35 50.2 147.3 53.15 147.3 53.4 147.35 M53.7 154.5 L56.1 155.7 56.5 154.95 56.5 152.55 55.3 150.15 53.25 149.1 52.5 149.9 52.3 152.1 53.7 154.5 M50.85 149.35 Q50.85 149.15 51.0 149.0 L51.1 148.9 50.6 148.9 48.2 151.4 46.9 153.95 46.9 157.6 49.2 159.9 51.5 159.9 54.05 158.65 55.2 157.4 55.35 157.2 52.65 155.8 52.45 155.6 50.75 152.65 50.65 152.4 50.85 149.35 M129.4 101.15 L127.0 99.9 124.7 99.9 122.3 102.4 121.25 104.5 121.35 104.6 121.4 104.9 121.35 105.15 121.0 105.65 121.0 108.6 123.3 110.9 125.6 110.9 Q126.8 110.3 128.0 109.75 L129.25 107.2 130.5 103.4 129.4 101.15 M136.1 147.3 L137.7 147.3 Q137.9 147.3 138.05 147.45 L139.7 149.05 139.85 149.4 139.85 152.4 139.8 152.65 138.35 155.55 138.25 155.65 136.75 157.15 136.65 157.25 133.85 158.65 135.1 159.9 138.75 159.9 142.6 157.35 145.35 153.3 Q145.45 153.1 145.65 153.1 L146.0 153.1 146.55 153.4 146.75 153.6 146.8 153.9 146.75 154.15 143.9 158.45 143.75 158.6 139.35 161.5 139.05 161.55 134.7 161.55 134.5 161.5 131.55 160.0 131.3 159.8 129.8 156.85 129.75 156.6 129.75 156.35 128.4 158.4 128.3 158.45 126.85 159.95 126.75 160.05 123.75 161.5 123.5 161.55 123.3 161.5 120.15 159.95 119.95 159.8 119.85 159.5 119.85 156.45 119.9 156.3 121.3 152.15 121.3 149.8 120.4 148.9 119.5 148.9 117.0 150.2 114.4 152.75 111.7 161.0 111.5 161.25 111.2 161.35 109.8 161.35 109.65 161.35 109.0 161.1 108.7 160.85 108.7 160.45 111.45 152.3 110.2 154.15 109.9 154.35 109.85 154.35 105.7 159.85 105.55 160.0 102.55 161.5 102.3 161.55 102.1 161.5 98.95 159.95 98.75 159.8 98.65 159.5 98.65 156.45 98.7 156.3 100.05 152.25 98.8 154.15 98.5 154.35 98.1 154.3 97.55 154.0 97.4 153.8 97.3 153.55 97.4 153.3 100.2 149.05 102.95 143.55 103.05 143.3 100.9 143.3 100.55 143.15 100.4 142.8 100.4 142.15 100.55 141.8 Q100.7 141.65 100.9 141.65 L103.55 141.65 107.15 131.0 Q107.15 130.85 107.3 130.75 L107.6 130.65 108.95 130.65 109.1 130.7 109.75 130.9 110.0 131.05 110.1 131.25 110.1 131.5 106.7 141.65 109.3 141.65 109.65 141.8 109.8 142.15 109.8 142.8 109.65 143.15 109.3 143.3 106.15 143.3 101.7 156.65 101.7 159.0 102.45 159.7 Q103.5 159.2 104.6 158.65 L108.65 153.2 108.85 153.05 108.95 153.05 111.6 149.05 114.35 143.55 118.55 131.0 Q118.55 130.85 118.7 130.75 L119.0 130.65 120.35 130.65 120.5 130.7 121.15 130.9 121.4 131.05 121.5 131.25 121.5 131.5 115.55 149.35 115.95 148.9 116.1 148.8 119.0 147.35 119.2 147.3 120.9 147.3 121.15 147.35 124.1 148.85 124.3 149.05 124.35 149.3 124.35 152.35 124.35 152.5 122.95 156.65 122.95 159.0 123.7 159.7 125.85 158.65 127.1 157.45 129.85 153.3 129.95 153.15 131.25 150.5 131.35 150.35 132.85 148.9 133.0 148.8 135.9 147.35 136.1 147.3 M111.85 99.9 L111.1 99.9 108.7 102.4 107.4 104.95 107.4 108.35 107.6 108.2 110.35 106.85 111.5 105.65 112.8 103.1 112.8 100.8 111.85 99.9 M97.6 185.55 L99.0 182.65 99.1 182.5 100.55 181.05 100.7 180.95 103.65 179.5 103.85 179.45 105.45 179.45 105.8 179.6 107.4 181.2 107.55 181.55 107.55 183.1 107.55 183.25 106.1 187.6 105.95 187.8 101.7 192.1 101.6 192.2 98.7 193.65 98.6 193.7 97.7 193.95 96.35 201.5 96.35 201.55 94.9 205.85 94.75 206.05 91.8 208.95 91.6 209.1 87.35 210.55 87.2 210.55 82.8 210.55 82.6 210.5 79.65 209.0 79.4 208.8 77.9 205.85 77.85 205.6 77.85 204.0 78.0 203.65 79.75 201.95 Q79.9 201.8 80.1 201.8 L80.45 201.95 82.25 203.75 82.4 204.1 82.25 204.45 80.65 206.1 80.45 206.25 80.15 206.25 79.95 206.1 79.8 205.95 80.7 207.75 Q81.9 208.3 83.1 208.9 L86.9 208.9 89.35 207.7 92.0 203.7 94.9 194.9 94.3 195.1 94.15 195.1 89.85 195.1 89.65 195.05 86.65 193.6 86.4 193.4 84.9 190.4 84.85 190.15 84.85 187.2 84.9 187.0 86.35 184.1 86.55 183.9 86.8 183.8 87.05 183.9 87.65 184.25 87.9 184.5 87.85 184.9 86.5 187.5 86.5 189.9 87.75 192.3 90.15 193.5 93.95 193.5 95.45 192.95 97.6 185.6 97.6 185.55 M100.65 190.8 L104.65 186.9 105.95 183.0 105.95 182.0 105.0 181.1 104.15 181.1 101.65 182.4 100.45 183.55 99.15 186.15 98.0 192.15 100.65 190.8 M155.65 156.85 L155.65 157.35 156.5 156.55 156.25 156.25 155.65 156.85 M137.25 148.9 L136.5 148.9 134.1 151.4 132.8 153.95 132.8 157.35 133.0 157.2 Q134.35 156.5 135.75 155.85 L136.9 154.65 138.2 152.1 138.2 149.8 137.25 148.9 M151.25 197.9 L148.85 200.4 147.55 202.95 147.55 206.6 149.85 208.9 152.15 208.9 154.55 207.75 155.8 205.2 157.05 201.4 155.95 199.15 Q154.75 198.5 153.55 197.9 L151.25 197.9 M146.15 222.5 L146.15 224.85 146.9 225.55 148.95 224.55 150.2 222.05 152.85 214.15 150.05 216.0 147.45 218.55 146.15 222.5 M139.15 228.9 L139.4 229.05 139.5 229.25 139.5 229.5 136.1 239.65 138.7 239.65 139.05 239.8 139.2 240.15 139.2 240.8 139.05 241.15 138.7 241.3 135.55 241.3 131.1 254.65 131.1 257.0 131.85 257.7 Q132.9 257.2 134.0 256.65 L138.05 251.2 138.25 251.05 138.55 251.0 138.75 251.1 139.25 251.5 139.45 251.85 139.35 252.2 135.1 257.85 134.95 258.0 131.95 259.5 131.7 259.55 131.5 259.5 128.35 257.95 128.15 257.8 128.05 257.5 128.05 254.45 128.1 254.3 129.45 250.25 128.2 252.15 127.9 252.35 127.75 252.35 127.65 252.45 124.75 253.9 124.5 253.95 122.8 253.95 122.55 253.9 122.35 253.7 120.8 250.6 120.75 250.35 120.8 250.15 120.8 247.45 119.3 248.25 116.75 250.8 114.0 259.0 113.8 259.25 113.5 259.35 112.1 259.35 111.95 259.35 111.3 259.1 111.0 258.85 111.0 258.45 113.75 250.25 113.75 247.85 113.05 247.15 110.95 248.15 108.3 252.2 107.95 252.4 107.6 252.35 107.05 252.0 106.85 251.8 106.8 251.55 106.9 251.3 109.8 247.05 110.0 246.85 113.0 245.35 113.2 245.3 113.45 245.35 116.55 246.85 116.75 247.05 116.8 247.3 116.8 248.35 118.25 246.9 118.4 246.8 121.3 245.35 121.5 245.3 123.45 245.3 123.75 245.4 123.95 245.65 123.95 245.95 122.55 250.2 123.55 252.3 124.2 252.3 126.85 251.0 127.0 250.95 129.6 247.05 132.35 241.55 132.45 241.3 130.3 241.3 129.95 241.15 129.8 240.8 129.8 240.15 129.95 239.8 Q130.1 239.65 130.3 239.65 L132.95 239.65 136.55 229.0 Q136.55 228.85 136.7 228.75 L137.0 228.65 138.35 228.65 138.5 228.7 139.15 228.9 M144.3 245.35 L145.7 245.35 Q145.9 245.35 146.05 245.5 L146.55 246.0 146.7 246.25 146.7 246.5 146.55 246.7 143.85 249.35 142.55 253.25 142.55 257.0 143.45 257.9 144.35 257.9 146.9 256.65 146.95 256.6 149.45 254.4 152.2 245.85 152.35 245.6 Q152.45 245.5 152.65 245.5 L154.05 245.45 154.25 245.5 154.9 245.8 155.15 246.05 155.2 246.4 152.4 254.65 152.4 257.0 153.25 257.9 154.2 257.9 156.7 256.65 159.3 254.1 160.55 250.2 160.55 246.1 160.7 245.75 161.05 245.6 161.7 245.6 162.0 245.7 162.2 246.0 163.5 251.3 164.5 252.3 165.4 252.3 166.75 251.6 166.8 251.45 168.25 248.5 168.35 248.35 169.85 246.9 170.0 246.8 172.9 245.35 173.1 245.3 176.05 245.3 176.3 245.35 179.3 246.8 179.5 247.05 181.0 250.0 181.05 250.2 181.05 253.2 181.0 253.45 180.9 253.7 181.45 253.7 183.95 252.45 184.45 251.9 184.35 251.8 184.3 251.55 184.4 251.3 187.3 247.05 187.5 246.85 190.5 245.35 190.7 245.3 190.95 245.35 194.05 246.85 194.25 247.05 194.3 247.3 194.3 248.35 195.75 246.9 195.9 246.8 198.8 245.35 199.0 245.3 200.95 245.3 201.25 245.4 201.45 245.65 201.45 245.95 200.05 250.2 201.05 252.3 201.7 252.3 203.35 251.5 203.45 251.3 206.25 247.1 209.0 241.55 213.2 229.0 213.35 228.75 213.65 228.65 215.0 228.65 215.15 228.7 215.8 228.9 216.05 229.05 216.15 229.25 216.15 229.5 209.65 249.05 212.15 248.2 214.9 245.45 Q215.05 245.3 215.25 245.3 L216.9 245.3 Q217.1 245.3 217.25 245.45 L219.25 247.5 219.4 247.85 219.25 248.2 218.9 248.35 216.45 248.35 216.1 248.2 215.95 247.85 215.95 246.9 215.65 246.9 213.05 249.55 212.85 249.7 210.95 250.3 213.0 251.0 213.25 251.15 213.35 251.35 214.65 256.9 215.65 257.9 216.5 257.9 220.35 255.35 223.1 251.3 Q223.2 251.1 223.4 251.1 L223.75 251.1 224.3 251.4 224.5 251.6 224.55 251.9 224.5 252.15 221.65 256.45 221.5 256.6 217.15 259.5 216.85 259.55 215.25 259.55 215.05 259.5 212.05 258.0 211.85 257.85 211.8 257.7 210.45 252.3 208.85 251.5 206.35 259.0 206.15 259.25 205.85 259.35 204.45 259.35 204.3 259.35 203.65 259.1 203.35 258.85 203.35 258.45 206.1 250.25 205.2 251.55 205.35 251.75 205.4 252.0 205.35 252.25 205.15 252.45 202.25 253.9 202.0 253.95 200.3 253.95 200.05 253.9 199.85 253.7 198.3 250.6 198.25 250.35 198.3 250.15 198.3 247.45 196.8 248.25 194.25 250.8 191.5 259.0 191.3 259.25 191.0 259.35 189.6 259.35 189.45 259.35 188.8 259.1 188.5 258.85 188.5 258.45 191.25 250.25 191.25 247.85 190.55 247.15 188.45 248.15 186.25 251.45 186.45 251.65 186.55 252.0 186.4 252.3 184.95 253.75 184.85 253.85 181.95 255.3 181.7 255.35 180.05 255.35 179.55 256.35 179.45 256.45 177.95 257.95 177.85 258.05 174.95 259.5 174.7 259.55 171.7 259.55 171.5 259.5 168.55 258.0 168.3 257.8 166.8 254.85 166.75 254.6 166.75 253.5 165.9 253.9 165.65 253.95 164.05 253.95 163.7 253.8 162.15 252.2 162.05 252.0 161.9 251.4 160.75 254.85 160.6 255.05 157.7 257.95 157.6 258.05 154.7 259.5 154.45 259.55 152.85 259.55 152.65 259.5 149.6 257.95 149.4 257.75 149.3 257.5 149.3 256.7 147.9 258.0 147.8 258.05 144.85 259.5 144.6 259.55 143.0 259.55 142.7 259.45 139.8 257.95 139.6 257.75 139.5 257.5 139.5 253.1 139.55 252.95 141.0 248.6 141.1 248.4 143.95 245.5 Q144.1 245.35 144.3 245.35 M86.05 245.6 L87.7 244.0 Q87.85 243.85 88.05 243.85 L91.05 243.85 91.3 243.9 93.15 244.85 101.55 231.6 101.6 231.5 105.25 227.85 105.55 227.7 105.85 227.8 106.05 228.0 106.1 228.35 105.8 229.5 105.8 229.45 101.75 257.9 102.0 257.9 104.6 256.6 104.95 256.6 Q105.1 256.6 105.25 256.8 L105.6 257.35 105.65 257.6 105.6 257.85 105.4 258.05 102.5 259.5 102.25 259.55 96.5 259.55 96.35 259.55 92.05 258.1 91.85 257.95 88.15 254.25 84.5 257.95 84.4 258.05 81.45 259.5 81.2 259.55 78.2 259.55 77.85 259.4 76.25 257.8 76.1 257.45 76.1 254.4 76.25 254.05 77.95 252.3 Q78.1 252.15 78.3 252.15 78.5 252.15 78.65 252.3 L80.55 254.2 80.7 254.55 80.55 254.9 78.9 256.5 78.55 256.65 78.2 256.5 77.75 256.05 77.75 257.0 78.65 257.9 80.95 257.9 Q82.2 257.25 83.5 256.65 L87.25 252.95 85.95 249.1 85.9 248.95 85.9 245.95 86.05 245.6 M87.55 246.45 L87.55 248.8 88.45 251.4 92.2 246.25 90.75 245.5 88.45 245.5 87.55 246.45 M102.85 232.55 L94.55 245.7 97.2 248.35 97.35 248.5 99.15 252.95 103.6 231.8 102.85 232.55 M98.55 257.9 L98.55 256.05 97.25 252.1 95.9 249.4 93.6 247.1 89.25 253.05 92.8 256.65 96.7 257.9 98.55 257.9 M80.1 203.85 L79.5 204.45 79.5 204.9 80.35 204.1 80.1 203.85 M77.75 255.35 L78.6 254.55 78.3 254.25 77.75 254.85 77.75 255.35 M173.9 247.0 L174.0 246.9 173.5 246.9 171.1 249.4 169.8 251.95 169.8 255.6 172.1 257.9 174.4 257.9 176.95 256.65 178.1 255.4 178.25 255.2 175.55 253.8 175.35 253.6 173.65 250.65 173.55 250.4 173.75 247.35 173.9 247.0 M178.2 248.15 L176.15 247.1 175.4 247.9 175.2 250.1 176.6 252.5 179.0 253.7 179.4 252.95 179.4 250.55 178.2 248.15" fill="#ffffff" fill-rule="evenodd" stroke="none"/>
    </g>
  </defs>
</svg>
