<?xml version="1.0" encoding="UTF-8" standalone="no"?>
<svg xmlns:xlink="http://www.w3.org/1999/xlink" height="300.0px" width="300.0px" xmlns="http://www.w3.org/2000/svg">
  <g transform="matrix(1.0, 0.0, 0.0, 1.0, 0.0, 0.0)">
    <use height="281.2" transform="matrix(0.5269, 0.0, 0.0, 0.5269, -5.0134, 74.8904)" width="589.0" xlink:href="#sprite0"/>
  </g>
  <defs>
    <g id="sprite0" transform="matrix(1.0, 0.0, 0.0, 1.0, 294.5, 154.8)">
      <use height="281.2" transform="matrix(1.0, 0.0, 0.0, 1.0, -294.5, -154.8)" width="589.0" xlink:href="#shape0"/>
    </g>
    <g id="shape0" transform="matrix(1.0, 0.0, 0.0, 1.0, 294.5, 154.8)">
      <path d="M-273.55 -66.2 Q-271.8 -67.55 -271.75 -65.95 -273.8 -63.05 -272.85 -57.7 -272.35 -54.75 -270.85 -49.7 -269.45 -50.55 -268.1 -53.15 L-265.85 -57.1 Q-265.85 -53.75 -267.1 -50.65 L-269.35 -45.45 Q-267.75 -45.5 -266.7 -47.8 -265.5 -50.5 -264.6 -50.9 -264.2 -48.4 -266.8 -45.35 -269.0 -42.75 -267.9 -41.25 -267.65 -43.55 -265.5 -43.95 -267.65 -40.25 -266.55 -36.05 -256.35 -31.5 -251.8 -23.8 -246.3 -14.55 -255.1 -7.35 -256.35 -6.85 -258.1 -8.35 -259.45 -9.45 -260.05 -8.0 -260.6 -4.9 -257.7 -4.05 -255.1 -3.25 -250.8 -4.5 -246.55 -5.75 -243.05 -8.3 -239.2 -11.05 -238.1 -14.2 -236.65 -18.3 -237.75 -23.5 -238.3 -25.85 -240.75 -32.7 -241.5 -33.15 -243.5 -33.5 L-246.7 -34.1 Q-250.3 -35.25 -248.9 -39.8 -247.4 -38.4 -243.55 -37.25 L-237.4 -35.3 -234.05 -23.6 Q-232.0 -16.55 -232.5 -10.5 -234.15 -7.6 -239.0 -4.65 L-247.65 0.7 Q-258.3 8.05 -256.7 20.7 -256.35 23.45 -251.35 29.8 -246.35 36.1 -246.0 39.2 -245.15 46.5 -250.15 60.45 -255.55 75.4 -255.55 82.35 -255.55 95.5 -248.3 106.0 -242.35 114.75 -232.25 120.6 -234.5 118.45 -235.0 113.8 L-235.15 105.0 Q-235.2 99.6 -236.25 96.9 -237.7 93.15 -241.7 92.2 -243.55 92.25 -245.95 94.25 -248.3 96.15 -250.3 96.1 -249.55 91.2 -245.25 89.05 -241.5 87.15 -236.15 87.85 -231.05 88.55 -227.1 91.2 -222.9 94.0 -222.25 97.7 -221.5 95.9 -216.35 89.6 -212.55 85.0 -213.0 80.75 -206.8 86.65 -206.15 94.7 -205.55 101.8 -209.3 109.15 -212.85 116.05 -218.8 120.7 -224.9 125.5 -230.9 125.85 -241.05 126.45 -250.1 120.65 -258.5 115.3 -264.9 105.15 -271.0 95.4 -274.1 83.15 -277.25 70.8 -276.7 58.45 -276.45 52.4 -275.45 42.55 -274.5 33.25 -274.35 29.25 -273.95 15.6 -279.85 4.6 -282.9 10.5 -285.5 13.5 -289.1 17.65 -293.8 18.95 -295.4 10.25 -293.45 -1.25 -291.6 -12.35 -288.3 -15.65 -286.05 -13.5 -286.35 -10.55 -286.55 -8.7 -288.2 -4.8 -290.0 -0.6 -290.4 1.55 -291.05 5.25 -289.4 8.4 -286.9 6.85 -284.25 1.15 -281.55 -4.8 -279.4 -6.45 -270.75 -5.25 -267.5 -12.95 -269.55 -14.9 -272.15 -18.3 L-276.4 -23.95 Q-281.7 -30.6 -288.15 -32.75 L-284.8 -32.7 Q-283.65 -32.55 -283.05 -33.1 L-287.25 -35.9 Q-289.85 -37.85 -288.35 -38.85 -287.95 -36.7 -285.65 -36.5 L-287.65 -39.15 Q-288.8 -41.15 -287.0 -41.7 -287.75 -39.95 -285.4 -38.7 -283.05 -37.45 -282.3 -39.05 -282.75 -40.3 -286.75 -45.25 -289.8 -49.0 -288.8 -51.0 L-286.75 -47.45 Q-285.15 -45.25 -284.35 -46.4 -287.25 -50.75 -288.0 -52.7 -289.8 -57.1 -287.65 -59.95 L-286.85 -57.45 Q-286.15 -56.15 -284.1 -56.45 -282.95 -60.0 -283.9 -64.5 -284.15 -65.8 -283.9 -65.95 -283.6 -66.1 -281.95 -65.25 -281.9 -67.65 -284.15 -69.35 -286.95 -71.0 -288.1 -72.1 -286.6 -72.4 -283.65 -71.25 L-281.15 -71.2 Q-281.65 -71.25 -281.75 -71.7 -281.85 -72.15 -281.05 -72.2 -279.3 -70.9 -277.75 -68.0 L-275.1 -63.35 Q-275.3 -64.85 -273.55 -66.2" fill="#109c92" fill-rule="evenodd" stroke="none"/>
      <path d="M288.55 -35.85 Q293.2 -29.0 294.25 -21.35 295.35 -13.3 291.85 -7.55 287.95 -1.1 279.05 0.75 279.75 2.65 282.45 4.15 L287.25 6.5 286.65 10.35 Q286.15 12.2 285.15 13.0 283.1 35.85 281.55 47.0 278.6 68.7 273.9 84.05 260.95 126.1 233.2 126.4 225.2 126.5 217.7 122.55 210.5 118.75 206.1 112.55 201.5 106.15 201.6 99.5 201.65 92.15 207.45 86.35 208.0 89.5 211.25 93.4 214.8 97.75 215.6 100.0 216.55 97.15 219.85 94.9 223.1 92.75 227.1 92.1 236.85 90.55 239.7 97.95 234.4 95.1 231.6 96.5 229.35 97.7 228.2 102.2 L226.6 111.4 Q225.55 117.35 223.9 120.5 246.05 118.75 253.55 92.0 256.35 82.05 257.8 66.2 L259.85 38.65 Q263.6 35.15 268.15 28.55 268.2 23.9 265.7 18.5 262.35 11.2 261.9 9.5 259.9 10.2 260.5 12.8 261.25 16.2 260.75 17.25 260.15 14.85 259.7 14.55 259.35 14.3 258.85 15.4 256.95 19.35 255.8 19.95 255.2 19.3 255.4 18.0 L255.55 14.25 Q249.95 15.5 249.3 25.75 L247.95 22.7 Q247.4 22.1 246.6 28.75 245.65 27.95 245.6 25.5 L245.35 21.8 Q242.15 29.0 239.85 31.95 235.75 37.15 230.1 33.1 230.35 32.25 230.85 32.5 231.3 32.7 231.2 33.25 234.75 32.8 235.3 28.0 236.2 19.8 236.8 18.25 235.2 18.1 234.5 19.75 234.05 20.8 233.8 23.45 232.65 22.35 231.45 18.75 230.5 15.95 229.25 16.0 229.1 16.55 227.85 17.7 226.65 18.8 226.2 21.2 224.4 18.4 226.7 14.85 228.95 11.35 232.1 11.9 230.05 9.1 230.05 7.45 230.05 5.65 232.3 2.85 233.3 3.15 233.3 5.55 233.3 7.8 235.0 7.8 236.75 7.8 238.75 6.2 240.9 4.5 242.3 4.35 241.65 3.25 239.3 2.1 236.8 0.9 236.15 0.05 243.15 0.35 247.4 -5.35 249.9 -8.75 253.3 -18.05 256.6 -27.2 259.3 -30.6 263.65 -36.1 270.85 -35.55 L269.35 -37.4 Q268.25 -38.4 269.3 -40.35 272.1 -41.2 273.2 -42.25 L276.95 -46.0 Q283.7 -42.85 288.55 -35.85 M286.85 -28.65 Q286.55 -28.9 285.25 -33.65 284.3 -37.0 282.1 -35.05 282.7 -34.65 284.25 -30.45 285.4 -27.25 286.85 -28.65 M277.55 -11.95 L273.8 -12.35 Q272.05 -12.15 271.7 -10.55 278.75 -10.75 284.5 -13.15 283.8 -23.85 277.2 -32.35 L279.85 -22.3 Q280.5 -17.1 277.55 -11.95" fill="#109c92" fill-rule="evenodd" stroke="none"/>
      <path d="M43.75 -34.8 Q39.15 -34.4 37.0 -33.4 34.4 -32.2 31.7 -28.9 L27.15 -22.85 Q21.45 -15.45 14.85 -16.45 14.7 -18.95 16.45 -22.15 L19.55 -27.1 Q21.0 -29.6 20.3 -30.95 19.4 -32.6 14.85 -33.4 L-2.15 -34.35 Q-15.3 -34.65 -18.4 -34.15 -20.15 -33.85 -22.75 -32.0 -25.1 -30.35 -25.8 -30.45 -27.85 -34.1 -32.95 -37.0 -38.2 -40.05 -44.25 -40.8 L-49.35 -41.5 Q-50.15 -41.7 -54.6 -43.75 -60.1 -46.25 -61.95 -43.75 -63.85 -39.2 -66.4 -36.35 -68.55 -33.95 -70.95 -32.6 -73.15 -31.4 -76.75 -30.45 -71.45 -42.8 -78.45 -52.15 -80.8 -55.3 -85.55 -59.4 L-93.0 -65.9 Q-85.4 -65.55 -78.45 -63.5 -70.6 -61.1 -65.65 -57.05 L-63.15 -53.85 Q-61.5 -51.5 -60.5 -51.15 -58.25 -50.4 -54.05 -51.65 L-47.95 -53.35 Q-47.1 -53.45 -45.75 -52.75 -44.3 -51.95 -43.5 -51.9 -40.8 -51.6 -34.15 -53.05 L-22.85 -55.55 -10.9 -57.0 Q-3.85 -57.8 -2.15 -59.25 -0.55 -60.6 -0.15 -65.3 0.35 -71.3 0.8 -72.55 5.5 -73.7 8.75 -68.25 L11.4 -63.8 Q13.0 -61.45 14.85 -60.75 L18.9 -60.45 22.95 -60.75 Q38.6 -59.9 54.05 -57.5 71.2 -54.85 82.05 -51.15 72.0 -44.45 68.1 -42.3 59.8 -37.75 51.0 -35.65 L43.75 -34.8" fill="#000000" fill-rule="evenodd" stroke="none"/>
      <path d="M-129.45 49.6 Q-129.45 54.15 -134.1 59.45 -138.75 64.7 -142.55 64.7 -149.9 64.7 -153.25 60.15 -156.65 55.7 -157.5 49.25 -158.3 43.15 -158.3 32.8 L-157.4 -5.0 Q-157.4 -11.1 -157.75 -16.7 -175.9 19.45 -179.7 35.55 L-183.75 35.85 Q-189.05 24.1 -198.5 5.45 -207.3 -11.65 -209.8 -21.35 -210.7 -10.4 -210.7 4.15 -210.7 28.2 -208.15 55.35 L-195.05 56.15 -195.55 58.85 -225.5 57.75 -225.2 54.3 -211.25 55.35 Q-216.8 20.6 -216.25 -27.05 L-231.95 -26.45 Q-236.3 -25.75 -239.15 -22.7 -242.0 -19.55 -242.0 -14.45 -242.0 -10.6 -239.1 -8.2 -236.3 -5.75 -232.75 -5.75 -230.7 -5.75 -229.0 -6.8 -227.3 -7.85 -227.3 -9.15 -227.3 -9.9 -228.2 -10.9 -229.1 -11.85 -229.75 -11.85 -233.1 -11.85 -235.45 -9.15 -236.95 -10.1 -236.95 -11.45 -236.95 -13.25 -235.15 -14.6 -233.35 -15.95 -232.05 -15.95 -229.65 -15.95 -226.9 -13.9 -224.15 -11.85 -224.15 -9.45 -224.15 -6.2 -226.7 -3.45 -229.25 -0.75 -232.15 -0.75 -236.75 -0.75 -240.45 -4.65 -244.1 -8.6 -244.1 -15.25 -244.1 -20.45 -239.7 -25.1 -235.35 -29.6 -229.45 -29.6 L-214.45 -30.2 -200.85 -31.5 -199.9 -28.5 -207.6 -27.9 Q-200.8 -7.85 -179.3 22.25 -170.7 0.95 -165.9 -8.9 -160.75 -19.4 -157.6 -28.5 L-167.1 -30.05 -166.25 -32.9 Q-164.15 -32.15 -152.1 -30.7 L-132.0 -28.9 -132.7 -25.95 -146.5 -27.2 Q-147.1 -24.3 -149.7 4.5 -152.35 34.05 -152.35 47.55 -152.35 62.6 -144.2 62.6 -140.25 62.6 -137.4 59.3 -134.55 56.1 -134.55 51.1 -134.55 42.0 -138.95 42.0 -140.45 42.0 -142.2 43.45 -143.95 44.9 -143.95 46.6 -143.95 48.8 -142.85 50.7 -141.75 52.55 -140.4 52.55 -138.55 52.55 -138.55 49.0 -136.7 49.7 -136.7 51.1 -136.7 54.5 -141.5 54.5 -143.6 54.5 -145.95 52.55 -148.25 50.55 -148.25 48.55 -148.25 45.5 -144.75 42.8 -141.3 40.1 -137.3 40.1 -134.2 40.1 -131.85 42.75 -129.45 45.45 -129.45 49.6" fill="#000000" fill-rule="evenodd" stroke="none"/>
      <path d="M-83.95 3.65 Q-88.15 -1.45 -94.35 -1.45 -102.05 -1.45 -107.45 7.15 -112.85 15.85 -112.85 30.6 -112.85 42.85 -106.65 50.75 -100.4 58.75 -91.35 58.75 -87.2 58.75 -82.95 55.8 -78.75 52.8 -78.75 48.35 -78.75 45.25 -81.75 43.15 -84.65 41.0 -88.25 41.0 -90.2 41.0 -91.6 42.25 -92.95 43.55 -92.95 45.25 -92.95 48.25 -89.45 48.25 -88.4 48.25 -87.75 46.95 -87.15 45.7 -87.15 44.25 -83.9 44.25 -83.9 47.35 -83.9 49.4 -85.65 50.8 -87.4 52.2 -89.0 52.2 -91.05 52.2 -93.15 50.25 -95.25 48.4 -95.25 45.5 -95.25 41.55 -92.7 39.3 -90.15 37.05 -86.3 37.05 -81.7 37.05 -78.7 40.25 -75.65 43.45 -75.65 48.45 -75.65 54.35 -80.8 57.85 -85.95 61.3 -92.15 61.3 -103.4 61.3 -113.0 51.95 -122.65 42.65 -122.65 29.35 -122.65 16.75 -113.3 6.5 -103.95 -3.75 -93.4 -3.75 -85.45 -3.75 -78.7 1.5 -71.95 6.75 -71.95 12.4 -71.95 19.5 -77.75 24.0 -83.5 28.5 -92.25 28.5 -100.65 28.5 -105.3 26.15 -109.9 23.75 -109.9 19.55 -109.9 15.8 -107.05 13.3 -104.2 10.9 -101.1 10.9 -98.25 10.9 -96.05 12.3 -93.8 13.75 -93.8 15.65 -93.8 17.8 -95.35 19.55 -96.9 21.35 -98.35 21.35 -101.2 21.35 -101.2 19.35 -97.95 18.45 -97.95 16.25 -97.95 14.5 -99.2 13.55 -100.5 12.55 -102.2 12.55 -103.4 12.55 -104.55 14.6 -105.65 16.6 -105.65 18.8 -105.65 21.85 -101.3 24.0 -97.1 26.2 -90.8 26.2 -85.5 26.2 -82.65 23.0 -79.7 19.8 -79.7 14.4 -79.7 8.9 -83.95 3.65" fill="#000000" fill-rule="evenodd" stroke="none"/>
      <path d="M-71.1 2.9 Q-57.65 -0.55 -49.7 -7.9 L-50.1 0.2 -49.85 12.4 Q-47.0 2.9 -41.8 -2.25 -36.65 -7.3 -31.3 -7.3 -26.15 -7.3 -22.5 -3.1 -18.85 1.05 -18.85 7.15 -18.85 14.3 -23.0 18.65 -27.15 23.1 -33.75 23.1 -37.15 23.1 -39.5 20.45 -41.85 17.8 -41.85 14.15 -41.85 12.3 -38.75 9.65 -35.65 7.0 -33.75 7.0 -31.0 7.0 -28.95 8.3 -26.95 9.65 -26.95 12.0 -26.95 14.6 -31.6 15.65 -30.75 13.55 -30.75 12.25 -30.75 9.55 -32.65 9.55 -34.2 9.55 -35.35 11.5 -36.45 13.4 -36.45 15.4 -36.45 17.2 -34.9 18.95 -33.35 20.65 -31.6 20.65 -26.85 20.65 -24.15 17.3 -21.4 13.95 -21.4 8.85 -21.4 5.3 -24.65 2.65 -28.0 0.05 -32.1 0.05 -36.35 0.05 -39.9 2.3 -43.45 4.55 -46.45 10.35 -49.5 16.0 -49.5 17.55 L-46.85 56.45 Q-38.65 54.0 -31.45 49.5 L-30.6 52.9 Q-38.6 56.9 -45.05 59.0 -51.5 61.2 -62.05 62.55 L-62.05 59.0 Q-55.8 59.0 -50.25 57.4 -50.25 50.05 -53.55 32.05 -56.85 14.1 -60.6 1.65 L-70.45 5.2 -71.1 2.9" fill="#000000" fill-rule="evenodd" stroke="none"/>
      <path d="M77.1 19.95 Q77.1 36.3 71.1 48.05 65.15 59.85 57.6 59.85 53.7 59.85 51.2 57.2 48.8 54.6 48.8 51.15 48.8 47.9 50.85 45.5 52.85 43.0 55.7 43.0 61.0 43.0 61.0 48.2 61.0 49.35 59.8 51.0 58.6 52.65 57.05 53.3 L55.85 52.35 Q57.85 50.95 57.85 49.25 57.85 47.5 55.3 47.5 51.65 47.5 51.65 52.55 51.65 54.75 53.45 56.0 55.2 57.25 58.15 57.25 63.25 57.25 66.0 48.9 68.8 40.65 68.8 24.45 68.8 13.15 64.3 5.7 59.8 -1.65 51.75 -1.65 46.75 -1.65 43.1 4.1 39.4 9.85 39.4 11.45 L39.75 14.65 40.1 20.4 Q40.1 34.7 35.65 44.05 31.15 53.3 25.2 53.3 22.45 53.3 20.2 51.4 17.85 49.5 17.85 46.55 17.85 43.15 19.55 41.1 21.25 38.95 24.35 38.95 26.6 38.95 27.9 40.2 29.3 41.4 29.3 42.8 29.3 44.55 28.3 46.1 27.4 47.65 25.6 47.65 L24.8 46.65 Q26.45 46.05 26.45 45.05 26.45 43.7 23.45 43.7 22.65 43.7 21.8 44.6 20.95 45.55 20.95 46.8 20.95 48.7 22.3 49.9 23.55 51.15 25.6 51.15 29.15 51.15 31.1 44.85 33.05 38.5 33.05 20.95 33.05 14.0 28.6 7.6 24.2 1.3 18.15 1.3 15.0 1.3 11.95 3.15 9.0 4.9 6.6 8.5 4.3 12.1 4.2 15.95 L3.5 57.15 12.7 56.7 12.7 60.1 Q0.05 60.1 -8.0 62.4 L-8.9 59.45 0.25 57.55 Q0.25 26.0 -7.3 -1.05 L-16.55 -0.1 -16.7 -3.05 Q-5.0 -3.35 5.7 -6.75 4.75 -4.15 4.05 9.55 5.55 5.1 10.9 0.85 16.15 -3.35 21.55 -3.35 27.5 -3.35 32.25 -0.1 36.95 3.1 38.75 8.75 41.2 2.0 46.05 -2.7 50.9 -7.3 55.85 -7.3 66.1 -7.3 71.55 -0.1 77.1 7.2 77.1 19.95" fill="#000000" fill-rule="evenodd" stroke="none"/>
      <path d="M106.4 7.15 Q115.75 7.15 115.75 12.55 115.75 17.05 111.0 20.85 106.2 24.6 102.75 24.6 98.6 24.6 95.8 22.3 92.95 20.0 92.95 16.1 92.95 8.1 100.5 -0.3 108.05 -8.6 116.25 -8.6 122.95 -8.6 127.55 -2.8 132.15 3.0 132.15 11.45 132.15 17.35 130.45 21.75 128.75 26.1 125.3 31.9 116.4 46.55 116.4 58.85 L116.55 61.7 113.7 61.7 113.85 52.5 Q105.15 58.2 101.35 58.2 96.65 58.2 93.6 55.3 90.55 52.45 90.55 47.75 90.55 43.45 95.05 40.05 99.6 36.7 105.15 36.7 L117.8 35.85 Q122.9 24.7 122.9 15.95 122.9 -4.15 113.7 -4.15 105.25 -4.15 101.55 1.25 97.9 6.7 97.9 16.25 97.9 18.9 99.45 20.75 101.0 22.6 103.3 22.6 106.15 22.6 108.7 19.95 111.25 17.35 111.25 14.2 111.25 12.45 109.65 11.2 108.05 9.9 106.15 9.9 105.35 9.9 104.65 10.75 104.0 11.55 104.0 12.5 104.0 14.3 105.45 14.3 106.65 14.3 107.6 13.7 107.1 16.55 104.35 16.55 102.85 16.55 101.85 15.5 100.85 14.4 100.85 12.7 100.85 10.7 102.65 8.9 104.4 7.15 106.4 7.15 M101.65 42.45 Q99.5 45.1 99.5 48.05 99.5 50.9 100.95 52.65 102.45 54.45 104.9 54.45 109.05 54.45 114.4 49.1 L116.8 38.25 107.4 39.2 Q103.85 39.8 101.65 42.45" fill="#000000" fill-rule="evenodd" stroke="none"/>
      <path d="M161.95 -22.7 Q159.35 -26.9 154.1 -26.9 150.15 -26.9 146.9 -24.55 143.65 -22.2 143.65 -19.1 143.65 -15.35 146.45 -13.1 149.25 -10.9 151.85 -10.9 157.1 -10.9 157.1 -15.55 157.1 -20.8 153.05 -20.8 152.35 -20.8 151.4 -20.25 150.5 -19.65 150.5 -18.85 150.5 -17.2 152.5 -17.2 153.3 -17.2 154.7 -18.05 153.9 -14.45 151.4 -14.45 150.25 -14.45 149.45 -15.75 148.6 -17.0 148.6 -17.95 148.6 -19.75 150.05 -21.0 151.45 -22.25 153.55 -22.25 156.4 -22.25 158.7 -20.75 161.05 -19.15 161.05 -16.45 161.05 -13.5 158.1 -11.5 155.25 -9.45 151.7 -9.45 147.65 -9.45 144.55 -12.3 141.5 -15.15 141.5 -19.4 141.5 -24.0 144.7 -27.4 147.85 -30.85 151.55 -30.85 160.8 -30.85 162.8 -22.8 L161.95 -22.7 M156.0 0.2 L152.9 57.75 167.8 56.85 167.8 60.75 Q151.6 60.75 147.8 61.25 L140.95 62.4 140.95 58.6 149.9 58.3 Q149.9 28.2 146.75 0.75 L139.1 0.5 139.1 -2.1 149.0 -1.95 Q153.95 -1.95 162.25 -4.5 L162.25 -1.3 156.0 0.2" fill="#000000" fill-rule="evenodd" stroke="none"/>
      <path d="M230.25 -29.9 L225.55 -28.9 222.3 -17.6 Q220.15 -9.45 219.4 -3.5 215.75 27.35 215.75 44.55 215.75 55.7 221.75 58.4 L219.75 61.15 Q215.35 59.9 213.4 52.9 211.5 46.2 211.5 15.65 205.2 4.65 197.75 4.65 191.05 4.65 186.5 12.05 181.95 19.35 181.95 28.0 181.95 40.15 186.15 47.65 190.25 55.2 198.0 55.2 201.35 55.2 204.4 52.3 207.4 49.4 207.4 45.75 207.4 42.55 204.45 40.15 201.55 37.7 198.15 37.7 197.1 37.7 195.3 39.05 193.45 40.3 193.45 41.95 193.45 44.95 197.0 44.95 198.05 44.95 198.65 43.65 199.25 42.4 199.25 41.0 202.55 41.0 202.55 44.1 202.55 46.15 200.75 47.55 199.05 48.95 197.45 48.95 195.45 48.95 193.25 47.0 191.15 45.05 191.15 42.25 191.15 38.1 193.85 35.4 196.5 32.75 200.1 32.75 204.45 32.75 207.15 36.35 209.8 40.0 209.8 45.75 209.8 50.1 206.05 53.75 202.25 57.4 198.0 57.4 186.55 57.4 179.3 49.25 172.0 41.1 172.0 29.75 172.0 18.85 180.5 10.2 188.9 1.65 197.75 1.65 201.1 1.65 204.9 4.2 208.75 6.8 211.75 11.45 L214.3 -27.75 207.25 -27.75 207.25 -30.35 Q216.75 -30.35 230.15 -32.3 L230.25 -29.9" fill="#000000" fill-rule="evenodd" stroke="none"/>
      <path d="M-101.25 76.45 L-100.55 84.4 Q-100.55 84.75 -100.8 84.8 L-101.4 84.95 Q-101.6 85.05 -101.7 84.8 -102.6 81.55 -104.8 79.25 -106.8 77.1 -110.25 77.1 -113.25 77.1 -114.9 79.05 -116.25 80.7 -116.25 82.95 -116.25 85.7 -114.7 87.3 -112.9 89.1 -109.05 90.3 -105.7 91.35 -104.4 91.95 -102.2 93.0 -101.0 94.45 -98.8 97.05 -98.8 101.2 -98.8 105.85 -101.4 108.9 -104.25 112.15 -109.0 112.15 -113.55 112.15 -116.9 109.55 -117.7 108.95 -118.05 108.95 L-118.85 109.8 Q-119.2 110.4 -119.75 110.4 -120.35 110.4 -120.2 109.6 L-119.35 100.55 -119.0 100.25 -118.25 100.3 Q-117.95 100.3 -117.95 100.7 L-117.65 103.25 Q-117.25 104.8 -116.15 106.5 -115.05 108.25 -113.15 109.25 -111.3 110.2 -109.2 110.2 -106.6 110.2 -104.65 108.7 -102.4 106.95 -102.4 103.85 -102.4 100.35 -104.75 98.25 -106.45 96.75 -110.1 95.45 -115.2 93.65 -117.35 91.4 -119.85 88.9 -119.85 84.1 -119.85 82.35 -118.9 80.5 -118.05 78.9 -116.75 77.7 -114.2 75.3 -109.8 75.3 -106.55 75.3 -103.9 76.55 L-102.95 76.5 -102.3 75.9 -101.65 75.6 Q-101.25 75.6 -101.25 76.45" fill="#000000" fill-rule="evenodd" stroke="none"/>
      <path d="M-87.7 85.4 Q-87.5 84.9 -87.0 84.9 -86.5 84.9 -86.5 85.65 L-86.75 90.6 -79.85 90.6 -79.5 90.75 -79.5 91.05 -80.0 92.8 -80.45 93.2 -86.85 93.2 -87.0 100.15 -87.0 105.15 Q-87.0 107.65 -86.05 108.75 -85.4 109.55 -84.45 109.55 -82.15 109.55 -81.15 108.9 -80.8 108.7 -80.55 109.0 L-80.3 109.45 Q-80.1 109.7 -80.4 110.0 -81.05 110.65 -82.25 111.2 -84.0 112.0 -85.9 112.0 -87.7 112.0 -89.25 110.6 -90.75 109.2 -90.75 107.75 L-90.5 93.2 -93.55 93.2 Q-94.3 93.2 -94.3 92.6 L-93.4 91.7 Q-92.4 91.1 -90.35 88.95 -88.15 86.6 -87.7 85.4" fill="#000000" fill-rule="evenodd" stroke="none"/>
      <path d="M-62.75 94.9 L-62.75 105.45 Q-62.75 109.2 -61.25 109.2 -60.05 109.2 -59.5 108.45 -59.25 108.05 -59.05 108.25 L-58.55 108.65 Q-58.25 108.95 -58.6 109.55 -59.9 112.0 -62.45 112.0 -63.8 112.0 -64.75 111.1 -65.65 110.2 -66.0 108.65 L-66.1 108.65 Q-67.75 110.6 -71.05 111.7 L-74.0 112.0 Q-75.1 112.0 -75.95 111.1 -77.0 110.0 -77.0 107.85 -77.0 106.0 -76.0 104.6 -74.8 103.05 -72.0 101.8 -67.25 99.7 -66.35 98.9 L-66.35 95.75 Q-66.6 93.45 -67.05 92.95 -68.0 91.85 -70.05 91.85 L-71.8 92.15 Q-72.8 92.45 -73.3 92.9 -73.75 93.3 -73.7 93.95 L-73.55 95.2 Q-73.55 96.6 -74.1 97.25 -74.75 98.0 -76.2 98.0 -77.4 98.0 -77.4 96.45 -77.4 95.25 -76.45 93.95 -75.5 92.65 -73.95 91.75 -71.0 90.0 -67.85 90.0 -65.3 90.0 -63.85 91.35 -63.15 92.05 -62.9 93.0 -62.75 93.65 -62.75 94.9 M-72.35 108.95 Q-71.65 109.65 -70.5 109.65 -69.35 109.65 -67.9 108.6 -66.4 107.55 -66.4 106.55 L-66.4 100.4 -70.4 102.6 Q-73.1 104.35 -73.1 106.9 -73.1 108.25 -72.35 108.95" fill="#000000" fill-rule="evenodd" stroke="none"/>
      <path d="M-49.3 95.65 Q-49.8 96.55 -49.8 97.2 L-49.8 107.7 Q-49.8 108.85 -49.5 109.3 -49.2 109.75 -48.4 109.75 L-46.05 109.75 Q-45.7 109.75 -45.7 110.2 L-45.7 111.1 Q-45.7 111.55 -45.95 111.55 L-51.25 111.4 -56.75 111.55 Q-57.05 111.55 -57.05 111.05 L-57.05 110.2 Q-57.05 109.75 -56.5 109.75 L-54.55 109.75 Q-53.45 109.75 -53.45 108.8 L-53.4 98.1 Q-53.4 96.3 -53.75 95.55 -54.1 94.95 -55.2 94.35 L-56.15 93.85 -56.55 93.5 -56.55 93.2 -56.15 92.75 -51.2 90.2 -50.5 90.0 Q-50.15 90.0 -50.15 90.6 L-49.9 94.05 -49.7 94.05 Q-48.5 92.2 -46.95 91.0 -45.25 89.7 -43.7 89.7 -42.5 89.7 -41.8 90.35 -41.15 91.0 -41.15 91.9 -41.15 92.95 -41.85 93.65 -42.5 94.35 -43.25 94.35 L-44.7 93.95 Q-45.35 93.55 -46.35 93.55 -47.05 93.55 -47.8 94.0 -48.7 94.55 -49.3 95.65" fill="#000000" fill-rule="evenodd" stroke="none"/>
      <path d="M-25.55 93.2 L-32.0 93.2 -32.15 100.15 -32.15 105.15 Q-32.15 107.65 -31.2 108.75 -30.5 109.55 -29.55 109.55 -27.25 109.55 -26.25 108.9 -25.9 108.7 -25.65 109.0 L-25.4 109.45 Q-25.2 109.7 -25.5 110.0 -26.15 110.65 -27.35 111.2 -29.1 112.0 -31.05 112.0 -32.8 112.0 -34.35 110.6 -35.85 109.2 -35.85 107.75 L-35.6 93.2 -38.65 93.2 Q-39.4 93.2 -39.4 92.6 L-38.5 91.7 Q-37.5 91.1 -35.45 88.95 -33.25 86.6 -32.85 85.4 -32.65 84.9 -32.15 84.9 -31.65 84.9 -31.65 85.65 L-31.9 90.6 -24.95 90.6 Q-24.75 90.6 -24.6 90.75 L-24.6 91.05 -25.1 92.8 -25.55 93.2" fill="#000000" fill-rule="evenodd" stroke="none"/>
      <path d="M-10.3 93.3 Q-11.35 91.5 -13.45 91.5 -15.2 91.5 -16.55 92.7 -18.0 94.0 -18.7 96.65 L-10.95 96.65 Q-9.6 96.65 -9.6 95.95 -9.6 94.55 -10.3 93.3 M-4.85 105.8 Q-4.55 105.9 -4.85 106.55 -5.75 108.55 -7.45 110.05 -9.8 112.0 -12.75 112.0 -18.15 112.0 -20.6 108.45 -21.9 106.55 -22.35 104.85 -22.8 103.25 -22.8 100.55 -22.8 95.8 -19.65 92.65 -17.05 90.0 -12.5 90.0 -8.75 90.0 -6.7 92.95 -5.2 95.1 -5.2 97.3 -5.2 98.1 -6.6 98.1 L-18.9 98.1 -19.05 100.5 Q-19.05 104.15 -17.0 106.65 -14.95 109.1 -11.95 109.1 -9.8 109.1 -8.1 108.0 -6.65 107.1 -5.95 105.7 -5.8 105.35 -5.5 105.45 L-4.85 105.8" fill="#000000" fill-rule="evenodd" stroke="none"/>
      <path d="M10.15 93.95 L8.5 93.55 Q7.8 93.55 7.05 94.0 6.15 94.55 5.55 95.65 5.05 96.55 5.05 97.2 L5.05 107.7 Q5.05 108.85 5.35 109.3 5.65 109.75 6.45 109.75 L8.8 109.75 Q9.15 109.75 9.15 110.2 L9.15 111.1 8.9 111.55 3.6 111.4 -1.9 111.55 Q-2.2 111.55 -2.2 111.05 L-2.2 110.2 Q-2.2 109.75 -1.65 109.75 L0.3 109.75 Q1.4 109.75 1.4 108.8 L1.45 98.1 Q1.45 96.3 1.1 95.55 0.75 94.95 -0.35 94.35 L-1.3 93.85 -1.7 93.5 -1.7 93.2 Q-1.7 92.95 -1.3 92.75 1.2 91.5 3.65 90.2 L4.35 90.0 Q4.7 90.0 4.7 90.6 L4.95 94.05 5.15 94.05 Q6.35 92.2 7.9 91.0 9.6 89.7 11.15 89.7 12.35 89.7 13.05 90.35 13.7 91.0 13.7 91.9 13.7 92.95 13.0 93.65 12.35 94.35 11.6 94.35 L10.15 93.95" fill="#000000" fill-rule="evenodd" stroke="none"/>
      <path d="M59.2 77.5 Q59.2 77.85 58.8 77.85 L57.75 77.85 Q56.3 77.85 55.0 78.8 53.75 79.7 49.3 84.75 45.3 89.3 43.4 91.8 L56.75 108.35 Q57.75 109.6 60.25 109.6 L62.0 109.6 Q62.35 109.6 62.35 109.95 L62.35 111.2 Q62.35 111.55 61.95 111.55 L55.8 111.4 49.0 111.55 Q48.7 111.55 48.7 111.25 L48.7 109.95 Q48.7 109.65 49.0 109.65 L49.75 109.65 Q50.4 109.65 50.6 109.15 L50.55 108.3 Q50.2 107.55 45.7 101.55 L40.65 95.15 Q39.75 94.4 38.45 94.4 L37.5 94.4 37.65 108.5 Q37.75 109.6 38.8 109.6 L41.0 109.6 Q41.4 109.6 41.4 109.9 L41.4 111.2 41.1 111.55 35.45 111.4 29.45 111.55 Q29.1 111.55 29.1 111.2 L29.1 109.9 Q29.1 109.6 29.45 109.6 L31.5 109.6 Q32.65 109.6 32.85 108.7 L33.0 93.0 32.85 79.05 Q32.85 77.85 31.35 77.85 L29.6 77.85 Q29.2 77.85 29.2 77.5 L29.2 76.2 Q29.2 75.9 29.6 75.9 L35.45 76.05 41.1 75.9 41.5 76.2 41.5 77.5 41.15 77.85 39.05 77.85 Q38.3 77.85 38.0 78.2 37.65 78.5 37.65 79.4 L37.5 92.9 38.4 92.9 Q39.45 92.9 40.45 92.2 41.55 91.4 51.2 78.95 51.55 78.45 51.4 78.1 51.25 77.75 50.75 77.75 L50.05 77.75 49.8 77.4 49.8 76.25 Q49.8 75.9 50.1 75.9 L55.05 76.05 58.85 75.9 Q59.2 75.9 59.2 76.15 L59.2 77.5" fill="#000000" fill-rule="evenodd" stroke="none"/>
      <path d="M70.65 90.6 L70.55 98.7 70.6 108.45 70.85 109.45 Q71.0 109.75 71.4 109.75 L73.65 109.75 Q74.15 109.75 74.15 110.2 L74.15 111.05 Q74.15 111.55 73.7 111.55 L68.95 111.4 63.55 111.55 Q63.15 111.55 63.15 111.15 L63.15 110.15 Q63.15 109.75 63.65 109.75 L66.1 109.75 66.7 109.55 66.9 108.75 66.95 96.9 Q66.95 95.5 66.5 94.9 65.9 94.2 64.15 93.9 L63.7 93.55 63.7 93.1 Q63.7 92.9 64.05 92.75 67.05 91.6 69.45 90.3 70.05 90.0 70.4 90.0 70.75 90.0 70.65 90.6 M64.7 79.65 Q64.7 78.65 65.5 77.9 66.35 77.05 67.75 77.05 68.95 77.05 69.7 77.85 70.35 78.55 70.35 79.5 70.35 80.6 69.65 81.35 68.85 82.25 67.45 82.25 66.5 82.25 65.65 81.55 64.7 80.75 64.7 79.65" fill="#000000" fill-rule="evenodd" stroke="none"/>
      <path d="M90.65 92.8 L90.2 93.2 83.75 93.2 Q83.6 96.65 83.6 100.15 L83.6 105.15 Q83.6 107.65 84.55 108.75 85.25 109.55 86.2 109.55 88.5 109.55 89.5 108.9 89.85 108.7 90.1 109.0 L90.35 109.45 Q90.55 109.7 90.25 110.0 L88.4 111.2 Q86.65 112.0 84.7 112.0 82.9 112.0 81.35 110.6 79.85 109.2 79.85 107.75 L80.1 93.2 77.05 93.2 Q76.3 93.2 76.3 92.6 76.3 92.25 77.2 91.7 L80.25 88.95 Q82.45 86.6 82.9 85.4 83.1 84.9 83.6 84.9 84.1 84.9 84.1 85.65 L83.85 90.6 90.8 90.6 Q91.0 90.6 91.15 90.75 L91.15 91.05 90.65 92.8" fill="#000000" fill-rule="evenodd" stroke="none"/>
      <path d="M96.2 94.9 Q96.2 96.8 97.7 97.75 98.45 98.3 100.95 99.0 103.95 99.85 105.3 101.15 106.9 102.7 106.95 105.4 106.9 108.4 104.75 110.2 102.6 112.0 99.4 112.0 L96.2 111.45 Q95.0 111.05 94.35 110.55 94.15 110.45 94.05 109.85 L93.2 105.1 Q93.15 104.8 93.5 104.7 L94.15 104.55 Q94.45 104.5 94.6 104.85 L95.85 107.3 Q96.75 109.0 97.4 109.55 98.4 110.4 100.15 110.4 101.65 110.4 102.8 109.6 104.1 108.65 104.1 107.0 104.1 105.25 103.1 104.25 102.0 103.15 99.3 102.4 93.4 100.7 93.4 96.1 93.4 93.55 95.5 91.75 97.55 90.0 100.35 90.0 102.85 90.0 104.95 91.05 105.75 91.45 105.85 91.95 L106.6 95.45 106.25 95.9 105.65 96.1 Q105.4 96.15 105.2 95.85 L103.5 93.55 Q102.25 91.6 100.0 91.6 98.5 91.6 97.4 92.45 96.2 93.4 96.2 94.9" fill="#000000" fill-rule="evenodd" stroke="none"/>
      <path d="M-230.85 -99.1 Q-239.2 -95.35 -240.25 -86.7 -241.2 -78.1 -235.55 -68.7 -229.6 -58.75 -220.3 -54.1 -211.15 -49.55 -204.1 -52.65 -199.75 -54.65 -198.85 -58.25 -197.95 -61.9 -200.25 -66.3 L-203.1 -71.2 -198.85 -72.55 Q-195.35 -64.6 -197.05 -58.7 -198.8 -52.8 -205.3 -50.0 -212.4 -46.85 -223.0 -50.8 -233.8 -54.85 -239.0 -63.15 -242.25 -68.55 -243.2 -76.45 -244.1 -84.55 -241.15 -91.05 -238.15 -97.5 -231.7 -100.35 -225.6 -103.0 -220.55 -101.6 -215.5 -100.3 -213.7 -96.7 -211.95 -93.35 -213.9 -89.25 -215.85 -85.1 -219.65 -83.55 -221.85 -82.5 -225.1 -83.15 -228.25 -83.8 -229.75 -86.3 -231.05 -88.7 -230.2 -90.6 -229.35 -92.55 -226.95 -93.55 L-223.3 -93.85 Q-221.4 -93.5 -220.85 -92.4 -219.95 -90.65 -220.2 -89.25 -220.35 -87.8 -221.45 -87.45 -222.65 -86.95 -223.8 -87.75 -222.95 -88.15 -222.35 -89.2 -221.7 -90.35 -222.05 -90.95 -223.25 -93.25 -224.75 -92.6 -226.5 -91.85 -227.3 -89.9 -228.15 -87.95 -227.1 -86.25 -226.5 -85.05 -224.2 -84.35 L-220.15 -84.45 Q-217.55 -85.6 -217.0 -88.75 -216.4 -91.85 -217.95 -94.95 -219.65 -98.0 -223.2 -99.4 -226.95 -100.85 -230.85 -99.1" fill="#109c92" fill-rule="evenodd" stroke="none"/>
      <path d="M-177.2 -98.2 Q-172.35 -95.75 -170.6 -91.6 -168.35 -86.15 -170.1 -77.55 L-170.55 -73.45 Q-170.55 -71.85 -169.8 -70.05 -168.7 -67.65 -166.45 -67.15 -164.1 -66.75 -162.85 -67.2 -161.7 -67.65 -161.35 -68.65 -161.05 -69.75 -161.6 -71.05 -162.15 -72.35 -163.25 -73.4 -164.5 -74.4 -165.3 -74.05 -166.4 -73.7 -165.5 -71.6 -165.1 -70.65 -164.6 -70.35 -166.45 -69.6 -167.35 -71.55 -167.75 -72.55 -167.15 -73.75 -166.65 -74.9 -165.5 -75.35 L-163.05 -75.4 Q-161.35 -75.25 -160.6 -73.45 -159.35 -70.3 -160.25 -67.5 -161.1 -64.8 -163.45 -63.95 -165.1 -63.4 -167.35 -64.8 -169.8 -66.2 -170.7 -68.3 -172.05 -71.5 -172.25 -76.95 -172.45 -82.65 -173.95 -86.25 -179.1 -98.4 -188.4 -95.0 -191.6 -93.8 -192.85 -89.7 -194.05 -85.6 -193.2 -83.9 L-181.75 -61.45 -176.5 -63.55 -175.75 -61.45 -180.85 -59.85 Q-185.6 -58.0 -188.35 -56.3 L-189.25 -57.95 Q-185.7 -59.4 -183.5 -60.6 -187.1 -68.65 -197.55 -84.9 -208.55 -102.25 -216.7 -111.8 L-222.25 -109.1 -223.1 -110.5 Q-218.25 -112.6 -207.0 -119.25 L-206.2 -117.8 -210.75 -115.15 Q-208.0 -111.05 -203.55 -102.95 L-194.75 -86.95 Q-194.85 -90.95 -192.7 -94.35 -190.5 -97.65 -187.3 -98.85 -182.1 -100.75 -177.2 -98.2" fill="#109c92" fill-rule="evenodd" stroke="none"/>
      <path d="M138.5 -100.1 Q139.95 -99.7 141.05 -98.55 142.15 -97.35 141.6 -95.8 141.05 -94.25 139.05 -93.5 L135.2 -93.3 Q132.95 -93.85 131.85 -95.8 130.6 -97.85 131.35 -100.25 132.15 -102.8 134.5 -104.2 136.85 -105.7 138.85 -105.15 144.05 -103.8 143.7 -99.05 L143.2 -99.1 Q142.55 -101.85 139.65 -102.6 L135.2 -102.3 Q133.05 -101.5 132.5 -99.7 131.9 -97.7 132.95 -96.05 134.2 -94.45 135.55 -94.05 138.4 -93.3 139.25 -95.9 140.2 -98.8 137.95 -99.35 L136.95 -99.3 Q136.3 -99.05 136.25 -98.65 136.0 -97.7 137.0 -97.45 L138.4 -97.6 Q137.25 -95.7 135.9 -96.05 135.3 -96.25 135.1 -97.1 134.85 -97.85 135.0 -98.45 135.3 -99.45 136.35 -99.9 L138.5 -100.1 M20.65 -116.35 Q22.0 -115.4 21.85 -113.85 21.85 -112.15 20.1 -111.0 18.5 -109.95 16.5 -109.95 14.2 -110.0 12.5 -111.7 10.9 -113.25 10.9 -115.8 11.0 -118.45 12.8 -120.4 14.75 -122.3 16.8 -122.3 22.1 -122.1 23.0 -117.45 L22.5 -117.35 Q21.2 -119.85 18.2 -119.95 15.95 -120.0 14.05 -118.7 12.15 -117.35 12.15 -115.6 12.1 -113.45 13.6 -112.15 15.1 -110.8 16.6 -110.75 19.55 -110.75 19.65 -113.4 19.75 -116.35 17.45 -116.5 17.1 -116.5 16.5 -116.15 16.0 -115.8 16.0 -115.35 15.95 -114.4 17.1 -114.4 17.65 -114.4 18.3 -114.85 17.8 -112.7 16.45 -112.85 15.85 -112.85 15.35 -113.6 14.85 -114.4 14.85 -114.9 15.0 -115.9 15.8 -116.6 16.5 -117.3 17.75 -117.3 19.4 -117.2 20.65 -116.35 M-68.9 -111.75 Q-67.45 -112.0 -65.85 -111.3 -64.4 -110.55 -64.15 -109.0 -63.9 -107.4 -65.35 -105.95 -66.85 -104.6 -68.7 -104.3 -70.9 -104.05 -72.95 -105.4 -74.9 -106.8 -75.35 -109.25 -75.85 -111.8 -74.4 -114.05 -72.9 -116.25 -70.85 -116.55 -65.55 -117.25 -63.7 -112.75 L-64.2 -112.65 Q-66.0 -114.85 -68.95 -114.45 -71.3 -114.15 -72.8 -112.6 -74.45 -111.0 -74.15 -109.2 -73.8 -107.05 -71.95 -106.0 -70.3 -105.0 -68.8 -105.2 -65.9 -105.6 -66.25 -108.25 -66.8 -111.2 -69.0 -110.95 L-69.85 -110.45 -70.3 -109.6 Q-70.1 -108.65 -69.0 -108.8 L-67.9 -109.45 Q-67.95 -107.35 -69.3 -107.15 -70.0 -107.05 -70.6 -107.8 L-71.25 -109.0 Q-71.45 -109.95 -70.7 -110.8 -70.0 -111.65 -68.9 -111.75 M-159.2 -106.35 L-149.1 -74.45 Q-145.25 -75.6 -141.45 -77.25 L-140.7 -75.15 Q-148.65 -72.8 -151.05 -71.7 L-154.35 -69.9 -155.2 -72.0 -150.55 -73.65 Q-157.05 -90.7 -164.3 -104.4 L-168.7 -103.2 -169.25 -104.6 Q-166.4 -105.4 -163.55 -106.3 -161.0 -107.1 -156.6 -109.95 L-156.0 -108.25 Q-157.55 -107.3 -159.2 -106.35 M-161.9 -118.2 Q-160.2 -117.8 -159.65 -116.25 -159.1 -114.7 -160.4 -113.0 -161.7 -111.4 -163.65 -110.8 L-168.25 -111.05 Q-170.75 -112.15 -171.6 -114.4 -172.55 -117.0 -171.4 -119.3 -170.3 -121.8 -168.15 -122.45 -162.75 -124.05 -159.9 -120.1 L-160.4 -119.85 Q-162.75 -121.7 -165.8 -120.75 -168.15 -120.0 -169.55 -118.2 -170.85 -116.3 -170.25 -114.6 -169.4 -112.5 -167.35 -111.9 L-163.8 -111.65 Q-160.8 -112.6 -161.75 -115.1 -162.85 -118.0 -165.2 -117.25 L-166.0 -116.6 Q-166.4 -116.15 -166.2 -115.75 -165.9 -114.85 -164.8 -115.15 -164.2 -115.35 -163.7 -116.05 -163.35 -113.95 -164.8 -113.45 -165.45 -113.25 -166.2 -113.85 L-167.2 -114.9 Q-167.55 -115.85 -166.95 -116.8 -166.4 -117.75 -165.2 -118.1 L-161.9 -118.2" fill="#109c92" fill-rule="evenodd" stroke="none"/>
      <path d="M-140.25 -97.2 Q-138.0 -90.5 -133.65 -86.0 -129.25 -81.4 -125.05 -82.45 -121.65 -83.3 -120.95 -86.6 L-118.4 -84.05 Q-122.25 -81.9 -124.6 -81.25 -130.75 -79.75 -136.85 -84.15 -143.1 -88.7 -145.7 -96.0 -148.1 -103.05 -144.5 -109.8 -140.75 -116.8 -133.6 -118.65 L-126.3 -118.25 Q-122.3 -117.0 -121.6 -114.3 -120.95 -111.95 -122.55 -109.3 -124.2 -106.65 -126.6 -106.1 L-130.95 -106.3 Q-133.1 -107.05 -133.65 -108.85 -134.2 -110.7 -133.35 -111.95 -132.55 -113.1 -130.55 -113.7 L-128.3 -113.65 Q-127.2 -113.25 -126.95 -112.4 -126.8 -111.9 -127.4 -111.15 -127.85 -110.45 -128.5 -110.25 L-129.0 -110.1 Q-129.0 -111.4 -129.15 -111.9 -129.45 -112.9 -130.65 -112.5 -131.3 -112.45 -131.6 -111.45 -131.95 -110.55 -131.65 -109.7 -130.7 -106.6 -127.8 -107.35 -125.85 -107.85 -125.1 -109.5 -124.25 -111.15 -124.8 -113.2 -125.5 -115.6 -128.1 -116.8 -130.7 -117.95 -133.3 -117.3 -138.75 -116.0 -140.55 -109.55 -142.25 -103.3 -140.25 -97.2" fill="#109c92" fill-rule="evenodd" stroke="none"/>
      <path d="M-99.0 -126.8 Q-92.1 -122.55 -86.45 -121.95 L-86.35 -120.75 Q-89.55 -120.85 -91.9 -121.85 -101.0 -112.35 -106.5 -105.75 L-101.0 -105.6 Q-98.6 -104.9 -97.35 -103.65 -95.95 -102.35 -95.6 -101.15 L-94.3 -96.2 Q-93.55 -93.0 -92.75 -91.9 -91.85 -90.65 -90.4 -90.2 L-87.55 -90.1 Q-85.35 -90.45 -84.3 -92.55 -83.25 -94.55 -83.7 -96.7 -84.25 -99.6 -87.25 -99.1 L-88.7 -98.65 Q-89.1 -98.35 -88.9 -97.5 -88.7 -96.65 -87.25 -96.8 L-85.95 -97.45 -85.7 -96.9 Q-85.6 -96.25 -85.95 -95.55 -86.35 -95.05 -87.15 -94.85 -88.3 -94.7 -89.0 -95.45 -89.85 -96.3 -90.1 -97.5 -90.35 -98.6 -89.25 -100.25 -88.05 -101.8 -86.75 -102.1 -85.2 -102.35 -83.9 -100.9 -82.65 -99.45 -82.25 -97.5 -81.55 -93.65 -83.6 -91.1 -85.6 -88.5 -89.85 -87.75 -92.25 -87.25 -94.4 -88.95 -96.55 -90.5 -97.1 -92.65 -97.75 -95.45 -99.9 -99.6 -101.95 -103.45 -108.05 -104.15 L-105.9 -87.55 -99.8 -88.45 -99.7 -86.55 Q-106.6 -86.3 -112.8 -84.65 L-113.1 -86.55 -107.1 -87.6 Q-108.75 -96.65 -113.45 -116.3 -118.45 -137.7 -119.85 -142.7 L-125.85 -141.8 -126.05 -143.35 -116.95 -144.9 Q-111.05 -146.15 -107.8 -147.15 L-107.5 -146.05 -113.75 -144.35 -108.15 -106.2 Q-102.35 -113.85 -94.75 -122.65 L-96.95 -123.8 Q-98.85 -124.7 -99.8 -125.5 L-99.0 -126.8" fill="#109c92" fill-rule="evenodd" stroke="none"/>
      <path d="M-26.9 -125.7 Q-22.15 -121.15 -21.8 -115.15 -21.45 -107.75 -25.95 -101.4 -30.5 -95.2 -35.85 -94.8 -42.05 -94.3 -47.7 -99.2 -53.5 -104.2 -54.4 -111.4 -55.25 -117.6 -51.0 -123.6 -46.75 -129.6 -40.1 -131.65 L-39.5 -130.75 Q-44.65 -129.4 -47.45 -124.1 -50.25 -118.9 -49.5 -113.0 -48.6 -105.15 -44.8 -100.35 -41.15 -95.7 -36.1 -96.05 -32.15 -96.3 -29.2 -101.6 -26.25 -106.95 -26.7 -113.6 -27.1 -120.0 -30.5 -124.3 -33.8 -128.5 -38.25 -128.2 -40.6 -128.0 -42.05 -126.05 -43.35 -124.1 -43.2 -121.9 -43.0 -120.5 -41.85 -119.55 -40.8 -118.7 -39.75 -118.7 -38.55 -118.75 -37.3 -119.9 -36.1 -120.95 -36.2 -121.85 -36.4 -123.75 -38.55 -123.65 -39.5 -123.6 -39.4 -122.6 -39.4 -122.2 -38.25 -121.7 -38.75 -120.7 -39.55 -120.7 -40.05 -120.6 -40.55 -121.1 L-41.15 -122.35 Q-41.2 -123.3 -40.4 -124.05 -39.5 -124.75 -38.55 -124.8 -37.3 -124.95 -36.25 -124.0 -35.2 -123.1 -35.05 -122.05 -34.85 -119.45 -36.15 -117.85 -37.45 -116.3 -39.7 -116.1 -41.4 -116.0 -42.6 -117.55 -43.9 -119.15 -44.2 -121.65 -44.5 -124.5 -42.2 -127.05 -39.95 -129.65 -37.2 -129.85 -31.75 -130.35 -26.9 -125.7" fill="#109c92" fill-rule="evenodd" stroke="none"/>
      <path d="M-0.55 -144.45 Q-0.75 -146.85 -1.8 -146.85 L-2.7 -146.15 Q-3.2 -145.55 -3.2 -144.6 -3.1 -143.4 -2.35 -142.65 -1.5 -141.9 -0.45 -141.9 1.1 -141.9 2.1 -143.35 3.2 -144.7 3.2 -146.6 3.2 -149.65 1.4 -151.85 -0.35 -154.05 -3.2 -154.05 -6.25 -153.9 -8.6 -150.85 -10.95 -147.6 -10.8 -143.25 -10.7 -140.0 -9.45 -131.65 -8.2 -123.75 -8.0 -121.25 -1.55 -121.65 3.8 -123.5 L3.85 -121.2 -7.7 -119.45 Q-6.45 -106.9 -6.25 -96.8 -2.75 -97.25 0.4 -98.45 L0.6 -96.4 -5.9 -95.5 -12.55 -94.35 -12.6 -96.45 -8.05 -96.7 Q-8.45 -109.45 -10.35 -119.05 L-16.85 -118.0 -16.95 -120.1 -10.6 -120.85 Q-11.15 -123.75 -13.45 -130.85 -15.95 -138.6 -16.0 -141.8 -16.2 -147.15 -12.25 -150.9 -8.15 -154.8 -3.0 -154.8 1.0 -154.85 3.6 -152.65 6.15 -150.6 6.15 -146.55 6.15 -144.65 4.05 -142.85 1.85 -140.95 -0.65 -140.95 -5.35 -140.95 -5.5 -144.9 -5.5 -145.9 -4.2 -146.85 -3.0 -147.8 -2.0 -147.8 -1.05 -147.8 -0.1 -147.25 0.7 -146.65 0.7 -145.85 L0.35 -145.1 Q0.0 -144.6 -0.55 -144.45" fill="#109c92" fill-rule="evenodd" stroke="none"/>
      <path d="M46.0 -144.2 Q45.75 -139.7 44.0 -132.8 L51.05 -134.15 55.4 -134.75 55.7 -132.3 50.1 -131.9 43.65 -130.9 Q43.25 -128.45 40.25 -118.55 37.35 -109.0 37.05 -105.25 36.65 -100.65 38.2 -98.15 39.75 -95.65 42.95 -95.35 45.25 -95.2 46.75 -97.25 48.25 -99.55 48.6 -102.85 48.7 -104.3 47.95 -105.7 47.2 -107.2 46.05 -107.35 45.1 -107.4 44.4 -106.45 43.6 -105.45 43.55 -104.2 43.5 -103.05 44.45 -103.0 45.55 -102.85 46.15 -104.6 L46.55 -104.2 Q46.35 -103.0 45.65 -102.25 44.9 -101.5 44.15 -101.55 42.9 -101.6 41.85 -102.55 40.75 -103.55 40.95 -104.85 41.0 -106.45 42.65 -107.75 44.2 -108.9 45.9 -108.85 48.05 -108.65 49.9 -106.95 51.85 -105.35 51.65 -103.55 51.25 -99.9 48.7 -96.8 46.25 -93.85 43.35 -94.05 39.0 -94.45 36.65 -97.45 34.3 -100.5 34.7 -105.25 34.95 -108.0 36.55 -117.8 38.3 -128.2 38.3 -129.7 L30.7 -128.1 30.85 -130.2 38.5 -131.55 38.8 -134.3 Q39.15 -139.05 38.8 -143.5 L46.0 -144.2" fill="#109c92" fill-rule="evenodd" stroke="none"/>
      <path d="M85.9 -113.4 Q84.85 -107.75 78.65 -101.05 L76.0 -97.7 Q75.05 -96.3 74.8 -94.35 74.35 -91.85 76.0 -90.4 77.7 -89.15 79.05 -88.8 80.35 -88.7 81.1 -89.45 82.0 -90.25 82.2 -91.55 82.5 -92.9 82.0 -94.35 81.6 -95.75 80.75 -95.9 79.6 -96.05 79.25 -93.85 79.05 -92.75 79.3 -92.35 77.25 -92.55 77.65 -94.6 77.95 -95.75 79.0 -96.45 80.15 -97.2 81.3 -97.1 L83.4 -96.0 Q84.75 -95.2 84.35 -93.25 83.75 -89.95 81.4 -87.95 79.05 -85.9 76.7 -86.3 75.15 -86.5 73.95 -88.8 72.7 -91.1 73.05 -93.3 73.6 -96.55 76.5 -101.5 79.45 -106.35 80.15 -110.3 82.45 -123.1 72.75 -124.35 69.45 -124.8 66.2 -121.8 62.95 -118.75 62.7 -116.95 L60.05 -92.35 65.6 -91.8 65.1 -89.7 59.85 -90.5 51.75 -90.85 51.9 -92.75 58.1 -92.4 Q59.4 -100.1 59.6 -119.75 59.85 -139.5 58.3 -151.7 L52.2 -151.8 52.25 -153.4 Q57.45 -152.95 70.45 -153.8 L70.3 -152.15 65.1 -151.9 Q65.1 -147.25 64.4 -138.1 L63.0 -120.25 Q65.3 -123.85 68.75 -125.75 72.45 -127.65 75.8 -127.2 81.2 -126.5 84.0 -122.15 86.7 -117.85 85.9 -113.4" fill="#109c92" fill-rule="evenodd" stroke="none"/>
      <path d="M103.05 -110.25 Q102.6 -108.6 104.75 -106.85 106.95 -105.1 110.35 -104.45 113.15 -103.8 115.35 -105.25 117.35 -106.65 118.2 -109.75 119.05 -112.95 117.35 -116.3 115.75 -119.65 112.15 -120.4 107.75 -121.2 103.45 -117.0 99.3 -112.65 97.5 -104.3 96.0 -97.5 98.35 -92.35 100.55 -87.2 105.45 -86.25 107.7 -85.8 110.35 -86.95 113.1 -88.2 113.7 -90.65 114.1 -92.3 112.85 -93.95 111.65 -95.35 109.6 -95.9 108.65 -96.05 107.6 -95.5 106.8 -94.95 106.45 -94.0 106.05 -92.3 108.0 -91.9 108.5 -91.8 109.05 -92.5 L109.8 -93.95 Q111.45 -93.55 111.1 -91.8 110.75 -90.65 109.6 -90.1 108.6 -89.45 107.6 -89.65 106.45 -89.85 105.7 -91.15 104.8 -92.55 105.2 -94.1 105.75 -96.3 107.45 -97.35 109.2 -98.25 111.25 -97.85 113.75 -97.4 114.95 -95.2 116.1 -93.05 115.4 -90.2 114.5 -86.95 111.15 -85.55 107.85 -84.2 104.65 -84.85 98.75 -86.05 94.75 -92.3 90.7 -98.55 92.2 -105.95 93.75 -113.25 100.25 -117.95 106.9 -122.8 113.05 -121.55 117.6 -120.65 120.7 -116.85 123.75 -113.2 122.9 -109.85 121.85 -105.95 117.9 -104.15 114.0 -102.35 109.2 -103.3 104.45 -104.25 102.25 -106.1 100.05 -107.85 100.5 -110.25 101.05 -112.45 102.9 -113.45 104.9 -114.45 106.65 -114.2 108.3 -113.85 109.3 -112.85 110.4 -111.8 110.1 -110.7 109.8 -109.55 108.7 -108.65 107.6 -107.85 106.8 -108.0 105.2 -108.35 105.45 -109.45 107.45 -109.6 107.7 -110.8 108.0 -111.75 107.3 -112.5 106.8 -113.2 105.8 -113.4 105.1 -113.45 104.2 -112.45 103.35 -111.55 103.05 -110.25" fill="#109c92" fill-rule="evenodd" stroke="none"/>
      <path d="M182.0 -109.55 Q179.25 -107.85 176.25 -108.8 174.1 -109.5 172.65 -111.0 171.4 -112.6 172.0 -114.15 172.55 -115.4 174.0 -116.3 175.5 -117.1 177.05 -116.55 179.7 -115.75 179.0 -113.85 178.2 -114.65 177.35 -114.9 176.25 -115.15 175.3 -112.85 175.05 -112.05 175.5 -111.15 175.95 -110.25 177.0 -109.85 180.65 -108.75 183.1 -114.8 184.1 -117.2 182.7 -119.65 181.4 -122.1 178.55 -123.05 174.75 -124.15 171.1 -122.4 167.35 -120.65 166.15 -117.3 165.2 -114.65 166.3 -111.4 167.4 -108.3 172.4 -102.95 L179.15 -95.05 Q181.1 -92.35 181.8 -89.35 182.55 -86.35 181.15 -83.1 178.5 -77.1 170.85 -73.5 163.25 -69.85 157.0 -71.8 152.35 -73.3 150.25 -78.05 148.15 -82.95 149.9 -87.8 151.35 -91.85 156.0 -94.0 160.6 -96.15 164.45 -95.0 167.8 -94.0 169.4 -91.6 170.85 -89.4 169.7 -86.55 168.55 -83.7 165.35 -82.25 162.25 -80.9 159.25 -81.85 158.05 -82.2 157.5 -83.4 157.0 -84.55 157.5 -85.75 157.85 -86.85 159.05 -87.35 L161.5 -87.45 Q162.55 -87.05 162.7 -86.1 160.45 -86.1 160.2 -85.3 159.4 -83.15 161.3 -82.6 162.8 -82.1 164.3 -83.4 166.0 -84.8 166.6 -86.5 167.6 -88.75 166.6 -90.95 165.7 -93.1 163.4 -93.85 160.3 -94.8 157.75 -92.55 155.1 -90.2 153.45 -85.75 151.95 -81.65 153.4 -78.05 154.7 -74.4 158.35 -73.2 163.85 -71.5 169.55 -74.15 175.25 -76.8 178.0 -83.35 179.3 -86.45 178.45 -89.05 177.55 -91.8 175.45 -94.05 L169.4 -99.65 163.1 -105.35 Q160.75 -107.75 159.55 -110.75 158.4 -113.65 159.6 -117.25 161.35 -122.1 167.1 -124.1 173.0 -126.0 179.25 -124.05 183.25 -122.8 185.25 -120.1 187.3 -117.45 186.1 -114.55 184.75 -111.3 182.0 -109.55" fill="#109c92" fill-rule="evenodd" stroke="none"/>
      <path d="M210.3 -91.15 Q205.95 -92.85 200.85 -89.4 195.85 -86.05 192.05 -78.15 189.05 -71.6 190.3 -66.2 191.5 -60.8 196.1 -58.9 L201.2 -58.7 Q204.2 -59.4 205.35 -61.65 206.25 -63.25 205.25 -65.0 204.3 -66.75 202.4 -67.5 L200.35 -67.6 Q199.35 -67.2 198.85 -66.3 198.1 -64.75 199.9 -64.0 200.5 -63.8 201.1 -64.3 L202.1 -65.65 Q203.8 -64.85 203.0 -63.3 202.45 -62.25 201.15 -61.85 199.9 -61.45 199.05 -61.85 198.1 -62.25 197.4 -63.75 196.8 -65.3 197.6 -66.65 198.6 -68.8 200.55 -69.4 L204.5 -69.2 Q206.95 -68.15 207.65 -65.9 208.3 -63.5 207.0 -60.9 205.35 -57.8 201.75 -57.2 198.25 -56.45 195.05 -57.7 189.4 -60.0 186.7 -66.85 184.0 -73.7 187.1 -80.75 190.25 -87.55 197.85 -90.95 205.55 -94.5 211.45 -92.1 215.8 -90.4 218.15 -86.05 220.5 -81.85 218.85 -78.8 216.95 -75.2 212.55 -74.15 208.2 -73.05 203.6 -74.95 199.15 -76.7 197.25 -78.95 195.35 -81.05 196.4 -83.4 197.35 -85.35 199.5 -86.1 201.7 -86.8 203.45 -86.1 205.0 -85.5 205.8 -84.3 206.65 -83.0 206.15 -82.0 205.6 -80.95 204.3 -80.3 203.0 -79.7 202.15 -80.0 200.75 -80.65 201.15 -81.7 203.05 -81.45 203.75 -82.6 204.2 -83.55 203.75 -84.3 203.3 -85.1 202.35 -85.5 201.7 -85.65 200.55 -84.85 199.5 -84.1 198.9 -82.9 198.15 -81.3 199.9 -79.25 201.7 -77.15 205.0 -75.85 L210.2 -75.7 Q212.7 -76.8 214.1 -79.55 215.6 -82.45 214.7 -86.1 213.65 -89.75 210.3 -91.15" fill="#109c92" fill-rule="evenodd" stroke="none"/>
      <path d="M232.75 -79.8 Q229.25 -78.0 226.45 -73.0 225.65 -71.6 226.0 -70.35 226.3 -69.05 227.45 -68.45 228.95 -67.85 231.15 -68.45 233.3 -69.2 234.2 -70.8 234.75 -71.6 234.25 -72.75 233.75 -73.8 232.7 -74.25 L231.7 -74.2 230.8 -73.45 Q230.3 -72.55 231.1 -72.2 L232.4 -71.95 Q231.25 -70.6 229.8 -71.3 228.95 -71.7 228.8 -72.45 228.6 -73.3 229.1 -74.15 229.65 -75.15 231.15 -75.65 L233.65 -75.6 Q238.8 -73.3 237.1 -70.5 235.8 -68.2 232.1 -67.45 L226.6 -67.6 Q224.4 -68.55 223.6 -70.4 222.75 -72.3 223.85 -74.25 226.1 -78.4 232.65 -80.9 239.15 -83.2 243.75 -81.15 247.4 -79.45 248.1 -75.25 248.85 -71.2 246.2 -66.9 244.25 -63.8 242.1 -62.1 239.75 -60.35 236.25 -58.3 227.3 -53.2 223.55 -46.85 L222.75 -45.35 Q222.05 -45.65 221.3 -46.05 L224.15 -50.7 Q218.0 -49.9 216.15 -50.7 213.75 -51.7 213.0 -53.9 212.3 -56.1 213.6 -58.5 214.75 -60.7 218.15 -61.45 221.45 -62.1 224.35 -60.8 225.6 -60.2 231.15 -58.2 237.2 -62.55 239.85 -66.95 246.0 -77.25 241.0 -79.55 236.4 -81.7 232.75 -79.8 M229.95 -57.2 L224.8 -58.95 220.85 -58.65 Q218.9 -57.75 218.15 -56.3 217.35 -54.9 217.55 -53.6 217.85 -52.35 219.05 -51.75 221.15 -50.8 225.4 -52.25 L229.95 -57.2" fill="#109c92" fill-rule="evenodd" stroke="none"/>
    </g>
  </defs>
</svg>
