<?xml version="1.0" encoding="UTF-8" standalone="no"?>
<svg xmlns:xlink="http://www.w3.org/1999/xlink" height="300.0px" width="300.0px" xmlns="http://www.w3.org/2000/svg">
  <g transform="matrix(1.0, 0.0, 0.0, 1.0, 0.0, 0.0)">
    <use height="226.95" transform="matrix(0.6284, 0.0, 0.0, 0.6284, 22.2709, 80.8095)" width="406.5" xlink:href="#sprite0"/>
  </g>
  <defs>
    <g id="sprite0" transform="matrix(1.0, 0.0, 0.0, 1.0, 203.25, 110.1)">
      <use height="226.95" transform="matrix(1.0, 0.0, 0.0, 1.0, -203.25, -110.1)" width="406.5" xlink:href="#shape0"/>
    </g>
    <g id="shape0" transform="matrix(1.0, 0.0, 0.0, 1.0, 203.25, 110.1)">
      <path d="M-133.15 80.3 L-131.55 80.05 Q-130.65 80.05 -130.1 80.4 -129.55 80.8 -129.55 81.4 -129.55 82.55 -131.25 82.6 -132.55 82.7 -132.55 83.5 L-132.15 84.95 Q-130.5 89.25 -125.2 105.8 L-124.85 106.35 -124.6 105.85 -117.3 81.4 -116.9 80.35 -116.35 80.1 Q-115.8 80.1 -115.45 81.15 L-107.25 106.05 -107.0 106.55 -106.65 106.0 -100.25 85.3 Q-99.95 84.4 -99.95 83.9 -99.95 82.6 -101.5 82.6 L-102.7 82.25 Q-103.2 81.9 -103.2 81.35 -103.2 80.75 -102.7 80.4 -102.1 80.05 -101.4 80.05 L-100.05 80.25 -98.05 80.45 -96.05 80.25 -94.0 80.05 Q-92.4 80.05 -92.4 81.25 -92.4 81.85 -92.9 82.2 L-93.95 82.5 Q-95.1 82.5 -96.1 83.35 -97.15 84.15 -97.6 85.55 -102.85 103.4 -106.6 115.05 L-106.9 116.05 Q-107.1 116.85 -107.75 116.85 -108.05 116.85 -108.35 116.55 L-109.0 115.15 -116.75 91.8 -117.15 91.0 -117.5 91.8 -124.4 115.15 Q-124.7 116.35 -125.0 116.55 L-125.6 116.8 Q-126.1 116.8 -126.25 116.45 L-126.8 115.05 -136.6 85.45 Q-137.1 84.1 -137.65 83.45 -138.3 82.8 -139.3 82.65 L-140.7 82.25 Q-141.0 82.05 -141.0 81.35 -141.0 80.1 -139.3 80.1 L-137.7 80.3 -135.35 80.5 -133.15 80.3" fill="#4d91c7" fill-rule="evenodd" stroke="none"/>
      <path d="M-85.85 80.1 Q-85.85 79.4 -85.1 79.4 -83.85 79.4 -83.1 80.45 -82.4 81.45 -81.1 84.4 L-74.4 99.5 -69.8 109.75 Q-68.8 111.7 -68.2 112.25 L-66.75 113.1 Q-65.8 113.4 -65.55 113.6 -65.25 113.9 -65.25 114.5 -65.25 115.35 -66.75 115.35 L-68.6 115.15 -71.3 115.0 -74.05 115.2 -76.05 115.35 -77.35 115.1 -77.8 114.3 -77.55 113.65 -75.95 113.25 Q-74.65 113.1 -74.3 112.7 -73.95 112.3 -73.95 111.65 -73.95 110.95 -75.3 107.95 -76.75 104.8 -77.05 104.7 L-78.35 104.5 -89.1 104.5 -90.25 104.1 -90.75 103.15 Q-90.75 102.75 -90.35 102.4 -89.95 102.1 -89.45 102.1 L-79.1 102.1 Q-78.2 102.1 -78.2 101.8 -78.2 101.55 -78.55 100.85 L-83.9 88.8 Q-84.35 87.65 -84.6 87.65 -84.9 87.65 -85.5 89.2 L-95.1 111.0 -95.3 111.75 -95.05 112.4 -93.7 113.0 Q-92.7 113.3 -92.4 113.6 L-92.15 114.25 Q-92.15 115.35 -93.6 115.35 L-95.25 115.15 -97.45 114.95 -99.25 115.15 -100.65 115.35 -101.65 115.0 Q-102.05 114.7 -102.05 114.25 L-101.8 113.45 -100.9 113.15 Q-99.1 112.85 -98.3 111.75 L-94.65 103.95 -88.8 90.9 -86.05 84.65 Q-85.4 83.2 -85.4 82.25 L-85.85 80.1" fill="#4d91c7" fill-rule="evenodd" stroke="none"/>
      <path d="M-67.15 80.0 L-48.35 80.0 Q-47.5 80.0 -47.0 81.7 -46.5 83.6 -46.5 84.9 -46.5 86.4 -47.45 86.4 L-48.1 86.15 -48.85 84.65 Q-49.35 83.3 -50.35 82.85 -51.3 82.4 -52.45 82.4 -54.1 82.4 -54.85 83.15 -55.6 83.9 -55.6 85.65 L-55.6 111.25 -55.25 112.25 Q-54.9 112.65 -53.75 113.05 -52.75 113.35 -52.4 113.6 -52.15 113.85 -52.15 114.15 -52.15 115.45 -53.5 115.45 L-55.6 115.25 -57.7 115.0 -59.55 115.2 -61.35 115.35 -62.65 115.05 Q-63.15 114.7 -63.15 114.1 L-63.0 113.55 Q-62.75 113.3 -61.7 113.0 -60.6 112.65 -60.25 112.0 -59.85 111.3 -59.85 110.45 L-59.85 84.6 Q-59.85 82.25 -63.0 82.25 -65.05 82.25 -65.95 83.15 L-66.7 84.8 Q-66.9 85.85 -67.2 86.15 -67.5 86.35 -67.85 86.35 L-68.55 86.15 -68.95 85.6 Q-68.95 82.95 -68.45 81.5 -68.0 80.0 -67.15 80.0" fill="#4d91c7" fill-rule="evenodd" stroke="none"/>
      <path d="M-37.7 84.05 L-37.7 89.15 Q-37.7 91.0 -37.2 91.5 -36.75 92.1 -35.25 92.1 L-28.8 92.1 Q-27.95 92.1 -27.6 91.45 -27.15 90.8 -27.15 90.0 L-26.85 89.3 -26.05 89.05 Q-25.55 89.05 -25.25 89.35 -24.9 89.7 -24.9 90.25 L-25.25 93.25 -25.05 95.2 -24.85 96.4 Q-24.85 97.0 -25.2 97.35 -25.55 97.7 -26.05 97.7 -26.5 97.7 -26.9 97.25 L-27.2 96.05 Q-27.2 95.2 -27.7 94.7 -28.2 94.35 -29.3 94.35 L-35.7 94.35 Q-36.6 94.35 -37.15 94.7 -37.7 95.0 -37.7 95.7 L-37.7 111.15 Q-37.7 112.35 -37.05 112.8 -36.4 113.2 -34.95 113.2 L-26.6 113.2 Q-25.35 113.2 -24.75 112.55 -24.1 111.9 -24.1 110.9 -24.1 110.0 -23.7 109.45 -23.3 108.9 -22.7 108.9 -22.15 108.9 -21.8 109.4 -21.4 109.95 -21.4 110.75 L-21.25 113.9 Q-21.25 114.9 -21.55 115.2 L-23.0 115.5 -42.55 115.5 -45.35 115.2 Q-46.15 114.9 -46.15 114.3 -46.15 113.3 -44.75 113.3 -43.0 113.3 -42.45 112.75 -41.9 112.1 -41.9 110.95 L-41.9 88.8 Q-41.9 85.25 -42.05 84.05 -42.15 82.9 -42.65 82.6 -43.05 82.25 -44.6 82.25 -45.5 82.25 -45.9 81.9 -46.4 81.6 -46.4 81.1 -46.4 80.65 -46.0 80.25 -45.6 79.9 -44.95 79.9 L-26.35 79.9 Q-25.2 79.9 -24.9 80.35 -24.55 80.75 -24.4 81.7 L-24.2 84.65 Q-24.2 85.6 -25.0 85.6 L-25.85 85.35 -26.6 83.9 Q-27.0 82.85 -27.5 82.45 -27.95 82.15 -28.5 82.15 L-35.15 82.15 Q-36.8 82.15 -37.25 82.65 -37.7 83.1 -37.7 84.05" fill="#4d91c7" fill-rule="evenodd" stroke="none"/>
      <path d="M-13.25 80.35 L-10.3 80.0 -6.6 79.65 Q-1.6 79.65 1.5 82.25 4.6 84.8 4.6 88.9 4.6 91.5 3.05 93.2 1.6 94.9 -2.25 96.35 L-2.95 96.95 -2.65 97.55 2.35 105.7 6.3 112.25 7.6 112.9 Q8.65 113.25 8.9 113.6 L9.2 114.35 Q9.2 114.95 8.45 115.3 7.8 115.7 7.3 115.7 6.1 115.7 4.6 114.85 3.0 114.05 2.5 113.4 L-3.7 103.55 -6.5 99.0 Q-7.85 97.15 -9.05 96.6 -9.25 96.5 -9.5 96.35 L-9.6 95.75 Q-9.6 94.7 -8.35 94.7 L-6.55 94.85 Q-3.85 94.85 -2.15 93.15 -0.35 91.45 -0.35 88.35 -0.35 86.15 -2.35 84.0 -4.4 81.85 -7.9 81.85 L-9.85 82.15 -10.65 82.9 -10.8 84.1 -10.8 111.2 Q-10.8 112.05 -10.1 112.5 -9.45 113.0 -8.3 113.0 L-6.65 113.3 Q-6.25 113.6 -6.25 114.2 -6.25 114.85 -6.75 115.2 L-8.3 115.55 -10.6 115.0 -12.8 114.5 Q-13.5 114.5 -14.8 115.0 L-16.95 115.5 Q-19.15 115.5 -19.15 114.15 -19.15 113.55 -18.8 113.35 L-17.0 113.1 Q-16.2 113.1 -15.55 112.7 -15.0 112.3 -15.0 111.75 L-15.0 84.2 Q-15.0 82.35 -17.5 82.2 -19.25 82.15 -19.25 81.1 -19.25 80.0 -17.25 80.0 L-15.2 80.15 -13.25 80.35" fill="#4d91c7" fill-rule="evenodd" stroke="none"/>
      <path d="M36.5 87.25 L36.65 88.1 36.85 89.2 Q36.85 90.0 35.85 90.0 L35.2 89.7 34.3 88.1 Q33.1 85.4 31.55 83.95 28.95 81.7 24.3 81.7 18.3 81.7 15.0 86.05 11.65 90.35 11.65 97.3 11.65 104.75 15.25 109.1 18.85 113.45 25.0 113.45 26.6 113.45 29.9 112.4 33.35 111.35 36.6 108.3 L37.7 107.65 Q38.05 107.65 38.35 107.95 L38.6 108.45 Q38.6 109.3 36.65 111.15 34.65 113.0 31.6 114.3 28.55 115.6 24.95 115.6 19.25 115.6 15.1 113.15 11.0 110.75 8.7 106.3 6.5 101.85 6.5 97.15 6.5 92.35 8.65 88.25 10.85 84.1 14.85 81.8 18.95 79.45 24.15 79.45 27.55 79.45 30.4 80.35 33.4 81.3 34.95 82.5 36.6 83.8 36.6 84.4 L36.5 87.25" fill="#4d91c7" fill-rule="evenodd" stroke="none"/>
      <path d="M46.6 84.1 L46.6 111.2 Q46.6 112.05 47.3 112.5 47.95 113.0 49.1 113.0 L50.75 113.3 Q51.15 113.6 51.15 114.2 51.15 114.85 50.65 115.2 L49.1 115.55 Q48.05 115.55 46.8 115.0 45.45 114.5 44.6 114.5 43.9 114.5 42.6 115.0 L40.45 115.5 Q38.25 115.5 38.25 114.15 38.25 113.55 38.6 113.35 L40.4 113.1 Q41.2 113.1 41.85 112.7 42.4 112.3 42.4 111.75 L42.4 84.2 Q42.4 82.35 39.9 82.2 38.15 82.15 38.15 81.1 38.15 80.0 40.15 80.0 L42.2 80.15 44.15 80.35 47.1 80.0 50.8 79.65 Q55.8 79.65 58.9 82.25 62.0 84.8 62.0 88.9 62.0 91.5 60.45 93.2 59.0 94.9 55.15 96.35 L54.45 96.95 54.75 97.55 59.8 105.7 63.7 112.25 65.0 112.9 Q66.05 113.25 66.3 113.6 L66.6 114.35 Q66.6 114.95 65.85 115.3 L64.7 115.7 Q63.5 115.7 62.0 114.85 L59.9 113.4 53.7 103.55 50.9 99.0 Q49.55 97.15 48.35 96.6 L47.9 96.35 47.8 95.75 Q47.8 94.7 49.05 94.7 L50.85 94.85 Q53.55 94.85 55.25 93.15 57.05 91.45 57.05 88.35 57.05 86.15 55.05 84.0 53.0 81.85 49.5 81.85 L47.55 82.15 Q46.9 82.5 46.75 82.9 46.6 83.35 46.6 84.1" fill="#4d91c7" fill-rule="evenodd" stroke="none"/>
      <path d="M69.25 80.25 L71.55 80.5 73.85 80.75 76.0 80.55 78.1 80.3 Q79.3 80.3 79.3 81.3 L79.0 82.15 77.7 82.55 Q76.75 82.7 76.3 83.55 75.9 84.3 75.9 86.0 L75.9 111.0 Q75.9 111.75 76.2 112.25 76.5 112.8 77.65 113.1 78.8 113.4 79.0 113.7 L79.25 114.5 Q79.25 115.35 77.75 115.35 L75.8 115.15 73.8 114.9 71.9 115.1 69.95 115.3 Q68.15 115.3 68.15 114.15 L68.35 113.55 Q68.5 113.35 69.7 113.1 70.85 112.95 71.25 112.1 71.65 111.15 71.65 110.2 L71.65 85.2 Q71.65 83.8 71.1 83.25 70.45 82.7 69.7 82.5 L68.5 82.0 Q68.2 81.8 68.2 81.1 68.2 80.75 68.5 80.5 68.9 80.25 69.25 80.25" fill="#4d91c7" fill-rule="evenodd" stroke="none"/>
      <path d="M82.2 81.1 Q82.2 80.65 82.65 80.35 L83.8 80.1 96.85 80.1 Q100.25 80.1 103.15 82.3 106.05 84.55 106.05 88.1 106.05 90.0 104.75 91.45 103.4 92.95 101.15 93.7 L100.75 93.95 101.15 94.15 Q105.5 94.8 108.65 97.95 111.8 101.05 111.8 105.15 111.8 109.6 108.0 112.45 104.3 115.35 97.1 115.35 L84.0 115.25 Q82.25 115.2 82.25 114.25 L82.5 113.55 Q82.8 113.15 84.0 113.1 85.25 112.95 85.6 112.35 L85.95 110.95 85.95 84.35 Q85.95 83.35 85.6 82.8 85.3 82.25 84.05 82.25 L82.5 81.95 Q82.2 81.65 82.2 81.1 M90.85 82.75 Q89.95 83.2 89.95 84.65 L89.95 90.75 Q89.95 92.55 91.0 93.0 L94.3 93.4 Q97.5 93.4 99.55 91.85 101.65 90.3 101.65 87.6 101.65 85.1 99.55 83.65 97.5 82.2 94.3 82.2 91.85 82.2 90.85 82.75 M106.85 104.3 Q106.85 100.35 103.45 97.95 100.0 95.5 95.0 95.5 92.75 95.5 91.45 96.1 90.2 96.7 90.2 97.8 L90.2 110.55 Q90.2 112.05 90.45 112.5 90.75 113.05 91.7 113.2 L95.15 113.35 Q100.5 113.35 103.7 110.95 106.85 108.55 106.85 104.3" fill="#4d91c7" fill-rule="evenodd" stroke="none"/>
      <path d="M121.05 83.25 Q119.15 84.75 119.15 86.45 119.15 87.6 120.0 88.9 120.8 90.1 124.25 92.6 130.75 97.15 133.05 100.1 135.2 102.9 135.2 106.2 135.2 110.8 131.65 113.35 128.15 115.9 123.85 115.9 121.0 115.9 117.7 114.65 114.55 113.4 114.55 112.0 L114.7 108.4 114.55 106.35 Q114.55 105.45 115.6 105.45 116.75 105.45 116.9 107.2 117.2 110.15 119.0 111.8 120.75 113.45 123.95 113.45 127.1 113.45 129.2 111.65 131.3 109.85 131.3 106.95 131.3 105.2 129.9 103.3 128.5 101.35 122.5 97.05 L118.65 94.1 Q117.2 92.9 116.25 91.2 115.3 89.6 115.3 87.4 115.3 83.95 118.45 81.7 121.6 79.4 125.65 79.4 127.9 79.4 130.6 80.55 133.25 81.75 133.25 83.25 L133.2 85.35 133.3 86.3 Q133.3 87.9 132.2 87.9 L131.45 87.5 Q131.05 87.1 131.05 86.7 131.05 84.25 129.45 83.1 127.85 81.8 125.55 81.8 122.95 81.8 121.05 83.25" fill="#4d91c7" fill-rule="evenodd" stroke="none"/>
      <path d="M-199.95 -76.2 L-173.35 -76.2 Q-166.5 -76.2 -160.5 -71.65 -154.65 -67.15 -154.65 -59.9 -154.65 -55.95 -157.3 -53.0 -159.85 -50.05 -164.65 -48.4 L-165.4 -47.9 -164.65 -47.55 Q-155.6 -46.05 -149.25 -39.75 -142.9 -33.45 -142.9 -25.0 -142.9 -16.0 -150.6 -10.15 -158.3 -4.25 -172.9 -4.25 -194.8 -4.25 -199.6 -4.45 -203.15 -4.65 -203.15 -6.45 -203.15 -7.4 -202.65 -7.95 -202.15 -8.6 -199.6 -8.9 -197.1 -9.2 -196.35 -10.4 -195.6 -11.5 -195.6 -13.2 L-195.6 -67.55 Q-195.6 -69.45 -196.3 -70.6 -196.95 -71.8 -199.45 -71.8 -201.95 -71.8 -202.65 -72.4 -203.25 -73.05 -203.25 -74.2 -203.25 -75.1 -202.3 -75.6 -201.3 -76.2 -199.95 -76.2 M-187.45 -66.85 L-187.45 -54.4 Q-187.45 -50.75 -185.35 -49.85 -183.2 -49.0 -178.6 -49.0 -172.1 -49.0 -167.9 -52.25 -163.6 -55.5 -163.6 -60.9 -163.6 -66.1 -167.8 -68.95 -172.15 -71.85 -178.6 -71.85 -183.7 -71.85 -185.6 -70.8 -187.45 -69.7 -187.45 -66.85 M-187.0 -14.05 Q-187.0 -11.15 -186.4 -10.05 -185.85 -9.0 -183.9 -8.6 L-176.9 -8.3 Q-165.95 -8.3 -159.45 -13.2 -152.95 -18.05 -152.95 -26.75 -152.95 -34.75 -159.9 -39.75 -166.85 -44.7 -177.2 -44.7 -181.75 -44.7 -184.4 -43.5 -187.0 -42.25 -187.0 -40.1 L-187.0 -14.05" fill="#000000" fill-rule="evenodd" stroke="none"/>
      <path d="M-25.25 -18.8 Q-30.6 -9.8 -39.2 -6.05 -47.9 -2.35 -57.5 -2.35 -73.25 -2.35 -83.7 -13.25 -94.1 -24.2 -94.2 -41.05 -94.2 -49.9 -89.55 -58.55 -84.95 -67.1 -76.5 -72.15 -68.0 -77.1 -57.0 -77.1 -39.7 -77.15 -29.85 -65.3 -19.95 -53.45 -19.95 -38.75 -19.95 -27.75 -25.25 -18.8 M-30.2 -37.25 Q-30.2 -54.4 -37.45 -63.6 -44.7 -72.7 -56.95 -72.65 -69.65 -72.65 -76.85 -63.3 -84.0 -53.85 -83.95 -41.1 -83.95 -7.0 -57.2 -7.0 -47.85 -7.05 -41.7 -11.15 -35.55 -15.3 -32.85 -21.25 -30.2 -27.3 -30.2 -37.25" fill="#000000" fill-rule="evenodd" stroke="none"/>
      <path d="M-100.35 -105.3 Q-102.65 -104.65 -103.2 -102.85 -103.75 -101.3 -103.45 -99.15 L-96.85 -59.5 Q-95.6 -52.25 -96.6 -48.1 -97.55 -44.15 -100.85 -40.65 -104.05 -37.2 -108.7 -35.05 -113.2 -32.95 -119.1 -31.95 -129.35 -30.25 -137.05 -34.15 -144.65 -38.05 -146.15 -46.9 L-153.7 -92.45 Q-153.9 -93.85 -154.85 -94.7 -155.7 -95.45 -158.3 -95.4 -160.85 -95.25 -161.5 -95.75 -162.15 -96.25 -162.3 -97.1 -162.45 -98.1 -161.7 -98.85 -160.9 -99.6 -159.8 -99.8 L-155.7 -100.0 -151.7 -100.25 Q-150.1 -100.45 -147.2 -101.45 L-142.75 -102.7 -139.95 -102.6 Q-138.75 -102.15 -138.6 -101.05 -138.45 -100.0 -138.85 -99.4 -139.25 -98.65 -141.35 -98.15 -143.45 -97.6 -144.5 -96.65 -145.5 -95.6 -145.05 -92.85 L-137.65 -48.55 Q-136.6 -42.0 -131.3 -38.9 -126.0 -35.85 -118.8 -37.05 -114.4 -37.75 -110.1 -40.0 -106.0 -42.25 -103.3 -45.75 -100.65 -49.3 -101.1 -54.3 -101.05 -55.5 -101.8 -60.2 L-108.3 -99.35 Q-109.05 -103.85 -114.55 -102.95 -117.3 -102.5 -117.7 -104.75 -118.05 -106.9 -114.55 -107.5 L-111.25 -107.65 -108.05 -107.8 Q-106.7 -108.0 -103.95 -108.95 L-99.95 -110.05 -97.9 -109.8 Q-96.95 -109.35 -96.8 -108.55 -96.55 -107.1 -97.25 -106.6 -97.95 -106.05 -100.35 -105.3" fill="#000000" fill-rule="evenodd" stroke="none"/>
      <path d="M18.65 -71.2 L16.05 -71.7 Q13.9 -71.75 13.25 -72.35 12.6 -72.95 12.6 -73.95 12.6 -75.0 13.85 -75.6 15.05 -76.2 16.55 -76.2 L20.45 -75.8 24.45 -75.35 28.05 -75.75 31.55 -76.15 Q32.75 -76.15 33.85 -75.55 34.9 -74.95 34.9 -74.05 34.9 -71.65 31.25 -71.65 28.65 -71.65 26.75 -70.4 24.85 -69.25 22.55 -65.4 L20.0 -61.15 Q6.2 -38.5 6.2 -36.6 L6.2 -15.55 Q6.2 -10.6 6.85 -9.6 7.5 -8.55 9.55 -8.0 11.55 -7.55 12.05 -7.0 12.45 -6.5 12.45 -5.8 12.45 -4.8 11.65 -4.15 10.85 -3.45 9.85 -3.45 L6.2 -3.9 2.45 -4.35 -1.05 -3.9 -4.45 -3.45 Q-6.05 -3.45 -7.25 -4.05 -8.4 -4.65 -8.4 -5.7 L-7.95 -7.2 Q-7.5 -7.8 -5.75 -8.15 -4.0 -8.45 -3.3 -9.15 -2.65 -9.8 -2.55 -10.55 L-2.45 -14.2 -2.45 -37.85 Q-2.45 -38.85 -3.05 -39.7 L-20.95 -65.15 Q-23.2 -68.35 -24.95 -69.85 -26.6 -71.25 -29.3 -71.25 -32.75 -71.25 -32.75 -73.75 -32.75 -76.1 -29.4 -76.1 L-24.45 -75.65 -19.5 -75.2 -15.3 -75.65 -11.0 -76.1 Q-6.2 -76.1 -6.2 -73.75 -6.2 -72.8 -6.8 -72.2 -7.45 -71.6 -9.55 -71.4 L-12.25 -70.75 Q-12.75 -70.3 -12.75 -69.65 -12.75 -68.05 -4.85 -57.45 L0.2 -50.3 Q4.1 -44.6 4.35 -44.6 L5.3 -45.6 6.55 -47.6 Q19.15 -67.75 19.15 -70.1 19.15 -70.85 18.65 -71.2" fill="#000000" fill-rule="evenodd" stroke="none"/>
      <path d="M124.1 6.35 Q121.5 6.35 119.6 7.6 117.7 8.75 115.4 12.6 L112.85 16.85 Q99.0 39.6 99.0 41.4 L99.0 62.45 Q99.0 67.3 99.7 68.4 100.35 69.45 102.4 70.0 104.45 70.45 104.85 71.0 105.3 71.45 105.3 72.2 105.3 73.15 104.5 73.85 103.7 74.55 102.7 74.55 L99.0 74.1 95.3 73.65 91.8 74.1 88.35 74.55 Q86.8 74.55 85.6 73.95 84.4 73.35 84.4 72.3 84.4 71.5 84.85 70.8 85.3 70.25 87.1 69.85 88.85 69.55 89.55 68.85 90.25 68.1 90.3 67.45 L90.4 63.8 90.4 40.15 Q90.4 39.15 89.8 38.3 L71.9 12.85 Q69.45 9.5 67.9 8.15 66.2 6.75 63.5 6.75 60.1 6.75 60.1 4.25 60.1 1.9 63.4 1.9 L68.35 2.35 73.3 2.8 77.55 2.35 81.8 1.9 Q86.65 1.9 86.65 4.25 86.65 5.2 86.05 5.8 85.3 6.4 83.25 6.6 81.2 6.8 80.6 7.25 80.1 7.7 80.1 8.35 80.1 10.05 88.0 20.55 L93.0 27.7 97.2 33.4 98.15 32.4 99.35 30.4 Q112.0 10.25 112.0 7.9 112.0 7.15 111.5 6.8 L108.85 6.3 Q106.75 6.25 106.1 5.65 105.45 5.05 105.45 4.05 105.45 3.0 106.65 2.4 107.95 1.8 109.4 1.8 L113.3 2.2 117.3 2.65 120.9 2.25 124.35 1.85 Q125.6 1.85 126.65 2.45 127.75 3.05 127.75 3.95 127.75 6.35 124.1 6.35" fill="#000000" fill-rule="evenodd" stroke="none"/>
      <path d="M59.0 -67.45 L72.65 -36.55 Q79.85 -20.15 82.05 -15.7 84.15 -11.55 85.3 -10.55 86.65 -9.35 88.35 -8.85 90.1 -8.3 90.75 -7.8 91.4 -7.3 91.4 -6.05 91.4 -4.3 88.3 -4.3 L84.5 -4.65 79.05 -4.95 73.4 -4.6 69.35 -4.2 Q67.7 -4.2 66.7 -4.8 65.7 -5.3 65.7 -6.35 65.7 -7.2 66.3 -7.75 66.95 -8.35 69.5 -8.55 72.05 -8.75 72.85 -9.65 73.65 -10.5 73.65 -11.8 73.65 -13.15 70.8 -19.4 68.0 -25.65 67.3 -26.0 L64.65 -26.4 42.65 -26.4 Q41.45 -26.4 40.35 -27.25 39.3 -28.05 39.3 -29.15 39.3 -29.95 40.1 -30.65 41.0 -31.3 41.95 -31.3 L63.15 -31.3 Q64.9 -31.3 64.9 -31.95 L64.2 -33.85 53.3 -58.45 Q52.35 -60.75 51.85 -60.75 51.25 -60.75 50.05 -57.6 L30.45 -13.2 Q30.05 -12.35 30.05 -11.55 30.05 -10.75 30.6 -10.25 31.25 -9.6 33.3 -9.05 35.45 -8.45 35.95 -7.85 36.5 -7.2 36.5 -6.5 36.5 -4.2 33.55 -4.2 L30.15 -4.65 25.7 -5.05 21.95 -4.7 19.15 -4.3 Q18.0 -4.3 17.1 -4.95 16.3 -5.65 16.3 -6.5 16.3 -7.75 16.8 -8.15 17.35 -8.55 18.65 -8.75 22.5 -9.45 23.9 -11.65 25.4 -14.05 31.35 -27.55 L43.3 -54.2 48.95 -66.9 Q50.2 -69.9 50.2 -71.75 L49.75 -73.9 49.35 -76.15 Q49.35 -77.55 50.85 -77.55 53.4 -77.55 54.9 -75.45 56.55 -73.05 59.0 -67.45" fill="#000000" fill-rule="evenodd" stroke="none"/>
      <path d="M135.05 -72.0 Q134.05 -72.55 134.05 -73.5 134.05 -74.65 135.0 -75.25 136.0 -75.95 137.1 -75.95 L141.1 -75.35 145.65 -74.75 149.55 -75.2 153.1 -75.65 Q156.05 -75.65 156.05 -73.3 156.05 -71.4 153.1 -71.4 150.45 -71.4 149.3 -70.6 148.1 -69.75 147.8 -68.7 147.55 -67.45 147.55 -65.85 L147.55 -16.6 Q147.55 -11.65 148.65 -9.0 149.7 -6.3 149.7 -4.7 149.7 -3.2 148.35 -3.2 147.35 -3.2 146.95 -3.6 146.65 -3.8 145.45 -5.35 L104.35 -59.65 103.15 -60.5 Q102.4 -60.5 102.4 -58.6 L102.4 -13.15 Q102.4 -11.05 104.15 -9.85 105.9 -8.6 107.5 -8.6 111.45 -8.6 111.45 -6.0 111.45 -5.2 111.0 -4.7 110.5 -4.2 108.95 -4.2 L104.2 -4.65 100.15 -5.05 95.8 -4.65 91.95 -4.2 Q89.45 -4.2 89.45 -6.55 89.45 -8.5 92.4 -8.5 94.8 -8.5 96.3 -9.85 97.75 -11.2 97.75 -13.7 L97.75 -66.2 Q97.75 -68.5 96.5 -70.0 95.3 -71.45 93.4 -71.45 90.85 -71.45 90.0 -72.0 89.15 -72.55 89.15 -73.7 89.15 -75.75 91.65 -75.75 L93.85 -75.45 96.85 -75.2 98.9 -75.45 100.95 -75.75 Q102.4 -75.75 104.45 -73.4 L118.85 -54.75 140.65 -25.65 Q141.15 -24.95 141.7 -24.95 142.75 -24.95 142.75 -27.6 L142.75 -66.95 Q142.75 -69.0 141.35 -70.2 140.0 -71.4 137.8 -71.4 136.1 -71.4 135.05 -72.0" fill="#000000" fill-rule="evenodd" stroke="none"/>
      <path d="M203.25 -66.35 Q203.25 -63.35 201.3 -63.35 200.6 -63.35 200.05 -63.8 199.4 -64.3 198.45 -66.9 197.5 -69.55 195.45 -70.55 193.3 -71.5 191.1 -71.5 187.8 -71.5 186.25 -69.95 184.75 -68.35 184.75 -64.9 L184.75 -12.65 Q184.75 -11.5 185.45 -10.55 186.25 -9.6 188.45 -8.95 190.75 -8.35 191.2 -7.8 191.7 -7.3 191.7 -6.65 191.7 -4.05 189.0 -4.05 L184.65 -4.5 180.45 -4.95 176.7 -4.6 172.95 -4.2 Q171.45 -4.2 170.35 -4.9 169.25 -5.6 169.25 -6.85 169.25 -7.4 169.65 -7.95 170.1 -8.4 172.3 -9.05 174.5 -9.75 175.25 -11.1 176.05 -12.6 176.05 -14.2 L176.05 -67.0 Q176.05 -71.8 169.6 -71.8 165.4 -71.8 163.65 -69.9 162.6 -68.85 162.05 -66.55 161.6 -64.3 161.05 -63.85 160.5 -63.45 159.8 -63.45 159.05 -63.45 158.25 -63.85 157.55 -64.25 157.55 -64.95 157.55 -70.25 158.45 -73.35 159.45 -76.35 161.2 -76.35 L199.5 -76.35 Q201.25 -76.35 202.2 -72.85 203.25 -69.4 203.25 -66.35" fill="#000000" fill-rule="evenodd" stroke="none"/>
      <path d="M-75.9 25.25 Q-78.65 28.3 -83.25 29.85 L-84.0 30.35 -83.25 30.7 Q-74.2 32.2 -67.85 38.5 -61.5 44.8 -61.5 53.25 -61.5 62.25 -69.2 68.15 -76.9 74.0 -91.5 74.0 -115.0 74.0 -118.2 73.8 -121.8 73.65 -121.8 71.8 -121.8 70.95 -121.25 70.3 -120.75 69.65 -118.2 69.35 -115.7 69.05 -114.95 67.9 -114.25 66.65 -114.25 65.05 L-114.25 10.75 Q-114.25 8.75 -114.9 7.65 -115.6 6.5 -118.1 6.5 -120.5 6.5 -121.25 5.85 -121.85 5.2 -121.85 4.1 -121.85 3.15 -120.9 2.65 -120.0 2.1 -118.55 2.1 L-91.95 2.1 Q-85.0 2.1 -79.1 6.6 -73.25 11.1 -73.25 18.35 -73.25 22.2 -75.9 25.25 M-97.25 6.45 Q-102.4 6.45 -104.2 7.45 -106.05 8.55 -106.05 11.4 L-106.05 23.85 Q-106.05 27.6 -103.95 28.4 -101.95 29.25 -97.25 29.25 -90.75 29.25 -86.5 26.05 -82.2 22.8 -82.2 17.4 -82.2 12.2 -86.45 9.3 -90.65 6.45 -97.25 6.45 M-105.6 38.2 L-105.6 64.2 Q-105.6 67.1 -105.0 68.2 -104.45 69.25 -102.5 69.65 L-95.5 69.95 Q-84.45 69.95 -78.05 65.05 -71.55 60.15 -71.55 51.5 -71.55 43.5 -78.5 38.5 -85.45 33.55 -95.8 33.55 -100.35 33.55 -103.0 34.75 -105.6 35.95 -105.6 38.2" fill="#000000" fill-rule="evenodd" stroke="none"/>
      <path d="M-32.05 6.55 L-32.45 4.4 -32.9 2.15 Q-32.9 0.7 -31.35 0.7 -28.85 0.7 -27.35 2.85 -25.85 4.85 -23.25 10.8 L-9.6 41.7 -0.15 62.55 Q1.85 66.6 3.1 67.7 4.25 68.85 6.1 69.4 7.9 70.0 8.5 70.45 9.15 70.95 9.15 72.25 9.15 73.95 6.05 73.95 L2.25 73.65 -3.2 73.3 -8.85 73.7 -12.9 74.05 -15.55 73.5 Q-16.55 72.9 -16.55 71.9 -16.55 71.05 -15.95 70.5 -15.4 70.0 -12.75 69.7 -10.15 69.5 -9.35 68.6 -8.6 67.8 -8.6 66.45 -8.6 65.15 -11.4 58.85 -14.25 52.6 -14.9 52.25 L-17.55 51.85 -39.6 51.85 Q-40.9 51.85 -41.9 51.05 -42.95 50.25 -42.95 49.1 -42.95 48.3 -42.1 47.6 -41.2 46.95 -40.25 46.95 L-19.1 46.95 Q-17.35 46.95 -17.35 46.35 -17.35 45.9 -18.0 44.4 L-28.9 19.8 Q-29.95 17.55 -30.4 17.55 -31.0 17.55 -32.2 20.7 L-51.8 65.1 Q-52.2 66.05 -52.2 66.7 -52.2 67.4 -51.65 68.05 -51.1 68.6 -48.95 69.2 -46.8 69.8 -46.3 70.4 -45.75 70.95 -45.75 71.75 -45.75 74.05 -48.7 74.05 L-52.1 73.65 -56.55 73.2 -60.3 73.6 -63.1 73.95 Q-64.4 73.95 -65.1 73.3 -65.9 72.65 -65.9 71.8 -65.9 70.45 -65.4 70.1 -64.95 69.75 -63.6 69.5 -59.85 68.9 -58.35 66.65 -57.05 64.7 -50.85 50.7 L-38.95 24.1 Q-34.4 14.3 -33.3 11.4 -32.05 8.3 -32.05 6.55" fill="#000000" fill-rule="evenodd" stroke="none"/>
      <path d="M29.55 7.45 Q27.7 8.5 27.7 11.4 L27.7 23.85 Q27.7 27.6 29.8 28.4 31.8 29.25 36.5 29.25 42.95 29.25 47.25 26.05 51.5 22.85 51.5 17.4 51.5 12.25 47.3 9.3 43.1 6.45 36.5 6.45 31.35 6.45 29.55 7.45 M15.15 2.1 L41.8 2.1 Q48.75 2.1 54.6 6.6 60.5 11.1 60.5 18.35 60.5 22.2 57.85 25.25 55.1 28.3 50.5 29.85 L49.75 30.35 50.5 30.7 Q59.55 32.2 65.85 38.5 72.25 44.85 72.25 53.25 72.25 62.2 64.5 68.15 56.8 74.0 42.25 74.0 18.7 74.0 15.55 73.8 11.95 73.65 11.95 71.8 11.95 70.95 12.45 70.3 12.95 69.65 15.5 69.35 18.0 69.05 18.75 67.9 19.5 66.7 19.5 65.05 L19.5 10.75 Q19.5 8.8 18.8 7.65 18.15 6.5 15.65 6.5 13.25 6.5 12.5 5.85 11.85 5.2 11.85 4.1 11.85 3.2 12.8 2.65 13.7 2.1 15.15 2.1 M30.75 34.75 Q28.15 35.95 28.15 38.2 L28.15 64.2 Q28.15 67.1 28.75 68.2 29.25 69.25 31.25 69.65 L38.25 69.95 Q49.25 69.95 55.7 65.05 62.15 60.2 62.15 51.5 62.15 43.45 55.2 38.5 48.3 33.55 37.95 33.55 33.4 33.55 30.75 34.75" fill="#000000" fill-rule="evenodd" stroke="none"/>
    </g>
  </defs>
</svg>
