<?xml version="1.0" encoding="UTF-8" standalone="no"?>
<svg xmlns:xlink="http://www.w3.org/1999/xlink" height="300.0px" width="300.0px" xmlns="http://www.w3.org/2000/svg">
  <g transform="matrix(1.0, 0.0, 0.0, 1.0, 0.0, 0.0)">
    <use height="287.25" transform="matrix(0.65, 0.0, 0.0, 0.65, 1.5964, 70.7609)" width="473.4" xlink:href="#sprite0"/>
  </g>
  <defs>
    <g id="sprite0" transform="matrix(1.0, 0.0, 0.0, 1.0, 236.7, 143.6)">
      <use height="287.25" transform="matrix(1.0, 0.0, 0.0, 1.0, -236.7, -143.6)" width="473.4" xlink:href="#shape0"/>
    </g>
    <g id="shape0" transform="matrix(1.0, 0.0, 0.0, 1.0, 236.7, 143.6)">
      <path d="M96.0 -106.9 Q100.15 -101.95 100.15 -95.25 100.15 -85.35 92.5 -78.45 85.7 -72.35 75.4 -70.5 L75.4 -76.85 Q90.85 -81.2 90.45 -93.85 L90.15 -93.85 Q89.5 -92.6 87.3 -91.95 L83.15 -91.45 Q79.6 -91.45 76.9 -94.05 74.05 -96.8 74.05 -100.85 74.05 -105.65 77.25 -108.85 80.5 -112.1 85.25 -112.1 91.65 -112.1 96.0 -106.9 M26.25 -109.05 L60.0 -109.05 60.0 -25.05 Q60.0 -21.5 61.25 -20.0 62.65 -18.4 66.05 -18.4 L73.95 -18.4 73.95 -8.35 42.05 -8.35 42.05 -20.8 41.75 -20.8 Q37.3 -13.2 31.35 -9.6 25.55 -6.1 17.9 -6.1 3.1 -6.1 -5.05 -18.0 -12.15 -28.35 -12.15 -43.9 -12.15 -58.85 -4.25 -69.8 4.35 -81.7 17.9 -81.7 26.1 -81.7 33.0 -77.3 38.6 -73.75 41.75 -68.65 L42.05 -68.65 42.05 -92.35 Q42.05 -95.85 40.7 -97.4 39.3 -99.05 35.85 -99.05 L26.25 -99.05 26.25 -109.05 M12.2 -63.45 Q8.2 -56.9 8.2 -43.9 8.2 -17.95 23.85 -17.95 31.9 -17.95 36.75 -24.5 42.05 -31.6 42.05 -44.8 42.05 -56.75 36.75 -63.55 31.8 -69.9 23.85 -69.9 16.15 -69.9 12.2 -63.45 M138.25 -66.6 Q132.7 -70.8 124.0 -70.8 119.55 -70.8 116.35 -68.95 112.45 -66.75 112.45 -62.6 112.45 -58.8 119.95 -56.2 124.4 -54.6 136.4 -51.55 147.35 -48.3 152.8 -43.95 160.3 -38.0 160.3 -28.55 160.3 -17.35 151.75 -11.35 144.25 -6.1 132.5 -6.1 124.8 -6.1 119.1 -7.65 112.1 -9.5 107.15 -13.85 L104.1 -8.35 94.05 -8.35 94.05 -36.15 105.15 -36.15 Q107.4 -26.3 114.1 -21.2 120.65 -16.25 130.8 -16.25 135.35 -16.25 138.75 -18.45 142.65 -21.05 142.65 -25.35 142.65 -30.2 135.15 -33.05 L118.75 -37.55 Q107.6 -40.45 102.3 -44.3 94.8 -49.75 94.8 -58.95 94.8 -69.55 103.7 -75.95 111.65 -81.7 122.6 -81.7 133.95 -81.7 144.95 -74.3 L148.0 -79.45 156.35 -79.45 156.35 -54.1 146.45 -54.1 Q143.7 -62.5 138.25 -66.6 M115.05 72.85 Q118.4 69.85 122.25 69.85 125.15 69.85 127.2 71.45 129.45 73.2 129.45 76.05 129.45 78.3 128.15 79.55 126.85 80.8 124.55 80.8 122.95 80.8 121.95 79.7 120.95 78.65 120.95 77.05 120.95 75.25 122.8 73.75 L120.25 73.4 Q118.55 73.5 117.15 75.15 119.45 79.05 119.45 81.9 119.45 88.05 114.95 91.35 110.85 94.35 104.3 94.35 100.45 94.35 97.6 93.2 97.1 93.35 96.7 93.85 96.3 94.4 96.3 95.1 96.3 96.2 97.6 96.9 98.65 97.5 99.65 97.5 L113.0 97.5 Q124.5 97.5 124.5 105.7 124.5 111.35 118.75 113.7 114.2 115.55 105.3 115.55 88.75 115.55 88.75 109.1 88.75 107.0 90.55 105.7 92.0 104.6 94.25 104.2 L94.25 104.05 Q92.2 103.35 90.8 101.85 89.25 100.2 89.25 98.15 89.25 95.4 90.8 93.85 91.95 92.6 94.9 91.45 92.6 89.8 91.55 87.4 90.45 85.0 90.45 81.45 90.45 75.9 95.15 72.7 99.3 69.85 105.05 69.85 109.95 69.85 115.05 72.85 M86.35 94.0 Q86.35 98.9 84.2 100.75 82.05 102.6 76.55 102.6 74.05 102.6 72.15 101.45 70.05 100.2 69.3 97.95 65.4 102.6 59.15 102.6 54.25 102.6 51.75 100.55 49.05 98.3 49.05 93.45 49.05 89.3 52.1 87.3 54.15 85.95 58.8 85.2 L65.5 83.8 Q68.55 82.6 68.55 79.75 68.55 73.95 62.2 73.95 58.95 73.95 57.0 75.2 L57.0 75.35 Q58.7 75.55 59.8 76.4 61.15 77.35 61.15 78.95 61.15 81.0 59.55 82.1 58.1 83.1 55.95 83.1 53.55 83.1 51.9 81.8 50.2 80.45 50.2 78.2 50.2 73.4 55.85 71.3 59.7 69.85 65.45 69.85 72.7 69.85 75.8 72.1 79.35 74.75 79.35 81.55 L79.35 93.8 Q79.35 95.3 79.6 95.85 79.85 96.45 80.6 96.45 81.75 96.45 82.2 95.55 82.75 94.55 82.75 91.9 L82.75 90.4 86.35 90.4 86.35 94.0 M108.7 82.1 Q108.7 73.9 104.9 73.9 101.1 73.9 101.1 82.1 101.1 90.25 104.9 90.25 108.7 90.25 108.7 82.1 M161.35 70.65 L161.35 80.5 156.35 80.5 Q155.45 77.95 153.0 76.45 150.9 75.15 147.8 75.15 L144.7 75.6 Q142.75 76.25 142.75 77.7 142.75 79.5 145.95 80.5 L152.95 82.1 Q163.1 84.6 163.1 91.9 163.1 97.4 158.6 100.25 154.85 102.6 149.05 102.6 141.8 102.6 137.45 99.65 L136.5 101.9 131.55 101.9 131.55 90.6 136.95 90.6 Q137.3 93.35 140.25 95.4 142.95 97.35 145.9 97.35 L149.4 97.0 Q151.45 96.35 151.45 94.45 151.45 92.7 148.25 91.6 L141.3 89.8 Q131.1 87.1 131.1 80.25 131.1 74.85 136.0 72.1 139.95 69.85 145.8 69.85 151.2 69.85 156.0 72.65 L156.8 70.65 161.35 70.65 M29.9 65.1 Q28.1 63.8 24.45 63.8 L20.85 63.8 20.85 76.1 24.45 76.1 Q28.1 76.1 29.9 74.85 32.05 73.35 32.05 69.95 32.05 66.55 29.9 65.1 M5.9 63.8 L2.15 63.8 2.15 58.05 30.5 58.05 Q37.35 58.05 41.0 60.9 44.45 63.6 44.45 68.25 44.45 72.4 41.75 75.15 39.3 77.55 35.05 78.55 L35.05 78.7 Q40.8 80.45 42.9 82.0 46.55 84.7 46.55 89.9 46.55 96.25 42.45 98.95 38.35 101.65 28.8 101.65 L2.25 101.65 2.25 95.85 5.9 95.85 Q8.45 95.85 8.45 93.2 L8.45 66.45 Q8.45 63.8 5.9 63.8 M20.85 81.9 L20.85 95.85 25.25 95.85 Q29.2 95.85 31.15 94.45 33.6 92.8 33.6 88.85 33.6 84.9 31.15 83.25 29.2 81.9 25.25 81.9 L20.85 81.9 M63.0 88.75 Q59.95 90.25 59.95 92.75 59.95 96.45 63.7 96.45 68.4 96.45 68.4 90.9 L68.4 86.45 Q64.7 87.95 63.0 88.75 M116.75 108.45 Q116.75 106.85 113.85 106.25 L106.8 105.75 99.8 106.25 Q96.9 106.85 96.9 108.45 96.9 109.8 99.8 110.5 L106.8 111.15 113.85 110.5 Q116.75 109.8 116.75 108.45 M-167.85 -67.6 L-179.1 -67.6 -179.1 -109.05 -84.9 -109.05 -84.9 -67.6 -96.15 -67.6 -96.15 -74.45 Q-96.15 -86.45 -102.45 -92.15 -108.6 -97.8 -121.35 -97.8 L-121.35 -25.05 Q-121.35 -22.05 -120.0 -20.85 -118.65 -19.6 -115.15 -19.6 L-103.6 -19.6 -103.6 -8.35 -160.4 -8.35 -160.4 -19.6 -148.85 -19.6 Q-145.35 -19.6 -144.0 -20.85 -142.65 -22.05 -142.65 -25.05 L-142.65 -97.8 Q-155.4 -97.8 -161.55 -92.15 -167.85 -86.45 -167.85 -74.45 L-167.85 -67.6 M-67.5 -52.1 L-39.25 -52.1 Q-39.1 -60.3 -42.0 -65.2 -45.5 -71.1 -52.95 -71.1 -60.1 -71.1 -63.9 -65.2 -67.1 -60.2 -67.5 -52.1 M-52.65 -81.7 Q-35.35 -81.7 -25.8 -68.4 -17.5 -56.75 -18.9 -42.1 L-67.5 -42.1 Q-67.95 -31.75 -64.35 -25.35 -59.95 -17.45 -50.2 -17.45 -42.15 -17.45 -37.65 -21.6 -33.35 -25.5 -31.85 -33.55 L-19.2 -33.55 Q-20.75 -20.3 -28.7 -13.35 -37.05 -6.1 -51.9 -6.1 -69.5 -6.1 -78.7 -15.75 -87.85 -25.45 -87.85 -43.9 -87.85 -60.6 -78.1 -71.1 -68.3 -81.7 -52.65 -81.7 M-66.8 65.0 Q-66.8 63.5 -67.25 62.9 -67.8 62.2 -69.2 62.2 L-71.85 62.2 -71.85 56.9 -55.9 56.9 -55.9 93.55 Q-55.9 95.05 -55.45 95.65 -54.9 96.35 -53.55 96.35 L-50.95 96.35 -50.95 101.65 -66.3 101.65 -66.3 96.85 -66.4 96.85 Q-69.15 102.6 -75.95 102.6 -82.8 102.6 -86.1 97.45 -88.85 93.15 -88.85 86.25 -88.85 79.3 -86.1 75.05 -82.8 69.85 -75.95 69.85 -72.9 69.85 -70.45 71.0 -67.95 72.2 -66.95 74.3 L-66.8 74.15 -66.8 65.0 M-72.0 75.5 Q-77.2 75.5 -77.2 86.0 -77.2 96.5 -72.0 96.5 -66.8 96.5 -66.8 86.0 -66.8 75.5 -72.0 75.5 M-47.0 77.25 Q-47.8 76.1 -48.95 76.1 L-51.05 76.1 -51.05 70.85 -31.1 70.85 -31.1 76.1 -33.3 76.1 -34.9 76.35 Q-35.45 76.6 -35.45 77.35 -35.45 77.95 -35.05 78.75 L-29.7 90.9 -29.55 90.9 -24.9 78.95 Q-24.5 78.1 -24.5 77.15 -24.5 76.1 -26.45 76.1 L-28.35 76.1 -28.35 70.85 -13.7 70.85 -13.7 76.1 -14.95 76.1 Q-16.65 76.1 -17.55 77.1 -18.1 77.65 -18.85 79.4 L-27.55 100.7 Q-30.65 108.15 -33.15 111.25 -36.65 115.55 -41.45 115.55 -45.9 115.55 -48.45 113.6 -51.3 111.4 -51.3 107.1 -51.3 104.5 -49.75 103.0 -48.2 101.5 -45.65 101.5 -43.6 101.5 -42.2 102.65 -40.7 103.85 -40.7 105.85 -40.7 110.05 -44.2 110.05 L-46.05 109.8 Q-45.85 111.5 -42.3 111.5 -39.65 111.5 -37.8 108.95 -36.7 107.4 -35.2 103.6 L-45.6 80.2 Q-46.45 78.0 -47.0 77.25 M-130.4 68.25 Q-130.4 72.4 -133.1 75.15 -135.5 77.55 -139.8 78.55 L-139.8 78.7 Q-134.05 80.45 -131.95 82.0 -128.3 84.7 -128.3 89.9 -128.3 96.25 -132.4 98.95 -136.5 101.65 -146.05 101.65 L-172.6 101.65 -172.6 95.85 -168.9 95.85 Q-167.7 95.85 -167.0 95.15 -166.35 94.45 -166.35 93.2 L-166.35 66.45 Q-166.35 65.2 -167.0 64.5 -167.7 63.8 -168.9 63.8 L-172.65 63.8 -172.65 58.05 -144.35 58.05 Q-137.45 58.05 -133.8 60.9 -130.4 63.6 -130.4 68.25 M-154.0 63.8 L-154.0 76.1 -150.4 76.1 Q-146.7 76.1 -144.9 74.85 -142.75 73.35 -142.75 69.95 -142.75 66.55 -144.9 65.1 -146.7 63.8 -150.4 63.8 L-154.0 63.8 M-149.6 95.85 Q-145.65 95.85 -143.7 94.45 -141.25 92.8 -141.25 88.85 -141.25 84.9 -143.7 83.25 -145.65 81.9 -149.6 81.9 L-154.0 81.9 -154.0 95.85 -149.6 95.85 M-108.75 69.85 Q-101.2 69.85 -96.6 74.1 -91.8 78.55 -91.8 86.25 -91.8 93.95 -96.6 98.35 -101.2 102.6 -108.75 102.6 -116.3 102.6 -120.9 98.35 -125.75 93.95 -125.75 86.25 -125.75 78.55 -120.9 74.1 -116.3 69.85 -108.75 69.85 M-108.75 75.15 Q-111.65 75.15 -112.9 77.8 -114.1 80.35 -114.1 86.25 -114.1 92.15 -112.9 94.7 -111.65 97.35 -108.75 97.35 -105.85 97.35 -104.6 94.7 -103.45 92.15 -103.45 86.25 -103.45 80.35 -104.6 77.8 -105.85 75.15 -108.75 75.15" fill="#000000" fill-rule="evenodd" stroke="none"/>
      <path d="M156.55 -122.0 L156.55 -120.05 -179.0 -120.05 -179.0 -122.0 156.55 -122.0 M156.55 -143.6 L156.55 -126.95 -179.0 -126.95 -179.0 -143.6 156.55 -143.6 M161.5 120.1 L161.5 122.05 -174.45 122.05 -174.45 120.1 161.5 120.1 M161.5 127.0 L161.5 143.65 -174.45 143.65 -174.45 127.0 161.5 127.0" fill="#009bd0" fill-rule="evenodd" stroke="none"/>
      <path d="M2.6 -6.85 L0.15 4.45 -4.1 24.85 Q-5.55 32.2 -5.3 36.35 -5.15 37.55 -4.8 38.15 L-3.65 38.8 Q-2.3 38.75 -1.35 37.95 L0.2 36.35 Q0.0 39.15 -1.3 41.35 -2.55 43.5 -4.3 43.65 -6.25 43.75 -7.55 42.3 -8.8 40.85 -9.1 36.9 L-9.05 34.0 -11.1 37.7 -13.2 40.65 Q-15.65 43.6 -18.0 43.95 -21.3 43.5 -22.75 41.9 L-23.45 40.9 Q-24.15 43.45 -25.35 44.45 -26.7 45.5 -27.7 45.55 -30.65 45.7 -32.15 44.25 -33.65 42.85 -33.95 39.35 L-33.85 36.65 Q-35.75 40.85 -38.25 43.25 -40.8 45.55 -43.1 45.7 -44.2 45.75 -45.2 45.15 L-46.75 43.4 -47.75 41.0 -48.2 38.45 -48.2 36.05 -48.55 36.75 Q-50.35 40.15 -53.15 42.45 -55.8 44.75 -58.65 45.85 -61.35 47.0 -63.25 47.15 L-67.5 46.6 Q-69.3 45.85 -70.4 44.6 -71.5 43.4 -72.15 41.6 L-72.9 37.95 Q-73.1 35.05 -71.8 31.35 -70.55 27.75 -68.4 24.45 -66.75 21.95 -64.55 19.9 -62.55 18.05 -60.4 17.4 -57.35 17.15 -54.5 18.45 -51.65 19.65 -50.5 23.55 -51.0 25.8 -52.8 28.7 -54.55 31.4 -57.0 33.55 -58.5 34.85 -60.25 35.75 -62.1 36.65 -63.7 36.7 L-65.75 36.4 Q-66.75 36.05 -67.45 34.6 -68.1 35.95 -68.35 37.25 -68.65 38.45 -68.55 39.6 -68.45 40.7 -67.1 41.1 L-63.9 41.45 Q-62.15 41.3 -60.05 40.45 -58.0 39.55 -56.0 38.2 -53.2 36.4 -50.8 33.9 -48.35 31.4 -47.0 28.6 L-47.0 31.25 Q-45.65 27.9 -43.25 24.8 -40.75 21.5 -37.7 19.15 -34.6 16.65 -32.1 15.6 -29.7 15.75 -27.75 17.1 -25.75 18.4 -24.85 20.8 L-27.35 25.85 -29.4 31.1 -30.3 34.25 Q-30.65 35.45 -30.55 36.6 -30.5 38.15 -28.6 39.65 -26.7 41.0 -23.5 40.8 -24.3 39.45 -24.45 37.5 -24.75 33.05 -23.65 29.65 -22.55 26.4 -20.55 23.45 -18.55 20.7 -15.95 18.4 L-10.7 13.8 -6.9 14.25 -2.35 -4.7 -1.25 -7.95 0.05 -9.8 1.45 -10.65 3.0 -11.05 2.6 -6.85 M50.65 -4.85 L55.0 -3.7 Q57.35 -2.75 59.1 -1.35 60.95 0.15 61.1 2.5 61.25 4.15 60.35 5.85 59.55 7.6 58.0 7.65 L58.55 4.9 Q58.5 3.75 57.45 3.1 56.6 2.5 55.1 2.1 L52.35 1.65 50.05 1.65 Q47.45 1.8 43.8 3.4 40.15 5.05 36.75 7.75 34.75 9.35 32.6 11.75 30.7 13.95 29.3 16.45 27.9 19.0 27.2 21.85 26.45 24.7 26.7 27.85 26.9 31.05 29.45 32.5 30.9 33.35 32.8 33.55 L36.75 33.65 Q40.2 33.45 43.55 32.5 46.6 31.65 49.5 30.2 53.9 28.1 56.65 25.55 59.45 22.95 60.05 21.5 L46.4 24.4 42.8 24.8 Q41.0 24.9 39.5 23.45 37.95 22.05 37.7 18.85 L39.65 19.1 42.65 19.05 47.95 18.45 60.25 16.2 63.1 15.25 Q64.05 15.55 65.2 16.65 66.35 17.65 67.9 19.6 65.6 21.8 64.0 24.85 62.35 28.15 61.6 31.1 60.8 33.95 60.45 37.05 60.15 40.1 60.25 41.35 L60.65 43.35 Q61.05 44.45 61.9 45.3 60.6 45.4 59.75 44.8 L58.15 43.25 Q57.45 42.25 57.1 41.2 56.75 40.05 56.7 39.3 56.55 36.85 56.75 34.6 56.95 32.2 58.35 29.05 L55.05 32.65 51.65 35.55 Q48.45 37.75 45.15 39.0 41.9 40.25 38.2 40.7 34.55 40.9 31.8 39.95 29.0 38.95 27.05 37.1 24.6 34.7 23.3 31.55 22.0 28.45 21.7 24.8 21.55 22.4 22.2 19.75 22.9 17.0 24.2 14.3 25.6 11.4 27.35 8.9 29.3 6.1 31.55 3.85 35.0 0.15 39.35 -2.35 43.6 -4.8 47.9 -5.1 L50.65 -4.85 M233.4 -1.55 L235.25 -0.25 Q235.95 0.6 236.3 1.6 L236.7 3.8 235.25 3.65 Q233.15 3.8 230.9 4.7 228.8 5.5 226.85 6.9 224.85 8.35 223.65 10.1 222.35 11.85 222.5 13.3 222.5 14.0 223.8 15.2 224.85 16.3 226.85 17.9 L231.4 21.3 235.4 24.4 Q232.75 26.75 229.9 28.25 227.1 29.85 224.6 30.75 L220.8 32.0 218.05 32.4 Q216.4 32.55 215.35 31.25 L214.6 30.05 213.4 28.9 Q212.6 27.95 212.05 26.3 211.45 24.45 211.25 22.25 L208.9 26.05 207.2 28.15 205.65 29.0 203.95 29.25 Q202.2 29.4 201.05 28.75 199.85 28.15 199.15 27.0 198.45 25.95 198.0 24.35 L197.5 21.15 Q197.4 19.7 197.7 17.15 198.0 14.55 198.85 11.15 199.75 7.65 200.95 4.95 202.25 1.75 204.15 -0.55 L205.1 0.75 Q205.55 1.5 205.7 3.0 L205.6 4.3 205.35 5.55 204.3 9.05 203.4 12.85 202.5 17.75 Q202.2 20.15 202.35 22.15 202.45 22.9 202.9 23.65 203.4 24.4 204.65 24.7 207.45 22.1 208.75 18.55 210.1 15.05 210.8 11.1 L211.35 5.5 211.5 0.8 214.2 0.35 216.6 0.45 215.15 16.75 Q215.05 19.6 215.2 21.45 215.25 22.4 215.65 23.45 L216.05 24.3 216.15 24.25 216.15 24.45 216.9 25.45 217.55 26.1 219.75 25.85 222.35 25.25 Q224.8 24.55 227.25 23.1 225.5 22.45 224.4 21.6 L222.15 19.6 Q219.35 16.65 219.05 12.3 218.8 9.55 220.15 6.9 221.4 4.3 223.5 2.1 225.15 0.45 227.0 -0.7 228.8 -1.75 230.6 -1.9 L233.4 -1.55 M194.1 12.15 Q194.35 15.3 193.3 18.25 192.25 21.2 190.45 23.7 188.2 26.75 184.95 28.85 181.75 30.85 178.65 31.05 173.3 31.45 170.6 27.75 168.65 25.25 168.4 21.55 168.2 18.85 169.3 15.25 170.45 11.65 172.45 8.35 174.3 5.35 176.7 3.2 178.95 1.1 181.7 0.85 184.0 0.7 186.1 1.4 188.0 2.05 189.8 3.45 191.65 5.15 192.75 7.25 193.9 9.5 194.1 12.15 M189.1 9.45 Q188.75 8.55 187.8 7.85 186.4 6.9 184.2 7.05 182.35 7.2 180.6 8.4 178.85 9.65 177.45 11.45 176.35 12.7 175.3 14.45 174.3 16.15 173.65 17.65 172.95 19.25 172.6 20.55 172.3 22.0 172.35 22.75 172.45 23.85 173.2 24.35 174.05 25.0 176.35 24.85 179.35 24.65 181.9 23.25 184.25 22.0 186.05 20.0 188.0 17.9 188.9 15.55 189.75 13.2 189.65 11.4 L189.1 9.45 M167.65 14.25 Q167.95 18.85 166.1 22.4 164.3 25.9 161.55 28.1 158.8 30.4 156.0 31.5 153.3 32.65 151.45 32.8 L147.2 32.25 Q145.35 31.45 144.25 30.25 143.1 28.95 142.5 27.25 141.85 25.35 141.8 23.6 141.6 20.75 142.85 17.0 144.15 13.35 146.3 10.1 148.0 7.5 150.1 5.55 152.1 3.65 154.3 3.05 157.3 2.85 160.15 4.1 163.1 5.3 164.15 9.2 163.6 11.6 161.85 14.35 160.0 17.15 157.7 19.2 L154.4 21.4 Q152.55 22.3 150.95 22.35 L148.9 22.05 Q147.9 21.7 147.2 20.25 L146.3 22.9 Q146.05 24.4 146.1 25.25 146.2 26.35 147.55 26.75 L150.75 27.05 Q152.45 27.0 154.6 26.1 L158.65 23.85 Q161.25 22.2 163.9 19.55 166.35 16.95 167.65 14.25 M159.8 9.4 Q159.75 8.35 157.7 8.5 156.4 8.7 155.15 9.5 L152.95 11.35 Q151.65 12.65 150.55 14.35 L149.0 16.9 152.1 16.15 Q154.3 15.35 155.95 14.35 157.65 13.35 158.75 12.1 159.9 10.9 159.8 9.4 M136.8 5.6 L137.4 11.75 137.75 18.45 137.7 25.55 137.1 38.35 Q136.9 41.05 136.15 43.45 135.5 45.6 134.3 47.45 132.2 50.5 128.8 51.95 125.45 53.45 120.45 53.75 L117.6 53.35 Q115.95 52.8 114.65 51.8 113.6 50.95 112.9 49.8 112.15 48.6 112.1 47.2 111.95 44.65 113.15 42.6 114.4 40.4 117.55 38.9 L116.3 41.3 115.65 43.1 115.4 44.7 115.45 46.45 Q115.45 47.2 116.9 47.65 L118.75 47.95 121.6 47.95 Q125.0 47.7 127.0 46.25 129.1 44.75 130.35 42.3 131.8 39.35 132.45 35.3 L133.65 26.15 131.85 29.1 129.55 31.55 Q126.7 33.95 123.7 34.2 120.2 34.45 118.05 32.35 115.9 30.35 115.6 26.55 115.35 23.15 116.55 19.7 117.75 16.2 120.1 13.15 122.25 10.25 125.3 8.05 128.25 5.9 131.85 4.8 L134.3 5.1 136.8 5.6 M124.5 16.7 Q122.35 19.5 120.7 22.6 119.1 25.65 119.25 27.45 119.35 28.15 119.8 28.75 120.35 29.45 121.85 29.35 123.1 29.25 124.5 28.4 L127.4 26.3 129.9 23.95 131.65 21.75 Q132.95 19.8 133.2 18.2 L133.25 14.8 Q132.95 10.35 132.0 10.45 130.55 10.6 128.55 12.4 126.65 14.0 124.5 16.7 M115.4 9.1 Q113.1 10.5 111.4 12.2 109.5 14.0 107.9 16.85 106.3 19.6 105.15 22.7 104.1 25.75 103.5 28.45 102.95 31.35 103.1 33.2 103.25 35.65 104.55 35.55 103.95 37.4 102.4 37.55 100.55 37.65 99.9 35.6 99.25 33.45 99.05 30.8 L99.0 26.2 99.35 21.25 101.55 7.6 Q102.4 8.1 102.8 9.1 103.3 10.15 103.45 12.35 L103.6 15.35 Q104.7 12.55 106.3 10.45 107.95 8.35 109.6 7.1 112.95 4.6 116.9 4.35 118.75 4.2 121.25 5.95 L115.4 9.1 M87.35 8.0 Q89.3 8.65 91.0 10.05 92.9 11.7 94.0 13.85 95.15 16.15 95.3 18.75 95.6 21.7 94.55 24.85 93.5 27.9 91.7 30.35 89.4 33.4 86.2 35.45 83.0 37.45 79.85 37.65 74.55 38.05 71.85 34.35 69.9 31.85 69.6 28.15 69.45 25.4 70.55 21.85 71.6 18.25 73.7 14.95 75.55 11.95 77.95 9.8 80.2 7.7 82.95 7.45 85.25 7.3 87.35 8.0 M90.35 16.05 Q89.9 15.1 89.05 14.45 87.65 13.5 85.4 13.65 83.55 13.8 81.85 15.0 80.1 16.25 78.7 18.05 77.45 19.5 76.5 21.05 L74.9 24.25 Q74.2 25.85 73.85 27.15 73.45 28.5 73.55 29.35 73.65 30.4 74.4 30.95 75.35 31.6 77.55 31.45 80.75 31.2 83.15 29.85 85.55 28.5 87.3 26.6 89.3 24.45 90.1 22.15 91.0 19.8 90.85 18.0 L90.35 16.05 M-7.55 19.2 Q-9.8 19.5 -12.05 21.6 -14.35 23.7 -16.2 26.4 -18.25 29.5 -19.4 32.4 -20.65 35.45 -20.5 37.2 -20.5 38.1 -19.35 38.0 -18.35 37.9 -17.3 37.1 L-15.2 34.95 -13.1 31.9 -11.5 29.2 -8.2 21.6 -7.55 19.2 M-34.05 30.35 Q-32.55 27.5 -31.7 25.25 L-30.4 21.5 Q-32.7 23.15 -34.9 24.95 -37.25 26.9 -38.75 28.6 -41.7 31.75 -43.45 35.05 -45.15 38.3 -45.1 40.95 -41.25 39.75 -38.55 36.75 -35.85 33.6 -34.05 30.35 M-59.5 23.9 L-61.7 25.7 -64.15 28.7 -65.7 31.25 -62.6 30.5 Q-60.2 29.6 -58.75 28.7 -57.2 27.8 -55.9 26.45 -54.75 25.25 -54.9 23.75 -54.95 22.7 -56.95 22.85 -58.3 23.1 -59.5 23.9 M-79.35 17.25 Q-81.85 14.75 -85.1 13.15 -87.85 11.75 -90.95 11.0 L-96.75 10.4 Q-99.0 18.35 -100.75 26.35 -102.7 35.2 -103.8 42.5 -100.95 41.7 -96.45 39.8 -92.15 38.1 -87.55 35.35 -84.85 33.65 -83.3 32.45 L-79.8 29.25 Q-78.25 27.5 -77.5 25.8 -76.65 24.05 -76.8 22.25 -77.0 19.65 -79.35 17.25 M-73.6 22.45 Q-73.4 24.6 -74.15 26.9 -74.85 29.1 -76.3 31.45 -77.8 33.8 -79.6 35.9 -81.5 38.1 -83.75 40.05 L-88.55 43.85 -93.4 46.9 Q-96.0 48.25 -97.95 48.95 -100.0 49.75 -101.9 49.9 -103.25 50.0 -104.65 49.45 L-105.3 51.9 -106.1 53.65 Q-107.5 52.85 -108.2 51.15 -108.85 49.6 -109.0 47.6 -109.3 43.75 -108.5 39.7 L-106.4 30.85 -103.6 20.95 Q-102.1 15.85 -100.9 9.9 L-102.55 10.0 Q-104.4 10.15 -106.4 10.9 -108.85 11.85 -111.2 13.05 -108.35 8.65 -105.75 7.0 -103.3 5.45 -101.45 5.35 -96.4 5.0 -91.6 6.2 -86.8 7.4 -83.05 9.7 -79.05 12.05 -76.45 15.45 -73.85 18.8 -73.6 22.45 M-136.85 23.75 Q-135.5 24.7 -134.7 26.1 -133.85 27.6 -133.55 29.2 L-133.15 32.2 Q-132.9 35.0 -133.6 38.35 -134.2 41.7 -135.7 44.75 -137.4 48.05 -139.8 50.05 -142.25 52.2 -145.75 52.5 L-147.4 52.4 -149.4 51.85 -150.35 62.65 -150.95 68.1 -151.65 73.1 Q-153.6 72.45 -154.45 71.0 -155.25 69.45 -155.4 67.05 -155.6 65.1 -154.95 58.75 -154.4 54.3 -154.0 48.6 L-152.75 28.65 -152.9 27.55 -153.5 24.95 Q-151.9 25.75 -150.75 27.45 -149.6 29.15 -149.3 30.85 L-147.5 27.5 Q-146.55 26.0 -145.25 24.9 -143.2 23.15 -140.25 22.9 -138.25 22.75 -136.85 23.75 M-146.85 34.5 Q-148.1 36.35 -148.45 37.65 L-148.65 42.8 -149.0 47.2 Q-145.65 46.55 -143.25 44.95 -140.9 43.4 -139.35 41.25 -137.65 38.85 -136.9 36.0 -136.2 33.0 -136.4 30.75 -136.45 29.75 -137.15 29.15 L-138.75 28.85 Q-141.4 29.0 -143.7 31.0 -145.5 32.5 -146.85 34.5 M-158.6 30.75 Q-157.45 33.05 -157.3 35.65 -157.1 38.75 -158.05 41.75 -159.1 44.7 -160.9 47.2 -163.15 50.25 -166.4 52.35 -169.6 54.35 -172.75 54.55 -178.0 54.95 -180.8 51.25 -182.7 48.75 -183.0 45.05 -183.15 42.3 -182.05 38.75 -181.0 35.15 -178.9 31.85 -177.05 28.85 -174.65 26.7 -172.4 24.6 -169.65 24.35 -167.35 24.2 -165.25 24.9 -163.25 25.6 -161.6 26.95 -159.7 28.6 -158.6 30.75 M-188.5 36.7 Q-190.0 39.35 -191.25 42.55 -192.35 45.6 -192.85 48.25 -193.45 51.05 -193.3 53.05 -193.05 55.45 -191.85 55.4 -192.45 57.3 -194.0 57.35 -195.75 57.5 -196.45 55.45 -197.15 53.25 -197.3 50.6 L-197.4 46.05 -197.0 41.1 -196.1 34.75 -194.85 27.45 Q-194.1 27.8 -193.55 28.9 -193.05 30.2 -192.9 32.2 L-192.8 35.15 Q-191.55 32.25 -190.1 30.25 -188.55 28.3 -186.8 26.9 -183.35 24.35 -179.5 24.15 -177.6 24.0 -175.15 25.75 -178.65 27.45 -180.95 28.9 -183.45 30.4 -184.95 32.0 -187.0 33.95 -188.5 36.7 M-199.65 35.3 Q-200.4 37.6 -201.8 39.85 -203.2 42.2 -205.1 44.3 L-209.2 48.45 -214.0 52.25 Q-216.4 53.9 -218.9 55.25 -221.15 56.55 -223.45 57.35 -225.55 58.15 -227.35 58.3 L-230.15 57.85 -230.8 60.3 Q-231.2 61.55 -231.55 62.05 -233.05 61.15 -233.7 59.55 -234.35 58.0 -234.5 55.95 -234.8 52.45 -234.0 48.1 L-231.9 39.25 -229.1 29.35 Q-227.55 23.95 -226.4 18.3 L-228.05 18.4 Q-229.8 18.55 -231.85 19.3 L-236.7 21.45 Q-233.7 16.95 -231.25 15.4 -228.75 13.85 -226.9 13.7 -221.8 13.4 -217.1 14.6 -212.35 15.8 -208.55 18.05 -204.45 20.55 -201.9 23.85 -199.35 27.2 -199.05 30.85 -198.9 33.05 -199.65 35.3 M-163.55 31.35 Q-164.85 30.4 -167.2 30.55 -169.05 30.7 -170.75 31.9 -172.65 33.25 -173.9 34.95 L-176.1 37.95 -177.7 41.15 -178.75 44.05 Q-179.1 45.4 -179.05 46.25 -178.95 47.3 -178.2 47.85 -177.15 48.5 -175.05 48.35 -172.0 48.15 -169.45 46.75 -166.9 45.25 -165.3 43.5 -163.3 41.35 -162.5 39.05 -161.6 36.7 -161.75 34.9 -161.85 33.8 -162.25 32.95 -162.65 32.1 -163.55 31.35 M-216.4 19.4 L-222.25 18.8 Q-224.3 26.1 -226.2 34.7 -227.9 42.15 -229.3 50.9 -226.5 50.05 -221.9 48.2 -217.35 46.35 -213.05 43.75 L-208.75 40.85 -205.3 37.65 Q-203.8 35.9 -203.0 34.2 -202.15 32.45 -202.3 30.65 -202.45 28.1 -204.85 25.6 -207.2 23.25 -210.55 21.5 -213.3 20.15 -216.4 19.4" fill="#8200ce" fill-rule="evenodd" stroke="none"/>
    </g>
  </defs>
</svg>
