<?xml version="1.0" encoding="UTF-8" standalone="no"?>
<svg xmlns:xlink="http://www.w3.org/1999/xlink" height="300.0px" width="300.0px" xmlns="http://www.w3.org/2000/svg">
  <g transform="matrix(1.0, 0.0, 0.0, 1.0, 0.0, 0.0)">
    <use height="141.3" transform="matrix(1.0, 0.0, 0.0, 1.0, 9.0, 72.5)" width="288.25" xlink:href="#shape0"/>
  </g>
  <defs>
    <g id="shape0" transform="matrix(1.0, 0.0, 0.0, 1.0, -9.0, -72.5)">
      <path d="M39.7 137.35 L39.6 137.7 39.25 137.9 34.85 139.65 Q35.0 141.55 34.6 142.8 34.15 144.65 32.65 146.6 29.0 151.25 23.95 151.85 18.85 152.4 14.25 148.8 9.65 145.1 9.1 139.85 8.5 134.75 11.95 130.25 16.9 123.95 24.25 125.65 24.8 125.8 24.75 126.15 L22.95 131.7 Q22.85 132.1 22.4 131.95 19.25 131.35 17.05 134.1 15.25 136.45 15.65 138.9 16.1 141.4 18.6 143.3 21.05 145.3 23.5 145.05 25.9 144.85 27.75 142.6 30.55 138.95 27.25 135.5 27.0 135.2 27.15 135.0 L30.6 130.6 31.0 130.55 39.7 137.35" fill="#336666" fill-rule="evenodd" stroke="none"/>
      <path d="M36.8 106.5 L62.05 119.65 Q62.6 119.95 62.25 120.15 L56.65 124.25 56.05 124.25 53.0 122.4 45.75 127.7 46.55 131.05 Q46.7 131.4 46.25 131.75 L41.25 135.4 Q40.9 135.7 40.8 135.1 37.7 119.1 36.1 107.0 L36.35 106.7 36.8 106.5 M48.55 119.65 L43.15 116.6 44.4 122.7 48.55 119.65" fill="#336666" fill-rule="evenodd" stroke="none"/>
      <path d="M74.05 93.15 L70.8 96.55 70.35 96.6 Q69.45 95.7 68.0 95.45 L65.3 95.7 Q62.2 97.15 63.2 99.3 63.8 100.5 65.0 100.55 L68.75 99.95 69.95 99.65 Q77.2 97.45 80.1 103.6 81.8 107.25 79.95 110.55 78.15 113.6 74.0 115.5 67.25 118.7 62.95 114.35 62.6 113.9 62.8 113.65 L66.15 110.0 Q66.4 109.8 66.65 110.0 67.4 110.9 68.85 111.2 L72.0 110.9 Q75.35 109.25 74.3 107.0 73.3 104.85 69.0 106.3 L68.15 106.6 62.25 106.85 Q59.5 105.95 58.05 102.9 56.5 99.45 57.8 96.5 59.2 93.3 63.55 91.3 66.8 89.75 69.65 90.2 72.2 90.5 74.0 92.45 74.3 92.85 74.05 93.15" fill="#336666" fill-rule="evenodd" stroke="none"/>
      <path d="M116.7 88.2 Q118.0 93.5 115.2 98.15 112.4 102.75 106.95 104.05 101.5 105.4 96.9 102.55 92.35 99.75 91.05 94.35 89.75 89.05 92.55 84.35 95.35 79.8 100.75 78.4 106.2 77.1 110.85 80.0 115.4 82.85 116.7 88.2 M107.2 85.45 Q105.05 84.0 102.3 84.6 99.45 85.3 98.25 87.55 97.1 89.85 97.8 92.7 98.45 95.6 100.55 97.05 102.65 98.6 105.5 97.85 108.25 97.25 109.5 94.9 110.65 92.75 109.95 89.8 109.25 86.85 107.2 85.45" fill="#336666" fill-rule="evenodd" stroke="none"/>
      <path d="M128.65 74.5 L128.65 75.05 124.75 85.0 Q124.65 85.25 123.75 85.35 122.85 85.45 122.75 84.95 L121.5 75.35 Q121.4 75.0 121.7 75.0 L128.45 74.05 128.65 74.5" fill="#336666" fill-rule="evenodd" stroke="none"/>
      <path d="M162.2 77.7 L161.95 77.95 155.6 77.95 155.85 97.5 155.55 97.8 149.4 97.9 149.0 97.6 148.75 78.05 142.2 78.2 141.95 77.95 141.85 73.15 Q141.85 72.8 142.15 72.8 L161.85 72.5 162.15 72.9 162.2 77.7" fill="#336666" fill-rule="evenodd" stroke="none"/>
      <path d="M192.25 75.55 L189.6 99.95 Q189.6 100.35 189.25 100.25 L183.3 99.6 Q182.85 99.6 182.95 99.25 L184.0 89.45 175.6 88.55 174.55 98.3 174.25 98.6 168.2 97.95 167.9 97.6 170.55 73.15 Q170.65 72.9 170.95 72.9 L176.95 73.55 Q177.25 73.55 177.25 73.95 L176.3 82.65 184.7 83.55 185.65 74.85 Q185.65 74.45 186.0 74.55 L191.95 75.15 Q192.3 75.2 192.25 75.55" fill="#336666" fill-rule="evenodd" stroke="none"/>
      <path d="M219.95 81.95 L218.85 86.35 218.35 86.75 208.05 84.1 207.05 88.2 217.15 90.65 Q217.5 90.75 217.4 91.3 L216.3 95.65 Q216.25 96.2 215.8 96.1 L205.7 93.6 204.65 97.8 215.3 100.3 215.6 100.45 215.55 100.85 214.4 105.5 Q214.3 106.0 213.9 105.9 L197.4 101.85 Q196.95 101.7 197.1 101.25 L202.95 77.65 203.35 77.35 219.65 81.35 Q220.05 81.5 219.95 81.95" fill="#336666" fill-rule="evenodd" stroke="none"/>
      <path d="M248.55 91.95 Q251.75 93.45 253.3 95.9 254.7 98.15 254.35 100.7 254.3 101.2 253.8 101.2 L249.15 100.9 Q248.8 100.9 248.8 100.6 248.95 99.35 248.2 98.05 247.5 96.7 246.25 96.15 243.15 94.7 242.15 96.8 241.65 97.95 242.35 99.0 L245.15 101.55 246.2 102.2 Q252.5 106.45 249.65 112.5 248.0 116.15 244.15 116.9 240.75 117.45 236.6 115.45 229.8 112.25 230.45 106.25 230.55 105.7 230.85 105.7 L235.8 105.95 Q236.1 105.95 236.1 106.3 235.9 107.45 236.6 108.8 237.45 110.3 238.9 110.9 242.25 112.6 243.3 110.3 244.3 108.1 240.5 105.8 L239.75 105.25 Q236.8 103.5 235.75 100.9 234.7 98.25 236.1 95.15 237.7 91.8 240.9 90.85 244.25 89.9 248.55 91.95" fill="#336666" fill-rule="evenodd" stroke="none"/>
      <path d="M279.15 111.4 L276.55 115.1 Q276.25 115.6 275.95 115.25 L267.3 109.0 264.85 112.45 273.35 118.5 Q273.65 118.7 273.35 119.15 L270.75 122.85 Q270.45 123.25 270.15 123.05 L261.65 117.05 259.15 120.55 268.1 126.75 268.35 127.0 268.15 127.35 265.4 131.3 Q265.05 131.65 264.75 131.45 L250.9 121.65 Q250.55 121.4 250.85 121.0 L264.9 101.15 Q265.15 100.8 265.4 101.05 L279.15 110.8 Q279.45 110.95 279.15 111.4" fill="#336666" fill-rule="evenodd" stroke="none"/>
      <path d="M269.0 134.05 Q286.05 129.55 296.65 127.3 L297.0 127.6 297.25 128.0 285.95 154.15 Q285.65 154.65 285.4 154.35 L280.95 149.05 280.9 148.5 282.55 145.35 276.75 138.45 273.45 139.55 Q273.0 139.65 272.75 139.25 L268.7 134.5 Q268.4 134.2 269.0 134.05 M287.6 135.05 L281.65 136.75 285.0 140.7 287.6 135.05" fill="#336666" fill-rule="evenodd" stroke="none"/>
      <path d="M166.55 205.4 Q166.15 206.5 166.15 208.4 166.15 210.25 166.55 211.35 166.95 212.4 168.05 212.45 168.95 212.45 169.4 211.9 169.85 211.4 170.0 210.5 L170.15 208.4 170.0 206.45 Q169.85 205.5 169.35 204.95 168.9 204.35 168.05 204.3 166.95 204.35 166.55 205.4 M167.75 202.95 Q168.45 202.95 169.1 203.3 L170.0 204.4 170.05 204.4 170.05 199.8 171.65 199.8 171.65 213.55 170.15 213.55 170.15 212.3 170.1 212.3 169.65 213.0 168.9 213.6 167.85 213.8 Q166.65 213.8 165.9 213.15 165.15 212.45 164.8 211.25 164.45 210.05 164.5 208.4 L164.6 206.6 165.0 204.85 Q165.35 204.0 166.0 203.5 166.65 202.95 167.75 202.95 M182.7 199.5 Q184.8 199.55 185.75 200.65 186.75 201.75 186.75 203.8 L185.0 203.8 184.8 202.35 184.1 201.3 Q183.6 200.9 182.7 200.9 181.55 200.9 180.95 201.7 180.4 202.45 180.2 203.75 180.05 205.05 180.05 206.65 180.05 208.3 180.2 209.6 180.4 210.9 180.95 211.65 181.55 212.4 182.7 212.45 183.75 212.4 184.25 211.85 L184.95 210.5 185.15 208.85 186.9 208.85 Q186.85 210.15 186.4 211.3 186.0 212.4 185.1 213.1 184.2 213.8 182.7 213.8 181.25 213.8 180.35 213.2 179.5 212.6 179.05 211.55 178.55 210.5 178.4 209.25 L178.3 206.65 Q178.25 205.35 178.45 204.1 178.6 202.8 179.05 201.8 179.55 200.75 180.4 200.15 181.3 199.55 182.7 199.5 M193.2 207.9 L192.4 208.4 191.35 208.75 190.45 209.15 189.85 209.75 189.65 210.75 Q189.65 211.55 190.0 212.05 190.3 212.55 191.1 212.55 L192.15 212.3 192.9 211.55 193.2 210.55 193.2 207.9 M193.5 203.25 Q194.15 203.55 194.4 204.0 L194.75 205.0 194.8 205.9 194.8 211.7 194.9 212.25 Q194.95 212.5 195.3 212.5 L195.55 212.5 195.7 212.4 195.7 213.55 195.35 213.65 194.75 213.65 194.1 213.6 193.6 213.25 193.3 212.35 193.25 212.35 192.2 213.45 190.75 213.8 Q189.35 213.8 188.65 213.0 187.95 212.2 187.95 210.8 187.95 209.75 188.45 209.0 188.9 208.25 189.9 207.95 L192.1 207.3 192.9 206.95 193.2 206.45 193.25 205.75 Q193.25 205.0 192.85 204.6 192.4 204.2 191.6 204.2 L190.55 204.45 190.05 205.1 189.85 205.75 189.85 206.25 189.85 206.35 188.2 206.35 Q188.2 204.6 189.0 203.75 189.85 202.95 191.65 202.95 L193.5 203.25 M201.4 202.95 L201.65 203.05 201.65 204.65 201.4 204.6 200.8 204.55 199.9 204.8 Q199.4 205.05 199.05 205.6 198.7 206.15 198.7 207.0 L198.7 213.55 197.05 213.55 197.05 203.2 198.7 203.2 198.7 204.75 199.6 203.5 Q200.1 202.95 200.95 202.95 L201.4 202.95 M205.65 202.95 Q206.8 202.95 207.45 203.3 L208.35 204.15 208.75 205.2 208.8 206.25 207.2 206.25 Q207.2 205.25 206.9 204.75 206.55 204.2 205.65 204.2 L205.0 204.3 Q204.6 204.4 204.3 204.75 204.0 205.1 204.0 205.8 204.0 206.4 204.35 206.7 L205.3 207.25 206.55 207.65 Q207.2 207.85 207.75 208.15 L208.7 209.0 Q209.05 209.6 209.05 210.6 209.05 211.7 208.65 212.4 208.2 213.1 207.45 213.45 L205.75 213.8 203.7 213.4 Q202.95 213.0 202.65 212.4 202.3 211.8 202.25 211.2 L202.2 210.15 203.8 210.15 Q203.8 210.8 203.95 211.35 L204.5 212.2 Q204.95 212.55 205.75 212.55 L206.4 212.45 207.1 211.95 207.45 210.85 Q207.45 210.15 207.05 209.75 L206.15 209.15 204.9 208.75 203.7 208.25 202.75 207.4 Q202.4 206.85 202.4 205.8 202.4 204.85 202.85 204.2 203.3 203.55 204.05 203.25 L205.65 202.95 M98.8 203.2 L100.45 203.2 100.45 213.55 98.8 213.55 98.8 203.2 M97.65 199.8 L97.65 201.3 92.2 201.3 92.2 205.6 97.35 205.6 97.35 207.1 92.2 207.1 92.2 213.55 90.5 213.55 90.5 199.8 97.65 199.8 M98.8 201.65 L98.8 199.8 100.45 199.8 100.45 201.65 98.8 201.65 M107.35 203.3 L108.25 204.15 108.65 205.2 108.7 206.25 107.1 206.25 Q107.1 205.25 106.8 204.75 106.45 204.2 105.55 204.2 L104.9 204.3 Q104.5 204.4 104.2 204.75 103.9 205.1 103.9 205.8 103.9 206.4 104.25 206.7 L105.2 207.25 106.45 207.65 Q107.1 207.85 107.65 208.15 L108.6 209.0 Q108.95 209.6 108.95 210.6 108.95 211.7 108.55 212.4 108.1 213.1 107.35 213.45 L105.65 213.8 103.6 213.4 Q102.85 213.0 102.55 212.4 102.2 211.8 102.15 211.2 L102.1 210.15 103.7 210.15 103.85 211.35 Q104.0 211.85 104.4 212.2 104.85 212.55 105.65 212.55 L106.3 212.45 107.0 211.95 107.35 210.85 Q107.35 210.15 106.95 209.75 106.6 209.4 106.05 209.15 L104.8 208.75 103.6 208.25 Q103.05 208.0 102.65 207.4 102.3 206.85 102.3 205.8 102.3 204.85 102.75 204.2 103.2 203.55 103.95 203.25 L105.55 202.95 Q106.7 202.95 107.35 203.3 M112.8 203.65 L113.7 203.15 114.65 202.95 Q115.65 202.95 116.2 203.3 L117.0 204.15 117.3 205.2 117.3 206.2 117.3 213.55 115.7 213.55 115.7 206.4 115.65 205.5 115.2 204.7 Q114.9 204.35 114.2 204.3 L113.25 204.55 112.45 205.2 Q112.15 205.65 112.15 206.4 L112.15 213.55 110.5 213.55 110.5 199.8 112.15 199.8 112.15 204.4 112.8 203.65 M124.15 207.3 L124.15 208.8 119.45 208.8 119.45 207.3 124.15 207.3 M133.4 199.8 L133.4 201.3 127.95 201.3 127.95 205.6 133.1 205.6 133.1 207.1 127.95 207.1 127.95 213.55 126.25 213.55 126.25 199.8 133.4 199.8 M140.0 203.2 L141.6 203.2 141.6 213.55 140.1 213.55 140.1 212.35 140.05 212.35 Q139.7 213.05 139.0 213.45 L137.55 213.8 135.95 213.5 Q135.4 213.15 135.15 212.65 L134.85 211.55 134.8 210.55 134.8 203.2 136.45 203.2 136.45 210.35 136.5 211.25 136.9 212.05 Q137.25 212.4 137.95 212.45 L138.85 212.25 139.65 211.55 Q140.0 211.1 140.0 210.35 L140.0 203.2 M146.0 204.55 Q145.6 204.85 145.45 205.35 L145.15 206.25 145.1 206.9 145.1 207.3 148.8 207.3 148.8 206.75 148.65 205.6 148.1 204.6 Q147.7 204.2 147.0 204.2 146.4 204.2 146.0 204.55 M147.05 202.95 Q148.2 202.95 148.9 203.4 149.6 203.85 149.95 204.6 L150.4 206.2 150.5 207.9 150.5 208.6 145.05 208.6 145.1 209.85 145.3 211.15 145.9 212.15 Q146.3 212.55 147.05 212.55 147.8 212.55 148.2 212.1 L148.7 211.1 148.8 210.15 150.4 210.15 150.25 211.2 149.75 212.4 148.7 213.4 Q148.0 213.8 146.95 213.8 145.05 213.8 144.2 212.5 143.35 211.2 143.35 208.5 143.35 207.55 143.5 206.55 L144.0 204.75 Q144.4 203.95 145.15 203.45 145.85 202.95 147.05 202.95 M161.2 205.6 L160.65 204.6 Q160.25 204.2 159.55 204.2 158.95 204.2 158.55 204.55 L158.0 205.35 157.7 206.25 157.65 206.9 157.65 207.3 161.35 207.3 161.35 206.75 161.2 205.6 M152.4 199.8 L154.05 199.8 154.05 213.55 152.4 213.55 152.4 199.8 M159.6 202.95 Q160.75 202.95 161.45 203.4 162.15 203.85 162.5 204.6 L162.95 206.2 163.05 207.9 163.05 208.6 157.6 208.6 157.65 209.85 157.85 211.15 158.45 212.15 Q158.85 212.55 159.6 212.55 160.35 212.55 160.75 212.1 L161.25 211.1 161.35 210.15 162.95 210.15 162.8 211.2 162.3 212.4 161.25 213.4 Q160.55 213.8 159.5 213.8 157.6 213.8 156.75 212.5 155.9 211.2 155.9 208.5 155.9 207.55 156.05 206.55 L156.55 204.75 Q156.95 203.95 157.7 203.45 158.4 202.95 159.6 202.95" fill="#000000" fill-rule="evenodd" stroke="none"/>
      <path d="M183.6 143.55 Q198.5 149.7 206.95 156.5 216.4 164.0 221.45 171.25 224.3 175.3 227.7 183.1 229.45 187.05 230.25 189.75 230.6 190.85 231.05 191.0 233.85 191.85 237.6 193.8 244.1 197.1 247.85 201.1 252.5 206.2 254.05 208.6 255.9 211.3 254.6 211.7 253.95 211.9 246.3 207.7 238.25 203.4 234.65 203.5 229.9 203.7 228.7 204.7 228.25 205.0 228.0 205.65 227.5 206.7 227.55 208.7 227.65 211.4 225.45 209.5 223.9 208.1 222.1 205.4 L219.7 201.3 Q218.7 198.9 218.95 195.95 L219.1 194.7 Q210.85 189.25 197.35 183.55 188.4 179.85 176.55 177.6 163.75 175.15 150.35 175.05 140.8 174.9 128.0 178.45 L117.1 182.05 120.9 183.5 Q126.05 184.95 132.85 185.25 136.35 185.45 133.5 187.15 130.75 188.8 125.45 190.0 L116.7 191.25 107.95 191.2 Q104.4 191.1 100.7 189.2 L97.75 187.35 Q86.85 193.15 80.55 195.95 L75.75 197.85 Q73.1 198.75 71.0 199.9 69.85 200.5 68.85 201.2 L64.2 204.7 60.05 207.65 Q58.15 208.75 56.65 208.7 L55.6 207.75 Q54.6 206.6 55.2 205.3 L60.95 194.8 Q60.25 193.6 60.25 191.1 60.25 186.0 63.85 179.1 68.7 169.75 79.9 160.3 93.05 149.2 110.5 142.45 L130.95 134.55 Q132.8 133.65 136.15 129.65 140.0 125.0 147.35 119.6 155.15 113.9 159.7 112.85 163.75 111.95 163.4 113.5 163.3 114.45 161.95 116.6 L160.75 119.15 Q159.55 121.5 159.15 123.55 157.9 130.05 164.15 134.45 167.9 137.05 183.6 143.55" fill="#477eb7" fill-rule="evenodd" stroke="none"/>
    </g>
  </defs>
</svg>
