<?xml version="1.0" encoding="UTF-8" standalone="no"?>
<svg xmlns:xlink="http://www.w3.org/1999/xlink" height="300.0px" width="300.0px" xmlns="http://www.w3.org/2000/svg">
  <g transform="matrix(1.0, 0.0, 0.0, 1.0, 0.0, 0.0)">
    <use height="202.65" transform="matrix(1.0, 0.0, 0.0, 1.0, 13.0, 53.25)" width="261.35" xlink:href="#shape0"/>
  </g>
  <defs>
    <g id="shape0" transform="matrix(1.0, 0.0, 0.0, 1.0, -13.0, -53.25)">
      <path d="M260.55 53.25 Q260.0 56.6 260.0 66.0 260.0 69.25 260.3 73.2 L260.35 77.2 260.3 78.4 260.25 78.75 259.85 79.95 Q259.25 81.3 258.25 82.1 257.15 83.0 255.6 83.35 L251.5 83.2 Q249.35 82.65 248.05 80.45 247.05 78.0 247.45 76.2 247.75 74.3 248.95 73.05 250.1 71.8 251.7 71.3 L255.0 70.85 Q256.65 71.05 257.9 71.8 L258.05 66.0 Q258.1 56.6 257.6 53.25 L260.55 53.25 M241.95 70.4 Q241.4 73.75 241.4 83.15 241.4 86.4 241.7 90.4 L241.75 94.35 241.7 95.55 241.65 95.9 241.25 97.1 Q240.65 98.45 239.65 99.3 238.55 100.2 237.0 100.5 L232.9 100.4 Q230.75 99.8 229.45 97.6 228.45 95.15 228.85 93.35 229.15 91.5 230.35 90.25 231.5 89.0 233.1 88.45 234.65 87.9 236.4 88.0 238.05 88.2 239.3 88.95 L239.45 83.15 Q239.5 73.75 239.0 70.4 L241.95 70.4 M178.05 183.4 Q179.6 182.75 181.6 182.75 183.5 182.75 185.45 183.45 187.25 184.15 188.35 185.75 189.4 187.3 189.65 190.3 L189.9 198.1 189.9 217.05 Q189.75 220.15 191.85 222.65 L187.15 222.65 Q186.45 222.0 186.75 219.95 185.25 222.75 181.75 222.95 178.2 223.25 175.8 221.15 173.35 219.15 172.2 216.0 171.1 212.9 171.2 209.25 171.4 205.65 172.2 203.0 173.0 200.25 174.85 198.6 176.65 197.1 178.95 196.45 181.45 195.85 183.75 196.5 186.2 197.05 187.1 199.45 L187.15 194.7 186.85 191.05 Q186.6 189.4 186.15 188.45 L185.0 186.8 Q184.35 186.25 183.55 185.95 L181.95 185.75 178.65 186.25 Q177.0 186.9 176.35 188.8 175.75 190.9 176.05 193.8 L172.0 193.5 Q172.45 190.3 173.15 188.3 173.8 186.4 175.15 185.25 176.55 184.0 178.05 183.4 M168.35 183.85 L162.35 191.3 155.65 200.6 Q158.0 199.5 160.25 200.3 162.55 201.05 163.2 203.25 163.85 205.65 163.5 211.75 163.15 218.05 163.8 219.2 164.55 220.3 165.9 219.95 167.4 219.6 167.65 217.3 L170.55 219.25 Q169.05 221.75 167.45 222.4 L163.95 222.85 Q162.1 222.65 161.0 220.95 159.85 219.55 160.25 213.55 L160.35 205.65 Q160.1 203.4 157.7 203.1 155.4 202.65 154.05 203.7 152.8 204.65 152.35 206.15 L152.05 222.65 149.0 222.65 149.15 212.25 149.2 201.8 148.65 190.1 147.9 183.4 152.0 183.4 Q151.8 187.8 152.05 191.9 L152.4 201.1 155.95 195.7 159.1 191.25 161.75 187.15 163.95 183.0 168.35 183.85 M197.4 183.3 L210.35 183.45 210.5 185.7 Q209.2 188.55 207.6 192.75 L203.6 203.75 199.95 214.15 197.6 220.05 204.05 219.65 209.8 219.4 209.6 223.05 202.1 222.7 194.6 222.95 194.25 220.7 196.65 214.3 200.4 203.7 Q204.6 191.15 207.1 186.05 L203.45 186.0 198.9 186.1 194.55 186.45 194.55 183.0 197.4 183.3 M216.4 183.55 Q217.55 182.9 218.85 182.65 L221.2 182.45 Q223.6 182.45 225.7 183.5 227.7 184.5 229.1 186.95 230.6 189.4 231.35 193.3 232.2 197.35 232.2 203.15 232.2 207.75 231.7 211.3 231.25 214.55 230.35 216.95 229.6 219.2 228.45 220.65 227.35 222.05 226.15 222.7 225.0 223.45 223.65 223.65 L221.15 223.85 Q219.1 223.85 217.2 222.95 215.25 222.1 213.6 219.7 212.0 217.2 211.1 213.3 210.1 209.4 210.3 203.1 210.35 198.2 210.85 194.95 211.4 191.5 212.2 189.3 213.1 186.85 214.15 185.6 215.2 184.25 216.4 183.55 M214.5 193.55 Q213.7 197.1 213.65 203.15 213.6 208.35 214.4 211.95 215.2 215.4 216.3 217.3 217.4 219.3 218.8 220.05 220.05 220.75 221.15 220.75 222.05 220.8 223.45 220.1 224.8 219.45 225.95 217.55 227.15 215.65 228.0 212.2 228.85 208.75 228.85 203.15 228.85 198.95 228.45 195.95 228.0 192.9 227.35 191.05 226.65 189.1 225.8 188.0 L224.05 186.4 Q223.3 185.85 222.45 185.65 L221.2 185.55 218.9 186.0 Q217.55 186.5 216.45 188.3 215.25 190.1 214.5 193.55 M242.85 182.65 L245.2 182.45 Q247.7 182.45 249.7 183.5 251.7 184.55 253.15 186.95 254.6 189.35 255.4 193.3 256.2 197.2 256.2 203.15 256.2 208.1 255.7 211.3 255.25 214.7 254.4 217.0 253.45 219.45 252.45 220.65 251.4 222.05 250.2 222.75 L247.7 223.7 245.2 223.9 Q243.3 223.9 241.2 222.95 239.2 222.05 237.65 219.7 236.1 217.45 235.1 213.35 234.15 209.2 234.3 203.15 234.4 198.1 234.9 194.95 235.4 191.75 236.25 189.3 237.0 187.05 238.15 185.65 239.25 184.25 240.4 183.6 241.7 182.9 242.85 182.65 M240.5 188.3 Q239.35 190.05 238.5 193.6 237.7 197.25 237.65 203.15 237.65 208.65 238.4 212.0 239.25 215.4 240.35 217.35 241.55 219.35 242.8 220.05 244.1 220.8 245.2 220.8 L247.5 220.15 Q248.75 219.5 250.0 217.55 251.2 215.7 252.05 212.25 252.85 208.75 252.85 203.2 252.95 199.0 252.45 196.0 252.1 193.25 251.35 191.05 250.6 189.0 249.8 188.05 L248.1 186.4 Q247.3 185.9 246.5 185.7 L245.25 185.55 Q244.25 185.55 242.9 186.05 241.6 186.55 240.5 188.3 M258.45 188.15 Q259.25 185.4 260.7 184.35 262.1 183.25 264.3 183.0 L268.55 183.3 Q270.7 183.85 271.95 185.1 273.1 186.4 273.55 188.4 273.95 190.9 273.65 195.55 L269.7 195.4 Q270.9 192.85 270.55 189.8 270.1 186.65 267.6 186.3 265.1 185.85 263.55 186.7 261.95 187.55 261.45 189.7 L261.25 192.1 261.55 195.0 Q262.1 198.1 267.9 202.5 273.65 206.75 274.15 211.05 274.7 215.2 273.85 217.8 273.05 220.4 271.55 221.7 270.05 223.05 266.85 223.45 257.0 225.0 257.55 210.9 L261.5 210.85 Q260.25 216.7 261.5 218.25 262.7 220.15 264.85 220.35 266.9 220.7 268.5 219.7 270.0 218.75 270.8 216.4 271.7 214.05 270.8 210.85 269.95 207.65 264.65 203.65 259.45 199.65 258.5 195.3 257.6 190.9 258.45 188.15 M67.5 183.25 Q73.4 183.1 75.55 184.4 77.8 185.75 78.9 187.7 80.05 189.65 80.05 193.05 80.05 196.35 78.25 198.55 76.4 200.75 73.3 201.9 76.45 202.1 78.85 204.0 81.2 206.0 81.85 209.25 82.6 212.45 81.55 215.7 80.55 218.8 77.7 220.75 74.8 222.55 68.25 222.45 L60.45 222.45 Q61.25 220.45 61.55 215.45 L62.1 202.65 Q62.35 194.7 62.2 190.3 62.0 185.6 61.3 183.3 L67.5 183.25 M65.05 186.2 L65.25 193.35 65.2 200.55 69.1 200.35 Q72.9 200.45 74.8 198.75 76.7 196.95 76.9 193.5 77.15 190.3 75.55 188.15 L73.65 186.8 Q72.65 186.25 71.25 186.1 L68.35 186.0 65.05 186.2 M87.95 183.3 Q87.55 187.25 87.45 193.0 87.35 198.8 87.65 207.0 87.85 211.15 88.2 213.7 88.5 216.25 89.05 217.5 90.1 219.9 94.0 220.05 98.0 220.2 98.9 217.65 99.85 214.9 99.85 207.1 L99.65 193.05 99.4 183.35 103.15 183.5 Q102.55 187.4 102.65 193.4 L102.6 207.5 Q102.5 216.05 101.6 219.3 100.75 222.6 96.75 222.95 92.85 223.35 90.55 222.95 88.35 222.6 86.65 219.4 85.7 217.55 85.3 214.85 84.85 212.05 84.75 207.85 L84.6 200.15 Q84.55 196.3 84.65 193.65 84.8 187.6 84.2 183.25 L87.95 183.3 M120.9 183.1 Q128.55 183.75 136.2 183.15 L136.2 186.8 130.15 186.25 129.95 205.15 130.05 216.55 Q130.2 220.95 130.5 222.6 L126.5 222.6 Q127.15 219.15 127.15 205.15 L127.2 193.4 126.9 186.4 120.85 186.85 120.9 183.1 M110.15 186.35 L104.05 186.85 104.1 183.1 Q111.9 183.75 119.45 183.1 L119.45 186.75 113.35 186.25 113.2 205.15 Q113.1 211.95 113.25 216.55 L113.7 222.6 109.7 222.6 Q110.35 218.8 110.4 205.15 L110.45 193.4 110.15 186.35 M140.8 229.85 L143.15 229.85 Q144.9 236.55 146.95 241.3 L150.95 249.6 150.95 239.45 150.75 229.75 153.4 229.8 152.8 238.45 152.7 242.25 152.7 252.55 152.8 255.15 150.85 255.35 Q148.1 246.9 146.1 242.45 L142.65 234.5 142.4 245.2 142.4 250.15 142.55 255.4 140.35 255.4 Q140.85 250.95 140.9 243.9 L140.8 229.85 M137.7 229.9 L137.45 234.5 137.35 242.35 Q137.3 251.85 137.75 255.1 L134.8 255.1 Q135.35 251.85 135.35 242.35 L135.2 234.5 134.85 229.9 137.7 229.9 M157.2 230.4 Q158.2 229.7 159.55 229.5 L162.3 229.7 Q163.75 230.05 164.5 230.9 165.15 231.65 165.5 233.0 165.8 234.65 165.6 237.6 L163.05 237.5 Q163.8 235.9 163.6 233.9 163.35 231.9 161.7 231.65 L159.05 231.9 Q158.05 232.45 157.7 233.85 L157.6 235.4 157.8 237.25 Q158.1 239.2 161.9 242.05 165.65 244.85 165.9 247.6 166.25 250.35 165.75 251.95 165.25 253.5 164.25 254.45 163.25 255.35 161.25 255.6 154.85 256.65 155.2 247.5 L157.8 247.5 Q156.95 251.2 157.75 252.25 158.6 253.5 159.95 253.6 161.25 253.8 162.25 253.15 163.25 252.6 163.8 251.05 164.3 249.5 163.75 247.5 163.25 245.45 159.8 242.85 156.45 240.25 155.85 237.4 155.3 234.55 155.8 232.85 156.35 231.05 157.2 230.4 M98.25 229.8 L97.7 238.45 97.6 242.25 97.55 252.55 97.65 255.15 95.75 255.35 Q93.0 246.9 91.0 242.45 L87.55 234.5 87.45 255.4 85.25 255.4 Q85.8 250.85 85.8 243.85 L85.7 229.85 88.05 229.85 Q89.75 236.55 91.85 241.3 L93.85 245.65 95.85 249.6 95.85 239.45 95.65 229.75 98.25 229.8 M81.85 234.3 L82.0 239.3 82.0 251.5 Q81.9 253.5 83.3 255.1 L80.25 255.1 Q79.8 254.65 79.95 253.35 79.05 255.2 76.8 255.3 74.5 255.5 72.9 254.15 71.3 252.75 70.6 250.85 69.85 248.65 70.0 246.5 70.1 244.3 70.6 242.45 71.1 240.7 72.3 239.65 73.45 238.7 74.95 238.2 L78.05 238.25 Q79.6 238.6 80.2 240.15 L80.25 237.1 80.05 234.75 79.6 233.05 78.85 232.0 77.9 231.5 76.9 231.3 74.75 231.7 Q73.7 232.1 73.25 233.3 72.9 234.75 73.1 236.5 L70.5 236.3 Q70.75 234.2 71.2 233.0 71.65 231.8 72.5 231.0 73.4 230.2 74.4 229.8 L76.65 229.4 Q78.0 229.4 79.15 229.9 80.3 230.3 81.0 231.3 81.7 232.3 81.85 234.3 M101.1 242.45 Q101.65 240.6 102.8 239.65 103.95 238.65 105.45 238.25 107.0 237.85 108.55 238.25 110.1 238.6 110.7 240.15 L110.7 237.1 110.55 234.75 110.1 233.05 109.35 232.0 Q108.95 231.65 108.4 231.5 L107.35 231.3 105.25 231.7 Q104.15 232.1 103.75 233.3 103.4 234.6 103.55 236.5 L100.95 236.35 Q101.3 234.15 101.7 233.0 102.05 231.8 103.0 231.0 103.9 230.15 104.85 229.8 L107.15 229.4 Q108.45 229.4 109.6 229.9 110.85 230.35 111.45 231.3 112.15 232.3 112.35 234.3 L112.5 239.3 112.5 251.5 Q112.4 253.5 113.75 255.1 L110.75 255.1 Q110.25 254.65 110.45 253.35 109.55 255.2 107.25 255.3 104.95 255.5 103.4 254.15 101.85 252.9 101.1 250.85 100.4 248.8 100.45 246.5 100.55 244.2 101.1 242.45 M119.15 229.85 L118.5 241.5 118.0 253.15 119.5 253.15 121.95 253.1 124.25 252.8 124.25 255.3 120.65 255.1 115.7 255.1 Q116.2 253.3 116.5 242.55 116.95 231.9 116.5 229.85 L119.15 229.85 M108.05 240.2 L106.15 240.05 Q105.2 240.2 104.55 240.8 103.65 241.65 103.15 242.95 102.7 244.2 102.6 245.75 L102.6 247.35 102.8 249.0 103.3 250.6 104.25 252.0 Q105.3 253.25 107.25 253.2 109.1 253.2 110.45 251.25 L110.45 243.4 Q110.35 242.05 109.7 241.3 108.95 240.5 108.05 240.2 M75.9 205.1 Q73.55 203.6 68.6 203.6 L65.2 203.8 64.85 211.75 64.35 219.7 68.5 219.55 73.8 219.2 Q76.6 218.9 78.05 215.9 79.55 212.9 78.9 209.8 78.3 206.65 75.9 205.1 M52.9 232.35 Q52.55 231.2 51.45 231.0 50.25 230.8 49.3 231.55 48.3 232.35 48.1 234.15 47.85 235.85 48.9 238.45 L51.0 236.45 52.55 234.55 Q53.3 233.2 52.9 232.35 M54.95 231.75 Q55.25 233.15 54.75 234.3 L53.85 235.9 52.6 237.35 49.7 240.15 51.85 244.4 53.05 246.3 54.35 248.3 Q56.45 244.2 56.95 242.45 L59.05 243.8 55.6 249.85 57.55 252.45 59.05 254.0 57.1 255.9 54.35 251.25 Q53.3 253.05 51.9 254.2 50.5 255.35 48.7 255.7 L45.85 255.55 Q44.65 255.0 44.05 254.0 43.45 253.2 43.1 251.75 42.8 250.45 43.0 248.75 43.15 247.1 43.75 245.45 45.0 242.3 47.4 239.7 L46.65 237.4 46.25 234.9 Q46.1 233.55 46.4 232.5 46.6 231.75 47.15 231.15 L48.5 230.0 Q49.1 229.65 50.05 229.35 L51.7 229.15 Q52.85 229.25 53.75 229.8 54.7 230.4 54.95 231.75 M48.3 241.4 L46.95 243.6 46.05 245.35 Q45.35 246.95 45.1 248.5 44.85 250.1 45.4 251.85 46.0 253.6 47.55 253.65 48.9 253.65 50.6 252.55 L52.0 251.25 53.15 249.85 50.55 245.75 49.4 243.7 48.3 241.4 M77.55 240.2 L75.65 240.05 Q74.65 240.2 74.05 240.8 73.2 241.5 72.7 242.95 72.25 244.2 72.15 245.75 L72.15 247.35 72.3 249.0 72.8 250.6 73.75 252.0 Q74.9 253.25 76.8 253.2 78.6 253.2 79.9 251.25 L79.9 243.4 Q79.9 242.1 79.15 241.3 78.5 240.5 77.55 240.2 M257.7 231.7 L257.6 243.9 257.65 251.25 257.95 255.15 255.4 255.15 Q255.8 252.7 255.8 243.9 L255.85 236.3 255.65 231.75 251.7 232.1 251.75 229.7 Q256.75 230.1 261.65 229.7 L261.65 232.0 257.7 231.7 M250.35 229.8 L249.75 238.5 249.65 242.3 249.6 252.55 249.7 255.2 247.8 255.4 Q245.05 246.85 243.05 242.45 L239.6 234.5 239.5 255.4 237.3 255.4 Q237.85 250.95 237.85 243.9 L237.75 229.85 240.1 229.85 Q241.8 236.55 243.9 241.3 L247.9 249.6 247.9 239.45 247.7 229.75 250.35 229.8 M270.05 229.75 Q271.4 230.05 272.2 230.9 272.95 231.7 273.2 233.0 273.5 234.65 273.3 237.6 L270.75 237.5 Q271.55 235.9 271.3 233.9 271.0 231.9 269.4 231.65 L266.75 231.9 Q265.75 232.45 265.4 233.85 L265.3 235.4 265.5 237.25 Q265.9 239.3 269.6 242.05 273.35 244.85 273.65 247.6 273.95 250.35 273.45 251.95 272.95 253.6 271.95 254.45 270.95 255.35 268.95 255.6 262.5 256.65 262.95 247.5 L265.5 247.5 Q264.65 251.2 265.45 252.25 266.3 253.5 267.65 253.65 269.0 253.8 270.0 253.15 270.95 252.6 271.5 251.05 272.0 249.55 271.45 247.5 270.95 245.45 267.5 242.85 264.1 240.25 263.55 237.4 263.0 234.55 263.5 232.85 264.05 231.05 264.9 230.4 265.9 229.7 267.3 229.5 L270.05 229.75 M218.05 229.9 L218.1 232.4 220.05 249.45 220.6 252.55 221.15 255.15 218.45 255.15 218.35 252.0 217.8 246.7 Q217.4 243.7 217.15 240.35 L216.65 234.0 Q215.45 239.45 214.5 245.05 L212.5 255.15 210.5 255.15 208.95 245.5 Q208.1 240.3 207.6 234.25 206.95 241.2 205.9 246.9 L204.35 255.3 202.05 255.15 202.9 251.85 206.25 232.75 206.4 229.8 208.95 229.8 209.1 233.0 209.85 238.05 211.5 251.5 Q212.5 243.75 214.0 238.1 215.5 232.15 215.5 229.9 L218.05 229.9 M222.55 236.55 Q222.65 235.45 223.1 234.2 223.55 233.0 224.2 232.2 224.8 231.4 225.75 230.65 226.7 230.0 227.75 229.8 L229.95 229.65 Q231.05 229.75 232.0 230.3 233.0 230.8 233.7 231.8 234.35 232.75 234.65 234.3 L235.1 237.9 235.25 241.8 224.2 241.8 Q223.8 248.85 226.85 251.75 228.45 253.25 229.95 253.25 231.5 253.2 232.5 251.85 233.6 250.5 233.6 248.75 233.75 247.1 233.35 245.5 L235.9 245.6 Q235.85 247.35 235.4 249.9 234.95 252.4 233.65 253.65 232.5 254.95 230.5 255.15 228.55 255.45 226.95 254.4 225.2 253.35 224.2 251.7 223.15 250.05 222.6 248.0 222.1 245.85 222.2 242.05 222.3 238.15 222.55 236.55 M225.2 234.65 L224.65 236.4 224.35 238.2 224.3 239.8 233.1 239.8 233.05 236.8 232.6 234.3 231.75 232.55 Q231.15 231.85 230.7 231.65 L228.15 231.55 Q226.65 232.0 226.05 233.0 225.55 233.65 225.2 234.65 M183.0 199.5 L180.05 199.25 Q178.5 199.45 177.55 200.4 176.2 201.6 175.45 203.75 174.7 205.8 174.55 208.15 L174.55 210.55 174.8 213.15 175.6 215.6 Q176.15 216.8 177.05 217.8 178.75 219.75 181.75 219.7 184.6 219.7 186.65 216.7 L186.7 204.45 Q186.6 202.5 185.5 201.25 184.45 199.95 183.0 199.5 M180.95 229.9 L180.7 232.8 Q181.85 230.4 183.6 229.85 L187.2 229.55 187.0 231.55 184.5 231.5 Q183.1 231.75 182.1 233.0 181.05 234.05 180.95 235.9 L180.95 246.55 181.05 251.5 181.35 255.15 178.6 255.15 178.95 249.85 178.95 241.8 178.85 234.1 178.65 229.9 180.95 229.9 M173.35 231.7 L173.25 243.9 173.3 251.25 173.6 255.1 171.05 255.15 Q171.45 252.7 171.45 243.9 L171.5 236.3 171.3 231.75 167.4 232.1 167.4 229.65 Q172.4 230.1 177.3 229.65 L177.3 232.0 173.35 231.7 M200.95 229.9 Q200.6 232.75 200.65 236.3 L200.65 245.45 Q200.55 250.85 200.0 253.0 199.45 255.15 196.9 255.35 194.3 255.65 192.9 255.35 191.45 255.15 190.35 253.1 189.8 251.95 189.5 250.15 189.15 248.0 189.15 245.65 L189.0 240.7 189.05 236.5 Q189.15 232.65 188.75 229.8 L191.2 229.8 Q190.9 232.15 190.85 236.05 190.75 240.15 191.0 245.1 191.1 247.35 191.35 249.4 191.55 251.1 191.9 251.85 192.55 253.4 195.1 253.5 197.65 253.6 198.25 251.95 198.9 250.1 198.8 245.15 L198.75 236.1 198.55 229.85 200.95 229.9" fill="#000000" fill-rule="evenodd" stroke="none"/>
      <path d="M224.8 113.35 Q223.8 110.25 222.3 108.2 220.85 106.1 219.15 105.55 215.9 104.1 211.6 105.2 207.25 106.35 205.35 109.5 203.95 111.5 202.85 114.3 201.95 116.8 201.25 119.6 200.65 122.2 200.35 124.95 L200.1 129.6 226.4 129.6 Q226.7 124.95 226.2 120.65 225.8 116.7 224.8 113.35 M231.0 113.25 Q232.15 119.05 232.35 124.15 L232.75 135.6 199.9 135.6 Q198.75 156.5 207.85 165.2 212.5 169.8 216.9 169.55 221.4 169.55 224.5 165.55 227.7 161.55 227.95 156.25 228.25 151.45 227.1 146.65 L234.6 146.95 Q234.4 152.7 233.05 159.75 231.85 167.05 228.05 170.95 224.4 174.7 218.65 175.35 212.8 176.15 208.0 173.15 203.0 170.05 199.9 165.1 196.75 160.05 195.2 154.05 193.75 148.0 193.95 136.3 194.15 124.5 194.9 119.9 195.3 116.4 196.6 113.05 197.8 109.85 199.9 107.05 201.85 104.35 204.55 102.5 207.15 100.65 210.45 100.0 L216.9 99.55 Q220.25 99.9 223.15 101.45 226.0 102.95 228.15 105.95 230.2 108.85 231.0 113.25 M242.55 109.0 Q244.1 103.8 246.85 101.7 249.65 99.6 253.8 99.1 258.0 98.7 262.0 99.7 266.15 100.75 268.4 103.15 270.65 105.5 271.45 109.5 272.3 114.15 271.7 123.2 L264.15 122.85 Q266.45 118.1 265.75 112.1 264.9 106.1 260.1 105.45 255.35 104.6 252.25 106.2 249.2 107.85 248.3 112.0 247.9 114.15 247.95 116.6 247.95 118.85 248.5 122.1 249.6 128.05 260.75 136.4 271.8 144.7 272.7 152.8 273.7 160.9 272.15 165.8 270.65 170.65 267.7 173.25 264.8 175.85 258.75 176.7 239.75 179.7 240.9 152.6 L248.5 152.45 Q246.15 163.55 248.45 166.65 250.8 170.3 254.85 170.75 258.95 171.25 261.9 169.45 264.8 167.6 266.35 163.15 267.9 158.5 266.25 152.45 264.7 146.45 254.5 138.7 244.4 131.0 242.65 122.65 241.05 114.3 242.55 109.0 M187.0 113.9 Q186.7 124.35 186.65 137.35 186.45 165.65 187.9 175.2 L179.15 175.2 Q180.7 165.55 180.7 137.35 L180.4 113.9 Q180.1 104.85 179.35 100.2 L187.7 100.2 Q187.3 104.6 187.0 113.9 M175.7 106.6 L164.0 105.65 163.7 141.85 Q163.6 155.5 163.9 163.7 164.25 172.2 164.75 175.2 L157.1 175.2 Q158.25 168.7 158.35 141.85 158.6 127.55 158.45 119.3 158.3 111.15 157.85 105.85 L146.15 106.8 146.25 99.55 Q161.15 100.85 175.7 99.55 L175.7 106.6 M85.45 90.15 Q82.9 89.7 52.3 89.2 L52.0 146.85 52.0 180.25 Q52.05 207.15 52.2 210.9 52.45 218.95 53.05 222.45 L45.4 222.45 Q45.9 219.5 46.3 189.6 L46.65 146.85 46.7 124.3 46.5 105.85 Q46.3 91.35 46.1 89.4 L28.9 89.75 13.0 90.35 13.1 83.1 Q20.55 83.75 49.35 83.75 78.15 83.75 85.45 83.1 L85.45 90.15 M126.0 98.15 Q130.7 98.15 134.55 100.1 138.4 102.1 141.15 106.7 143.9 111.35 145.5 118.9 147.05 126.6 147.05 137.75 147.05 146.7 146.15 153.35 145.15 160.0 143.65 164.3 142.05 168.65 140.0 171.3 137.85 173.95 135.55 175.35 133.1 176.7 130.75 177.1 L126.0 177.5 Q122.2 177.5 118.4 175.75 114.6 174.0 111.45 169.5 108.45 165.0 106.65 157.35 104.8 149.7 105.1 137.75 105.2 128.85 106.2 122.1 107.3 115.35 108.8 111.25 110.35 106.75 112.45 104.2 114.5 101.55 116.8 100.25 119.15 98.95 121.45 98.55 L126.0 98.15 M80.55 98.15 Q85.3 98.15 89.1 100.1 92.9 102.05 95.75 106.7 98.5 111.5 100.05 118.9 101.65 126.6 101.65 137.75 101.65 146.8 100.65 153.35 99.75 160.0 98.15 164.3 96.6 168.65 94.5 171.3 92.35 174.05 90.1 175.35 87.7 176.7 85.3 177.1 L80.55 177.5 Q76.7 177.5 72.95 175.75 69.1 173.95 66.05 169.5 62.95 164.9 61.2 157.35 59.35 149.7 59.7 137.75 59.8 128.45 60.8 122.1 61.75 115.7 63.35 111.25 65.45 105.2 67.75 102.45 68.5 101.55 68.35 102.1 L67.3 103.8 Q69.2 101.5 71.35 100.25 73.7 98.95 76.0 98.55 L80.55 98.15 M67.75 119.5 Q66.15 126.05 66.05 137.8 66.05 148.15 67.55 154.7 69.0 161.15 71.25 165.0 73.45 168.75 76.0 170.15 78.5 171.55 80.6 171.55 82.45 171.55 84.95 170.3 87.45 169.05 89.75 165.4 92.1 161.6 93.65 155.15 95.25 148.6 95.25 137.8 95.25 129.7 94.4 124.05 93.6 118.45 92.3 114.65 91.0 110.85 89.35 108.75 87.65 106.6 86.05 105.65 84.45 104.6 83.0 104.35 L80.6 104.1 Q78.65 104.1 76.15 105.0 73.65 105.95 71.45 109.35 69.3 112.7 67.75 119.5 M128.45 104.35 L126.05 104.1 Q124.15 104.1 121.55 105.0 119.0 106.0 116.9 109.35 114.7 112.8 113.15 119.5 111.6 126.3 111.45 137.8 111.45 148.2 113.0 154.7 114.5 161.25 116.7 165.0 118.85 168.75 121.4 170.15 123.9 171.55 126.05 171.55 127.9 171.55 130.4 170.3 132.85 169.1 135.2 165.4 137.5 161.75 139.1 155.15 140.7 148.6 140.7 137.8 140.7 129.8 139.85 124.05 139.0 118.4 137.75 114.65 136.45 110.85 134.75 108.75 133.1 106.65 131.5 105.65 129.95 104.6 128.45 104.35" fill="#993300" fill-rule="evenodd" stroke="none"/>
    </g>
  </defs>
</svg>
