<?xml version="1.0" encoding="UTF-8" standalone="no"?>
<svg xmlns:xlink="http://www.w3.org/1999/xlink" height="300.0px" width="300.0px" xmlns="http://www.w3.org/2000/svg">
  <g transform="matrix(1.0, 0.0, 0.0, 1.0, 0.0, 0.0)">
    <use height="210.2" transform="matrix(1.0, 0.0, 0.0, 1.0, -6.7, 67.65)" width="311.8" xlink:href="#shape0"/>
    <use height="48.5" transform="matrix(1.433, 0.0, 0.0, 1.433, 43.864, 167.214)" width="153.75" xlink:href="#sprite0"/>
    <use height="137.2" transform="matrix(1.0, 0.0, 0.0, 1.0, 39.35, 95.6)" width="226.75" xlink:href="#shape2"/>
    <use height="48.65" transform="matrix(1.433, 0.0, 0.0, 1.433, 51.1144, 94.6403)" width="160.05" xlink:href="#text0"/>
  </g>
  <defs>
    <g id="shape0" transform="matrix(1.0, 0.0, 0.0, 1.0, 6.7, -67.65)">
      <path d="M301.6 172.75 Q301.6 193.4 289.65 212.3 278.05 230.5 257.0 244.65 235.9 258.65 208.55 266.4 180.25 274.35 149.2 274.35 118.2 274.35 89.9 266.4 62.6 258.65 41.45 244.65 20.4 230.5 8.8 212.3 -3.2 193.4 -3.2 172.75 -3.2 152.15 8.8 133.2 20.4 115.0 41.45 100.9 62.6 86.85 89.9 79.1 118.25 71.15 149.2 71.15 180.25 71.15 208.55 79.1 235.9 86.85 257.0 100.9 278.05 115.0 289.65 133.2 301.6 152.15 301.6 172.75" fill="url(#gradient0)" fill-rule="evenodd" stroke="none"/>
      <path d="M301.6 172.75 Q301.6 193.4 289.65 212.3 278.05 230.5 257.0 244.65 235.9 258.65 208.55 266.4 180.25 274.35 149.2 274.35 118.2 274.35 89.9 266.4 62.6 258.65 41.45 244.65 20.4 230.5 8.8 212.3 -3.2 193.4 -3.2 172.75 -3.2 152.15 8.8 133.2 20.4 115.0 41.45 100.9 62.6 86.85 89.9 79.1 118.25 71.15 149.2 71.15 180.25 71.15 208.55 79.1 235.9 86.85 257.0 100.9 278.05 115.0 289.65 133.2 301.6 152.15 301.6 172.75 Z" fill="none" stroke="#f7941d" stroke-linecap="butt" stroke-linejoin="miter-clip" stroke-miterlimit="4.0" stroke-width="7.0"/>
    </g>
    <radialGradient cx="0" cy="0" gradientTransform="matrix(0.1581, 0.0, 0.0, -0.1186, 149.2, 172.75)" gradientUnits="userSpaceOnUse" id="gradient0" r="819.2" spreadMethod="pad">
      <stop offset="0.0" stop-color="#2ca69c"/>
      <stop offset="0.5019607843137255" stop-color="#2ca49a"/>
      <stop offset="0.6784313725490196" stop-color="#2a9d94"/>
      <stop offset="0.807843137254902" stop-color="#279289"/>
      <stop offset="0.9098039215686274" stop-color="#238179"/>
      <stop offset="1.0" stop-color="#1d6b65"/>
    </radialGradient>
    <g id="sprite0" transform="matrix(1.0, 0.0, 0.0, 1.0, -8.0, -8.0)">
      <use height="48.5" transform="matrix(1.0, 0.0, 0.0, 1.0, 8.0, 8.0)" width="153.75" xlink:href="#shape1"/>
    </g>
    <g id="shape1" transform="matrix(1.0, 0.0, 0.0, 1.0, -8.0, -8.0)">
      <path d="M153.45 35.4 Q138.45 61.55 104.75 55.3 91.85 52.9 68.25 47.25 48.4 42.5 40.1 41.4 27.45 39.7 20.75 42.5 13.2 45.65 10.75 55.3 9.0 53.9 8.3 50.8 6.9 44.6 12.25 36.15 20.1 23.9 52.25 27.1 62.8 28.15 80.45 31.4 L107.05 36.15 Q133.05 40.1 150.0 24.45 158.5 16.65 161.75 8.0 161.0 22.35 153.45 35.4" fill="#ef5124" fill-rule="evenodd" stroke="none"/>
    </g>
    <g id="shape2" transform="matrix(1.0, 0.0, 0.0, 1.0, -39.35, -95.6)">
      <path d="M250.65 201.0 Q227.55 232.95 179.25 224.0 165.35 221.4 127.2 212.8 100.15 206.65 87.45 205.65 69.75 204.2 60.25 209.9 49.6 216.2 45.95 232.8 44.6 227.35 44.05 220.15 42.9 205.6 46.7 196.55 54.8 177.5 102.15 182.65 117.35 184.3 143.7 189.4 L182.55 196.55 Q219.8 202.2 245.75 185.3 258.7 176.85 264.2 167.25 262.3 185.0 250.65 201.0" fill="#00a69c" fill-rule="evenodd" stroke="none"/>
      <path d="M252.55 188.55 Q229.4 220.5 181.1 211.45 L128.0 201.8 Q101.55 197.55 86.25 198.15 67.7 198.85 58.1 206.5 47.55 214.9 45.95 232.8 41.9 226.5 40.15 217.2 36.7 198.7 48.55 184.1 61.75 167.8 106.95 171.9 132.6 174.2 184.4 184.1 221.65 189.75 247.6 172.85 260.55 164.4 266.1 154.8 264.15 172.55 252.55 188.55" fill="#ffffff" fill-rule="evenodd" stroke="none"/>
      <path d="M111.45 136.0 Q110.25 137.15 109.4 141.0 L105.0 161.6 98.25 161.6 96.05 156.45 Q91.25 159.45 87.4 161.1 82.2 163.1 75.9 163.1 62.8 163.1 56.15 154.2 51.15 147.7 51.15 138.35 51.15 129.85 54.7 121.95 59.85 110.05 71.05 103.1 79.95 97.6 90.05 97.6 96.35 97.6 100.35 99.7 102.45 100.75 106.5 104.4 L110.1 99.1 116.6 99.1 111.55 123.2 104.5 123.2 Q104.3 117.15 103.15 114.45 101.4 109.7 97.4 107.2 94.1 105.2 89.9 105.2 78.65 105.2 71.55 116.95 68.7 121.75 66.95 128.25 65.45 134.05 65.45 139.65 65.45 147.45 69.7 151.35 73.7 154.9 79.85 154.9 86.4 154.9 91.4 151.25 93.7 149.55 94.55 147.85 95.5 146.35 96.0 143.75 L96.7 140.3 97.15 137.45 Q97.15 136.3 96.4 135.85 95.4 135.3 94.1 135.3 L86.9 135.2 88.4 128.2 121.05 128.2 119.55 135.2 115.7 135.2 Q112.6 135.2 111.45 136.0" fill="#231f20" fill-rule="evenodd" stroke="none"/>
      <path d="M111.45 136.0 Q110.25 137.15 109.4 141.0 L105.0 161.6 98.25 161.6 96.05 156.45 Q91.25 159.45 87.4 161.1 82.2 163.1 75.9 163.1 62.8 163.1 56.15 154.2 51.15 147.7 51.15 138.35 51.15 129.85 54.7 121.95 59.85 110.05 71.05 103.1 79.95 97.6 90.05 97.6 96.35 97.6 100.35 99.7 102.45 100.75 106.5 104.4 L110.1 99.1 116.6 99.1 111.55 123.2 104.5 123.2 Q104.3 117.15 103.15 114.45 101.4 109.7 97.4 107.2 94.1 105.2 89.9 105.2 78.65 105.2 71.55 116.95 68.7 121.75 66.95 128.25 65.45 134.05 65.45 139.65 65.45 147.45 69.7 151.35 73.7 154.9 79.85 154.9 86.4 154.9 91.4 151.25 93.7 149.55 94.55 147.85 95.5 146.35 96.0 143.75 L96.7 140.3 97.15 137.45 Q97.15 136.3 96.4 135.85 95.4 135.3 94.1 135.3 L86.9 135.2 88.4 128.2 121.05 128.2 119.55 135.2 115.7 135.2 Q112.6 135.2 111.45 136.0 Z" fill="none" stroke="#ffffff" stroke-linecap="butt" stroke-linejoin="miter-clip" stroke-miterlimit="4.0" stroke-width="4.0"/>
      <path d="M132.75 126.4 Q132.75 125.55 132.4 125.05 131.45 123.9 128.15 123.9 L125.15 123.9 126.45 117.75 145.85 117.75 144.4 124.25 Q148.15 119.9 150.95 118.4 154.45 116.5 157.8 116.5 161.95 116.5 164.5 118.75 166.9 120.7 166.9 124.45 166.9 128.0 164.4 131.05 161.75 134.3 157.6 134.3 152.3 134.3 152.3 129.9 152.3 124.6 159.4 122.3 156.95 121.45 155.4 121.45 153.25 121.45 150.45 123.35 143.85 127.5 141.55 137.85 L139.1 149.55 Q138.6 151.55 138.6 152.55 138.6 153.4 138.95 153.9 139.9 155.05 143.2 155.05 L147.8 155.05 146.5 161.25 117.2 161.25 118.55 155.05 121.5 155.05 Q125.0 155.05 126.2 153.9 127.2 153.15 128.0 149.55 L132.25 129.4 132.75 126.4" fill="#231f20" fill-rule="evenodd" stroke="none"/>
      <path d="M132.75 126.4 Q132.75 125.55 132.4 125.05 131.45 123.9 128.15 123.9 L125.15 123.9 126.45 117.75 145.85 117.75 144.4 124.25 Q148.15 119.9 150.95 118.4 154.45 116.5 157.8 116.5 161.95 116.5 164.5 118.75 166.9 120.7 166.9 124.45 166.9 128.0 164.4 131.05 161.75 134.3 157.6 134.3 152.3 134.3 152.3 129.9 152.3 124.6 159.4 122.3 156.95 121.45 155.4 121.45 153.25 121.45 150.45 123.35 143.85 127.5 141.55 137.85 L139.1 149.55 Q138.6 151.55 138.6 152.55 138.6 153.4 138.95 153.9 139.9 155.05 143.2 155.05 L147.8 155.05 146.5 161.25 117.2 161.25 118.55 155.05 121.5 155.05 Q125.0 155.05 126.2 153.9 127.2 153.15 128.0 149.55 L132.25 129.4 132.75 126.4 Z" fill="none" stroke="#ffffff" stroke-linecap="butt" stroke-linejoin="miter-clip" stroke-miterlimit="4.0" stroke-width="4.0"/>
      <path d="M194.0 100.7 Q195.15 102.25 195.15 104.2 195.15 106.5 193.5 108.7 190.9 112.45 186.45 112.45 183.75 112.45 182.25 110.45 181.1 108.95 181.1 106.85 181.1 104.75 182.15 103.05 182.9 101.9 184.3 100.7 186.9 98.75 189.85 98.75 192.4 98.75 194.0 100.7 M178.65 126.4 Q178.65 125.5 178.25 125.05 177.35 123.95 174.1 123.95 L170.8 123.95 172.05 117.75 191.9 117.75 185.2 149.55 Q184.75 151.5 184.75 152.55 184.75 153.5 185.2 153.9 186.05 155.05 189.35 155.05 L192.05 155.05 190.75 161.25 162.85 161.25 164.1 155.05 167.5 155.05 Q170.9 155.05 172.15 153.9 173.15 153.15 173.95 149.55 L178.25 129.4 Q178.65 127.65 178.65 126.4" fill="#231f20" fill-rule="evenodd" stroke="none"/>
      <path d="M194.0 100.7 Q195.15 102.25 195.15 104.2 195.15 106.5 193.5 108.7 190.9 112.45 186.45 112.45 183.75 112.45 182.25 110.45 181.1 108.95 181.1 106.85 181.1 104.75 182.15 103.05 182.9 101.9 184.3 100.7 186.9 98.75 189.85 98.75 192.4 98.75 194.0 100.7 M178.65 126.4 Q178.65 125.5 178.25 125.05 177.35 123.95 174.1 123.95 L170.8 123.95 172.05 117.75 191.9 117.75 185.2 149.55 Q184.75 151.5 184.75 152.55 184.75 153.5 185.2 153.9 186.05 155.05 189.35 155.05 L192.05 155.05 190.75 161.25 162.85 161.25 164.1 155.05 167.5 155.05 Q170.9 155.05 172.15 153.9 173.15 153.15 173.95 149.55 L178.25 129.4 Q178.65 127.65 178.65 126.4" fill="none" stroke="#ffffff" stroke-linecap="butt" stroke-linejoin="miter-clip" stroke-miterlimit="4.0" stroke-width="4.0"/>
      <path d="M224.15 128.0 Q221.85 130.35 220.7 133.2 219.95 135.3 219.35 138.3 L216.9 149.55 216.5 152.55 Q216.5 153.4 216.85 153.9 217.8 155.05 221.1 155.05 L222.95 155.05 221.6 161.25 195.05 161.25 196.35 155.05 199.35 155.05 Q202.9 155.05 204.1 153.9 205.15 153.0 205.8 149.55 L210.1 129.4 210.55 126.4 Q210.55 125.55 210.2 125.05 209.25 123.95 205.95 123.95 L203.0 123.95 204.3 117.75 223.65 117.75 222.1 125.4 Q227.3 120.4 230.6 118.75 235.25 116.3 239.7 116.3 244.35 116.3 247.65 118.65 250.75 120.9 250.75 124.85 250.75 127.65 249.8 132.45 L246.15 149.55 245.75 152.65 Q245.75 155.05 250.25 155.05 L252.9 155.05 251.6 161.25 225.4 161.25 226.75 155.05 228.6 155.05 Q232.05 155.05 233.25 153.9 234.25 153.15 235.05 149.55 L238.7 132.45 239.35 127.9 Q239.35 125.9 237.7 124.6 236.25 123.45 233.85 123.45 228.6 123.45 224.15 128.0" fill="#231f20" fill-rule="evenodd" stroke="none"/>
      <path d="M224.15 128.0 Q221.85 130.35 220.7 133.2 219.95 135.3 219.35 138.3 L216.9 149.55 216.5 152.55 Q216.5 153.4 216.85 153.9 217.8 155.05 221.1 155.05 L222.95 155.05 221.6 161.25 195.05 161.25 196.35 155.05 199.35 155.05 Q202.9 155.05 204.1 153.9 205.15 153.0 205.8 149.55 L210.1 129.4 210.55 126.4 Q210.55 125.55 210.2 125.05 209.25 123.95 205.95 123.95 L203.0 123.95 204.3 117.75 223.65 117.75 222.1 125.4 Q227.3 120.4 230.6 118.75 235.25 116.3 239.7 116.3 244.35 116.3 247.65 118.65 250.75 120.9 250.75 124.85 250.75 127.65 249.8 132.45 L246.15 149.55 245.75 152.65 Q245.75 155.05 250.25 155.05 L252.9 155.05 251.6 161.25 225.4 161.25 226.75 155.05 228.6 155.05 Q232.05 155.05 233.25 153.9 234.25 153.15 235.05 149.55 L238.7 132.45 239.35 127.9 Q239.35 125.9 237.7 124.6 236.25 123.45 233.85 123.45 228.6 123.45 224.15 128.0 Z" fill="none" stroke="#ffffff" stroke-linecap="butt" stroke-linejoin="miter-clip" stroke-miterlimit="4.0" stroke-width="4.0"/>
    </g>
    <g id="text0" transform="matrix(1.0, 0.0, 0.0, 1.0, -1.65, -13.95)">
      <g transform="matrix(1.0, 0.0, 0.0, 1.0, 0.0, 0.0)">
        <use fill="#ef5124" height="48.65" transform="matrix(0.0632, 0.0, 0.0, 0.0632, 0.0, 60.0)" width="160.05" xlink:href="#font_URWClarendonTCE_G0"/>
        <use fill="#ef5124" height="48.65" transform="matrix(0.0632, 0.0, 0.0, 0.0632, 50.75, 60.0)" width="160.05" xlink:href="#font_URWClarendonTCE_r0"/>
        <use fill="#ef5124" height="48.65" transform="matrix(0.0632, 0.0, 0.0, 0.0632, 82.55, 60.0)" width="160.05" xlink:href="#font_URWClarendonTCE_i0"/>
        <use fill="#ef5124" height="48.65" transform="matrix(0.0632, 0.0, 0.0, 0.0632, 105.05, 60.0)" width="160.05" xlink:href="#font_URWClarendonTCE_n0"/>
      </g>
    </g>
    <g id="font_URWClarendonTCE_G0">
      <path d="M546.5 4.0 L621.0 4.0 669.5 -223.5 Q679.0 -267.5 692.5 -278.5 704.0 -287.5 739.0 -287.5 L782.0 -287.5 798.5 -365.0 437.5 -365.0 421.0 -287.5 464.0 -287.5 Q487.5 -287.5 501.0 -287.0 516.0 -286.5 526.0 -280.5 534.5 -275.0 534.5 -263.0 534.5 -254.0 529.5 -231.5 L521.5 -193.5 Q515.5 -164.0 506.0 -148.0 494.5 -127.5 471.0 -110.5 415.0 -70.0 343.5 -70.0 274.5 -70.0 231.5 -109.5 184.5 -152.0 184.5 -238.5 184.5 -299.5 201.5 -364.5 220.0 -436.0 252.0 -489.0 330.5 -619.0 454.0 -619.0 501.0 -619.0 537.5 -596.5 581.0 -569.5 601.0 -516.5 613.0 -486.0 615.5 -420.0 L693.0 -420.0 749.5 -686.5 677.5 -686.5 637.5 -627.5 Q594.5 -666.5 570.0 -679.5 526.0 -702.5 456.0 -702.5 344.0 -702.5 246.5 -642.0 123.5 -566.0 65.5 -434.0 26.0 -344.5 26.0 -253.0 26.0 -150.5 81.5 -77.5 155.5 20.0 300.0 20.0 372.5 20.0 426.5 -2.0 463.5 -17.0 522.5 -53.0 L546.5 4.0" fill-rule="evenodd" stroke="none"/>
    </g>
    <g id="font_URWClarendonTCE_r0">
      <path d="M290.5 -68.5 L240.0 -68.5 Q204.0 -68.5 193.5 -81.0 189.5 -85.5 189.5 -96.0 189.5 -106.0 194.5 -129.0 L222.0 -258.5 Q246.0 -372.0 319.5 -419.0 351.5 -439.5 374.5 -439.5 391.0 -439.5 418.5 -429.5 340.5 -405.0 340.5 -346.0 340.5 -297.5 399.0 -297.5 444.0 -297.5 474.0 -333.0 501.5 -366.5 501.5 -406.0 501.5 -447.5 475.0 -469.5 446.0 -494.0 401.5 -494.0 363.0 -494.0 325.0 -473.5 295.0 -457.0 253.5 -408.5 L269.0 -480.5 55.0 -480.5 40.5 -412.5 73.5 -412.5 Q109.5 -412.5 120.0 -400.0 124.0 -395.0 124.0 -385.0 124.0 -374.0 119.0 -351.5 L72.0 -129.0 Q64.0 -91.0 52.5 -81.0 38.0 -68.5 0.5 -68.5 L-32.5 -68.5 -47.0 0.0 276.0 0.0 290.5 -68.5" fill-rule="evenodd" stroke="none"/>
    </g>
    <g id="font_URWClarendonTCE_i0">
      <path d="M-47.0 0.0 L261.5 0.0 276.0 -68.5 246.0 -68.5 Q210.0 -68.5 199.5 -81.0 195.5 -85.5 195.5 -96.0 195.5 -107.5 200.0 -129.0 L274.5 -480.5 55.0 -480.5 40.5 -412.0 77.5 -412.0 Q113.0 -412.0 123.5 -399.5 127.5 -395.0 127.5 -384.5 127.5 -372.0 123.0 -351.5 L76.0 -129.0 Q67.5 -91.0 56.0 -81.0 41.5 -68.5 4.5 -68.5 L-32.5 -68.5 -47.0 0.0 M251.0 -690.5 L251.0 -690.5 Q219.0 -690.5 190.0 -668.5 176.0 -657.5 167.0 -643.0 155.0 -623.0 155.0 -600.5 155.0 -577.0 167.5 -561.0 184.5 -539.0 214.5 -539.0 262.5 -539.0 292.0 -580.0 309.5 -604.5 309.5 -630.0 309.5 -652.0 297.0 -668.5 280.0 -690.5 251.0 -690.5" fill-rule="evenodd" stroke="none"/>
    </g>
    <g id="font_URWClarendonTCE_n0">
      <path d="M-47.0 0.0 L246.0 0.0 260.5 -68.5 240.0 -68.5 Q204.0 -68.5 193.5 -81.0 189.5 -85.5 189.5 -96.0 189.5 -106.0 194.5 -129.0 L221.0 -253.5 Q228.5 -290.5 236.5 -310.0 249.0 -341.5 274.0 -367.0 323.0 -417.5 381.0 -417.5 407.0 -417.5 423.5 -404.5 442.0 -390.0 442.0 -368.5 442.0 -352.5 435.0 -318.5 L394.5 -129.0 Q386.5 -91.0 375.0 -81.0 360.5 -68.5 323.0 -68.5 L302.5 -68.5 288.0 0.0 577.0 0.0 591.5 -68.5 562.5 -68.5 Q512.0 -68.5 512.0 -95.5 512.0 -105.5 517.0 -129.0 L557.0 -318.5 Q567.5 -367.0 567.5 -402.0 567.5 -446.5 533.5 -470.5 497.5 -496.0 445.5 -496.0 396.0 -496.0 345.0 -469.5 309.5 -451.0 251.0 -396.0 L269.0 -480.5 55.0 -480.5 40.5 -412.0 73.5 -412.0 Q109.5 -412.0 120.0 -399.5 124.0 -395.0 124.0 -384.5 124.0 -374.0 119.0 -351.5 L72.0 -129.0 Q64.0 -91.0 52.5 -81.0 38.0 -68.5 0.5 -68.5 L-32.5 -68.5 -47.0 0.0" fill-rule="evenodd" stroke="none"/>
    </g>
  </defs>
</svg>
