<?xml version="1.0" encoding="UTF-8" standalone="no"?>
<svg xmlns:xlink="http://www.w3.org/1999/xlink" height="300.0px" width="300.0px" xmlns="http://www.w3.org/2000/svg">
  <g transform="matrix(1.0, 0.0, 0.0, 1.0, 0.0, 0.0)">
    <use height="194.0" transform="matrix(1.0, 0.0, 0.0, 1.0, 18.85, 70.05)" width="262.5" xlink:href="#sprite0"/>
  </g>
  <defs>
    <g id="sprite0" transform="matrix(1.0, 0.0, 0.0, 1.0, 131.25, 97.0)">
      <use height="194.0" transform="matrix(1.0, 0.0, 0.0, 1.0, -131.25, -97.0)" width="262.5" xlink:href="#shape0"/>
    </g>
    <g id="shape0" transform="matrix(1.0, 0.0, 0.0, 1.0, 131.25, 97.0)">
      <path d="M55.15 -88.7 L59.55 -87.5 47.05 -36.9 48.9 -36.35 64.0 -83.15 64.6 -82.9 65.5 -85.75 69.95 -84.2 Q77.1 -81.7 83.05 -79.2 L83.2 -79.15 83.25 -79.3 87.6 -77.4 Q108.45 -67.85 127.5 -54.0 L131.25 -51.35 105.85 -15.35 102.1 -18.1 Q93.0 -24.55 84.15 -29.55 L71.3 -4.2 67.15 -6.45 59.9 -10.05 58.0 -10.8 57.75 -10.05 54.45 -11.45 Q41.0 -17.05 26.45 -20.0 L23.05 -20.65 26.6 -39.95 9.9 -41.7 8.4 -41.75 8.1 -23.75 -10.4 -23.5 -10.45 -24.45 Q-21.2 -23.5 -31.85 -20.8 L-36.75 -19.5 Q-49.65 -15.8 -61.85 -9.75 L-66.05 -7.7 -78.15 -33.4 -80.65 -31.95 -87.95 -27.6 -72.65 -3.65 -76.5 -1.15 Q-80.7 1.75 -84.55 4.6 L-88.25 7.4 -131.25 -51.0 -127.55 -53.8 Q-112.8 -64.85 -96.95 -73.35 L-97.0 -73.45 -92.95 -75.5 -92.4 -75.75 -91.5 -76.25 -91.45 -76.2 Q-74.15 -84.65 -55.75 -89.95 L-51.2 -91.25 -51.2 -91.2 -48.55 -91.9 -35.15 -94.75 -30.55 -95.6 -21.85 -44.05 -11.4 -45.3 -12.75 -75.15 -19.5 -74.55 -24.15 -74.05 -26.3 -95.25 -21.7 -95.75 -1.0 -96.95 1.0 -97.0 17.55 -96.3 22.15 -96.0 20.55 -74.7 15.95 -75.1 8.9 -75.5 8.7 -62.1 10.9 -62.0 Q20.7 -61.5 30.3 -59.95 L35.85 -90.25 36.75 -90.05 37.2 -92.75 41.8 -91.85 Q49.15 -90.35 55.15 -88.7 M19.75 -16.9 L17.25 -1.7 Q17.0 -0.25 16.35 1.15 L14.8 2.95 Q13.95 3.65 12.85 3.9 L10.6 4.05 8.4 3.4 6.7 2.05 Q5.95 1.05 5.6 -0.1 5.2 -1.5 5.35 -3.1 L6.3 -18.45 11.05 -18.05 9.5 -2.35 Q9.35 -0.95 9.8 -0.25 10.2 0.4 11.0 0.5 11.75 0.6 12.3 0.05 12.85 -0.5 13.05 -1.95 L15.05 -17.6 19.75 -16.9 M3.6 -14.5 Q4.25 -13.1 4.05 -11.2 L4.05 -11.15 Q4.0 -9.35 3.4 -7.95 2.75 -6.6 1.75 -5.75 0.7 -4.8 -0.65 -4.4 L-3.6 -3.75 -3.5 3.05 -7.5 3.2 -8.6 -18.5 -4.35 -18.65 -0.85 -18.2 Q0.75 -17.8 1.95 -16.85 3.1 -16.0 3.6 -14.5 M26.65 -15.6 L30.05 -14.35 Q31.65 -13.45 32.35 -12.35 33.3 -11.1 33.5 -9.65 33.7 -8.2 33.15 -6.4 L33.15 -6.25 Q32.65 -4.6 31.7 -3.35 30.8 -2.25 29.6 -1.6 28.35 -0.95 26.9 -0.8 L23.9 -0.9 23.85 -0.9 22.35 5.75 18.5 4.9 22.5 -16.4 26.65 -15.6 M26.5 -12.0 L26.35 -12.05 24.65 -4.35 24.7 -4.35 Q26.1 -4.15 27.15 -4.8 28.35 -5.5 28.75 -7.35 L28.8 -7.4 Q29.3 -9.45 28.6 -10.55 28.0 -11.65 26.5 -12.0 M37.95 -0.6 L40.45 -0.7 Q41.7 -1.2 42.4 -3.1 L42.4 -3.15 Q43.1 -5.05 42.6 -6.25 42.1 -7.45 40.65 -7.95 L40.5 -8.0 37.9 -0.6 37.95 -0.6 M44.45 -9.85 Q45.8 -8.9 46.55 -7.65 47.35 -6.3 47.4 -4.85 47.4 -3.25 46.65 -1.55 L46.65 -1.5 Q46.0 0.1 44.9 1.25 43.85 2.25 42.55 2.8 L39.8 3.25 36.8 2.8 36.75 2.7 34.55 9.2 30.75 7.95 37.1 -12.8 41.2 -11.5 Q43.25 -10.75 44.45 -9.85 M60.9 -2.8 L59.2 0.35 54.15 -2.25 51.8 2.6 56.1 4.75 54.45 7.95 50.3 5.85 47.85 10.8 52.45 13.2 50.75 16.3 Q47.25 14.5 42.6 12.35 L51.3 -7.5 Q55.85 -5.5 60.9 -2.8 M99.35 -44.85 L100.45 -46.7 94.65 -50.1 93.65 -48.15 99.35 -44.85 M67.6 5.3 L57.85 20.5 54.3 18.35 63.55 2.8 60.65 1.15 62.4 -2.0 Q67.05 0.55 72.45 4.2 L70.45 7.15 67.6 5.3 M50.85 84.65 Q28.75 97.25 -2.35 97.0 -33.45 96.65 -55.3 83.55 -77.15 70.5 -76.9 52.3 -76.75 34.15 -54.6 21.55 -32.55 8.9 -1.45 9.2 29.65 9.55 51.5 22.6 73.3 35.7 73.15 53.9 72.95 72.05 50.85 84.65 M-50.1 -69.55 Q-58.25 -67.2 -68.1 -63.45 L-67.3 -61.4 Q-61.25 -63.75 -55.45 -65.6 L-50.95 -67.05 -45.0 -46.95 -49.3 -45.6 -59.55 -41.95 -56.85 -35.1 Q-50.25 -37.7 -42.35 -40.0 L-41.2 -40.3 -48.15 -70.1 -50.1 -69.55 M-87.05 -52.3 L-87.95 -54.25 Q-94.3 -50.9 -100.4 -47.05 L-99.2 -45.2 -87.05 -52.3 M-64.05 -3.1 L-53.85 16.0 -57.45 18.0 -62.0 10.15 -65.3 12.15 -60.45 19.9 -63.95 22.15 -76.15 4.2 -72.0 1.55 -67.25 9.1 -63.8 7.05 -68.3 -0.7 -64.05 -3.1 M-42.8 -12.15 Q-38.9 -7.9 -35.1 -3.0 L-38.1 -13.6 -33.65 -14.8 -28.4 6.3 -31.85 7.2 Q-34.9 2.95 -39.5 -2.5 L-35.95 8.4 -39.6 9.65 -47.05 -10.7 -42.8 -12.15 M-53.3 -8.3 Q-46.5 1.0 -40.75 10.1 L-44.5 11.6 -46.9 7.95 Q-49.2 8.95 -50.4 9.5 L-49.2 13.7 -52.75 15.45 Q-55.8 4.8 -58.0 -6.2 L-53.3 -8.3 M-25.6 -12.95 L-22.9 1.55 -22.7 1.45 -21.4 0.9 Q-20.75 0.45 -20.45 -0.4 -20.1 -1.15 -20.0 -2.6 L-20.15 -6.05 -20.25 -6.75 Q-20.6 -8.75 -21.1 -10.05 -21.65 -11.4 -22.3 -12.05 -23.05 -12.8 -23.8 -12.95 L-25.4 -13.05 -25.6 -12.95 M-26.55 -16.3 Q-22.0 -17.2 -19.2 -14.9 -16.5 -12.65 -15.9 -7.4 L-15.8 -6.65 Q-15.2 -1.55 -16.95 1.45 -18.75 4.25 -22.5 5.0 L-26.15 5.75 -30.9 -15.4 -26.55 -16.3 M-3.8 -15.15 L-3.65 -7.3 Q-2.2 -7.4 -1.35 -8.25 -0.5 -9.1 -0.35 -11.15 L-0.35 -11.2 Q-0.35 -13.25 -1.25 -14.2 -2.15 -15.15 -3.65 -15.15 L-3.8 -15.15 M-48.8 5.05 L-52.95 -0.95 -51.25 6.15 -48.8 5.05" fill="#000000" fill-rule="evenodd" stroke="none"/>
      <path d="M-49.4 25.35 Q-29.7 13.8 -1.9 13.8 25.9 13.8 45.55 25.35 65.25 36.85 65.25 53.1 65.25 69.35 45.55 80.85 25.9 92.4 -1.9 92.4 -29.7 92.4 -49.4 80.85 -69.05 69.35 -69.05 53.1 -69.05 36.85 -49.4 25.35" fill="#ffff00" fill-rule="evenodd" stroke="none"/>
      <path d="M48.55 36.2 L38.15 36.2 38.15 48.55 47.35 48.55 47.35 56.85 38.15 56.85 38.15 69.5 48.75 69.5 48.75 77.75 29.45 77.75 29.45 27.9 48.55 27.9 48.55 36.2 M8.95 27.9 L15.05 28.55 Q18.0 29.25 20.25 30.75 22.5 32.25 23.85 34.7 25.2 37.1 25.2 40.6 L25.2 40.95 Q25.2 43.4 24.6 45.2 24.0 47.05 22.95 48.35 L20.65 50.65 18.0 52.2 Q19.55 52.95 21.0 53.85 22.4 54.8 23.45 56.1 24.55 57.4 25.2 59.2 25.8 60.95 25.8 63.35 L25.8 63.95 Q25.8 67.2 24.6 69.85 23.4 72.45 21.2 74.15 19.0 75.9 16.0 76.8 12.95 77.75 9.3 77.75 L1.4 77.75 1.4 27.9 8.95 27.9 M14.9 47.25 Q16.65 45.55 16.65 42.3 L16.65 42.15 Q16.65 38.85 14.9 37.4 13.15 35.95 10.25 35.95 L10.1 35.95 10.1 48.85 10.25 48.85 Q13.15 48.85 14.9 47.25 M10.1 69.7 L10.3 69.7 Q13.3 69.7 15.2 68.05 17.15 66.4 17.15 63.25 L17.15 62.85 Q17.15 59.75 15.2 58.1 13.3 56.4 10.3 56.4 L10.1 56.4 10.1 69.7 M-3.55 27.9 L-3.55 63.2 Q-3.55 67.1 -4.5 69.95 -5.4 72.8 -7.1 74.75 -8.75 76.6 -11.0 77.45 -13.25 78.4 -15.95 78.4 -18.6 78.4 -20.85 77.45 -23.15 76.6 -24.8 74.75 -26.45 72.8 -27.4 69.95 -28.3 67.1 -28.3 63.2 L-28.3 27.9 -19.7 27.9 -19.7 64.1 Q-19.7 67.5 -18.6 68.9 -17.6 70.35 -15.95 70.35 -14.3 70.35 -13.25 68.9 -12.2 67.5 -12.2 64.1 L-12.2 27.9 -3.55 27.9 M-40.9 27.9 L-40.9 69.5 -31.7 69.5 -31.7 77.75 -49.6 77.75 -49.6 27.9 -40.9 27.9" fill="#000000" fill-rule="evenodd" stroke="none"/>
      <path d="M-107.6 -48.3 L-101.65 -38.85 -89.75 -45.95 -84.45 -36.0 Q-90.25 -32.8 -95.65 -29.35 L-80.95 -6.0 -89.05 -0.35 -125.15 -50.0 Q-110.4 -60.8 -94.45 -68.95 L-89.4 -58.75 Q-99.0 -53.75 -107.6 -48.3" fill="#ffff00" fill-rule="evenodd" stroke="none"/>
      <path d="M-65.2 -45.2 L-59.35 -30.1 Q-50.95 -33.55 -41.35 -36.15 L-38.45 -25.0 Q-51.25 -21.55 -63.8 -15.55 L-89.65 -71.35 Q-71.95 -79.85 -53.95 -84.7 L-51.05 -73.6 Q-62.15 -70.5 -73.25 -66.05 L-69.2 -55.65 Q-61.65 -58.8 -53.75 -61.2 L-50.65 -50.4 Q-58.15 -48.0 -65.2 -45.2" fill="#ffff00" fill-rule="evenodd" stroke="none"/>
      <path d="M82.45 -36.55 L69.6 -12.05 61.05 -16.4 86.1 -72.5 Q105.65 -63.5 124.15 -50.0 L104.3 -22.7 Q93.3 -30.65 82.45 -36.55 M92.8 -56.35 L87.7 -46.5 100.65 -38.85 106.55 -48.2 Q99.7 -52.65 92.8 -56.35" fill="#ffff00" fill-rule="evenodd" stroke="none"/>
      <path d="M-33.5 -26.25 L-47.0 -86.5 -34.25 -89.1 -26.25 -39.2 -11.9 -40.95 -11.2 -29.75 Q-22.6 -28.9 -33.5 -26.25" fill="#ffff00" fill-rule="evenodd" stroke="none"/>
      <path d="M16.25 -79.6 L4.55 -80.3 3.3 -30.1 Q-1.7 -30.25 -6.0 -30.05 L-7.8 -80.15 -19.2 -79.45 -20.25 -90.95 Q-1.55 -92.8 17.2 -91.15 L16.25 -79.6" fill="#ffff00" fill-rule="evenodd" stroke="none"/>
      <path d="M9.4 -57.95 Q18.9 -57.45 29.0 -55.65 L27.3 -45.15 Q17.9 -46.8 8.8 -47.3 L9.4 -57.95" fill="#ffff00" fill-rule="evenodd" stroke="none"/>
      <path d="M67.25 -80.25 Q74.0 -77.85 79.6 -75.4 L56.4 -18.45 Q42.95 -24.15 28.55 -27.2 L40.4 -87.75 53.05 -84.65 40.4 -35.85 51.15 -32.45 67.25 -80.25" fill="#ffff00" fill-rule="evenodd" stroke="none"/>
    </g>
  </defs>
</svg>
