<?xml version="1.0" encoding="UTF-8" standalone="no"?>
<svg xmlns:xlink="http://www.w3.org/1999/xlink" height="300.0px" width="300.0px" xmlns="http://www.w3.org/2000/svg">
  <g transform="matrix(1.0, 0.0, 0.0, 1.0, 0.0, 0.0)">
    <use height="173.7" transform="matrix(1.0, 0.0, 0.0, 1.0, 18.25, 75.5)" width="263.5" xlink:href="#shape0"/>
  </g>
  <defs>
    <g id="shape0" transform="matrix(1.0, 0.0, 0.0, 1.0, -18.25, -75.5)">
      <path d="M249.3 97.75 Q250.05 99.35 257.9 103.2 261.15 105.5 261.15 109.35 L261.15 115.05 Q261.15 123.15 250.05 123.15 239.2 123.15 239.2 115.4 L239.2 107.25 248.55 107.25 248.55 115.35 Q248.55 117.3 250.15 117.3 251.7 117.3 251.7 113.55 251.7 108.75 249.75 107.3 242.45 103.45 240.95 101.95 239.4 100.4 239.4 97.35 L239.4 92.25 Q239.4 84.2 250.35 84.2 260.95 84.2 260.95 91.9 L260.95 99.45 251.8 99.45 252.0 94.85 Q252.0 90.1 250.25 90.1 248.5 90.1 248.5 93.1 248.5 96.2 249.3 97.75 M177.75 89.6 L177.75 122.6 168.4 122.6 168.4 91.95 Q168.4 90.25 166.8 90.25 165.15 90.25 165.15 91.9 L165.15 122.6 155.8 122.6 155.8 84.45 165.15 84.45 165.15 85.75 Q167.0 84.2 170.95 84.2 173.5 84.2 175.65 85.55 177.75 86.95 177.75 89.6 M189.1 85.75 Q190.95 84.2 194.9 84.2 197.45 84.2 199.6 85.55 201.7 86.95 201.7 89.6 L201.7 122.6 192.35 122.6 192.35 91.95 Q192.35 90.25 190.75 90.25 189.1 90.25 189.1 91.9 L189.1 122.6 179.75 122.6 179.75 84.45 189.1 84.45 189.1 85.75 M212.3 84.45 L216.2 104.6 219.3 84.45 228.45 84.45 221.15 122.4 Q220.05 128.2 218.2 129.45 216.25 130.7 212.9 130.7 L206.4 130.7 206.4 125.55 210.95 125.2 Q211.85 124.85 211.85 123.05 211.85 121.3 207.8 104.55 L202.95 84.45 212.3 84.45 M230.45 86.45 Q232.7 84.2 232.85 82.35 L229.15 82.35 229.15 75.5 237.7 75.5 237.7 80.2 Q237.7 84.5 232.35 88.0 L230.45 86.45 M215.45 144.05 Q213.8 144.05 213.8 145.9 L213.8 154.65 217.0 154.65 217.0 145.9 Q217.0 144.05 215.45 144.05 M215.35 138.15 Q226.35 138.15 226.35 145.85 L226.35 160.4 213.8 160.4 213.8 169.3 Q213.8 171.25 215.45 171.25 217.0 171.25 217.0 169.3 L217.0 161.6 226.35 161.6 226.35 169.35 Q226.35 177.1 215.35 177.1 204.45 177.1 204.45 169.0 L204.45 146.2 Q204.45 138.15 215.35 138.15 M237.75 145.8 L237.75 169.4 Q237.75 171.15 239.4 171.15 241.0 171.15 241.0 169.4 L241.0 145.75 Q241.0 144.05 239.4 144.05 237.75 144.05 237.75 145.8 M241.0 129.45 L250.35 129.45 250.35 176.55 243.25 176.55 242.5 175.25 Q240.1 177.1 237.05 177.1 233.4 177.1 230.9 175.4 228.4 173.7 228.4 170.85 L228.4 143.45 Q228.4 141.0 230.4 139.6 232.35 138.15 235.2 138.15 239.1 138.15 241.0 139.55 L241.0 129.45 M180.4 139.65 Q182.4 141.15 182.4 143.55 L182.4 154.2 173.0 154.2 173.0 145.9 Q173.0 144.2 171.4 144.2 169.8 144.2 169.8 145.85 L169.8 176.55 160.45 176.55 160.45 138.4 169.8 138.4 169.8 139.7 Q171.65 138.15 175.6 138.15 178.35 138.15 180.4 139.65 M187.95 138.4 L187.95 130.7 197.3 130.7 197.3 138.4 202.35 138.4 202.35 144.05 197.3 144.05 197.3 167.25 Q197.3 168.95 198.3 169.5 199.3 170.1 202.7 170.1 L202.7 176.55 196.75 176.55 Q190.45 176.55 189.2 174.65 187.95 172.75 187.95 167.3 L187.95 144.05 183.75 144.05 183.75 138.4 187.95 138.4 M96.65 89.6 L96.65 100.25 87.25 100.25 87.25 91.95 Q87.25 90.25 85.65 90.25 84.05 90.25 84.05 91.9 L84.05 122.6 74.7 122.6 74.7 84.45 84.05 84.45 84.05 85.75 Q85.9 84.2 89.85 84.2 92.6 84.2 94.65 85.7 96.65 87.2 96.65 89.6 M121.25 75.5 L121.25 116.55 130.3 116.55 130.3 122.6 110.9 122.6 110.9 75.5 121.25 75.5 M141.2 91.95 L141.2 100.7 144.4 100.7 144.4 91.95 Q144.4 90.1 142.85 90.1 141.2 90.1 141.2 91.95 M153.75 91.9 L153.75 106.45 141.2 106.45 141.2 115.35 Q141.2 117.3 142.85 117.3 144.4 117.3 144.4 115.35 L144.4 107.65 153.75 107.65 153.75 115.4 Q153.75 123.15 142.75 123.15 131.85 123.15 131.85 115.05 L131.85 92.25 Q131.85 84.2 142.75 84.2 153.75 84.2 153.75 91.9 M59.05 81.5 L59.05 116.55 Q62.0 116.55 62.0 114.05 L62.0 84.0 Q62.0 81.5 59.05 81.5 M72.4 84.8 L72.4 113.3 Q72.4 117.7 69.3 120.15 66.25 122.6 61.65 122.6 L48.7 122.6 48.7 75.5 61.6 75.5 Q65.8 75.5 69.15 77.8 72.4 80.05 72.4 84.8 M79.6 129.45 L87.35 176.55 77.1 176.55 75.35 163.9 70.75 163.9 69.0 176.55 58.75 176.55 66.5 129.45 79.6 129.45 M74.5 157.35 L73.05 143.3 71.6 157.35 74.5 157.35 M134.4 145.85 L134.4 153.4 125.25 153.4 125.45 148.8 Q125.45 144.05 123.7 144.05 121.95 144.05 121.95 147.05 121.95 150.15 122.75 151.7 123.5 153.3 131.35 157.15 134.6 159.45 134.6 163.3 L134.6 169.0 Q134.6 177.1 123.5 177.1 112.65 177.1 112.65 169.35 L112.65 161.2 122.0 161.2 122.0 169.3 Q122.0 171.25 123.6 171.25 125.15 171.25 125.15 167.5 125.15 162.7 123.2 161.25 115.9 157.4 114.4 155.9 112.85 154.35 112.85 151.3 L112.85 146.2 Q112.85 138.15 123.8 138.15 134.4 138.15 134.4 145.85 M155.05 140.0 Q158.3 141.9 158.3 145.85 L158.3 169.35 Q158.3 177.1 147.45 177.1 136.3 177.1 136.3 169.0 L136.3 146.2 Q136.3 138.15 147.45 138.15 151.75 138.15 155.05 140.0 M147.3 144.05 Q145.65 144.05 145.65 145.9 L145.65 169.3 Q145.65 171.25 147.3 171.25 148.9 171.25 148.9 169.3 L148.9 145.9 Q148.9 144.05 147.3 144.05 M100.0 138.15 Q110.6 138.15 110.6 145.85 L110.6 153.4 101.45 153.4 101.65 148.8 Q101.65 144.05 99.9 144.05 98.15 144.05 98.15 147.05 98.15 150.15 98.95 151.7 99.7 153.3 107.55 157.15 110.8 159.45 110.8 163.3 L110.8 169.0 Q110.8 177.1 99.7 177.1 88.85 177.1 88.85 169.35 L88.85 161.2 98.2 161.2 98.2 169.3 Q98.2 171.25 99.8 171.25 101.35 171.25 101.35 167.5 101.35 162.7 99.4 161.25 92.1 157.4 90.6 155.9 89.05 154.35 89.05 151.3 L89.05 146.2 Q89.05 138.15 100.0 138.15 M103.45 122.6 L94.9 122.6 94.9 115.75 103.45 115.75 103.45 122.6" fill="#000000" fill-rule="evenodd" stroke="none"/>
      <path d="M198.75 187.6 Q209.95 187.6 217.85 195.5 225.75 203.45 225.75 214.6 225.75 225.8 217.85 233.7 209.95 241.6 198.75 241.6 187.55 241.6 179.65 233.7 171.75 225.8 171.75 214.6 171.75 203.4 179.65 195.5 187.55 187.6 198.75 187.6" fill="#009ee3" fill-rule="evenodd" stroke="none"/>
      <path d="M138.75 235.6 Q130.45 235.6 124.6 229.75 118.75 223.9 118.75 215.6 118.75 207.35 124.6 201.5 130.45 195.6 138.75 195.6 147.0 195.6 152.9 201.5 158.75 207.35 158.75 215.6 158.75 223.9 152.9 229.75 147.0 235.6 138.75 235.6" fill="#7ed449" fill-rule="evenodd" stroke="none"/>
      <path d="M107.85 220.1 L109.1 237.6 Q109.4 242.05 106.45 245.45 103.55 248.8 99.1 249.15 94.65 249.45 91.25 246.5 87.9 243.55 87.55 239.1 L86.35 221.6 107.85 220.1" fill="#e34b94" fill-rule="evenodd" stroke="none"/>
      <path d="M45.25 245.6 Q34.05 245.6 26.15 237.7 18.25 229.8 18.25 218.6 18.25 207.4 26.15 199.5 34.05 191.6 45.25 191.6 56.45 191.6 64.35 199.5 72.25 207.45 72.25 218.6 72.25 229.8 64.35 237.7 56.45 245.6 45.25 245.6" fill="#e3a300" fill-rule="evenodd" stroke="none"/>
      <path d="M260.75 239.6 Q252.05 239.6 245.9 233.45 239.75 227.3 239.75 218.6 239.75 209.95 245.9 203.75 252.05 197.6 260.75 197.6 269.4 197.6 275.6 203.75 281.75 209.95 281.75 218.6 281.75 227.3 275.6 233.45 269.4 239.6 260.75 239.6" fill="#9152e3" fill-rule="evenodd" stroke="none"/>
      <path d="M103.05 196.4 Q106.4 199.3 106.7 203.75 L107.95 221.3 86.45 222.8 85.2 205.25 Q84.9 200.8 87.8 197.45 90.75 194.1 95.2 193.75 99.65 193.45 103.05 196.4" fill="#ecf000" fill-rule="evenodd" stroke="none"/>
      <path d="M144.95 222.1 L145.95 223.1 146.55 224.45 146.55 225.9 146.55 225.95 145.95 227.3 145.0 228.3 143.7 228.85 142.3 228.85 132.05 227.0 Q131.0 226.75 130.35 226.35 129.7 226.05 129.1 225.15 128.55 224.25 128.45 223.55 128.3 222.65 128.45 221.65 L131.7 203.8 131.95 203.0 132.3 202.3 132.85 201.6 133.5 201.05 134.25 200.65 135.05 200.4 135.9 200.3 136.7 200.35 136.8 200.35 136.85 200.4 137.05 200.4 138.05 200.85 138.35 201.05 138.95 201.55 139.45 202.15 139.9 202.9 140.15 203.7 140.25 204.55 137.45 220.45 143.65 221.55 Q144.3 221.7 144.95 222.1 M56.9 209.05 Q58.4 213.95 56.3 217.95 54.35 221.6 48.7 223.4 L47.2 223.85 44.45 215.2 Q47.45 214.25 46.7 211.95 46.05 209.85 43.75 210.6 41.5 211.35 42.35 214.2 L49.2 235.8 39.35 238.9 32.85 218.3 Q31.85 215.25 31.85 212.85 31.85 210.55 32.8 208.35 33.9 205.85 36.2 203.85 38.45 201.9 41.25 201.0 46.3 199.4 50.8 201.75 55.35 204.1 56.9 209.05 M265.6 213.35 Q263.05 211.55 261.85 211.45 260.95 211.35 260.25 211.95 259.5 212.6 259.4 213.55 259.25 215.45 262.55 217.15 264.95 218.4 266.2 219.45 267.4 220.4 268.15 221.95 268.85 223.6 268.7 225.4 268.4 228.7 265.55 230.85 262.65 233.1 259.05 232.75 255.05 232.4 251.55 228.3 L255.5 224.45 Q257.75 227.15 259.85 227.35 260.85 227.45 261.85 226.65 262.85 225.85 262.95 224.85 263.1 222.85 259.0 220.95 L255.75 219.0 Q254.75 218.2 254.25 216.6 253.65 215.1 253.8 213.55 254.1 210.15 256.5 208.25 258.95 206.3 262.5 206.6 266.75 207.0 269.4 209.9 L265.6 213.35 M214.9 231.65 L184.3 231.65 Q183.95 231.65 183.95 230.8 L183.95 224.05 Q183.95 223.25 184.4 223.25 L188.3 223.25 188.3 206.7 184.35 206.7 Q184.0 206.7 184.0 205.9 L184.0 199.05 Q184.0 198.3 184.4 198.3 L201.45 198.3 Q201.9 198.3 201.9 199.5 L201.9 205.85 Q201.9 206.7 201.55 206.7 L197.5 206.7 197.5 223.25 207.9 223.25 207.9 218.2 Q207.9 216.85 208.3 216.85 L214.85 216.85 Q215.3 216.85 215.3 218.1 L215.3 230.55 Q215.3 231.65 214.9 231.65" fill="#ffffff" fill-rule="evenodd" stroke="none"/>
    </g>
  </defs>
</svg>
