<?xml version="1.0" encoding="UTF-8" standalone="no"?>
<svg xmlns:xlink="http://www.w3.org/1999/xlink" height="300.0px" width="300.0px" xmlns="http://www.w3.org/2000/svg">
  <g transform="matrix(1.0, 0.0, 0.0, 1.0, 0.0, 0.0)">
    <use height="227.25" transform="matrix(1.0, 0.0, 0.0, 1.0, 30.15, 34.55)" width="238.7" xlink:href="#shape0"/>
    <use height="108.75" transform="matrix(0.6864, 0.0, 0.0, 0.6864, 167.85, 44.7)" width="112.4" xlink:href="#sprite0"/>
    <use height="110.35" transform="matrix(0.6864, 0.0, 0.0, 0.6864, 61.6826, 157.626)" width="307.0" xlink:href="#text0"/>
  </g>
  <defs>
    <g id="shape0" transform="matrix(1.0, 0.0, 0.0, 1.0, -30.15, -34.55)">
      <path d="M30.25 261.8 L30.15 261.8 30.15 52.05 45.45 36.45 250.35 51.85 Q136.55 146.25 30.25 261.8" fill="#ffda7a" fill-rule="evenodd" stroke="none"/>
      <path d="M250.35 51.85 L253.25 52.05 268.85 245.5 253.25 261.8 30.25 261.8 Q136.55 146.25 250.35 51.85" fill="#a97601" fill-rule="evenodd" stroke="none"/>
      <path d="M268.65 244.3 L45.6 244.3 45.6 34.55 268.65 34.55 268.65 244.3" fill="#ffb800" fill-rule="evenodd" stroke="none"/>
      <path d="M268.65 245.35 L45.6 245.35 45.6 141.55 268.65 141.55 268.65 245.35" fill="#231f20" fill-rule="evenodd" stroke="none"/>
      <path d="M105.4 62.65 Q105.4 68.3 108.4 73.55 L107.05 73.55 Q98.6 73.55 98.6 62.95 98.6 58.85 99.95 57.45 101.3 56.0 105.05 56.0 L106.65 56.0 Q105.4 59.65 105.4 62.65 M108.45 56.0 Q114.15 56.95 119.65 60.05 122.3 67.0 123.55 74.55 124.85 82.2 124.85 90.3 124.85 98.55 123.55 106.2 122.25 113.85 119.65 120.65 114.8 123.65 108.4 124.75 107.65 121.5 107.65 118.3 107.65 113.05 110.5 107.05 L111.3 107.05 Q116.75 107.05 116.75 90.65 116.75 73.55 111.3 73.55 L110.5 73.55 Q107.2 68.0 107.2 62.5 107.2 59.2 108.45 56.0 M138.75 60.45 Q150.95 72.6 150.95 89.95 150.95 107.25 138.75 119.4 126.5 131.65 109.2 131.65 92.0 131.65 79.75 119.4 67.5 107.2 67.5 89.95 67.5 72.65 79.75 60.45 91.95 48.2 109.2 48.2 126.55 48.2 138.75 60.45 M109.2 51.65 Q93.25 51.65 82.1 62.8 71.0 73.9 71.0 89.95 71.0 105.9 82.15 117.0 93.25 128.15 109.2 128.15 125.25 128.15 136.4 117.0 147.5 105.9 147.5 89.95 147.5 73.9 136.4 62.8 125.25 51.65 109.2 51.65 M108.65 107.05 Q105.85 112.25 105.85 118.3 105.85 121.65 106.75 124.75 L105.0 124.75 Q101.6 124.75 100.35 123.25 99.1 121.85 99.1 117.9 99.1 107.05 107.0 107.05 L108.65 107.05" fill="#000000" fill-rule="evenodd" stroke="none"/>
      <path d="M238.35 88.75 Q238.35 73.0 227.2 61.85 216.0 50.7 200.25 50.7 184.5 50.7 173.4 61.85 162.25 73.0 162.25 88.75 162.25 104.5 173.4 115.65 184.5 126.8 200.25 126.8 216.0 126.8 227.2 115.65 238.35 104.5 238.35 88.75 M200.25 47.55 Q217.35 47.55 229.4 59.6 241.5 71.7 241.5 88.75 241.5 105.8 229.4 117.9 217.35 129.95 200.25 129.95 183.2 129.95 171.15 117.9 159.1 105.8 159.1 88.75 159.1 71.7 171.15 59.6 183.2 47.55 200.25 47.55" fill="#000000" fill-rule="evenodd" stroke="none"/>
      <path d="M208.45 88.85 Q208.45 92.15 206.05 94.55 203.7 96.9 200.35 96.9 197.0 96.9 194.65 94.55 192.25 92.15 192.25 88.85 192.25 85.5 194.65 83.15 197.0 80.8 200.35 80.8 203.7 80.8 206.05 83.15 208.45 85.5 208.45 88.85" fill="#000000" fill-rule="evenodd" stroke="none"/>
    </g>
    <g id="sprite0" transform="matrix(1.0, 0.0, 0.0, 1.0, 0.0, 0.0)">
      <clipPath id="clipPath0" transform="matrix(1.0, 0.0, 0.0, 1.0, 0.0, 0.0)">
        <path d="M74.2 0.0 L112.4 34.55 64.65 51.45 40.4 78.6 30.1 108.75 0.0 77.9 35.6 64.3 55.1 47.75 74.2 0.0" fill="#ff0000" fill-rule="evenodd" stroke="none"/>
      </clipPath>
      <g clip-path="url(#clipPath0)">
        <use height="87.2" transform="matrix(1.0, 0.0, 0.0, 1.0, 3.65, 20.0)" width="87.25" xlink:href="#shape2"/>
      </g>
    </g>
    <g id="shape2" transform="matrix(1.0, 0.0, 0.0, 1.0, -3.65, -20.0)">
      <path d="M75.7 35.15 Q63.95 23.35 47.25 23.35 30.55 23.35 18.8 35.15 7.0 46.9 7.0 63.6 7.0 80.3 18.8 92.05 30.55 103.85 47.25 103.85 63.95 103.85 75.7 92.05 87.5 80.3 87.5 63.6 87.5 46.9 75.7 35.15 M47.25 20.0 Q65.35 20.0 78.1 32.75 90.9 45.55 90.9 63.6 90.9 81.65 78.1 94.45 65.35 107.2 47.25 107.2 29.2 107.2 16.4 94.45 3.65 81.7 3.65 63.6 3.65 45.55 16.4 32.75 29.2 20.0 47.25 20.0" fill="#000000" fill-rule="evenodd" stroke="none"/>
      <path d="M68.95 41.9 Q59.95 32.95 47.25 32.95 34.55 32.95 25.55 41.9 16.6 50.9 16.6 63.6 16.6 76.3 25.55 85.3 34.55 94.25 47.25 94.25 59.95 94.25 68.95 85.3 77.9 76.3 77.9 63.6 77.9 50.9 68.95 41.9 M47.25 30.4 Q61.0 30.4 70.75 40.1 80.45 49.85 80.45 63.6 80.45 77.35 70.75 87.1 61.0 96.8 47.25 96.8 33.5 96.8 23.75 87.1 14.05 77.35 14.05 63.6 14.05 49.85 23.75 40.1 33.5 30.4 47.25 30.4" fill="#000000" fill-rule="evenodd" stroke="none"/>
      <path d="M63.75 47.1 Q56.95 40.25 47.25 40.25 37.6 40.25 30.75 47.1 23.9 53.95 23.9 63.6 23.9 73.3 30.75 80.1 37.6 86.95 47.25 86.95 56.95 86.95 63.75 80.1 70.6 73.3 70.6 63.6 70.6 53.95 63.75 47.1 M47.25 38.3 Q57.7 38.3 65.15 45.7 72.55 53.15 72.55 63.6 72.55 74.05 65.15 81.5 57.7 88.9 47.25 88.9 36.8 88.9 29.35 81.5 21.95 74.05 21.95 63.6 21.95 53.15 29.35 45.7 36.8 38.3 47.25 38.3" fill="#000000" fill-rule="evenodd" stroke="none"/>
    </g>
    <g id="text0" transform="matrix(1.0, 0.0, 0.0, 1.0, 68.5, -13.15)">
      <g transform="matrix(1.0, 0.0, 0.0, 1.0, -68.0, 0.0)">
        <use fill="#ffb800" height="110.35" transform="matrix(0.0605, 0.0, 0.0, 0.0605, 0.0, 60.0)" width="307.0" xlink:href="#font_Helvetica_55_Roman_Y0"/>
        <use fill="#ffb800" height="110.35" transform="matrix(0.0605, 0.0, 0.0, 0.0605, 41.3, 60.0)" width="307.0" xlink:href="#font_Helvetica_55_Roman_E0"/>
        <use fill="#ffb800" height="110.35" transform="matrix(0.0605, 0.0, 0.0, 0.0605, 81.45, 60.0)" width="307.0" xlink:href="#font_Helvetica_55_Roman_L0"/>
        <use fill="#ffb800" height="110.35" transform="matrix(0.0605, 0.0, 0.0, 0.0605, 118.15, 60.0)" width="307.0" xlink:href="#font_Helvetica_55_Roman_L0"/>
        <use fill="#ffb800" height="110.35" transform="matrix(0.0605, 0.0, 0.0, 0.0605, 154.85, 60.0)" width="307.0" xlink:href="#font_Helvetica_55_Roman_-0"/>
        <use fill="#ffb800" height="110.35" transform="matrix(0.0605, 0.0, 0.0, 0.0605, 180.05, 60.0)" width="307.0" xlink:href="#font_Helvetica_55_Roman_O0"/>
        <use fill="#ffb800" height="110.35" transform="matrix(0.0605, 0.0, 0.0, 0.0605, 228.25, 60.0)" width="307.0" xlink:href="#font_Helvetica_55_Roman__0"/>
        <use fill="#ffb800" height="110.35" transform="matrix(0.0605, 0.0, 0.0, 0.0605, 262.65, 60.0)" width="307.0" xlink:href="#font_Helvetica_55_Roman__1"/>
      </g>
      <g transform="matrix(1.0, 0.0, 0.0, 1.0, -68.0, 0.0)">
        <use fill="#ffb800" height="110.35" transform="matrix(0.0605, 0.0, 0.0, 0.0605, 37.0, 121.0)" width="307.0" xlink:href="#font_Helvetica_55_Roman_P0"/>
        <use fill="#ffb800" height="110.35" transform="matrix(0.0605, 0.0, 0.0, 0.0605, 73.7, 121.0)" width="307.0" xlink:href="#font_Helvetica_55_Roman_A0"/>
        <use fill="#ffb800" height="110.35" transform="matrix(0.0605, 0.0, 0.0, 0.0605, 116.1, 121.0)" width="307.0" xlink:href="#font_Helvetica_55_Roman_G0"/>
        <use fill="#ffb800" height="110.35" transform="matrix(0.0605, 0.0, 0.0, 0.0605, 163.1, 121.0)" width="307.0" xlink:href="#font_Helvetica_55_Roman_E0"/>
        <use fill="#ffb800" height="110.35" transform="matrix(0.0605, 0.0, 0.0, 0.0605, 203.25, 121.0)" width="307.0" xlink:href="#font_Helvetica_55_Roman_S0"/>
      </g>
    </g>
    <g id="font_Helvetica_55_Roman_Y0">
      <path d="M260.0 0.0 L260.0 -284.5 -9.0 -731.0 172.0 -731.0 343.0 -442.5 513.0 -731.0 692.5 -731.0 421.0 -280.5 421.0 0.0 260.0 0.0" fill-rule="evenodd" stroke="none"/>
    </g>
    <g id="font_Helvetica_55_Roman_E0">
      <path d="M70.5 0.0 L70.5 -731.0 617.5 -731.0 617.5 -596.0 231.5 -596.0 231.5 -439.5 585.5 -439.5 585.5 -314.5 231.5 -314.5 231.5 -135.0 625.5 -135.0 625.5 0.0 70.5 0.0" fill-rule="evenodd" stroke="none"/>
    </g>
    <g id="font_Helvetica_55_Roman_L0">
      <path d="M70.5 0.0 L70.5 -731.0 231.5 -731.0 231.5 -135.0 588.0 -135.0 588.0 0.0 70.5 0.0" fill-rule="evenodd" stroke="none"/>
    </g>
    <g id="font_Helvetica_55_Roman_-0">
      <path d="M54.5 -217.0 L54.5 -342.0 362.5 -342.0 362.5 -217.0 54.5 -217.0" fill-rule="evenodd" stroke="none"/>
    </g>
    <g id="font_Helvetica_55_Roman_O0">
      <path d="M200.0 -362.5 L200.0 -362.5 Q199.5 -300.5 219.5 -244.5 239.0 -189.0 283.0 -154.0 326.5 -118.5 398.5 -117.5 470.5 -118.5 514.0 -154.0 558.0 -189.0 577.5 -244.5 597.5 -300.5 597.0 -362.5 597.5 -427.5 577.5 -484.5 558.0 -541.5 514.0 -577.0 470.5 -612.5 398.5 -613.5 326.5 -612.5 283.0 -577.0 239.0 -541.5 219.5 -484.5 199.5 -427.5 200.0 -362.5 M39.0 -362.5 L39.0 -362.5 Q39.5 -472.0 82.0 -559.0 124.5 -646.0 205.0 -696.5 285.0 -747.5 398.5 -748.5 512.0 -747.5 592.0 -696.5 672.5 -646.0 715.0 -559.0 757.5 -472.0 758.0 -362.5 757.5 -255.5 715.0 -170.0 672.5 -84.5 592.0 -34.0 512.0 16.5 398.5 17.5 285.0 16.5 205.0 -34.0 124.5 -84.5 82.0 -170.0 39.5 -255.5 39.0 -362.5" fill-rule="evenodd" stroke="none"/>
    </g>
    <g id="font_Helvetica_55_Roman__0">
      <path d="M197.5 0.0 L197.5 -157.5 358.5 -157.5 358.5 0.0 197.5 0.0 M183.5 -495.5 L33.0 -495.5 Q35.0 -569.5 65.5 -626.0 96.5 -683.0 151.5 -715.5 206.5 -748.0 281.5 -748.5 354.0 -748.0 403.0 -728.5 452.0 -709.5 481.5 -679.0 511.0 -649.0 524.0 -615.0 536.5 -581.0 536.5 -551.0 536.0 -501.5 524.0 -469.5 511.5 -437.0 492.0 -415.5 472.5 -394.0 450.5 -377.5 428.0 -361.5 407.0 -345.5 385.5 -329.5 370.5 -308.5 355.0 -287.5 350.0 -258.0 L350.0 -219.0 212.0 -219.0 212.0 -265.0 Q215.5 -309.0 228.5 -339.5 242.0 -369.5 261.0 -390.0 280.0 -410.5 301.0 -426.0 332.0 -448.5 353.0 -472.5 374.5 -496.0 375.5 -536.5 375.0 -583.0 352.5 -606.0 329.5 -628.5 288.5 -628.5 252.0 -628.0 229.0 -610.0 206.0 -592.5 195.0 -562.5 184.0 -532.5 183.5 -495.5" fill-rule="evenodd" stroke="none"/>
    </g>
    <g id="font_Helvetica_55_Roman__1">
      <path d="M62.5 0.0 L62.5 -157.5 223.5 -157.5 223.5 0.0 62.5 0.0 M218.0 -731.0 L218.0 -534.5 178.0 -219.0 105.5 -219.0 66.5 -534.5 66.5 -731.0 218.0 -731.0" fill-rule="evenodd" stroke="none"/>
    </g>
    <g id="font_Helvetica_55_Roman_P0">
      <path d="M231.5 -606.0 L231.5 -387.0 356.5 -387.0 Q394.0 -386.5 426.0 -394.5 458.0 -403.0 477.5 -426.5 497.0 -450.5 497.5 -496.5 497.0 -542.5 477.5 -566.5 458.0 -590.0 426.0 -598.5 394.0 -606.5 356.5 -606.0 L231.5 -606.0 M70.5 0.0 L70.5 -731.0 400.5 -731.0 Q491.0 -730.0 546.5 -696.5 602.5 -663.0 628.0 -610.0 653.5 -557.0 653.0 -496.5 653.5 -436.0 628.0 -383.0 602.5 -330.0 546.5 -296.5 491.0 -263.0 400.5 -262.0 L231.5 -262.0 231.5 0.0 70.5 0.0" fill-rule="evenodd" stroke="none"/>
    </g>
    <g id="font_Helvetica_55_Roman_A0">
      <path d="M350.0 -550.5 L254.5 -282.5 444.0 -282.5 352.0 -550.5 350.0 -550.5 M-7.5 0.0 L270.0 -731.0 435.0 -731.0 708.5 0.0 541.5 0.0 486.0 -162.5 213.0 -162.5 155.5 0.0 -7.5 0.0" fill-rule="evenodd" stroke="none"/>
    </g>
    <g id="font_Helvetica_55_Roman_G0">
      <path d="M615.5 0.0 L599.0 -82.5 Q556.5 -29.0 504.0 -5.5 452.0 18.0 398.5 17.5 285.0 16.5 205.0 -34.0 124.5 -84.5 82.0 -170.0 39.5 -255.5 39.0 -362.5 39.5 -472.0 82.0 -559.0 124.5 -646.0 205.0 -696.5 285.0 -747.5 398.5 -748.5 474.5 -748.5 541.0 -718.5 607.5 -688.5 652.5 -631.0 697.0 -573.5 706.5 -490.5 L553.0 -490.5 Q538.5 -551.5 497.5 -582.5 456.0 -613.5 398.5 -613.5 326.5 -612.5 283.0 -577.0 239.0 -541.5 219.5 -484.5 199.5 -427.5 200.0 -362.5 199.5 -300.5 219.5 -244.5 239.0 -189.0 283.0 -154.0 326.5 -118.5 398.5 -117.5 477.0 -118.0 521.0 -158.5 565.5 -199.0 572.5 -275.5 L411.0 -275.5 411.0 -395.5 718.0 -395.5 718.0 0.0 615.5 0.0" fill-rule="evenodd" stroke="none"/>
    </g>
    <g id="font_Helvetica_55_Roman_S0">
      <path d="M24.5 -242.5 L180.0 -242.5 Q180.5 -194.0 203.0 -164.5 225.0 -134.5 261.5 -121.0 298.5 -107.5 342.0 -107.5 371.5 -107.0 404.0 -114.5 437.0 -122.0 460.0 -141.5 483.5 -161.5 484.5 -198.5 483.5 -237.5 452.0 -258.5 420.5 -280.0 371.5 -293.0 322.0 -306.0 267.0 -319.5 211.5 -333.0 162.5 -355.5 113.0 -378.0 81.5 -419.0 50.0 -459.5 49.0 -527.5 49.5 -583.5 73.0 -625.0 96.5 -666.5 136.0 -694.0 175.5 -721.5 224.0 -735.0 272.5 -748.5 322.5 -748.5 400.0 -749.0 466.5 -725.0 532.5 -701.0 573.5 -649.0 614.5 -597.0 615.5 -513.0 L460.0 -513.0 Q457.0 -556.5 437.5 -581.0 417.5 -605.0 386.0 -614.5 354.0 -624.0 315.5 -623.5 289.0 -623.5 264.0 -615.5 238.5 -607.5 222.0 -589.5 205.0 -571.0 204.5 -540.5 203.5 -513.5 220.5 -497.5 237.0 -481.5 284.5 -467.0 332.0 -452.5 423.0 -430.0 444.0 -425.5 479.5 -414.5 514.5 -403.5 551.5 -380.5 588.0 -358.0 613.5 -318.5 639.0 -279.0 640.0 -217.0 640.0 -149.5 605.5 -96.5 570.5 -44.0 503.0 -13.5 435.5 17.0 336.0 17.5 274.5 17.5 218.5 2.0 162.5 -13.0 118.5 -45.0 74.5 -77.0 49.5 -126.0 24.5 -175.0 24.5 -242.5" fill-rule="evenodd" stroke="none"/>
    </g>
  </defs>
</svg>
