<?xml version="1.0" encoding="UTF-8" standalone="no"?>
<svg xmlns:xlink="http://www.w3.org/1999/xlink" height="300.0px" width="300.0px" xmlns="http://www.w3.org/2000/svg">
  <g transform="matrix(1.0, 0.0, 0.0, 1.0, 0.0, 0.0)">
    <use height="224.4" transform="matrix(1.0, 0.0, 0.0, 1.0, 24.1, 23.0)" width="245.1" xlink:href="#shape0"/>
  </g>
  <defs>
    <g id="shape0" transform="matrix(1.0, 0.0, 0.0, 1.0, -24.1, -23.0)">
      <path d="M155.15 215.2 L163.2 240.5 171.25 215.2 180.45 215.2 180.45 246.9 174.1 246.9 174.1 223.45 166.65 246.9 159.75 246.9 152.1 223.25 152.1 246.9 145.9 246.9 145.9 215.2 155.15 215.2 M137.7 215.2 L137.7 246.9 131.3 246.9 131.3 223.45 123.9 246.9 116.95 246.9 109.35 223.25 109.35 246.9 103.15 246.9 103.15 215.2 112.4 215.2 120.45 240.5 128.5 215.2 137.7 215.2 M94.95 215.2 L94.95 246.9 88.4 246.9 88.4 215.2 94.95 215.2 M74.2 215.95 Q76.3 216.6 77.7 218.0 79.05 219.3 79.65 221.05 80.2 222.95 80.2 224.85 80.2 227.05 79.65 228.55 79.1 230.35 77.9 231.45 76.7 232.65 75.05 233.4 L83.45 246.9 76.0 246.9 68.8 234.7 65.15 234.75 65.15 246.9 58.85 246.9 58.85 215.2 68.8 215.2 Q71.95 215.2 74.2 215.95 M68.3 219.95 L65.15 219.95 65.15 229.95 68.3 229.95 Q70.45 229.95 71.7 229.05 72.95 228.25 73.35 227.05 L73.7 224.95 Q73.7 223.55 73.05 222.25 72.35 221.05 71.1 220.55 69.9 219.95 68.3 219.95 M53.8 220.5 L44.4 220.5 44.4 246.9 37.8 246.9 37.8 220.5 28.4 220.5 28.4 215.2 53.8 215.2 53.8 220.5 M248.75 215.65 Q251.5 214.65 254.4 214.65 L259.3 215.0 262.65 215.6 262.65 220.75 260.6 220.25 258.1 219.85 255.45 219.65 Q252.85 219.65 251.35 220.25 249.85 220.75 249.45 221.65 249.05 222.45 249.05 223.45 249.05 224.25 249.4 224.8 L250.4 225.85 251.9 226.75 259.6 230.0 260.8 230.8 261.8 231.7 Q263.05 232.9 263.6 234.45 264.15 235.9 264.15 237.85 264.15 240.25 263.25 242.05 262.35 244.0 260.75 245.05 259.2 246.25 256.95 246.85 L252.05 247.4 247.25 247.1 243.3 246.25 243.3 240.9 247.4 241.9 251.35 242.25 254.65 241.85 256.55 240.85 257.4 239.75 Q257.75 239.1 257.75 238.3 L257.5 236.8 256.6 235.5 Q255.75 234.75 253.15 233.65 L250.8 232.7 248.0 231.45 246.3 230.5 245.35 229.75 Q244.0 228.4 243.45 227.0 242.8 225.65 242.8 223.7 242.8 221.05 244.4 218.85 246.1 216.6 248.75 215.65 M234.1 218.0 Q235.4 219.2 236.0 221.05 236.6 222.85 236.6 224.85 236.6 226.8 236.05 228.55 235.5 230.25 234.3 231.45 L231.45 233.4 239.8 246.9 232.4 246.9 225.2 234.7 221.5 234.75 221.5 246.9 215.2 246.9 215.2 215.2 225.2 215.2 Q228.4 215.2 230.55 215.95 232.75 216.65 234.1 218.0 M224.7 219.95 L221.5 219.95 221.5 229.95 224.7 229.95 Q226.85 229.95 228.1 229.05 229.35 228.25 229.75 227.05 L230.05 224.95 Q230.05 223.4 229.4 222.25 228.75 221.1 227.5 220.55 226.25 219.95 224.7 219.95 M208.15 220.5 L195.25 220.5 195.25 228.05 207.6 228.05 207.6 233.4 195.25 233.4 195.25 241.55 208.6 241.55 208.6 246.9 188.65 246.9 188.65 215.2 208.15 215.2 208.15 220.5" fill="#000000" fill-rule="evenodd" stroke="none"/>
      <path d="M172.5 196.4 L160.1 196.4 160.1 204.6 173.45 204.6 173.45 209.9 153.55 209.9 153.55 178.2 173.05 178.2 173.05 183.5 160.1 183.5 160.1 191.05 172.5 191.05 172.5 196.4 M195.05 178.2 L207.55 209.9 200.8 209.9 198.0 202.65 184.65 202.65 181.85 209.9 175.5 209.9 188.05 178.2 195.05 178.2 M191.35 184.35 L186.7 197.35 195.95 197.35 191.35 184.35 M217.5 197.75 L217.5 209.9 211.15 209.9 211.15 178.2 221.15 178.2 Q224.35 178.2 226.5 178.95 228.35 179.5 229.65 180.6 L230.05 181.0 Q231.45 182.3 231.95 184.05 232.55 185.85 232.55 187.85 232.55 189.8 232.0 191.55 231.45 193.25 230.25 194.45 229.05 195.65 227.4 196.4 L235.8 209.9 228.35 209.9 221.15 197.7 217.5 197.75 M217.5 182.95 L217.5 192.95 220.65 192.95 Q222.8 192.95 224.05 192.05 225.3 191.25 225.7 190.05 L226.0 187.95 Q226.0 186.45 225.4 185.25 224.7 184.05 223.45 183.55 222.2 182.95 220.65 182.95 L217.5 182.95 M258.5 179.2 Q260.1 179.75 261.4 180.6 L263.5 182.25 Q265.55 184.15 266.7 187.2 267.85 190.0 267.85 194.05 267.85 198.05 266.7 200.9 265.6 203.9 263.5 205.9 261.4 207.85 258.5 208.9 255.7 209.9 252.0 209.9 L239.75 209.9 239.75 178.2 252.0 178.2 Q255.5 178.2 258.5 179.2 M251.45 183.5 L246.3 183.5 246.3 204.6 251.45 204.6 Q253.75 204.6 255.45 203.85 257.25 203.2 258.45 201.75 259.6 200.45 260.3 198.45 260.9 196.5 260.9 194.05 260.9 191.65 260.3 189.7 259.6 187.7 258.45 186.4 257.3 185.0 255.45 184.25 253.75 183.5 251.45 183.5 M34.2 191.35 L38.1 191.35 40.05 191.0 Q40.95 190.7 41.35 190.2 L42.3 188.8 42.6 187.1 42.35 185.5 41.45 184.1 Q40.9 183.55 40.1 183.25 L38.1 182.9 34.2 182.9 34.2 191.35 M38.4 178.2 L42.7 178.65 Q44.45 179.0 45.45 179.7 L46.75 180.6 47.1 180.95 Q48.1 181.95 48.65 183.45 49.15 184.8 49.15 186.3 49.15 188.65 48.25 190.3 47.3 191.9 45.45 193.05 47.6 193.85 48.75 195.15 50.0 196.4 50.4 197.95 50.75 199.35 50.75 200.7 50.75 202.85 50.2 204.35 49.7 205.9 48.35 207.25 47.0 208.45 44.85 209.2 42.9 209.9 39.3 209.9 L27.85 209.9 27.85 178.2 38.4 178.2 M34.2 196.1 L34.2 205.1 38.8 205.1 41.35 204.75 42.95 203.8 43.85 202.3 44.1 200.6 43.85 198.95 43.0 197.5 Q42.4 196.9 41.4 196.5 L38.8 196.1 34.2 196.1 M75.75 183.5 L62.85 183.5 62.85 191.05 75.2 191.05 75.2 196.4 62.85 196.4 62.85 204.6 76.2 204.6 76.2 209.9 56.25 209.9 56.25 178.2 75.75 178.2 75.75 183.5 M100.75 196.4 L88.4 196.4 88.4 204.6 101.75 204.6 101.75 209.9 81.8 209.9 81.8 178.2 101.3 178.2 101.3 183.5 88.4 183.5 88.4 191.05 100.75 191.05 100.75 196.4 M119.75 190.6 L119.75 196.6 104.8 196.6 104.8 190.6 119.75 190.6 M138.75 184.1 L137.4 183.25 Q136.45 182.9 135.35 182.9 L131.45 182.9 131.45 191.35 135.35 191.35 137.35 191.0 138.65 190.2 139.55 188.8 139.85 187.1 139.6 185.5 138.75 184.1 M140.0 178.65 Q141.7 179.0 142.75 179.7 L143.95 180.6 144.35 180.95 Q145.45 182.05 145.9 183.45 146.45 184.95 146.45 186.3 146.45 188.7 145.5 190.3 144.65 191.9 142.7 193.05 144.75 193.8 146.05 195.15 147.25 196.35 147.65 197.95 148.05 199.55 148.05 200.7 148.05 202.6 147.5 204.35 146.9 206.05 145.6 207.25 144.35 208.45 142.15 209.2 140.1 209.9 136.55 209.9 L125.15 209.9 125.15 178.2 135.65 178.2 140.0 178.65 M136.1 196.1 L131.45 196.1 131.45 205.1 136.1 205.1 138.65 204.75 140.2 203.8 Q140.9 203.1 141.1 202.3 L141.4 200.6 141.15 198.95 Q140.95 198.2 140.25 197.5 139.65 196.9 138.65 196.5 L136.1 196.1" fill="#b7830d" fill-rule="evenodd" stroke="none"/>
      <path d="M244.4 35.65 Q241.55 32.05 238.1 30.5 234.45 28.9 232.6 30.9 230.5 33.15 231.75 39.7 232.7 35.3 237.9 34.15 241.45 33.4 242.3 40.2 L242.9 44.55 Q243.4 46.4 244.75 45.9 245.05 48.9 243.3 51.45 241.4 54.1 239.75 52.05 L238.3 54.75 Q237.3 56.5 236.7 55.75 240.5 51.8 241.1 43.65 241.65 35.5 238.75 35.2 234.45 35.2 233.2 37.95 232.25 40.05 233.1 44.25 L234.85 51.6 Q235.55 55.85 234.2 58.25 240.6 55.9 243.55 53.5 248.4 49.5 247.85 43.4 247.45 39.55 244.4 35.65 M246.25 60.05 L246.05 60.2 244.2 60.25 244.05 60.4 241.0 60.35 235.7 60.65 Q233.2 60.65 232.95 59.5 232.1 64.45 229.4 68.25 227.05 71.6 223.1 74.35 234.45 74.0 236.1 64.45 236.15 63.55 235.25 64.2 234.25 64.95 234.2 63.8 239.25 59.25 249.1 64.45 248.85 62.3 247.1 61.3 L248.9 60.85 249.75 60.75 250.75 60.45 251.25 59.65 251.55 58.85 Q251.55 58.1 250.95 58.4 L250.0 59.15 Q249.55 59.65 249.15 59.75 L246.25 60.05 M206.45 46.4 L206.5 45.7 205.8 43.25 205.65 42.9 Q205.85 42.7 205.65 42.15 L205.2 41.3 205.05 39.75 205.35 37.55 Q206.55 35.05 208.5 32.55 L213.8 26.7 Q213.7 25.8 212.55 24.95 211.75 24.35 212.55 23.0 L215.05 23.0 Q215.45 25.45 213.9 27.75 L210.5 31.75 Q208.1 34.2 207.3 35.95 206.25 38.3 206.85 40.9 L206.85 41.0 207.1 42.1 Q207.45 43.1 208.1 43.1 208.5 43.1 208.9 42.75 L210.9 41.85 Q212.55 41.0 213.9 40.85 214.95 41.35 216.25 41.25 L218.15 41.25 Q221.25 41.6 223.0 42.25 224.65 42.85 226.5 44.1 228.05 45.15 229.7 47.0 L231.0 48.6 231.15 48.6 231.95 50.3 Q233.2 53.45 232.95 57.0 235.1 55.05 234.2 50.5 233.85 48.65 231.45 41.8 229.55 36.25 229.7 33.55 229.8 29.65 233.6 28.55 238.35 27.15 243.45 33.25 248.2 38.85 248.45 44.0 248.7 49.8 244.7 53.2 239.35 56.55 236.7 58.9 L244.75 59.15 Q249.85 59.0 252.15 57.0 L252.65 57.8 253.4 58.25 Q252.9 60.85 251.4 62.3 250.0 63.7 249.7 65.7 248.45 65.45 244.85 63.7 242.0 62.35 239.15 62.55 239.0 63.3 239.3 63.95 L239.75 65.05 Q246.95 66.95 248.95 72.5 250.6 77.3 248.05 83.7 245.65 89.65 240.7 94.2 235.6 98.95 230.5 99.7 230.2 97.7 228.95 95.95 L226.5 93.2 Q223.25 89.75 223.7 85.5 L218.0 88.4 Q214.1 89.75 212.55 87.3 212.3 85.5 213.75 84.8 214.55 84.35 216.3 83.6 L214.8 81.7 Q214.05 80.45 214.4 78.7 216.3 76.5 219.65 75.8 214.6 76.4 209.3 75.15 206.35 74.4 197.7 71.25 197.15 71.65 196.75 73.05 196.3 74.5 195.9 74.95 194.4 74.6 193.1 73.7 L190.9 71.85 Q187.55 73.95 185.95 72.5 187.0 68.45 192.05 67.4 196.0 66.55 202.05 67.55 L200.2 59.5 200.2 59.25 199.6 55.85 Q199.6 54.1 200.55 52.1 L200.85 51.8 202.7 50.2 Q202.65 49.7 193.95 43.8 190.15 42.25 186.55 42.1 183.4 42.0 183.4 42.75 183.4 43.65 182.25 43.9 181.15 44.15 180.8 42.25 180.5 40.5 181.75 40.55 182.4 40.6 183.15 41.0 185.6 38.7 194.85 43.2 199.45 45.45 203.9 48.3 L203.9 48.35 203.95 48.35 204.45 48.5 204.8 48.45 Q205.2 48.65 205.85 47.85 206.5 47.05 206.45 46.4 M200.8 57.0 L203.8 56.55 Q205.7 56.35 208.0 57.25 204.45 55.65 203.9 54.55 206.6 54.2 209.4 57.0 211.6 59.2 213.15 62.55 217.1 63.3 216.9 59.1 L216.8 56.75 Q216.95 56.0 218.15 57.0 218.25 52.35 219.65 49.9 221.3 46.9 224.95 46.5 222.5 45.25 219.95 46.4 218.7 46.95 216.3 48.95 217.8 45.15 220.6 44.65 226.5 43.55 228.3 49.3 L229.6 54.2 Q230.45 57.05 231.75 58.25 232.35 53.8 230.3 50.0 228.45 46.55 224.95 44.4 221.5 42.35 217.55 42.35 213.4 42.35 210.1 44.65 L211.65 45.55 Q212.65 46.1 212.55 47.1 211.35 47.45 210.6 46.65 209.75 45.75 208.85 45.9 209.1 47.05 208.55 48.35 208.0 49.7 208.25 50.8 206.95 50.9 205.05 51.85 L202.05 52.05 Q200.35 53.7 200.8 57.0 M190.8 70.5 Q193.25 69.05 194.0 68.75 194.7 69.1 194.6 71.25 194.5 73.4 195.25 73.7 195.65 73.4 195.9 71.55 196.1 70.0 197.1 70.0 L199.9 70.6 202.7 71.25 Q201.2 67.45 194.9 68.2 189.0 68.9 187.2 71.85 188.9 71.65 190.8 70.5 M203.6 62.15 Q204.7 64.05 205.75 63.2 204.2 62.45 204.75 60.65 205.35 58.85 207.6 59.5 207.75 57.9 205.7 57.6 203.7 57.35 202.7 58.25 202.45 60.2 203.6 62.15 M228.25 41.75 L229.2 43.75 229.3 44.0 226.35 39.2 228.25 41.75 M237.3 45.9 Q237.4 46.4 236.75 48.55 236.25 50.2 237.3 50.8 237.2 50.3 237.85 48.15 238.35 46.5 237.3 45.9 M236.7 44.65 Q239.15 44.65 238.65 48.45 238.2 52.25 236.1 52.05 235.9 50.1 236.1 48.1 L236.7 44.65 M212.6 39.65 L212.65 39.7 212.55 39.7 212.6 39.65 M219.35 58.25 Q220.65 58.1 223.1 57.0 222.5 54.35 222.6 53.35 222.85 51.45 224.95 51.45 226.0 51.7 226.9 53.2 227.9 54.8 228.65 55.15 228.3 49.45 224.9 48.05 221.6 47.9 220.3 51.15 219.6 52.8 219.35 58.25 M211.5 65.5 Q211.15 64.3 210.1 64.45 205.7 64.8 203.3 66.9 202.85 72.25 207.75 73.95 L216.9 73.7 Q215.95 71.9 212.55 70.65 208.65 69.2 207.6 68.15 213.7 68.85 218.6 65.55 L222.5 62.6 Q224.8 60.9 226.8 60.1 L228.1 60.95 Q228.7 61.55 228.65 62.55 L226.4 62.2 Q225.5 62.05 224.3 62.55 L222.6 65.5 Q221.45 67.2 221.25 68.75 L222.35 68.85 Q223.0 68.95 223.1 69.35 222.15 69.65 221.6 71.0 L220.6 73.1 Q225.4 71.3 227.9 68.35 230.85 64.9 231.1 59.5 227.8 57.85 223.65 58.45 219.45 59.0 217.5 61.35 217.6 62.15 218.35 63.2 218.75 63.8 218.15 65.05 L215.7 66.35 Q214.3 67.1 212.55 66.9 211.9 66.8 211.5 65.5 M219.1 71.3 Q217.55 72.0 217.5 73.1 219.05 73.3 220.2 71.6 221.35 70.0 220.6 69.35 220.65 70.55 219.1 71.3 M241.7 67.45 Q241.15 66.6 239.75 66.9 237.45 75.7 228.05 76.8 229.65 79.25 233.0 78.95 235.85 78.7 238.55 76.8 237.85 73.8 239.4 72.1 L242.25 69.35 Q242.05 67.95 241.7 67.45 M240.15 73.15 Q239.4 74.0 239.75 75.55 242.1 74.4 243.6 76.65 L245.95 80.5 Q246.75 77.95 245.45 75.25 244.15 72.5 241.65 71.85 240.55 72.6 240.15 73.15 M237.3 63.8 Q237.3 67.9 234.6 70.7 L229.3 74.95 Q233.7 74.9 236.5 71.1 239.2 67.3 237.3 63.8 M238.95 84.75 Q240.25 85.5 242.9 85.5 242.55 83.7 240.9 82.8 239.75 82.15 237.3 81.75 237.35 83.85 238.95 84.75 M227.9 80.95 Q226.55 78.65 225.55 78.05 224.75 83.2 229.5 85.5 233.95 87.55 237.95 85.5 236.25 83.1 230.5 83.6 229.1 83.1 227.9 80.95 M232.95 97.85 Q233.05 97.25 234.35 97.1 235.6 96.9 235.45 95.95 234.15 96.4 232.05 95.55 230.25 94.8 229.9 95.35 230.85 95.55 231.7 96.35 L232.95 97.85 M224.95 86.1 Q225.75 92.5 233.6 92.6 236.8 92.65 239.7 91.4 242.75 90.1 244.1 87.95 239.65 90.95 233.65 90.8 227.1 90.55 224.95 86.1 M221.25 79.3 Q221.1 80.8 222.1 81.85 L223.7 83.6 223.7 79.3 221.25 79.3 M217.5 78.7 L221.85 78.45 Q224.8 77.8 225.55 76.15 L220.65 76.55 Q218.25 77.05 217.5 78.7 M218.15 82.35 Q219.35 83.05 221.85 84.2 221.05 79.55 215.65 79.3 216.2 81.1 218.15 82.35 M214.4 87.95 Q218.6 87.95 220.6 84.85 216.45 84.85 214.4 87.95 M248.45 78.05 Q248.35 77.8 248.6 74.5 248.7 72.35 247.2 72.5 L247.15 75.9 Q247.2 77.9 248.45 78.05 M245.35 84.85 Q244.7 79.0 241.65 76.15 241.7 82.15 245.35 84.85" fill="#000000" fill-rule="evenodd" stroke="none"/>
      <path d="M203.9 48.3 L203.95 48.35 203.9 48.35 203.9 48.3 M204.8 48.45 Q205.6 48.3 206.05 47.4 L206.45 46.4 Q206.5 47.05 205.85 47.85 205.2 48.65 204.8 48.45 M203.6 62.15 Q202.45 60.2 202.7 58.25 203.7 57.35 205.7 57.6 207.75 57.9 207.6 59.5 205.35 58.85 204.75 60.65 204.2 62.45 205.75 63.2 204.7 64.05 203.6 62.15 M237.3 45.9 Q238.35 46.5 237.85 48.15 237.2 50.3 237.3 50.8 236.25 50.2 236.75 48.55 237.4 46.4 237.3 45.9 M219.35 58.25 Q219.6 52.8 220.3 51.15 221.6 47.9 224.9 48.05 228.3 49.45 228.65 55.15 227.9 54.8 226.9 53.2 226.0 51.7 224.95 51.45 222.85 51.45 222.6 53.35 222.5 54.35 223.1 57.0 220.65 58.1 219.35 58.25 M219.1 71.3 Q220.65 70.55 220.6 69.35 221.35 70.0 220.2 71.6 219.05 73.3 217.5 73.1 217.55 72.0 219.1 71.3 M221.25 79.3 L223.7 79.3 223.7 83.6 222.1 81.85 Q221.1 80.8 221.25 79.3 M248.45 78.05 Q247.2 77.9 247.15 75.9 L247.2 72.5 Q248.7 72.35 248.6 74.5 248.35 77.8 248.45 78.05" fill="#ffffff" fill-rule="evenodd" stroke="none"/>
      <path d="M241.7 67.45 Q242.05 67.95 242.25 69.35 L239.4 72.1 Q237.85 73.8 238.55 76.8 235.85 78.7 233.0 78.95 229.65 79.25 228.05 76.8 237.45 75.7 239.75 66.9 241.15 66.6 241.7 67.45 M224.95 86.1 Q227.1 90.55 233.65 90.8 239.65 90.95 244.1 87.95 242.75 90.1 239.7 91.4 236.8 92.65 233.6 92.6 225.75 92.5 224.95 86.1 M232.95 97.85 L231.7 96.35 Q230.85 95.55 229.9 95.35 230.25 94.8 232.05 95.55 234.15 96.4 235.45 95.95 235.6 96.9 234.35 97.1 233.05 97.25 232.95 97.85 M227.9 80.95 Q229.1 83.1 230.5 83.6 236.25 83.1 237.95 85.5 233.95 87.55 229.5 85.5 224.75 83.2 225.55 78.05 226.55 78.65 227.9 80.95" fill="#f0af17" fill-rule="evenodd" stroke="none"/>
      <path d="M246.25 60.05 L249.15 59.75 Q249.55 59.65 250.0 59.15 L250.95 58.4 Q251.55 58.1 251.55 58.85 L251.25 59.65 250.75 60.45 249.75 60.75 248.9 60.85 247.1 61.3 Q248.85 62.3 249.1 64.45 239.25 59.25 234.2 63.8 234.25 64.95 235.25 64.2 236.15 63.55 236.1 64.45 234.45 74.0 223.1 74.35 227.05 71.6 229.4 68.25 232.1 64.45 232.95 59.5 233.2 60.65 235.7 60.65 L241.0 60.35 244.05 60.4 244.2 60.25 246.05 60.2 246.25 60.05 M190.8 70.5 Q188.9 71.65 187.2 71.85 189.0 68.9 194.9 68.2 201.2 67.45 202.7 71.25 L199.9 70.6 197.1 70.0 Q196.1 70.0 195.9 71.55 195.65 73.4 195.25 73.7 194.5 73.4 194.6 71.25 194.7 69.1 194.0 68.75 193.25 69.05 190.8 70.5 M200.8 57.0 Q200.35 53.7 202.05 52.05 L205.05 51.85 Q206.95 50.9 208.25 50.8 208.0 49.7 208.55 48.35 209.1 47.05 208.85 45.9 209.75 45.75 210.6 46.65 211.35 47.45 212.55 47.1 212.65 46.1 211.65 45.55 L210.1 44.65 Q213.4 42.35 217.55 42.35 221.5 42.35 224.95 44.4 228.45 46.55 230.3 50.0 232.35 53.8 231.75 58.25 230.45 57.05 229.6 54.2 L228.3 49.3 Q226.5 43.55 220.6 44.65 217.8 45.15 216.3 48.95 218.7 46.95 219.95 46.4 222.5 45.25 224.95 46.5 221.3 46.9 219.65 49.9 218.25 52.35 218.15 57.0 216.95 56.0 216.8 56.75 L216.9 59.1 Q217.1 63.3 213.15 62.55 211.6 59.2 209.4 57.0 206.6 54.2 203.9 54.55 204.45 55.65 208.0 57.25 205.7 56.35 203.8 56.55 L200.8 57.0 M211.5 65.5 Q211.9 66.8 212.55 66.9 214.3 67.1 215.7 66.35 L218.15 65.05 Q218.75 63.8 218.35 63.2 217.6 62.15 217.5 61.35 219.45 59.0 223.65 58.45 227.8 57.85 231.1 59.5 230.85 64.9 227.9 68.35 225.4 71.3 220.6 73.1 L221.6 71.0 Q222.15 69.65 223.1 69.35 223.0 68.95 222.35 68.85 L221.25 68.75 Q221.45 67.2 222.6 65.5 L224.3 62.55 Q225.5 62.05 226.4 62.2 L228.65 62.55 Q228.7 61.55 228.1 60.95 L226.8 60.1 Q224.8 60.9 222.5 62.6 L218.6 65.55 Q213.7 68.85 207.6 68.15 208.65 69.2 212.55 70.65 215.95 71.9 216.9 73.7 L207.75 73.95 Q202.85 72.25 203.3 66.9 205.7 64.8 210.1 64.45 211.15 64.3 211.5 65.5 M238.95 84.75 Q237.35 83.85 237.3 81.75 239.75 82.15 240.9 82.8 242.55 83.7 242.9 85.5 240.25 85.5 238.95 84.75 M237.3 63.8 Q239.2 67.3 236.5 71.1 233.7 74.9 229.3 74.95 L234.6 70.7 Q237.3 67.9 237.3 63.8 M240.15 73.15 Q240.55 72.6 241.65 71.85 244.15 72.5 245.45 75.25 246.75 77.95 245.95 80.5 L243.6 76.65 Q242.1 74.4 239.75 75.55 239.4 74.0 240.15 73.15 M214.4 87.95 Q216.45 84.85 220.6 84.85 218.6 87.95 214.4 87.95 M218.15 82.35 Q216.2 81.1 215.65 79.3 221.05 79.55 221.85 84.2 219.35 83.05 218.15 82.35 M217.5 78.7 Q218.25 77.05 220.65 76.55 L225.55 76.15 Q224.8 77.8 221.85 78.45 L217.5 78.7 M245.35 84.85 Q241.7 82.15 241.65 76.15 244.7 79.0 245.35 84.85" fill="#f9e0a8" fill-rule="evenodd" stroke="none"/>
      <path d="M244.4 35.65 Q247.45 39.55 247.85 43.4 248.4 49.5 243.55 53.5 240.6 55.9 234.2 58.25 235.55 55.85 234.85 51.6 L233.1 44.25 Q232.25 40.05 233.2 37.95 234.45 35.2 238.75 35.2 241.65 35.5 241.1 43.65 240.5 51.8 236.7 55.75 237.3 56.5 238.3 54.75 L239.75 52.05 Q241.4 54.1 243.3 51.45 245.05 48.9 244.75 45.9 243.4 46.4 242.9 44.55 L242.3 40.2 Q241.45 33.4 237.9 34.15 232.7 35.3 231.75 39.7 230.5 33.15 232.6 30.9 234.45 28.9 238.1 30.5 241.55 32.05 244.4 35.65 M236.7 44.65 L236.1 48.1 Q235.9 50.1 236.1 52.05 238.2 52.25 238.65 48.45 239.15 44.65 236.7 44.65" fill="#aaffff" fill-rule="evenodd" stroke="none"/>
      <path d="M233.65 111.35 L224.95 170.45 239.1 170.45 238.35 175.65 212.8 175.65 222.25 111.35 233.65 111.35 M199.8 111.35 L186.15 142.1 190.35 175.65 178.15 175.7 174.9 143.5 170.25 175.65 158.25 175.65 167.7 111.35 179.7 111.35 175.25 141.3 187.6 111.3 199.8 111.35 M215.85 111.5 L206.45 175.65 195.1 175.65 204.5 111.5 215.85 111.5 M269.2 170.45 L268.45 175.65 242.9 175.65 252.35 111.35 263.75 111.35 255.05 170.45 269.2 170.45 M65.25 117.25 L62.25 137.75 55.55 143.7 60.55 149.55 57.55 169.95 51.05 175.65 26.8 175.65 36.2 111.5 60.45 111.5 65.25 117.25 M83.35 111.35 L74.75 169.95 81.4 169.95 90.0 111.35 101.7 111.35 92.95 170.85 87.4 175.65 67.1 175.65 62.95 170.85 71.7 111.35 83.35 111.35 M39.05 169.95 L46.05 169.95 49.6 146.25 42.5 146.25 39.05 169.95 M53.75 118.05 L46.65 118.05 43.2 141.7 50.2 141.7 53.75 118.05 M136.05 116.25 L136.8 111.35 162.45 111.35 161.75 115.95 140.7 170.65 154.05 170.65 153.3 175.65 127.35 175.65 128.0 171.15 149.35 116.25 136.05 116.25 M131.65 115.95 L110.6 170.65 123.95 170.65 123.2 175.65 97.3 175.65 97.95 171.15 119.25 116.25 106.0 116.25 106.75 111.35 132.35 111.35 131.65 115.95" fill="#000000" fill-opacity="0.21176471" fill-rule="evenodd" stroke="none"/>
      <path d="M217.1 125.6 L219.55 108.85 230.95 108.85 228.5 125.6 217.1 125.6 M224.15 155.1 L222.3 167.95 236.45 167.95 235.65 173.15 210.1 173.15 212.75 155.1 224.15 155.1 M178.0 125.6 L184.9 108.8 197.1 108.85 189.7 125.6 178.0 125.6 M185.4 155.1 L187.65 173.15 175.45 173.2 173.65 155.1 185.4 155.1 M170.2 155.1 L167.55 173.15 155.55 173.15 158.2 155.1 170.2 155.1 M162.55 125.6 L165.0 108.85 177.0 108.85 174.55 125.6 162.55 125.6 M199.4 125.6 L201.8 109.0 213.15 109.0 210.75 125.6 199.4 125.6 M206.4 155.1 L203.75 173.15 192.4 173.15 195.05 155.1 206.4 155.1 M254.25 155.1 L252.4 167.95 266.55 167.95 265.75 173.15 240.2 173.15 242.85 155.1 254.25 155.1 M247.2 125.6 L249.65 108.85 261.05 108.85 258.6 125.6 247.2 125.6 M66.55 125.6 L69.0 108.85 80.65 108.85 78.2 125.6 66.55 125.6 M73.85 155.1 L72.05 167.45 78.7 167.45 80.5 155.1 92.2 155.1 90.3 168.35 84.7 173.15 64.4 173.15 60.3 168.35 62.2 155.1 73.85 155.1 M84.85 125.6 L87.3 108.85 99.0 108.85 96.55 125.6 84.85 125.6 M31.1 125.6 L33.5 109.0 57.75 109.0 62.6 114.75 61.0 125.6 49.55 125.6 51.05 115.55 43.95 115.55 42.5 125.6 31.1 125.6 M56.65 155.1 L54.85 167.45 48.35 173.15 24.1 173.15 26.75 155.1 38.15 155.1 36.35 167.45 43.35 167.45 45.2 155.1 56.65 155.1 M142.1 125.6 L146.7 113.75 133.4 113.75 134.1 108.85 159.75 108.85 159.05 113.45 154.4 125.6 142.1 125.6 M143.05 155.1 L138.0 168.15 151.35 168.15 150.6 173.15 124.65 173.15 125.35 168.65 130.6 155.1 143.05 155.1 M112.0 125.6 L116.6 113.75 103.35 113.75 104.05 108.85 129.65 108.85 128.95 113.45 124.3 125.6 112.0 125.6 M112.95 155.1 L107.9 168.15 121.25 168.15 120.5 173.15 94.6 173.15 95.3 168.65 100.55 155.1 112.95 155.1" fill="#000000" fill-rule="evenodd" stroke="none"/>
      <path d="M228.5 125.6 L224.15 155.1 212.75 155.1 217.1 125.6 228.5 125.6 M189.7 125.6 L183.5 139.6 185.4 155.1 173.65 155.1 172.25 141.0 170.2 155.1 158.2 155.1 162.55 125.6 174.55 125.6 172.55 138.8 178.0 125.6 189.7 125.6 M210.75 125.6 L206.4 155.1 195.05 155.1 199.4 125.6 210.75 125.6 M242.85 155.1 L247.2 125.6 258.6 125.6 254.25 155.1 242.85 155.1 M78.2 125.6 L73.85 155.1 62.2 155.1 66.55 125.6 78.2 125.6 M80.5 155.1 L84.85 125.6 96.55 125.6 92.2 155.1 80.5 155.1 M61.0 125.6 L59.6 135.25 52.85 141.2 57.85 147.05 56.65 155.1 45.2 155.1 46.95 143.75 39.85 143.75 38.15 155.1 26.75 155.1 31.1 125.6 42.5 125.6 40.5 139.2 47.5 139.2 49.55 125.6 61.0 125.6 M154.4 125.6 L143.05 155.1 130.6 155.1 142.1 125.6 154.4 125.6 M124.3 125.6 L112.95 155.1 100.55 155.1 112.0 125.6 124.3 125.6" fill="#b7830d" fill-rule="evenodd" stroke="none"/>
    </g>
  </defs>
</svg>
