<?xml version="1.0" encoding="UTF-8" standalone="no"?>
<svg xmlns:xlink="http://www.w3.org/1999/xlink" height="300.0px" width="300.0px" xmlns="http://www.w3.org/2000/svg">
  <g transform="matrix(1.0, 0.0, 0.0, 1.0, 0.0, 0.0)">
    <use height="157.05" transform="matrix(1.0, 0.0, 0.0, 1.0, 4.6, 76.9)" width="278.95" xlink:href="#sprite0"/>
    <clipPath id="clipPath0" transform="matrix(1.0, 0.0, 0.0, 1.0, 3.95, 74.5)">
      <use height="157.05" transform="matrix(1.0, 0.0, 0.0, 1.0, 0.0, 0.0)" width="278.95" xlink:href="#shape0"/>
    </clipPath>
    <g clip-path="url(#clipPath0)">
      <use height="172.05" transform="matrix(1.0, 0.0, 0.0, 1.0, -8.95, 67.0)" width="304.6" xlink:href="#shape1"/>
    </g>
    <use height="157.05" transform="matrix(1.0, 0.0, 0.0, 1.0, 4.6, 76.9)" width="278.95" xlink:href="#shape2"/>
  </g>
  <defs>
    <g id="sprite0" transform="matrix(1.0, 0.0, 0.0, 1.0, 0.0, 0.0)">
      <use height="157.05" transform="matrix(1.0, 0.0, 0.0, 1.0, 0.0, 0.0)" width="278.95" xlink:href="#shape0"/>
    </g>
    <g id="shape0" transform="matrix(1.0, 0.0, 0.0, 1.0, 0.0, 0.0)">
      <path d="M128.1 110.65 Q129.45 106.5 126.8 103.55 124.4 100.9 119.85 100.15 115.4 99.45 111.55 101.0 107.35 102.8 106.1 106.6 104.75 110.75 107.55 113.5 109.95 115.9 114.55 116.45 119.0 116.95 122.85 115.45 127.0 113.85 128.1 110.65 M34.15 115.9 Q36.35 108.55 26.65 104.4 22.9 102.85 18.25 102.15 L10.9 101.8 10.65 107.9 Q10.5 111.45 10.85 113.5 11.8 119.4 18.1 121.25 23.05 122.7 27.45 121.7 32.8 120.45 34.15 115.9 M69.75 93.35 Q73.1 89.6 74.95 90.2 77.15 90.95 76.75 93.15 76.4 94.8 74.35 97.95 L70.75 103.45 Q68.9 106.6 68.9 108.45 68.9 112.65 72.0 115.2 74.75 117.4 78.75 117.5 82.75 117.6 85.5 115.55 88.55 113.3 88.45 109.45 L87.95 104.85 Q87.5 101.5 87.5 99.65 87.45 93.6 91.8 93.6 93.05 93.6 96.55 112.05 100.4 132.3 101.5 134.7 102.05 135.5 100.1 136.3 98.25 137.1 95.6 137.2 92.7 137.35 90.8 136.55 88.6 135.65 88.6 133.6 80.1 136.4 75.8 136.95 68.35 137.85 63.45 132.9 56.85 126.25 58.2 115.8 59.4 106.85 65.55 98.8 L69.75 93.35 M123.4 93.6 Q128.45 92.6 128.45 92.0 128.45 88.95 127.2 86.3 L125.15 82.95 Q124.35 81.5 125.05 80.5 125.85 79.25 129.4 77.45 L132.9 75.85 Q136.9 74.4 136.0 76.45 133.2 83.0 133.3 100.6 133.45 118.05 136.2 124.95 137.7 129.75 132.1 132.35 126.85 134.8 119.05 134.0 110.65 133.05 105.15 128.85 98.7 123.9 98.7 116.05 96.95 102.25 112.5 96.5 116.55 95.0 123.4 93.6 M97.2 28.5 L100.9 39.25 Q102.85 45.1 103.55 46.6 104.3 48.35 107.0 53.4 109.25 57.75 110.2 60.3 113.1 68.35 108.35 73.05 L103.45 78.75 Q100.25 82.5 98.3 83.8 96.35 85.05 88.2 65.75 L82.05 51.25 Q78.8 44.05 77.35 42.6 70.75 53.55 68.5 57.75 63.7 66.9 61.95 74.0 58.8 82.55 55.55 81.4 53.0 80.55 49.7 73.1 L44.0 58.9 Q40.6 50.7 38.05 48.7 35.35 53.3 34.4 59.65 33.6 65.65 34.65 70.9 35.3 74.15 28.85 77.15 L22.0 80.0 24.2 80.5 Q30.9 82.1 37.65 84.55 43.55 86.75 45.45 88.0 51.0 91.75 53.85 97.6 56.55 103.15 56.2 109.3 55.9 115.45 52.55 120.45 48.95 125.8 42.75 128.5 35.7 131.6 27.35 130.75 21.55 130.1 12.2 126.95 L14.15 137.0 Q15.1 142.5 14.7 145.8 14.15 150.1 11.1 152.75 7.65 155.75 0.55 157.05 L1.1 107.55 0.7 101.7 0.1 94.25 Q-0.4 84.7 1.65 81.65 5.0 76.9 18.75 79.35 19.3 75.9 22.5 66.0 25.8 55.7 29.0 46.9 31.05 41.25 30.65 38.15 L30.05 35.0 Q29.7 32.75 29.7 30.15 27.85 26.1 28.15 23.9 28.45 22.0 30.55 20.85 31.6 20.3 35.55 19.0 39.55 17.75 42.0 16.35 47.9 13.15 54.65 28.35 56.65 32.9 59.45 40.8 L62.85 50.05 Q67.1 47.95 69.8 39.5 72.45 31.25 70.65 27.5 67.95 24.85 68.85 22.55 69.65 20.45 72.95 19.5 74.5 19.1 80.5 16.1 85.3 13.7 88.2 13.7 91.95 14.45 97.2 28.5 M126.15 38.15 L122.9 38.9 Q120.65 40.35 122.15 41.6 123.5 42.75 127.0 43.05 L133.85 42.6 Q137.55 41.65 139.0 39.55 141.45 36.15 132.55 37.1 L126.15 38.15 M123.6 17.7 L132.35 18.85 Q136.4 19.7 138.3 20.55 145.15 23.55 146.35 33.15 146.75 36.45 146.6 41.5 L146.35 49.3 Q146.35 51.5 148.25 55.25 150.15 59.0 150.15 60.1 150.15 61.85 145.9 61.05 L140.5 59.65 Q137.6 59.05 130.95 59.8 L119.95 60.75 Q113.9 60.7 110.85 58.3 107.05 55.25 107.05 48.2 107.6 39.8 123.25 34.45 L133.95 31.35 Q138.8 30.05 138.8 29.3 138.8 21.8 125.75 25.95 121.95 27.15 116.55 29.6 L111.7 31.65 Q110.85 31.65 110.05 26.65 109.25 21.65 109.9 21.05 112.15 17.0 123.6 17.7 M195.5 133.4 Q194.95 135.0 192.85 135.65 L186.0 136.25 Q187.3 126.45 186.35 118.25 185.35 109.7 181.75 100.85 L195.45 93.9 195.45 121.3 195.75 128.8 Q195.95 132.1 195.5 133.4 M168.85 111.65 Q170.2 107.45 167.55 104.5 165.15 101.85 160.6 101.1 156.15 100.4 152.3 102.0 148.1 103.75 146.85 107.6 145.5 111.75 148.3 114.45 150.7 116.85 155.3 117.4 159.75 117.9 163.6 116.45 167.75 114.85 168.85 111.65 M183.85 93.2 Q182.5 85.65 185.8 82.3 187.1 80.9 190.0 79.3 191.7 78.35 195.9 76.2 195.9 81.0 195.55 83.2 195.15 85.7 193.95 87.2 192.9 88.5 190.3 89.9 L183.85 93.2 M198.35 92.2 Q198.4 91.4 200.4 90.0 202.45 88.6 204.9 87.8 207.65 86.8 209.35 87.2 211.4 87.6 211.4 89.85 L219.8 89.15 227.85 88.9 Q232.0 89.35 234.5 91.8 237.45 94.75 238.65 100.8 239.6 104.25 237.7 111.55 236.05 118.1 232.85 125.15 229.7 132.15 226.9 135.55 223.9 139.3 222.85 136.65 222.15 134.9 224.05 129.75 L227.35 120.4 Q228.8 114.95 227.05 112.15 224.85 108.6 217.3 108.6 212.65 108.6 211.15 112.35 210.2 114.65 210.2 120.3 210.25 126.1 209.55 127.9 208.35 131.1 204.2 130.4 205.75 130.6 202.25 112.55 L198.35 92.2 M170.15 78.4 L173.65 76.85 Q177.65 75.35 176.75 77.45 173.9 84.0 174.05 101.6 174.15 119.05 176.95 125.9 178.45 130.7 172.85 133.3 167.6 135.8 159.8 134.95 151.45 134.05 145.9 129.8 139.45 124.85 139.45 117.0 137.7 103.25 153.3 97.45 157.3 95.95 164.15 94.55 169.2 93.55 169.2 93.0 169.2 89.9 167.95 87.25 L165.95 83.9 Q165.1 82.45 165.8 81.45 166.6 80.2 170.15 78.4 M171.35 39.85 Q168.45 42.1 167.8 45.3 167.15 48.55 169.15 50.75 171.45 53.2 176.45 53.2 177.0 53.2 179.2 51.3 L183.6 47.35 Q189.9 42.0 191.85 43.9 192.9 45.0 190.55 52.3 L187.3 61.0 Q186.15 63.65 181.25 67.65 176.3 71.7 170.9 74.5 164.85 77.6 161.15 77.5 156.85 77.4 156.85 72.7 153.45 64.7 156.1 62.85 157.85 61.65 164.45 62.95 172.35 64.55 175.3 64.25 180.95 63.65 182.1 57.95 L173.75 58.55 Q168.5 59.1 165.65 58.75 156.8 57.7 154.15 47.5 151.75 38.2 157.95 30.15 163.85 22.4 173.5 20.85 183.2 19.3 185.75 23.75 186.85 25.65 187.1 29.4 187.3 31.4 187.3 37.55 186.9 38.55 183.3 38.1 L178.8 37.4 Q174.45 37.4 171.35 39.85 M205.7 17.7 L205.7 45.1 206.0 52.6 Q206.2 55.9 205.75 57.15 205.2 58.8 203.1 59.45 L196.25 60.05 Q197.55 50.25 196.6 42.05 195.6 33.5 192.0 24.65 192.7 23.0 198.25 20.7 201.2 19.45 205.7 17.7 M206.15 0.0 Q206.15 4.8 205.8 7.0 205.4 9.5 204.2 11.0 203.15 12.3 200.55 13.75 L194.1 17.0 Q192.75 9.45 196.0 6.05 197.35 4.7 200.25 3.1 L206.15 0.0 M243.85 53.7 Q245.25 58.8 243.7 62.2 242.3 65.35 238.7 66.7 235.35 67.95 230.85 67.4 226.35 66.9 222.0 64.7 213.5 60.55 211.1 52.75 208.95 45.7 212.25 38.3 215.5 30.95 222.25 27.2 229.6 23.05 238.0 25.25 249.1 27.9 245.65 31.75 244.55 33.0 242.15 34.1 L239.8 34.9 Q237.65 32.9 234.8 31.9 231.95 30.95 229.2 31.25 222.75 32.05 221.1 38.55 218.9 46.9 226.2 48.8 L232.9 49.05 Q236.45 48.5 239.45 47.0 241.9 45.55 242.9 48.65 243.45 50.35 243.85 53.7 M260.3 92.25 Q270.0 90.75 272.5 95.15 273.6 97.1 273.9 100.8 274.1 102.8 274.1 108.95 273.65 109.95 270.05 109.45 L265.6 108.8 Q261.25 108.8 258.1 111.25 255.25 113.5 254.55 116.7 253.9 119.95 255.95 122.15 258.25 124.6 263.2 124.6 263.8 124.6 265.95 122.7 L270.4 118.75 Q276.65 113.4 278.65 115.35 279.7 116.4 277.35 123.7 L274.1 132.4 Q271.6 138.05 267.75 141.3 264.0 144.4 258.05 146.05 253.15 147.45 249.15 148.0 241.8 149.0 243.4 145.85 L243.45 142.35 243.3 137.35 Q243.35 131.2 245.85 132.75 248.05 134.05 251.45 135.0 255.2 136.0 258.65 136.0 267.55 136.0 268.9 129.35 L260.55 129.95 Q255.3 130.5 252.4 130.15 243.55 129.1 240.95 118.9 238.5 109.6 244.7 101.55 250.65 93.8 260.3 92.25" fill="#000000" fill-rule="evenodd" stroke="none"/>
    </g>
    <g id="shape1" transform="matrix(1.0, 0.0, 0.0, 1.0, 8.95, -67.0)">
      <path d="M295.65 239.05 L-8.95 239.05 -8.95 67.0 295.65 67.0 295.65 239.05" fill="url(#gradient0)" fill-rule="evenodd" stroke="none"/>
    </g>
    <linearGradient gradientTransform="matrix(0.1859, 0.0, 0.0, 0.105, 143.35, 153.0)" gradientUnits="userSpaceOnUse" id="gradient0" spreadMethod="pad" x1="-819.2" x2="819.2">
      <stop offset="0.0" stop-color="#ff0000"/>
      <stop offset="0.16470588235294117" stop-color="#ffff00"/>
      <stop offset="0.36470588235294116" stop-color="#00ff00"/>
      <stop offset="0.4980392156862745" stop-color="#00ffff"/>
      <stop offset="0.6666666666666666" stop-color="#0000ff"/>
      <stop offset="0.8313725490196079" stop-color="#ff00ff"/>
      <stop offset="1.0" stop-color="#ff0000"/>
    </linearGradient>
    <g id="shape2" transform="matrix(1.0, 0.0, 0.0, 1.0, -4.6, -76.9)">
      <path d="M103.3 192.95 Q101.55 179.15 117.1 173.4 121.15 171.9 128.0 170.5 133.05 169.5 133.05 168.9 133.05 165.85 131.8 163.2 L129.75 159.85 Q128.95 158.4 129.65 157.4 130.45 156.15 134.0 154.35 L137.5 152.75 Q141.5 151.3 140.6 153.35 137.8 159.9 137.9 177.5 138.05 194.95 140.8 201.85 142.3 206.65 136.7 209.25 131.45 211.7 123.65 210.9 115.25 209.95 109.75 205.75 103.3 200.8 103.3 192.95 M116.15 177.9 Q111.95 179.7 110.7 183.5 109.35 187.65 112.15 190.4 114.55 192.8 119.15 193.35 123.6 193.85 127.45 192.35 131.6 190.75 132.7 187.55 134.05 183.4 131.4 180.45 129.0 177.8 124.45 177.05 120.0 176.35 116.15 177.9 M131.6 119.95 L138.45 119.5 Q142.15 118.55 143.6 116.45 146.05 113.05 137.15 114.0 L130.75 115.05 127.5 115.8 Q125.25 117.25 126.75 118.5 128.1 119.65 131.6 119.95 M74.35 170.25 Q77.7 166.5 79.55 167.1 81.75 167.85 81.35 170.05 81.0 171.7 78.95 174.85 L75.35 180.35 Q73.5 183.5 73.5 185.35 73.5 189.55 76.6 192.1 79.35 194.3 83.35 194.4 87.35 194.5 90.1 192.45 93.15 190.2 93.05 186.35 L92.55 181.75 Q92.1 178.4 92.1 176.55 92.05 170.5 96.4 170.5 97.65 170.5 101.15 188.95 105.0 209.2 106.1 211.6 106.65 212.4 104.7 213.2 102.85 214.0 100.2 214.1 97.3 214.25 95.4 213.45 93.2 212.55 93.2 210.5 84.7 213.3 80.4 213.85 72.95 214.75 68.05 209.8 61.45 203.15 62.8 192.7 64.0 183.75 70.15 175.7 L74.35 170.25 M15.5 178.7 L15.25 184.8 Q15.1 188.35 15.45 190.4 16.4 196.3 22.7 198.15 27.65 199.6 32.05 198.6 37.4 197.35 38.75 192.8 40.95 185.45 31.25 181.3 27.5 179.75 22.85 179.05 L15.5 178.7 M128.2 94.6 L136.95 95.75 Q141.0 96.6 142.9 97.45 149.75 100.45 150.95 110.05 151.35 113.35 151.2 118.4 L150.95 126.2 Q150.95 128.4 152.85 132.15 154.75 135.9 154.75 137.0 154.75 138.75 150.5 137.95 L145.1 136.55 Q142.2 135.95 135.55 136.7 L124.55 137.65 Q118.5 137.6 115.45 135.2 111.65 132.15 111.65 125.1 112.2 116.7 127.85 111.35 L138.55 108.25 Q143.4 106.95 143.4 106.2 143.4 98.7 130.35 102.85 126.55 104.05 121.15 106.5 L116.3 108.55 Q115.45 108.55 114.65 103.55 113.85 98.55 114.5 97.95 116.75 93.9 128.2 94.6 M85.1 93.0 Q89.9 90.6 92.8 90.6 96.55 91.35 101.8 105.4 L105.5 116.15 Q107.45 122.0 108.15 123.5 108.9 125.25 111.6 130.3 L114.8 137.2 Q117.7 145.25 112.95 149.95 L108.05 155.65 Q104.85 159.4 102.9 160.7 100.95 161.95 92.8 142.65 L86.65 128.15 Q83.4 120.95 81.95 119.5 75.35 130.45 73.1 134.65 68.3 143.8 66.55 150.9 63.4 159.45 60.15 158.3 57.6 157.45 54.3 150.0 L48.6 135.8 Q45.2 127.6 42.65 125.6 39.95 130.2 39.0 136.55 38.2 142.55 39.25 147.8 39.9 151.05 33.45 154.05 L26.6 156.9 28.8 157.4 Q35.5 159.0 42.25 161.45 48.15 163.65 50.05 164.9 55.6 168.65 58.45 174.5 61.15 180.05 60.8 186.2 60.5 192.35 57.15 197.35 53.55 202.7 47.35 205.4 40.3 208.5 31.95 207.65 26.15 207.0 16.8 203.85 L18.75 213.9 Q19.7 219.4 19.3 222.7 18.75 227.0 15.7 229.65 12.25 232.65 5.15 233.95 L5.7 184.45 5.3 178.6 4.7 171.15 Q4.2 161.6 6.25 158.55 9.6 153.8 23.35 156.25 23.9 152.8 27.1 142.9 30.4 132.6 33.6 123.8 35.65 118.15 35.25 115.05 L34.65 111.9 Q34.3 109.65 34.3 107.05 32.45 103.0 32.75 100.8 33.05 98.9 35.15 97.75 36.2 97.2 40.15 95.9 44.15 94.65 46.6 93.25 52.5 90.05 59.25 105.25 61.25 109.8 64.05 117.7 L67.45 126.95 Q71.7 124.85 74.4 116.4 77.05 108.15 75.25 104.4 72.55 101.75 73.45 99.45 74.25 97.35 77.55 96.4 79.1 96.0 85.1 93.0 M264.9 169.15 Q274.6 167.65 277.1 172.05 278.2 174.0 278.5 177.7 278.7 179.7 278.7 185.85 278.25 186.85 274.65 186.35 L270.2 185.7 Q265.85 185.7 262.7 188.15 259.85 190.4 259.15 193.6 258.5 196.85 260.55 199.05 262.85 201.5 267.8 201.5 268.4 201.5 270.55 199.6 L275.0 195.65 Q281.25 190.3 283.25 192.25 284.3 193.3 281.95 200.6 L278.7 209.3 Q276.2 214.95 272.35 218.2 268.6 221.3 262.65 222.95 257.75 224.35 253.75 224.9 246.4 225.9 248.0 222.75 L248.05 219.25 247.9 214.25 Q247.95 208.1 250.45 209.65 252.65 210.95 256.05 211.9 259.8 212.9 263.25 212.9 272.15 212.9 273.5 206.25 L265.15 206.85 Q259.9 207.4 257.0 207.05 248.15 206.0 245.55 195.8 243.1 186.5 249.3 178.45 255.25 170.7 264.9 169.15 M232.45 165.8 Q236.6 166.25 239.1 168.7 242.05 171.65 243.25 177.7 244.2 181.15 242.3 188.45 240.65 195.0 237.45 202.05 234.3 209.05 231.5 212.45 228.5 216.2 227.45 213.55 226.75 211.8 228.65 206.65 L231.95 197.3 Q233.4 191.85 231.65 189.05 229.45 185.5 221.9 185.5 217.25 185.5 215.75 189.25 214.8 191.55 214.8 197.2 214.85 203.0 214.15 204.8 212.95 208.0 208.8 207.3 210.35 207.5 206.85 189.45 L202.95 169.1 Q203.0 168.3 205.0 166.9 207.05 165.5 209.5 164.7 212.25 163.7 213.95 164.1 216.0 164.5 216.0 166.75 L224.4 166.05 232.45 165.8 M190.95 195.15 Q189.95 186.6 186.35 177.75 L200.05 170.8 200.05 198.2 200.35 205.7 Q200.55 209.0 200.1 210.3 199.55 211.9 197.45 212.55 L190.6 213.15 Q191.9 203.35 190.95 195.15 M173.45 188.55 Q174.8 184.35 172.15 181.4 169.75 178.75 165.2 178.0 160.75 177.3 156.9 178.9 152.7 180.65 151.45 184.5 150.1 188.65 152.9 191.35 155.3 193.75 159.9 194.3 164.35 194.8 168.2 193.35 172.35 191.75 173.45 188.55 M174.75 155.3 L178.25 153.75 Q182.25 152.25 181.35 154.35 178.5 160.9 178.65 178.5 178.75 195.95 181.55 202.8 183.05 207.6 177.45 210.2 172.2 212.7 164.4 211.85 156.05 210.95 150.5 206.7 144.05 201.75 144.05 193.9 142.3 180.15 157.9 174.35 161.9 172.85 168.75 171.45 173.8 170.45 173.8 169.9 173.8 166.8 172.55 164.15 L170.55 160.8 Q169.7 159.35 170.4 158.35 171.2 157.1 174.75 155.3 M194.9 166.8 L188.45 170.1 Q187.1 162.55 190.4 159.2 191.7 157.8 194.6 156.2 L200.5 153.1 Q200.5 157.9 200.15 160.1 199.75 162.6 198.55 164.1 197.5 165.4 194.9 166.8 M187.9 115.0 L183.4 114.3 Q179.05 114.3 175.95 116.75 173.05 119.0 172.4 122.2 171.75 125.45 173.75 127.65 176.05 130.1 181.05 130.1 181.6 130.1 183.8 128.2 L188.2 124.25 Q194.5 118.9 196.45 120.8 197.5 121.9 195.15 129.2 L191.9 137.9 Q190.75 140.55 185.85 144.55 180.9 148.6 175.5 151.4 169.45 154.5 165.75 154.4 161.45 154.3 161.45 149.6 158.05 141.6 160.7 139.75 162.45 138.55 169.05 139.85 176.95 141.45 179.9 141.15 185.55 140.55 186.7 134.85 L178.35 135.45 Q173.1 136.0 170.25 135.65 161.4 134.6 158.75 124.4 156.35 115.1 162.55 107.05 168.45 99.3 178.1 97.75 187.8 96.2 190.35 100.65 191.45 102.55 191.7 106.3 191.9 108.3 191.9 114.45 191.5 115.45 187.9 115.0 M233.8 108.15 Q227.35 108.95 225.7 115.45 223.5 123.8 230.8 125.7 L237.5 125.95 Q241.05 125.4 244.05 123.9 246.5 122.45 247.5 125.55 248.05 127.25 248.45 130.6 249.85 135.7 248.3 139.1 246.9 142.25 243.3 143.6 239.95 144.85 235.45 144.3 230.95 143.8 226.6 141.6 218.1 137.45 215.7 129.65 213.55 122.6 216.85 115.2 220.1 107.85 226.85 104.1 234.2 99.95 242.6 102.15 253.7 104.8 250.25 108.65 249.15 109.9 246.75 111.0 L244.4 111.8 Q242.25 109.8 239.4 108.8 236.55 107.85 233.8 108.15 M202.85 97.6 Q205.8 96.35 210.3 94.6 L210.3 122.0 210.6 129.5 Q210.8 132.8 210.35 134.05 209.8 135.7 207.7 136.35 L200.85 136.95 Q202.15 127.15 201.2 118.95 200.2 110.4 196.6 101.55 197.3 99.9 202.85 97.6 M198.7 93.9 Q197.35 86.35 200.6 82.95 201.95 81.6 204.85 80.0 L210.75 76.9 Q210.75 81.7 210.4 83.9 210.0 86.4 208.8 87.9 207.75 89.2 205.15 90.65 L198.7 93.9" fill="#000000" fill-opacity="0.5803922" fill-rule="evenodd" stroke="none"/>
    </g>
  </defs>
</svg>
