<?xml version="1.0" encoding="UTF-8" standalone="no"?>
<svg xmlns:xlink="http://www.w3.org/1999/xlink" height="300.0px" width="300.0px" xmlns="http://www.w3.org/2000/svg">
  <g transform="matrix(1.0, 0.0, 0.0, 1.0, 0.0, 0.0)">
    <use height="141.0" transform="matrix(1.0, 0.0, 0.0, 1.0, -2.65, 115.15)" width="307.8" xlink:href="#shape0"/>
  </g>
  <defs>
    <g id="shape0" transform="matrix(1.0, 0.0, 0.0, 1.0, 2.65, -115.15)">
      <path d="M183.95 244.0 Q185.25 243.15 186.95 243.15 188.6 243.15 189.7 243.85 190.8 244.5 191.45 245.55 192.1 246.65 192.35 247.9 L192.55 250.25 183.25 250.25 Q183.25 251.35 183.65 252.3 184.05 253.2 184.9 253.75 185.8 254.35 187.15 254.35 188.4 254.35 189.25 253.75 190.05 253.1 190.35 251.9 L192.35 251.9 Q191.95 254.0 190.55 255.05 189.15 256.15 187.05 256.15 185.1 256.15 183.8 255.3 182.5 254.45 181.85 253.0 181.2 251.55 181.1 249.6 181.15 247.75 181.9 246.3 182.6 244.8 183.95 244.0 M189.9 246.7 L188.65 245.45 Q187.85 244.95 186.8 244.95 185.75 244.95 185.0 245.45 184.2 245.9 183.8 246.7 183.35 247.5 183.25 248.45 L190.4 248.45 Q190.35 247.45 189.9 246.7 M182.75 224.45 L184.8 224.45 184.8 236.85 182.75 236.85 182.75 224.45 M198.5 228.4 L196.4 228.4 Q196.15 227.25 195.4 226.6 194.6 225.95 193.35 225.95 191.9 226.0 191.0 226.65 190.2 227.3 189.8 228.4 189.45 229.55 189.45 230.8 189.45 231.95 189.85 233.0 190.2 234.05 191.0 234.65 191.8 235.3 193.1 235.35 194.55 235.35 195.45 234.55 196.3 233.75 196.5 232.3 L198.6 232.3 Q198.25 234.6 196.85 235.85 195.45 237.1 193.1 237.15 191.2 237.15 189.95 236.3 188.65 235.5 188.0 234.1 187.3 232.65 187.3 230.8 187.3 228.9 187.95 227.4 188.6 225.95 189.9 225.05 191.2 224.15 193.15 224.15 L195.75 224.6 Q196.9 225.05 197.65 226.0 198.35 226.95 198.5 228.4 M168.85 246.4 Q169.5 244.95 170.8 244.05 172.1 243.15 174.05 243.15 175.5 243.15 176.65 243.6 177.8 244.05 178.55 245.0 179.25 245.95 179.4 247.4 L177.3 247.4 Q177.05 246.25 176.3 245.6 175.5 244.95 174.25 244.95 172.8 245.0 171.9 245.65 171.1 246.3 170.7 247.4 170.35 248.55 170.35 249.8 170.35 250.95 170.75 252.0 171.1 253.05 171.9 253.65 172.7 254.3 174.0 254.35 175.45 254.35 176.35 253.55 177.2 252.75 177.4 251.3 L179.5 251.3 Q179.15 253.6 177.75 254.85 176.35 256.1 174.0 256.15 172.1 256.15 170.85 255.3 169.55 254.5 168.9 253.1 168.2 251.65 168.2 249.8 168.2 247.9 168.85 246.4 M170.3 227.7 L169.05 226.45 Q168.25 225.95 167.2 225.95 166.15 225.95 165.4 226.45 164.6 226.9 164.2 227.7 163.75 228.5 163.65 229.45 L170.8 229.45 Q170.75 228.45 170.3 227.7 M172.75 228.9 L172.95 231.25 163.65 231.25 Q163.65 232.35 164.05 233.3 164.45 234.2 165.3 234.75 166.2 235.35 167.55 235.35 168.8 235.35 169.65 234.75 170.45 234.1 170.75 232.9 L172.75 232.9 Q172.35 235.0 170.95 236.05 169.55 237.15 167.45 237.15 165.5 237.15 164.2 236.3 162.9 235.45 162.25 234.0 161.6 232.55 161.5 230.6 161.55 228.75 162.3 227.3 163.0 225.8 164.35 225.0 165.65 224.15 167.35 224.15 169.0 224.15 170.1 224.85 L171.85 226.55 Q172.5 227.65 172.75 228.9 M175.9 220.75 L177.9 220.75 177.9 224.45 180.4 224.45 180.4 226.25 177.9 226.25 177.9 233.95 Q177.9 234.6 178.2 234.85 L179.45 235.05 180.4 235.05 180.4 236.85 178.85 236.85 177.1 236.65 176.2 235.85 Q175.9 235.25 175.9 234.15 L175.9 226.25 173.75 226.25 173.75 224.45 175.9 224.45 175.9 220.75 M184.8 219.7 L184.8 222.2 182.75 222.2 182.75 219.7 184.8 219.7 M228.05 243.45 L229.95 243.45 229.95 245.4 230.0 245.4 Q230.65 244.25 231.7 243.7 232.7 243.15 234.05 243.15 235.65 243.15 236.6 243.75 237.55 244.3 237.95 245.35 238.3 246.35 238.3 247.7 L238.3 255.85 236.25 255.85 236.25 247.45 Q236.25 246.3 235.6 245.65 234.95 244.95 233.75 244.95 232.5 244.95 231.7 245.45 230.9 245.95 230.45 246.85 230.05 247.7 230.05 248.85 L230.05 255.85 228.05 255.85 228.05 243.45 M233.9 224.45 L235.95 224.45 235.95 236.85 233.9 236.85 233.9 224.45 M222.0 245.45 Q221.2 244.95 220.15 244.95 219.1 244.95 218.35 245.45 217.55 245.9 217.15 246.7 216.7 247.5 216.6 248.45 L223.75 248.45 Q223.7 247.45 223.25 246.7 L222.0 245.45 M215.25 246.3 Q215.95 244.8 217.3 244.0 218.6 243.15 220.3 243.15 221.95 243.15 223.05 243.85 L224.8 245.55 Q225.45 246.65 225.7 247.9 L225.9 250.25 216.6 250.25 Q216.6 251.35 217.0 252.3 217.4 253.2 218.25 253.75 219.15 254.35 220.5 254.35 221.75 254.35 222.6 253.75 223.4 253.1 223.7 251.9 L225.7 251.9 Q225.3 254.0 223.9 255.05 222.5 256.15 220.4 256.15 218.45 256.15 217.15 255.3 215.85 254.45 215.2 253.0 214.55 251.55 214.45 249.6 214.5 247.75 215.25 246.3 M204.05 245.25 Q204.7 244.25 205.7 243.7 206.75 243.15 207.95 243.15 209.85 243.15 210.95 244.0 212.05 244.85 212.1 246.75 L212.1 255.85 210.05 255.85 210.05 247.7 209.85 246.3 209.15 245.35 Q208.6 244.95 207.65 244.95 206.15 244.95 205.3 245.8 204.4 246.65 204.4 248.1 L204.4 255.85 202.35 255.85 202.35 247.7 Q202.4 246.5 201.9 245.75 201.4 245.0 200.05 244.95 L198.5 245.3 197.45 246.2 196.9 247.25 196.7 248.1 196.7 255.85 194.7 255.85 194.7 243.45 196.6 243.45 196.6 245.25 196.65 245.25 Q197.35 244.2 198.35 243.7 199.35 243.15 200.65 243.15 201.8 243.15 202.75 243.65 203.65 244.15 204.05 245.25 M215.2 232.55 L215.2 230.45 Q214.6 230.85 213.6 231.0 L211.5 231.3 210.3 231.65 Q209.7 231.85 209.4 232.3 209.05 232.75 209.0 233.5 209.05 234.2 209.35 234.6 L210.25 235.15 211.45 235.35 Q212.75 235.3 213.6 234.85 L214.8 233.75 215.2 232.55 M215.25 228.0 Q215.2 227.15 214.8 226.7 214.4 226.25 213.75 226.1 L212.5 225.95 Q211.15 225.95 210.3 226.45 209.5 226.95 209.4 228.3 L207.35 228.3 Q207.45 226.75 208.15 225.85 208.85 224.95 210.05 224.55 L212.6 224.15 214.8 224.4 Q215.85 224.65 216.55 225.4 217.25 226.15 217.25 227.55 L217.25 233.95 217.35 235.0 217.9 235.35 218.2 235.3 218.5 235.2 218.5 236.8 217.9 237.05 217.05 237.15 Q216.25 237.15 215.8 236.7 215.35 236.2 215.35 235.2 214.5 236.2 213.35 236.65 L210.95 237.15 208.9 236.8 Q208.0 236.45 207.45 235.65 206.9 234.9 206.85 233.65 206.9 232.3 207.5 231.5 208.1 230.75 209.05 230.4 210.0 230.05 211.05 229.85 L213.15 229.5 214.65 229.05 Q215.2 228.75 215.25 228.0 M222.35 226.4 L222.4 226.4 Q223.05 225.25 224.1 224.7 225.1 224.15 226.45 224.15 228.05 224.15 229.0 224.75 229.95 225.3 230.35 226.35 230.7 227.35 230.7 228.7 L230.7 236.85 228.65 236.85 228.65 228.45 Q228.65 227.3 228.0 226.65 227.35 225.95 226.15 225.95 224.9 225.95 224.1 226.45 223.3 226.95 222.85 227.85 222.45 228.7 222.45 229.85 L222.45 236.85 220.45 236.85 220.45 224.45 222.35 224.45 222.35 226.4 M235.95 219.7 L235.95 222.2 233.9 222.2 233.9 219.7 235.95 219.7 M250.95 245.55 Q250.6 245.9 250.55 246.55 250.6 247.25 251.2 247.65 251.8 248.05 252.75 248.25 L254.6 248.7 256.6 249.3 Q257.5 249.65 258.1 250.35 258.65 251.05 258.65 252.25 258.65 253.7 257.85 254.55 257.1 255.4 255.9 255.8 L253.4 256.15 250.85 255.75 Q249.65 255.3 248.95 254.4 248.25 253.45 248.15 251.95 L250.2 251.95 Q250.25 252.85 250.7 253.4 251.2 253.9 251.9 254.15 L253.5 254.35 254.85 254.2 256.05 253.65 Q256.5 253.25 256.5 252.5 256.5 251.7 255.9 251.3 255.35 250.85 254.4 250.65 L252.45 250.2 250.5 249.6 249.0 248.55 Q248.45 247.85 248.4 246.65 248.45 245.45 249.1 244.65 249.85 243.85 250.9 243.5 L253.05 243.15 255.55 243.5 Q256.65 243.85 257.35 244.7 258.05 245.55 258.1 247.05 L256.1 247.05 Q256.0 246.25 255.55 245.8 255.15 245.35 254.5 245.15 L253.2 244.95 251.95 245.1 Q251.35 245.2 250.95 245.55 M246.7 245.25 L244.2 245.25 244.2 252.95 Q244.2 253.6 244.5 253.85 L245.75 254.05 246.7 254.05 246.7 255.85 245.15 255.85 243.4 255.65 Q242.8 255.45 242.5 254.85 242.2 254.25 242.2 253.15 L242.2 245.25 240.05 245.25 240.05 243.45 242.2 243.45 242.2 239.75 244.2 239.75 244.2 243.45 246.7 243.45 246.7 245.25 M262.35 231.65 Q261.75 231.85 261.45 232.3 261.1 232.75 261.05 233.5 261.1 234.2 261.4 234.6 261.75 235.0 262.3 235.15 L263.5 235.35 265.65 234.85 Q266.5 234.4 266.85 233.75 L267.25 232.55 267.25 230.45 Q266.65 230.85 265.65 231.0 L263.55 231.3 262.35 231.65 M255.4 225.0 Q256.5 225.85 256.55 227.75 L256.55 236.85 254.5 236.85 254.5 228.7 254.3 227.3 Q254.1 226.7 253.6 226.35 253.05 225.95 252.1 225.95 250.6 225.95 249.75 226.8 248.85 227.65 248.85 229.1 L248.85 236.85 246.8 236.85 246.8 228.7 Q246.85 227.5 246.35 226.75 245.85 226.0 244.5 225.95 L242.95 226.3 241.9 227.2 241.35 228.25 241.15 229.1 241.15 236.85 239.15 236.85 239.15 224.45 241.05 224.45 241.05 226.25 241.1 226.25 Q241.8 225.2 242.8 224.7 243.8 224.15 245.1 224.15 246.25 224.15 247.2 224.65 248.1 225.15 248.5 226.25 249.15 225.25 250.15 224.7 251.2 224.15 252.4 224.15 254.3 224.15 255.4 225.0 M262.35 226.45 Q261.55 226.95 261.45 228.3 L259.4 228.3 Q259.5 226.75 260.2 225.85 260.9 224.95 262.1 224.55 L264.65 224.15 266.85 224.4 Q267.9 224.65 268.6 225.4 269.3 226.15 269.3 227.55 L269.3 233.95 269.4 235.0 Q269.5 235.35 269.95 235.35 L270.25 235.3 270.55 235.2 270.55 236.8 269.95 237.05 269.1 237.15 Q268.3 237.15 267.85 236.7 267.4 236.2 267.4 235.2 266.55 236.2 265.4 236.65 L263.0 237.15 260.95 236.8 Q260.05 236.45 259.5 235.65 258.95 234.9 258.9 233.65 258.95 232.3 259.55 231.5 260.15 230.75 261.1 230.4 L263.1 229.85 265.2 229.5 266.7 229.05 Q267.25 228.75 267.3 228.0 267.25 227.15 266.85 226.7 266.45 226.25 265.8 226.1 L264.55 225.95 Q263.2 225.95 262.35 226.45 M272.6 219.7 L274.65 219.7 274.65 236.85 272.6 236.85 272.6 219.7 M150.3 251.55 L150.3 249.45 148.7 250.0 146.6 250.3 145.4 250.65 Q144.8 250.85 144.5 251.3 144.15 251.75 144.1 252.5 144.15 253.2 144.45 253.6 L145.35 254.15 146.55 254.35 148.7 253.85 149.9 252.75 Q150.3 252.1 150.3 251.55 M106.25 245.45 Q105.45 245.9 105.05 246.7 104.6 247.5 104.5 248.45 L111.65 248.45 Q111.6 247.45 111.15 246.7 L109.9 245.45 Q109.1 244.95 108.05 244.95 107.0 244.95 106.25 245.45 M108.2 243.15 Q109.85 243.15 110.95 243.85 L112.7 245.55 Q113.35 246.65 113.6 247.9 L113.8 250.25 104.5 250.25 Q104.5 251.35 104.9 252.3 105.3 253.2 106.15 253.75 107.05 254.35 108.4 254.35 109.65 254.35 110.5 253.75 111.3 253.1 111.6 251.9 L113.6 251.9 Q113.2 254.0 111.8 255.05 110.4 256.15 108.3 256.15 106.35 256.15 105.05 255.3 103.75 254.45 103.1 253.0 102.45 251.55 102.35 249.6 102.4 247.75 103.15 246.3 103.85 244.8 105.2 244.0 106.5 243.15 108.2 243.15 M113.55 228.4 L111.45 228.4 Q111.2 227.25 110.45 226.6 109.65 225.95 108.4 225.95 106.95 226.0 106.05 226.65 105.25 227.3 104.85 228.4 104.5 229.55 104.5 230.8 104.5 231.95 104.9 233.0 105.25 234.05 106.05 234.65 106.85 235.3 108.15 235.35 109.6 235.35 110.5 234.55 111.35 233.75 111.55 232.3 L113.65 232.3 Q113.3 234.6 111.9 235.85 110.5 237.1 108.15 237.15 106.25 237.15 105.0 236.3 103.7 235.5 103.05 234.1 102.35 232.65 102.35 230.8 102.35 228.9 103.0 227.4 103.65 225.95 104.95 225.05 106.25 224.15 108.2 224.15 L110.8 224.6 Q111.95 225.05 112.7 226.0 113.4 226.95 113.55 228.4 M159.2 245.45 Q158.4 245.95 157.95 246.85 157.55 247.7 157.55 248.85 L157.55 255.85 155.55 255.85 155.55 243.45 157.45 243.45 157.45 245.4 157.5 245.4 Q158.15 244.25 159.2 243.7 160.2 243.15 161.55 243.15 163.15 243.15 164.1 243.75 165.05 244.3 165.45 245.35 165.8 246.35 165.8 247.7 L165.8 255.85 163.75 255.85 163.75 247.45 Q163.75 246.3 163.1 245.65 162.45 244.95 161.25 244.95 160.0 244.95 159.2 245.45 M143.25 244.85 Q143.95 243.95 145.15 243.55 L147.7 243.15 149.9 243.4 Q150.95 243.65 151.65 244.4 152.35 245.15 152.35 246.55 L152.35 252.95 152.45 254.0 Q152.55 254.35 153.0 254.35 L153.3 254.3 153.6 254.2 153.6 255.8 153.0 256.05 152.15 256.15 Q151.35 256.15 150.9 255.7 150.45 255.2 150.45 254.2 L148.45 255.65 146.05 256.15 144.0 255.8 Q143.1 255.45 142.55 254.65 142.0 253.9 141.95 252.65 142.0 251.3 142.6 250.5 143.2 249.75 144.15 249.4 145.1 249.05 146.15 248.85 L148.25 248.5 149.75 248.05 Q150.3 247.75 150.35 247.0 150.3 246.15 149.9 245.7 149.5 245.25 148.85 245.1 L147.6 244.95 Q146.25 244.95 145.4 245.45 144.6 245.95 144.5 247.3 L142.45 247.3 Q142.55 245.75 143.25 244.85 M154.7 225.95 Q153.2 225.95 152.35 226.8 151.45 227.65 151.45 229.1 L151.45 236.85 149.4 236.85 149.4 228.7 Q149.45 227.5 148.95 226.75 148.45 226.0 147.1 225.95 146.2 225.95 145.55 226.3 L144.5 227.2 143.95 228.25 143.75 229.1 143.75 236.85 141.75 236.85 141.75 224.45 143.65 224.45 143.65 226.25 143.7 226.25 Q144.4 225.2 145.4 224.7 146.4 224.15 147.7 224.15 148.85 224.15 149.8 224.65 150.7 225.15 151.1 226.25 151.75 225.25 152.75 224.7 153.8 224.15 155.0 224.15 156.9 224.15 158.0 225.0 159.1 225.85 159.15 227.75 L159.15 236.85 157.1 236.85 157.1 228.7 156.9 227.3 156.2 226.35 Q155.65 225.95 154.7 225.95 M131.3 245.25 L131.35 245.25 Q131.7 244.5 132.35 244.05 L133.75 243.35 135.3 243.15 Q136.9 243.15 137.85 243.75 138.8 244.3 139.2 245.35 139.55 246.35 139.55 247.7 L139.55 255.85 137.5 255.85 137.5 247.45 Q137.5 246.3 136.85 245.65 136.2 244.95 135.0 244.95 133.75 244.95 132.95 245.45 132.15 245.95 131.7 246.85 131.3 247.7 131.3 248.85 L131.3 255.85 129.3 255.85 129.3 238.7 131.3 238.7 131.3 245.25 M123.5 245.65 Q122.85 244.95 121.65 244.95 120.4 244.95 119.6 245.45 118.8 245.95 118.35 246.85 117.95 247.7 117.95 248.85 L117.95 255.85 115.95 255.85 115.95 243.45 117.85 243.45 117.85 245.4 117.9 245.4 Q118.55 244.25 119.6 243.7 120.6 243.15 121.95 243.15 123.55 243.15 124.5 243.75 125.45 244.3 125.85 245.35 126.2 246.35 126.2 247.7 L126.2 255.85 124.15 255.85 124.15 247.45 Q124.15 246.3 123.5 245.65 M127.3 230.65 Q127.3 232.5 126.6 233.95 125.95 235.4 124.6 236.25 123.25 237.1 121.3 237.15 119.3 237.1 117.95 236.25 116.65 235.4 115.95 233.95 115.25 232.5 115.25 230.65 115.25 228.8 115.95 227.35 116.65 225.9 117.95 225.05 119.3 224.15 121.3 224.15 123.25 224.15 124.6 225.05 125.95 225.9 126.6 227.35 127.3 228.8 127.3 230.65 M124.65 228.1 Q124.1 227.05 123.25 226.5 122.35 225.95 121.3 225.95 120.2 225.95 119.35 226.5 118.45 227.05 117.95 228.1 117.45 229.15 117.4 230.65 117.45 232.15 117.95 233.2 118.45 234.25 119.35 234.8 120.2 235.35 121.3 235.35 122.35 235.35 123.25 234.8 124.1 234.25 124.65 233.2 125.15 232.15 125.15 230.65 125.15 229.15 124.65 228.1 M138.15 225.7 Q138.85 226.55 138.9 228.05 L136.9 228.05 Q136.8 227.25 136.35 226.8 135.95 226.35 135.3 226.15 L134.0 225.95 132.75 226.1 Q132.15 226.2 131.75 226.55 131.4 226.9 131.35 227.55 131.4 228.25 132.0 228.65 132.6 229.05 133.55 229.25 L135.4 229.7 137.4 230.3 Q138.3 230.65 138.9 231.35 139.45 232.05 139.45 233.25 139.45 234.7 138.65 235.55 137.9 236.4 136.7 236.8 L134.2 237.15 131.65 236.75 Q130.45 236.3 129.75 235.4 129.05 234.45 128.95 232.95 L131.0 232.95 Q131.05 233.85 131.5 234.4 L132.7 235.15 134.3 235.35 135.65 235.2 136.85 234.65 Q137.3 234.25 137.3 233.5 137.3 232.7 136.7 232.3 136.15 231.85 135.2 231.65 L133.25 231.2 131.3 230.6 Q130.4 230.25 129.8 229.55 129.25 228.85 129.2 227.65 129.25 226.45 129.9 225.65 130.65 224.85 131.7 224.5 L133.85 224.15 136.35 224.5 Q137.45 224.85 138.15 225.7" fill="#000000" fill-rule="evenodd" stroke="none"/>
      <path d="M103.4 116.25 L89.55 116.25 89.55 115.15 118.35 115.15 118.35 116.25 104.5 116.25 104.5 153.7 103.4 153.7 103.4 116.25" fill="#000000" fill-rule="evenodd" stroke="none"/>
      <path d="M140.35 135.45 Q140.35 130.95 137.7 128.5 135.35 126.4 131.55 126.4 126.8 126.4 124.05 129.95 121.45 133.1 121.45 137.95 L121.45 153.7 120.4 153.7 120.4 115.15 121.45 115.15 121.45 132.8 121.6 132.8 Q122.4 129.45 124.9 127.45 127.6 125.3 131.55 125.3 136.0 125.3 138.7 127.9 141.45 130.55 141.45 135.25 L141.45 153.7 140.35 153.7 140.35 135.45" fill="#000000" fill-rule="evenodd" stroke="none"/>
      <path d="M170.0 140.0 L146.85 140.0 Q146.95 146.05 149.45 149.45 152.2 153.25 157.8 153.25 162.15 153.25 165.05 150.9 167.95 148.5 168.6 144.05 L169.7 144.05 Q169.15 148.8 165.9 151.55 162.7 154.3 157.9 154.3 151.8 154.4 148.6 150.2 145.75 146.45 145.75 139.85 145.75 133.2 149.5 129.1 152.95 125.3 157.9 125.3 164.05 125.3 167.3 129.8 170.3 133.9 170.0 140.0 M166.2 130.15 Q163.2 126.4 158.0 126.4 153.4 126.4 150.3 129.8 147.1 133.25 146.85 138.95 L168.95 138.95 Q169.0 133.6 166.2 130.15" fill="#000000" fill-rule="evenodd" stroke="none"/>
      <path d="M131.0 169.45 Q131.0 172.95 128.75 175.45 126.4 178.0 122.85 178.25 L122.85 178.3 Q126.8 178.45 129.45 180.95 132.2 183.6 132.2 187.85 132.2 192.9 128.6 195.75 125.25 198.35 119.5 198.35 L103.65 198.35 103.65 159.85 120.15 159.85 Q124.9 159.85 127.85 162.25 131.0 164.8 131.0 169.45 M104.7 160.9 L104.7 177.7 120.15 177.7 Q124.25 177.7 126.95 175.6 129.95 173.3 129.95 169.45 129.95 165.25 127.15 163.0 124.5 160.9 120.15 160.9 L104.7 160.9 M131.15 187.95 Q131.15 183.25 127.7 180.85 124.8 178.85 120.15 178.85 L104.7 178.85 104.7 197.25 120.0 197.25 Q124.9 197.25 127.9 194.95 131.15 192.5 131.15 187.95" fill="#000000" fill-rule="evenodd" stroke="none"/>
      <path d="M149.1 171.05 Q143.75 170.8 140.7 174.45 138.05 177.65 138.05 182.65 L138.05 198.35 137.0 198.35 137.0 170.65 138.05 170.65 138.05 177.5 138.15 177.5 Q139.05 174.1 141.5 172.1 144.45 169.8 149.1 170.0 L149.1 171.05" fill="#000000" fill-rule="evenodd" stroke="none"/>
      <path d="M173.65 184.7 L150.45 184.7 Q150.55 190.75 153.0 194.1 155.85 197.9 161.4 197.9 165.75 197.9 168.6 195.55 171.55 193.15 172.25 188.75 L173.3 188.75 Q172.7 193.5 169.5 196.25 166.25 199.0 161.5 199.0 155.35 199.05 152.2 194.9 149.35 191.1 149.35 184.45 149.35 177.85 153.05 173.8 156.55 170.0 161.5 170.0 167.6 170.0 170.95 174.5 173.9 178.55 173.65 184.7 M169.8 174.8 Q166.8 171.05 161.65 171.05 157.0 171.05 153.95 174.45 150.7 177.9 150.45 183.65 L172.55 183.65 Q172.6 178.3 169.8 174.8" fill="#000000" fill-rule="evenodd" stroke="none"/>
      <path d="M195.3 173.6 Q193.4 171.05 188.5 171.05 184.15 171.05 181.7 173.2 179.3 175.3 179.0 179.2 L177.9 179.2 Q178.1 175.1 180.75 172.6 183.55 170.0 188.5 170.0 197.4 170.0 197.65 177.9 L197.65 195.55 Q197.65 196.95 198.8 197.25 199.5 197.45 201.15 197.25 L201.15 198.35 198.1 198.2 Q196.6 197.6 196.6 195.65 L196.6 192.05 196.45 192.05 Q195.65 194.9 192.7 196.85 189.55 199.0 185.45 199.0 181.2 199.0 178.75 197.15 176.2 195.15 176.2 191.5 176.2 186.85 179.2 184.9 181.35 183.55 185.75 183.2 L194.0 182.35 Q196.6 181.6 196.6 178.7 196.6 175.4 195.3 173.6 M196.6 182.05 L196.45 182.05 Q195.55 183.4 192.25 183.8 L185.75 184.3 Q181.75 184.6 179.8 185.8 177.25 187.45 177.25 191.5 177.25 194.2 179.0 195.9 181.15 197.9 185.3 197.9 190.55 197.9 193.7 194.55 196.6 191.5 196.6 187.15 L196.6 182.05" fill="#000000" fill-rule="evenodd" stroke="none"/>
      <path d="M213.0 170.0 Q223.05 170.0 223.05 178.85 L222.0 178.85 Q222.0 171.05 213.0 171.05 208.1 171.05 205.95 173.6 204.75 175.15 204.75 176.95 204.75 180.55 207.8 181.75 L214.95 183.8 Q219.4 185.0 221.0 186.0 223.8 187.75 223.8 191.25 223.8 195.15 220.55 197.25 217.85 199.0 213.75 199.0 202.55 199.0 202.55 188.85 L203.6 188.85 Q203.6 197.9 213.75 197.9 217.3 197.9 219.75 196.45 222.75 194.65 222.75 191.4 222.75 188.15 219.75 186.6 218.35 185.8 213.2 184.55 208.7 183.45 206.95 182.65 203.6 181.2 203.6 176.95 203.6 174.25 205.75 172.35 208.3 170.0 213.0 170.0" fill="#000000" fill-rule="evenodd" stroke="none"/>
      <path d="M238.1 171.7 L231.85 171.7 231.85 192.95 Q231.85 195.75 233.05 196.65 233.8 197.25 235.6 197.25 L237.95 197.15 237.95 198.2 235.3 198.35 Q230.75 198.35 230.75 193.15 L230.75 171.7 225.65 171.7 225.65 170.65 230.75 170.65 230.75 161.9 231.85 161.9 231.85 170.65 238.1 170.65 238.1 171.7" fill="#000000" fill-rule="evenodd" stroke="none"/>
      <path d="M239.05 159.85 L253.6 196.95 253.7 196.95 267.85 159.85 268.95 159.85 254.25 198.35 253.05 198.35 237.95 159.85 239.05 159.85" fill="#000000" fill-rule="evenodd" stroke="none"/>
      <path d="M291.6 184.7 L268.35 184.7 Q268.5 190.75 270.95 194.1 273.75 197.9 279.35 197.9 283.75 197.9 286.55 195.55 289.5 193.15 290.2 188.75 L291.25 188.75 Q290.65 193.5 287.4 196.25 284.25 199.0 279.45 199.0 273.35 199.05 270.2 194.9 267.3 191.1 267.3 184.45 267.3 177.85 271.0 173.8 274.45 170.0 279.45 170.0 285.55 170.0 288.9 174.5 291.8 178.55 291.6 184.7 M287.7 174.8 Q284.75 171.05 279.55 171.05 275.0 171.05 271.9 174.45 268.65 177.9 268.35 183.65 L290.45 183.65 Q290.55 178.3 287.7 174.8" fill="#000000" fill-rule="evenodd" stroke="none"/>
      <path d="M292.65 170.65 L297.8 170.65 297.8 161.9 298.85 161.9 298.85 170.65 305.15 170.65 305.15 171.7 298.85 171.7 298.85 192.95 Q298.85 195.75 300.1 196.65 300.85 197.25 302.6 197.25 L304.95 197.15 304.95 198.2 302.3 198.35 Q297.8 198.35 297.8 193.15 L297.8 171.7 292.65 171.7 292.65 170.65" fill="#000000" fill-rule="evenodd" stroke="none"/>
      <path d="M40.25 117.7 Q40.25 126.1 34.3 132.0 28.45 137.95 20.05 137.95 11.7 137.95 5.75 132.0 -0.15 126.1 -0.15 117.7" fill="none" stroke="#ffa600" stroke-linecap="butt" stroke-linejoin="miter-clip" stroke-miterlimit="4.0" stroke-width="5.0"/>
      <path d="M80.65 117.7 Q80.65 126.1 74.7 132.0 68.85 137.95 60.45 137.95 52.1 137.95 46.2 132.0 40.3 126.1 40.3 117.7" fill="none" stroke="#ffa600" stroke-linecap="butt" stroke-linejoin="miter-clip" stroke-miterlimit="4.0" stroke-width="5.0"/>
      <path d="M40.25 146.8 Q40.25 155.2 34.3 161.05 28.45 167.0 20.05 167.0 11.7 167.0 5.75 161.05 -0.15 155.2 -0.15 146.8" fill="none" stroke="#ffa600" stroke-linecap="butt" stroke-linejoin="miter-clip" stroke-miterlimit="4.0" stroke-width="5.0"/>
      <path d="M80.65 146.8 Q80.65 155.2 74.7 161.05 68.85 167.0 60.45 167.0 52.15 167.0 46.2 161.05 40.3 155.2 40.3 146.8" fill="none" stroke="#ffa600" stroke-linecap="butt" stroke-linejoin="miter-clip" stroke-miterlimit="4.0" stroke-width="5.0"/>
      <path d="M40.25 176.5 Q40.25 184.9 34.3 190.8 28.45 196.7 20.05 196.7 11.7 196.7 5.75 190.8 -0.15 184.9 -0.15 176.5" fill="none" stroke="#ffa600" stroke-linecap="butt" stroke-linejoin="miter-clip" stroke-miterlimit="4.0" stroke-width="5.0"/>
      <path d="M80.65 176.5 Q80.65 184.9 74.7 190.8 68.85 196.7 60.45 196.7 52.1 196.7 46.2 190.8 40.3 184.9 40.3 176.5" fill="none" stroke="#ffa600" stroke-linecap="butt" stroke-linejoin="miter-clip" stroke-miterlimit="4.0" stroke-width="5.0"/>
    </g>
  </defs>
</svg>
