<?xml version="1.0" encoding="UTF-8" standalone="no"?>
<svg xmlns:xlink="http://www.w3.org/1999/xlink" height="300.0px" width="300.0px" xmlns="http://www.w3.org/2000/svg">
  <g transform="matrix(1.0, 0.0, 0.0, 1.0, 0.0, 0.0)">
    <use height="196.7" transform="matrix(1.0, 0.0, 0.0, 1.0, 9.3, 51.35)" width="282.2" xlink:href="#shape0"/>
  </g>
  <defs>
    <g id="shape0" transform="matrix(1.0, 0.0, 0.0, 1.0, -9.3, -51.35)">
      <path d="M27.5 236.75 L27.45 238.55 26.45 240.45 27.45 242.2 27.5 242.8 27.5 243.85 Q27.5 245.95 25.5 246.95 24.05 247.75 21.65 247.75 L10.25 247.75 Q9.3 247.75 9.3 246.8 L9.3 234.0 Q9.3 233.1 10.25 233.1 L24.25 233.3 Q25.5 233.55 26.5 234.5 27.5 235.5 27.5 236.75 M24.85 236.75 Q24.7 235.2 21.35 235.2 L12.05 235.2 12.05 239.35 21.5 239.35 Q24.9 239.35 24.9 238.05 L24.85 236.75 M24.85 243.1 Q24.85 241.6 21.5 241.6 L12.0 241.6 12.0 245.55 21.35 245.55 Q24.55 245.55 24.85 244.1 L24.85 243.1" fill="#000000" fill-rule="evenodd" stroke="none"/>
      <path d="M41.15 233.7 L50.15 246.4 50.15 246.75 Q50.15 247.35 49.8 247.65 49.4 248.05 48.85 248.05 48.1 248.05 47.6 247.35 L45.25 243.85 33.95 243.85 31.6 247.35 Q31.25 247.85 30.75 247.85 L29.85 247.6 Q29.4 247.25 29.4 246.85 L29.5 246.6 37.95 233.7 Q38.5 232.9 39.75 232.9 40.65 232.9 40.95 233.4 L41.05 233.55 41.15 233.7 M39.65 235.7 L35.5 241.65 43.65 241.65 39.65 235.7" fill="#000000" fill-rule="evenodd" stroke="none"/>
      <path d="M70.25 246.2 Q70.25 247.85 68.8 247.85 68.2 247.85 67.25 247.15 L54.75 236.5 54.75 246.8 Q54.75 247.45 54.2 247.65 L53.75 247.75 53.0 247.75 Q52.05 247.75 52.05 246.8 L52.05 234.55 Q52.05 232.95 53.45 232.95 54.35 232.95 55.2 233.75 L67.6 244.25 67.6 234.0 Q67.6 233.3 68.2 233.15 L68.6 233.1 69.35 233.1 Q70.25 233.1 70.25 234.0 L70.25 246.2" fill="#000000" fill-rule="evenodd" stroke="none"/>
      <path d="M83.9 233.7 L92.9 246.4 92.95 246.75 Q92.95 247.25 92.55 247.65 92.15 248.05 91.6 248.05 90.85 248.05 90.35 247.35 L88.0 243.85 76.7 243.85 74.35 247.35 73.5 247.85 72.6 247.6 Q72.15 247.25 72.15 246.85 L72.25 246.6 80.7 233.7 Q81.25 232.9 82.5 232.9 83.4 232.9 83.8 233.4 L83.8 233.55 83.9 233.7 M86.4 241.65 L82.4 235.7 78.25 241.65 86.4 241.65" fill="#000000" fill-rule="evenodd" stroke="none"/>
      <path d="M97.95 233.75 L110.35 244.25 110.35 234.0 Q110.35 233.3 110.95 233.15 L111.35 233.1 112.1 233.1 Q113.0 233.1 113.0 234.0 L113.0 246.2 Q113.0 247.85 111.55 247.85 110.95 247.85 110.0 247.15 L97.5 236.5 97.5 246.8 Q97.5 247.45 96.95 247.65 L96.5 247.75 95.75 247.75 Q94.8 247.75 94.8 246.8 L94.8 234.55 Q94.8 232.95 96.25 232.95 97.1 232.95 97.95 233.75" fill="#000000" fill-rule="evenodd" stroke="none"/>
      <path d="M135.7 246.75 Q135.7 247.25 135.3 247.65 134.9 248.05 134.35 248.05 133.65 248.05 133.1 247.35 L130.75 243.85 119.45 243.85 117.1 247.35 Q116.75 247.85 116.25 247.85 L115.35 247.6 Q114.95 247.35 114.95 246.85 L115.05 246.6 123.45 233.7 Q124.0 232.9 125.25 232.9 126.15 232.9 126.55 233.4 L126.55 233.55 126.65 233.7 135.65 246.4 135.7 246.75 M129.15 241.65 L125.15 235.7 121.05 241.65 129.15 241.65" fill="#000000" fill-rule="evenodd" stroke="none"/>
      <path d="M143.6 233.1 L158.1 233.1 Q159.05 233.1 159.05 234.3 159.05 235.2 158.1 235.2 L152.15 235.2 152.15 246.8 Q152.15 247.75 151.2 247.75 L150.1 247.65 Q149.5 247.45 149.5 246.8 L149.5 235.2 143.6 235.2 Q142.65 235.2 142.65 234.3 L142.8 233.4 Q143.0 233.1 143.6 233.1" fill="#000000" fill-rule="evenodd" stroke="none"/>
      <path d="M177.65 243.8 Q177.65 247.75 170.8 247.75 L166.7 247.75 Q163.85 247.75 162.35 247.05 159.85 246.05 159.85 243.8 L159.85 237.05 Q159.85 233.1 166.7 233.1 L170.8 233.1 175.3 233.6 Q177.65 234.55 177.65 237.05 L177.65 243.8 M174.95 237.1 Q174.95 235.2 170.9 235.2 L166.7 235.2 Q162.55 235.2 162.55 237.1 L162.55 243.7 Q162.55 245.55 166.7 245.55 L170.9 245.55 Q174.95 245.55 174.95 243.7 L174.95 237.1" fill="#000000" fill-rule="evenodd" stroke="none"/>
      <path d="M190.3 233.7 L199.25 246.4 199.35 246.75 198.9 247.65 Q198.5 248.05 198.0 248.05 197.25 248.05 196.7 247.35 L194.4 243.85 183.05 243.85 180.75 247.35 Q180.4 247.85 179.85 247.85 L179.0 247.6 Q178.6 247.35 178.6 246.85 L178.65 246.6 187.1 233.7 Q187.6 232.9 188.9 232.9 189.85 232.9 190.15 233.4 L190.15 233.55 190.3 233.7 M192.75 241.65 L188.75 235.7 184.65 241.65 192.75 241.65" fill="#000000" fill-rule="evenodd" stroke="none"/>
      <path d="M235.05 234.3 Q235.05 235.2 234.1 235.2 L228.15 235.2 228.15 246.8 Q228.15 247.75 227.25 247.75 L226.1 247.65 Q225.5 247.45 225.5 246.8 L225.5 235.2 219.6 235.2 Q218.65 235.2 218.65 234.3 L218.8 233.4 Q219.0 233.1 219.6 233.1 L234.1 233.1 Q235.05 233.1 235.05 234.3" fill="#000000" fill-rule="evenodd" stroke="none"/>
      <path d="M239.0 236.85 L239.0 239.35 252.0 239.35 Q252.9 239.35 252.9 240.4 252.9 241.6 251.9 241.6 L239.05 241.6 239.05 244.0 Q239.05 245.55 242.5 245.55 L251.9 245.55 Q252.9 245.55 252.9 246.45 252.9 247.75 251.9 247.75 L242.35 247.75 Q240.35 247.75 238.55 247.0 236.4 246.0 236.4 244.05 L236.4 236.85 Q236.4 235.75 237.05 234.9 238.65 233.1 242.6 233.1 L251.9 233.1 Q252.85 233.1 252.85 234.3 252.85 235.2 251.9 235.2 L243.4 235.2 Q239.0 235.2 239.0 236.85" fill="#000000" fill-rule="evenodd" stroke="none"/>
      <path d="M255.8 233.1 L266.55 233.1 Q269.05 233.1 270.65 233.7 273.0 234.7 273.0 236.75 L273.0 238.55 Q273.0 240.5 270.9 241.45 L267.05 242.1 262.6 242.1 271.6 245.95 Q272.3 246.25 272.3 246.85 272.3 247.75 270.7 247.75 L269.7 247.65 257.55 242.45 257.55 246.8 Q257.55 247.75 256.6 247.75 L255.4 247.65 Q254.85 247.45 254.85 246.8 L254.85 234.0 Q254.85 233.1 255.8 233.1 M257.55 239.95 L267.05 239.95 Q270.3 239.95 270.3 238.55 L270.3 236.7 Q270.3 235.2 266.55 235.2 L257.55 235.2 257.55 239.95" fill="#000000" fill-rule="evenodd" stroke="none"/>
      <path d="M290.4 234.3 Q290.4 235.1 289.85 235.15 L281.9 235.2 Q277.55 235.2 277.55 236.75 L277.55 237.75 Q277.55 238.75 279.15 239.05 L280.1 239.1 281.55 239.15 285.1 239.15 Q287.75 239.15 289.2 239.85 291.5 240.8 291.5 242.8 L291.5 244.1 Q291.5 245.35 291.1 245.95 290.1 247.75 285.1 247.75 L275.8 247.75 Q274.85 247.75 274.85 246.8 L275.05 245.85 Q275.25 245.55 275.8 245.55 L285.1 245.55 Q288.85 245.55 288.85 244.1 L288.85 242.9 Q288.85 241.6 285.25 241.45 L278.45 241.1 Q277.05 241.05 276.0 240.2 274.85 239.45 274.85 237.9 L274.85 236.85 Q274.85 234.2 277.65 233.4 L281.9 233.1 289.45 233.1 Q290.4 233.1 290.4 234.3" fill="#000000" fill-rule="evenodd" stroke="none"/>
      <path d="M217.6 244.1 Q217.6 245.35 217.2 245.95 216.2 247.75 211.15 247.75 L201.85 247.75 Q200.95 247.75 200.95 246.8 L201.15 245.85 Q201.35 245.55 201.85 245.55 L211.15 245.55 Q214.9 245.55 214.9 244.1 L214.9 242.9 Q214.9 241.6 211.3 241.45 L204.55 241.1 Q203.15 241.05 202.05 240.2 200.95 239.35 200.95 237.9 L200.95 236.85 Q200.95 234.2 203.75 233.4 L207.95 233.1 215.6 233.1 Q216.5 233.1 216.5 234.3 216.5 235.1 215.9 235.15 L208.0 235.2 Q203.6 235.2 203.6 236.75 L203.6 237.75 Q203.6 238.75 205.2 239.05 L206.15 239.1 207.6 239.15 211.15 239.15 Q213.85 239.15 215.25 239.85 217.6 240.8 217.6 242.8 L217.6 244.1" fill="#000000" fill-rule="evenodd" stroke="none"/>
      <path d="M39.35 190.15 Q39.35 197.2 30.4 197.75 39.35 198.6 39.35 204.3 L39.35 212.9 Q39.35 224.5 24.55 224.5 L9.5 224.5 9.5 173.6 24.55 173.6 Q39.35 173.6 39.35 183.1 L39.35 190.15 M28.25 185.65 Q28.25 179.6 24.55 179.6 21.1 179.6 21.1 182.5 L21.1 195.2 21.45 195.2 Q28.2 195.2 28.2 190.8 L28.25 185.65 M21.1 200.65 L21.1 215.85 Q21.1 218.95 24.4 218.95 27.7 218.95 27.7 215.85 L27.7 204.7 Q27.7 202.15 25.95 201.25 24.9 200.65 21.95 200.65 L21.1 200.65" fill="#231f20" fill-rule="evenodd" stroke="none"/>
      <path d="M191.0 183.1 L191.0 223.65 179.35 223.65 179.35 182.95 Q179.35 179.85 176.05 179.85 172.65 179.85 172.65 182.95 L172.65 223.65 161.0 223.65 161.0 173.6 176.05 173.6 Q181.5 173.6 185.65 175.6 191.0 178.2 191.0 183.1" fill="#231f20" fill-rule="evenodd" stroke="none"/>
      <path d="M157.35 173.6 L157.35 215.1 Q157.35 220.0 152.0 222.6 148.4 224.3 144.05 224.55 L144.0 224.6 122.3 224.6 122.25 224.55 Q117.95 224.3 114.3 222.6 108.95 220.0 108.95 215.1 L108.95 173.6 120.6 173.6 120.6 215.25 120.65 216.0 Q121.05 218.35 124.0 218.35 126.9 218.35 127.25 216.0 L127.35 215.25 127.35 173.6 139.0 173.6 139.0 215.25 139.05 216.0 Q139.4 218.35 142.35 218.35 145.3 218.35 145.65 216.0 L145.7 215.25 145.7 173.6 157.35 173.6" fill="#231f20" fill-rule="evenodd" stroke="none"/>
      <path d="M258.0 223.65 L246.4 223.65 246.4 182.95 Q246.4 179.85 243.0 179.85 239.65 179.85 239.65 182.95 L239.65 223.65 228.0 223.65 228.0 173.6 243.05 173.6 Q248.45 173.6 252.7 175.6 258.0 178.2 258.0 183.1 L258.0 223.65" fill="#231f20" fill-rule="evenodd" stroke="none"/>
      <path d="M224.55 182.65 L224.55 223.5 212.9 223.5 212.9 204.4 206.15 204.4 206.15 223.5 194.55 223.5 194.55 182.65 Q194.55 177.7 199.85 175.1 204.05 173.1 209.55 173.1 214.95 173.1 219.2 175.1 224.55 177.7 224.55 182.65 M212.9 182.95 Q212.9 179.85 209.5 179.85 206.15 179.85 206.15 182.95 L206.15 198.15 212.9 198.15 212.9 182.95" fill="#231f20" fill-rule="evenodd" stroke="none"/>
      <path d="M90.4 179.35 Q87.05 179.35 87.05 182.45 L87.05 215.25 Q87.05 218.35 90.4 218.35 93.8 218.35 93.8 215.25 L93.8 182.45 Q93.8 179.35 90.4 179.35 M100.1 175.1 Q105.45 177.7 105.45 182.65 L105.45 215.1 Q105.45 220.0 100.1 222.6 95.9 224.6 90.4 224.6 84.95 224.6 80.75 222.6 75.4 220.0 75.4 215.1 L75.4 182.65 Q75.4 177.7 80.75 175.1 84.95 173.1 90.45 173.1 95.9 173.1 100.1 175.1" fill="#231f20" fill-rule="evenodd" stroke="none"/>
      <path d="M291.5 182.65 L291.5 223.5 279.85 223.5 279.85 204.4 273.15 204.4 273.15 223.5 261.5 223.5 261.5 182.65 Q261.5 177.7 266.8 175.1 271.0 173.1 276.5 173.1 282.0 173.1 286.15 175.1 291.5 177.7 291.5 182.65 M279.85 182.95 Q279.85 179.85 276.5 179.85 273.15 179.85 273.15 182.95 L273.15 198.15 279.85 198.15 279.85 182.95" fill="#231f20" fill-rule="evenodd" stroke="none"/>
      <path d="M61.05 190.8 L61.15 185.65 Q61.15 179.6 57.4 179.6 54.0 179.6 54.0 182.5 L54.0 195.2 54.3 195.2 Q61.05 195.2 61.05 190.8 M72.2 190.15 Q72.2 197.2 63.35 197.75 72.2 198.6 72.2 204.3 L72.2 223.85 60.55 223.85 60.55 204.7 Q60.55 202.15 58.8 201.25 57.75 200.65 54.8 200.65 L54.0 200.65 54.0 223.95 42.35 224.0 42.35 173.6 57.45 173.6 Q72.2 173.6 72.2 183.1 L72.2 190.15" fill="#231f20" fill-rule="evenodd" stroke="none"/>
      <path d="M208.15 83.5 Q208.5 84.85 208.4 90.45 208.6 92.2 206.65 96.65 204.9 100.65 205.8 103.85 206.7 107.05 208.7 112.65 210.05 117.5 209.4 121.6 207.25 134.8 197.0 144.05 187.75 152.5 173.9 155.9 153.1 161.0 133.75 157.05 111.4 152.55 99.8 137.15 93.9 129.25 91.6 120.0 90.85 116.85 92.4 114.6 L96.7 110.05 Q102.3 112.0 114.0 117.15 125.35 122.05 131.4 124.1 151.75 131.0 167.85 125.45 177.35 122.15 186.5 113.45 197.15 103.45 196.4 94.7 196.25 93.0 197.15 90.25 198.25 86.8 198.4 85.1 198.55 84.0 200.3 84.2 202.25 84.35 202.55 83.9 203.0 83.15 203.3 81.5 L203.8 78.85 Q207.8 81.65 208.15 83.5" fill="#231f20" fill-rule="evenodd" stroke="none"/>
      <path d="M165.35 53.6 Q162.95 57.8 163.3 63.45 163.55 67.35 165.35 72.3 166.4 75.05 168.55 79.6 L171.55 86.45 Q173.25 90.95 173.55 94.6 173.55 102.15 169.85 107.35 L166.1 111.0" fill="none" stroke="#231f20" stroke-linecap="round" stroke-linejoin="round" stroke-width="4.5"/>
      <path d="M147.45 53.6 Q145.05 57.8 145.4 63.45 145.75 67.65 147.45 72.3 148.5 75.05 150.7 79.6 L153.7 86.45 Q155.35 90.95 155.65 94.6 155.65 102.15 151.95 107.35 L148.2 111.0" fill="none" stroke="#231f20" stroke-linecap="round" stroke-linejoin="round" stroke-width="4.5"/>
      <path d="M129.6 53.6 Q127.15 57.95 127.5 63.45 127.8 67.3 129.6 72.3 130.6 75.05 132.8 79.6 L135.8 86.45 Q137.45 90.95 137.75 94.6 137.75 102.15 134.05 107.35 L130.35 111.0" fill="none" stroke="#231f20" stroke-linecap="round" stroke-linejoin="round" stroke-width="4.5"/>
    </g>
  </defs>
</svg>
