<?xml version="1.0" encoding="UTF-8" standalone="no"?>
<svg xmlns:xlink="http://www.w3.org/1999/xlink" height="300.0px" width="300.0px" xmlns="http://www.w3.org/2000/svg">
  <g transform="matrix(1.0, 0.0, 0.0, 1.0, 0.0, 0.0)">
    <use height="376.0" transform="matrix(1.0, 0.0, 0.0, 1.0, 11.35, -22.95)" width="277.3" xlink:href="#shape0"/>
  </g>
  <defs>
    <g id="shape0" transform="matrix(1.0, 0.0, 0.0, 1.0, -11.35, 22.95)">
      <path d="M150.0 -22.95 Q151.15 -18.65 154.1 -12.15 160.0 0.75 169.15 11.55 198.4 46.05 249.0 46.05 L252.45 50.85 Q256.75 57.15 260.9 64.5 274.3 88.05 281.4 113.7 291.4 149.65 287.6 184.6 282.8 228.3 256.5 268.0 249.55 268.1 239.25 269.7 218.55 272.95 201.55 280.55 177.8 291.25 164.75 309.15 151.3 327.6 150.0 353.05 148.7 327.6 135.25 309.15 122.25 291.25 98.45 280.55 81.45 272.95 60.75 269.7 L48.25 268.25 43.5 268.0 Q17.2 228.3 12.4 184.6 8.55 149.65 18.55 113.7 25.7 88.05 39.05 64.5 45.75 52.7 51.0 46.05 101.65 46.05 130.9 11.55 140.0 0.75 145.9 -12.15 148.9 -18.65 150.0 -22.95 M197.05 211.6 Q198.7 214.3 198.7 218.75 L198.55 221.7 Q197.85 228.0 194.95 232.0 192.25 235.65 188.1 236.7 L189.65 209.35 192.25 208.9 Q195.4 208.9 197.05 211.6 M228.7 210.4 L228.25 215.2 215.95 215.45 Q216.65 211.45 218.15 208.0 220.35 202.65 224.2 202.65 228.7 202.65 228.7 210.4 M160.85 236.7 L162.4 209.35 165.0 208.9 Q168.15 208.9 169.8 211.6 171.45 214.3 171.45 218.75 L171.3 221.7 Q170.6 228.0 167.7 232.0 165.0 235.65 160.85 236.7 M145.6 222.45 L145.25 226.2 Q144.1 232.3 142.0 235.5 139.8 238.75 137.3 238.75 134.8 238.75 132.3 235.2 129.85 231.65 129.15 226.45 L128.95 222.7 Q128.95 217.4 131.15 214.5 133.4 211.6 137.3 211.6 141.3 211.6 143.6 214.8 145.6 217.8 145.6 222.45 M151.85 221.05 Q151.85 213.6 147.85 208.55 143.9 203.5 137.2 203.5 130.5 203.5 126.55 208.55 122.5 213.6 122.5 221.05 122.5 223.95 123.15 226.9 125.15 235.35 129.25 240.1 132.95 244.45 137.2 244.45 141.4 244.45 145.15 240.1 149.2 235.35 151.15 226.9 151.85 223.95 151.85 221.05 M163.2 201.25 L155.3 201.75 155.3 203.8 154.75 231.3 154.25 257.65 154.3 260.05 159.7 260.55 160.6 241.5 Q174.8 239.15 177.7 222.2 178.5 218.1 178.5 214.8 178.5 207.7 174.8 204.45 171.05 201.25 163.2 201.25 M103.9 186.2 L95.75 186.4 97.3 243.95 102.55 243.65 103.35 214.95 Q105.4 211.6 108.0 211.6 111.7 211.6 111.7 217.55 L111.5 223.95 111.3 230.4 Q111.3 240.95 113.2 247.1 115.5 254.3 120.95 257.75 L124.7 252.05 Q118.1 246.15 118.1 232.15 118.1 229.55 118.4 224.25 L118.7 216.1 118.7 215.5 Q118.7 209.8 116.6 206.8 114.65 204.1 111.5 204.1 107.45 204.1 103.5 208.1 L103.9 186.2 M105.1 152.45 Q108.55 148.0 111.8 148.0 115.0 148.0 115.0 152.8 L114.95 153.95 112.5 184.4 120.3 184.25 121.9 153.75 121.9 152.0 Q121.9 141.5 115.0 141.5 110.2 141.5 105.05 146.0 L104.9 139.25 97.85 139.9 Q99.05 163.1 99.05 177.8 L99.05 180.65 104.7 180.5 Q105.1 165.55 105.1 152.45 M133.55 150.7 Q135.8 147.8 139.7 147.8 143.7 147.8 146.0 151.0 148.0 154.0 148.0 158.65 L147.65 162.4 Q146.5 168.5 144.4 171.7 142.2 174.95 139.7 174.95 137.2 174.95 134.7 171.4 132.25 167.85 131.55 162.65 L131.35 158.9 Q131.35 153.6 133.55 150.7 M139.6 139.7 Q132.9 139.7 128.95 144.75 124.9 149.8 124.9 157.25 124.9 160.15 125.55 163.1 127.55 171.55 131.65 176.3 135.35 180.65 139.6 180.65 143.8 180.65 147.55 176.3 151.6 171.55 153.55 163.1 154.25 160.15 154.25 157.25 154.25 149.8 150.25 144.75 146.3 139.7 139.6 139.7 M68.85 190.9 Q65.3 195.05 65.3 201.15 65.3 208.75 70.4 214.3 L78.4 222.05 Q83.1 227.1 83.1 231.4 83.1 234.35 81.75 236.0 80.35 237.65 78.4 237.65 76.2 237.65 74.55 235.7 72.7 233.55 72.15 229.75 71.5 224.25 71.5 221.9 L63.25 222.7 Q63.25 231.25 66.1 236.55 69.7 243.55 77.65 243.55 82.75 243.55 86.0 240.0 89.25 236.45 89.25 231.35 89.25 223.1 81.55 216.75 72.0 208.95 72.0 202.35 72.0 200.5 72.85 198.8 74.9 194.7 79.65 194.7 81.6 194.7 83.45 195.7 86.1 197.05 86.1 199.15 86.1 200.3 85.3 201.1 84.45 201.95 83.25 201.95 81.3 201.95 79.65 199.6 L76.5 205.1 Q80.9 209.75 85.05 209.75 88.65 209.75 91.05 206.35 93.4 203.2 93.4 198.95 93.4 194.8 91.15 191.65 88.5 188.1 83.7 187.0 L79.05 186.45 Q72.6 186.45 68.85 190.9 M75.4 149.95 L75.4 148.1 87.75 126.8 78.05 126.4 67.45 152.9 67.45 132.25 67.4 124.75 59.15 125.15 Q61.2 173.05 61.15 181.4 L61.15 181.85 66.7 181.8 Q67.0 177.4 67.3 162.5 L70.0 157.6 Q70.8 168.0 74.4 173.75 78.05 179.6 83.9 179.6 L86.5 179.3 Q95.55 177.35 95.8 161.4 L95.8 161.0 Q95.8 156.2 93.85 153.35 91.5 150.05 86.95 150.05 79.4 150.05 79.4 160.75 L79.55 163.4 85.15 164.6 85.15 163.05 Q85.15 158.8 87.05 158.8 87.9 158.8 88.65 160.25 89.35 161.7 89.35 164.15 L89.15 166.85 Q88.15 173.2 84.25 173.2 80.8 173.2 78.35 167.75 75.4 161.25 75.4 149.95 M72.75 94.2 L73.6 94.2 Q84.1 94.2 84.1 103.6 84.1 109.2 81.05 111.7 78.3 113.85 72.35 113.85 L72.75 94.2 M133.05 85.7 Q135.5 84.0 138.0 84.0 140.85 84.0 142.65 86.3 144.45 88.65 144.45 92.85 L144.1 96.8 Q141.3 111.45 132.45 111.35 L132.2 111.35 133.05 85.7 M133.55 57.1 L125.55 57.25 Q125.55 63.25 126.3 89.5 L127.0 116.25 127.0 116.65 131.2 116.85 Q138.35 116.85 142.8 113.25 148.0 109.05 150.6 99.0 151.65 95.0 151.65 91.35 151.65 84.75 148.6 80.6 145.6 76.4 140.7 76.4 137.1 76.4 133.2 78.9 L133.55 58.05 133.55 57.1 M98.6 80.95 Q94.55 86.0 94.55 93.45 94.55 96.35 95.2 99.3 97.2 107.75 101.3 112.5 105.0 116.85 109.25 116.85 113.45 116.85 117.2 112.5 121.25 107.75 123.2 99.3 123.9 96.35 123.9 93.45 123.9 86.0 119.9 80.95 115.95 75.9 109.25 75.9 102.55 75.9 98.6 80.95 M101.0 95.1 Q101.0 89.8 103.2 86.9 105.45 84.0 109.35 84.0 113.35 84.0 115.65 87.2 117.65 90.2 117.65 94.85 L117.3 98.6 Q116.15 104.7 114.05 107.9 111.85 111.15 109.35 111.15 106.85 111.15 104.35 107.6 101.9 104.05 101.2 98.85 L101.0 95.1 M95.9 73.1 L95.9 72.7 Q95.7 57.0 76.55 57.0 L65.15 58.2 65.75 87.75 66.5 118.8 66.85 118.8 Q91.4 118.8 91.2 103.25 L91.2 102.75 Q91.05 92.25 82.75 89.8 89.25 88.5 92.85 83.4 96.0 78.85 95.9 73.1 M86.85 75.9 L86.85 76.45 Q87.0 87.05 74.25 87.05 L72.75 87.05 73.0 68.05 Q75.5 67.35 77.75 67.35 81.9 67.35 84.3 69.7 86.75 72.0 86.85 75.9 M233.35 199.5 Q230.9 196.3 225.0 196.3 217.05 196.3 212.45 203.95 208.4 210.75 208.4 220.9 208.4 231.0 212.45 238.15 216.9 246.0 224.2 245.8 230.0 245.65 233.6 241.15 236.8 237.15 236.8 231.9 236.8 228.0 234.8 225.5 232.5 222.7 228.55 222.7 225.05 222.7 222.85 225.05 220.7 227.4 220.7 230.95 220.7 232.6 221.3 234.1 L227.35 233.7 Q227.05 232.6 227.05 231.65 227.05 228.7 229.15 228.7 231.45 228.7 231.45 232.45 L231.1 234.85 Q230.45 237.55 228.55 239.15 226.65 240.7 224.35 240.7 219.7 240.7 217.75 235.55 215.45 229.3 215.45 222.1 L215.55 219.6 234.95 219.9 Q235.85 213.3 235.85 209.25 235.85 202.65 233.35 199.5 M190.45 201.25 L182.55 201.75 182.55 203.8 182.0 231.3 181.5 257.65 181.55 260.05 186.95 260.55 187.85 241.5 Q202.05 239.15 204.95 222.2 205.75 218.1 205.75 214.8 205.75 207.7 202.05 204.45 198.3 201.25 190.45 201.25 M191.5 149.5 Q193.95 147.8 196.45 147.8 199.3 147.8 201.1 150.1 202.9 152.45 202.9 156.65 L202.55 160.6 Q199.75 175.25 190.9 175.15 L190.65 175.15 191.5 149.5 M178.95 144.4 Q175.95 140.2 171.05 140.2 167.45 140.2 163.55 142.7 L163.9 121.85 163.9 120.9 155.9 121.05 Q155.9 127.05 156.65 153.3 L157.35 180.05 157.35 180.45 161.55 180.65 Q168.7 180.65 173.15 177.05 178.35 172.85 180.95 162.8 182.0 158.8 182.0 155.15 182.0 148.55 178.95 144.4 M168.35 147.8 Q171.2 147.8 173.0 150.1 174.8 152.45 174.8 156.65 L174.45 160.6 Q171.65 175.25 162.8 175.15 L162.55 175.15 163.4 149.5 Q165.85 147.8 168.35 147.8 M192.0 121.85 L192.0 120.9 184.0 121.05 Q184.0 127.05 184.75 153.3 L185.45 180.05 185.45 180.45 189.65 180.65 Q196.8 180.65 201.25 177.05 206.45 172.85 209.05 162.8 210.1 158.8 210.1 155.15 210.1 148.55 207.05 144.4 204.05 140.2 199.15 140.2 195.55 140.2 191.65 142.7 L192.0 121.85 M240.0 145.45 Q240.0 138.85 237.5 135.7 235.05 132.5 229.15 132.5 221.2 132.5 216.6 140.15 212.55 146.95 212.55 157.1 212.55 167.2 216.6 174.35 221.05 182.2 228.35 182.0 234.15 181.85 237.75 177.35 240.95 173.35 240.95 168.1 240.95 164.2 238.95 161.7 236.65 158.9 232.7 158.9 229.2 158.9 227.0 161.25 224.85 163.6 224.85 167.15 224.85 168.8 225.45 170.3 L231.5 169.9 Q231.2 168.8 231.2 167.85 231.2 164.9 233.3 164.9 235.6 164.9 235.6 168.65 L235.25 171.05 Q234.6 173.75 232.7 175.35 230.8 176.9 228.5 176.9 223.85 176.9 221.9 171.75 219.6 165.5 219.6 158.3 L219.7 155.8 239.1 156.1 Q240.0 149.5 240.0 145.45 M220.1 151.65 Q220.8 147.65 222.3 144.2 224.5 138.85 228.35 138.85 232.85 138.85 232.85 146.6 L232.4 151.4 220.1 151.65 M226.8 70.05 L226.55 70.1 Q221.35 70.1 218.35 73.65 215.4 77.2 215.4 82.3 215.4 84.35 216.0 86.55 216.9 90.0 223.0 95.55 228.55 100.75 228.55 104.2 228.55 106.7 227.4 108.55 226.15 110.75 223.75 110.75 220.95 110.75 219.15 108.15 218.25 106.9 218.25 105.7 218.25 103.65 219.9 103.65 221.7 103.65 222.15 106.4 L225.25 104.4 Q223.2 97.35 218.5 97.35 215.85 97.35 213.8 99.65 211.75 102.0 211.75 105.25 211.75 110.05 215.25 113.35 218.8 116.65 223.7 116.65 L223.95 116.65 Q229.3 116.7 232.2 113.1 234.75 109.95 234.75 105.3 234.75 101.15 232.75 98.25 231.55 96.5 227.4 92.2 223.3 87.9 222.25 86.4 220.95 84.5 220.95 82.4 220.95 80.4 222.15 79.05 223.3 77.7 225.45 77.6 L225.6 77.6 Q228.6 77.6 228.6 81.6 L228.25 86.0 234.05 86.7 Q234.75 83.2 234.75 80.2 234.75 69.95 226.8 70.05 M189.75 87.85 Q190.45 83.85 191.95 80.4 194.15 75.05 198.0 75.05 202.5 75.05 202.5 82.8 L202.05 87.6 189.75 87.85 M170.75 86.3 Q172.55 88.65 172.55 92.85 L172.2 96.8 Q169.4 111.45 160.55 111.35 L160.3 111.35 161.15 85.7 Q163.6 84.0 166.1 84.0 168.95 84.0 170.75 86.3 M179.75 91.35 Q179.75 84.75 176.7 80.6 173.7 76.4 168.8 76.4 165.2 76.4 161.3 78.9 L161.65 58.05 161.65 57.1 153.65 57.25 Q153.65 63.25 154.4 89.5 L155.1 116.25 155.1 116.65 159.3 116.85 Q166.45 116.85 170.9 113.25 176.1 109.05 178.7 99.0 179.75 95.0 179.75 91.35 M198.8 68.7 Q190.85 68.7 186.25 76.35 182.2 83.15 182.2 93.3 182.2 103.4 186.25 110.55 190.7 118.4 198.0 118.2 203.8 118.05 207.4 113.55 210.6 109.55 210.6 104.3 210.6 100.4 208.6 97.9 206.3 95.1 202.35 95.1 198.85 95.1 196.65 97.45 194.5 99.8 194.5 103.35 194.5 105.0 195.1 106.5 L201.15 106.1 Q200.85 105.0 200.85 104.05 200.85 101.1 202.95 101.1 205.25 101.1 205.25 104.85 L204.9 107.25 Q204.25 109.95 202.35 111.55 200.45 113.1 198.15 113.1 193.5 113.1 191.55 107.95 189.25 101.7 189.25 94.5 L189.35 92.0 208.75 92.3 Q209.65 85.7 209.65 81.65 209.65 75.05 207.15 71.9 204.7 68.7 198.8 68.7 M216.9 53.45 L216.25 53.3 214.0 53.9 Q215.1 56.1 215.1 58.6 215.1 61.1 213.95 63.25 212.85 65.3 211.3 66.0 211.8 67.8 213.1 69.0 L214.3 69.8 Q219.6 65.05 219.6 59.95 219.6 56.45 216.9 53.45" fill="#ee4036" fill-rule="evenodd" stroke="none"/>
      <path d="M216.9 53.45 Q219.6 56.45 219.6 59.95 219.6 65.05 214.3 69.8 L213.1 69.0 Q211.8 67.8 211.3 66.0 212.85 65.3 213.95 63.25 215.1 61.1 215.1 58.6 215.1 56.1 214.0 53.9 L216.25 53.3 216.9 53.45 M198.8 68.7 Q204.7 68.7 207.15 71.9 209.65 75.05 209.65 81.65 209.65 85.7 208.75 92.3 L189.35 92.0 189.25 94.5 Q189.25 101.7 191.55 107.95 193.5 113.1 198.15 113.1 200.45 113.1 202.35 111.55 204.25 109.95 204.9 107.25 L205.25 104.85 Q205.25 101.1 202.95 101.1 200.85 101.1 200.85 104.05 200.85 105.0 201.15 106.1 L195.1 106.5 Q194.5 105.0 194.5 103.35 194.5 99.8 196.65 97.45 198.85 95.1 202.35 95.1 206.3 95.1 208.6 97.9 210.6 100.4 210.6 104.3 210.6 109.55 207.4 113.55 203.8 118.05 198.0 118.2 190.7 118.4 186.25 110.55 182.2 103.4 182.2 93.3 182.2 83.15 186.25 76.35 190.85 68.7 198.8 68.7 M179.75 91.35 Q179.75 95.0 178.7 99.0 176.1 109.05 170.9 113.25 166.45 116.85 159.3 116.85 L155.1 116.65 155.1 116.25 154.4 89.5 Q153.65 63.25 153.65 57.25 L161.65 57.1 161.65 58.05 161.3 78.9 Q165.2 76.4 168.8 76.4 173.7 76.4 176.7 80.6 179.75 84.75 179.75 91.35 M170.75 86.3 Q168.95 84.0 166.1 84.0 163.6 84.0 161.15 85.7 L160.3 111.35 160.55 111.35 Q169.4 111.45 172.2 96.8 L172.55 92.85 Q172.55 88.65 170.75 86.3 M189.75 87.85 L202.05 87.6 202.5 82.8 Q202.5 75.05 198.0 75.05 194.15 75.05 191.95 80.4 190.45 83.85 189.75 87.85 M226.8 70.05 Q234.75 69.95 234.75 80.2 234.75 83.2 234.05 86.7 L228.25 86.0 228.6 81.6 Q228.6 77.6 225.6 77.6 L225.45 77.6 Q223.3 77.7 222.15 79.05 220.95 80.4 220.95 82.4 220.95 84.5 222.25 86.4 223.3 87.9 227.4 92.2 231.55 96.5 232.75 98.25 234.75 101.15 234.75 105.3 234.75 109.95 232.2 113.1 229.3 116.7 223.95 116.65 L223.7 116.65 Q218.8 116.65 215.25 113.35 211.75 110.05 211.75 105.25 211.75 102.0 213.8 99.65 215.85 97.35 218.5 97.35 223.2 97.35 225.25 104.4 L222.15 106.4 Q221.7 103.65 219.9 103.65 218.25 103.65 218.25 105.7 218.25 106.9 219.15 108.15 220.95 110.75 223.75 110.75 226.15 110.75 227.4 108.55 228.55 106.7 228.55 104.2 228.55 100.75 223.0 95.55 216.9 90.0 216.0 86.55 215.4 84.35 215.4 82.3 215.4 77.2 218.35 73.65 221.35 70.1 226.55 70.1 L226.8 70.05 M220.1 151.65 L232.4 151.4 232.85 146.6 Q232.85 138.85 228.35 138.85 224.5 138.85 222.3 144.2 220.8 147.65 220.1 151.65 M240.0 145.45 Q240.0 149.5 239.1 156.1 L219.7 155.8 219.6 158.3 Q219.6 165.5 221.9 171.75 223.85 176.9 228.5 176.9 230.8 176.9 232.7 175.35 234.6 173.75 235.25 171.05 L235.6 168.65 Q235.6 164.9 233.3 164.9 231.2 164.9 231.2 167.85 231.2 168.8 231.5 169.9 L225.45 170.3 Q224.85 168.8 224.85 167.15 224.85 163.6 227.0 161.25 229.2 158.9 232.7 158.9 236.65 158.9 238.95 161.7 240.95 164.2 240.95 168.1 240.95 173.35 237.75 177.35 234.15 181.85 228.35 182.0 221.05 182.2 216.6 174.35 212.55 167.2 212.55 157.1 212.55 146.95 216.6 140.15 221.2 132.5 229.15 132.5 235.05 132.5 237.5 135.7 240.0 138.85 240.0 145.45 M192.0 121.85 L191.65 142.7 Q195.55 140.2 199.15 140.2 204.05 140.2 207.05 144.4 210.1 148.55 210.1 155.15 210.1 158.8 209.05 162.8 206.45 172.85 201.25 177.05 196.8 180.65 189.65 180.65 L185.45 180.45 185.45 180.05 184.75 153.3 Q184.0 127.05 184.0 121.05 L192.0 120.9 192.0 121.85 M168.35 147.8 Q165.85 147.8 163.4 149.5 L162.55 175.15 162.8 175.15 Q171.65 175.25 174.45 160.6 L174.8 156.65 Q174.8 152.45 173.0 150.1 171.2 147.8 168.35 147.8 M178.95 144.4 Q182.0 148.55 182.0 155.15 182.0 158.8 180.95 162.8 178.35 172.85 173.15 177.05 168.7 180.65 161.55 180.65 L157.35 180.45 157.35 180.05 156.65 153.3 Q155.9 127.05 155.9 121.05 L163.9 120.9 163.9 121.85 163.55 142.7 Q167.45 140.2 171.05 140.2 175.95 140.2 178.95 144.4 M191.5 149.5 L190.65 175.15 190.9 175.15 Q199.75 175.25 202.55 160.6 L202.9 156.65 Q202.9 152.45 201.1 150.1 199.3 147.8 196.45 147.8 193.95 147.8 191.5 149.5 M190.45 201.25 Q198.3 201.25 202.05 204.45 205.75 207.7 205.75 214.8 205.75 218.1 204.95 222.2 202.05 239.15 187.85 241.5 L186.95 260.55 181.55 260.05 181.5 257.65 182.0 231.3 182.55 203.8 182.55 201.75 190.45 201.25 M233.35 199.5 Q235.85 202.65 235.85 209.25 235.85 213.3 234.95 219.9 L215.55 219.6 215.45 222.1 Q215.45 229.3 217.75 235.55 219.7 240.7 224.35 240.7 226.65 240.7 228.55 239.15 230.45 237.55 231.1 234.85 L231.45 232.45 Q231.45 228.7 229.15 228.7 227.05 228.7 227.05 231.65 227.05 232.6 227.35 233.7 L221.3 234.1 Q220.7 232.6 220.7 230.95 220.7 227.4 222.85 225.05 225.05 222.7 228.55 222.7 232.5 222.7 234.8 225.5 236.8 228.0 236.8 231.9 236.8 237.15 233.6 241.15 230.0 245.65 224.2 245.8 216.9 246.0 212.45 238.15 208.4 231.0 208.4 220.9 208.4 210.75 212.45 203.95 217.05 196.3 225.0 196.3 230.9 196.3 233.35 199.5 M86.85 75.9 Q86.75 72.0 84.3 69.7 81.9 67.35 77.75 67.35 75.5 67.35 73.0 68.05 L72.75 87.05 74.25 87.05 Q87.0 87.05 86.85 76.45 L86.85 75.9 M95.9 73.1 Q96.0 78.85 92.85 83.4 89.25 88.5 82.75 89.8 91.05 92.25 91.2 102.75 L91.2 103.25 Q91.4 118.8 66.85 118.8 L66.5 118.8 65.75 87.75 65.15 58.2 76.55 57.0 Q95.7 57.0 95.9 72.7 L95.9 73.1 M101.0 95.1 L101.2 98.85 Q101.9 104.05 104.35 107.6 106.85 111.15 109.35 111.15 111.85 111.15 114.05 107.9 116.15 104.7 117.3 98.6 L117.65 94.85 Q117.65 90.2 115.65 87.2 113.35 84.0 109.35 84.0 105.45 84.0 103.2 86.9 101.0 89.8 101.0 95.1 M98.6 80.95 Q102.55 75.9 109.25 75.9 115.95 75.9 119.9 80.95 123.9 86.0 123.9 93.45 123.9 96.35 123.2 99.3 121.25 107.75 117.2 112.5 113.45 116.85 109.25 116.85 105.0 116.85 101.3 112.5 97.2 107.75 95.2 99.3 94.55 96.35 94.55 93.45 94.55 86.0 98.6 80.95 M133.55 57.1 L133.55 58.05 133.2 78.9 Q137.1 76.4 140.7 76.4 145.6 76.4 148.6 80.6 151.65 84.75 151.65 91.35 151.65 95.0 150.6 99.0 148.0 109.05 142.8 113.25 138.35 116.85 131.2 116.85 L127.0 116.65 127.0 116.25 126.3 89.5 Q125.55 63.25 125.55 57.25 L133.55 57.1 M133.05 85.7 L132.2 111.35 132.45 111.35 Q141.3 111.45 144.1 96.8 L144.45 92.85 Q144.45 88.65 142.65 86.3 140.85 84.0 138.0 84.0 135.5 84.0 133.05 85.7 M72.75 94.2 L72.35 113.85 Q78.3 113.85 81.05 111.7 84.1 109.2 84.1 103.6 84.1 94.2 73.6 94.2 L72.75 94.2 M75.4 149.95 Q75.4 161.25 78.35 167.75 80.8 173.2 84.25 173.2 88.15 173.2 89.15 166.85 L89.35 164.15 Q89.35 161.7 88.65 160.25 87.9 158.8 87.05 158.8 85.15 158.8 85.15 163.05 L85.15 164.6 79.55 163.4 79.4 160.75 Q79.4 150.05 86.95 150.05 91.5 150.05 93.85 153.35 95.8 156.2 95.8 161.0 L95.8 161.4 Q95.55 177.35 86.5 179.3 L83.9 179.6 Q78.05 179.6 74.4 173.75 70.8 168.0 70.0 157.6 L67.3 162.5 Q67.0 177.4 66.7 181.8 L61.15 181.85 61.15 181.4 Q61.2 173.05 59.15 125.15 L67.4 124.75 67.45 132.25 67.45 152.9 78.05 126.4 87.75 126.8 75.4 148.1 75.4 149.95 M68.85 190.9 Q72.6 186.45 79.05 186.45 L83.7 187.0 Q88.5 188.1 91.15 191.65 93.4 194.8 93.4 198.95 93.4 203.2 91.05 206.35 88.65 209.75 85.05 209.75 80.9 209.75 76.5 205.1 L79.65 199.6 Q81.3 201.95 83.25 201.95 84.45 201.95 85.3 201.1 86.1 200.3 86.1 199.15 86.1 197.05 83.45 195.7 81.6 194.7 79.65 194.7 74.9 194.7 72.85 198.8 72.0 200.5 72.0 202.35 72.0 208.95 81.55 216.75 89.25 223.1 89.25 231.35 89.25 236.45 86.0 240.0 82.75 243.55 77.65 243.55 69.7 243.55 66.1 236.55 63.25 231.25 63.25 222.7 L71.5 221.9 Q71.5 224.25 72.15 229.75 72.7 233.55 74.55 235.7 76.2 237.65 78.4 237.65 80.35 237.65 81.75 236.0 83.1 234.35 83.1 231.4 83.1 227.1 78.4 222.05 L70.4 214.3 Q65.3 208.75 65.3 201.15 65.3 195.05 68.85 190.9 M139.6 139.7 Q146.3 139.7 150.25 144.75 154.25 149.8 154.25 157.25 154.25 160.15 153.55 163.1 151.6 171.55 147.55 176.3 143.8 180.65 139.6 180.65 135.35 180.65 131.65 176.3 127.55 171.55 125.55 163.1 124.9 160.15 124.9 157.25 124.9 149.8 128.95 144.75 132.9 139.7 139.6 139.7 M133.55 150.7 Q131.35 153.6 131.35 158.9 L131.55 162.65 Q132.25 167.85 134.7 171.4 137.2 174.95 139.7 174.95 142.2 174.95 144.4 171.7 146.5 168.5 147.65 162.4 L148.0 158.65 Q148.0 154.0 146.0 151.0 143.7 147.8 139.7 147.8 135.8 147.8 133.55 150.7 M105.1 152.45 Q105.1 165.55 104.7 180.5 L99.05 180.65 99.05 177.8 Q99.05 163.1 97.85 139.9 L104.9 139.25 105.05 146.0 Q110.2 141.5 115.0 141.5 121.9 141.5 121.9 152.0 L121.9 153.75 120.3 184.25 112.5 184.4 114.95 153.95 115.0 152.8 Q115.0 148.0 111.8 148.0 108.55 148.0 105.1 152.45 M103.9 186.2 L103.5 208.1 Q107.45 204.1 111.5 204.1 114.65 204.1 116.6 206.8 118.7 209.8 118.7 215.5 L118.7 216.1 118.4 224.25 Q118.1 229.55 118.1 232.15 118.1 246.15 124.7 252.05 L120.95 257.75 Q115.5 254.3 113.2 247.1 111.3 240.95 111.3 230.4 L111.5 223.95 111.7 217.55 Q111.7 211.6 108.0 211.6 105.4 211.6 103.35 214.95 L102.55 243.65 97.3 243.95 95.75 186.4 103.9 186.2 M163.2 201.25 Q171.05 201.25 174.8 204.45 178.5 207.7 178.5 214.8 178.5 218.1 177.7 222.2 174.8 239.15 160.6 241.5 L159.7 260.55 154.3 260.05 154.25 257.65 154.75 231.3 155.3 203.8 155.3 201.75 163.2 201.25 M151.85 221.05 Q151.85 223.95 151.15 226.9 149.2 235.35 145.15 240.1 141.4 244.45 137.2 244.45 132.95 244.45 129.25 240.1 125.15 235.35 123.15 226.9 122.5 223.95 122.5 221.05 122.5 213.6 126.55 208.55 130.5 203.5 137.2 203.5 143.9 203.5 147.85 208.55 151.85 213.6 151.85 221.05 M145.6 222.45 Q145.6 217.8 143.6 214.8 141.3 211.6 137.3 211.6 133.4 211.6 131.15 214.5 128.95 217.4 128.95 222.7 L129.15 226.45 Q129.85 231.65 132.3 235.2 134.8 238.75 137.3 238.75 139.8 238.75 142.0 235.5 144.1 232.3 145.25 226.2 L145.6 222.45 M160.85 236.7 Q165.0 235.65 167.7 232.0 170.6 228.0 171.3 221.7 L171.45 218.75 Q171.45 214.3 169.8 211.6 168.15 208.9 165.0 208.9 L162.4 209.35 160.85 236.7 M228.7 210.4 Q228.7 202.65 224.2 202.65 220.35 202.65 218.15 208.0 216.65 211.45 215.95 215.45 L228.25 215.2 228.7 210.4 M197.05 211.6 Q195.4 208.9 192.25 208.9 L189.65 209.35 188.1 236.7 Q192.25 235.65 194.95 232.0 197.85 228.0 198.55 221.7 L198.7 218.75 Q198.7 214.3 197.05 211.6" fill="#ffffff" fill-rule="evenodd" stroke="none"/>
    </g>
  </defs>
</svg>
