<?xml version="1.0" encoding="UTF-8" standalone="no"?>
<svg xmlns:xlink="http://www.w3.org/1999/xlink" height="300.0px" width="300.0px" xmlns="http://www.w3.org/2000/svg">
  <g transform="matrix(1.0, 0.0, 0.0, 1.0, 0.0, 0.0)">
    <use height="168.35" transform="matrix(1.0, 0.0, 0.0, 1.0, 41.4, -21.0)" width="193.55" xlink:href="#shape0"/>
    <use height="179.45" transform="matrix(1.0, 0.0, 0.0, 1.0, 117.75, 116.95)" width="135.9" xlink:href="#text0"/>
  </g>
  <defs>
    <g id="shape0" transform="matrix(1.0, 0.0, 0.0, 1.0, -41.4, 21.0)">
      <path d="M149.45 68.0 L148.4 67.5 147.85 67.35 146.75 67.2 146.2 67.25 145.05 67.5 144.5 67.75 142.85 68.85 141.95 69.75 141.2 70.85 140.65 72.1 140.25 73.45 140.05 74.75 140.1 76.0 140.4 77.25 Q140.55 77.95 140.85 78.35 L141.5 79.3 142.35 80.0 143.35 80.5 143.85 80.65 145.45 80.75 146.0 80.65 147.2 80.2 147.8 79.9 148.9 79.15 149.8 78.2 150.6 77.1 151.2 75.85 151.6 74.55 151.8 73.25 151.75 71.95 151.45 70.75 150.95 69.6 150.3 68.7 149.45 68.0 M86.9 89.1 L84.15 90.45 76.6 93.5 74.75 74.2 84.7 69.4 86.9 89.1 M116.55 65.5 Q118.2 65.75 119.8 66.5 121.3 67.2 122.5 68.3 L124.6 71.0 Q125.45 72.45 126.1 74.5 L126.55 76.5 126.8 78.55 126.75 80.55 126.5 82.6 126.0 84.5 125.3 86.25 124.4 87.8 123.35 89.15 116.55 65.5 M100.95 44.85 Q100.95 43.3 101.2 42.25 L102.1 39.65 103.6 37.15 108.15 53.4 105.65 52.6 Q104.45 52.05 103.7 51.35 L102.25 49.65 101.35 47.55 100.95 44.85 M99.1 38.25 Q98.45 39.25 97.85 40.85 L96.95 43.6 Q96.5 45.35 96.4 46.45 L96.2 49.2 96.3 51.9 96.8 54.55 Q97.4 56.85 98.6 58.55 99.75 60.3 101.6 61.6 103.2 62.8 105.8 63.7 108.4 64.5 111.35 64.7 L119.2 92.7 118.2 93.15 115.75 93.9 114.9 93.85 114.25 93.6 113.8 93.15 113.5 92.45 113.45 92.1 113.5 91.65 114.35 89.1 114.6 86.6 114.4 85.45 114.05 84.45 113.55 83.65 112.95 83.0 111.85 82.45 111.15 82.35 110.8 82.4 109.75 82.65 108.6 83.3 107.6 84.1 106.75 85.1 106.05 86.2 105.55 87.5 105.2 88.85 105.05 90.2 105.1 91.55 105.35 92.9 106.15 94.95 Q106.6 95.9 107.3 96.7 L108.8 98.1 Q109.75 98.8 110.7 99.15 L111.65 99.5 113.6 99.8 114.65 99.75 116.05 99.55 119.0 98.5 120.55 97.65 123.9 109.6 128.35 106.55 124.9 94.65 127.55 91.5 129.65 88.15 131.2 84.6 132.2 80.8 132.7 77.0 132.75 73.35 132.35 69.85 Q132.05 68.0 131.55 66.5 130.55 63.35 128.95 61.1 127.35 58.85 125.0 57.25 122.8 55.75 119.75 54.9 116.7 54.15 113.25 54.05 L107.4 33.8 108.9 32.9 110.4 32.45 110.55 32.45 110.6 32.4 111.3 32.35 111.85 32.45 112.2 32.65 112.45 33.0 112.45 33.65 111.95 35.8 111.8 36.8 111.8 37.7 111.95 38.45 112.25 39.2 112.65 39.75 113.15 40.15 113.8 40.3 114.05 40.35 114.5 40.35 115.2 40.2 116.15 39.75 116.65 39.45 117.5 38.7 118.25 37.8 118.8 36.85 119.2 35.75 119.45 34.65 119.5 33.5 119.4 32.3 119.15 31.15 118.35 29.4 117.2 28.15 Q116.65 27.7 115.7 27.45 L113.9 27.25 112.6 27.35 110.7 27.8 109.2 28.4 107.75 29.15 106.35 30.15 105.75 28.0 101.85 30.95 102.6 33.45 100.65 35.75 99.1 38.25 M85.95 43.85 L82.05 46.25 84.15 64.75 81.55 66.25 74.3 69.6 72.55 51.4 68.7 53.1 70.3 71.15 64.1 73.0 61.8 73.45 62.65 77.75 64.85 77.35 70.7 75.7 72.4 94.8 66.55 96.05 67.45 100.65 71.4 99.95 72.85 99.55 74.6 119.85 79.05 118.85 77.1 98.35 87.5 94.05 89.85 115.05 94.15 113.05 91.65 91.9 100.4 86.75 99.2 82.05 91.05 86.9 88.7 67.1 94.3 63.6 93.2 59.25 88.15 62.45 85.95 43.85 M129.65 12.05 Q129.0 11.9 128.15 12.05 L127.1 12.4 125.95 13.05 Q124.8 13.8 124.0 14.8 123.2 15.85 122.9 17.0 122.5 18.35 122.65 19.65 122.7 21.05 123.25 22.7 L126.25 29.55 129.7 37.05 133.05 44.85 136.3 53.0 139.35 61.4 139.5 61.7 139.65 61.9 139.85 62.05 140.1 62.05 140.2 62.0 140.3 62.0 140.5 61.9 143.1 60.35 143.4 60.05 143.6 59.7 143.65 59.3 143.6 58.8 136.65 32.85 133.0 16.2 132.1 14.15 131.0 12.75 129.65 12.05 M173.95 61.5 L173.4 60.35 172.65 59.35 171.7 58.5 170.55 57.85 168.7 57.25 167.8 57.2 166.9 57.25 166.55 57.3 166.2 57.4 165.85 57.45 165.5 57.6 Q164.7 57.9 164.35 58.15 L163.35 58.85 162.5 59.8 161.85 60.95 161.4 62.15 161.2 63.35 161.25 64.6 161.55 65.8 162.1 66.95 162.8 67.9 163.75 68.7 164.85 69.3 166.55 69.8 167.45 69.9 168.3 69.85 169.1 69.7 171.1 68.95 172.15 68.2 173.0 67.35 173.7 66.25 174.15 65.1 174.35 63.9 174.3 62.7 173.95 61.5 M165.0 21.25 L165.35 17.0 165.1 13.3 Q164.9 11.8 164.3 10.15 L163.0 7.55 161.35 5.35 159.35 3.55 Q158.2 2.65 157.05 2.1 L155.15 1.35 153.15 0.95 151.05 0.9 148.2 1.35 145.95 2.1 143.55 3.35 Q142.5 4.0 141.5 4.9 L139.85 6.65 138.65 8.7 Q138.05 10.0 137.8 10.85 137.45 12.05 137.4 12.9 L137.4 14.9 Q137.55 15.9 137.85 16.8 L138.3 17.8 138.85 18.6 139.6 19.2 140.45 19.65 141.65 19.9 142.3 19.9 143.3 19.75 144.15 19.45 145.55 18.7 146.35 18.0 147.05 17.2 147.6 16.3 147.95 15.35 148.1 14.4 148.1 13.5 147.85 12.65 147.5 11.9 146.95 11.25 146.25 10.7 145.0 10.1 144.7 9.9 144.5 9.7 144.4 9.5 144.35 9.25 144.45 8.9 144.65 8.55 144.95 8.15 145.8 7.4 146.3 7.05 147.35 6.6 147.8 6.5 Q148.6 6.35 149.35 6.5 150.05 6.7 150.75 7.25 L151.95 8.7 153.0 10.85 153.65 13.05 154.15 15.9 155.15 29.85 Q155.45 32.85 155.9 35.55 156.35 38.4 156.95 40.75 L158.4 45.4 160.25 50.55 160.4 50.85 160.65 51.1 160.9 51.2 161.15 51.2 161.3 51.2 161.35 51.15 161.45 51.15 164.55 50.0 164.9 49.8 165.15 49.55 165.2 49.25 165.1 48.8 164.3 46.6 Q163.6 44.95 163.1 42.25 162.7 39.75 162.7 37.35 162.65 35.3 163.0 31.95 163.4 29.1 164.05 26.15 L165.0 21.25 M140.85 -13.3 Q148.6 -16.55 156.6 -18.45 L162.35 -19.6 168.35 -20.45 174.65 -20.95 181.3 -21.0 234.95 98.05 226.2 96.65 218.0 95.9 210.2 95.75 202.8 96.1 Q192.8 96.9 182.85 99.65 174.05 102.15 165.0 106.1 157.5 109.4 148.5 114.35 143.15 117.3 132.75 123.4 L117.45 132.2 Q109.55 136.6 102.25 139.8 94.0 143.35 86.9 145.15 78.85 147.2 71.35 147.35 L66.05 147.25 60.75 146.65 55.4 145.55 50.05 143.95 41.4 37.9 50.1 36.95 Q56.45 35.7 62.85 33.1 68.7 30.75 75.4 27.05 81.05 23.9 87.9 19.35 L100.4 10.75 113.2 2.0 Q119.75 -2.35 126.55 -6.25 134.0 -10.45 140.85 -13.3" fill="#652d90" fill-rule="evenodd" stroke="none"/>
    </g>
    <g id="text0" transform="matrix(1.0, 0.0, 0.0, 1.0, -0.4, -5.25)">
      <g transform="matrix(1.0, 0.0, 0.0, 1.0, 0.0, 0.0)">
        <use fill="#000000" height="179.45" transform="matrix(0.0361, 0.0, 0.0, 0.0361, 0.0, 33.0)" width="135.9" xlink:href="#font_GothamCondensed-Medium_G0"/>
        <use fill="#000000" height="179.45" transform="matrix(0.0361, 0.0, 0.0, 0.0361, 14.85, 33.0)" width="135.9" xlink:href="#font_GothamCondensed-Medium_r0"/>
        <use fill="#000000" height="179.45" transform="matrix(0.0361, 0.0, 0.0, 0.0361, 23.9, 33.0)" width="135.9" xlink:href="#font_GothamCondensed-Medium_a0"/>
        <use fill="#000000" height="179.45" transform="matrix(0.0361, 0.0, 0.0, 0.0361, 36.8, 33.0)" width="135.9" xlink:href="#font_GothamCondensed-Medium_m0"/>
        <use fill="#000000" height="179.45" transform="matrix(0.0361, 0.0, 0.0, 0.0361, 58.25, 33.0)" width="135.9" xlink:href="#font_GothamCondensed-Medium_m0"/>
        <use fill="#000000" height="179.45" transform="matrix(0.0361, 0.0, 0.0, 0.0361, 79.7, 33.0)" width="135.9" xlink:href="#font_GothamCondensed-Medium_a0"/>
        <use fill="#000000" height="179.45" transform="matrix(0.0361, 0.0, 0.0, 0.0361, 92.6, 33.0)" width="135.9" xlink:href="#font_GothamCondensed-Medium_r0"/>
      </g>
      <g transform="matrix(1.0, 0.0, 0.0, 1.0, 0.0, 0.0)">
        <use fill="#000000" height="179.45" transform="matrix(0.0361, 0.0, 0.0, 0.0361, 0.0, 63.0)" width="135.9" xlink:href="#font_GothamCondensed-Medium_G0"/>
        <use fill="#000000" height="179.45" transform="matrix(0.0361, 0.0, 0.0, 0.0361, 14.85, 63.0)" width="135.9" xlink:href="#font_GothamCondensed-Medium_a0"/>
        <use fill="#000000" height="179.45" transform="matrix(0.0361, 0.0, 0.0, 0.0361, 27.75, 63.0)" width="135.9" xlink:href="#font_GothamCondensed-Medium_r0"/>
        <use fill="#000000" height="179.45" transform="matrix(0.0361, 0.0, 0.0, 0.0361, 36.8, 63.0)" width="135.9" xlink:href="#font_GothamCondensed-Medium_m0"/>
        <use fill="#000000" height="179.45" transform="matrix(0.0361, 0.0, 0.0, 0.0361, 58.25, 63.0)" width="135.9" xlink:href="#font_GothamCondensed-Medium_e0"/>
        <use fill="#000000" height="179.45" transform="matrix(0.0361, 0.0, 0.0, 0.0361, 71.15, 63.0)" width="135.9" xlink:href="#font_GothamCondensed-Medium_n0"/>
        <use fill="#000000" height="179.45" transform="matrix(0.0361, 0.0, 0.0, 0.0361, 85.1, 63.0)" width="135.9" xlink:href="#font_GothamCondensed-Medium_t0"/>
        <use fill="#000000" height="179.45" transform="matrix(0.0361, 0.0, 0.0, 0.0361, 93.9, 63.0)" width="135.9" xlink:href="#font_GothamCondensed-Medium_s0"/>
      </g>
      <g transform="matrix(1.0, 0.0, 0.0, 1.0, 0.0, 0.0)">
        <use fill="#000000" height="179.45" transform="matrix(0.0361, 0.0, 0.0, 0.0361, 0.0, 93.0)" width="135.9" xlink:href="#font_GothamCondensed-Medium_a0"/>
        <use fill="#000000" height="179.45" transform="matrix(0.0361, 0.0, 0.0, 0.0361, 12.9, 93.0)" width="135.9" xlink:href="#font_GothamCondensed-Medium_n0"/>
        <use fill="#000000" height="179.45" transform="matrix(0.0361, 0.0, 0.0, 0.0361, 26.85, 93.0)" width="135.9" xlink:href="#font_GothamCondensed-Medium_d0"/>
      </g>
      <g transform="matrix(1.0, 0.0, 0.0, 1.0, 0.0, 0.0)">
        <use fill="#000000" height="179.45" transform="matrix(0.0361, 0.0, 0.0, 0.0361, 0.0, 123.0)" width="135.9" xlink:href="#font_GothamCondensed-Medium_P0"/>
        <use fill="#000000" height="179.45" transform="matrix(0.0361, 0.0, 0.0, 0.0361, 14.0, 123.0)" width="135.9" xlink:href="#font_GothamCondensed-Medium_u0"/>
        <use fill="#000000" height="179.45" transform="matrix(0.0361, 0.0, 0.0, 0.0361, 27.95, 123.0)" width="135.9" xlink:href="#font_GothamCondensed-Medium_n0"/>
        <use fill="#000000" height="179.45" transform="matrix(0.0361, 0.0, 0.0, 0.0361, 41.9, 123.0)" width="135.9" xlink:href="#font_GothamCondensed-Medium_c0"/>
        <use fill="#000000" height="179.45" transform="matrix(0.0361, 0.0, 0.0, 0.0361, 52.4, 123.0)" width="135.9" xlink:href="#font_GothamCondensed-Medium_t0"/>
        <use fill="#000000" height="179.45" transform="matrix(0.0361, 0.0, 0.0, 0.0361, 61.2, 123.0)" width="135.9" xlink:href="#font_GothamCondensed-Medium_u0"/>
        <use fill="#000000" height="179.45" transform="matrix(0.0361, 0.0, 0.0, 0.0361, 75.15, 123.0)" width="135.9" xlink:href="#font_GothamCondensed-Medium_a0"/>
        <use fill="#000000" height="179.45" transform="matrix(0.0361, 0.0, 0.0, 0.0361, 88.05, 123.0)" width="135.9" xlink:href="#font_GothamCondensed-Medium_t0"/>
        <use fill="#000000" height="179.45" transform="matrix(0.0361, 0.0, 0.0, 0.0361, 96.85, 123.0)" width="135.9" xlink:href="#font_GothamCondensed-Medium_i0"/>
        <use fill="#000000" height="179.45" transform="matrix(0.0361, 0.0, 0.0, 0.0361, 103.45, 123.0)" width="135.9" xlink:href="#font_GothamCondensed-Medium_o0"/>
        <use fill="#000000" height="179.45" transform="matrix(0.0361, 0.0, 0.0, 0.0361, 117.25, 123.0)" width="135.9" xlink:href="#font_GothamCondensed-Medium_n0"/>
      </g>
      <g transform="matrix(1.0, 0.0, 0.0, 1.0, 0.0, 0.0)">
        <use fill="#000000" height="179.45" transform="matrix(0.0361, 0.0, 0.0, 0.0361, 0.0, 153.0)" width="135.9" xlink:href="#font_GothamCondensed-Medium_P0"/>
        <use fill="#000000" height="179.45" transform="matrix(0.0361, 0.0, 0.0, 0.0361, 14.0, 153.0)" width="135.9" xlink:href="#font_GothamCondensed-Medium_a0"/>
        <use fill="#000000" height="179.45" transform="matrix(0.0361, 0.0, 0.0, 0.0361, 26.9, 153.0)" width="135.9" xlink:href="#font_GothamCondensed-Medium_n0"/>
        <use fill="#000000" height="179.45" transform="matrix(0.0361, 0.0, 0.0, 0.0361, 40.85, 153.0)" width="135.9" xlink:href="#font_GothamCondensed-Medium_t0"/>
        <use fill="#000000" height="179.45" transform="matrix(0.0361, 0.0, 0.0, 0.0361, 49.65, 153.0)" width="135.9" xlink:href="#font_GothamCondensed-Medium_s0"/>
      </g>
      <g transform="matrix(1.0, 0.0, 0.0, 1.0, 0.0, 0.0)">
        <use fill="#000000" height="179.45" transform="matrix(0.0361, 0.0, 0.0, 0.0361, 0.0, 183.0)" width="135.9" xlink:href="#font_GothamCondensed-Medium_W0"/>
        <use fill="#000000" height="179.45" transform="matrix(0.0361, 0.0, 0.0, 0.0361, 22.15, 183.0)" width="135.9" xlink:href="#font_GothamCondensed-Medium_a0"/>
        <use fill="#000000" height="179.45" transform="matrix(0.0361, 0.0, 0.0, 0.0361, 35.05, 183.0)" width="135.9" xlink:href="#font_GothamCondensed-Medium_r0"/>
        <use fill="#000000" height="179.45" transform="matrix(0.0361, 0.0, 0.0, 0.0361, 44.1, 183.0)" width="135.9" xlink:href="#font_GothamCondensed-Medium_e0"/>
        <use fill="#000000" height="179.45" transform="matrix(0.0361, 0.0, 0.0, 0.0361, 57.0, 183.0)" width="135.9" xlink:href="#font_GothamCondensed-Medium_h0"/>
        <use fill="#000000" height="179.45" transform="matrix(0.0361, 0.0, 0.0, 0.0361, 70.95, 183.0)" width="135.9" xlink:href="#font_GothamCondensed-Medium_o0"/>
        <use fill="#000000" height="179.45" transform="matrix(0.0361, 0.0, 0.0, 0.0361, 84.75, 183.0)" width="135.9" xlink:href="#font_GothamCondensed-Medium_u0"/>
        <use fill="#000000" height="179.45" transform="matrix(0.0361, 0.0, 0.0, 0.0361, 98.7, 183.0)" width="135.9" xlink:href="#font_GothamCondensed-Medium_s0"/>
        <use fill="#000000" height="179.45" transform="matrix(0.0361, 0.0, 0.0, 0.0361, 109.15, 183.0)" width="135.9" xlink:href="#font_GothamCondensed-Medium_e0"/>
      </g>
    </g>
    <g id="font_GothamCondensed-Medium_G0">
      <path d="M253.0 6.0 L253.0 6.0 Q286.0 6.0 313.0 -1.5 340.0 -9.5 373.0 -23.5 L373.0 -394.0 205.0 -394.0 205.0 -304.0 281.0 -304.0 281.0 -91.0 Q273.0 -89.0 268.5 -88.0 264.5 -87.0 257.5 -87.0 232.5 -87.0 210.0 -100.0 187.5 -112.5 170.0 -142.5 152.5 -172.0 142.0 -221.0 131.0 -270.0 131.0 -343.0 L131.0 -373.5 Q131.0 -501.5 168.5 -563.5 206.0 -625.5 264.5 -625.5 288.0 -625.5 309.5 -617.5 331.0 -609.0 354.5 -595.0 L354.5 -701.5 Q335.0 -710.5 312.5 -716.5 290.0 -722.0 261.5 -722.0 211.0 -722.0 168.5 -700.0 126.0 -678.0 94.5 -633.5 63.5 -589.0 46.0 -523.5 28.5 -458.0 28.5 -370.0 L28.5 -347.0 Q28.5 -255.0 46.5 -188.5 64.5 -122.0 94.5 -78.5 125.0 -35.0 166.0 -14.5 207.0 6.0 253.0 6.0" fill-rule="evenodd" stroke="none"/>
    </g>
    <g id="font_GothamCondensed-Medium_r0">
      <path d="M40.0 -546.0 L40.0 0.0 137.5 0.0 137.5 -313.5 Q137.5 -376.0 163.0 -406.0 188.5 -436.5 234.5 -436.5 L236.5 -436.5 236.5 -552.0 Q197.5 -554.0 174.0 -532.0 151.0 -510.0 137.5 -474.0 L137.5 -546.0 40.0 -546.0" fill-rule="evenodd" stroke="none"/>
    </g>
    <g id="font_GothamCondensed-Medium_a0">
      <path d="M164.5 -73.0 L164.5 -73.0 Q141.0 -73.0 127.0 -94.5 112.5 -116.0 112.5 -162.0 L112.5 -174.5 Q112.5 -219.5 128.0 -242.0 143.0 -264.5 171.0 -264.5 184.0 -264.5 198.5 -260.0 213.0 -255.5 224.0 -250.0 L224.0 -152.0 Q224.0 -117.0 207.0 -95.0 190.0 -73.0 164.5 -73.0 M129.0 9.0 L129.0 9.0 Q162.0 9.0 184.5 -10.0 207.0 -29.0 223.0 -65.0 L223.0 0.0 320.5 0.0 320.5 -372.0 Q320.5 -461.0 278.0 -506.5 235.5 -552.0 156.5 -552.0 124.0 -552.0 98.5 -546.0 72.5 -539.5 46.0 -528.5 L46.0 -435.5 Q69.5 -446.5 92.0 -454.0 114.5 -461.0 140.0 -461.0 224.0 -461.0 224.0 -364.5 L224.0 -321.5 Q206.5 -331.0 187.0 -336.5 168.0 -342.0 146.5 -342.0 88.0 -342.0 53.5 -299.0 18.5 -256.0 18.5 -168.0 L18.5 -154.0 Q18.5 -80.0 49.0 -35.5 80.0 9.0 129.0 9.0" fill-rule="evenodd" stroke="none"/>
    </g>
    <g id="font_GothamCondensed-Medium_m0">
      <path d="M40.0 -546.0 L40.0 0.0 137.5 0.0 137.5 -381.0 Q137.5 -422.0 154.0 -445.0 170.0 -468.0 196.0 -468.0 249.0 -468.0 249.0 -383.0 L249.0 0.0 346.5 0.0 346.5 -381.0 Q346.5 -422.0 363.0 -445.0 379.0 -468.0 405.0 -468.0 458.0 -468.0 458.0 -383.0 L458.0 0.0 555.5 0.0 555.5 -402.5 Q555.5 -440.5 546.5 -469.0 537.0 -497.5 521.0 -516.5 505.5 -535.5 483.5 -545.5 462.0 -555.0 438.5 -555.0 399.5 -555.0 374.5 -532.0 349.5 -509.0 334.0 -483.5 319.5 -513.0 297.5 -534.0 275.5 -555.0 238.0 -555.0 202.0 -555.0 178.5 -533.0 155.0 -511.0 137.5 -476.0 L137.5 -546.0 40.0 -546.0" fill-rule="evenodd" stroke="none"/>
    </g>
    <g id="font_GothamCondensed-Medium_e0">
      <path d="M244.0 -306.5 L121.0 -306.5 Q123.0 -389.5 141.0 -428.0 159.0 -467.0 185.5 -467.0 213.5 -467.0 228.5 -425.0 244.0 -383.0 244.0 -306.5 M207.0 9.0 L207.0 9.0 Q240.5 9.0 267.0 0.0 293.0 -9.5 324.0 -29.0 L315.5 -119.0 Q289.0 -101.5 268.0 -91.5 247.0 -82.0 220.5 -82.0 182.5 -82.0 154.5 -116.0 126.0 -149.5 122.0 -228.5 L336.0 -228.5 336.0 -281.5 Q336.0 -416.0 294.5 -485.0 253.0 -554.0 185.5 -554.0 152.5 -554.0 123.5 -536.5 94.0 -519.0 72.0 -485.0 50.0 -450.5 37.5 -400.0 24.5 -349.5 24.5 -281.5 L24.5 -260.0 Q24.5 -193.5 39.5 -143.0 54.0 -92.5 79.0 -58.5 103.5 -25.0 136.5 -8.0 170.0 9.0 207.0 9.0" fill-rule="evenodd" stroke="none"/>
    </g>
    <g id="font_GothamCondensed-Medium_n0">
      <path d="M40.0 -546.0 L40.0 0.0 137.5 0.0 137.5 -381.0 Q137.5 -422.0 154.5 -445.0 171.0 -468.0 197.5 -468.0 223.0 -468.0 237.5 -446.5 251.5 -425.0 251.5 -383.0 L251.5 0.0 349.0 0.0 349.0 -403.5 Q349.0 -473.0 320.5 -514.0 292.0 -555.0 238.5 -555.0 200.0 -555.0 176.5 -532.0 153.0 -509.0 137.5 -476.0 L137.5 -546.0 40.0 -546.0" fill-rule="evenodd" stroke="none"/>
    </g>
    <g id="font_GothamCondensed-Medium_t0">
      <path d="M162.5 6.0 L162.5 6.0 Q178.0 6.0 195.0 2.0 211.5 -2.0 223.0 -8.5 L223.0 -88.0 Q209.5 -82.0 192.5 -82.0 173.0 -82.0 162.5 -91.0 152.5 -100.5 152.5 -124.0 L152.5 -465.0 223.0 -465.0 223.0 -546.0 152.5 -546.0 152.5 -689.0 55.0 -689.0 55.0 -546.0 16.0 -546.0 16.0 -465.0 55.0 -465.0 55.0 -93.5 Q55.0 -63.5 63.5 -44.5 72.5 -25.5 87.0 -14.5 101.0 -3.0 121.0 1.5 141.0 6.0 162.5 6.0" fill-rule="evenodd" stroke="none"/>
    </g>
    <g id="font_GothamCondensed-Medium_s0">
      <path d="M130.0 9.0 L130.0 9.0 Q161.0 9.0 187.0 -1.0 213.0 -11.5 233.0 -30.5 253.0 -49.5 264.0 -76.0 275.5 -102.5 275.5 -136.5 L275.5 -138.5 Q275.5 -162.0 271.0 -182.0 266.5 -202.0 255.5 -222.5 245.0 -243.0 227.0 -264.5 209.0 -286.0 182.5 -311.5 161.0 -333.0 147.0 -348.5 133.0 -363.5 125.5 -375.0 117.5 -386.0 114.5 -395.5 111.5 -404.5 111.5 -415.0 L111.5 -417.0 Q111.5 -438.5 126.5 -451.5 141.0 -465.0 166.0 -465.0 187.5 -465.0 209.0 -459.0 230.5 -452.5 251.0 -441.5 L251.0 -537.5 Q228.5 -546.0 208.0 -549.5 187.5 -553.0 162.0 -553.0 130.0 -553.0 103.5 -543.5 77.0 -533.5 57.5 -515.5 38.0 -497.5 27.5 -472.0 16.5 -446.5 16.5 -414.0 L16.5 -411.5 Q16.5 -363.5 40.5 -324.0 64.5 -285.0 111.5 -238.5 153.5 -199.0 167.0 -176.5 180.5 -154.5 180.5 -134.5 L180.5 -132.0 Q180.5 -108.5 164.5 -94.5 148.5 -80.0 125.0 -80.0 101.5 -80.0 75.5 -88.5 49.5 -97.5 19.5 -114.0 L19.5 -16.5 Q46.0 -5.5 74.0 2.0 101.5 9.0 130.0 9.0" fill-rule="evenodd" stroke="none"/>
    </g>
    <g id="font_GothamCondensed-Medium_d0">
      <path d="M188.0 -83.0 L188.0 -83.0 Q158.5 -83.0 142.5 -127.5 126.0 -172.0 126.0 -257.0 L126.0 -288.0 Q126.0 -373.0 142.5 -418.0 158.5 -463.0 188.0 -463.0 217.0 -463.0 235.5 -418.5 254.5 -374.0 254.5 -290.0 L254.5 -256.0 Q254.5 -171.0 235.5 -127.0 217.0 -83.0 188.0 -83.0 M152.5 9.0 L152.5 9.0 Q172.5 9.0 188.0 1.0 203.5 -7.5 215.5 -19.5 228.0 -32.0 236.5 -47.5 245.5 -63.5 252.5 -79.0 L252.5 0.0 351.0 0.0 351.0 -723.0 252.5 -723.0 252.5 -468.0 Q245.5 -483.5 236.5 -499.0 228.0 -514.0 215.5 -527.0 203.5 -539.5 188.0 -547.5 172.5 -555.0 152.5 -555.0 126.5 -555.0 104.0 -540.5 81.5 -526.5 65.0 -494.5 48.0 -463.0 38.0 -413.0 28.5 -363.5 28.5 -293.0 L28.5 -253.0 Q28.5 -181.5 38.0 -131.5 48.0 -82.0 65.0 -51.0 81.5 -19.5 104.0 -5.5 126.5 9.0 152.5 9.0" fill-rule="evenodd" stroke="none"/>
    </g>
    <g id="font_GothamCondensed-Medium_P0">
      <path d="M158.0 -329.5 L144.5 -329.5 144.5 -624.0 160.0 -624.0 Q211.0 -624.0 240.5 -588.0 270.0 -552.0 270.0 -477.5 L270.0 -475.0 Q270.0 -403.5 239.5 -367.5 209.0 -331.5 158.0 -329.5 M43.0 -717.0 L43.0 0.0 144.5 0.0 144.5 -236.5 157.0 -236.5 Q205.0 -239.5 244.5 -256.0 284.5 -272.5 312.5 -302.5 341.0 -333.0 356.0 -377.0 371.5 -421.0 371.5 -478.5 L371.5 -480.5 Q371.5 -540.0 355.0 -584.5 339.0 -629.0 309.5 -658.0 280.5 -687.5 239.0 -702.0 197.5 -717.0 147.5 -717.0 L43.0 -717.0" fill-rule="evenodd" stroke="none"/>
    </g>
    <g id="font_GothamCondensed-Medium_u0">
      <path d="M147.5 9.0 L147.5 9.0 Q186.0 9.0 209.5 -14.0 233.0 -37.0 248.5 -70.0 L248.5 0.0 346.0 0.0 346.0 -546.0 248.5 -546.0 248.5 -165.0 Q248.5 -124.0 231.5 -101.0 215.0 -78.0 188.5 -78.0 163.0 -78.0 149.0 -99.5 134.5 -121.0 134.5 -163.0 L134.5 -546.0 37.0 -546.0 37.0 -141.5 Q37.0 -73.0 65.5 -32.0 94.0 9.0 147.5 9.0" fill-rule="evenodd" stroke="none"/>
    </g>
    <g id="font_GothamCondensed-Medium_c0">
      <path d="M194.5 9.0 L194.5 9.0 Q217.0 9.0 234.0 4.0 251.0 -1.0 269.5 -12.5 L269.5 -109.5 Q255.0 -98.5 239.5 -91.5 224.5 -85.0 210.0 -85.0 192.5 -85.0 177.0 -94.0 162.0 -103.5 150.0 -124.5 138.5 -145.5 131.5 -178.0 125.0 -211.0 125.0 -257.0 L125.0 -287.0 Q125.0 -333.0 131.5 -366.0 138.5 -398.5 149.5 -419.5 161.0 -440.5 175.5 -450.0 190.5 -459.0 207.0 -459.0 224.5 -459.0 239.0 -453.0 254.0 -446.5 269.5 -437.5 L269.5 -537.5 Q252.0 -546.0 236.5 -549.5 221.5 -553.0 196.5 -553.0 162.0 -553.0 130.5 -536.0 99.5 -519.0 76.5 -486.0 53.0 -452.5 40.0 -402.5 26.5 -352.5 26.5 -285.0 L26.5 -259.0 Q26.5 -191.5 39.5 -141.5 52.0 -91.5 74.0 -57.5 96.5 -24.0 127.0 -7.5 158.0 9.0 194.5 9.0" fill-rule="evenodd" stroke="none"/>
    </g>
    <g id="font_GothamCondensed-Medium_i0">
      <path d="M43.0 -546.0 L43.0 0.0 140.5 0.0 140.5 -546.0 43.0 -546.0 M41.0 -723.0 L41.0 -616.5 141.5 -616.5 141.5 -723.0 41.0 -723.0" fill-rule="evenodd" stroke="none"/>
    </g>
    <g id="font_GothamCondensed-Medium_o0">
      <path d="M191.5 -78.0 L191.5 -78.0 Q162.0 -78.0 143.0 -123.5 124.0 -169.0 124.0 -258.0 L124.0 -287.0 Q124.0 -376.0 143.0 -421.5 162.0 -467.0 191.5 -467.0 221.0 -467.0 239.5 -421.5 258.0 -376.0 258.0 -287.0 L258.0 -258.0 Q258.0 -169.0 239.5 -123.5 221.0 -78.0 191.5 -78.0 M191.5 9.0 L191.5 9.0 Q226.5 9.0 256.0 -8.5 286.0 -26.0 308.0 -59.5 330.0 -93.5 342.5 -143.5 355.5 -193.5 355.5 -259.0 L355.5 -285.0 Q355.5 -350.5 343.0 -400.5 331.0 -450.5 309.0 -485.0 287.0 -519.0 256.5 -536.5 226.5 -554.0 191.5 -554.0 156.5 -554.0 126.5 -536.5 96.0 -519.0 74.0 -485.0 52.0 -450.5 39.5 -400.5 26.5 -350.5 26.5 -285.0 L26.5 -259.0 Q26.5 -193.5 39.5 -143.5 52.0 -93.5 74.0 -59.5 96.0 -26.0 126.5 -8.5 156.5 9.0 191.5 9.0" fill-rule="evenodd" stroke="none"/>
    </g>
    <g id="font_GothamCondensed-Medium_W0">
      <path d="M11.5 -717.0 L125.0 3.0 228.5 3.0 305.0 -482.5 382.0 3.0 486.5 3.0 599.0 -717.0 497.5 -717.0 431.0 -221.5 353.5 -717.0 260.0 -717.0 181.5 -221.5 115.5 -717.0 11.5 -717.0" fill-rule="evenodd" stroke="none"/>
    </g>
    <g id="font_GothamCondensed-Medium_h0">
      <path d="M40.0 -723.0 L40.0 0.0 137.5 0.0 137.5 -381.0 Q137.5 -422.0 154.5 -445.0 171.0 -468.0 197.5 -468.0 223.0 -468.0 237.5 -446.5 251.5 -425.0 251.5 -383.0 L251.5 0.0 349.0 0.0 349.0 -403.5 Q349.0 -473.0 320.5 -514.0 292.0 -555.0 238.5 -555.0 200.0 -555.0 176.5 -532.0 153.0 -509.0 137.5 -476.0 L137.5 -723.0 40.0 -723.0" fill-rule="evenodd" stroke="none"/>
    </g>
  </defs>
</svg>
