<?xml version="1.0" encoding="UTF-8" standalone="no"?>
<svg xmlns:xlink="http://www.w3.org/1999/xlink" height="300.0px" width="300.0px" xmlns="http://www.w3.org/2000/svg">
  <g transform="matrix(1.0, 0.0, 0.0, 1.0, 0.0, 0.0)">
    <use height="114.5" transform="matrix(1.0, 0.0, 0.0, 1.0, 14.95, 112.2)" width="274.2" xlink:href="#shape0"/>
  </g>
  <defs>
    <g id="shape0" transform="matrix(1.0, 0.0, 0.0, 1.0, -14.95, -112.2)">
      <path d="M175.25 167.1 L175.2 174.85 172.15 175.1 167.85 175.85 163.55 176.75 160.55 177.25 159.55 180.8 Q158.9 183.75 158.6 186.3 L158.0 192.75 157.75 199.45 Q157.7 202.2 157.95 205.3 158.2 207.95 158.65 209.55 L154.45 210.85 148.55 213.05 138.45 217.2 Q138.75 212.9 139.5 207.65 L141.2 197.15 143.2 187.2 143.8 184.75 145.15 179.3 141.25 179.9 136.2 181.05 134.35 181.55 130.1 182.75 133.8 170.35 175.05 164.95 175.25 167.1 M177.65 173.75 L182.5 172.4 218.15 162.75 221.8 173.7 215.7 174.45 210.7 175.3 206.75 176.3 208.7 183.4 210.75 192.55 212.45 202.35 Q213.25 207.55 213.4 211.55 L209.2 211.4 203.35 211.4 197.5 211.55 196.45 211.6 193.25 211.9 Q193.8 210.15 194.0 207.4 L194.2 201.45 193.9 194.9 193.3 188.65 192.75 185.5 192.4 183.55 Q191.85 181.35 191.3 180.45 L179.8 182.85 179.1 183.05 Q177.6 183.45 176.7 183.9 L176.7 176.15 176.9 173.85 177.65 173.75 M241.25 169.1 L241.35 169.3 243.15 174.05 Q244.3 176.95 245.65 179.35 L245.75 179.25 248.6 175.35 256.95 163.55 269.85 167.65 267.15 170.9 262.75 176.6 Q258.85 181.8 254.8 188.3 250.85 194.8 247.1 202.3 244.55 207.3 239.65 221.8 L224.5 216.1 227.3 210.05 229.2 205.55 Q230.55 202.0 231.05 201.2 L237.65 190.95 234.8 186.7 231.4 181.4 227.95 175.6 227.8 175.35 Q226.05 172.2 225.15 169.95 L240.0 164.0 Q240.4 166.7 241.25 169.1 M36.0 181.45 L32.75 169.7 35.65 167.4 40.3 164.1 Q43.25 162.15 45.95 160.7 49.05 159.1 51.9 158.4 L57.75 157.65 Q60.8 157.65 63.65 158.95 66.55 160.35 68.95 163.5 L70.65 166.25 Q71.9 168.75 72.65 172.2 73.8 177.7 72.25 183.05 70.75 188.3 67.7 192.4 64.85 196.3 61.05 199.05 57.45 201.6 54.3 202.85 L54.2 206.75 54.3 211.55 54.55 216.45 Q54.7 219.0 55.2 220.8 L36.15 222.05 Q37.8 215.4 38.3 208.9 38.75 202.05 38.2 194.95 37.55 188.05 36.0 181.45 M50.25 173.0 Q50.25 174.5 50.75 177.8 L52.45 188.7 52.85 192.85 55.15 189.8 56.15 187.95 Q57.45 185.45 58.1 182.65 58.65 180.3 58.5 177.8 L58.35 176.95 Q58.05 175.35 57.25 174.1 56.35 172.75 54.45 172.25 52.7 171.95 50.25 173.0 M77.95 191.2 Q78.25 187.8 78.85 184.7 79.6 181.1 80.4 178.9 81.3 176.1 82.15 174.05 L99.5 170.55 98.1 176.2 97.35 179.45 Q96.35 184.35 95.75 188.95 95.15 193.2 95.05 197.5 95.05 201.5 95.9 203.55 96.6 205.25 97.75 206.0 L98.4 206.3 Q100.1 206.95 101.8 206.25 103.5 205.6 105.25 203.65 106.85 201.85 107.65 198.9 108.25 196.65 108.45 194.25 L108.8 188.55 108.75 182.4 108.4 176.45 107.9 171.3 107.2 167.7 125.9 163.55 126.5 168.85 126.75 174.15 Q126.8 179.5 125.9 184.95 125.15 190.1 123.1 195.25 121.15 200.3 117.85 204.6 116.15 206.85 113.45 208.75 110.85 210.6 107.7 212.0 104.65 213.3 101.2 213.9 L94.45 214.2 Q91.1 213.8 88.05 212.55 84.95 211.25 82.5 208.6 L81.5 207.5 Q80.25 205.75 79.5 203.7 78.45 201.05 78.05 197.7 77.75 194.8 77.95 191.2" fill="#ff0000" fill-rule="evenodd" stroke="none"/>
      <path d="M232.25 120.7 Q238.35 120.75 239.85 126.2 241.95 123.5 244.0 122.3 246.35 120.8 249.45 120.85 252.85 120.9 255.1 123.05 257.45 125.35 257.4 129.1 L257.2 142.7 Q257.2 143.9 257.75 144.45 258.25 144.95 259.5 144.95 L262.55 145.0 262.5 148.8 246.35 148.6 246.4 144.8 248.1 144.85 Q249.3 144.85 249.85 144.35 250.4 143.8 250.45 142.6 L250.6 129.05 Q250.65 127.35 249.4 126.3 248.3 125.4 246.55 125.35 244.0 125.3 242.1 127.3 240.15 129.25 240.1 132.1 L239.95 142.45 Q239.95 143.7 240.5 144.25 241.0 144.75 242.25 144.75 L243.8 144.8 243.75 148.6 229.05 148.4 229.1 144.65 230.85 144.65 Q232.1 144.7 232.6 144.15 233.15 143.6 233.2 142.4 L233.3 130.3 Q233.35 127.75 232.65 126.65 231.75 125.2 229.35 125.15 226.75 125.1 224.75 127.25 222.85 129.25 222.85 131.9 L222.7 142.25 Q222.7 143.45 223.25 144.05 223.75 144.6 225.0 144.6 L226.7 144.6 226.65 148.4 210.3 148.2 210.35 144.4 213.6 144.45 Q214.85 144.5 215.35 143.95 215.9 143.4 215.9 142.15 L216.1 127.45 Q216.1 126.2 215.55 125.7 215.0 125.15 213.8 125.15 L210.6 125.1 210.65 121.3 223.0 121.45 222.95 126.3 223.1 126.3 Q224.95 123.4 226.9 122.15 229.1 120.65 232.25 120.7 M202.75 122.15 Q201.55 123.35 199.85 123.4 198.15 123.5 196.95 122.3 195.7 121.1 195.6 119.4 195.55 117.7 196.75 116.45 197.9 115.25 199.6 115.15 201.3 115.1 202.6 116.25 203.85 117.4 203.9 119.1 203.95 120.85 202.75 122.15 M204.8 147.75 Q204.85 148.95 205.4 149.5 205.95 149.95 207.2 149.9 L210.0 149.85 210.1 153.6 193.25 154.2 193.15 150.4 195.8 150.3 197.55 149.75 Q198.05 149.15 198.0 147.95 L197.55 133.2 Q197.5 132.0 196.95 131.45 196.4 130.95 195.15 131.0 L192.55 131.05 192.4 127.3 204.15 126.9 204.8 147.75 M164.2 146.0 L169.15 118.9 Q159.75 117.2 158.2 125.85 L157.7 128.45 153.5 127.65 156.35 112.2 191.4 118.65 188.6 134.1 184.4 133.3 184.9 130.8 Q185.7 126.3 183.75 123.75 181.85 121.2 177.1 120.35 L172.15 147.45 Q171.95 148.55 172.35 149.1 172.75 149.7 174.05 149.9 L178.4 150.7 177.6 154.9 156.45 151.0 157.2 146.8 161.55 147.6 163.45 147.45 Q164.0 147.1 164.2 146.0 M175.25 170.1 L177.45 169.8 177.65 172.0 177.65 173.75 176.9 173.85 176.7 176.15 176.7 179.75 174.55 179.95 170.3 180.7 166.0 181.6 163.0 182.15 Q162.45 183.35 161.95 185.7 161.35 188.6 161.05 191.15 160.55 195.15 160.4 197.65 L160.15 204.3 160.35 210.15 Q160.6 212.8 161.1 214.4 L156.85 215.7 Q154.15 216.65 151.0 217.9 L140.9 222.05 141.45 216.0 148.55 213.05 154.45 210.85 158.65 209.55 Q158.2 207.95 157.95 205.3 157.7 202.2 157.75 199.45 L158.0 192.75 158.6 186.3 Q158.9 183.75 159.55 180.8 L160.55 177.25 163.55 176.75 167.85 175.85 172.15 175.1 175.2 174.85 175.25 170.1 M219.85 167.8 L220.55 167.6 224.2 178.55 218.15 179.3 213.15 180.15 209.2 181.15 211.15 188.25 213.2 197.4 214.9 207.2 Q215.65 212.4 215.85 216.4 L211.6 216.25 205.8 216.25 199.9 216.4 195.7 216.75 Q196.2 215.0 196.4 212.25 L196.45 211.6 197.5 211.55 203.35 211.4 209.2 211.4 213.4 211.55 Q213.25 207.55 212.45 202.35 L210.75 192.55 208.7 183.4 206.75 176.3 210.7 175.3 215.7 174.45 221.8 173.7 219.85 167.8 M192.75 185.5 L182.25 187.7 Q180.25 188.2 179.1 188.75 L179.1 183.05 179.8 182.85 191.3 180.45 Q191.85 181.35 192.4 183.55 L192.75 185.5 M143.8 184.75 L143.65 184.75 138.65 185.9 132.55 187.6 134.35 181.55 136.2 181.05 141.25 179.9 145.15 179.3 143.8 184.75 M241.35 169.3 L242.4 168.85 Q242.8 171.55 243.7 173.95 L245.6 178.95 245.75 179.25 245.65 179.35 Q244.3 176.95 243.15 174.05 L241.35 169.3 M267.15 170.9 L272.3 172.5 Q268.95 176.25 265.15 181.45 261.25 186.65 257.25 193.15 255.65 195.75 252.8 201.85 L248.55 211.05 Q244.95 218.25 242.1 226.7 L226.95 220.95 228.5 217.6 239.65 221.8 Q244.55 207.3 247.1 202.3 250.85 194.8 254.8 188.3 258.85 181.8 262.75 176.6 L267.15 170.9 M237.25 191.6 L237.25 191.55 Q236.0 189.8 233.85 186.25 L230.4 180.5 Q228.8 177.65 227.9 175.55 L227.95 175.6 231.4 181.4 234.8 186.7 237.65 190.95 237.25 191.6 M288.55 134.5 L270.5 138.15 Q271.15 142.05 273.0 144.15 275.15 146.7 278.75 146.0 284.5 144.9 284.4 138.65 L289.05 137.75 Q290.0 148.15 279.0 150.35 272.45 151.65 268.3 148.8 264.25 145.9 262.85 139.05 261.55 132.8 264.4 128.2 267.2 123.55 273.05 122.35 279.5 121.05 284.0 125.3 287.95 129.0 288.55 134.5 M278.25 127.65 Q276.55 125.75 273.75 126.3 271.1 126.85 270.1 129.3 269.3 131.4 269.8 134.45 L280.2 132.35 Q279.7 129.25 278.25 127.65 M70.35 115.35 Q71.55 114.1 73.25 114.1 74.95 114.1 76.2 115.35 77.4 116.5 77.4 118.25 77.4 119.95 76.2 121.15 74.95 122.4 73.25 122.4 71.55 122.4 70.35 121.15 69.15 119.95 69.15 118.25 69.15 116.5 70.35 115.35 M60.45 113.05 L61.1 117.3 57.75 117.8 Q55.0 118.3 55.25 120.25 L60.3 151.7 51.9 153.05 28.4 125.55 28.3 125.55 32.15 149.6 Q32.35 150.6 33.05 151.15 33.75 151.65 34.85 151.5 L39.1 150.8 39.8 155.0 21.0 158.0 20.3 153.8 24.3 153.2 Q26.6 152.8 26.3 150.5 L22.25 125.6 Q22.1 124.45 21.5 124.15 L19.65 123.95 15.65 124.55 14.95 120.35 31.7 117.65 52.55 142.1 52.7 142.1 49.45 121.9 Q49.0 119.25 46.1 119.65 L42.6 120.25 41.9 116.0 60.45 113.05 M77.4 146.8 Q77.4 148.05 77.9 148.55 78.45 149.1 79.65 149.1 L82.55 149.1 82.55 152.95 65.7 152.95 65.7 149.1 68.3 149.1 Q69.5 149.1 70.05 148.55 70.6 148.05 70.6 146.8 L70.6 132.1 Q70.6 130.9 70.05 130.35 69.5 129.8 68.3 129.8 L65.7 129.8 65.7 126.0 77.4 126.0 77.4 146.8 M70.65 166.25 L72.1 167.95 Q74.6 171.25 75.8 176.65 76.95 182.15 75.4 187.5 73.95 192.55 70.9 196.8 68.0 200.75 64.2 203.45 60.9 205.9 57.45 207.3 L57.35 211.2 57.65 220.9 Q57.9 223.55 58.35 225.25 L48.8 226.0 43.15 226.3 39.3 226.5 40.3 221.8 55.2 220.8 Q54.7 219.0 54.55 216.45 L54.3 211.55 54.2 206.75 54.3 202.85 Q57.45 201.6 61.05 199.05 64.85 196.3 67.7 192.4 70.75 188.3 72.25 183.05 73.8 177.7 72.65 172.2 71.9 168.75 70.65 166.25 M55.15 189.8 L52.85 192.85 52.45 188.7 50.75 177.8 Q50.25 174.5 50.25 173.0 52.7 171.95 54.45 172.25 56.35 172.75 57.25 174.1 58.05 175.35 58.35 176.95 L57.6 176.7 Q55.85 176.35 53.35 177.4 53.45 179.5 53.9 182.3 L55.15 189.8 M98.1 176.2 L101.9 175.45 Q100.95 178.85 99.8 184.3 98.75 189.25 98.2 193.8 97.6 198.05 97.5 202.35 97.5 204.45 97.75 206.0 96.6 205.25 95.9 203.55 95.05 201.5 95.05 197.5 95.15 193.2 95.75 188.95 96.35 184.35 97.35 179.45 L98.1 176.2 M126.5 168.85 L128.35 168.45 Q129.05 173.2 129.2 179.0 129.25 184.35 128.35 189.8 127.6 194.95 125.55 200.1 123.6 205.15 120.3 209.45 118.6 211.7 115.85 213.6 113.3 215.45 110.15 216.85 107.05 218.2 103.6 218.75 L96.85 219.05 Q93.5 218.65 90.45 217.4 87.4 216.1 84.9 213.45 82.95 211.35 81.9 208.55 L81.5 207.5 82.5 208.6 Q84.95 211.25 88.05 212.55 91.1 213.8 94.45 214.2 L101.2 213.9 Q104.65 213.3 107.7 212.0 110.85 210.6 113.45 208.75 116.15 206.85 117.85 204.6 121.15 200.3 123.1 195.25 125.15 190.1 125.9 184.95 126.8 179.5 126.75 174.15 L126.5 168.85 M124.35 134.1 Q123.05 131.85 120.25 131.85 117.5 131.85 116.1 134.1 114.85 135.95 114.7 139.05 L125.45 139.05 Q125.5 135.95 124.35 134.1 M133.1 142.85 L114.7 142.85 Q114.55 146.75 115.9 149.2 117.55 152.15 121.25 152.15 124.3 152.15 126.0 150.6 127.65 149.1 128.25 146.05 L133.0 146.05 Q131.8 156.5 120.65 156.5 113.95 156.5 110.45 152.85 107.0 149.15 107.0 142.15 107.0 135.85 110.7 131.85 114.4 127.8 120.35 127.8 126.95 127.8 130.55 132.85 133.65 137.3 133.1 142.85 M137.85 137.65 L152.45 134.65 153.6 140.55 139.05 143.5 137.85 137.65 M99.45 114.95 L97.3 125.45 104.75 126.95 104.0 130.7 96.75 129.2 93.3 145.85 Q93.05 147.7 95.1 148.1 96.4 148.35 97.1 147.75 97.8 147.1 98.2 145.4 L99.2 140.4 102.9 141.15 101.95 145.9 Q101.1 150.15 98.45 151.9 96.05 153.5 92.5 152.8 89.15 152.15 87.6 150.3 85.9 148.3 86.55 145.05 L90.05 127.85 85.35 126.9 86.1 123.35 Q90.05 123.9 92.65 121.0 94.55 118.85 95.95 114.25 L99.45 114.95" fill="#000000" fill-rule="evenodd" stroke="none"/>
      <path d="M134.35 181.55 L130.1 182.75 133.8 170.35 175.05 164.95 175.25 167.1 175.25 170.1 175.2 174.85 172.15 175.1 167.85 175.85 163.55 176.75 160.55 177.25 159.55 180.8 Q158.9 183.75 158.6 186.3 L158.0 192.75 157.75 199.45 Q157.7 202.2 157.95 205.3 158.2 207.95 158.65 209.55 L154.45 210.85 148.55 213.05 141.45 216.0 138.45 217.2 Q138.75 212.9 139.5 207.65 L141.2 197.15 143.2 187.2 143.8 184.75 145.15 179.3 141.25 179.9 136.2 181.05 134.35 181.55 M177.65 173.75 L182.5 172.4 218.15 162.75 219.85 167.8 221.8 173.7 215.7 174.45 210.7 175.3 206.75 176.3 208.7 183.4 210.75 192.55 212.45 202.35 Q213.25 207.55 213.4 211.55 L209.2 211.4 203.35 211.4 197.5 211.55 196.45 211.6 193.25 211.9 Q193.8 210.15 194.0 207.4 L194.2 201.45 193.9 194.9 193.3 188.65 192.75 185.5 192.4 183.55 Q191.85 181.35 191.3 180.45 L179.8 182.85 179.1 183.05 Q177.6 183.45 176.7 183.9 L176.7 179.75 176.7 176.15 176.9 173.85 177.65 173.75 M227.9 175.55 L227.85 175.45 227.8 175.35 Q226.05 172.2 225.15 169.95 L240.0 164.0 Q240.4 166.7 241.25 169.1 L241.35 169.3 243.15 174.05 Q244.3 176.95 245.65 179.35 L245.75 179.25 248.6 175.35 256.95 163.55 269.85 167.65 267.15 170.9 262.75 176.6 Q258.85 181.8 254.8 188.3 250.85 194.8 247.1 202.3 244.55 207.3 239.65 221.8 L228.5 217.6 224.5 216.1 227.3 210.05 229.2 205.55 Q230.55 202.0 231.05 201.2 L237.25 191.6 237.65 190.95 234.8 186.7 231.4 181.4 227.95 175.6 227.9 175.55 M40.3 221.8 L36.15 222.05 Q37.8 215.4 38.3 208.9 38.75 202.05 38.2 194.95 37.55 188.05 36.0 181.45 L32.75 169.7 35.65 167.4 40.3 164.1 Q43.25 162.15 45.95 160.7 49.05 159.1 51.9 158.4 L57.75 157.65 Q60.8 157.65 63.65 158.95 66.55 160.35 68.95 163.5 L70.65 166.25 Q71.9 168.75 72.65 172.2 73.8 177.7 72.25 183.05 70.75 188.3 67.7 192.4 64.85 196.3 61.05 199.05 57.45 201.6 54.3 202.85 L54.2 206.75 54.3 211.55 54.55 216.45 Q54.7 219.0 55.2 220.8 L40.3 221.8 M58.35 176.95 Q58.05 175.35 57.25 174.1 56.35 172.75 54.45 172.25 52.7 171.95 50.25 173.0 50.25 174.5 50.75 177.8 L52.45 188.7 52.85 192.85 55.15 189.8 56.15 187.95 Q57.45 185.45 58.1 182.65 58.65 180.3 58.5 177.8 L58.35 176.95 M81.5 207.5 Q80.25 205.75 79.5 203.7 78.45 201.05 78.05 197.7 77.75 194.8 77.95 191.2 78.25 187.8 78.85 184.7 79.6 181.1 80.4 178.9 81.3 176.1 82.15 174.05 L99.5 170.55 98.1 176.2 97.35 179.45 Q96.35 184.35 95.75 188.95 95.15 193.2 95.05 197.5 95.05 201.5 95.9 203.55 96.6 205.25 97.75 206.0 L98.4 206.3 Q100.1 206.95 101.8 206.25 103.5 205.6 105.25 203.65 106.85 201.85 107.65 198.9 108.25 196.65 108.45 194.25 L108.8 188.55 108.75 182.4 108.4 176.45 107.9 171.3 107.2 167.7 125.9 163.55 126.5 168.85 126.75 174.15 Q126.8 179.5 125.9 184.95 125.15 190.1 123.1 195.25 121.15 200.3 117.85 204.6 116.15 206.85 113.45 208.75 110.85 210.6 107.7 212.0 104.65 213.3 101.2 213.9 L94.45 214.2 Q91.1 213.8 88.05 212.55 84.95 211.25 82.5 208.6 L81.5 207.5" fill="none" stroke="#000000" stroke-linecap="butt" stroke-linejoin="miter-clip" stroke-miterlimit="4.0" stroke-width="2.0"/>
    </g>
  </defs>
</svg>
