<?xml version="1.0" encoding="UTF-8" standalone="no"?>
<svg xmlns:xlink="http://www.w3.org/1999/xlink" height="300.0px" width="300.0px" xmlns="http://www.w3.org/2000/svg">
  <g transform="matrix(1.0, 0.0, 0.0, 1.0, 0.0, 0.0)">
    <use height="212.55" transform="matrix(1.0, 0.0, 0.0, 1.0, 35.05, 42.65)" width="229.9" xlink:href="#sprite0"/>
  </g>
  <defs>
    <g id="sprite0" transform="matrix(1.0, 0.0, 0.0, 1.0, 114.95, 106.25)">
      <use height="212.55" transform="matrix(1.0, 0.0, 0.0, 1.0, -114.95, -106.25)" width="229.9" xlink:href="#shape0"/>
    </g>
    <g id="shape0" transform="matrix(1.0, 0.0, 0.0, 1.0, 114.95, 106.25)">
      <path d="M91.5 80.55 L90.9 80.8 Q89.65 81.65 88.85 83.4 L88.8 84.0 88.55 84.3 88.35 84.7 87.5 86.85 87.35 87.7 86.85 88.95 86.25 89.9 85.65 91.5 84.4 93.85 84.35 95.05 83.45 97.1 82.7 98.7 82.6 99.3 82.2 99.7 81.9 100.6 81.45 101.6 80.9 102.9 80.8 103.65 79.65 104.65 79.3 105.3 77.4 106.3 76.95 106.2 76.5 105.75 76.5 104.95 76.95 104.35 Q78.75 103.25 79.9 101.3 L80.3 100.3 80.9 99.8 81.3 99.0 81.45 97.95 81.9 96.35 81.95 94.4 81.15 92.3 81.05 91.15 80.8 90.3 80.35 89.9 79.9 89.3 79.65 88.25 79.6 86.85 79.2 85.65 78.6 84.7 77.65 82.25 77.1 81.6 76.5 81.25 75.9 80.7 75.65 80.1 75.9 79.4 76.35 79.35 79.1 79.8 79.9 79.8 80.9 79.65 81.75 79.4 82.35 79.5 82.35 80.1 81.5 81.55 82.2 84.65 83.05 85.8 83.5 86.6 83.5 87.9 83.7 88.95 83.95 89.55 84.35 89.75 84.85 89.35 85.25 87.65 85.65 86.95 86.05 86.45 86.35 85.65 86.6 84.3 86.85 83.95 86.95 83.45 86.8 82.25 86.4 81.6 86.35 81.0 86.1 80.4 86.35 79.8 86.85 79.5 88.65 79.85 89.4 79.8 89.95 79.5 90.65 79.5 91.5 79.65 91.8 80.0 91.5 80.55 M27.6 67.6 L28.35 68.25 27.65 69.9 25.95 70.65 25.65 71.3 25.8 72.1 25.75 73.15 25.4 75.1 25.5 75.9 25.4 76.5 25.75 78.7 25.75 79.65 25.1 79.8 24.8 80.25 25.5 81.55 25.5 88.4 25.35 88.85 25.35 90.65 25.75 91.6 25.5 94.75 25.25 96.0 25.25 97.25 24.2 99.3 23.55 99.5 22.6 101.45 22.45 102.3 22.2 103.0 20.35 104.8 18.65 105.95 17.9 105.85 17.9 104.05 18.55 103.3 19.2 102.8 19.5 101.75 19.85 99.75 20.8 98.55 21.05 96.55 21.5 95.6 21.05 92.7 21.3 91.1 21.65 90.05 21.75 88.7 21.5 87.9 20.95 87.4 20.9 84.55 21.15 84.0 21.15 83.4 20.9 82.65 21.0 80.1 20.9 78.8 21.5 76.95 21.35 75.9 20.9 75.5 20.65 74.8 21.0 73.05 20.35 70.95 19.95 70.5 19.15 69.9 18.45 68.95 18.35 68.2 19.2 67.8 20.25 67.8 23.25 68.2 26.05 67.6 27.6 67.6 M5.8 67.75 L6.45 68.15 6.55 69.15 5.85 72.2 5.85 78.6 5.95 79.6 5.65 80.3 5.4 81.2 5.7 82.65 5.65 85.7 6.1 86.85 5.95 87.45 5.7 89.15 5.8 90.0 6.0 90.7 5.8 91.15 5.85 92.3 7.5 94.3 7.15 94.9 6.35 94.95 4.35 94.9 2.4 95.2 -0.15 95.2 -0.9 95.05 -1.2 94.6 -1.3 94.3 -0.65 93.7 Q0.85 92.8 1.45 91.7 L1.65 90.7 1.65 89.75 1.95 89.35 2.1 88.55 1.95 87.9 1.85 84.95 2.25 84.35 2.25 83.15 2.0 81.45 2.4 80.4 2.25 76.85 2.4 75.55 2.25 74.95 2.2 73.95 1.65 73.25 1.2 72.9 0.65 72.65 0.25 72.0 0.75 71.2 2.55 69.65 3.1 69.45 4.25 68.4 5.25 67.9 5.8 67.75 M35.3 78.95 L38.25 79.55 Q39.3 80.0 40.4 81.55 L41.2 82.25 41.25 83.25 41.25 83.85 40.8 84.0 40.05 84.0 35.35 84.55 33.5 84.4 32.25 84.55 32.05 85.5 32.25 86.3 32.2 89.75 33.1 91.1 36.5 91.85 38.35 91.5 40.2 91.15 41.2 91.15 41.25 91.9 Q40.8 94.9 37.55 94.9 L36.95 95.05 33.8 95.05 Q31.8 94.75 30.7 93.4 29.8 92.4 29.05 90.25 29.05 88.8 29.35 85.95 L29.35 84.85 29.55 84.4 29.55 83.3 Q30.6 80.5 33.2 79.25 L34.0 79.2 35.3 78.95 M32.35 82.5 L32.4 82.95 34.5 82.7 36.5 82.25 Q36.4 81.45 36.1 81.2 L34.75 80.8 Q32.45 80.95 32.35 82.5 M62.45 68.4 L63.05 67.8 63.75 68.2 Q63.6 69.6 62.85 71.05 L62.75 71.5 62.85 72.1 62.85 73.15 62.6 74.6 62.75 75.4 62.7 76.85 62.6 77.5 62.75 79.2 62.5 81.2 62.5 81.85 62.75 83.45 62.75 84.0 62.6 84.9 62.75 85.4 63.1 85.55 63.8 85.15 66.95 81.5 66.9 80.75 66.35 80.1 66.2 79.5 66.9 79.1 67.95 79.3 71.8 79.6 72.4 80.05 72.2 80.6 71.25 81.1 70.4 81.8 Q69.5 82.2 68.75 82.75 L66.8 84.2 66.25 84.85 Q66.75 86.8 68.2 88.9 L70.95 92.5 72.35 93.45 73.15 94.15 73.4 94.75 73.0 95.4 72.05 95.4 70.9 95.15 69.1 95.05 68.4 94.95 67.4 95.15 66.9 95.2 66.35 95.0 66.05 94.5 66.1 93.7 66.5 93.0 66.5 92.5 Q64.85 89.2 63.35 88.25 L62.7 88.45 62.2 89.35 62.3 90.15 62.3 91.15 62.05 91.6 62.05 92.4 63.9 94.65 63.65 95.2 63.1 95.4 62.45 95.4 60.9 95.2 58.9 95.2 58.2 95.4 57.45 95.3 56.8 95.0 56.5 94.65 57.6 93.35 58.2 93.15 58.65 92.7 58.9 90.6 58.85 89.15 58.9 88.35 59.3 86.4 59.2 85.0 59.3 84.25 59.05 83.45 59.15 78.1 58.85 76.65 59.2 75.4 59.0 74.8 59.0 73.9 58.1 72.95 57.45 72.35 57.2 71.8 57.7 71.25 Q60.0 70.6 61.9 69.45 L62.45 68.4 M53.45 80.15 L53.95 80.55 53.95 81.1 53.85 82.0 53.45 82.9 52.55 83.4 51.55 83.35 50.85 82.95 50.5 82.25 49.95 81.85 49.65 82.15 49.25 82.65 49.1 83.5 49.2 84.25 49.1 91.85 49.35 92.7 50.4 93.55 50.8 94.3 50.4 94.85 46.45 94.9 44.85 95.4 44.05 95.4 43.65 94.8 43.9 94.0 45.55 92.9 45.8 91.65 45.8 90.15 45.95 89.3 45.7 88.45 45.9 86.3 45.8 85.0 45.1 83.25 44.25 82.95 43.65 82.55 43.75 81.7 Q46.45 80.7 47.65 79.85 L48.25 79.35 48.7 79.4 49.2 79.95 49.6 80.1 51.2 79.4 52.0 79.25 52.8 79.5 53.45 80.15 M-60.7 70.9 Q-63.05 73.0 -63.05 75.4 L-63.25 76.35 -64.05 78.8 -64.95 81.0 -65.9 83.25 -66.95 86.3 -67.25 87.45 Q-68.05 88.8 -68.05 90.45 -68.05 91.3 -68.7 92.25 -69.25 93.0 -69.25 93.75 -69.25 95.4 -70.55 95.4 -71.7 95.4 -71.7 93.85 -71.7 92.15 -72.35 91.6 -73.05 91.0 -73.05 90.35 L-73.35 89.6 -73.65 89.05 Q-73.65 88.6 -74.25 88.15 L-74.05 87.7 Q-74.8 87.2 -74.8 86.35 -74.8 85.85 -75.1 85.3 -75.45 84.65 -75.9 84.65 -76.7 84.65 -76.85 85.6 L-77.3 86.6 Q-78.1 87.85 -78.1 89.65 -78.1 90.75 -79.1 92.1 L-80.0 93.45 Q-80.0 95.35 -81.15 95.35 -81.55 95.35 -81.9 95.0 L-82.25 94.3 Q-82.25 93.9 -82.55 93.2 L-82.85 92.15 Q-82.85 91.75 -83.3 91.0 L-83.7 89.95 Q-83.7 88.5 -85.0 86.4 L-85.7 84.65 -85.85 84.05 -85.95 83.5 Q-85.95 82.25 -86.4 81.5 -88.0 78.9 -88.15 77.65 L-88.3 76.95 -89.15 74.2 Q-89.3 73.5 -89.8 72.6 L-90.6 71.1 Q-90.7 70.8 -91.45 70.45 L-92.1 70.1 -92.55 69.6 -93.05 68.8 -93.35 67.95 Q-93.0 67.4 -92.2 67.4 L-91.05 67.65 -89.85 67.8 -88.9 67.8 -88.0 67.75 -87.5 67.85 -87.05 67.95 -85.65 67.8 -84.25 67.6 Q-83.4 68.6 -83.4 69.2 -83.4 70.3 -84.15 70.3 -84.6 70.3 -85.0 70.85 L-85.3 71.85 -84.85 73.45 Q-84.2 74.95 -83.55 77.75 L-83.3 77.95 Q-83.3 78.55 -82.75 79.35 L-82.95 80.3 Q-82.95 80.95 -82.4 81.9 -81.8 81.9 -81.6 82.3 -81.05 83.5 -81.05 84.55 L-81.15 85.3 -81.25 86.05 -80.9 86.35 -79.25 85.95 -78.55 84.85 Q-78.2 84.65 -78.1 84.15 L-76.95 83.2 -77.05 82.8 -77.2 82.4 -77.0 81.8 -76.85 81.25 Q-76.85 80.05 -77.6 78.8 L-77.7 78.35 -78.1 77.25 -78.55 75.8 Q-78.7 74.65 -79.7 73.4 -80.35 72.6 -80.4 72.0 -80.6 70.95 -81.35 70.35 -82.75 69.25 -82.75 68.7 -82.75 67.7 -81.4 67.7 L-80.75 67.85 -80.05 68.0 Q-79.45 68.0 -79.1 67.7 L-77.45 67.55 -75.25 67.85 -73.05 68.2 -72.65 68.15 -72.2 68.15 -71.75 68.25 -71.25 68.35 -70.3 68.15 -69.35 67.95 Q-68.2 67.95 -68.2 69.4 -68.2 69.85 -68.7 70.2 L-69.85 70.65 Q-71.1 71.1 -71.4 72.5 -71.8 74.4 -72.6 75.75 -73.3 76.85 -73.3 77.85 L-72.85 79.25 -72.1 80.5 -71.9 82.25 Q-71.9 84.1 -71.0 84.4 -70.65 85.95 -69.9 85.95 -69.3 85.95 -68.3 83.9 L-67.2 81.0 Q-66.45 77.25 -64.8 74.7 L-64.7 73.3 -64.55 71.95 Q-64.55 70.9 -65.15 70.35 -65.65 69.9 -67.0 69.5 L-67.15 68.95 Q-67.15 68.0 -65.8 68.0 L-64.7 68.2 -63.55 68.4 -60.95 67.85 Q-60.05 67.85 -60.05 69.05 L-59.8 69.95 -60.7 70.9 M-76.15 71.2 L-75.75 72.25 Q-75.3 73.1 -75.3 73.75 -75.3 74.9 -74.55 74.9 -74.05 74.9 -73.9 74.2 -73.65 72.85 -73.4 72.7 L-73.3 71.85 -73.15 71.1 Q-73.15 70.05 -74.2 70.05 -75.35 70.05 -76.05 70.5 L-76.15 71.2 M-42.8 82.25 Q-41.75 79.35 -38.35 79.25 L-35.8 80.05 Q-34.85 80.6 -34.3 82.15 L-34.3 89.5 -34.45 91.1 -33.4 92.4 -32.45 92.9 -32.35 94.05 Q-33.55 95.2 -35.1 95.3 L-37.55 94.45 -39.25 95.2 -40.8 95.2 Q-43.55 94.85 -43.55 93.0 L-43.45 92.55 -43.45 91.3 Q-43.15 89.75 -42.5 89.05 L-40.5 87.7 Q-38.65 86.75 -37.85 85.45 -37.25 84.45 -37.25 82.75 L-37.25 82.15 -38.1 81.55 -40.1 82.4 -42.2 82.8 -42.8 82.25 M-47.15 84.0 L-51.85 84.55 -53.7 84.4 -54.95 84.55 -55.15 85.5 -54.95 86.3 -55.0 89.75 -54.1 91.1 -50.7 91.85 -48.85 91.5 -47.0 91.15 -46.0 91.15 -45.95 91.9 Q-46.4 94.9 -49.65 94.9 L-50.25 95.05 -53.4 95.05 Q-55.4 94.75 -56.5 93.4 -57.4 92.4 -58.15 90.25 L-57.85 85.95 -57.85 84.85 -57.65 84.4 -57.65 83.3 Q-56.6 80.5 -54.0 79.25 L-53.2 79.2 -51.9 78.95 Q-49.7 79.2 -48.95 79.55 -47.9 80.0 -46.8 81.55 L-46.0 82.25 -45.95 83.25 -45.95 83.85 -46.4 84.0 -47.15 84.0 M-50.7 82.25 Q-50.8 81.45 -51.1 81.2 -51.4 81.0 -52.45 80.8 -54.75 80.95 -54.85 82.5 L-54.8 82.95 -52.7 82.7 -50.7 82.25 M-21.4 79.65 L-20.55 79.4 -20.05 79.5 -19.4 79.8 -19.4 83.45 -20.0 84.1 -20.8 83.7 -21.1 83.15 -21.4 82.15 -22.0 81.45 -23.2 80.7 -24.4 80.65 -25.4 80.85 -26.15 82.0 -26.1 82.9 -25.3 84.1 -24.15 84.9 -22.15 85.7 -21.05 86.3 -19.8 87.55 -19.1 88.95 -18.85 90.3 -18.85 91.5 -20.05 93.3 -21.2 94.15 -22.8 94.85 -25.45 94.9 -26.6 94.6 -28.45 95.45 -29.4 95.05 -29.5 94.45 -29.05 92.7 -29.3 91.6 -29.4 90.7 -28.8 90.15 -28.15 90.4 -26.7 92.85 -24.9 93.3 -23.85 93.35 -22.65 93.0 -21.8 91.5 -21.6 90.7 -22.7 89.25 Q-26.0 88.0 -27.25 87.7 L-28.0 86.4 -28.7 85.7 -29.15 84.9 -29.25 83.95 -29.15 82.9 -28.05 80.8 -26.75 79.85 -23.3 78.95 -21.4 79.65 M-37.6 87.65 Q-39.0 88.25 -39.55 89.0 -40.15 89.75 -40.25 91.2 -39.95 92.6 -38.95 92.7 -38.2 92.6 -37.25 92.0 L-37.45 90.55 -37.25 90.1 -37.5 89.5 -37.45 88.15 -37.6 87.65 M-6.65 79.55 Q-5.6 80.0 -4.5 81.55 L-3.7 82.25 -3.65 83.25 -3.65 83.85 -4.1 84.0 -4.85 84.0 -9.55 84.55 -11.4 84.4 -12.65 84.55 -12.85 85.5 -12.65 86.3 -12.7 89.75 -11.8 91.1 -8.4 91.85 -6.55 91.5 -4.7 91.15 -3.7 91.15 -3.65 91.9 Q-4.1 94.9 -7.35 94.9 L-7.95 95.05 -11.1 95.05 Q-13.1 94.75 -14.2 93.4 -15.1 92.4 -15.85 90.25 L-15.55 85.95 -15.55 84.85 -15.35 84.4 -15.35 83.3 Q-14.3 80.5 -11.7 79.25 L-10.9 79.2 -9.6 78.95 -6.65 79.55 M-8.8 81.2 L-10.15 80.8 Q-12.45 80.95 -12.55 82.5 L-12.5 82.95 -10.4 82.7 -8.4 82.25 Q-8.5 81.45 -8.8 81.2" fill="#000000" fill-rule="evenodd" stroke="none"/>
      <path d="M17.25 16.7 L16.85 16.7 Q16.2 12.15 13.75 9.7 16.15 5.85 17.05 -3.8 17.95 5.75 20.25 9.7 17.9 12.25 17.25 16.7 M84.05 16.6 L83.65 16.6 Q77.8 15.05 74.3 13.05 70.9 11.1 68.85 8.3 68.7 3.1 71.25 -3.8 71.2 0.35 72.1 2.85 72.95 5.25 74.95 6.6 74.9 9.55 77.05 11.9 79.15 14.15 84.05 16.6 M90.5 -6.15 Q87.05 -8.1 84.05 -8.1 80.15 -8.1 77.85 -5.45 75.85 -3.15 75.85 0.1 75.8 4.15 78.5 6.25 80.75 8.0 86.95 9.8 97.05 12.8 101.3 17.4 105.85 22.3 105.85 31.1 105.85 39.45 100.7 44.8 95.6 50.0 87.85 50.0 83.25 50.0 78.45 47.6 L75.35 46.2 72.75 45.6 Q71.7 45.6 70.7 46.85 70.05 47.65 69.15 49.4 L64.15 49.4 64.15 27.9 69.15 27.9 Q69.8 31.5 72.25 35.3 74.25 38.5 77.8 40.45 81.7 42.6 86.55 42.6 89.65 42.6 91.8 40.3 93.85 38.05 93.85 35.0 93.85 31.25 90.8 28.65 88.95 27.1 85.25 25.5 L77.45 22.3 Q70.7 19.45 67.8 14.95 64.85 10.4 64.85 2.9 64.85 -4.85 70.15 -9.65 75.2 -14.3 82.85 -14.3 87.35 -14.3 91.15 -13.1 94.35 -12.1 95.75 -12.1 96.95 -12.1 98.45 -13.6 L103.35 -13.6 103.35 5.2 98.45 5.2 Q97.35 0.4 95.05 -2.5 93.5 -4.45 90.5 -6.15 M74.15 -0.2 Q74.15 -4.0 76.4 -6.65 79.1 -9.8 84.05 -9.8 89.7 -9.8 94.35 -5.7 98.75 -1.8 99.75 3.5 L101.65 3.5 101.65 -11.9 99.05 -11.9 Q97.75 -10.4 95.95 -10.4 L92.65 -10.9 89.35 -11.9 81.75 -12.5 Q75.85 -12.5 71.45 -8.35 66.65 -3.9 66.65 2.9 66.65 7.7 67.85 10.75 69.2 14.1 72.45 16.8 74.3 15.65 77.35 16.8 80.5 15.55 83.65 16.8 87.45 18.45 89.35 20.45 90.7 21.85 91.35 23.9 94.15 24.7 96.25 28.55 98.4 32.6 98.55 38.1 100.5 32.4 100.1 27.95 99.7 23.8 97.15 19.9 95.3 19.2 91.65 18.4 L84.05 16.8 Q87.75 15.6 90.85 16.8 93.35 15.7 97.75 16.8 95.7 15.05 91.3 13.35 L82.45 10.3 Q77.85 8.75 75.95 6.25 74.15 3.9 74.15 -0.2 M44.65 -12.35 Q43.45 -10.95 43.45 -8.9 43.45 -7.35 44.45 -6.15 45.5 -4.8 47.05 -4.8 48.85 -4.8 50.95 -6.1 51.1 -2.25 49.05 0.6 47.15 3.25 44.45 3.8 L44.45 5.3 Q47.9 4.15 50.15 1.4 52.95 -2.05 52.95 -6.9 52.95 -9.9 51.7 -11.75 50.25 -13.8 47.55 -13.8 45.85 -13.8 44.65 -12.35 M43.5 -13.4 Q45.05 -15.3 47.55 -15.3 50.9 -15.3 52.75 -12.95 54.45 -10.7 54.45 -6.9 54.45 -1.05 51.2 2.75 48.1 6.4 43.05 7.1 L43.05 2.8 Q48.4 1.45 49.35 -3.9 48.25 -3.4 46.65 -3.4 44.65 -3.4 43.35 -4.75 41.95 -6.25 41.95 -8.7 41.95 -11.55 43.5 -13.4 M25.85 -7.4 Q24.35 -7.1 23.5 -5.0 22.65 -2.9 22.65 0.6 L22.65 35.2 Q22.65 38.85 23.35 40.75 24.15 42.85 25.95 43.2 L29.15 43.7 29.15 49.4 5.95 49.4 5.95 43.7 8.15 43.2 Q9.95 42.75 10.75 40.7 11.45 38.8 11.45 35.2 L11.45 0.6 11.25 0.6 1.75 49.4 -4.75 49.4 -14.35 0.6 -14.55 0.6 -14.55 35.2 Q-14.55 38.8 -13.85 40.7 -13.05 42.75 -11.25 43.2 L-9.05 43.7 -9.05 49.4 -27.35 49.4 -27.35 43.7 -24.15 43.2 Q-22.4 42.85 -21.65 40.75 -20.95 38.85 -20.95 35.2 L-20.95 0.6 Q-20.95 -2.9 -21.8 -5.0 -22.65 -7.1 -24.15 -7.4 L-27.35 -7.9 -27.35 -13.6 -4.95 -13.6 1.25 17.1 7.15 -13.6 29.05 -13.6 29.05 -7.9 25.85 -7.4 M27.35 -9.7 L27.35 -11.9 8.85 -11.9 3.35 16.8 Q4.1 16.2 4.9 16.2 5.7 16.2 6.35 16.8 L9.45 0.4 Q10.25 -2.6 11.65 -2.6 13.15 -2.6 13.15 0.4 L13.15 16.8 Q14.7 15.55 16.85 16.8 15.75 19.75 13.75 21.7 16.15 26.95 17.05 38.1 17.95 26.95 20.35 21.7 18.4 19.75 17.25 16.8 18.15 16.2 19.15 16.2 20.1 16.2 20.85 16.8 L20.85 0.6 Q20.85 -8.45 24.75 -9.3 L27.35 -9.7 M-93.15 -7.5 L-96.35 -8.0 -96.35 -13.7 -72.15 -13.7 -72.15 -8.0 -75.35 -7.5 Q-76.95 -7.2 -77.85 -5.1 -78.75 -2.95 -78.75 0.6 L-78.75 28.5 Q-78.75 38.25 -82.05 43.5 -86.2 50.0 -95.65 50.0 -104.45 50.0 -109.0 44.9 -113.15 40.3 -113.15 32.4 -113.15 27.45 -111.2 24.8 -109.35 22.2 -106.05 22.2 -103.5 22.2 -101.7 23.6 -99.85 25.0 -99.85 27.2 -99.85 30.35 -101.85 32.5 -104.25 35.1 -104.25 37.2 -104.25 38.9 -102.25 40.4 -100.15 42.0 -97.45 42.0 -93.75 42.0 -92.0 38.6 -89.95 34.55 -89.95 24.8 L-89.95 0.6 Q-89.95 -2.95 -90.8 -5.1 -91.65 -7.2 -93.15 -7.5 M-94.65 -9.7 L-92.05 -9.3 Q-88.15 -8.45 -88.15 0.6 L-88.15 16.8 Q-86.55 15.5 -84.45 16.8 -85.5 19.5 -87.55 21.7 -84.8 28.2 -85.85 38.1 -84.05 33.15 -82.75 28.35 L-81.05 21.7 Q-82.7 19.9 -84.15 16.8 -82.15 15.55 -80.45 16.8 L-80.45 0.6 Q-80.45 -8.45 -76.55 -9.3 L-74.05 -9.7 -74.05 -11.9 -94.65 -11.9 -94.65 -9.7 M-84.15 16.7 L-84.45 16.7 Q-85.05 12.45 -87.55 9.6 -85.1 5.45 -84.25 -3.8 -83.35 5.65 -81.05 9.6 -83.4 12.3 -84.15 16.7 M-49.75 16.7 L-50.05 16.7 Q-50.7 12.15 -53.15 9.7 -50.75 5.85 -49.85 -3.8 -48.95 5.85 -46.55 9.7 -48.95 12.1 -49.75 16.7 M-6.6 3.65 Q-5.05 7.1 -3.15 9.7 -4.65 12.55 -4.45 16.7 L-4.75 16.7 Q-6.6 12.85 -9.85 9.7 -9.15 7.7 -9.15 4.0 L-9.55 -3.8 -6.6 3.65 M-25.65 -9.7 L-23.05 -9.3 Q-19.15 -8.45 -19.15 0.6 L-19.15 16.8 Q-18.55 16.2 -17.75 16.2 -16.9 16.2 -16.25 16.8 L-16.25 0.4 Q-16.25 -2.6 -14.75 -2.6 -13.25 -2.6 -12.65 0.4 L-9.35 16.8 Q-7.45 15.55 -4.75 16.8 -4.75 18.65 -6.95 21.7 -3.75 27.6 -1.35 38.1 -1.75 26.7 -0.75 21.7 -3.6 19.0 -4.45 16.8 -3.55 16.2 -2.6 16.2 -1.6 16.2 -0.95 16.8 L-6.65 -11.9 -25.65 -11.9 -25.65 -9.7 M-60.25 -11.9 L-60.25 -9.7 -57.65 -9.3 Q-53.75 -8.45 -53.75 0.6 L-53.75 16.8 Q-52.2 15.55 -50.05 16.8 -51.15 19.75 -53.15 21.7 -50.75 26.95 -49.85 38.1 -48.95 26.95 -46.55 21.7 -48.3 19.95 -49.75 16.8 -47.65 15.5 -46.05 16.8 L-46.05 0.6 Q-46.05 -8.45 -42.15 -9.3 L-39.55 -9.7 -39.55 -11.9 -60.25 -11.9 M-61.95 -7.9 L-61.95 -13.6 -37.85 -13.6 -37.85 -7.9 -41.05 -7.4 Q-42.55 -7.1 -43.4 -5.0 -44.25 -2.9 -44.25 0.6 L-44.25 35.2 Q-44.25 38.85 -43.55 40.75 -42.75 42.85 -40.95 43.2 L-37.75 43.7 -37.75 49.4 -61.95 49.4 -61.95 43.7 -58.75 43.2 Q-55.55 42.55 -55.55 35.2 L-55.55 0.6 Q-55.55 -2.9 -56.4 -5.0 -57.25 -7.1 -58.75 -7.4 L-61.95 -7.9" fill="url(#gradient0)" fill-rule="evenodd" stroke="none"/>
      <path d="M39.25 -103.95 Q39.4 -105.35 53.95 -100.5 68.45 -95.65 75.1 -90.8 82.2 -87.55 89.5 -83.75 96.7 -73.8 98.4 -61.1 L88.65 -63.5 87.95 -69.15 Q87.2 -73.8 84.35 -77.85 81.3 -82.1 77.2 -83.55 73.8 -84.8 72.55 -82.1 71.7 -80.3 71.85 -76.35 72.55 -57.9 70.95 -41.25 70.6 -37.3 71.45 -35.3 72.4 -33.05 75.05 -32.5 L79.45 -31.65 Q79.15 -30.5 78.25 -29.15 L76.45 -26.65 45.95 -27.65 Q45.2 -30.05 44.3 -34.3 L48.9 -34.55 Q51.4 -34.75 52.4 -37.1 53.25 -39.15 53.1 -43.55 52.15 -65.85 54.15 -81.4 54.6 -86.0 54.2 -88.0 53.5 -91.65 50.1 -92.8 45.85 -94.35 42.1 -91.2 38.5 -88.2 37.45 -82.85 36.8 -79.75 36.4 -76.3 L26.4 -78.7 Q28.95 -95.95 39.2 -103.95 L39.25 -103.95 M62.85 -63.9 L62.35 -64.0 Q61.15 -69.4 57.4 -73.25 61.2 -76.35 63.5 -85.75 64.2 -76.25 68.05 -70.55 64.2 -68.65 62.85 -63.9 M69.15 -78.9 Q69.15 -83.45 70.95 -84.95 72.85 -86.5 76.95 -85.0 82.5 -82.95 86.4 -77.8 89.9 -73.2 90.75 -68.05 L91.3 -64.55 95.4 -63.5 Q93.75 -74.45 88.4 -83.25 59.9 -97.3 39.85 -101.9 32.05 -94.45 29.6 -80.1 L33.8 -79.05 34.55 -83.15 Q35.7 -89.2 40.1 -92.65 44.95 -96.4 50.75 -94.25 54.85 -92.75 56.3 -89.9 57.55 -87.3 57.05 -82.5 56.2 -75.5 55.85 -65.3 58.8 -66.15 62.35 -63.9 59.9 -60.85 56.9 -59.2 60.75 -52.05 61.95 -39.1 63.85 -51.5 67.95 -57.05 65.05 -59.75 62.85 -63.8 L66.3 -63.7 Q67.95 -63.35 69.1 -62.4 L69.15 -78.9" fill="url(#gradient1)" fill-rule="evenodd" stroke="none"/>
      <path d="M26.4 -34.65 L30.05 -33.3 Q28.3 -29.75 26.4 -26.7 L-6.3 -26.7 -6.85 -33.3 -3.0 -34.15 Q0.25 -35.0 1.25 -37.75 2.45 -41.15 0.7 -48.1 L-0.5 -52.05 -22.35 -52.05 -23.25 -48.1 Q-24.2 -42.7 -21.9 -38.55 -19.95 -34.95 -16.95 -34.15 L-12.9 -33.3 -11.6 -26.7 -39.8 -26.7 -44.7 -33.3 -41.9 -34.15 Q-39.6 -34.85 -38.8 -38.45 L-36.8 -52.2 Q-34.65 -65.1 -27.2 -80.5 -21.35 -92.6 -13.05 -104.6 L0.25 -104.6 11.9 -78.4 Q19.2 -60.7 21.45 -47.95 22.65 -40.85 23.65 -38.15 24.7 -35.2 26.4 -34.65 M4.85 -68.45 Q4.55 -66.05 0.65 -61.9 4.65 -56.95 6.9 -52.6 9.55 -47.6 11.7 -40.2 11.25 -47.75 11.5 -52.85 11.75 -57.65 12.7 -61.9 10.4 -63.4 8.35 -65.25 6.3 -67.1 5.45 -68.45 8.85 -70.1 12.25 -68.45 9.6 -75.8 4.8 -87.0 -0.7 -99.9 -1.9 -102.95 L-11.25 -102.95 Q-22.75 -84.05 -28.5 -68.45 -24.15 -70.1 -20.75 -68.45 -16.85 -78.8 -9.65 -93.6 L-9.3 -93.6 -5.95 -81.5 -1.95 -68.45 Q0.4 -70.2 4.85 -68.45 M2.15 -84.0 Q4.75 -80.1 7.25 -77.85 5.45 -74.65 5.45 -68.6 L4.85 -68.6 Q1.3 -74.55 -3.45 -77.85 -1.9 -82.6 -3.8 -94.4 -0.35 -87.8 2.15 -84.0 M-10.05 -84.1 L-10.75 -84.1 Q-16.0 -72.35 -18.95 -64.05 L-4.05 -64.05 -10.05 -84.1" fill="url(#gradient2)" fill-rule="evenodd" stroke="none"/>
      <path d="M-92.9 -69.05 Q-92.3 -72.2 -92.9 -73.4 -93.55 -74.6 -95.55 -74.0 L-99.95 -72.55 -96.8 -76.85 Q-83.05 -85.85 -70.1 -91.85 -56.95 -98.0 -43.45 -101.6 -35.4 -93.5 -32.95 -79.85 L-45.5 -76.2 -46.3 -80.85 Q-47.75 -86.6 -54.15 -87.65 -59.4 -88.5 -65.2 -86.1 -70.35 -84.0 -72.65 -81.4 -74.7 -79.05 -74.75 -76.1 L-74.6 -63.25 -57.55 -67.8 -57.35 -59.75 -74.35 -55.8 -73.5 -39.65 Q-73.25 -36.1 -71.85 -34.55 -70.45 -32.95 -67.1 -32.6 L-63.0 -32.3 -63.75 -26.65 -93.15 -25.0 -96.55 -28.95 -92.5 -29.75 Q-90.35 -30.3 -90.05 -32.15 -89.8 -33.75 -90.85 -37.0 -93.35 -44.8 -93.9 -53.05 -94.5 -61.55 -92.9 -69.05 M-89.85 -61.9 Q-87.85 -64.15 -86.35 -67.45 -84.8 -70.8 -83.3 -76.05 -83.05 -68.15 -78.75 -65.05 -82.8 -61.4 -83.95 -56.65 L-84.45 -56.5 Q-85.2 -58.85 -86.6 -60.15 -87.85 -61.35 -89.85 -61.9 M-93.25 -76.1 Q-91.1 -76.75 -90.3 -75.85 -89.2 -74.55 -90.0 -70.0 -91.25 -63.0 -90.85 -54.85 -88.0 -56.8 -84.45 -56.4 -86.45 -52.85 -89.45 -50.35 -87.25 -48.4 -85.4 -44.95 -83.5 -41.45 -81.55 -35.6 -82.25 -45.9 -78.2 -52.85 -81.2 -53.9 -83.95 -56.55 -78.8 -59.05 -73.75 -59.05 -68.55 -61.55 -60.3 -62.35 L-60.4 -65.0 -77.65 -60.55 Q-77.85 -68.25 -77.65 -75.1 -77.5 -78.5 -75.5 -81.0 -72.65 -84.45 -65.45 -87.5 -58.4 -90.45 -52.8 -89.85 -45.4 -89.05 -43.3 -81.8 L-42.75 -79.05 -36.4 -80.95 Q-38.55 -91.9 -44.6 -99.25 -71.4 -91.2 -95.6 -76.6 L-96.7 -74.9 -93.25 -76.1" fill="url(#gradient3)" fill-rule="evenodd" stroke="none"/>
      <path d="M39.25 -103.95 L39.2 -103.95 Q28.95 -95.95 26.4 -78.7 L36.4 -76.3 Q36.8 -79.75 37.45 -82.85 38.5 -88.2 42.1 -91.2 45.85 -94.35 50.1 -92.8 53.5 -91.65 54.2 -88.0 54.6 -86.0 54.15 -81.4 52.15 -65.85 53.1 -43.55 53.25 -39.15 52.4 -37.1 51.4 -34.75 48.9 -34.55 L44.3 -34.3 Q45.2 -30.05 45.95 -27.65 L76.45 -26.65 78.25 -29.15 Q79.15 -30.5 79.45 -31.65 L75.05 -32.5 Q72.4 -33.05 71.45 -35.3 70.6 -37.3 70.95 -41.25 72.55 -57.9 71.85 -76.35 71.7 -80.3 72.55 -82.1 73.8 -84.8 77.2 -83.55 81.3 -82.1 84.35 -77.85 87.2 -73.8 87.95 -69.15 L88.65 -63.5 98.4 -61.1 Q96.7 -73.8 89.5 -83.75 82.2 -87.55 75.1 -90.8 56.55 -99.3 39.25 -103.95 M69.15 -78.9 L69.1 -62.4 Q67.95 -63.35 66.3 -63.7 L62.85 -63.8 Q65.05 -59.75 67.95 -57.05 63.85 -51.5 61.95 -39.1 60.75 -52.05 56.9 -59.2 59.9 -60.85 62.35 -63.9 58.8 -66.15 55.85 -65.3 56.2 -75.5 57.05 -82.5 57.55 -87.3 56.3 -89.9 54.85 -92.75 50.75 -94.25 44.95 -96.4 40.1 -92.65 35.7 -89.2 34.55 -83.15 L33.8 -79.05 29.6 -80.1 Q32.05 -94.45 39.85 -101.9 59.9 -97.3 88.4 -83.25 93.75 -74.45 95.4 -63.5 L91.3 -64.55 90.75 -68.05 Q89.9 -73.2 86.4 -77.8 82.5 -82.95 76.95 -85.0 72.85 -86.5 70.95 -84.95 69.15 -83.45 69.15 -78.9 M62.85 -63.9 Q64.2 -68.65 68.05 -70.55 64.2 -76.25 63.5 -85.75 61.2 -76.35 57.4 -73.25 61.15 -69.4 62.35 -64.0 L62.85 -63.9 M25.1 -87.1 Q28.95 -99.85 38.8 -105.95 52.7 -101.75 63.65 -97.3 76.95 -91.85 90.4 -84.25 L106.05 -72.8 Q110.6 -67.0 112.7 -60.5 114.75 -54.15 114.25 -47.85 L98.1 -51.05 87.45 -61.95 Q87.9 -54.2 86.8 -46.2 85.75 -38.4 83.45 -31.55 L88.65 -24.4 77.95 -16.6 51.0 -16.6 44.4 -25.65 Q42.25 -32.8 41.4 -36.6 L46.95 -36.85 Q49.0 -37.0 49.75 -39.15 50.35 -40.95 50.15 -44.5 49.7 -52.85 49.75 -60.65 L38.5 -62.85 34.2 -66.65 Q38.8 -52.55 37.95 -41.0 37.75 -31.85 40.65 -29.1 34.95 -22.1 27.45 -16.6 L2.4 -16.6 0.3 -19.7 0.1 -16.6 -24.45 -16.6 -41.2 -25.6 Q-45.3 -30.05 -48.65 -35.1 L-45.2 -36.1 Q-42.85 -36.75 -41.9 -40.3 L-40.05 -52.2 Q-39.1 -58.9 -36.65 -66.15 L-36.85 -66.1 Q-42.1 -70.0 -48.15 -73.35 L-48.7 -77.5 Q-49.15 -80.3 -50.85 -81.35 -52.45 -82.4 -54.65 -81.6 -57.35 -80.65 -58.6 -78.75 -59.85 -76.8 -59.45 -74.25 L-59.05 -71.85 Q-48.4 -66.75 -40.95 -61.35 -41.25 -56.1 -42.15 -50.95 L-59.05 -47.75 Q-59.5 -40.85 -60.4 -34.55 -56.3 -30.3 -54.45 -25.95 L-59.0 -16.6 -84.35 -16.6 Q-89.75 -20.9 -93.95 -23.8 -97.3 -26.55 -99.95 -29.95 L-94.85 -31.0 Q-93.15 -31.4 -92.9 -33.1 -92.75 -34.5 -93.6 -37.05 -96.25 -44.55 -96.85 -52.55 -97.4 -60.8 -95.65 -68.15 -94.95 -70.95 -95.85 -71.65 L-98.9 -71.5 -103.35 -70.15 Q-101.0 -74.0 -97.8 -77.05 -83.75 -87.1 -69.45 -93.85 -57.55 -99.45 -42.85 -103.95 -33.85 -102.55 -24.7 -99.9 L-21.9 -95.75 Q-18.45 -101.15 -14.5 -106.25 L1.1 -106.25 20.8 -94.25 25.1 -87.1 M2.15 -84.0 Q-0.35 -87.8 -3.8 -94.4 -1.9 -82.6 -3.45 -77.85 1.3 -74.55 4.85 -68.6 L5.45 -68.6 Q5.45 -74.65 7.25 -77.85 4.75 -80.1 2.15 -84.0 M5.45 -68.45 Q6.3 -67.1 8.35 -65.25 10.4 -63.4 12.7 -61.9 11.75 -57.65 11.5 -52.85 11.25 -47.75 11.7 -40.2 9.55 -47.6 6.9 -52.6 4.65 -56.95 0.65 -61.9 4.55 -66.05 4.85 -68.45 0.4 -70.2 -1.95 -68.45 L-5.95 -81.5 -9.3 -93.6 -9.65 -93.6 Q-16.85 -78.8 -20.75 -68.45 -24.15 -70.1 -28.5 -68.45 -22.75 -84.05 -11.25 -102.95 L-1.9 -102.95 Q-0.7 -99.9 4.8 -87.0 9.6 -75.8 12.25 -68.45 8.85 -70.1 5.45 -68.45 M30.05 -33.3 L26.4 -34.65 Q24.7 -35.2 23.65 -38.15 22.65 -40.85 21.45 -47.95 19.2 -60.7 11.9 -78.4 L0.25 -104.6 -13.05 -104.6 Q-21.35 -92.6 -27.2 -80.5 -34.65 -65.1 -36.8 -52.2 L-38.8 -38.45 Q-39.6 -34.85 -41.9 -34.15 L-44.7 -33.3 -39.8 -26.7 -11.6 -26.7 -12.9 -33.3 -16.95 -34.15 Q-19.95 -34.95 -21.9 -38.55 -24.2 -42.7 -23.25 -48.1 L-22.35 -52.05 -0.5 -52.05 0.7 -48.1 Q2.45 -41.15 1.25 -37.75 0.25 -35.0 -3.0 -34.15 L-6.85 -33.3 -6.3 -26.7 26.4 -26.7 Q28.3 -29.75 30.05 -33.3 M5.45 -15.4 L30.85 -15.4 38.25 -5.6 38.25 2.3 35.15 2.8 Q33.65 2.95 32.8 4.7 31.75 6.7 31.75 10.5 L31.75 43.5 38.35 52.1 38.35 59.6 3.05 59.6 0.15 55.7 0.15 59.6 -22.75 59.6 -29.15 51.2 -29.15 42.0 -25.25 41.4 Q-22.65 40.85 -22.65 34.7 L-22.65 0.6 Q-22.65 -5.25 -25.95 -5.6 L-29.1 -6.2 -28.65 -5.6 -28.65 2.3 -31.75 2.8 Q-33.25 2.95 -34.1 4.7 -35.15 6.7 -35.15 10.5 L-35.15 43.5 -28.65 52.0 -28.65 59.6 -57.35 59.6 -63.75 51.2 -63.75 42.0 -59.85 41.4 Q-57.25 40.85 -57.25 34.7 L-57.25 0.6 Q-57.25 -5.25 -60.55 -5.6 L-63.55 -6.15 -63.15 -5.6 -63.15 2.3 -66.25 2.8 Q-67.65 2.95 -68.55 4.7 -69.55 6.75 -69.55 10.5 L-69.55 37.9 Q-69.55 48.5 -75.3 54.7 -80.4 60.2 -87.65 60.2 -99.3 60.2 -107.2 52.05 -114.95 44.0 -114.95 32.4 -114.95 26.75 -112.85 23.7 -110.6 20.4 -106.05 20.4 -103.8 20.4 -101.75 21.45 -99.95 22.35 -99.05 23.6 L-94.15 30.1 Q-93.55 30.9 -92.6 30.55 -91.65 30.15 -91.65 29.0 L-91.65 0.6 Q-91.65 -5.25 -94.95 -5.6 L-98.15 -6.2 -98.15 -15.4 -70.55 -15.4 -63.75 -6.4 -63.75 -15.4 -36.05 -15.4 -29.15 -6.25 -29.15 -15.4 -3.25 -15.4 3.65 -6.2 5.45 -15.4 M27.35 -9.7 L24.75 -9.3 Q20.85 -8.45 20.85 0.6 L20.85 16.8 Q20.1 16.2 19.15 16.2 18.15 16.2 17.25 16.8 18.4 19.75 20.35 21.7 17.95 26.95 17.05 38.1 16.15 26.95 13.75 21.7 15.75 19.75 16.85 16.8 14.7 15.55 13.15 16.8 L13.15 0.4 Q13.15 -2.6 11.65 -2.6 10.25 -2.6 9.45 0.4 L6.35 16.8 Q5.7 16.2 4.9 16.2 4.1 16.2 3.35 16.8 L8.85 -11.9 27.35 -11.9 27.35 -9.7 M29.05 -7.9 L29.05 -13.6 7.15 -13.6 1.25 17.1 -4.95 -13.6 -27.35 -13.6 -27.35 -7.9 -24.15 -7.4 Q-22.65 -7.1 -21.8 -5.0 -20.95 -2.9 -20.95 0.6 L-20.95 35.2 Q-20.95 38.85 -21.65 40.75 -22.4 42.85 -24.15 43.2 L-27.35 43.7 -27.35 49.4 -9.05 49.4 -9.05 43.7 -11.25 43.2 Q-13.05 42.75 -13.85 40.7 -14.55 38.8 -14.55 35.2 L-14.55 0.6 -14.35 0.6 -4.75 49.4 1.75 49.4 11.25 0.6 11.45 0.6 11.45 35.2 Q11.45 38.8 10.75 40.7 9.95 42.75 8.15 43.2 L5.95 43.7 5.95 49.4 29.15 49.4 29.15 43.7 25.95 43.2 Q24.15 42.85 23.35 40.75 22.65 38.85 22.65 35.2 L22.65 0.6 Q22.65 -2.9 23.5 -5.0 24.35 -7.1 25.85 -7.4 L29.05 -7.9 M43.5 -13.4 Q41.95 -11.55 41.95 -8.7 41.95 -6.25 43.35 -4.75 44.65 -3.4 46.65 -3.4 48.25 -3.4 49.35 -3.9 48.4 1.45 43.05 2.8 L43.05 7.1 Q48.1 6.4 51.2 2.75 54.45 -1.05 54.45 -6.9 54.45 -10.7 52.75 -12.95 50.9 -15.3 47.55 -15.3 45.05 -15.3 43.5 -13.4 M49.85 -16.6 Q54.05 -15.55 57.45 -10.95 61.65 -5.3 61.65 1.2 61.65 7.2 57.7 11.4 54.15 15.2 47.85 17.1 L41.35 8.6 41.35 1.3 Q45.05 0.55 46.45 -1.0 43.7 -1.75 42.0 -3.8 40.25 -5.95 40.25 -8.8 40.25 -12.15 42.15 -14.45 43.45 -16.05 45.25 -16.6 L47.35 -16.9 49.85 -16.6 M44.65 -12.35 Q45.85 -13.8 47.55 -13.8 50.25 -13.8 51.7 -11.75 52.95 -9.9 52.95 -6.9 52.95 -2.05 50.15 1.4 47.9 4.15 44.45 5.3 L44.45 3.8 Q47.15 3.25 49.05 0.6 51.1 -2.25 50.95 -6.1 48.85 -4.8 47.05 -4.8 45.5 -4.8 44.45 -6.15 43.45 -7.35 43.45 -8.9 43.45 -10.95 44.65 -12.35 M74.15 -0.2 Q74.15 3.9 75.95 6.25 77.85 8.75 82.45 10.3 L91.3 13.35 Q95.7 15.05 97.75 16.8 93.35 15.7 90.85 16.8 87.75 15.6 84.05 16.8 L91.65 18.4 Q95.3 19.2 97.15 19.9 99.7 23.8 100.1 27.95 100.5 32.4 98.55 38.1 98.4 32.6 96.25 28.55 94.15 24.7 91.35 23.9 90.7 21.85 89.35 20.45 87.45 18.45 83.65 16.8 80.5 15.55 77.35 16.8 74.3 15.65 72.45 16.8 69.2 14.1 67.85 10.75 66.65 7.7 66.65 2.9 66.65 -3.9 71.45 -8.35 75.85 -12.5 81.75 -12.5 L89.35 -11.9 92.65 -10.9 95.95 -10.4 Q97.75 -10.4 99.05 -11.9 L101.65 -11.9 101.65 3.5 99.75 3.5 Q98.75 -1.8 94.35 -5.7 89.7 -9.8 84.05 -9.8 79.1 -9.8 76.4 -6.65 74.15 -4.0 74.15 -0.2 M95.45 -14.1 Q96.7 -14.1 97.75 -15.6 L105.15 -15.6 112.55 -5.6 112.55 15.4 105.95 15.4 96.95 7.0 Q95.35 -1.8 90.35 -1.8 87.75 -1.8 86.35 -0.35 85.05 0.95 85.05 3.3 85.05 5.45 86.35 6.7 87.95 8.3 92.65 9.9 114.95 17.65 114.95 39.2 114.95 48.35 108.9 54.45 103.15 60.2 95.35 60.2 L89.45 59.55 Q86.65 58.85 85.15 57.8 82.25 55.8 80.55 55.8 79.65 55.8 78.8 57.3 L77.65 59.6 68.95 59.6 62.25 50.9 62.25 26.2 71.05 26.2 Q72.3 28.8 74.1 31.75 L77.05 36.0 Q78.7 38.05 80.75 39.3 83.2 40.8 85.85 40.8 87.7 40.8 89.15 39.9 90.85 38.8 90.85 37.0 90.85 34.75 86.2 32.6 80.55 30.4 78.55 29.3 72.2 25.75 68.15 19.95 62.95 12.55 62.95 3.3 62.95 -5.55 69.0 -10.9 74.7 -16.0 83.35 -16.0 L91.05 -15.1 93.65 -14.4 95.45 -14.1 M90.5 -6.15 Q93.5 -4.45 95.05 -2.5 97.35 0.4 98.45 5.2 L103.35 5.2 103.35 -13.6 98.45 -13.6 Q96.95 -12.1 95.75 -12.1 94.35 -12.1 91.15 -13.1 87.35 -14.3 82.85 -14.3 75.2 -14.3 70.15 -9.65 64.85 -4.85 64.85 2.9 64.85 10.4 67.8 14.95 70.7 19.45 77.45 22.3 L85.25 25.5 Q88.95 27.1 90.8 28.65 93.85 31.25 93.85 35.0 93.85 38.05 91.8 40.3 89.65 42.6 86.55 42.6 81.7 42.6 77.8 40.45 74.25 38.5 72.25 35.3 69.8 31.5 69.15 27.9 L64.15 27.9 64.15 49.4 69.15 49.4 Q70.05 47.65 70.7 46.85 71.7 45.6 72.75 45.6 L75.35 46.2 78.45 47.6 Q83.25 50.0 87.85 50.0 95.6 50.0 100.7 44.8 105.85 39.45 105.85 31.1 105.85 22.3 101.3 17.4 97.05 12.8 86.95 9.8 80.75 8.0 78.5 6.25 75.8 4.15 75.85 0.1 75.85 -3.15 77.85 -5.45 80.15 -8.1 84.05 -8.1 87.05 -8.1 90.5 -6.15 M84.05 16.6 Q79.15 14.15 77.05 11.9 74.9 9.55 74.95 6.6 72.95 5.25 72.1 2.85 71.2 0.35 71.25 -3.8 68.7 3.1 68.85 8.3 70.9 11.1 74.3 13.05 77.8 15.05 83.65 16.6 L84.05 16.6 M17.25 16.7 Q17.9 12.25 20.25 9.7 17.95 5.75 17.05 -3.8 16.15 5.85 13.75 9.7 16.2 12.15 16.85 16.7 L17.25 16.7 M-95.6 -76.6 Q-71.4 -91.2 -44.6 -99.25 -38.55 -91.9 -36.4 -80.95 L-42.75 -79.05 -43.3 -81.8 Q-45.4 -89.05 -52.8 -89.85 -58.4 -90.45 -65.45 -87.5 -72.65 -84.45 -75.5 -81.0 -77.5 -78.5 -77.65 -75.1 -77.85 -68.25 -77.65 -60.55 L-60.4 -65.0 -60.3 -62.35 Q-68.55 -61.55 -73.75 -59.05 -78.8 -59.05 -83.95 -56.55 -81.2 -53.9 -78.2 -52.85 -82.25 -45.9 -81.55 -35.6 -83.5 -41.45 -85.4 -44.95 -87.25 -48.4 -89.45 -50.35 -86.45 -52.85 -84.45 -56.4 -88.0 -56.8 -90.85 -54.85 -91.25 -63.0 -90.0 -70.0 -89.2 -74.55 -90.3 -75.85 -91.1 -76.75 -93.25 -76.1 L-96.7 -74.9 -95.6 -76.6 M-89.85 -61.9 Q-87.85 -61.35 -86.6 -60.15 -85.2 -58.85 -84.45 -56.5 L-83.95 -56.65 Q-82.8 -61.4 -78.75 -65.05 -83.05 -68.15 -83.3 -76.05 -84.8 -70.8 -86.35 -67.45 -87.85 -64.15 -89.85 -61.9 M-92.9 -69.05 Q-94.5 -61.55 -93.9 -53.05 -93.35 -44.8 -90.85 -37.0 -89.8 -33.75 -90.05 -32.15 -90.35 -30.3 -92.5 -29.75 L-96.55 -28.95 -93.15 -25.0 -63.75 -26.65 -63.0 -32.3 -67.1 -32.6 Q-70.45 -32.95 -71.85 -34.55 -73.25 -36.1 -73.5 -39.65 L-74.35 -55.8 -57.35 -59.75 -57.55 -67.8 -74.6 -63.25 -74.75 -76.1 Q-74.7 -79.05 -72.65 -81.4 -70.35 -84.0 -65.2 -86.1 -59.4 -88.5 -54.15 -87.65 -47.75 -86.6 -46.3 -80.85 L-45.5 -76.2 -32.95 -79.85 Q-35.4 -93.5 -43.45 -101.6 -56.95 -98.0 -70.1 -91.85 -83.05 -85.85 -96.8 -76.85 L-99.95 -72.55 -95.55 -74.0 Q-93.55 -74.6 -92.9 -73.4 -92.3 -72.2 -92.9 -69.05 M-90.8 -5.1 Q-89.95 -2.95 -89.95 0.6 L-89.95 24.8 Q-89.95 34.55 -92.0 38.6 -93.75 42.0 -97.45 42.0 -100.15 42.0 -102.25 40.4 -104.25 38.9 -104.25 37.2 -104.25 35.1 -101.85 32.5 -99.85 30.35 -99.85 27.2 -99.85 25.0 -101.7 23.6 -103.5 22.2 -106.05 22.2 -109.35 22.2 -111.2 24.8 -113.15 27.45 -113.15 32.4 -113.15 40.3 -109.0 44.9 -104.45 50.0 -95.65 50.0 -86.2 50.0 -82.05 43.5 -78.75 38.25 -78.75 28.5 L-78.75 0.6 Q-78.75 -2.95 -77.85 -5.1 -76.95 -7.2 -75.35 -7.5 L-72.15 -8.0 -72.15 -13.7 -96.35 -13.7 -96.35 -8.0 -93.15 -7.5 Q-91.65 -7.2 -90.8 -5.1 M-94.65 -9.7 L-94.65 -11.9 -74.05 -11.9 -74.05 -9.7 -76.55 -9.3 Q-80.45 -8.45 -80.45 0.6 L-80.45 16.8 Q-82.15 15.55 -84.15 16.8 -82.7 19.9 -81.05 21.7 L-82.75 28.35 Q-84.05 33.15 -85.85 38.1 -84.8 28.2 -87.55 21.7 -85.5 19.5 -84.45 16.8 -86.55 15.5 -88.15 16.8 L-88.15 0.6 Q-88.15 -8.45 -92.05 -9.3 L-94.65 -9.7 M-10.05 -84.1 L-4.05 -64.05 -18.95 -64.05 Q-16.0 -72.35 -10.75 -84.1 L-10.05 -84.1 M-61.95 -7.9 L-58.75 -7.4 Q-57.25 -7.1 -56.4 -5.0 -55.55 -2.9 -55.55 0.6 L-55.55 35.2 Q-55.55 42.55 -58.75 43.2 L-61.95 43.7 -61.95 49.4 -37.75 49.4 -37.75 43.7 -40.95 43.2 Q-42.75 42.85 -43.55 40.75 -44.25 38.85 -44.25 35.2 L-44.25 0.6 Q-44.25 -2.9 -43.4 -5.0 -42.55 -7.1 -41.05 -7.4 L-37.85 -7.9 -37.85 -13.6 -61.95 -13.6 -61.95 -7.9 M-60.25 -9.7 L-60.25 -11.9 -39.55 -11.9 -39.55 -9.7 -42.15 -9.3 Q-46.05 -8.45 -46.05 0.6 L-46.05 16.8 Q-47.65 15.5 -49.75 16.8 -48.3 19.95 -46.55 21.7 -48.95 26.95 -49.85 38.1 -50.75 26.95 -53.15 21.7 -51.15 19.75 -50.05 16.8 -52.2 15.55 -53.75 16.8 L-53.75 0.6 Q-53.75 -8.45 -57.65 -9.3 L-60.25 -9.7 M-25.65 -11.9 L-6.65 -11.9 -0.95 16.8 Q-1.6 16.2 -2.6 16.2 -3.55 16.2 -4.45 16.8 -3.6 19.0 -0.75 21.7 -1.75 26.7 -1.35 38.1 -3.75 27.6 -6.95 21.7 -4.75 18.65 -4.75 16.8 -7.45 15.55 -9.35 16.8 L-12.65 0.4 Q-13.25 -2.6 -14.75 -2.6 -16.25 -2.6 -16.25 0.4 L-16.25 16.8 Q-16.9 16.2 -17.75 16.2 -18.55 16.2 -19.15 16.8 L-19.15 0.6 Q-19.15 -8.45 -23.05 -9.3 L-25.65 -9.7 -25.65 -11.9 M-6.6 3.65 L-9.55 -3.8 -9.15 4.0 Q-9.15 7.7 -9.85 9.7 -6.6 12.85 -4.75 16.7 L-4.45 16.7 Q-4.65 12.55 -3.15 9.7 -5.05 7.1 -6.6 3.65 M-49.75 16.7 Q-48.95 12.1 -46.55 9.7 -48.95 5.85 -49.85 -3.8 -50.75 5.85 -53.15 9.7 -50.7 12.15 -50.05 16.7 L-49.75 16.7 M-84.15 16.7 Q-83.4 12.3 -81.05 9.6 -83.35 5.65 -84.25 -3.8 -85.1 5.45 -87.55 9.6 -85.05 12.45 -84.45 16.7 L-84.15 16.7" fill="#000000" fill-rule="evenodd" stroke="none"/>
    </g>
    <linearGradient gradientTransform="matrix(0.0, 0.0428, -0.0389, 0.0, -93.8, 21.5)" gradientUnits="userSpaceOnUse" id="gradient0" spreadMethod="pad" x1="-819.2" x2="819.2">
      <stop offset="0.0" stop-color="#96c848"/>
      <stop offset="1.0" stop-color="#fd840b"/>
    </linearGradient>
    <linearGradient gradientTransform="matrix(-0.0048, 0.0437, -0.0471, -0.0052, 62.4, -65.45)" gradientUnits="userSpaceOnUse" id="gradient1" spreadMethod="pad" x1="-819.2" x2="819.2">
      <stop offset="0.0" stop-color="#96c848"/>
      <stop offset="1.0" stop-color="#fd840b"/>
    </linearGradient>
    <linearGradient gradientTransform="matrix(9.0E-4, 0.0502, -0.0475, 9.0E-4, -7.35, -65.65)" gradientUnits="userSpaceOnUse" id="gradient2" spreadMethod="pad" x1="-819.2" x2="819.2">
      <stop offset="0.0" stop-color="#96c848"/>
      <stop offset="1.0" stop-color="#fd840b"/>
    </linearGradient>
    <linearGradient gradientTransform="matrix(0.0016, 0.0516, -0.0467, 0.0015, -66.45, -63.3)" gradientUnits="userSpaceOnUse" id="gradient3" spreadMethod="pad" x1="-819.2" x2="819.2">
      <stop offset="0.0" stop-color="#96c848"/>
      <stop offset="1.0" stop-color="#fd840b"/>
    </linearGradient>
  </defs>
</svg>
