<?xml version="1.0" encoding="UTF-8" standalone="no"?>
<svg xmlns:xlink="http://www.w3.org/1999/xlink" height="300.0px" width="300.0px" xmlns="http://www.w3.org/2000/svg">
  <g transform="matrix(1.0, 0.0, 0.0, 1.0, 0.0, 0.0)">
    <use height="143.85" transform="matrix(1.0, 0.0, 0.0, 1.0, 5.05, 93.05)" width="287.9" xlink:href="#shape0"/>
  </g>
  <defs>
    <g id="shape0" transform="matrix(1.0, 0.0, 0.0, 1.0, -5.05, -93.05)">
      <path d="M163.25 96.2 L163.25 103.65 176.1 102.95 176.3 105.75 170.25 106.0 163.25 106.45 163.3 106.95 163.25 110.4 168.85 110.25 176.85 109.85 176.95 112.65 167.95 112.9 160.45 113.55 160.45 96.25 159.65 96.25 159.65 93.5 169.2 93.3 175.75 93.05 175.95 95.8 163.25 96.2 M168.65 193.1 Q170.75 192.35 173.4 192.35 177.65 192.35 180.7 194.25 L179.45 196.75 Q176.7 195.1 173.4 195.1 171.55 195.1 169.9 195.65 168.35 196.15 167.1 197.15 165.85 198.2 165.2 199.45 164.55 200.75 164.55 202.4 164.55 203.95 165.1 205.05 165.6 206.15 166.6 207.1 L168.9 208.45 171.7 208.95 Q176.25 208.95 178.55 205.75 L176.8 205.65 172.5 205.75 172.6 202.9 182.4 202.95 182.0 211.0 182.05 211.6 179.3 211.35 179.4 208.95 Q176.15 211.6 171.7 211.6 L167.85 211.0 Q166.05 210.5 164.75 209.25 163.35 208.1 162.7 206.35 161.95 204.65 161.95 202.35 161.95 200.1 162.75 198.3 163.5 196.5 165.0 195.15 166.45 193.85 168.65 193.1 M198.75 193.8 Q200.9 192.95 203.1 192.95 206.45 192.95 209.05 195.0 L207.65 197.35 Q205.8 195.75 203.1 195.75 L199.65 196.35 Q198.15 196.95 196.95 197.95 195.75 199.1 195.2 200.3 194.55 201.7 194.55 202.95 194.55 204.1 195.05 205.45 195.55 206.6 196.4 207.45 L198.4 208.8 Q199.45 209.3 200.85 209.3 204.1 209.3 207.45 206.6 L209.4 208.5 Q205.7 211.9 200.9 211.9 L197.15 211.25 Q195.45 210.6 194.2 209.4 193.05 208.3 192.35 206.7 191.7 205.2 191.7 203.25 191.7 201.15 192.65 199.3 193.5 197.55 195.15 196.05 196.6 194.7 198.75 193.8 M219.3 191.45 L222.5 198.65 224.65 203.85 225.95 203.85 226.05 206.65 225.9 206.65 227.75 210.8 225.2 211.85 223.95 209.0 222.85 206.7 219.05 206.9 215.3 207.4 214.9 204.65 221.55 203.95 220.25 200.05 218.5 196.0 Q215.95 199.9 211.7 211.55 L209.15 210.55 Q211.05 205.15 213.2 200.5 215.4 195.9 217.95 191.45 L219.3 191.45 M228.65 195.85 L228.5 192.95 233.95 192.5 237.4 192.35 242.0 192.7 Q243.65 192.95 244.95 193.65 246.05 194.2 246.45 195.0 246.9 195.75 246.9 196.65 246.9 197.65 246.15 198.7 L244.2 200.65 Q242.95 201.7 241.35 202.4 L237.95 203.75 Q240.95 210.1 244.7 210.1 245.75 210.1 246.85 209.5 L247.5 212.15 Q246.25 212.9 244.8 212.9 243.55 212.9 242.3 212.25 240.95 211.65 239.75 210.45 238.55 209.4 237.45 207.75 236.45 206.25 235.75 204.3 L232.3 205.15 232.45 212.3 229.7 212.3 229.95 195.65 228.65 195.85 M237.75 195.2 L232.7 195.4 232.45 202.6 236.8 201.4 240.55 200.0 243.1 198.4 Q244.05 197.6 244.05 196.8 244.05 196.0 242.4 195.6 L237.75 195.2 M249.4 195.2 L249.2 192.45 255.3 192.05 260.0 192.55 Q262.3 193.2 263.65 194.2 265.25 195.35 266.05 196.95 266.9 198.65 266.9 200.85 266.9 202.9 266.0 204.85 265.1 206.8 263.45 208.3 261.95 209.7 259.5 210.7 257.2 211.6 254.45 211.6 L250.25 211.6 250.3 206.65 Q250.3 201.05 249.9 195.2 L249.4 195.2 M255.45 194.85 L252.65 195.0 252.85 209.1 257.05 208.65 Q259.05 208.2 260.6 207.25 262.05 206.45 263.1 204.95 264.0 203.55 264.0 201.6 264.0 199.95 263.4 198.65 262.8 197.35 261.7 196.55 260.65 195.75 259.0 195.25 L255.45 194.85 M121.15 93.85 L139.7 93.8 139.5 96.55 131.5 96.2 131.15 113.2 128.4 113.05 128.75 96.2 125.5 96.4 121.25 96.65 121.15 93.85 M144.2 96.85 L144.3 103.85 150.0 103.75 154.45 103.5 154.55 94.3 157.35 94.3 157.15 113.75 154.35 113.75 154.3 113.2 154.4 106.3 144.5 106.6 144.5 113.3 141.7 113.3 141.45 94.15 144.2 94.15 144.2 96.85 M37.9 193.1 Q40.0 192.35 42.7 192.35 46.9 192.35 50.0 194.25 L48.75 196.75 Q46.0 195.1 42.7 195.1 40.9 195.1 39.15 195.65 L36.35 197.15 Q35.15 198.1 34.5 199.45 33.8 200.7 33.8 202.4 33.8 203.8 34.35 205.05 34.8 206.1 35.9 207.1 L38.15 208.45 40.95 208.95 Q45.5 208.95 47.85 205.75 L46.05 205.65 41.75 205.75 41.9 202.9 51.65 202.95 51.25 210.45 51.35 211.6 48.55 211.35 48.65 208.95 Q45.45 211.6 40.95 211.6 38.9 211.6 37.1 211.0 35.4 210.5 34.0 209.25 32.65 208.1 31.95 206.35 31.2 204.65 31.2 202.35 31.2 200.1 32.0 198.3 32.7 196.55 34.3 195.15 35.7 193.9 37.9 193.1 M53.35 192.95 L62.25 192.35 66.85 192.7 Q68.5 192.95 69.8 193.65 70.9 194.2 71.3 195.0 71.75 195.75 71.75 196.65 71.75 197.65 71.0 198.7 L69.05 200.65 Q67.8 201.7 66.2 202.4 L62.8 203.75 Q65.8 210.1 69.55 210.1 70.6 210.1 71.7 209.5 L72.4 212.15 Q71.05 212.9 69.65 212.9 68.4 212.9 67.15 212.25 65.8 211.65 64.6 210.45 63.4 209.4 62.3 207.75 61.3 206.25 60.6 204.3 L57.15 205.15 57.3 212.3 54.55 212.3 54.8 195.65 53.5 195.85 53.35 192.95 M67.25 195.6 L62.6 195.2 57.55 195.4 57.3 202.6 61.65 201.4 65.4 200.0 67.95 198.4 Q68.9 197.6 68.9 196.8 68.9 196.0 67.25 195.6 M74.15 196.1 L74.15 192.75 90.7 192.75 90.7 195.95 77.55 195.95 77.55 202.7 89.8 202.0 90.15 204.75 83.65 205.1 77.6 205.45 77.6 208.65 91.15 207.6 91.5 210.4 74.8 211.8 74.9 203.6 74.75 196.1 74.15 196.1 M93.45 196.1 L93.45 192.75 110.0 192.75 110.0 195.95 96.85 195.95 96.85 202.7 109.1 202.0 109.45 204.75 102.95 205.1 96.95 205.45 96.95 208.65 110.45 207.6 110.8 210.4 94.1 211.8 94.2 203.6 94.05 196.1 93.45 196.1 M112.25 195.65 L112.1 192.85 130.7 192.8 130.45 195.55 122.5 195.2 122.15 212.2 119.35 212.05 119.6 203.25 119.7 195.2 112.25 195.65 M139.85 191.95 L140.0 194.75 137.5 194.8 137.5 209.45 140.1 209.3 140.25 212.1 136.3 212.15 132.5 212.35 132.4 209.55 134.7 209.5 134.85 205.95 134.8 194.9 132.55 195.15 132.15 192.35 139.85 191.95 M143.05 193.35 L146.05 192.9 Q150.05 203.5 157.3 207.9 L157.05 193.1 159.85 193.05 160.1 211.65 157.3 211.65 157.3 211.15 Q153.45 208.9 150.75 205.95 147.9 203.05 145.7 198.85 L145.25 211.25 142.5 211.05 143.0 204.8 143.2 196.9 143.05 193.35 M143.35 219.4 L139.1 219.65 138.95 216.85 157.55 216.8 157.35 219.55 149.35 219.2 149.0 236.2 146.25 236.05 146.6 219.2 143.35 219.4 M161.6 218.2 Q163.0 216.9 165.0 216.05 L165.2 216.45 166.65 216.15 167.95 216.05 Q169.65 216.05 170.95 216.7 172.2 217.25 173.25 218.4 174.2 219.6 174.7 221.0 175.25 222.55 175.25 224.3 175.25 226.7 174.25 229.0 173.25 231.3 171.6 232.95 170.0 234.6 167.75 235.7 165.5 236.7 163.1 236.7 L160.35 236.15 Q159.1 235.55 158.3 234.55 157.4 233.45 157.0 232.1 156.55 230.75 156.55 229.0 156.55 226.9 157.15 224.95 157.75 223.05 158.9 221.25 160.1 219.5 161.6 218.2 M127.85 217.8 Q129.95 216.95 132.15 216.95 135.55 216.95 138.15 219.0 L136.75 221.35 Q134.9 219.75 132.2 219.75 130.25 219.75 128.75 220.35 127.25 220.95 126.05 221.95 124.85 223.1 124.3 224.3 123.65 225.55 123.65 226.95 123.65 228.3 124.15 229.45 124.6 230.6 125.5 231.45 126.35 232.35 127.5 232.8 L129.95 233.3 Q133.2 233.3 136.55 230.6 L138.5 232.5 Q134.8 235.9 130.0 235.9 128.05 235.9 126.25 235.25 124.55 234.6 123.3 233.4 122.15 232.3 121.45 230.7 120.8 229.2 120.8 227.25 120.8 225.2 121.7 223.3 122.6 221.55 124.2 220.05 125.8 218.6 127.85 217.8 M159.65 226.6 Q159.15 228.15 159.15 229.55 159.15 233.75 163.6 233.75 165.4 233.75 167.0 232.9 L169.8 230.65 Q171.0 229.25 171.75 227.5 172.45 225.65 172.45 223.9 172.45 221.5 171.2 220.25 170.0 218.9 167.8 218.9 L166.65 219.0 165.25 219.3 165.15 219.0 Q164.0 219.65 162.95 220.8 162.0 221.85 161.0 223.55 160.2 224.9 159.65 226.6 M114.95 222.65 L117.05 227.85 118.4 227.85 118.5 230.65 118.3 230.65 120.2 234.8 117.6 235.85 116.4 233.0 115.25 230.7 111.5 230.9 107.7 231.4 107.3 228.65 114.0 227.95 112.65 224.05 110.9 220.0 Q108.45 223.7 104.15 235.55 L101.6 234.55 Q103.4 229.4 105.6 224.5 107.9 219.65 110.4 215.45 L111.7 215.45 114.95 222.65 M101.7 219.05 L88.05 220.0 88.0 220.55 88.0 226.9 93.45 226.65 99.45 226.3 99.45 229.1 88.0 229.7 87.85 236.05 85.1 235.9 85.35 225.0 85.25 220.15 84.75 220.15 84.65 217.4 93.75 216.95 101.55 216.25 101.7 219.05 M214.05 217.65 Q208.5 230.3 199.9 236.25 L198.4 234.0 Q203.25 231.35 205.7 227.65 201.25 224.2 197.05 217.65 L199.35 216.05 Q203.55 223.2 207.0 225.85 209.15 222.1 211.5 216.5 L214.05 217.65 M186.05 216.35 L190.7 216.7 Q192.45 217.0 193.6 217.65 194.65 218.15 195.15 219.0 195.6 219.75 195.6 220.65 195.6 221.65 194.85 222.7 L192.9 224.65 190.0 226.4 186.6 227.75 Q189.65 234.1 193.35 234.1 194.4 234.1 195.5 233.5 L196.2 236.15 Q194.85 236.9 193.5 236.9 L190.95 236.25 Q189.7 235.65 188.4 234.45 187.2 233.35 186.15 231.75 185.0 230.05 184.45 228.3 L181.0 229.15 181.15 236.3 178.35 236.3 178.65 219.65 177.3 219.85 177.15 216.95 182.65 216.5 186.05 216.35 M186.4 219.2 L181.4 219.4 181.15 226.6 185.5 225.4 189.2 224.0 Q190.95 223.1 191.75 222.4 192.75 221.55 192.75 220.8 192.75 220.0 191.1 219.6 L186.4 219.2" fill="#000000" fill-rule="evenodd" stroke="none"/>
      <path d="M241.65 118.3 L241.4 114.65 262.2 113.3 262.75 121.9 259.9 122.1 Q259.6 117.25 257.7 117.4 L254.35 117.6 Q253.25 117.65 252.55 118.15 251.9 118.7 251.7 120.75 251.45 123.1 251.65 127.05 L252.3 138.85 257.05 138.55 Q259.3 138.5 259.05 134.2 L259.0 133.6 261.75 133.4 262.65 146.95 259.85 147.15 259.8 146.75 Q259.6 142.2 257.3 142.35 L252.55 142.65 254.05 165.05 254.7 169.15 Q255.15 170.6 255.75 170.95 256.3 171.4 257.35 171.3 L263.95 170.9 Q265.85 170.75 265.55 165.85 L268.3 165.7 268.85 174.35 245.3 175.85 245.05 172.1 246.1 172.05 Q248.45 171.9 248.0 164.65 L245.4 125.05 Q245.05 121.85 244.7 120.6 244.35 119.05 243.7 118.65 243.05 118.25 242.1 118.3 L241.65 118.3 M229.85 118.45 Q231.5 119.9 232.6 122.15 233.6 124.35 233.85 127.45 234.3 134.0 231.85 138.35 229.35 142.6 224.6 143.8 226.15 144.4 227.55 145.55 228.95 146.8 229.85 148.5 230.9 150.25 231.8 153.1 L233.65 159.85 235.0 165.65 236.0 169.6 Q236.45 171.2 237.05 171.95 237.6 172.65 238.7 172.6 241.1 172.45 240.85 168.4 L240.85 168.15 243.9 167.95 244.0 169.75 Q244.25 173.05 242.5 174.8 240.9 176.45 237.95 176.7 235.95 176.85 234.4 175.75 232.95 174.7 231.7 172.65 230.45 170.25 229.7 167.7 229.1 165.85 228.05 161.3 227.0 156.55 226.05 153.85 225.1 150.95 223.95 149.2 222.7 147.35 221.5 146.7 220.4 146.0 218.8 145.75 L220.25 168.9 Q220.45 171.5 221.3 172.55 222.2 173.55 223.55 173.45 L224.15 173.4 224.4 177.2 211.6 178.0 211.35 174.25 211.95 174.2 Q213.4 174.15 214.0 173.15 214.6 172.35 214.45 169.3 L211.65 125.5 211.25 122.7 210.6 121.15 Q210.15 120.7 209.7 120.55 L208.65 120.5 207.95 120.55 207.7 116.75 221.25 115.9 225.95 116.4 Q228.1 117.0 229.85 118.45 M219.95 119.75 Q218.1 119.9 217.75 120.85 217.4 121.75 217.55 124.25 L218.6 141.45 222.65 141.2 Q228.05 140.9 227.35 130.3 227.0 124.05 225.45 121.75 224.0 119.5 221.3 119.7 L219.95 119.75 M203.05 125.7 L200.15 125.9 Q199.85 121.1 198.0 121.15 L194.65 121.35 Q193.55 121.45 192.85 121.95 192.25 122.35 192.0 124.5 191.75 126.9 191.95 130.8 L192.6 142.65 197.35 142.35 Q199.6 142.2 199.3 138.0 L199.3 137.4 202.05 137.2 202.9 150.75 200.15 150.9 200.1 150.55 Q199.8 146.05 197.6 146.1 L192.85 146.45 193.8 161.7 194.35 168.85 Q194.55 171.25 195.0 172.95 195.35 174.35 196.0 174.75 196.65 175.2 197.6 175.1 L204.25 174.7 Q206.2 174.55 205.8 169.65 L208.6 169.45 209.15 178.15 185.55 179.65 185.35 175.9 186.4 175.8 Q188.75 175.65 188.3 168.4 L185.7 128.8 185.0 124.35 Q184.55 122.8 183.95 122.4 L182.35 122.05 181.95 122.1 181.7 118.4 202.5 117.1 203.05 125.7 M170.15 119.15 Q172.05 119.0 173.9 119.85 175.8 120.7 177.1 122.1 178.5 123.4 179.35 125.3 180.15 127.1 180.3 128.95 180.5 132.25 179.5 134.35 178.55 136.35 176.45 136.5 174.65 136.6 173.5 135.05 172.4 133.5 172.25 131.0 171.95 126.8 174.55 125.1 172.6 122.8 170.1 122.95 167.65 123.1 166.1 125.1 164.5 127.25 163.6 130.7 162.7 134.3 162.55 139.2 162.35 144.15 162.7 150.05 163.0 154.65 163.65 161.05 164.2 166.3 165.35 169.85 166.45 173.55 168.4 175.65 170.3 177.7 173.55 177.55 176.7 177.35 178.55 175.1 180.35 172.85 181.1 170.05 L183.25 169.9 Q183.15 172.15 182.55 174.0 181.95 176.05 180.75 177.55 179.65 179.1 177.9 180.15 176.2 181.15 174.15 181.3 169.45 181.6 166.15 179.75 162.85 177.95 160.75 174.05 158.55 170.05 157.45 164.05 156.35 158.05 155.8 149.85 155.4 143.9 155.85 138.1 156.3 132.65 157.95 128.5 159.65 124.4 162.55 121.9 165.5 119.45 170.15 119.15 M287.1 131.5 Q287.5 136.6 289.6 138.1 290.55 138.75 291.95 138.85 292.85 138.95 292.95 140.15 293.05 141.65 292.15 141.75 291.05 141.8 289.95 142.4 289.0 142.9 288.5 144.5 288.05 146.0 288.15 147.95 288.3 149.8 289.8 155.3 291.25 160.75 291.5 164.25 291.9 170.3 288.4 174.5 285.3 178.2 280.85 178.95 L277.85 179.35 Q276.8 179.35 276.7 178.2 276.6 176.8 277.4 176.75 L279.45 176.55 Q282.8 175.8 284.7 172.8 286.75 169.65 286.45 165.05 286.1 160.45 285.35 156.4 L284.45 150.1 Q284.2 146.35 285.8 143.8 L287.25 141.75 287.8 140.5 Q287.75 140.0 287.1 139.25 L285.25 137.15 Q283.45 134.9 283.25 131.1 283.15 129.45 283.4 125.05 283.6 120.45 283.4 117.4 283.15 113.0 280.2 110.15 277.8 107.95 275.0 107.55 L272.8 107.45 Q272.25 107.45 272.1 106.2 272.05 104.95 272.55 104.85 L274.65 104.8 Q279.2 104.75 283.05 107.2 288.05 110.4 288.45 116.55 288.6 119.1 287.85 124.55 287.0 129.95 287.1 131.5 M45.95 127.0 L56.0 126.4 73.4 173.9 70.95 135.15 Q70.7 131.45 70.05 130.4 69.45 129.35 68.15 129.4 L67.25 129.45 67.05 125.7 77.0 125.05 77.2 128.8 76.6 128.85 Q75.25 128.95 74.5 130.2 73.8 131.5 73.95 134.4 L76.65 176.95 Q76.95 181.25 77.8 186.5 L72.05 186.85 52.9 135.85 55.7 179.5 Q55.8 181.8 56.7 182.95 57.6 184.05 58.75 184.0 L59.45 183.95 59.7 187.65 49.85 188.25 49.6 184.6 50.3 184.55 Q51.75 184.5 52.4 183.6 52.95 182.8 52.7 179.7 L50.05 137.35 49.65 133.75 49.05 131.75 Q48.7 131.1 48.15 130.9 L47.0 130.75 46.2 130.8 45.95 127.0 M42.45 131.05 L41.55 131.1 Q39.8 131.2 39.5 132.95 39.15 134.65 39.45 139.3 L41.95 178.6 Q42.2 182.05 42.85 183.45 43.55 184.9 45.1 184.8 L45.85 184.75 46.05 188.5 33.25 189.3 33.0 185.55 33.8 185.5 Q35.6 185.35 35.95 183.5 36.25 181.65 36.1 179.05 L33.8 142.7 Q33.4 136.5 32.85 134.15 32.3 131.65 30.4 131.8 L29.6 131.85 29.35 128.05 42.2 127.25 42.45 131.05 M20.7 123.4 L18.65 123.65 Q15.25 124.45 13.35 126.9 11.3 129.55 11.55 133.5 11.85 137.8 12.6 141.6 L13.55 148.45 Q13.8 152.45 12.1 154.8 L10.7 156.85 Q10.15 157.6 10.2 158.1 10.25 158.6 10.9 159.3 L12.65 161.4 Q14.5 163.55 14.75 167.45 L14.65 174.3 Q14.4 178.35 14.65 182.25 15.2 190.7 23.05 192.55 L25.45 192.75 Q25.9 192.7 26.0 194.15 26.1 195.3 25.6 195.3 L23.45 195.35 Q18.75 195.4 15.05 193.1 10.05 189.9 9.6 183.15 9.45 180.3 10.25 174.85 11.0 169.05 10.85 167.05 10.55 161.95 8.35 160.45 7.4 159.75 5.95 159.75 5.15 159.65 5.05 158.4 5.0 157.7 5.2 157.25 5.45 156.85 5.8 156.8 L8.05 156.2 Q9.0 155.75 9.5 154.1 9.95 152.55 9.85 150.6 9.7 148.45 8.2 142.7 6.7 137.2 6.5 134.35 6.15 128.85 9.65 125.15 12.7 121.9 17.2 121.2 L20.2 120.85 Q21.3 120.8 21.4 121.9 21.5 123.4 20.7 123.4 M151.75 120.3 L152.0 124.1 151.35 124.1 Q149.95 124.25 149.3 125.45 148.55 126.75 148.75 129.7 L151.45 172.2 Q151.8 177.3 152.6 181.75 L146.85 182.1 127.7 131.1 130.45 174.8 Q130.6 177.15 131.5 178.2 132.35 179.35 133.5 179.25 L134.25 179.2 134.45 182.9 124.6 183.5 124.4 179.85 125.1 179.8 Q126.6 179.75 127.15 178.85 127.65 178.05 127.5 175.0 L124.8 132.65 124.45 129.0 Q124.2 127.55 123.8 127.0 123.45 126.4 122.9 126.15 L121.75 126.0 120.95 126.05 120.75 122.3 130.75 121.65 148.2 169.15 145.75 130.4 Q145.45 126.65 144.85 125.65 144.15 124.6 142.95 124.65 L142.05 124.7 141.8 120.95 151.75 120.3 M116.95 122.5 L117.2 126.3 116.3 126.35 Q114.65 126.4 114.25 128.2 113.9 130.2 114.2 134.55 L116.7 173.85 Q116.95 177.3 117.6 178.7 118.3 180.15 119.9 180.05 L120.6 180.0 120.85 183.75 108.0 184.55 107.8 180.8 108.6 180.75 Q110.4 180.7 110.7 178.75 111.05 177.05 110.9 174.3 L108.6 138.0 Q108.15 131.7 107.65 129.4 107.05 126.9 105.2 127.05 L104.4 127.1 104.15 123.35 116.95 122.5 M93.0 128.5 Q91.9 127.9 90.55 127.95 88.65 128.1 87.35 130.0 85.95 131.85 86.15 134.55 86.4 138.35 87.45 141.05 88.45 143.65 90.05 146.15 L93.45 150.5 97.05 154.55 Q99.8 157.9 101.7 161.65 103.6 165.4 104.0 170.6 104.25 174.7 103.5 177.55 102.75 180.4 101.2 182.45 99.6 184.4 97.55 185.3 95.5 186.25 93.0 186.4 88.65 186.7 85.25 183.0 81.9 179.35 80.9 173.05 L83.15 171.65 Q84.15 175.75 86.6 178.3 89.05 180.9 91.85 180.75 93.35 180.6 94.35 179.95 L96.2 178.2 97.3 175.9 Q97.7 174.65 97.6 173.35 97.4 170.0 96.15 166.95 95.05 164.15 93.1 161.1 L89.05 155.5 84.65 149.75 Q82.7 147.05 81.65 143.75 80.6 140.25 80.4 136.65 80.05 130.35 82.5 127.0 84.95 123.65 89.4 123.35 91.8 123.2 93.35 124.4 94.95 125.55 96.05 127.55 L95.85 124.3 98.7 124.15 99.4 134.8 96.5 135.0 96.0 132.35 94.8 130.1 Q94.0 129.1 93.0 128.5" fill="#ff1f70" fill-rule="evenodd" stroke="none"/>
    </g>
  </defs>
</svg>
