<?xml version="1.0" encoding="UTF-8" standalone="no"?>
<svg xmlns:xlink="http://www.w3.org/1999/xlink" height="300.0px" width="300.0px" xmlns="http://www.w3.org/2000/svg">
  <g transform="matrix(1.0, 0.0, 0.0, 1.0, 0.0, 0.0)">
    <use height="349.6" transform="matrix(1.0, 0.0, 0.0, 1.0, -21.0, -32.65)" width="338.0" xlink:href="#shape0"/>
  </g>
  <defs>
    <g id="shape0" transform="matrix(1.0, 0.0, 0.0, 1.0, 21.0, 32.65)">
      <path d="M317.0 157.95 Q317.0 223.8 267.5 270.35 218.0 316.95 148.0 316.95 78.0 316.95 28.5 270.35 -21.0 223.8 -21.0 157.95 -21.0 92.1 28.5 45.5 78.0 -1.05 148.0 -1.05 218.0 -1.05 267.5 45.5 317.0 92.1 317.0 157.95" fill="url(#gradient0)" fill-rule="evenodd" stroke="none"/>
      <path d="M155.4 52.9 L157.3 50.5 151.9 52.3 Q148.45 53.35 146.4 53.3 L145.45 53.15 144.45 53.0 Q143.6 55.15 141.4 59.1 139.7 62.8 139.75 66.2 139.85 70.6 143.7 71.55 147.15 72.3 151.2 69.9 150.95 67.2 151.1 66.25 151.4 64.15 153.2 64.35 152.6 61.05 153.2 58.0 153.8 55.05 155.4 52.9 M153.75 48.45 Q157.8 47.15 158.45 46.15 L158.55 46.65 159.3 46.55 160.05 44.65 160.65 40.7 154.6 40.05 Q153.5 41.85 149.9 45.6 146.7 48.95 145.65 51.35 L147.3 50.6 Q148.4 50.05 148.7 49.6 L148.4 49.3 Q149.6 49.75 153.75 48.45 M151.8 23.35 L151.7 23.05 151.9 23.3 151.8 23.35 M175.15 67.65 L171.95 69.75 168.25 71.8 Q169.15 73.0 167.45 74.5 165.95 75.7 163.9 76.15 163.6 80.65 166.4 82.8 169.2 85.05 173.3 82.85 176.45 81.2 179.2 78.0 L183.55 72.3 Q182.5 71.45 181.5 69.5 180.65 67.65 179.95 65.2 L179.05 61.8 Q178.5 65.1 175.15 67.65 M182.45 58.5 L182.3 58.8 Q182.1 59.85 183.05 63.3 184.0 66.85 184.75 67.4 L184.45 67.35 184.35 67.6 184.5 70.6 Q185.55 69.25 188.05 64.1 190.7 58.6 190.55 57.6 L188.75 55.65 Q187.55 54.25 186.75 54.05 L184.3 56.1 Q182.7 57.25 182.0 58.15 L182.75 58.4 182.45 58.5 M199.7 58.25 L199.6 58.25 199.55 57.95 199.7 58.25 M194.4 48.15 L193.25 47.6 190.35 50.7 190.45 50.95 192.05 50.15 192.05 50.25 191.85 50.3 190.65 51.35 Q191.1 53.4 192.3 54.1 L192.25 53.9 194.4 48.15 M163.3 32.55 L162.05 32.2 157.55 36.85 157.7 37.0 159.4 36.95 Q160.5 36.85 161.05 36.35 L161.1 34.9 161.25 34.9 161.6 36.7 161.75 36.7 163.5 32.7 163.3 32.55 M165.35 29.05 L165.2 29.1 164.85 29.4 165.0 29.6 165.35 29.05 M176.8 -16.45 L176.45 -15.9 176.75 -15.6 176.55 -15.2 Q176.4 -14.3 175.35 -12.3 174.5 -10.65 174.6 -9.3 L174.95 -9.2 174.95 -8.85 174.5 -8.25 174.05 -7.45 172.1 -2.05 Q170.6 1.5 170.1 3.4 170.45 3.7 171.0 3.8 170.15 4.1 169.65 5.1 169.2 5.9 169.2 6.8 L170.85 7.1 170.9 7.2 168.95 7.25 168.5 7.95 167.9 9.1 169.6 10.05 167.55 9.45 166.65 11.8 167.05 12.15 166.6 12.0 Q165.55 13.0 165.3 14.65 L167.1 15.7 165.05 15.15 163.8 17.2 Q163.1 18.35 162.8 19.4 L162.8 19.5 164.2 19.9 162.6 19.8 163.05 20.3 162.25 20.3 161.35 22.1 163.05 23.3 161.05 22.75 Q160.6 22.85 159.65 24.45 L159.8 24.6 161.1 25.1 159.45 24.8 159.9 25.35 159.25 25.2 157.9 26.5 Q157.1 27.4 157.1 28.15 L157.3 28.2 Q158.2 27.75 160.1 28.2 L163.15 28.7 163.75 27.25 163.6 28.95 164.15 29.1 Q167.5 26.15 173.2 19.65 178.9 13.15 182.2 10.15 L186.05 6.95 Q188.95 4.45 188.8 3.6 L186.2 -0.8 186.45 -0.75 188.1 1.3 Q189.15 2.6 189.55 3.9 194.7 -0.2 199.05 -5.1 202.4 -8.85 206.8 -14.9 L209.4 -18.95 213.7 -28.35 214.35 -30.65 Q214.9 -32.2 215.5 -32.65 L213.55 -27.3 Q209.45 -16.85 204.15 -10.0 L197.8 -2.45 Q201.25 -3.2 204.85 -1.45 208.7 0.45 209.1 3.85 L209.25 3.7 Q209.5 2.0 210.75 -0.35 L212.75 -4.2 Q214.85 -9.0 218.55 -14.05 221.45 -17.85 226.15 -22.9 L228.2 -25.25 230.55 -27.35 230.5 -27.2 224.65 -20.75 Q218.0 -13.5 213.85 -5.35 209.65 2.85 207.55 12.65 L207.8 12.6 211.05 12.5 213.85 12.85 210.5 12.85 Q208.3 12.8 207.3 13.65 L205.65 20.15 Q204.3 24.85 201.0 32.65 197.5 41.15 196.3 45.0 L196.7 45.3 198.2 44.3 198.15 44.5 197.15 45.5 199.1 47.95 200.95 49.8 201.25 49.55 202.05 48.1 Q202.6 47.2 202.5 46.4 L202.0 46.2 202.85 46.2 202.55 46.05 201.55 45.15 202.45 45.6 203.25 45.65 Q203.85 45.1 204.2 43.75 L202.5 42.75 204.6 43.35 205.05 42.7 205.75 41.75 205.3 41.2 205.8 41.35 206.15 41.2 204.95 39.95 205.3 40.05 206.2 40.95 208.05 39.1 209.25 36.9 209.2 36.8 207.75 35.75 209.35 36.55 Q210.2 36.6 210.8 35.5 L211.4 33.95 212.7 33.2 213.4 31.95 211.95 30.9 213.7 31.65 213.95 31.5 214.55 30.4 214.8 29.6 213.65 28.2 213.85 28.25 215.15 29.45 Q216.75 28.75 217.2 26.55 217.8 27.25 218.75 26.4 L220.1 24.9 224.1 20.3 Q227.3 16.8 227.9 16.8 L227.95 17.0 Q229.4 16.35 230.7 14.75 L233.0 11.9 233.3 12.0 233.6 11.95 233.8 11.3 233.7 10.65 233.9 10.8 234.1 11.0 234.25 11.4 Q233.7 12.95 231.9 14.85 L228.55 17.7 226.15 19.0 220.9 24.55 Q217.05 28.65 216.65 30.3 L218.1 30.65 216.45 30.5 214.85 32.45 215.65 33.65 214.6 32.85 213.55 34.5 214.05 34.75 213.45 34.7 213.3 34.95 213.95 35.9 213.65 35.85 213.1 35.1 211.35 37.55 211.65 37.8 212.85 38.15 211.05 38.0 209.95 39.75 Q208.8 41.2 208.55 41.95 L208.6 42.15 209.9 42.55 208.1 42.5 208.85 43.5 208.55 43.5 207.95 42.75 206.45 45.1 207.0 46.05 206.9 46.05 206.85 45.85 Q206.15 45.5 205.85 45.85 L205.15 46.9 205.55 47.25 206.5 47.6 204.8 47.45 Q204.3 47.8 203.8 48.7 203.3 49.75 203.55 50.3 L202.85 50.0 202.95 50.25 203.15 51.8 202.45 50.1 Q199.85 50.85 198.2 50.05 L196.8 49.3 Q195.85 48.8 194.95 48.65 L192.9 54.55 192.9 54.65 194.0 54.5 193.75 55.0 193.4 55.4 194.15 57.15 194.65 58.55 194.85 58.5 Q195.9 58.7 197.2 57.45 198.35 56.3 198.55 55.6 199.0 55.9 200.45 55.15 L202.6 53.8 202.4 53.45 Q203.15 53.65 204.3 52.75 205.4 51.95 205.55 51.05 L206.4 51.1 207.1 50.5 207.15 49.9 207.5 50.5 210.95 50.0 214.45 49.05 216.2 50.65 218.1 52.05 217.7 52.25 217.4 52.6 217.0 56.7 216.6 56.55 216.15 56.65 216.8 52.4 214.45 49.9 211.05 50.4 Q208.5 50.8 208.2 51.25 L208.55 51.25 Q207.45 51.55 206.45 52.5 205.45 53.5 205.2 54.45 L204.9 53.8 204.75 53.8 203.3 55.15 201.7 56.2 201.75 56.9 201.6 56.25 201.3 56.3 198.75 57.9 Q197.2 59.0 197.0 59.85 L195.15 59.55 193.05 59.6 Q192.75 59.55 192.2 59.1 L191.2 58.5 Q190.85 61.15 188.4 65.25 L184.9 71.75 186.25 72.3 Q185.8 73.1 185.05 76.05 184.35 78.85 183.65 80.05 L182.6 81.35 Q181.95 82.2 182.15 82.8 181.25 82.5 181.85 81.3 L183.0 79.4 Q183.95 78.65 184.55 76.4 184.95 73.85 185.25 72.95 L184.85 72.95 184.6 72.6 Q183.75 73.1 182.9 74.5 L181.6 76.7 Q178.3 80.85 173.8 83.6 172.05 84.65 169.8 84.85 167.5 85.15 166.35 84.25 165.15 83.4 163.65 79.75 162.25 76.05 161.9 75.8 161.85 75.7 152.3 70.95 L151.1 71.35 149.6 71.75 145.7 72.2 142.2 72.1 Q138.85 71.3 138.75 66.45 L138.9 63.8 139.85 60.0 Q140.45 58.6 141.75 56.15 L143.7 52.4 143.7 52.3 143.35 52.3 143.1 52.0 140.8 53.8 138.6 55.75 137.4 57.85 Q136.8 59.35 136.0 59.8 L135.75 59.65 135.35 59.55 136.9 57.4 138.25 55.15 142.9 51.25 142.5 51.15 143.05 50.95 143.25 51.05 143.85 51.15 144.2 51.6 Q144.95 51.1 145.8 49.8 L147.05 47.7 153.75 39.85 153.65 39.65 Q152.2 39.55 151.3 38.3 L149.4 36.2 150.0 35.75 Q150.0 34.7 150.7 31.4 151.3 28.45 151.15 27.15 L150.55 27.2 Q151.2 27.0 151.7 25.3 L152.2 23.2 150.7 19.95 150.1 18.0 148.8 18.0 146.6 17.65 142.55 20.2 142.55 19.85 142.25 19.7 144.35 18.5 Q145.95 17.5 146.1 16.95 L146.0 16.45 148.4 17.2 150.85 17.55 151.75 20.9 Q152.4 23.15 153.15 23.65 L153.45 23.7 Q153.1 23.85 152.65 27.05 152.15 30.4 152.7 30.9 151.95 31.2 152.05 31.95 152.15 32.65 152.7 33.0 152.05 33.2 151.65 34.7 151.25 36.15 151.45 36.9 L151.9 37.4 Q152.45 36.85 153.55 36.85 L155.5 36.75 155.65 36.2 Q155.75 35.95 156.1 35.8 L156.3 35.85 156.55 36.65 161.4 32.0 160.95 31.65 Q159.1 31.35 157.85 30.3 156.4 29.1 155.85 27.1 L153.95 27.35 155.85 26.75 155.6 26.5 155.3 26.45 Q156.1 26.2 156.7 25.1 L157.15 23.65 156.05 22.65 157.5 23.45 158.55 21.75 157.55 21.55 158.5 21.55 Q158.85 21.45 159.05 20.95 L160.2 19.1 159.0 18.9 160.3 18.95 159.8 18.1 159.15 17.45 159.4 17.45 160.5 18.35 160.55 18.35 163.15 14.15 162.05 13.0 163.4 13.85 164.3 12.7 164.85 11.3 163.6 11.1 165.0 11.05 165.1 10.75 164.7 10.4 165.25 10.65 166.2 8.95 164.95 8.7 166.5 8.65 167.6 6.5 166.8 5.35 167.0 5.4 167.75 6.15 167.9 5.95 Q168.1 5.25 168.8 4.4 L169.85 2.9 171.75 -1.95 Q172.95 -5.6 173.5 -6.85 L173.7 -9.85 Q174.45 -13.3 176.45 -16.7 L177.75 -16.95 177.55 -16.7 176.8 -16.45" fill="#8f3600" fill-rule="evenodd" stroke="none"/>
      <path d="M20.15 151.5 L17.85 152.35 15.45 153.4 13.7 154.35 11.55 155.95 10.9 156.75 10.95 156.95 11.55 158.9 12.8 161.55 12.95 161.75 26.05 153.75 24.05 150.45 20.15 151.5 M24.05 167.8 L19.15 170.45 20.15 171.2 Q20.95 171.75 21.5 171.75 L22.35 171.45 23.75 170.5 25.1 169.5 24.05 167.8 M43.85 150.75 L43.0 150.95 41.95 151.25 41.6 151.4 44.8 156.6 43.95 154.15 Q43.6 152.4 43.85 150.75 M116.85 125.4 L117.3 121.75 112.8 118.1 112.05 117.5 116.85 125.4 M124.85 93.55 L125.15 94.0 125.1 93.45 124.85 93.55 M146.15 87.4 L147.9 88.05 Q150.35 89.15 152.05 91.9 153.65 94.6 153.6 97.2 153.55 99.3 152.95 101.2 L152.35 102.85 151.2 105.05 149.4 107.15 146.8 109.1 Q144.4 110.65 141.9 111.4 139.55 112.15 136.95 112.15 L133.4 112.1 131.35 101.5 130.45 101.1 Q128.6 100.25 127.1 98.35 L127.5 99.65 Q128.2 102.6 128.45 105.6 L128.7 111.6 128.55 122.05 128.45 125.55 128.25 128.4 127.9 131.45 Q127.45 134.8 126.15 137.3 124.7 140.0 122.25 141.55 L119.95 142.7 117.55 143.5 114.75 144.1 110.05 136.4 113.9 134.05 114.7 133.15 115.65 131.1 115.7 131.05 116.25 129.0 116.6 127.05 105.15 134.05 95.25 117.8 95.2 117.85 105.1 134.05 83.65 147.15 73.75 130.9 73.7 130.95 83.6 147.2 71.25 154.75 71.2 154.7 71.15 154.75 69.1 156.35 Q67.65 157.25 66.2 157.5 L64.25 157.55 63.8 158.25 62.1 160.35 59.6 162.35 Q57.1 163.9 54.4 163.9 L51.95 163.55 Q49.05 162.7 46.8 159.85 L51.15 167.0 38.75 174.55 37.95 173.25 35.3 175.95 32.1 178.8 Q30.35 180.2 28.45 181.4 24.4 183.85 20.55 184.2 L19.0 184.3 Q15.9 184.3 13.0 183.1 9.6 181.65 6.7 178.65 4.1 176.0 1.7 172.1 -0.8 168.05 -1.5 163.85 -2.15 159.55 -1.05 155.55 0.05 151.65 2.75 148.25 5.4 145.0 9.4 142.55 L13.8 140.2 Q15.05 139.55 16.05 139.15 17.4 138.6 18.15 138.4 L21.8 137.35 25.0 146.75 33.85 141.35 Q34.55 140.65 35.5 139.9 L37.75 138.4 41.65 136.05 42.35 137.65 43.8 135.9 46.1 133.7 48.85 131.65 Q50.5 130.65 52.15 130.1 L55.95 129.7 55.15 128.4 66.25 121.6 66.75 122.15 68.25 120.35 Q69.5 119.05 70.95 118.2 72.65 117.1 74.55 116.75 L77.5 116.65 76.65 115.25 87.75 108.5 88.25 109.05 89.75 107.25 92.4 105.05 Q94.15 104.0 96.05 103.65 L97.1 103.5 97.6 102.95 98.75 101.9 101.15 100.1 Q101.7 99.65 102.35 99.3 103.7 98.45 105.05 98.1 106.85 97.7 108.65 98.15 110.25 98.6 112.05 99.75 L114.3 101.25 113.6 100.3 113.15 99.85 113.1 99.8 109.25 96.9 116.55 90.5 112.0 74.15 127.1 72.05 127.3 84.95 127.7 84.4 Q129.15 82.65 131.35 81.3 L134.7 79.5 141.6 76.45 146.15 87.4" fill="#ffffff" fill-rule="evenodd" stroke="none"/>
      <path d="M74.05 180.75 L73.75 180.1 73.35 179.55 Q72.45 179.7 70.85 180.65 L67.2 182.9 68.3 184.65 71.95 182.45 74.05 180.75 M119.85 170.5 Q118.45 168.2 117.15 167.0 116.1 166.1 115.5 166.1 L114.7 166.4 114.1 166.95 113.95 167.6 Q113.9 169.4 116.05 172.9 117.2 174.8 118.35 175.8 119.25 176.65 119.9 176.65 L120.75 176.35 Q122.7 175.15 119.85 170.5 M206.15 119.2 L204.6 116.65 Q203.4 118.95 201.1 120.35 199.1 121.55 196.55 121.55 L193.35 121.25 191.05 120.95 Q189.95 120.95 189.2 121.45 187.95 122.2 187.7 123.1 187.2 124.75 188.95 127.55 190.0 129.3 191.15 130.35 192.3 131.4 193.1 131.4 193.6 131.4 194.3 131.0 L195.45 129.65 196.45 127.35 198.05 123.8 Q199.3 121.75 201.2 120.65 203.5 119.2 206.15 119.2 M229.2 78.65 Q233.65 78.65 237.5 81.1 241.4 83.55 244.2 88.15 L253.35 103.2 Q256.05 107.6 255.0 111.85 253.95 116.1 249.5 118.8 246.35 120.75 243.1 120.75 240.35 120.75 237.95 119.3 235.55 117.8 233.85 115.1 L226.5 102.95 225.45 101.7 Q225.1 101.35 224.95 101.35 L224.0 101.75 Q223.45 102.05 223.45 102.45 223.35 103.5 224.5 105.35 L231.35 116.6 Q234.05 121.05 233.0 125.25 231.95 129.55 227.5 132.25 224.3 134.2 221.1 134.2 217.9 134.2 215.25 132.3 214.45 136.1 211.85 139.6 208.75 143.7 203.4 146.95 199.8 149.2 196.05 150.35 192.3 151.5 188.75 151.5 L183.35 150.8 Q184.45 154.0 182.95 157.2 181.45 160.35 177.95 162.5 174.55 164.55 171.35 164.55 L168.8 164.2 Q166.25 169.6 160.25 173.3 154.4 176.85 149.15 176.85 145.7 176.85 142.75 175.3 L142.15 177.6 Q140.8 181.75 137.75 185.3 134.65 188.9 130.1 191.65 126.5 193.9 122.75 195.05 119.05 196.2 115.5 196.2 L110.6 195.65 Q111.2 198.9 109.5 202.15 107.9 205.25 104.95 207.0 101.05 209.4 97.25 209.4 95.0 209.4 92.95 208.55 90.25 207.35 88.2 204.7 L83.95 199.3 Q83.3 198.45 82.75 198.45 81.85 198.45 80.2 199.45 L78.1 200.7 81.6 206.45 Q84.55 211.4 83.65 215.9 82.65 220.6 77.85 223.55 74.55 225.55 71.25 225.55 68.2 225.55 65.55 223.9 62.9 222.2 61.0 219.05 L43.1 189.75 Q39.6 183.95 40.8 179.05 42.05 174.2 48.0 170.55 L63.65 161.0 Q70.75 156.65 77.35 156.65 82.05 156.65 86.0 158.9 90.0 161.15 92.5 165.3 L93.0 166.15 Q94.15 161.75 97.25 157.95 100.45 154.1 105.35 151.1 109.0 148.85 112.75 147.7 116.5 146.55 120.05 146.55 124.45 146.55 128.4 148.3 127.55 143.6 131.05 138.45 134.65 133.25 141.7 128.9 145.7 126.45 149.45 125.05 154.45 123.1 158.55 123.1 162.6 123.1 165.7 124.95 165.9 122.55 166.65 120.4 168.0 116.3 171.05 112.7 174.1 109.15 178.65 106.35 182.2 104.2 185.8 103.05 189.4 101.95 192.8 101.95 L195.8 102.2 191.5 95.2 Q188.85 90.75 189.85 86.55 190.9 82.25 195.35 79.55 198.6 77.6 201.75 77.6 204.55 77.6 206.95 79.05 209.35 80.55 211.0 83.3 L213.25 86.95 Q215.2 84.05 218.75 81.9 224.1 78.65 229.2 78.65" fill="#ffffff" fill-rule="evenodd" stroke="none"/>
      <path d="M103.55 233.15 Q104.45 232.6 104.05 232.05 L103.7 231.55 102.8 231.95 99.25 234.1 100.05 235.3 103.55 233.15 M113.6 249.4 Q115.15 248.45 115.5 247.6 L115.35 247.05 115.1 246.75 114.95 246.75 Q114.1 246.75 112.55 247.65 L108.9 249.9 109.95 251.6 113.6 249.4 M225.85 183.1 Q228.2 182.0 230.25 181.8 228.15 179.55 226.45 176.75 224.5 173.55 223.5 170.3 222.35 172.05 220.25 173.35 L220.0 173.5 225.85 183.1 M278.85 117.0 Q281.5 115.4 284.15 115.4 286.8 115.4 289.15 116.9 291.45 118.35 293.1 121.05 295.25 124.5 295.1 127.85 294.95 131.2 292.55 133.65 L289.65 136.65 Q288.05 138.25 287.9 139.05 287.75 139.8 288.7 141.35 L294.05 150.1 Q296.9 154.75 295.6 159.15 294.45 163.2 290.25 165.75 287.05 167.7 283.8 167.7 281.0 167.7 278.6 166.25 276.25 164.8 274.55 162.0 L270.1 154.7 Q269.95 156.15 269.15 157.55 272.2 158.7 273.8 161.3 275.0 163.3 275.1 165.65 275.3 169.0 273.1 172.6 269.6 178.35 260.3 184.0 256.65 186.25 252.9 187.4 249.2 188.55 245.65 188.55 242.1 188.55 238.85 187.45 240.4 190.9 238.8 194.4 237.85 196.35 235.95 198.2 234.05 200.0 230.95 201.9 225.85 205.05 221.1 205.05 217.65 205.05 214.65 203.45 210.7 201.3 207.8 196.6 L200.85 185.1 Q199.05 185.95 197.45 186.05 196.3 187.95 194.1 189.35 L193.8 189.5 199.65 199.1 Q202.45 197.75 204.8 197.75 209.3 197.75 212.0 202.2 214.5 206.25 212.6 210.35 211.7 212.35 209.8 214.2 207.85 216.0 204.75 217.9 199.65 221.0 194.9 221.0 191.5 221.0 188.45 219.4 184.55 217.3 181.6 212.55 L174.65 201.1 Q173.1 201.85 171.65 202.0 L181.95 218.85 Q184.65 223.3 183.65 227.35 182.65 231.4 178.2 234.1 175.4 235.85 172.55 235.85 171.0 235.85 169.55 235.3 167.45 240.65 162.0 244.0 156.6 247.25 151.5 247.25 148.0 247.25 144.8 245.7 141.65 244.15 139.05 241.2 140.25 246.05 138.7 250.8 137.45 254.65 134.4 258.15 131.35 261.6 126.75 264.4 L111.05 273.95 Q107.0 276.45 103.3 276.45 96.85 276.45 92.4 269.1 L75.65 241.7 Q71.6 235.1 73.55 229.8 75.05 225.8 79.9 222.85 L94.6 213.9 Q102.55 209.05 109.1 209.05 113.3 209.05 116.8 211.05 120.25 213.05 122.6 216.85 126.0 222.35 125.2 227.4 128.85 228.0 132.05 230.4 L127.35 222.75 Q124.65 218.3 125.7 214.05 126.75 209.8 131.2 207.1 134.4 205.15 137.6 205.15 140.4 205.15 142.8 206.6 145.15 208.1 146.85 210.85 L154.25 222.95 155.25 224.25 155.75 224.55 156.7 224.15 157.3 223.45 Q157.35 222.45 156.2 220.55 L149.35 209.3 Q146.65 204.9 147.7 200.65 148.75 196.35 153.2 193.65 156.4 191.7 159.6 191.7 161.25 191.7 162.75 192.25 163.25 189.15 166.05 187.0 L165.6 186.3 Q162.8 181.7 163.8 177.6 164.75 173.45 169.25 170.75 172.45 168.75 175.6 168.75 177.9 168.75 180.0 169.85 182.75 171.35 184.75 174.65 L185.15 175.25 185.4 175.1 Q187.7 173.75 189.9 173.6 190.8 172.1 192.25 171.05 L191.8 170.3 Q189.0 165.75 189.95 161.6 190.95 157.5 195.4 154.75 198.65 152.75 201.75 152.75 204.1 152.75 206.2 153.9 208.95 155.35 210.95 158.65 L211.35 159.3 211.6 159.15 Q214.1 157.6 216.5 157.6 218.0 157.6 219.35 158.2 221.25 159.0 222.65 160.85 223.4 155.75 226.65 151.35 229.95 146.85 235.55 143.45 243.15 138.8 250.6 138.8 257.05 138.8 262.5 142.3 L261.6 140.8 Q259.0 136.55 259.9 132.3 260.8 128.0 264.85 125.55 267.7 123.85 270.55 123.85 272.25 123.85 273.85 124.4 274.85 119.45 278.85 117.0" fill="#ffffff" fill-rule="evenodd" stroke="none"/>
      <path d="M7.5 154.95 Q7.2 155.8 7.4 157.05 7.65 158.35 8.25 159.8 L9.65 162.85 11.4 165.85 Q14.95 171.7 18.35 173.95 21.65 176.15 24.8 174.25 L26.45 173.15 28.1 171.95 29.5 170.7 30.65 169.7 25.9 161.85 19.5 165.3 18.35 162.75 30.0 155.65 37.25 167.6 35.45 169.85 32.95 172.5 29.95 175.1 26.75 177.4 Q23.55 179.35 20.55 179.65 17.55 179.95 14.95 178.8 12.35 177.7 9.95 175.25 7.6 172.85 5.5 169.45 3.4 166.0 2.85 162.6 2.3 159.15 3.2 156.05 4.05 152.9 6.25 150.2 8.5 147.45 11.85 145.35 L13.8 144.3 15.95 143.2 Q17.3 142.55 18.0 142.25 L19.65 141.65 21.3 146.5 19.25 147.1 16.7 148.05 Q15.2 148.65 14.15 149.2 13.0 149.7 12.0 150.35 10.45 151.3 9.25 152.35 8.05 153.4 7.5 154.95" fill="#df2000" fill-rule="evenodd" stroke="none"/>
      <path d="M33.55 145.9 L35.9 148.7 35.95 148.7 36.1 146.2 36.35 144.9 36.85 143.85 38.25 142.55 Q39.05 141.95 40.2 141.25 L42.5 146.45 40.95 146.9 Q40.15 147.2 39.45 147.6 L38.65 148.2 38.1 148.95 37.75 149.85 37.45 151.05 46.0 165.05 40.45 168.45 28.55 148.9 33.55 145.9" fill="#df2000" fill-rule="evenodd" stroke="none"/>
      <path d="M68.7 151.3 L67.4 152.35 65.95 152.95 64.7 152.95 63.55 152.6 62.55 152.0 61.75 153.8 60.8 155.45 59.6 157.0 57.9 158.35 Q55.65 159.7 53.45 159.1 51.25 158.5 49.5 155.6 48.55 154.1 48.25 152.7 47.95 151.3 48.35 150.05 48.8 148.75 49.95 147.55 50.95 146.35 53.0 145.0 L56.3 142.85 54.55 140.0 Q53.85 138.85 52.9 138.7 52.0 138.55 50.5 139.45 L48.2 141.2 45.8 143.85 43.85 142.25 45.4 140.1 47.2 138.0 49.1 136.1 Q50.25 135.1 51.3 134.5 52.6 133.7 53.75 133.3 L55.95 133.05 Q57.0 133.25 57.95 133.95 58.9 134.65 59.75 136.05 L65.25 145.05 Q67.15 148.2 68.7 147.25 L70.45 145.75 71.25 147.05 70.7 148.5 69.85 150.0 68.7 151.3 M55.0 151.35 Q55.8 152.7 56.65 153.3 L58.35 153.4 60.0 152.1 61.3 150.55 60.8 149.9 57.45 144.65 Q55.35 145.95 54.5 146.75 53.65 147.65 53.6 148.15 L53.65 148.75 54.0 149.6 55.0 151.35" fill="#df2000" fill-rule="evenodd" stroke="none"/>
      <path d="M82.25 123.5 L90.9 137.65 85.35 141.05 77.4 127.95 Q76.35 126.25 75.25 125.75 74.2 125.25 72.85 126.05 72.45 126.3 71.9 126.85 L70.95 127.9 70.1 129.15 69.45 130.45 78.5 145.25 72.95 148.65 61.05 129.1 66.0 126.1 67.9 128.05 67.95 128.05 68.8 126.35 70.05 124.4 71.55 122.5 73.4 121.0 Q74.45 120.35 75.7 120.1 L78.05 120.15 Q79.2 120.4 80.3 121.2 81.4 122.05 82.25 123.5" fill="#df2000" fill-rule="evenodd" stroke="none"/>
      <path d="M103.75 110.4 L112.4 124.55 106.85 127.95 98.85 114.85 Q97.8 113.1 96.75 112.65 95.7 112.15 94.35 112.95 L93.4 113.75 92.45 114.8 91.6 116.05 90.95 117.35 100.0 132.15 94.45 135.5 82.5 116.0 87.45 113.0 89.35 114.95 89.45 114.9 90.3 113.25 91.5 111.3 93.05 109.4 94.9 107.9 Q96.0 107.25 97.2 107.0 L99.55 107.05 Q100.7 107.3 101.8 108.15 102.85 108.95 103.75 110.4" fill="#df2000" fill-rule="evenodd" stroke="none"/>
      <path d="M122.05 95.4 Q123.35 97.5 123.95 100.05 124.6 102.65 124.85 105.35 L125.05 111.0 124.95 121.4 124.85 124.75 124.65 127.45 124.3 130.3 Q123.95 133.0 123.0 134.8 122.05 136.6 120.55 137.5 L118.75 138.45 117.1 139.0 115.95 137.15 116.35 136.9 Q117.35 136.3 118.35 134.9 L119.9 131.7 120.55 129.25 121.1 126.05 121.55 122.65 121.85 119.4 115.65 114.35 110.4 110.4 Q108.0 108.65 106.45 107.75 L104.15 106.55 Q103.45 106.4 102.95 106.55 102.4 106.75 102.2 106.9 L102.05 106.95 100.9 105.15 101.7 104.4 104.8 102.1 Q105.65 101.6 106.4 101.4 L107.95 101.45 Q108.85 101.65 110.35 102.55 L113.6 104.85 117.55 108.0 121.85 111.85 121.95 111.75 121.75 107.95 121.05 104.7 119.85 101.75 118.3 98.85 117.7 98.0 116.45 96.5 116.0 96.05 119.85 92.65 120.9 93.8 122.05 95.4" fill="#df2000" fill-rule="evenodd" stroke="none"/>
      <path d="M123.55 76.05 L123.75 89.15 121.0 89.7 117.45 76.9 123.55 76.05" fill="#df2000" fill-rule="evenodd" stroke="none"/>
      <path d="M136.8 82.55 L139.85 81.15 141.6 85.4 139.9 85.8 138.1 86.35 136.45 86.95 Q135.6 87.3 135.1 87.6 L134.05 88.35 133.55 88.95 133.6 89.65 134.0 90.6 Q134.55 91.5 135.55 91.55 L137.9 91.35 140.75 90.75 143.75 90.45 Q145.3 90.45 146.6 91.05 147.95 91.7 149.0 93.4 150.0 95.05 149.95 96.55 L149.5 99.35 149.0 100.8 148.2 102.25 147.0 103.7 145.15 105.1 Q143.1 106.35 141.1 107.0 L137.1 107.55 136.25 103.05 138.1 103.1 140.15 103.05 142.25 102.7 144.2 101.85 145.3 101.05 146.0 100.15 Q146.15 99.75 145.9 99.1 L145.2 97.6 Q144.65 96.65 143.55 96.5 L141.2 96.65 138.35 97.25 135.4 97.55 Q133.9 97.55 132.55 96.9 131.2 96.3 130.1 94.55 129.4 93.4 129.4 91.85 129.45 90.25 129.8 89.05 130.3 87.5 131.25 86.3 132.2 85.15 133.8 84.15 L136.8 82.55" fill="#df2000" fill-rule="evenodd" stroke="none"/>
      <path d="M45.05 179.45 Q45.9 176.15 50.45 173.4 L66.1 163.8 Q73.85 159.15 80.3 160.3 86.15 161.35 89.45 166.8 92.05 171.1 91.35 175.35 90.65 179.5 86.95 182.85 L87.0 182.95 Q90.75 181.0 93.55 181.2 96.7 181.45 99.15 184.5 L101.9 187.9 106.3 193.75 Q107.75 196.15 106.7 198.95 105.7 201.5 103.25 203.0 100.0 205.0 97.15 204.8 94.0 204.6 91.75 201.7 L87.5 196.25 Q85.65 193.9 83.25 193.85 81.2 193.8 78.5 195.45 L72.95 198.8 78.55 207.95 Q80.7 211.5 80.1 214.5 79.5 217.5 76.15 219.55 72.85 221.55 69.9 220.75 66.95 219.9 64.8 216.35 L46.9 187.1 Q44.2 182.65 45.05 179.45 M67.35 189.6 L74.4 185.25 Q77.5 183.4 78.2 181.55 78.95 179.7 77.55 177.45 76.2 175.15 74.2 174.95 72.25 174.8 69.15 176.65 L62.1 180.95 67.35 189.6" fill="#8f3600" fill-rule="evenodd" stroke="none"/>
      <path d="M138.75 175.8 Q136.45 182.75 128.4 187.65 120.4 192.55 113.15 191.4 105.2 190.1 100.1 181.75 95.0 173.4 97.5 165.75 99.8 158.8 107.85 153.9 115.85 149.0 123.1 150.2 131.05 151.4 136.15 159.75 141.25 168.15 138.75 175.8 M118.2 162.1 Q115.6 160.8 113.0 162.4 107.65 165.65 113.0 174.4 115.4 178.35 118.05 179.55 120.7 180.75 123.25 179.15 125.8 177.6 125.95 174.75 126.1 171.8 123.65 167.85 121.0 163.45 118.2 162.1" fill="#8f3600" fill-rule="evenodd" stroke="none"/>
      <path d="M134.45 140.6 Q137.45 135.8 144.15 131.75 150.8 127.65 156.25 126.75 163.75 125.55 166.95 130.8 L175.55 144.9 177.65 147.9 179.4 150.4 Q180.8 152.6 179.7 154.9 178.7 156.95 176.25 158.45 173.2 160.35 170.7 159.85 168.55 159.45 166.75 157.25 166.6 160.95 164.2 164.2 162.1 167.1 158.55 169.3 153.0 172.65 148.5 172.2 143.6 171.7 140.5 166.65 137.85 162.25 139.75 157.75 142.0 152.55 150.6 146.55 154.1 144.05 155.15 142.55 156.25 140.95 155.3 139.35 154.35 137.8 152.6 137.8 150.8 137.8 148.3 139.35 145.4 141.1 143.65 145.15 L142.25 148.05 Q141.3 149.6 139.9 150.45 138.0 151.6 136.35 151.25 134.65 150.85 133.5 148.95 131.35 145.45 134.45 140.6 M160.2 147.35 Q159.85 149.1 157.25 151.35 L153.5 154.8 Q152.2 156.55 153.4 158.5 154.25 159.9 155.95 160.05 157.6 160.25 159.2 159.25 161.8 157.7 162.7 155.2 163.55 152.85 162.4 151.0 L160.2 147.35" fill="#8f3600" fill-rule="evenodd" stroke="none"/>
      <path d="M211.25 132.5 Q209.15 138.4 201.7 142.95 193.7 147.85 186.4 146.65 178.5 145.4 173.35 137.0 168.3 128.7 170.8 121.05 173.1 114.05 181.1 109.2 187.55 105.25 193.4 105.35 199.0 105.4 201.1 108.9 202.4 111.0 201.85 113.15 201.35 115.15 199.4 116.35 198.3 117.0 196.8 117.0 L193.9 116.6 Q189.9 116.0 187.5 117.45 184.0 119.6 184.0 123.15 183.95 125.85 185.9 129.05 188.05 132.65 190.6 134.0 L196.75 133.85 Q198.95 132.5 200.45 128.45 201.25 126.35 201.7 125.6 202.5 124.15 203.65 123.45 205.8 122.15 208.05 122.8 210.15 123.45 211.25 125.25 211.9 126.35 212.0 128.1 212.1 130.25 211.25 132.5" fill="#8f3600" fill-rule="evenodd" stroke="none"/>
      <path d="M241.15 89.6 L250.3 104.7 Q252.2 107.8 251.45 110.5 250.7 113.05 247.8 114.8 244.95 116.6 242.35 116.1 239.55 115.5 237.65 112.4 L230.3 100.3 Q228.65 97.65 226.65 96.95 224.65 96.3 222.3 97.75 220.0 99.15 219.8 101.6 219.65 103.9 221.45 106.85 L228.3 118.1 Q230.2 121.2 229.45 123.95 228.7 126.45 225.8 128.25 222.95 130.0 220.35 129.5 217.55 128.95 215.65 125.85 L195.3 92.5 Q193.4 89.4 194.2 86.65 194.95 84.15 197.8 82.4 200.7 80.6 203.3 81.1 206.1 81.7 208.0 84.8 L214.6 95.6 214.7 95.55 Q214.9 91.95 216.45 89.35 218.0 86.7 221.2 84.75 227.5 80.9 232.85 82.55 237.7 84.0 241.15 89.6" fill="#8f3600" fill-rule="evenodd" stroke="none"/>
      <path d="M82.35 225.7 L97.05 216.75 Q105.35 211.65 111.45 212.6 116.55 213.4 119.55 218.35 121.8 222.0 121.75 225.05 121.7 228.4 118.9 231.35 L118.95 231.45 Q123.35 229.75 127.3 231.45 131.1 233.0 133.7 237.25 137.2 243.0 135.3 248.95 133.2 255.45 125.05 260.4 L109.35 269.95 Q105.25 272.5 102.05 271.7 98.85 270.85 96.2 266.45 L79.45 239.0 Q76.75 234.65 77.5 231.4 78.2 228.2 82.35 225.7 M101.1 227.95 L94.15 232.15 99.05 240.2 106.0 236.0 Q108.0 234.8 108.45 232.8 108.85 230.95 107.85 229.35 106.7 227.45 105.05 227.05 103.3 226.6 101.1 227.95 M119.15 244.4 Q117.9 242.3 115.65 242.15 113.5 242.0 110.85 243.65 L103.8 247.95 109.0 256.5 116.1 252.2 Q118.75 250.55 119.6 248.6 120.45 246.5 119.15 244.4" fill="#df20ad" fill-rule="evenodd" stroke="none"/>
      <path d="M161.15 195.25 Q163.9 195.8 165.8 198.9 L178.9 220.35 Q182.6 226.4 176.5 230.1 173.8 231.75 171.5 231.05 169.4 230.35 167.2 227.6 L167.1 227.65 Q167.25 231.55 165.6 234.65 163.85 237.8 160.25 240.0 154.0 243.85 148.6 242.2 143.75 240.7 140.35 235.1 L131.15 220.05 Q129.25 216.95 130.0 214.2 130.75 211.7 133.65 209.95 136.55 208.15 139.15 208.65 141.9 209.2 143.8 212.35 L151.2 224.45 Q154.5 229.85 159.15 227.0 161.5 225.6 161.65 223.15 161.8 220.8 160.0 217.9 L153.15 206.6 Q151.25 203.5 152.05 200.8 152.75 198.25 155.65 196.5 158.55 194.75 161.15 195.25" fill="#df20ad" fill-rule="evenodd" stroke="none"/>
      <path d="M169.4 183.65 Q165.55 177.3 171.7 173.55 177.85 169.8 181.7 176.15 L184.2 180.2 187.85 177.95 Q191.85 175.55 194.05 179.25 196.3 182.9 192.35 185.3 L188.7 187.55 197.75 202.45 198.85 203.3 Q199.45 203.45 200.1 203.05 203.55 200.95 205.65 201.2 207.6 201.4 209.0 203.7 210.35 205.9 209.35 208.1 208.05 210.85 203.05 213.9 197.65 217.15 193.25 216.2 188.7 215.25 185.4 209.9 L176.4 195.05 174.05 196.5 Q170.15 198.9 167.85 195.2 165.6 191.5 169.55 189.1 L171.9 187.7 169.4 183.65" fill="#df20ad" fill-rule="evenodd" stroke="none"/>
      <path d="M195.75 173.15 L198.1 171.7 195.6 167.65 Q191.75 161.3 197.9 157.55 204.05 153.8 207.9 160.15 L210.35 164.2 214.1 161.95 Q218.0 159.55 220.25 163.25 222.5 166.95 218.55 169.35 L214.9 171.6 223.95 186.45 Q224.4 187.15 225.05 187.3 L226.25 187.1 Q229.75 184.95 231.85 185.2 233.8 185.4 235.2 187.7 236.55 189.95 235.5 192.15 234.25 194.85 229.25 197.9 223.85 201.2 219.4 200.25 214.9 199.25 211.6 193.9 L202.6 179.1 200.25 180.5 Q196.3 182.9 194.05 179.25 191.8 175.55 195.75 173.15" fill="#df20ad" fill-rule="evenodd" stroke="none"/>
      <path d="M266.35 154.4 Q265.7 156.35 262.6 158.25 L244.65 169.2 Q246.75 172.15 249.55 172.9 252.45 173.6 255.5 171.8 257.9 170.3 260.15 166.25 262.45 162.15 264.3 161.05 265.9 160.05 267.9 160.65 269.8 161.2 270.75 162.8 272.6 165.75 270.05 169.9 267.1 174.85 258.6 180.0 250.6 184.9 243.3 183.75 235.35 182.45 230.25 174.1 225.15 165.75 227.7 158.15 230.0 151.15 238.0 146.25 247.4 140.55 255.85 142.85 259.1 143.75 261.75 145.75 264.05 147.5 265.3 149.5 267.0 152.35 266.35 154.4 M243.1 153.3 Q240.7 154.75 239.95 157.0 239.05 159.75 240.8 162.95 L252.7 155.7 Q250.8 152.6 248.05 152.1 245.7 151.7 243.1 153.3" fill="#df20ad" fill-rule="evenodd" stroke="none"/>
      <path d="M287.15 133.25 Q284.8 135.65 284.4 137.55 283.9 139.9 285.65 142.85 L291.05 151.6 Q292.95 154.75 292.15 157.45 291.4 160.0 288.5 161.75 285.65 163.55 283.05 163.0 280.25 162.45 278.35 159.35 L265.4 138.15 Q263.55 135.1 264.25 132.35 264.85 129.85 267.3 128.35 269.85 126.85 272.2 127.4 274.9 128.05 276.95 131.45 L278.45 133.9 278.55 133.8 Q277.45 128.3 278.05 124.95 278.7 121.45 281.35 119.8 284.0 118.2 286.5 119.25 288.6 120.1 290.05 122.5 291.5 124.85 291.45 126.85 291.45 128.85 290.05 130.25 L287.15 133.25" fill="#df20ad" fill-rule="evenodd" stroke="none"/>
    </g>
    <radialGradient cx="0" cy="0" gradientTransform="matrix(0.1544, 0.0, 0.0, 0.209, 148.0, 157.95)" gradientUnits="userSpaceOnUse" id="gradient0" r="819.2" spreadMethod="pad">
      <stop offset="0.30196078431372547" stop-color="#ff9900"/>
      <stop offset="1.0" stop-color="#ff9900" stop-opacity="0.0"/>
    </radialGradient>
  </defs>
</svg>
