<?xml version="1.0" encoding="UTF-8" standalone="no"?>
<svg xmlns:xlink="http://www.w3.org/1999/xlink" height="300.0px" width="300.0px" xmlns="http://www.w3.org/2000/svg">
  <g transform="matrix(1.0, 0.0, 0.0, 1.0, 0.0, 0.0)">
    <use height="102.3" transform="matrix(1.0, 0.0, 0.0, 1.0, 1.0, 111.2)" width="295.15" xlink:href="#sprite0"/>
  </g>
  <defs>
    <g id="sprite0" transform="matrix(1.0, 0.0, 0.0, 1.0, 147.55, 50.25)">
      <use height="102.3" transform="matrix(1.0, 0.0, 0.0, 1.0, -147.55, -50.25)" width="295.15" xlink:href="#shape0"/>
    </g>
    <g id="shape0" transform="matrix(1.0, 0.0, 0.0, 1.0, 147.55, 50.25)">
      <path d="M-41.5 -26.4 Q-41.6 -26.7 -42.05 -26.75 L-46.1 -24.6 Q-48.55 -23.05 -48.55 -21.65 L-48.45 -21.15 -48.4 -21.45 -43.7 -24.55 -41.5 -26.4 M-124.75 -16.3 Q-124.75 -15.0 -124.2 -14.85 -122.0 -15.15 -117.1 -18.95 -112.4 -22.6 -111.7 -24.2 L-111.8 -24.3 -114.15 -24.4 Q-117.2 -24.4 -121.1 -21.1 -124.75 -18.0 -124.75 -16.3 M-127.3 -12.45 Q-128.2 -13.5 -128.2 -16.3 -122.05 -28.9 -113.0 -28.9 -111.65 -28.9 -111.15 -27.7 L-110.65 -25.75 -110.45 -25.8 -109.15 -27.25 Q-108.4 -27.95 -107.45 -27.95 L-106.55 -27.85 -106.45 -27.8 -106.2 -27.1 -106.15 -26.3 Q-106.15 -24.25 -107.5 -22.45 -108.9 -20.55 -109.05 -18.15 L-108.8 -17.4 Q-107.3 -18.3 -101.7 -23.05 -96.6 -27.4 -96.15 -27.4 -93.0 -27.4 -92.75 -24.75 L-93.15 -21.25 -92.95 -21.2 -89.15 -24.25 Q-85.2 -27.1 -83.1 -27.1 -81.15 -27.1 -80.3 -25.2 -79.75 -24.0 -79.75 -22.45 L-80.2 -20.1 -80.7 -17.8 Q-80.7 -16.75 -79.7 -15.75 -77.5 -16.85 -70.0 -23.75 -64.0 -29.3 -60.1 -29.3 L-58.05 -29.2 Q-56.1 -28.7 -56.1 -26.5 -56.1 -26.1 -56.9 -25.4 -57.75 -24.7 -58.4 -24.7 -58.9 -24.7 -59.45 -25.15 -60.0 -25.6 -60.5 -25.6 L-65.05 -23.8 Q-69.45 -21.45 -69.45 -18.75 -69.45 -18.25 -69.8 -17.2 L-70.15 -15.65 Q-70.15 -15.0 -69.75 -14.8 L-68.6 -14.75 Q-65.85 -14.75 -58.7 -19.15 L-52.05 -23.6 Q-51.2 -23.6 -48.35 -26.4 -45.55 -29.25 -41.05 -29.25 L-39.0 -28.75 Q-37.85 -28.15 -37.85 -27.2 -37.85 -25.55 -40.65 -23.55 -43.0 -21.85 -43.55 -21.85 -48.25 -18.4 -48.4 -18.4 -50.5 -17.6 -50.5 -16.0 L-50.15 -15.7 -48.95 -15.1 Q-44.15 -16.1 -41.4 -18.05 -38.7 -20.35 -36.3 -21.65 L-35.85 -21.1 Q-35.85 -23.55 -32.95 -24.3 L-32.65 -24.05 -32.6 -23.1 Q-32.6 -21.5 -37.85 -17.05 -43.6 -12.2 -47.3 -12.2 -49.5 -12.2 -51.2 -12.9 -54.15 -14.15 -54.15 -17.15 -54.15 -17.95 -53.75 -18.55 L-53.05 -19.4 -53.35 -19.4 Q-55.0 -17.85 -59.6 -14.9 -64.95 -11.45 -66.65 -11.45 -69.3 -11.45 -70.6 -12.4 -72.15 -13.5 -73.35 -16.75 L-76.6 -14.3 Q-79.5 -12.15 -80.3 -12.15 -81.85 -12.15 -83.2 -13.4 -84.5 -14.6 -84.5 -15.9 -84.5 -21.0 -85.15 -23.05 -88.55 -22.15 -92.15 -18.7 -93.95 -16.95 -95.15 -15.4 L-97.35 -13.75 -99.55 -12.15 Q-100.15 -12.15 -100.8 -12.7 -101.6 -13.35 -101.6 -14.3 -101.6 -17.8 -100.0 -19.5 -97.5 -22.15 -97.05 -23.15 L-102.75 -17.95 Q-107.15 -13.85 -109.6 -13.85 -112.6 -13.85 -112.6 -17.9 L-112.5 -19.35 Q-112.45 -20.0 -112.55 -20.05 L-117.7 -15.6 Q-122.65 -11.55 -124.6 -11.55 -126.5 -11.55 -127.3 -12.45 M-131.25 -45.8 Q-129.05 -44.8 -129.05 -43.6 -129.05 -43.1 -129.45 -42.5 L-129.9 -41.45 Q-129.9 -40.45 -132.25 -36.2 L-135.4 -30.4 Q-137.7 -24.85 -139.75 -20.8 -140.65 -18.8 -140.65 -15.55 L-140.5 -14.4 -140.35 -14.6 Q-138.55 -15.95 -135.55 -20.45 L-132.1 -25.65 -131.2 -25.6 Q-132.0 -28.25 -125.5 -33.85 L-125.9 -34.25 -126.35 -34.65 Q-125.25 -35.75 -124.5 -36.8 L-123.9 -37.55 -121.75 -40.25 -119.3 -43.0 -114.95 -47.7 Q-111.95 -49.55 -110.55 -49.95 -106.9 -50.95 -106.9 -46.85 -106.9 -46.2 -108.25 -45.25 L-111.9 -42.75 Q-118.55 -37.95 -124.35 -30.15 L-132.45 -18.55 Q-137.85 -11.25 -140.05 -11.25 -141.15 -11.25 -142.35 -13.1 -143.7 -15.15 -143.7 -17.6 -143.7 -21.55 -141.45 -26.95 -139.45 -31.75 -138.35 -32.3 -137.75 -35.1 -135.3 -41.35 L-135.5 -41.85 -141.05 -36.95 -145.6 -32.75 Q-147.55 -32.75 -147.55 -34.8 -147.55 -36.3 -140.7 -40.6 -134.75 -44.3 -131.25 -45.8 M131.4 -47.55 L129.65 -44.05 Q127.65 -40.45 126.45 -40.45 125.8 -40.45 125.25 -40.8 L124.75 -41.2 Q125.0 -42.2 126.55 -44.3 L125.95 -45.1 Q125.35 -46.05 125.35 -47.15 125.35 -50.5 128.4 -50.25 131.4 -50.0 131.4 -47.55 M70.35 -12.45 Q69.4 -13.55 69.4 -16.3 69.4 -19.4 74.5 -24.0 79.9 -28.9 84.65 -28.9 85.95 -28.9 86.45 -27.6 L87.0 -25.75 87.2 -25.8 88.5 -27.25 Q89.25 -27.95 90.2 -27.95 L91.2 -27.8 91.45 -27.1 91.5 -26.3 Q91.5 -24.1 90.35 -22.4 88.95 -20.35 88.55 -18.15 L88.8 -17.4 Q92.35 -19.45 102.05 -27.4 105.15 -27.4 105.45 -24.75 L105.05 -21.25 105.25 -21.2 109.1 -24.3 Q112.95 -27.1 115.1 -27.1 118.45 -27.1 118.45 -22.45 L118.0 -20.1 117.55 -17.8 Q117.55 -17.15 118.05 -16.4 L118.55 -15.75 Q121.2 -16.6 122.75 -19.05 124.05 -21.2 125.55 -21.2 127.5 -21.2 131.25 -26.15 135.0 -31.15 135.25 -31.15 136.55 -31.15 137.85 -28.05 139.05 -25.25 139.05 -23.2 L138.65 -20.8 138.15 -18.95 Q139.8 -19.15 142.35 -21.35 L146.95 -24.7 Q147.6 -24.2 147.6 -23.05 147.6 -21.05 139.15 -15.8 131.05 -10.8 129.15 -10.8 L127.0 -11.2 Q125.0 -11.95 125.0 -13.95 125.0 -14.6 126.15 -15.5 127.4 -16.45 128.6 -16.45 129.1 -16.45 129.5 -16.05 129.9 -15.65 130.4 -15.65 133.05 -15.65 134.35 -19.85 135.0 -22.0 135.15 -24.2 135.15 -25.45 134.7 -25.9 L134.6 -25.8 Q127.25 -18.45 124.5 -16.05 120.2 -12.15 117.95 -12.15 116.7 -12.15 115.35 -13.05 113.7 -14.15 113.7 -15.9 113.7 -21.0 113.15 -23.05 109.75 -20.8 106.05 -17.85 L103.05 -15.4 101.0 -13.75 Q99.0 -12.15 98.65 -12.15 98.15 -12.15 97.45 -12.65 96.6 -13.3 96.6 -14.3 96.6 -17.9 97.95 -19.2 100.4 -21.55 101.2 -23.15 99.7 -22.3 94.25 -17.55 90.0 -13.85 88.0 -13.85 85.0 -13.85 85.0 -17.9 L85.1 -20.05 84.95 -19.95 Q83.0 -19.05 79.15 -14.85 76.15 -11.55 73.0 -11.55 71.15 -11.55 70.35 -12.45 M72.85 -16.3 Q72.85 -14.95 73.45 -14.85 74.6 -15.2 80.25 -19.55 85.75 -23.75 85.95 -24.25 L85.75 -24.3 84.7 -24.3 83.45 -24.4 Q80.4 -24.4 76.5 -21.1 72.85 -18.0 72.85 -16.3 M73.75 -37.55 L74.65 -38.9 Q75.5 -40.25 75.85 -40.25 76.4 -40.25 77.0 -41.3 L77.8 -42.8 80.65 -45.25 82.75 -47.05 Q82.75 -48.6 85.5 -49.55 L88.4 -50.25 Q90.7 -50.25 90.7 -46.85 90.7 -44.6 88.85 -43.95 L86.5 -43.5 Q85.4 -42.95 81.6 -39.4 L76.7 -34.1 73.25 -30.1 65.65 -19.0 Q60.3 -11.25 57.55 -11.25 56.5 -11.25 55.3 -13.15 53.9 -15.25 53.9 -17.6 53.9 -19.4 55.5 -24.3 55.5 -25.3 56.9 -28.45 58.4 -31.8 59.3 -32.3 59.85 -35.05 62.35 -41.35 L62.15 -41.85 56.6 -37.0 52.05 -32.75 Q50.05 -32.75 50.05 -34.8 50.05 -36.7 56.55 -40.65 61.45 -43.65 66.35 -45.8 68.6 -44.75 68.6 -43.6 68.6 -41.65 66.8 -38.65 L62.8 -32.6 Q56.95 -23.65 56.95 -15.55 L57.05 -14.6 57.15 -14.4 57.25 -14.6 Q58.4 -15.4 61.9 -20.35 L65.55 -25.65 66.35 -25.3 Q66.25 -27.7 68.4 -30.65 70.4 -33.35 72.1 -33.85 L71.65 -33.95 Q71.3 -34.05 71.3 -34.65 L72.45 -36.2 73.75 -37.55 M9.25 -24.3 L8.2 -24.3 6.95 -24.4 Q4.0 -24.4 0.05 -21.1 -3.65 -18.0 -3.65 -16.3 -3.65 -14.95 -3.05 -14.85 -1.85 -15.25 3.75 -19.55 9.25 -23.75 9.45 -24.25 L9.25 -24.3 M8.15 -28.9 Q9.45 -28.9 9.95 -27.7 L10.5 -25.75 10.7 -25.8 11.95 -27.25 Q12.65 -27.95 13.7 -27.95 L14.7 -27.8 14.95 -27.1 15.0 -26.3 Q15.0 -24.95 13.55 -22.0 12.1 -19.0 12.1 -18.15 L12.2 -17.4 12.3 -17.4 Q14.4 -18.6 20.2 -23.15 L25.55 -27.4 Q28.65 -27.4 28.95 -24.7 L28.6 -21.25 28.75 -21.2 32.6 -24.3 Q36.45 -27.1 38.6 -27.1 41.95 -27.1 41.95 -22.45 L41.5 -20.1 41.05 -17.8 Q41.05 -16.75 42.05 -15.75 L45.5 -18.3 50.45 -22.0 50.8 -21.9 50.9 -21.7 Q49.2 -17.95 45.85 -14.85 42.9 -12.15 41.4 -12.15 38.85 -12.15 37.75 -14.6 37.0 -16.2 37.0 -18.45 37.0 -22.0 36.65 -23.05 34.75 -23.0 30.5 -19.2 L26.6 -15.4 24.5 -13.75 Q22.5 -12.15 22.15 -12.15 21.65 -12.15 20.95 -12.65 20.1 -13.3 20.1 -14.3 20.1 -17.35 22.25 -19.85 24.55 -22.5 24.65 -23.25 L18.05 -17.55 Q13.8 -13.85 11.6 -13.85 9.65 -13.85 8.95 -15.3 8.5 -16.2 8.5 -17.9 L8.6 -20.05 8.45 -19.95 Q6.55 -19.0 2.65 -14.8 -0.35 -11.55 -3.45 -11.55 -5.35 -11.55 -6.15 -12.45 -7.1 -13.55 -7.1 -16.3 -7.1 -19.4 -2.0 -24.0 3.4 -28.9 8.15 -28.9 M11.9 -50.25 Q12.55 -50.25 13.1 -49.9 14.2 -49.2 14.2 -47.35 14.2 -46.35 8.9 -42.35 1.9 -37.1 -3.25 -30.1 L-11.35 -18.7 Q-16.9 -11.25 -18.9 -11.25 -19.75 -11.25 -20.95 -12.7 -22.55 -14.65 -22.55 -17.6 -22.55 -19.4 -21.75 -21.65 -21.0 -23.9 -21.0 -24.3 -21.0 -25.65 -19.4 -28.75 -17.95 -31.65 -17.2 -32.3 -16.6 -35.1 -14.15 -41.35 L-14.35 -41.85 Q-15.2 -41.4 -19.85 -37.0 L-24.45 -32.75 Q-26.45 -32.75 -26.45 -34.8 -26.45 -36.7 -20.0 -40.65 -15.1 -43.6 -10.15 -45.8 -8.1 -44.15 -8.85 -41.25 -9.4 -39.25 -12.05 -34.7 -18.85 -23.0 -19.55 -15.55 L-19.35 -14.4 -19.25 -14.6 Q-17.3 -15.95 -14.3 -20.45 L-10.95 -25.65 Q-10.3 -25.25 -10.15 -25.3 -10.2 -27.7 -8.05 -30.65 -6.05 -33.35 -4.4 -33.85 L-5.25 -34.65 -3.35 -36.8 -2.75 -37.55 -0.6 -40.25 0.35 -40.3 0.8 -41.85 1.3 -42.8 4.15 -45.25 6.25 -47.05 Q6.25 -48.05 8.55 -49.2 10.65 -50.25 11.9 -50.25" fill="#000087" fill-rule="evenodd" stroke="none"/>
      <path d="M-81.45 19.75 L-84.0 28.25 -78.9 28.25 -81.45 19.75 M-98.0 4.55 Q-96.7 8.0 -98.15 11.35 L-113.75 46.7 Q-115.25 50.0 -118.55 51.4 -121.95 52.75 -125.25 51.4 -128.65 50.0 -130.1 46.7 L-145.6 11.4 Q-147.1 7.95 -145.7 4.55 -144.45 1.1 -141.0 -0.35 -137.6 -1.85 -134.15 -0.45 -130.75 0.85 -129.25 4.25 L-129.25 4.3 -121.9 24.15 -114.55 4.2 -114.5 4.15 Q-113.0 0.75 -109.55 -0.5 -106.15 -1.9 -102.75 -0.4 -99.4 1.1 -98.0 4.55 M-72.1 2.75 Q-70.2 4.65 -69.2 6.85 L-69.2 6.95 -69.0 7.4 -68.95 7.5 -56.45 39.8 Q-55.1 43.2 -56.65 46.6 -58.15 49.95 -61.55 51.35 L-68.4 51.15 Q-71.75 49.65 -73.1 46.25 L-73.1 46.2 -74.05 43.75 -88.9 43.75 -89.9 46.3 -89.9 46.35 Q-91.35 49.75 -94.65 51.25 -98.1 52.7 -101.45 51.4 -104.9 50.0 -106.4 46.65 -107.9 43.2 -106.5 39.85 L-93.95 7.55 -93.2 6.0 -93.2 5.95 Q-92.3 4.25 -90.8 2.75 -86.9 -1.1 -81.45 -1.1 -76.0 -1.1 -72.1 2.75 M-6.6 1.65 Q-4.0 4.25 -4.0 7.9 L-4.0 41.5 -3.95 42.8 -3.95 42.85 Q-4.1 46.5 -6.8 49.05 -9.55 51.55 -13.2 51.45 L-13.25 51.45 Q-16.9 51.3 -19.4 48.6 L-19.45 48.55 -35.95 28.45 -35.95 42.5 Q-35.95 46.15 -38.5 48.8 L-38.55 48.85 Q-41.2 51.4 -44.85 51.4 -48.5 51.4 -51.1 48.8 -53.75 46.15 -53.7 42.5 L-53.7 9.15 -53.75 7.65 -53.75 7.6 Q-53.6 3.95 -50.85 1.45 -48.2 -1.1 -44.5 -0.95 -40.85 -0.85 -38.25 1.95 L-21.75 21.15 -21.75 7.9 Q-21.8 4.25 -19.15 1.65 -16.55 -1.0 -12.9 -0.95 L-12.85 -0.95 Q-9.25 -1.0 -6.6 1.65 M46.5 35.25 Q49.75 35.25 52.05 37.55 54.35 39.85 54.4 43.1 L54.4 43.15 Q54.35 46.35 52.05 48.65 49.75 50.95 46.55 51.0 L26.85 51.0 Q24.65 50.95 22.95 50.0 L23.0 50.0 20.9 48.4 Q18.3 45.8 18.3 42.2 L18.3 7.85 Q18.3 4.25 20.9 1.7 23.45 -0.9 27.05 -0.9 30.65 -0.9 33.25 1.7 35.8 4.25 35.8 7.85 L35.8 35.25 46.5 35.25 M97.7 43.9 L97.5 44.15 Q89.55 51.65 78.4 51.7 67.25 51.65 59.35 44.15 L59.35 44.1 59.3 44.05 59.3 44.1 Q51.2 36.3 51.25 25.25 51.2 14.3 59.3 6.5 59.4 6.4 59.55 6.35 67.35 -1.1 78.4 -1.1 89.55 -1.1 97.5 6.5 105.6 14.3 105.6 25.25 105.6 36.15 97.7 43.9 M85.15 19.4 L85.15 19.35 85.1 19.3 85.1 19.35 Q82.35 16.7 78.4 16.75 74.55 16.7 71.85 19.2 L71.7 19.4 Q69.1 21.8 69.1 25.25 69.1 28.75 71.7 31.25 74.45 33.85 78.4 33.85 82.35 33.85 85.1 31.25 L85.3 31.1 Q87.7 28.65 87.75 25.3 L87.75 25.25 Q87.7 21.8 85.15 19.4 M137.65 -0.4 Q140.85 -0.4 143.15 1.9 145.4 4.15 145.4 7.35 145.4 10.55 143.2 12.85 L143.15 12.9 Q140.85 15.1 137.65 15.1 L132.35 15.1 132.35 42.7 Q132.35 46.3 129.85 48.9 L129.8 48.95 Q127.2 51.45 123.6 51.45 120.0 51.45 117.45 48.9 114.85 46.3 114.85 42.7 L114.85 15.1 110.4 15.1 Q107.2 15.1 104.95 12.85 102.65 10.55 102.65 7.35 102.65 4.15 104.95 1.9 107.2 -0.4 110.4 -0.4 L137.65 -0.4" fill="#000087" fill-rule="evenodd" stroke="none"/>
      <path d="M96.8 40.35 L96.8 40.4 Q89.15 47.65 78.4 47.7 67.65 47.65 60.05 40.4 L60.0 40.35 Q52.2 32.85 52.25 22.25 52.2 11.7 60.0 4.2 L60.05 4.2 Q67.65 -3.1 78.4 -3.1 89.15 -3.1 96.8 4.2 104.6 11.7 104.6 22.25 104.6 32.85 96.8 40.35 M88.75 22.25 Q88.7 18.4 85.85 15.65 L85.8 15.6 Q82.75 12.7 78.4 12.75 74.05 12.7 71.0 15.6 L71.0 15.65 Q68.1 18.4 68.1 22.25 68.1 26.15 71.0 28.95 74.05 31.85 78.4 31.85 82.75 31.85 85.8 28.95 L85.85 28.95 Q88.7 26.15 88.75 22.25 M105.65 -0.4 Q107.6 -2.4 110.4 -2.4 L137.65 -2.4 Q140.45 -2.4 142.45 -0.4 144.4 1.55 144.4 4.35 144.4 7.15 142.45 9.15 140.45 11.1 137.65 11.1 L131.35 11.1 131.35 39.7 Q131.35 42.9 129.1 45.2 126.8 47.45 123.6 47.45 120.4 47.45 118.15 45.2 115.85 42.9 115.85 39.7 L115.85 11.1 110.4 11.1 Q107.6 11.1 105.65 9.15 103.65 7.15 103.65 4.35 103.65 1.55 105.65 -0.4 M21.6 -0.6 Q23.85 -2.9 27.05 -2.9 30.25 -2.9 32.55 -0.6 34.8 1.65 34.8 4.85 L34.8 33.25 46.5 33.25 Q49.35 33.25 51.35 35.25 53.35 37.25 53.4 40.1 53.35 42.95 51.35 44.95 49.35 46.95 46.5 47.0 L26.85 47.0 Q24.95 46.95 23.45 46.1 22.45 45.55 21.6 44.7 19.3 42.4 19.3 39.2 L19.3 4.85 Q19.3 1.65 21.6 -0.6 M-50.2 -0.85 Q-47.8 -3.1 -44.55 -2.95 -41.3 -2.85 -39.0 -0.4 L-20.75 20.8 -20.75 4.9 Q-20.8 1.65 -18.45 -0.65 -16.15 -3.0 -12.9 -2.95 -9.65 -3.0 -7.3 -0.65 -5.0 1.65 -5.0 4.9 L-5.0 38.5 -4.95 39.8 Q-5.1 43.05 -7.5 45.3 -9.95 47.55 -13.2 47.45 -16.45 47.3 -18.7 44.9 L-36.95 22.65 -36.95 39.5 Q-36.95 42.75 -39.25 45.1 -41.6 47.4 -44.85 47.4 -48.1 47.4 -50.4 45.1 -52.75 42.75 -52.7 39.5 L-52.7 6.0 -52.75 4.65 Q-52.65 1.4 -50.2 -0.85 M-140.6 -2.45 Q-137.6 -3.75 -134.55 -2.55 -131.5 -1.35 -130.2 1.65 L-121.9 24.05 -113.6 1.55 Q-112.25 -1.45 -109.2 -2.6 -106.15 -3.8 -103.15 -2.5 -100.15 -1.15 -98.95 1.9 -97.8 4.95 -99.1 7.95 L-114.7 43.3 Q-116.0 46.25 -118.95 47.45 -121.95 48.65 -124.9 47.45 -127.9 46.25 -129.2 43.3 L-144.7 8.0 Q-146.0 4.95 -144.8 1.9 -143.65 -1.15 -140.6 -2.45 M-70.15 4.25 L-69.9 4.85 -57.4 37.15 Q-56.2 40.2 -57.55 43.2 -58.9 46.2 -61.95 47.4 L-68.0 47.25 Q-71.0 45.9 -72.2 42.85 L-73.4 39.75 -89.6 39.75 -90.85 42.95 Q-92.1 46.0 -95.05 47.3 L-101.1 47.45 Q-104.15 46.25 -105.5 43.25 -106.8 40.2 -105.6 37.2 L-93.0 4.85 -92.35 3.45 Q-91.5 1.85 -90.1 0.45 -86.5 -3.1 -81.45 -3.1 -76.4 -3.1 -72.8 0.45 -71.05 2.2 -70.15 4.25 M-81.45 13.3 L-85.35 26.25 -77.6 26.25 -81.45 13.3" fill="url(#gradient0)" fill-rule="evenodd" stroke="none"/>
      <path d="M97.7 40.9 L97.5 41.15 Q89.55 48.65 78.4 48.7 67.25 48.65 59.35 41.15 L59.35 41.1 59.3 41.05 59.3 41.1 Q51.2 33.3 51.25 22.25 51.2 11.3 59.3 3.5 59.4 3.4 59.55 3.35 67.35 -4.1 78.4 -4.1 89.55 -4.1 97.5 3.5 105.6 11.3 105.6 22.25 105.6 33.15 97.7 40.9 M95.95 39.85 L96.1 39.65 Q103.6 32.45 103.6 22.25 103.6 12.1 96.1 4.95 88.75 -2.1 78.4 -2.1 68.05 -2.1 60.75 4.95 L60.55 5.1 Q53.2 12.25 53.25 22.25 53.2 32.4 60.7 39.65 L60.75 39.7 Q68.05 46.65 78.4 46.7 88.65 46.65 95.95 39.85 M85.15 16.35 L85.1 16.3 85.1 16.35 Q82.35 13.7 78.4 13.75 74.55 13.7 71.85 16.2 L71.7 16.4 Q69.1 18.8 69.1 22.25 69.1 25.75 71.7 28.25 74.45 30.85 78.4 30.85 82.35 30.85 85.1 28.25 L85.3 28.1 Q87.7 25.65 87.75 22.3 L87.75 22.25 Q87.7 18.8 85.15 16.4 L85.15 16.35 M86.5 14.9 L86.55 14.95 Q89.7 17.95 89.75 22.25 L89.75 22.3 Q89.7 26.6 86.55 29.7 L86.35 29.85 Q83.05 32.85 78.4 32.85 73.65 32.85 70.3 29.7 67.1 26.55 67.1 22.25 67.1 18.1 70.15 15.1 L70.3 14.9 Q73.65 11.7 78.4 11.75 83.15 11.7 86.5 14.9 M137.65 -1.4 L110.4 -1.4 Q108.05 -1.4 106.4 0.3 L106.35 0.35 Q104.65 2.0 104.65 4.35 104.65 6.75 106.35 8.45 108.0 10.1 110.4 10.1 L115.85 10.1 Q116.25 10.1 116.55 10.4 L116.85 11.1 116.85 39.7 Q116.85 42.5 118.85 44.5 120.8 46.45 123.6 46.45 126.4 46.45 128.4 44.5 130.35 42.5 130.35 39.7 L130.35 11.1 Q130.35 10.7 130.65 10.4 130.95 10.1 131.35 10.1 L137.65 10.1 Q140.0 10.1 141.75 8.45 143.4 6.7 143.4 4.35 143.4 1.95 141.75 0.3 140.05 -1.4 137.65 -1.4 M104.95 -1.1 Q107.2 -3.4 110.4 -3.4 L137.65 -3.4 Q140.85 -3.4 143.15 -1.1 145.4 1.15 145.4 4.35 145.4 7.55 143.2 9.85 L143.15 9.9 Q140.85 12.1 137.65 12.1 L132.35 12.1 132.35 39.7 Q132.35 43.3 129.85 45.9 L129.8 45.95 Q127.2 48.45 123.6 48.45 120.0 48.45 117.45 45.9 114.85 43.3 114.85 39.7 L114.85 12.1 110.4 12.1 Q107.2 12.1 104.95 9.85 102.65 7.55 102.65 4.35 102.65 1.15 104.95 -1.1 M20.9 -1.3 Q23.45 -3.9 27.05 -3.9 30.65 -3.9 33.25 -1.3 35.8 1.25 35.8 4.85 L35.8 32.25 46.5 32.25 Q49.75 32.25 52.05 34.55 54.35 36.85 54.4 40.1 L54.4 40.15 Q54.35 43.35 52.05 45.65 49.75 47.95 46.55 48.0 L26.85 48.0 Q24.65 47.95 22.95 47.0 L23.0 47.0 20.9 45.4 Q18.3 42.8 18.3 39.2 L18.3 4.85 Q18.3 1.25 20.9 -1.3 M52.4 40.1 Q52.35 37.65 50.65 35.95 48.95 34.25 46.5 34.25 L34.8 34.25 34.1 33.95 Q33.8 33.65 33.8 33.25 L33.8 4.85 Q33.8 2.05 31.85 0.1 29.85 -1.9 27.05 -1.9 24.3 -1.9 22.35 0.1 L22.3 0.15 Q20.3 2.1 20.3 4.85 L20.3 39.2 Q20.3 42.0 22.3 44.0 L23.95 45.25 Q25.25 45.95 26.85 46.0 L46.5 46.0 Q48.95 45.95 50.65 44.25 52.35 42.55 52.4 40.15 L52.4 40.1 M-81.45 16.75 L-84.0 25.25 -78.9 25.25 -81.45 16.75 M-80.85 12.5 Q-80.6 12.7 -80.5 13.05 L-76.65 26.0 -76.65 26.6 -77.0 27.1 -77.6 27.25 -85.35 27.25 -85.9 27.1 -86.3 26.6 -86.3 25.95 -82.4 13.0 -82.05 12.5 -81.45 12.3 -80.85 12.5 M-70.8 5.2 L-70.8 5.3 -71.05 4.65 Q-71.9 2.75 -73.5 1.15 -76.8 -2.1 -81.45 -2.1 -86.1 -2.1 -89.4 1.15 -90.7 2.45 -91.45 3.95 L-91.5 4.0 -92.05 5.2 -92.05 5.25 -104.65 37.6 Q-105.7 40.2 -104.55 42.85 L-104.6 42.85 Q-103.4 45.5 -100.7 46.55 L-100.75 46.55 -95.45 46.4 Q-92.85 45.25 -91.75 42.6 L-90.5 39.4 -90.15 38.95 -89.6 38.75 -73.4 38.75 -72.8 38.95 -72.45 39.4 -71.25 42.5 Q-70.25 45.15 -67.6 46.35 L-62.3 46.5 Q-59.65 45.45 -58.45 42.8 -57.3 40.2 -58.3 37.55 L-58.3 37.5 -70.8 5.2 M-44.6 -1.95 Q-47.45 -2.1 -49.5 -0.1 -51.65 1.85 -51.75 4.7 L-51.75 4.75 -51.7 5.85 -51.7 6.0 -51.7 39.55 Q-51.75 42.35 -49.7 44.4 -47.7 46.4 -44.85 46.4 -42.0 46.4 -39.95 44.4 -37.95 42.35 -37.95 39.5 L-37.95 22.65 -37.75 22.1 Q-37.6 21.8 -37.25 21.7 L-36.65 21.7 -36.15 22.05 -17.9 44.3 Q-15.95 46.3 -13.15 46.45 -10.3 46.55 -8.15 44.6 -6.1 42.6 -5.95 39.8 L-5.95 39.75 -6.0 38.6 -6.0 38.5 -6.0 4.9 Q-6.0 2.05 -8.0 0.05 -10.05 -2.0 -12.85 -1.95 L-12.9 -1.95 Q-15.75 -2.0 -17.7 0.05 L-17.75 0.1 Q-19.8 2.05 -19.75 4.9 L-19.75 20.8 -19.9 21.4 Q-20.1 21.65 -20.4 21.75 L-21.0 21.8 -21.5 21.45 -39.7 0.3 -39.75 0.25 Q-41.75 -1.85 -44.55 -1.95 L-44.6 -1.95 M-50.85 -1.55 Q-48.2 -4.1 -44.5 -3.95 -40.85 -3.85 -38.25 -1.05 L-21.75 18.15 -21.75 4.9 Q-21.8 1.25 -19.15 -1.35 -16.55 -4.0 -12.9 -3.95 L-12.85 -3.95 Q-9.25 -4.0 -6.6 -1.35 -4.0 1.25 -4.0 4.9 L-4.0 38.5 -3.95 39.8 -3.95 39.85 Q-4.1 43.5 -6.8 46.05 -9.55 48.55 -13.2 48.45 L-13.25 48.45 Q-16.9 48.3 -19.4 45.6 L-19.45 45.55 -35.95 25.45 -35.95 39.5 Q-35.95 43.15 -38.5 45.8 L-38.55 45.85 Q-41.2 48.4 -44.85 48.4 -48.5 48.4 -51.1 45.8 -53.75 43.15 -53.7 39.5 L-53.7 6.15 -53.75 4.65 -53.75 4.6 Q-53.6 0.95 -50.85 -1.55 M-90.8 -0.25 Q-86.9 -4.1 -81.45 -4.1 -76.0 -4.1 -72.1 -0.25 -70.2 1.65 -69.2 3.85 L-69.2 3.95 -69.0 4.4 -68.95 4.5 -56.45 36.8 Q-55.1 40.2 -56.65 43.6 -58.15 46.95 -61.55 48.35 L-68.4 48.15 Q-71.75 46.65 -73.1 43.25 L-73.1 43.2 -74.05 40.75 -88.9 40.75 -89.9 43.3 -89.9 43.35 Q-91.35 46.75 -94.65 48.25 -98.1 49.7 -101.45 48.4 -104.9 47.0 -106.4 43.65 -107.9 40.2 -106.5 36.85 L-93.95 4.55 -93.2 3.0 -93.2 2.95 Q-92.3 1.25 -90.8 -0.25 M-134.9 -1.6 Q-137.6 -2.65 -140.2 -1.5 -142.85 -0.4 -143.85 2.25 L-143.85 2.3 Q-144.9 4.95 -143.75 7.6 L-128.25 42.9 Q-127.15 45.5 -124.5 46.55 -121.95 47.55 -119.3 46.55 -116.75 45.5 -115.6 42.9 L-100.0 7.55 Q-98.9 4.9 -99.85 2.25 L-99.85 2.3 Q-100.9 -0.4 -103.55 -1.6 L-103.55 -1.55 Q-106.15 -2.7 -108.8 -1.65 L-108.85 -1.65 Q-111.5 -0.65 -112.7 1.95 L-112.65 1.9 -120.95 24.4 -121.3 24.9 -121.9 25.05 -122.45 24.9 -122.85 24.4 -131.1 2.05 -131.15 2.0 Q-132.3 -0.6 -134.9 -1.6 M-141.0 -3.35 Q-137.6 -4.85 -134.15 -3.45 -130.75 -2.15 -129.25 1.25 L-129.25 1.3 -121.9 21.15 -114.55 1.2 -114.5 1.15 Q-113.0 -2.25 -109.55 -3.5 -106.15 -4.9 -102.75 -3.4 -99.4 -1.9 -98.0 1.55 -96.7 5.0 -98.15 8.35 L-113.75 43.7 Q-115.25 47.0 -118.55 48.4 -121.95 49.75 -125.25 48.4 -128.65 47.0 -130.1 43.7 L-145.6 8.4 Q-147.1 4.95 -145.7 1.55 -144.45 -1.9 -141.0 -3.35" fill="#000087" fill-rule="evenodd" stroke="none"/>
      <path d="M-78.5 19.0 L-78.45 18.9 -75.75 28.45 -81.15 28.45 -80.9 27.65 -77.05 27.65 Q-76.7 27.65 -76.45 27.35 -76.2 27.05 -76.35 26.7 L-78.5 19.0 M-15.95 -0.15 L-14.7 -0.75 -13.35 -1.25 -12.0 -1.35 -11.3 -1.3 -10.6 -1.25 -10.0 -1.05 -9.3 -0.75 -8.7 -0.55 -8.85 -0.55 -9.65 -0.55 -11.3 -0.4 Q-12.35 -0.25 -13.0 0.1 L-14.45 0.9 -15.85 1.95 -16.9 3.3 -17.75 4.85 -18.25 6.45 -18.45 8.1 -18.45 22.1 -19.25 21.25 -19.25 5.8 -19.1 4.5 -18.65 3.1 -17.95 1.85 -17.05 0.8 -15.95 -0.15 M-46.8 -0.9 L-46.15 -1.2 -45.1 -1.4 -44.7 -1.4 -44.3 -1.5 -44.15 -1.5 -42.6 -1.25 -41.2 -0.7 -42.2 -0.75 -42.5 -0.65 -42.9 -0.65 -43.25 -0.55 -44.35 -0.35 -45.1 0.0 -47.3 1.3 -49.05 3.15 -50.15 5.5 Q-50.5 6.75 -50.5 8.1 L-50.5 41.9 -50.35 43.35 -50.7 42.7 -51.1 41.15 -51.25 39.6 -51.25 5.8 -51.0 3.6 -50.1 1.65 -48.65 0.15 -46.8 -0.9 M-75.95 -0.25 L-78.45 -0.5 Q-80.55 -0.5 -82.45 0.1 -84.3 0.65 -86.05 1.9 -87.75 3.15 -89.0 4.8 -90.2 6.35 -91.1 8.55 L-103.2 40.0 -103.65 42.15 -103.65 44.4 -104.2 42.95 -104.5 41.0 -104.4 40.05 -104.2 39.2 -104.2 39.1 -104.0 38.1 -92.0 6.8 Q-91.1 4.75 -90.05 3.4 -89.0 1.95 -87.45 0.85 -86.05 -0.25 -84.3 -0.75 L-80.75 -1.25 -77.2 -0.75 -75.95 -0.25 M-109.7 -0.2 L-107.75 -1.1 -105.7 -1.4 -105.25 -1.4 -104.2 -1.25 -104.05 -1.25 -102.5 -0.65 -102.35 -0.55 -102.95 -0.65 -103.4 -0.65 -105.9 -0.25 Q-107.25 0.15 -108.25 0.85 -109.4 1.65 -110.15 2.65 L-111.45 4.95 -118.8 25.15 -119.55 23.1 -112.3 3.15 -111.25 1.3 -109.7 -0.2 M-139.7 -0.65 L-139.65 -0.75 -139.55 -0.75 -139.35 -0.8 -139.15 -0.9 -138.75 -1.05 -138.65 -1.1 -137.45 -1.35 -137.15 -1.35 -136.75 -1.4 -136.5 -1.4 -134.45 -1.1 -133.2 -0.55 -134.6 -0.65 -134.9 -0.55 -135.25 -0.55 -135.7 -0.5 -135.95 -0.4 -136.15 -0.4 -136.55 -0.35 -137.35 -0.05 -137.75 0.1 Q-138.05 0.1 -138.35 0.4 -139.55 1.05 -140.15 1.65 -141.1 2.5 -141.7 3.5 L-142.55 5.6 Q-142.9 6.75 -142.9 7.95 L-142.9 8.3 -142.8 8.6 -142.8 9.2 -143.15 8.4 -143.25 8.0 -143.55 6.95 -143.65 5.85 -143.65 5.65 -143.4 3.75 -142.65 1.95 Q-142.2 1.1 -141.45 0.5 L-139.7 -0.65 M47.4 34.8 Q48.55 34.9 49.65 35.35 L50.25 35.6 38.85 35.6 38.85 34.8 47.4 34.8 M90.55 22.6 L90.3 20.45 91.15 23.4 91.25 24.6 91.35 25.05 91.35 25.45 Q91.35 27.5 90.75 29.2 90.15 31.05 89.0 32.45 87.85 33.9 86.45 34.75 85.05 35.7 83.3 36.0 L82.85 36.1 82.45 36.1 81.95 36.2 81.4 36.2 Q79.35 36.2 77.7 35.45 L77.35 35.3 79.6 35.4 80.75 35.3 81.35 35.2 Q83.25 34.85 84.95 33.75 86.6 32.7 87.9 31.1 89.2 29.5 89.9 27.4 90.55 25.3 90.55 23.1 L90.55 22.6 M117.3 15.0 L118.1 15.0 118.1 43.75 117.8 43.15 Q117.3 42.0 117.3 40.4 L117.3 15.0 M108.9 -0.4 L111.15 -0.85 138.0 -0.9 140.25 -0.4 140.85 -0.1 140.35 -0.15 113.5 -0.05 110.6 0.45 Q109.3 1.05 108.2 2.15 107.1 3.25 106.6 4.55 106.05 5.85 105.9 7.25 L106.1 7.8 106.1 8.4 105.7 7.55 Q105.25 6.45 105.25 5.2 L105.2 4.75 Q105.3 3.9 105.7 2.8 106.1 1.8 106.95 0.9 107.75 0.1 108.9 -0.4 M73.0 -0.8 L79.15 -1.55 85.3 -0.8 87.95 0.0 81.45 -0.75 74.95 0.0 Q72.0 0.7 68.85 2.3 65.9 3.85 63.45 6.0 61.05 8.1 59.15 10.8 L57.25 13.95 55.85 17.15 54.9 20.5 54.5 23.9 54.4 24.25 54.4 26.5 54.5 27.0 54.95 30.25 55.2 31.35 55.0 30.8 Q54.4 29.0 54.15 27.65 L53.7 24.45 53.65 24.15 53.65 22.05 54.1 18.45 55.0 15.35 56.3 12.35 58.1 9.4 Q59.8 6.9 62.15 4.85 64.55 2.8 67.25 1.4 69.95 -0.05 73.0 -0.8 M23.85 -0.2 L25.1 -0.85 26.45 -1.25 27.85 -1.4 28.45 -1.4 29.7 -1.15 30.15 -1.0 30.9 -0.65 30.15 -0.65 28.5 -0.5 26.8 0.05 25.35 0.8 Q24.45 1.45 24.0 1.95 L22.9 3.25 22.1 4.75 21.6 6.35 Q21.45 7.1 21.45 8.05 L21.5 43.15 21.15 42.35 Q20.65 41.0 20.65 39.15 L20.65 5.7 Q20.65 5.0 20.8 4.4 L21.2 3.05 21.9 1.8 22.75 0.7 23.85 -0.2" fill="#ffffff" fill-rule="evenodd" stroke="none"/>
    </g>
    <linearGradient gradientTransform="matrix(0.0, 0.0391, -0.0308, 0.0, -29.35, 13.5)" gradientUnits="userSpaceOnUse" id="gradient0" spreadMethod="pad" x1="-819.2" x2="819.2">
      <stop offset="0.2196078431372549" stop-color="#adb3b5"/>
      <stop offset="0.4470588235294118" stop-color="#4f4f4f"/>
      <stop offset="0.7176470588235294" stop-color="#8b9094"/>
      <stop offset="0.7803921568627451" stop-color="#9aa0a5"/>
      <stop offset="0.8313725490196079" stop-color="#9ba4ac"/>
      <stop offset="0.9058823529411765" stop-color="#9eb1be"/>
      <stop offset="0.9882352941176471" stop-color="#a3c5dc"/>
      <stop offset="1.0" stop-color="#a4c8e0"/>
    </linearGradient>
  </defs>
</svg>
