<?xml version="1.0" encoding="UTF-8" standalone="no"?>
<svg xmlns:xlink="http://www.w3.org/1999/xlink" height="300.0px" width="300.0px" xmlns="http://www.w3.org/2000/svg">
  <g transform="matrix(1.0, 0.0, 0.0, 1.0, 0.0, 0.0)">
    <use height="250.55" transform="matrix(1.0, 0.0, 0.0, 1.0, 2.9, -0.4)" width="294.7" xlink:href="#shape0"/>
  </g>
  <defs>
    <g id="shape0" transform="matrix(1.0, 0.0, 0.0, 1.0, -2.9, 0.4)">
      <path d="M206.85 198.05 L209.2 198.05 209.2 199.95 206.85 199.95 206.85 198.05 M36.3 198.05 L38.95 198.05 38.95 216.95 36.3 216.95 36.3 198.05 M170.95 240.25 L170.95 239.45 Q170.95 238.35 171.5 237.55 172.05 236.8 173.6 236.4 L177.95 236.0 181.5 236.0 184.65 236.25 Q185.85 236.5 186.5 237.0 187.1 237.45 187.3 238.05 L187.5 239.45 187.5 240.15 185.35 240.15 185.35 240.0 Q185.35 239.0 184.85 238.5 184.4 238.05 183.55 237.95 L181.4 237.85 177.35 237.85 174.8 238.0 Q173.95 238.15 173.6 238.55 173.25 238.95 173.3 239.75 L173.3 240.25 173.45 241.2 Q173.65 241.6 174.3 241.85 L176.1 242.05 182.25 242.05 185.3 242.25 Q186.6 242.55 187.35 243.4 188.05 244.3 188.1 246.1 L188.1 246.15 Q188.05 247.6 187.5 248.4 186.9 249.25 185.95 249.6 L183.9 250.1 181.7 250.15 177.4 250.15 174.95 250.1 172.8 249.65 Q171.85 249.3 171.35 248.4 170.8 247.55 170.75 246.05 L170.75 245.2 172.95 245.2 172.95 245.9 Q172.9 247.15 173.65 247.7 174.45 248.3 176.2 248.3 L181.2 248.3 183.9 248.15 Q184.9 248.05 185.35 247.55 185.8 247.1 185.75 246.1 L185.75 246.0 185.55 244.85 Q185.35 244.4 184.65 244.15 L182.6 243.95 175.45 243.95 Q173.0 243.95 171.95 243.05 170.95 242.2 170.95 240.25 M183.1 208.8 Q183.15 207.45 182.8 206.6 182.4 205.7 181.5 205.3 180.6 204.85 179.0 204.85 L174.35 204.85 Q172.1 204.9 171.1 205.95 170.15 207.0 170.15 208.85 L170.15 211.45 Q170.15 213.05 170.8 213.9 171.4 214.75 172.4 215.0 L174.65 215.3 178.8 215.3 181.1 215.0 Q182.1 214.7 182.6 213.9 183.1 213.05 183.1 211.5 L183.1 208.8 M184.5 205.15 Q185.4 206.45 185.45 208.8 L185.45 211.2 Q185.45 213.4 184.75 214.7 184.05 216.05 182.55 216.6 L178.7 217.15 174.25 217.15 Q172.45 217.15 171.5 216.65 170.55 216.15 170.2 215.1 L170.15 215.1 170.15 221.75 167.85 221.75 167.85 203.2 170.0 203.2 170.0 205.35 170.05 205.35 Q170.6 204.1 171.85 203.55 173.1 203.0 174.65 203.0 L179.05 203.0 182.2 203.4 Q183.65 203.9 184.5 205.15 M219.05 237.85 L216.65 238.15 Q215.6 238.45 215.05 239.25 214.45 240.1 214.45 241.7 L214.45 244.45 Q214.45 246.05 215.05 246.85 215.6 247.7 216.65 248.0 L219.05 248.3 223.75 248.3 226.15 248.0 Q227.2 247.7 227.75 246.85 228.35 246.05 228.35 244.45 L228.35 241.7 Q228.35 240.1 227.75 239.25 227.2 238.45 226.15 238.15 L223.75 237.85 219.05 237.85 M212.15 244.6 L212.15 241.55 Q212.15 239.3 213.15 238.1 214.1 236.9 215.8 236.4 L219.75 236.0 223.05 236.0 227.0 236.4 Q228.7 236.9 229.65 238.1 230.65 239.3 230.7 241.55 L230.7 244.6 Q230.65 246.85 229.65 248.05 228.7 249.25 227.0 249.75 L223.05 250.15 219.75 250.15 215.8 249.75 Q214.1 249.25 213.15 248.05 212.15 246.85 212.15 244.6 M207.95 238.05 L208.15 239.45 208.15 240.15 206.0 240.15 206.0 240.0 Q206.0 239.0 205.5 238.5 205.05 238.05 204.2 237.95 L202.05 237.85 198.0 237.85 195.45 238.0 Q194.6 238.15 194.25 238.55 193.9 238.95 193.95 239.75 L193.95 240.25 194.1 241.2 Q194.3 241.6 194.95 241.85 L196.75 242.05 202.9 242.05 205.95 242.25 Q207.25 242.55 208.0 243.4 208.7 244.3 208.75 246.1 L208.75 246.15 Q208.7 247.6 208.15 248.4 207.55 249.25 206.6 249.6 L204.55 250.1 202.35 250.15 198.05 250.15 195.6 250.1 193.45 249.65 Q192.5 249.3 192.0 248.4 191.45 247.55 191.4 246.05 L191.4 245.2 193.6 245.2 193.6 245.9 Q193.55 247.15 194.3 247.7 195.1 248.3 196.85 248.3 L201.85 248.3 204.55 248.15 Q205.55 248.05 206.0 247.55 206.45 247.1 206.4 246.1 L206.4 246.0 206.2 244.85 205.3 244.15 203.25 243.95 196.1 243.95 Q193.65 243.95 192.6 243.05 191.6 242.2 191.6 240.25 L191.6 239.45 Q191.6 238.35 192.15 237.55 192.7 236.8 194.25 236.4 L198.6 236.0 202.15 236.0 205.3 236.25 Q206.5 236.5 207.15 237.0 207.75 237.45 207.95 238.05 M203.75 207.75 L203.75 209.4 201.6 209.4 201.6 208.8 Q201.65 207.1 201.3 206.25 200.9 205.4 199.85 205.1 L196.75 204.85 195.35 204.85 Q194.1 204.85 193.3 205.35 192.5 205.8 192.1 206.55 191.7 207.3 191.7 208.2 L191.7 216.95 189.35 216.95 189.35 203.2 191.55 203.2 191.55 205.2 191.6 205.2 Q192.25 203.9 193.4 203.4 194.55 202.95 195.8 203.0 L198.0 203.0 201.4 203.45 Q202.7 203.95 203.25 205.0 203.8 206.05 203.75 207.75 M206.85 203.2 L209.2 203.2 209.2 216.95 206.85 216.95 206.85 203.2 M228.1 213.25 L228.1 212.65 Q228.1 211.7 227.55 211.25 227.0 210.75 225.8 210.6 L222.9 210.5 219.3 210.5 217.0 210.65 Q216.15 210.85 215.8 211.3 215.45 211.8 215.5 212.65 L215.5 213.1 Q215.45 213.85 215.75 214.35 216.0 214.85 216.85 215.05 L219.2 215.3 222.3 215.3 225.65 215.15 Q226.95 215.0 227.55 214.55 228.15 214.1 228.1 213.25 M223.2 203.0 L227.0 203.3 Q228.6 203.65 229.5 204.65 230.4 205.7 230.45 207.7 L230.45 216.95 228.1 216.95 228.1 215.6 228.05 215.6 227.3 216.55 225.85 217.05 223.15 217.15 217.6 217.15 214.9 216.65 Q213.9 216.15 213.55 215.25 213.15 214.35 213.15 213.05 L213.15 212.1 Q213.15 210.55 213.9 209.8 214.6 209.05 216.0 208.8 L219.45 208.6 223.15 208.6 225.6 208.75 227.1 209.25 228.05 210.25 228.1 210.25 228.1 207.65 Q228.1 206.45 227.55 205.85 227.05 205.25 225.9 205.05 L223.0 204.85 219.6 204.85 217.4 205.1 Q216.65 205.3 216.35 205.7 216.1 206.15 216.1 206.7 L216.1 207.2 213.8 207.2 213.8 206.5 Q213.75 204.65 215.1 203.8 216.45 202.95 219.55 203.0 L223.2 203.0 M252.25 236.2 L254.6 236.2 254.6 249.95 252.25 249.95 252.25 236.2 M261.5 239.25 Q261.1 240.05 261.0 241.6 L274.0 241.6 274.0 240.65 273.55 239.3 Q273.15 238.7 272.1 238.25 L269.15 237.85 265.75 237.85 262.95 238.1 Q261.95 238.4 261.5 239.25 M258.65 244.5 L258.65 241.55 Q258.7 239.65 259.25 238.55 259.85 237.45 260.8 236.9 261.8 236.3 262.95 236.15 L265.4 236.0 269.15 236.0 272.85 236.4 Q274.45 236.9 275.35 238.2 276.3 239.5 276.3 241.95 L276.3 243.45 261.0 243.45 261.0 244.35 Q261.0 245.9 261.55 246.75 262.1 247.6 263.3 247.95 L266.55 248.3 269.75 248.3 272.1 248.1 Q273.0 247.9 273.45 247.35 273.9 246.85 274.0 245.8 L276.3 245.8 276.3 246.05 Q276.3 247.65 275.45 248.55 274.6 249.4 273.1 249.8 L269.35 250.15 265.15 250.15 262.85 250.0 Q261.7 249.8 260.8 249.25 259.85 248.65 259.25 247.55 258.7 246.4 258.65 244.5 M243.4 236.0 L246.8 236.45 Q248.1 236.95 248.65 238.0 249.2 239.05 249.15 240.75 L249.15 242.4 247.0 242.4 247.0 241.8 Q247.05 240.1 246.7 239.25 246.3 238.4 245.25 238.1 L242.15 237.85 240.75 237.85 Q239.5 237.85 238.7 238.35 237.9 238.8 237.5 239.55 237.1 240.3 237.1 241.2 L237.1 249.95 234.75 249.95 234.75 236.2 236.95 236.2 236.95 238.2 237.0 238.2 Q237.65 236.9 238.8 236.4 239.95 235.95 241.2 236.0 L243.4 236.0 M254.6 230.4 L254.6 232.95 252.25 232.95 252.25 230.4 254.6 230.4 M247.3 203.2 L247.3 205.05 238.1 205.05 238.1 211.95 Q238.05 213.85 238.85 214.55 239.65 215.3 241.55 215.3 L242.25 215.3 244.55 215.0 245.6 213.95 245.8 211.75 245.8 210.7 247.7 210.7 247.7 212.25 247.6 214.15 246.95 215.7 245.35 216.8 242.4 217.15 241.15 217.15 Q239.0 217.15 237.8 216.55 236.65 215.9 236.2 214.95 235.75 213.95 235.8 212.8 L235.8 205.05 232.75 205.05 232.75 203.2 235.8 203.2 235.8 199.9 238.1 199.9 238.1 203.2 247.3 203.2 M266.6 205.2 Q267.55 206.5 267.55 208.95 L267.55 210.45 252.25 210.45 252.25 211.35 Q252.25 212.9 252.8 213.75 253.35 214.6 254.55 214.95 L257.8 215.3 261.0 215.3 263.35 215.1 Q264.25 214.9 264.7 214.35 265.15 213.85 265.25 212.8 L267.55 212.8 267.55 213.05 Q267.55 214.65 266.7 215.55 L264.35 216.8 260.6 217.15 256.4 217.15 254.1 217.0 Q252.95 216.8 252.05 216.25 251.1 215.65 250.5 214.55 249.95 213.4 249.9 211.5 L249.9 208.55 Q249.95 206.65 250.5 205.55 251.1 204.45 252.05 203.9 253.05 203.3 254.2 203.15 L256.65 203.0 260.4 203.0 264.1 203.4 Q265.7 203.9 266.6 205.2 M264.8 206.3 Q264.4 205.7 263.35 205.25 L260.4 204.85 257.0 204.85 254.2 205.1 Q253.2 205.4 252.75 206.25 252.35 207.05 252.25 208.6 L265.25 208.6 265.25 207.65 Q265.25 206.95 264.8 206.3 M293.3 244.15 L291.25 243.95 284.1 243.95 Q281.65 243.95 280.6 243.05 279.6 242.2 279.6 240.25 L279.6 239.45 Q279.6 238.35 280.15 237.55 280.7 236.8 282.25 236.4 L286.6 236.0 290.15 236.0 293.3 236.25 Q294.5 236.5 295.15 237.0 295.75 237.45 295.95 238.05 L296.15 239.45 296.15 240.15 294.0 240.15 294.0 240.0 Q294.0 239.0 293.5 238.5 293.05 238.05 292.2 237.95 L290.05 237.85 286.0 237.85 283.45 238.0 Q282.6 238.15 282.25 238.55 281.9 238.95 281.95 239.75 L281.95 240.25 Q281.9 240.85 282.1 241.2 L282.95 241.85 284.75 242.05 290.9 242.05 293.95 242.25 Q295.25 242.55 296.0 243.4 296.7 244.3 296.75 246.1 L296.75 246.15 Q296.7 247.6 296.15 248.4 295.55 249.25 294.6 249.6 L292.55 250.1 290.35 250.15 286.05 250.15 283.6 250.1 281.45 249.65 Q280.5 249.3 280.0 248.4 279.45 247.55 279.4 246.05 L279.4 245.2 281.6 245.2 281.6 245.9 Q281.55 247.15 282.3 247.7 283.1 248.3 284.85 248.3 L289.85 248.3 292.55 248.15 Q293.55 248.05 294.0 247.55 294.45 247.1 294.4 246.1 L294.4 246.0 294.2 244.85 Q294.0 244.4 293.3 244.15 M13.5 232.35 L11.2 232.65 Q10.15 233.0 9.55 233.9 8.95 234.85 8.95 236.5 L8.95 243.85 Q8.95 245.5 9.55 246.45 10.15 247.35 11.2 247.7 L13.5 248.0 22.8 248.0 25.55 247.7 Q26.55 247.4 26.95 246.65 27.4 245.9 27.35 244.6 L27.35 243.4 29.85 243.4 29.85 244.7 Q29.85 246.5 29.35 247.7 28.8 248.9 27.4 249.55 25.95 250.15 23.25 250.15 L13.25 250.15 Q10.6 250.15 9.1 249.35 7.55 248.55 6.9 246.95 6.25 245.3 6.3 242.85 L6.3 237.5 Q6.25 235.05 6.9 233.4 7.55 231.8 9.1 231.0 10.6 230.2 13.25 230.2 L23.35 230.2 Q25.75 230.2 27.1 230.85 28.45 231.55 28.95 232.65 29.5 233.7 29.5 235.05 L29.5 236.75 27.2 236.75 27.2 235.85 Q27.15 234.2 26.55 233.45 25.95 232.7 24.95 232.5 L22.7 232.35 13.5 232.35 M47.9 246.25 L47.9 245.65 Q47.9 244.7 47.35 244.25 46.8 243.75 45.6 243.6 L42.7 243.5 39.1 243.5 36.8 243.65 Q35.95 243.85 35.6 244.3 35.25 244.8 35.3 245.65 L35.3 246.1 Q35.25 246.85 35.55 247.35 L36.65 248.05 39.0 248.3 42.1 248.3 45.45 248.15 Q46.75 248.0 47.35 247.55 47.95 247.1 47.9 246.25 M49.3 237.65 Q50.2 238.7 50.25 240.7 L50.25 249.95 47.9 249.95 47.9 248.6 47.85 248.6 47.1 249.55 Q46.65 249.9 45.65 250.05 L42.95 250.15 37.4 250.15 Q35.65 250.15 34.7 249.65 33.7 249.15 33.35 248.25 32.95 247.35 32.95 246.05 L32.95 245.1 Q32.95 243.55 33.7 242.8 34.4 242.05 35.8 241.8 L39.25 241.6 42.95 241.6 45.4 241.75 46.9 242.25 47.85 243.25 47.9 243.25 47.9 240.65 Q47.9 239.45 47.35 238.85 46.85 238.25 45.7 238.05 L42.8 237.85 39.4 237.85 37.2 238.1 Q36.45 238.3 36.15 238.7 35.9 239.15 35.9 239.7 L35.9 240.2 33.6 240.2 33.6 239.5 Q33.55 237.65 34.9 236.8 36.25 235.95 39.35 236.0 L43.0 236.0 46.8 236.3 Q48.4 236.65 49.3 237.65 M55.6 232.9 L57.9 232.9 57.9 236.2 67.1 236.2 67.1 238.05 57.9 238.05 57.9 244.95 Q57.85 246.85 58.65 247.55 59.45 248.3 61.35 248.3 L62.05 248.3 64.35 248.0 65.4 246.95 65.6 244.75 65.6 243.7 67.5 243.7 67.5 245.25 67.4 247.15 Q67.25 248.05 66.75 248.7 66.25 249.4 65.15 249.8 L62.2 250.15 60.95 250.15 Q58.8 250.15 57.6 249.55 56.45 248.9 56.0 247.95 55.55 246.95 55.6 245.8 L55.6 238.05 52.55 238.05 52.55 236.2 55.6 236.2 55.6 232.9 M60.75 207.65 L60.75 216.95 58.45 216.95 58.45 208.2 Q58.5 207.2 58.15 206.45 57.8 205.7 56.7 205.3 L53.35 204.85 52.8 204.85 48.65 205.25 Q47.2 205.65 46.65 206.55 46.1 207.5 46.1 209.1 L46.1 216.95 43.8 216.95 43.8 203.2 45.95 203.2 45.95 205.55 46.0 205.55 Q46.45 204.5 47.2 203.95 47.95 203.4 49.0 203.15 L51.55 203.0 55.05 203.0 Q57.2 203.0 58.45 203.65 59.7 204.25 60.25 205.3 60.8 206.4 60.75 207.65 M70.55 210.5 L68.25 210.65 Q67.4 210.85 67.05 211.3 66.7 211.8 66.75 212.65 L66.75 213.1 Q66.7 213.85 67.0 214.35 67.25 214.85 68.1 215.05 L70.45 215.3 73.55 215.3 76.9 215.15 78.8 214.55 Q79.4 214.1 79.35 213.25 L79.35 212.65 Q79.35 211.7 78.8 211.25 78.25 210.75 77.05 210.6 L74.15 210.5 70.55 210.5 M94.8 232.55 L88.25 243.65 101.35 243.65 94.8 232.55 M93.15 230.4 L96.45 230.4 108.05 249.95 105.1 249.95 102.65 245.8 87.0 245.8 84.55 249.95 81.55 249.95 93.15 230.4 M81.7 207.7 L81.7 216.95 79.35 216.95 79.35 215.6 79.3 215.6 78.55 216.55 Q78.1 216.9 77.1 217.05 L74.4 217.15 68.85 217.15 66.15 216.65 Q65.15 216.15 64.8 215.25 64.4 214.35 64.4 213.05 L64.4 212.1 Q64.4 210.55 65.15 209.8 65.85 209.05 67.25 208.8 L70.7 208.6 74.4 208.6 76.85 208.75 Q77.8 208.9 78.35 209.25 78.9 209.6 79.3 210.25 L79.35 210.25 79.35 207.65 Q79.35 206.45 78.8 205.85 78.3 205.25 77.15 205.05 L74.25 204.85 70.85 204.85 68.65 205.1 Q67.9 205.3 67.6 205.7 67.35 206.15 67.35 206.7 L67.35 207.2 65.05 207.2 65.05 206.5 Q65.0 204.65 66.35 203.8 67.7 202.95 70.8 203.0 L74.45 203.0 78.25 203.3 Q79.85 203.65 80.75 204.65 81.65 205.7 81.7 207.7 M96.95 204.85 L92.3 204.85 Q90.05 204.9 89.05 205.95 88.1 207.0 88.1 208.85 L88.1 211.45 Q88.1 213.05 88.75 213.9 89.35 214.75 90.35 215.0 L92.6 215.3 96.75 215.3 99.05 215.0 Q100.05 214.7 100.55 213.9 101.05 213.05 101.05 211.5 L101.05 208.8 Q101.1 207.45 100.75 206.6 100.35 205.7 99.45 205.3 L96.95 204.85 M102.45 205.15 Q103.35 206.45 103.4 208.8 L103.4 211.2 Q103.4 213.4 102.7 214.7 102.0 216.05 100.5 216.6 L96.65 217.15 92.2 217.15 89.45 216.65 Q88.5 216.15 88.15 215.1 L88.1 215.1 88.1 221.75 85.8 221.75 85.8 203.2 87.95 203.2 87.95 205.35 88.0 205.35 Q88.55 204.1 89.8 203.55 91.05 203.0 92.6 203.0 L97.0 203.0 100.15 203.4 Q101.6 203.9 102.45 205.15 M160.5 237.85 L157.1 237.85 154.3 238.1 Q153.3 238.4 152.85 239.25 152.45 240.05 152.35 241.6 L165.35 241.6 165.35 240.65 Q165.35 239.95 164.9 239.3 164.5 238.7 163.45 238.25 L160.5 237.85 M150.0 244.5 L150.0 241.55 Q150.05 239.65 150.6 238.55 151.2 237.45 152.15 236.9 153.15 236.3 154.3 236.15 L156.75 236.0 160.5 236.0 164.2 236.4 Q165.8 236.9 166.7 238.2 167.65 239.5 167.65 241.95 L167.65 243.45 152.35 243.45 152.35 244.35 Q152.35 245.9 152.9 246.75 153.45 247.6 154.65 247.95 L157.9 248.3 161.1 248.3 163.45 248.1 Q164.35 247.9 164.8 247.35 165.25 246.85 165.35 245.8 L167.65 245.8 167.65 246.05 Q167.65 247.65 166.8 248.55 165.95 249.4 164.45 249.8 L160.7 250.15 156.5 250.15 154.2 250.0 152.15 249.25 Q151.2 248.65 150.6 247.55 150.05 246.4 150.0 244.5 M130.0 244.6 L130.0 241.55 Q130.05 239.7 130.65 238.55 131.2 237.45 132.2 236.9 133.2 236.3 134.4 236.15 L136.95 236.0 140.8 236.0 Q144.05 236.0 145.45 237.2 146.85 238.45 146.85 240.65 L146.85 241.0 144.7 241.0 144.7 240.7 Q144.7 239.55 144.2 238.95 143.75 238.3 142.85 238.1 L140.85 237.85 136.55 237.85 134.5 238.05 Q133.55 238.3 132.95 239.1 132.35 239.9 132.35 241.6 L132.35 244.5 Q132.35 246.0 132.95 246.85 133.5 247.65 134.55 248.0 L137.05 248.3 140.95 248.3 142.95 248.05 144.35 247.15 Q144.9 246.5 144.9 245.4 L144.9 244.95 147.1 244.95 147.1 245.35 Q147.1 247.9 145.65 249.05 144.25 250.2 141.05 250.15 L135.8 250.15 134.0 250.0 Q133.05 249.8 132.15 249.25 131.2 248.7 130.65 247.6 130.05 246.45 130.0 244.6 M126.85 240.65 L126.85 241.0 124.7 241.0 124.7 240.7 Q124.7 239.55 124.2 238.95 123.75 238.3 122.85 238.1 L120.85 237.85 116.55 237.85 114.5 238.05 Q113.55 238.3 112.95 239.1 112.35 239.9 112.35 241.6 L112.35 244.5 Q112.35 246.0 112.95 246.85 113.5 247.65 114.55 248.0 L117.05 248.3 120.95 248.3 122.95 248.05 Q123.85 247.75 124.35 247.15 124.9 246.5 124.9 245.4 L124.9 244.95 127.1 244.95 127.1 245.35 Q127.1 247.9 125.65 249.05 124.25 250.2 121.05 250.15 L115.8 250.15 114.0 250.0 112.15 249.25 Q111.2 248.7 110.65 247.6 110.05 246.45 110.0 244.6 L110.0 241.55 Q110.05 239.7 110.65 238.55 111.2 237.45 112.2 236.9 113.2 236.3 114.4 236.15 L116.95 236.0 120.8 236.0 Q124.05 236.0 125.45 237.2 126.85 238.45 126.85 240.65 M123.8 205.15 Q124.7 206.45 124.75 208.8 L124.75 211.2 Q124.75 213.4 124.05 214.7 123.35 216.05 121.85 216.6 L118.0 217.15 113.55 217.15 Q111.75 217.15 110.8 216.65 109.85 216.15 109.5 215.1 L109.45 215.1 109.45 221.75 107.15 221.75 107.15 203.2 109.3 203.2 109.3 205.35 109.35 205.35 Q109.9 204.1 111.15 203.55 112.4 203.0 113.95 203.0 L118.35 203.0 121.5 203.4 Q122.95 203.9 123.8 205.15 M122.4 208.8 Q122.45 207.45 122.1 206.6 121.7 205.7 120.8 205.3 119.9 204.85 118.3 204.85 L113.65 204.85 Q111.4 204.9 110.4 205.95 109.45 207.0 109.45 208.85 L109.45 211.45 Q109.45 213.05 110.1 213.9 110.7 214.75 111.7 215.0 L113.95 215.3 118.1 215.3 120.4 215.0 Q121.4 214.7 121.9 213.9 122.4 213.05 122.4 211.5 L122.4 208.8 M143.05 207.75 L143.05 209.4 140.9 209.4 140.9 208.8 Q140.95 207.1 140.6 206.25 140.2 205.4 139.15 205.1 L136.05 204.85 134.65 204.85 Q133.4 204.85 132.6 205.35 131.8 205.8 131.4 206.55 131.0 207.3 131.0 208.2 L131.0 216.95 128.65 216.95 128.65 203.2 130.85 203.2 130.85 205.2 130.9 205.2 Q131.55 203.9 132.7 203.4 L135.1 203.0 137.3 203.0 140.7 203.45 Q142.0 203.95 142.55 205.0 143.1 206.05 143.05 207.75 M153.0 203.0 L156.3 203.0 160.25 203.4 Q161.95 203.9 162.9 205.1 163.9 206.3 163.95 208.55 L163.95 211.6 Q163.9 213.85 162.9 215.05 161.95 216.25 160.25 216.75 L156.3 217.15 153.0 217.15 149.05 216.75 Q147.35 216.25 146.4 215.05 145.4 213.85 145.4 211.6 L145.4 208.55 Q145.4 206.3 146.4 205.1 147.35 203.9 149.05 203.4 L153.0 203.0 M161.6 208.7 Q161.6 207.1 161.0 206.25 160.45 205.45 159.4 205.15 L157.0 204.85 152.3 204.85 149.9 205.15 Q148.85 205.45 148.3 206.25 147.7 207.1 147.7 208.7 L147.7 211.45 Q147.7 213.05 148.3 213.85 148.85 214.7 149.9 215.0 L152.3 215.3 157.0 215.3 159.4 215.0 Q160.45 214.7 161.0 213.85 161.6 213.05 161.6 211.45 L161.6 208.7" fill="#000000" fill-rule="evenodd" stroke="none"/>
      <path d="M190.65 170.6 Q190.65 173.4 191.15 175.75 191.65 178.1 192.65 180.4 189.65 179.75 188.3 177.3 186.9 174.85 186.9 170.1 186.9 164.65 188.85 162.15 190.75 159.65 194.95 159.65 198.0 159.65 199.7 160.9 201.4 162.1 202.35 164.9 200.45 164.1 198.95 163.7 L196.15 163.3 Q193.2 163.3 191.95 164.95 190.65 166.6 190.65 170.6 M171.35 181.45 L154.35 181.45 150.3 177.85 167.7 177.85 167.7 170.95 171.35 174.35 171.35 181.45 M191.3 188.45 L195.05 188.55 Q200.4 188.55 204.45 187.55 208.95 186.45 211.8 184.05 217.15 179.55 217.15 170.05 217.15 165.0 215.75 161.7 214.35 158.35 211.1 155.6 216.55 159.35 218.75 163.05 220.95 166.75 220.95 172.2 220.95 176.65 219.45 180.25 217.95 183.9 215.05 186.55 212.3 189.1 207.85 190.6 L205.5 191.3 205.3 191.3 205.3 191.35 Q202.0 192.15 198.5 192.15 195.05 192.15 191.75 191.3 L191.3 191.2 189.75 190.7 Q185.55 189.2 181.35 186.2 184.4 187.4 187.7 188.0 L191.3 188.45 M226.35 171.65 L222.25 168.2 225.25 168.2 226.35 171.65 M241.55 162.7 L238.2 175.0 236.35 168.2 239.8 168.2 239.8 161.3 241.55 162.7 M206.85 198.05 L206.85 197.4 209.2 197.4 209.2 198.05 206.85 198.05 M205.3 196.1 L205.3 196.05 205.5 196.05 205.3 196.1 M232.55 187.45 L243.7 187.45 246.55 177.1 248.55 183.9 246.4 191.0 237.7 191.0 232.55 187.45 M273.6 168.2 L273.6 161.3 277.1 164.85 277.1 171.75 270.55 171.75 265.15 191.0 255.75 191.0 251.2 187.45 262.5 187.45 267.9 168.2 273.6 168.2 M258.65 168.2 L256.9 175.0 253.0 161.3 255.15 162.7 255.15 168.2 258.65 168.2 M297.6 158.15 L295.7 178.95 286.85 178.95 282.35 175.35 292.1 175.35 293.85 154.25 297.6 158.15 M293.2 180.6 L296.8 184.25 296.8 191.0 286.3 191.0 282.35 187.45 293.2 187.45 293.2 180.6 M25.95 154.25 L32.6 159.95 34.35 163.6 32.35 167.9 25.95 154.25 M7.8 161.15 L7.8 164.7 2.9 161.15 7.8 161.15 M2.9 187.45 L23.4 187.45 23.4 180.6 25.05 181.85 26.75 185.7 26.75 191.0 8.25 191.0 2.9 187.45 M22.45 178.95 L18.85 178.95 18.85 168.0 22.45 175.8 22.45 178.95 M34.5 191.0 L29.7 187.45 35.95 187.45 44.35 168.1 44.35 177.7 43.6 178.95 39.9 178.95 39.9 187.45 38.3 191.0 34.5 191.0 M36.3 198.05 L36.3 197.4 38.95 197.4 38.95 198.05 36.3 198.05 M63.65 154.25 L67.2 160.65 67.2 164.7 60.7 164.7 60.7 178.95 57.1 178.95 57.1 161.15 63.65 161.15 63.65 154.25 M41.55 187.45 L63.65 187.45 63.65 180.6 67.2 184.45 67.2 191.0 46.1 191.0 41.55 187.45 M78.5 187.8 L81.8 188.35 85.0 188.5 Q93.0 188.5 97.2 185.85 L99.3 184.2 Q101.8 181.65 102.7 177.5 L106.1 180.45 Q104.3 186.1 99.85 189.15 L99.3 189.5 Q97.5 190.65 95.35 191.3 92.4 192.2 88.8 192.2 85.35 192.2 82.25 191.3 L81.8 191.2 80.1 190.55 Q76.05 188.9 73.1 185.8 75.55 187.15 78.5 187.8 M82.6 167.2 Q83.5 166.3 85.1 166.3 86.8 166.3 87.6 167.15 88.35 168.0 88.4 169.85 L81.55 169.85 Q81.65 168.15 82.6 167.2 M82.55 180.1 Q81.6 179.15 81.55 177.35 L88.5 177.35 Q88.35 179.3 87.55 180.2 86.75 181.05 85.1 181.05 83.45 181.05 82.55 180.1 M106.65 177.0 L106.5 178.8 102.9 175.65 102.95 174.65 103.0 173.3 Q103.0 170.05 101.85 167.45 100.7 164.8 98.25 162.4 102.6 165.4 104.65 168.6 106.65 171.8 106.65 175.65 L106.65 177.0 M113.4 185.8 Q115.75 187.1 118.55 187.75 L118.8 187.8 125.3 188.5 Q130.7 188.5 134.35 187.3 L137.5 185.85 Q141.75 183.2 143.0 177.5 L146.4 180.45 Q144.85 185.35 141.3 188.3 L140.15 189.15 Q138.1 190.55 135.65 191.3 132.7 192.2 129.1 192.2 125.65 192.2 122.55 191.3 L120.4 190.55 118.55 189.7 Q115.65 188.15 113.4 185.8 M127.9 167.15 Q128.65 168.0 128.7 169.85 L121.85 169.85 Q121.95 168.15 122.9 167.2 123.8 166.3 125.4 166.3 127.1 166.3 127.9 167.15 M125.4 181.05 Q123.75 181.05 122.85 180.1 121.9 179.15 121.85 177.35 L128.8 177.35 Q128.65 179.3 127.85 180.2 127.05 181.05 125.4 181.05 M146.8 178.8 L143.2 175.65 143.25 174.65 143.3 173.3 Q143.3 170.05 142.15 167.45 141.0 164.8 138.55 162.4 142.9 165.4 144.95 168.6 146.95 171.8 146.95 175.65 L146.95 177.0 146.8 178.8" fill="#990000" fill-rule="evenodd" stroke="none"/>
      <path d="M185.25 170.1 Q185.25 176.45 187.55 179.25 189.85 182.1 194.95 182.1 200.05 182.1 202.35 179.25 204.6 176.45 204.6 170.1 204.6 163.75 202.35 160.9 200.05 158.1 194.95 158.1 189.85 158.1 187.55 160.9 185.25 163.75 185.25 170.1 M179.2 157.25 Q184.05 153.3 194.95 153.3 205.8 153.3 210.65 157.25 215.5 161.25 215.5 170.1 215.5 178.95 210.7 182.9 205.8 186.9 194.95 186.9 184.05 186.9 179.2 182.95 174.35 178.95 174.35 170.1 174.35 161.2 179.2 157.25 M166.15 176.15 L150.3 176.15 150.3 170.95 166.15 170.95 166.15 176.15 M238.2 166.5 L234.0 166.5 238.1 180.75 243.7 161.3 251.35 161.3 256.9 180.75 261.0 166.5 256.9 166.5 256.9 161.3 271.9 161.3 271.9 166.5 266.6 166.5 261.2 185.8 250.95 185.8 246.45 171.15 242.4 185.8 232.1 185.8 226.45 166.5 222.25 166.5 222.25 161.3 238.2 161.3 238.2 166.5 M282.35 180.6 L291.6 180.6 291.6 185.8 282.35 185.8 282.35 180.6 M280.8 154.25 L292.15 154.25 290.65 173.75 282.25 173.75 280.8 154.25 M40.3 154.25 L61.95 154.25 61.95 159.5 55.45 159.5 55.45 180.6 61.95 180.6 61.95 185.8 41.6 185.8 41.6 180.6 46.0 180.6 46.0 160.1 34.85 185.8 28.7 185.8 17.2 160.25 17.2 180.6 21.75 180.6 21.75 185.8 2.9 185.8 2.9 180.6 9.4 180.6 9.4 159.5 2.9 159.5 2.9 154.25 24.1 154.25 32.45 172.3 40.3 154.25 M79.55 171.5 L90.35 171.5 90.35 170.7 Q90.35 167.65 89.0 166.15 87.65 164.6 85.0 164.6 82.5 164.6 81.05 166.35 79.55 168.1 79.55 171.15 L79.55 171.5 M79.6 176.55 Q79.6 179.45 81.0 181.05 82.35 182.5 84.8 182.55 L85.3 182.55 Q87.6 182.45 88.8 181.3 90.1 180.05 90.1 177.7 L90.1 177.35 100.85 177.35 Q100.0 180.5 98.2 182.55 97.15 183.75 95.75 184.55 92.0 186.85 85.0 186.85 L81.8 186.7 Q76.0 186.15 72.85 183.55 68.8 180.25 68.8 173.6 68.8 166.95 72.85 163.65 76.95 160.35 85.0 160.35 93.15 160.35 97.15 163.65 101.2 166.95 101.2 173.65 L101.15 174.4 101.1 175.7 79.65 175.7 79.65 176.1 79.6 176.55 M119.85 171.5 L130.65 171.5 130.65 170.7 Q130.65 167.65 129.3 166.15 127.95 164.6 125.3 164.6 122.8 164.6 121.35 166.35 119.85 168.1 119.85 171.15 L119.85 171.5 M119.9 176.55 Q119.9 179.45 121.3 181.05 122.7 182.55 125.3 182.55 127.8 182.55 129.1 181.3 130.4 180.05 130.4 177.7 L130.4 177.35 141.15 177.35 Q139.85 182.3 136.05 184.55 132.3 186.85 125.3 186.85 117.15 186.85 113.15 183.55 109.1 180.25 109.1 173.6 109.1 166.95 113.15 163.65 117.25 160.35 125.3 160.35 133.45 160.35 137.45 163.65 141.5 166.95 141.5 173.65 L141.45 174.4 141.4 175.7 119.95 175.7 119.95 176.1 119.9 176.55" fill="#ff0066" fill-rule="evenodd" stroke="none"/>
      <path d="M198.1 51.6 L216.1 11.6 224.1 69.6 Q235.0 93.15 218.4 112.0 203.9 128.4 173.25 137.1 144.3 145.3 116.25 142.75 86.75 140.05 75.1 126.6 55.1 103.5 81.6 72.75 94.85 57.35 112.1 46.6 L121.1 -0.4 130.1 44.6 198.1 51.6" fill="#262261" fill-rule="evenodd" stroke="none"/>
      <path d="M109.0 90.15 Q102.6 90.15 96.8 87.65 91.2 85.25 86.9 80.85 91.2 76.4 96.8 74.0 102.6 71.5 109.0 71.5 115.4 71.5 121.15 74.0 126.8 76.4 131.05 80.85 126.75 85.25 121.15 87.65 115.4 90.15 109.0 90.15" fill="#ffffff" fill-rule="evenodd" stroke="none"/>
      <path d="M104.85 80.5 Q104.85 74.05 109.45 69.6 114.1 74.1 114.1 80.5 114.1 83.65 112.85 86.55 111.65 89.35 109.45 91.45 104.85 87.0 104.85 80.5" fill="#000000" fill-rule="evenodd" stroke="none"/>
      <path d="M150.9 81.85 Q155.2 86.25 160.8 88.65 166.6 91.15 173.0 91.15 179.4 91.15 185.15 88.65 190.75 86.25 195.05 81.85" fill="none" stroke="#ffffff" stroke-linecap="butt" stroke-linejoin="miter-clip" stroke-miterlimit="4.0" stroke-width="3.0"/>
      <path d="M133.9 117.85 Q138.2 122.25 143.8 124.65 149.6 127.15 156.0 127.15 162.4 127.15 168.15 124.65 173.75 122.25 178.05 117.85" fill="none" stroke="#ffffff" stroke-linecap="butt" stroke-linejoin="miter-clip" stroke-miterlimit="4.0" stroke-width="3.0"/>
      <path d="M134.25 117.85 Q129.95 122.25 124.35 124.65 118.55 127.15 112.15 127.15 105.8 127.15 100.0 124.65 94.4 122.25 90.1 117.85" fill="none" stroke="#ffffff" stroke-linecap="butt" stroke-linejoin="miter-clip" stroke-miterlimit="4.0" stroke-width="3.0"/>
      <path d="M124.1 109.6 L142.1 109.6 134.1 119.6 124.1 109.6" fill="#ffffff" fill-rule="evenodd" stroke="none"/>
      <path d="M154.1 85.1 L147.6 91.6" fill="none" stroke="#ffffff" stroke-linecap="butt" stroke-linejoin="miter-clip" stroke-miterlimit="4.0" stroke-width="3.0"/>
      <path d="M159.8 89.3 L155.3 97.3" fill="none" stroke="#ffffff" stroke-linecap="butt" stroke-linejoin="miter-clip" stroke-miterlimit="4.0" stroke-width="3.0"/>
      <path d="M166.5 91.9 L164.25 100.8" fill="none" stroke="#ffffff" stroke-linecap="butt" stroke-linejoin="miter-clip" stroke-miterlimit="4.0" stroke-width="3.0"/>
      <path d="M173.6 92.6 L173.8 101.75" fill="none" stroke="#ffffff" stroke-linecap="butt" stroke-linejoin="miter-clip" stroke-miterlimit="4.0" stroke-width="3.0"/>
      <path d="M180.6 91.35 L183.3 100.15" fill="none" stroke="#ffffff" stroke-linecap="butt" stroke-linejoin="miter-clip" stroke-miterlimit="4.0" stroke-width="3.0"/>
      <path d="M187.05 88.3 L192.0 96.05" fill="none" stroke="#ffffff" stroke-linecap="butt" stroke-linejoin="miter-clip" stroke-miterlimit="4.0" stroke-width="3.0"/>
      <path d="M192.45 83.6 L199.3 89.8" fill="none" stroke="#ffffff" stroke-linecap="butt" stroke-linejoin="miter-clip" stroke-miterlimit="4.0" stroke-width="3.0"/>
    </g>
  </defs>
</svg>
