<?xml version="1.0" encoding="UTF-8" standalone="no"?>
<svg xmlns:xlink="http://www.w3.org/1999/xlink" height="300.0px" width="300.0px" xmlns="http://www.w3.org/2000/svg">
  <g transform="matrix(1.0, 0.0, 0.0, 1.0, 0.0, 0.0)">
    <use height="171.05" transform="matrix(0.7324, 0.0, 0.0, 0.7324, 2.5558, 92.4692)" width="402.1" xlink:href="#sprite0"/>
  </g>
  <defs>
    <g id="sprite0" transform="matrix(1.0, 0.0, 0.0, 1.0, 201.05, 86.2)">
      <use height="107.35" transform="matrix(1.0, 0.0, 0.0, 1.0, -201.05, -86.2)" width="402.1" xlink:href="#shape0"/>
      <use height="52.05" transform="matrix(1.0, 0.0, 0.0, 1.0, -108.8, 32.8)" width="245.35" xlink:href="#text0"/>
    </g>
    <g id="shape0" transform="matrix(1.0, 0.0, 0.0, 1.0, 201.05, 86.2)">
      <path d="M-82.05 -84.35 L-82.65 -84.65 -93.2 -84.65 Q-94.45 -84.65 -95.85 -83.7 -97.25 -82.8 -98.1 -81.45 L-104.3 -69.7 Q-105.3 -67.8 -105.3 -65.35 -105.3 -62.95 -104.25 -60.8 L-98.1 -48.95 Q-97.5 -47.95 -95.9 -46.95 -94.45 -46.0 -92.85 -46.0 L-82.85 -46.0 Q-82.45 -46.0 -82.15 -46.35 L-81.85 -46.9 -82.15 -47.5 -82.85 -47.85 -92.55 -47.85 Q-95.45 -47.85 -96.7 -50.5 L-102.3 -61.3 Q-103.3 -63.2 -103.3 -65.45 -103.3 -67.8 -102.35 -69.35 L-96.5 -80.4 Q-95.2 -82.8 -92.85 -82.8 L-82.75 -82.8 Q-82.35 -82.8 -82.05 -83.1 -81.75 -83.4 -81.75 -83.75 -81.75 -84.05 -82.05 -84.35 M-82.95 -81.45 L-83.15 -80.9 -82.85 -80.25 -82.25 -80.05 Q-81.9 -80.05 -81.55 -80.4 L-81.35 -80.9 Q-81.35 -81.25 -81.65 -81.5 L-82.25 -81.8 Q-82.8 -81.8 -82.95 -81.45 M-80.3 -81.85 Q-80.3 -80.05 -81.6 -78.65 -82.85 -77.3 -84.65 -77.3 L-94.8 -77.3 -95.35 -76.75 -101.25 -65.75 Q-101.75 -64.8 -101.75 -63.4 -101.75 -62.1 -101.15 -60.9 L-95.55 -50.05 Q-95.25 -49.3 -94.5 -49.3 L-84.85 -49.3 -83.2 -49.05 -81.75 -48.1 Q-80.4 -46.9 -80.4 -44.95 -80.4 -43.0 -81.75 -41.8 -83.0 -40.55 -84.85 -40.55 L-94.8 -40.55 -97.25 -40.85 Q-98.65 -41.35 -99.65 -42.0 -100.8 -42.6 -101.75 -43.55 L-103.15 -45.35 -109.35 -57.3 Q-110.75 -60.35 -110.75 -63.35 -110.75 -66.7 -109.4 -69.35 L-103.15 -81.1 Q-102.05 -83.15 -99.75 -84.6 -97.5 -86.2 -95.25 -86.2 L-84.65 -86.2 Q-82.9 -86.2 -81.55 -84.85 -80.3 -83.6 -80.3 -81.85 M-95.95 -84.7 L-95.35 -85.35 Q-97.05 -85.35 -98.95 -84.35 -100.8 -83.25 -101.55 -81.85 L-100.5 -82.25 -99.5 -82.45 -98.95 -82.25 -98.3 -83.05 Q-97.5 -83.5 -97.45 -83.75 L-97.0 -84.1 -95.95 -84.7 M-105.3 -70.35 L-99.55 -81.1 -102.3 -80.4 -108.45 -68.95 -109.0 -67.35 -109.35 -65.75 -109.6 -63.4 -109.35 -61.25 Q-109.1 -59.95 -108.45 -58.6 L-102.35 -46.3 -99.1 -48.1 -105.3 -59.2 -106.35 -61.65 -106.65 -64.2 Q-106.65 -66.3 -106.15 -67.85 L-105.75 -69.15 -105.3 -70.35 M-100.15 -43.45 Q-99.6 -43.1 -99.1 -43.1 L-99.55 -44.05 -98.8 -43.55 -99.1 -44.5 -98.4 -44.05 -98.7 -44.85 -98.1 -44.5 -98.35 -45.15 -97.8 -44.85 -97.95 -45.55 -97.5 -45.35 -97.6 -45.85 -97.2 -45.85 -97.2 -46.25 Q-97.4 -46.25 -97.55 -46.4 L-98.1 -46.95 Q-99.55 -46.95 -100.75 -46.05 L-101.75 -45.15 -100.7 -43.9 -100.45 -43.65 -100.15 -43.45 M-82.95 -43.15 Q-82.7 -42.85 -82.25 -42.85 -81.25 -42.85 -81.25 -43.75 L-81.5 -44.4 Q-81.8 -44.7 -82.25 -44.7 L-82.85 -44.5 -83.15 -43.75 -82.95 -43.15" fill="#000000" fill-rule="evenodd" stroke="none"/>
      <path d="M-53.2 -81.05 Q-53.75 -81.6 -54.55 -81.6 L-55.5 -81.4 -56.7 -78.25 Q-55.65 -78.1 -55.3 -77.3 L-49.4 -66.4 -48.85 -64.05 -48.95 -62.75 Q-49.0 -62.0 -49.55 -61.0 L-53.7 -51.8 -54.55 -50.3 -55.6 -49.05 -54.9 -48.9 Q-54.1 -48.9 -53.4 -49.6 L-52.35 -50.9 -46.75 -61.0 Q-46.15 -62.1 -45.8 -63.35 L-45.6 -64.9 -45.85 -66.6 -46.75 -68.95 -52.35 -80.05 -53.2 -81.05 M-54.5 -82.85 Q-52.35 -82.85 -51.15 -80.6 L-45.6 -69.4 Q-44.7 -67.6 -44.7 -65.3 L-44.9 -63.25 Q-45.05 -62.35 -45.6 -61.2 L-51.35 -49.85 Q-52.55 -47.85 -54.5 -47.85 -56.9 -47.85 -57.65 -49.95 L-63.35 -61.2 Q-64.25 -63.3 -64.25 -65.35 -64.25 -67.35 -63.35 -69.4 L-57.8 -80.65 Q-56.75 -82.85 -54.5 -82.85 M-58.25 -85.1 L-60.05 -84.35 -61.6 -83.25 -62.7 -81.85 -61.65 -82.25 -60.65 -82.45 -60.05 -82.25 -58.5 -84.05 -56.5 -85.35 -58.25 -85.1 M-59.25 -81.8 L-65.2 -69.8 -66.0 -67.65 -66.2 -65.3 -66.0 -62.95 -65.2 -60.8 -59.25 -48.95 Q-58.65 -47.7 -57.35 -46.85 -56.2 -46.0 -54.5 -46.0 -51.25 -46.0 -49.75 -48.9 L-43.8 -60.75 Q-42.8 -63.45 -42.8 -65.3 L-43.15 -67.65 Q-43.3 -68.8 -43.8 -69.8 L-49.7 -81.8 Q-51.05 -84.65 -54.5 -84.65 -57.9 -84.65 -59.25 -81.8 M-57.8 -77.1 L-57.75 -77.25 -57.85 -77.4 -58.05 -77.55 -58.25 -77.45 -58.35 -77.2 -58.05 -76.95 Q-57.95 -76.95 -57.8 -77.1 M-50.15 -63.4 Q-50.15 -64.1 -50.3 -64.7 L-50.75 -65.9 -56.5 -77.4 -62.25 -65.95 -62.8 -63.35 -62.65 -62.05 -62.2 -60.75 -56.5 -49.35 -50.8 -60.75 -50.3 -62.05 -50.15 -63.4 M-41.25 -63.3 Q-41.3 -61.7 -41.7 -60.2 -42.0 -58.75 -42.7 -57.25 L-48.55 -45.4 Q-50.95 -40.55 -56.5 -40.55 -59.15 -40.55 -61.2 -41.9 -63.1 -43.1 -64.4 -45.35 L-70.3 -57.25 -71.35 -60.1 -71.65 -63.6 Q-71.65 -65.3 -71.3 -66.65 -71.0 -68.0 -70.3 -69.35 L-64.4 -81.35 Q-61.95 -86.2 -56.5 -86.2 -50.95 -86.2 -48.55 -81.35 L-42.7 -69.35 -41.65 -66.4 Q-41.25 -64.9 -41.25 -63.3 M-63.4 -80.4 L-69.55 -68.95 -70.4 -66.0 -70.7 -63.4 -70.45 -61.25 Q-70.2 -59.95 -69.55 -58.6 L-63.45 -46.3 -60.2 -48.1 -66.4 -59.2 -67.45 -61.6 Q-67.8 -62.65 -67.8 -64.2 -67.8 -65.65 -67.4 -67.35 L-66.45 -70.2 -66.4 -70.35 -60.7 -81.1 -63.4 -80.4 M-61.2 -46.5 Q-62.1 -46.0 -62.9 -45.15 -62.1 -43.9 -61.45 -43.55 -60.75 -43.1 -60.2 -43.1 L-60.7 -44.05 -59.9 -43.55 -60.2 -44.5 -59.5 -44.05 -59.8 -44.85 -59.2 -44.5 -59.45 -45.15 -58.9 -44.85 -59.05 -45.55 -58.6 -45.35 -58.7 -45.85 -58.3 -45.85 -58.3 -46.25 -59.65 -47.25 -61.2 -46.5 M-49.4 -46.85 L-49.25 -46.65 -49.1 -46.65 -48.9 -46.85 -48.9 -46.95 -49.1 -47.15 -49.4 -46.95 -49.4 -46.85 M-52.25 -44.35 L-52.75 -44.6 -53.15 -44.45 -53.3 -43.95 -53.15 -43.6 Q-53.0 -43.4 -52.7 -43.4 L-52.3 -43.6 -52.1 -44.05 -52.25 -44.35 M-50.7 -44.85 Q-50.05 -44.85 -50.05 -45.5 -50.05 -45.8 -50.3 -45.95 L-50.7 -46.15 Q-51.0 -46.15 -51.15 -45.9 L-51.3 -45.5 -51.05 -45.0 -50.7 -44.85" fill="#000000" fill-rule="evenodd" stroke="none"/>
      <path d="M-15.2 -82.85 Q-13.0 -82.85 -11.9 -80.6 L-6.35 -69.4 Q-5.4 -67.65 -5.4 -65.3 L-5.65 -63.25 Q-5.8 -62.35 -6.35 -61.2 L-12.1 -49.85 Q-13.2 -47.85 -15.2 -47.85 -17.55 -47.85 -18.4 -49.95 L-24.1 -61.2 Q-25.0 -63.3 -25.0 -65.35 -25.0 -67.35 -24.1 -69.4 L-18.55 -80.65 Q-17.5 -82.85 -15.2 -82.85 M-15.25 -81.6 L-16.2 -81.4 -17.4 -78.25 Q-16.45 -78.1 -16.0 -77.3 L-10.1 -66.4 -9.55 -64.05 -9.65 -62.75 Q-9.8 -62.0 -10.25 -61.0 L-14.45 -51.8 -15.25 -50.3 -16.3 -49.05 -15.6 -48.9 Q-14.75 -48.9 -14.15 -49.6 L-13.1 -50.9 -7.5 -61.0 Q-6.9 -62.1 -6.55 -63.35 L-6.35 -64.9 -6.55 -66.6 Q-6.8 -67.8 -7.5 -68.95 L-13.1 -80.05 -13.9 -81.05 Q-14.45 -81.6 -15.25 -81.6 M-18.5 -77.25 L-18.55 -77.4 Q-18.6 -77.55 -18.8 -77.55 L-18.95 -77.45 -19.1 -77.2 -18.8 -76.95 Q-18.6 -76.95 -18.55 -77.1 L-18.5 -77.25 M-15.2 -84.65 Q-18.55 -84.65 -20.0 -81.8 L-25.95 -69.8 -26.7 -67.65 -26.95 -65.3 -26.7 -62.95 -25.95 -60.8 -20.0 -48.95 Q-19.35 -47.7 -18.1 -46.85 -16.9 -46.0 -15.2 -46.0 -11.95 -46.0 -10.45 -48.9 L-4.5 -60.75 Q-3.5 -63.65 -3.5 -65.3 L-3.9 -67.65 Q-3.95 -68.55 -4.5 -69.8 L-10.4 -81.8 Q-11.8 -84.65 -15.2 -84.65 M-9.25 -81.35 L-3.4 -69.35 -2.35 -66.4 Q-2.0 -65.05 -2.0 -63.3 -2.05 -61.85 -2.4 -60.2 -2.7 -58.75 -3.4 -57.25 L-9.25 -45.4 Q-11.65 -40.55 -17.2 -40.55 -19.85 -40.55 -21.9 -41.9 -23.9 -43.15 -25.15 -45.35 L-31.05 -57.25 Q-31.8 -58.8 -32.05 -60.1 -32.4 -61.75 -32.4 -63.6 L-32.05 -66.65 -31.05 -69.35 -25.15 -81.35 Q-22.6 -86.2 -17.2 -86.2 -11.65 -86.2 -9.25 -81.35 M-10.85 -63.4 L-11.05 -64.7 -11.45 -65.9 -17.2 -77.4 -22.95 -65.95 -23.5 -63.35 -23.4 -62.05 -22.9 -60.75 -17.2 -49.35 -11.5 -60.75 -11.05 -62.05 -10.85 -63.4 M-20.75 -84.35 L-22.3 -83.25 -23.4 -81.85 -22.35 -82.25 -21.35 -82.45 -20.8 -82.25 -19.2 -84.05 -17.2 -85.35 -18.95 -85.1 -20.75 -84.35 M-24.15 -80.4 L-30.3 -68.95 -31.15 -66.0 -31.45 -63.4 -31.2 -61.25 -30.3 -58.6 -24.2 -46.3 -20.9 -48.1 -27.1 -59.2 -28.2 -61.6 -28.5 -64.2 Q-28.5 -65.95 -28.1 -67.35 L-27.15 -70.2 -27.1 -70.35 -21.4 -81.1 -24.15 -80.4 M-20.4 -47.25 L-21.95 -46.5 -23.6 -45.15 Q-22.95 -43.95 -22.2 -43.55 -21.45 -43.1 -20.9 -43.1 L-21.4 -44.05 -20.65 -43.55 -20.9 -44.5 -20.25 -44.05 -20.55 -44.85 -19.95 -44.5 -20.2 -45.15 -19.65 -44.85 -19.8 -45.55 -19.35 -45.35 -19.45 -45.85 -19.05 -45.85 -19.05 -46.25 -20.4 -47.25 M-9.6 -46.85 L-9.6 -46.95 -9.8 -47.15 Q-10.1 -47.15 -10.1 -46.95 L-10.1 -46.85 -9.95 -46.65 -9.8 -46.65 -9.6 -46.85 M-11.4 -44.85 Q-10.75 -44.85 -10.75 -45.5 L-11.0 -45.95 -11.4 -46.15 -11.85 -45.9 -12.05 -45.5 -11.8 -45.0 -11.4 -44.85 M-13.0 -44.35 L-13.5 -44.6 -13.85 -44.45 -14.05 -43.95 -13.9 -43.6 -13.45 -43.4 Q-13.2 -43.4 -13.05 -43.6 L-12.85 -44.05 -13.0 -44.35" fill="#000000" fill-rule="evenodd" stroke="none"/>
      <path d="M37.45 -81.75 L37.05 -80.05 35.95 -78.6 18.15 -63.45 35.95 -48.1 Q37.35 -46.85 37.35 -45.05 37.35 -44.15 37.0 -43.4 36.6 -42.5 36.05 -41.95 35.4 -41.3 34.65 -40.95 34.0 -40.55 32.95 -40.55 31.0 -40.55 29.8 -41.7 L15.7 -53.9 15.7 -44.95 15.4 -43.2 14.45 -41.8 13.0 -40.85 11.3 -40.55 9.5 -40.9 8.15 -41.9 Q7.65 -42.35 7.2 -43.25 6.9 -44.05 6.9 -44.9 L6.9 -81.7 Q6.9 -82.7 7.25 -83.45 7.55 -84.25 8.2 -84.9 L9.55 -85.85 11.25 -86.2 12.95 -85.85 14.4 -84.85 15.4 -83.5 15.7 -81.85 15.7 -72.95 29.9 -85.05 Q31.1 -86.2 33.0 -86.2 L34.75 -85.8 Q35.55 -85.45 36.15 -84.75 L37.1 -83.35 Q37.45 -82.6 37.45 -81.75 M35.65 -84.45 L35.05 -84.7 34.15 -84.45 14.2 -67.35 14.2 -83.7 13.9 -84.4 13.35 -84.65 12.65 -84.45 Q12.35 -84.15 12.35 -83.7 L12.35 -47.0 Q12.35 -46.0 13.3 -46.0 14.2 -46.0 14.2 -46.95 L14.2 -63.5 34.05 -46.35 Q34.4 -46.0 34.9 -46.0 L35.55 -46.35 35.85 -47.0 35.65 -47.45 14.8 -65.5 35.6 -83.25 35.95 -83.75 35.65 -84.45 M32.35 -85.3 L31.8 -85.2 30.95 -84.85 15.7 -71.95 15.7 -69.75 34.15 -85.35 32.35 -85.3 M36.1 -81.55 Q35.9 -81.85 35.45 -81.85 L35.0 -81.65 34.75 -81.05 34.95 -80.65 Q35.2 -80.4 35.55 -80.4 L36.0 -80.55 36.25 -81.05 36.1 -81.55 M34.15 -79.35 L34.25 -79.65 34.1 -80.0 33.8 -80.1 33.5 -79.95 33.4 -79.65 33.5 -79.4 33.75 -79.25 34.15 -79.35 M12.0 -85.35 Q10.2 -85.35 9.1 -84.55 8.0 -83.8 7.6 -82.0 L9.3 -82.7 11.2 -83.4 11.2 -84.2 12.1 -85.1 12.05 -85.25 12.0 -85.35 M8.85 -81.5 Q8.15 -80.8 7.9 -79.95 L7.9 -45.7 Q7.95 -44.1 8.6 -43.15 9.2 -42.35 10.2 -41.8 10.7 -41.8 11.4 -42.5 L13.25 -44.9 Q12.0 -44.9 11.6 -45.45 11.2 -46.0 11.2 -46.95 L11.2 -82.4 Q9.45 -82.1 8.85 -81.5 M15.9 -56.35 L24.0 -49.75 16.0 -57.65 26.35 -49.55 16.1 -59.15 29.25 -49.3 15.4 -60.7 15.4 -55.15 20.65 -50.7 15.9 -56.35 M35.35 -45.05 L34.85 -44.85 Q34.55 -44.6 34.55 -44.15 L34.75 -43.65 Q35.0 -43.35 35.4 -43.35 L36.0 -43.6 36.3 -44.2 36.1 -44.75 35.35 -45.05" fill="#000000" fill-rule="evenodd" stroke="none"/>
      <path d="M74.15 -84.65 L52.6 -84.65 51.9 -84.45 Q51.6 -84.15 51.6 -83.7 51.6 -83.25 51.9 -83.05 52.15 -82.8 52.55 -82.8 L62.55 -82.8 62.55 -47.85 52.6 -47.85 Q51.6 -47.85 51.6 -46.95 51.6 -46.45 51.85 -46.3 52.1 -46.0 52.55 -46.0 L74.15 -46.0 Q74.45 -46.0 74.8 -46.25 L75.05 -46.9 74.75 -47.55 74.15 -47.85 64.3 -47.85 64.3 -82.8 74.1 -82.8 74.75 -83.05 75.05 -83.75 74.75 -84.35 74.15 -84.65 M73.45 -80.55 Q73.45 -79.85 74.25 -79.85 L74.75 -80.05 74.95 -80.5 Q74.95 -81.25 74.2 -81.25 L73.65 -81.05 73.45 -80.55 M76.55 -81.85 Q76.55 -80.1 75.3 -78.65 73.95 -77.3 72.2 -77.3 L65.85 -77.3 65.85 -49.3 72.15 -49.3 Q74.05 -49.3 75.3 -48.1 76.55 -46.65 76.55 -44.95 76.55 -43.9 76.2 -43.15 L75.25 -41.8 73.85 -40.85 72.15 -40.55 50.6 -40.55 Q48.85 -40.55 47.45 -41.8 46.15 -43.25 46.15 -44.95 46.15 -46.75 47.4 -48.1 48.85 -49.3 50.55 -49.3 L57.05 -49.3 57.05 -77.3 50.6 -77.3 Q48.75 -77.3 47.45 -78.6 46.75 -79.4 46.5 -80.0 46.15 -80.8 46.15 -81.7 46.15 -82.5 46.5 -83.45 46.9 -84.35 47.45 -84.9 48.15 -85.6 48.85 -85.85 L50.55 -86.2 72.15 -86.2 Q73.95 -86.2 75.25 -84.9 76.55 -83.6 76.55 -81.85 M73.2 -79.35 L72.95 -79.9 Q72.65 -80.25 72.2 -80.25 L71.55 -80.0 Q71.25 -79.7 71.25 -79.25 71.25 -79.0 71.55 -78.7 71.8 -78.4 72.25 -78.4 72.6 -78.4 72.9 -78.7 L73.2 -79.35 M57.95 -78.0 L57.95 -49.3 61.4 -49.3 61.4 -81.7 57.95 -78.0 M51.85 -85.35 Q50.2 -85.35 49.2 -84.65 48.25 -83.95 47.25 -82.4 48.85 -83.15 49.6 -83.15 L50.8 -83.15 51.0 -84.35 51.55 -85.05 51.85 -85.35 M47.4 -81.05 Q47.4 -80.25 48.15 -79.45 48.85 -78.65 49.8 -78.65 L49.25 -79.6 50.05 -79.05 49.8 -80.05 50.45 -79.6 50.2 -80.4 50.8 -80.05 50.55 -80.65 51.05 -80.4 50.95 -81.05 51.4 -80.85 51.25 -81.4 51.6 -81.4 51.6 -81.8 51.5 -81.8 51.4 -81.9 Q50.95 -82.1 50.95 -82.4 49.4 -82.4 48.3 -81.75 L47.9 -81.45 47.4 -81.05 M51.0 -47.45 L51.55 -48.2 51.7 -48.3 51.85 -48.45 Q50.2 -48.45 49.2 -47.8 48.2 -47.05 47.25 -45.5 48.85 -46.25 49.6 -46.25 L50.8 -46.25 51.0 -47.45 M47.4 -44.15 Q47.4 -43.35 48.15 -42.55 48.85 -41.8 49.8 -41.8 L49.25 -42.7 50.05 -42.2 49.8 -43.15 50.45 -42.7 50.2 -43.5 50.8 -43.15 50.55 -43.75 51.05 -43.5 50.95 -44.15 51.4 -43.95 51.25 -44.5 51.6 -44.5 51.6 -44.9 51.5 -44.95 51.45 -44.95 51.4 -45.0 Q50.95 -45.2 50.95 -45.5 49.4 -45.5 48.3 -44.85 L47.9 -44.6 47.4 -44.15 M72.2 -42.55 Q72.55 -42.85 72.25 -43.15 L71.65 -43.2 Q71.25 -42.9 71.55 -42.55 71.65 -42.4 71.85 -42.4 L72.2 -42.55 M74.75 -42.95 L75.35 -43.15 75.6 -43.85 75.4 -44.4 74.65 -44.7 74.1 -44.5 Q73.85 -44.2 73.85 -43.75 L74.05 -43.2 Q74.3 -42.95 74.75 -42.95" fill="#000000" fill-rule="evenodd" stroke="none"/>
      <path d="M114.1 -84.35 L113.4 -84.65 91.0 -84.65 91.0 -46.0 113.4 -46.0 Q113.85 -46.0 114.15 -46.3 L114.4 -46.9 114.15 -47.55 113.5 -47.85 92.85 -47.85 92.85 -64.4 102.65 -64.4 Q103.1 -64.4 103.3 -64.7 L103.6 -65.4 103.3 -66.05 102.7 -66.3 92.85 -66.3 92.85 -82.8 113.35 -82.8 Q113.75 -82.8 114.05 -83.1 L114.4 -83.7 114.1 -84.35 M114.8 -81.05 Q114.55 -81.55 114.1 -81.3 113.7 -81.1 113.85 -80.6 114.05 -80.2 114.55 -80.35 115.05 -80.6 114.8 -81.05 M112.9 -81.05 Q112.6 -81.5 112.05 -81.5 L111.45 -81.25 Q111.1 -81.05 111.1 -80.45 L111.35 -79.8 Q111.6 -79.45 112.1 -79.45 L112.7 -79.65 Q113.1 -79.9 113.1 -80.5 L112.9 -81.05 M115.9 -81.75 Q115.9 -79.95 114.55 -78.6 113.25 -77.3 111.5 -77.3 L94.3 -77.3 94.3 -67.8 100.7 -67.8 Q102.4 -67.8 103.8 -66.55 105.15 -65.1 105.15 -63.45 105.15 -61.45 103.8 -60.2 102.4 -58.95 100.75 -58.95 L94.3 -58.95 94.3 -49.3 111.55 -49.3 113.1 -49.05 114.55 -48.1 Q115.9 -46.75 115.9 -44.95 115.9 -43.0 114.55 -41.8 113.25 -40.55 111.45 -40.55 L85.55 -40.55 85.55 -81.75 89.95 -86.2 111.45 -86.2 Q113.3 -86.2 114.55 -84.85 115.9 -83.7 115.9 -81.75 M104.05 -63.2 Q103.75 -63.65 103.35 -63.45 102.85 -63.2 103.1 -62.75 103.35 -62.25 103.8 -62.5 104.2 -62.7 104.05 -63.2 M86.65 -81.3 L86.65 -41.8 89.95 -45.35 89.95 -84.35 86.65 -81.3 M101.4 -63.0 L100.7 -62.75 Q100.2 -62.35 100.2 -61.8 L100.45 -61.05 Q100.85 -60.55 101.4 -60.55 L102.15 -60.8 Q102.65 -61.15 102.65 -61.8 L102.4 -62.5 Q102.05 -63.0 101.4 -63.0 M112.75 -42.8 Q113.1 -43.1 113.1 -43.55 L112.85 -44.15 Q112.55 -44.55 112.0 -44.55 L111.4 -44.25 Q111.05 -43.95 111.05 -43.45 111.05 -43.1 111.3 -42.85 111.65 -42.5 112.0 -42.5 112.4 -42.5 112.75 -42.8 M114.65 -44.9 L114.1 -45.05 114.05 -45.0 113.95 -45.0 113.85 -44.95 Q113.7 -44.8 113.7 -44.45 L113.8 -44.2 114.15 -44.0 Q114.7 -44.0 114.7 -44.6 L114.65 -44.9" fill="#000000" fill-rule="evenodd" stroke="none"/>
      <path d="M-178.1 -13.6 L-178.1 16.75 -175.0 14.75 -175.0 -18.1 -178.1 -13.6 M-179.4 -23.45 L-185.1 -15.6 -183.75 -13.6 -176.4 -23.45 -179.4 -23.45 M-175.75 -23.0 L-183.75 -12.2 -191.65 -23.0 -195.55 -23.0 -195.55 14.75 Q-195.55 15.7 -194.6 15.7 L-193.95 15.4 -193.7 14.75 -193.7 -22.55 -184.65 -10.1 -184.65 -8.2 -184.4 -7.55 Q-184.1 -7.25 -183.75 -7.25 -183.45 -7.25 -183.15 -7.55 -182.85 -7.85 -182.85 -8.2 L-182.85 -10.25 -173.95 -22.4 -173.95 14.7 -173.65 15.4 -173.0 15.7 Q-172.65 15.7 -172.35 15.4 -172.05 15.1 -172.05 14.75 L-172.05 -23.0 -175.75 -23.0 M-170.55 -24.55 L-170.55 16.75 Q-170.55 18.7 -171.85 19.9 L-173.3 20.8 Q-173.95 21.15 -175.0 21.15 -176.65 21.15 -178.1 19.85 -179.4 18.5 -179.4 16.8 L-179.4 -9.85 -181.35 -7.1 -181.35 -6.25 Q-181.35 -4.5 -182.6 -3.1 -184.0 -1.75 -185.7 -1.75 -187.55 -1.75 -188.9 -3.1 -190.1 -4.5 -190.1 -6.25 L-190.1 -7.0 -192.15 -9.85 -192.15 16.75 Q-192.15 18.55 -193.5 19.9 L-194.85 20.8 -196.55 21.15 Q-198.45 21.15 -199.75 19.85 L-200.7 18.45 -201.05 16.75 -201.05 -20.35 -197.1 -24.55 -191.45 -24.55 -185.75 -16.25 -179.95 -24.55 -170.55 -24.55 M-199.6 -19.35 L-199.6 16.75 -196.45 14.75 -196.45 -22.05 -199.6 -19.35 M-185.1 -6.45 L-185.2 -6.5 -185.25 -6.55 -185.7 -7.0 -187.75 -6.3 Q-187.95 -6.1 -188.3 -5.95 -188.7 -5.7 -189.15 -5.5 -189.15 -4.7 -188.45 -4.0 -187.75 -3.3 -186.85 -3.3 L-187.35 -4.25 -186.55 -3.7 -186.85 -4.7 -186.15 -4.25 -186.45 -5.05 -185.85 -4.7 -186.1 -5.3 -185.55 -5.05 -185.7 -5.7 -185.25 -5.5 -185.35 -6.05 -184.95 -6.05 -184.95 -6.45 -185.1 -6.45 M-183.85 -6.0 L-184.1 -5.3 -183.95 -4.8 Q-183.8 -4.55 -183.3 -4.55 -183.0 -4.55 -182.8 -4.7 -182.55 -4.9 -182.55 -5.4 L-182.65 -5.85 Q-182.85 -6.15 -183.4 -6.15 L-183.85 -6.0 M-191.15 -10.25 L-191.8 -12.15 -190.0 -10.25 -191.7 -13.55 -188.8 -10.25 -191.65 -14.9 -187.3 -10.25 -191.6 -16.3 -185.65 -10.25 -192.35 -18.65 -192.35 -11.25 -191.15 -10.25 M-174.25 16.7 L-174.7 16.2 Q-175.25 16.2 -176.75 16.95 L-178.1 17.7 Q-178.1 18.55 -177.5 19.2 -176.8 19.9 -175.85 19.9 L-176.4 18.95 -175.6 19.5 -175.85 18.5 -175.2 18.95 -175.45 18.15 -174.85 18.5 -175.1 17.9 -174.6 18.15 -174.7 17.5 -174.25 17.7 -174.4 17.15 -174.0 17.15 -174.0 16.8 -174.15 16.8 -174.25 16.7 M-171.7 18.0 Q-171.7 17.25 -172.45 17.25 -173.2 17.25 -173.2 18.0 -173.2 18.75 -172.45 18.75 L-171.85 18.5 -171.7 18.0 M-195.5 17.15 L-195.5 16.8 -195.75 16.7 -196.15 16.2 Q-196.7 16.2 -198.2 16.95 L-199.6 17.7 Q-199.6 18.5 -198.9 19.2 -198.3 19.9 -197.3 19.9 L-197.85 18.95 -197.05 19.5 -197.3 18.5 -196.65 18.95 -196.9 18.15 -196.3 18.5 -196.55 17.9 -196.05 18.15 -196.15 17.5 -195.75 17.7 -195.85 17.15 -195.5 17.15" fill="#000000" fill-rule="evenodd" stroke="none"/>
      <path d="M-145.1 -23.7 Q-146.85 -23.7 -147.75 -22.95 -148.65 -22.35 -149.55 -20.7 L-147.4 -21.4 -147.3 -21.35 -147.15 -21.35 -147.0 -21.3 -146.75 -21.95 -146.45 -22.4 -145.1 -23.45 -145.1 -23.7 M-144.25 -23.0 Q-145.1 -23.0 -145.25 -22.25 L-156.05 14.25 -156.1 14.7 Q-156.1 15.7 -155.2 15.7 L-154.75 15.6 -153.25 11.05 -151.85 6.5 -137.05 6.5 -134.55 14.95 Q-134.3 15.7 -133.55 15.7 -133.2 15.7 -133.0 15.4 L-132.8 14.85 -132.8 14.4 -143.45 -22.6 Q-143.6 -23.0 -144.25 -23.0 M-149.95 -19.5 L-160.3 15.15 -157.15 14.25 -147.4 -20.1 -149.95 -19.5 M-142.05 -21.6 L-131.4 15.55 -131.25 16.65 Q-131.25 18.35 -132.55 19.8 -133.8 21.15 -135.5 21.15 -138.85 21.15 -139.85 17.9 L-141.6 11.95 -151.2 11.95 -153.2 18.35 Q-153.35 19.35 -154.6 20.4 -155.65 21.1 -157.15 21.15 -159.05 21.15 -160.3 19.85 -161.55 18.6 -161.55 16.7 L-161.55 16.0 -161.35 15.15 -150.6 -21.3 Q-149.45 -24.55 -146.25 -24.55 -143.1 -24.55 -142.05 -21.6 M-146.35 -4.25 L-148.5 3.1 -144.2 3.1 -146.35 -4.25 M-142.5 3.1 L-139.3 3.1 -144.2 -13.8 -145.5 -7.25 -142.5 3.1 M-140.6 11.4 L-139.3 15.7 -136.1 14.25 -137.55 7.85 -140.6 11.4 M-137.55 4.65 L-151.25 4.65 -144.3 -18.65 -137.55 4.65 M-134.65 16.7 L-134.65 16.3 -135.0 16.15 -135.5 15.7 Q-137.2 15.7 -138.05 16.35 L-138.45 16.6 -138.9 17.0 Q-138.9 17.8 -138.2 18.6 -137.45 19.4 -136.5 19.4 L-137.0 18.45 -136.2 18.95 -136.5 18.0 -135.8 18.45 -136.1 17.65 -135.5 18.0 -135.75 17.35 -135.25 17.65 -135.4 17.0 -134.95 17.15 -135.05 16.7 -134.65 16.7 M-134.6 18.8 L-134.0 19.0 -133.5 18.8 -133.25 18.2 -133.45 17.75 Q-133.7 17.5 -134.1 17.5 -134.8 17.5 -134.8 18.3 L-134.6 18.8 M-155.2 17.65 L-155.45 18.1 -155.35 18.45 Q-155.2 18.7 -154.85 18.7 L-154.55 18.6 Q-154.25 18.45 -154.25 18.1 L-154.4 17.8 Q-154.55 17.5 -154.85 17.5 -155.05 17.5 -155.2 17.65 M-160.5 16.85 Q-160.5 17.75 -159.8 18.45 -159.05 19.25 -158.15 19.25 L-158.65 18.3 -157.85 18.8 -158.15 17.85 -157.45 18.3 -157.75 17.5 -157.15 17.85 -157.4 17.2 -156.85 17.5 -157.0 16.85 -156.55 17.05 -156.65 16.55 -156.25 16.55 -156.25 16.15 -156.6 15.95 -157.15 15.4 Q-158.6 15.4 -159.65 16.15 L-160.5 16.85" fill="#000000" fill-rule="evenodd" stroke="none"/>
      <path d="M-99.1 -23.0 L-112.95 -23.0 -114.6 -22.65 Q-115.4 -22.25 -116.0 -21.7 L-116.95 -20.3 -117.3 -18.7 Q-117.3 -17.25 -116.3 -15.8 L-96.5 9.55 Q-95.7 10.55 -95.7 11.4 -95.7 13.85 -98.35 13.85 L-111.55 13.85 Q-113.2 13.85 -114.3 12.75 -115.4 11.65 -115.4 10.1 L-115.65 9.5 Q-116.0 9.25 -116.3 9.25 -117.35 9.25 -117.35 10.5 L-116.9 12.3 -115.75 13.95 -114.1 15.2 -111.95 15.7 -97.6 15.7 -96.25 15.35 -95.0 14.4 -94.05 13.05 Q-93.7 12.1 -93.7 11.4 -93.7 9.85 -94.8 8.6 L-114.55 -16.75 -115.15 -17.75 -115.35 -18.7 Q-115.35 -19.8 -114.75 -20.4 -114.15 -21.05 -112.65 -21.05 L-99.45 -21.05 Q-96.5 -21.05 -95.8 -18.1 L-95.55 -17.2 -95.1 -16.4 Q-94.7 -16.4 -94.4 -16.55 L-93.95 -16.8 Q-93.7 -17.05 -93.7 -17.4 -93.7 -18.35 -94.2 -19.45 -94.65 -20.55 -95.45 -21.25 L-97.15 -22.5 Q-98.1 -23.0 -99.1 -23.0 M-95.1 -21.95 Q-93.75 -20.6 -93.05 -19.05 -92.25 -17.4 -92.25 -15.4 -92.25 -14.45 -92.65 -13.7 L-93.65 -12.3 -95.05 -11.35 Q-95.75 -11.0 -96.55 -11.0 -98.2 -11.0 -99.15 -11.7 -100.0 -12.4 -100.45 -13.3 L-101.05 -14.9 Q-101.2 -15.6 -101.55 -15.6 L-112.5 -15.6 -94.05 8.4 Q-93.15 9.6 -92.7 10.8 -92.25 12.0 -92.25 13.4 -92.25 15.05 -92.9 16.4 -93.55 17.85 -94.55 18.85 -95.6 19.9 -96.9 20.5 -98.2 21.15 -99.55 21.15 L-113.95 21.15 Q-115.85 21.15 -117.4 20.35 -119.05 19.55 -120.2 18.35 -121.25 17.3 -122.1 15.6 -122.8 13.95 -122.8 12.45 -122.8 7.75 -118.25 7.75 -116.35 7.75 -115.15 8.95 -113.9 10.2 -113.9 12.25 L-102.25 12.25 -121.0 -11.65 Q-122.75 -14.15 -122.75 -16.65 -122.75 -18.15 -122.1 -19.7 -121.55 -21.05 -120.45 -22.2 L-117.95 -23.9 -114.95 -24.55 -101.05 -24.55 -97.95 -23.85 Q-96.25 -23.05 -95.1 -21.95 M-95.65 -15.2 L-95.65 -15.6 -96.2 -16.2 -96.5 -16.75 -97.4 -16.05 -99.75 -14.7 Q-99.75 -13.95 -99.15 -13.2 -98.5 -12.5 -97.5 -12.5 L-98.05 -13.4 -97.25 -12.95 -97.5 -13.85 -96.85 -13.4 -97.1 -14.2 -96.5 -13.85 -96.75 -14.5 -96.25 -14.2 -96.35 -14.9 -95.9 -14.7 -96.05 -15.2 -95.65 -15.2 M-94.6 -14.4 Q-95.25 -14.4 -95.25 -13.75 -95.25 -13.1 -94.6 -13.1 -93.95 -13.1 -93.95 -13.75 -93.95 -14.0 -94.1 -14.15 L-94.6 -14.4 M-113.05 -19.75 Q-113.75 -19.75 -113.75 -19.1 L-113.5 -18.6 -113.1 -18.4 Q-112.85 -18.4 -112.6 -18.6 -112.35 -18.75 -112.35 -19.1 -112.35 -19.75 -113.05 -19.75 M-115.75 -23.35 Q-117.4 -23.35 -118.5 -22.65 -119.55 -22.0 -120.5 -20.35 L-117.6 -20.95 -116.9 -22.2 -115.75 -23.1 -115.75 -23.35 M-118.3 11.75 L-118.5 10.6 -118.4 9.85 Q-118.3 9.45 -117.6 8.6 -119.15 8.6 -120.35 9.5 -121.55 10.4 -121.55 12.05 L-121.0 14.4 -118.05 12.75 -118.3 11.75 M-107.65 3.75 L-101.0 12.3 -98.6 12.3 Q-98.0 12.3 -97.5 11.85 -97.05 11.4 -97.05 10.9 L-97.2 10.3 -115.25 -12.65 -98.9 10.1 -114.55 -9.0 -99.75 10.5 -112.5 -4.0 -100.65 11.15 -107.65 3.75 M-97.5 17.1 Q-97.75 17.1 -98.05 17.4 -98.4 17.7 -98.4 18.1 L-98.15 18.7 -97.45 19.0 Q-96.95 19.0 -96.75 18.7 L-96.5 18.0 -96.7 17.5 Q-97.0 17.1 -97.5 17.1 M-116.6 15.4 L-116.6 15.0 -116.85 14.8 -117.3 14.25 -117.45 13.9 -118.3 14.55 -120.7 15.95 Q-120.7 16.75 -120.05 17.4 -119.4 18.1 -118.45 18.1 L-118.95 17.15 -118.15 17.7 -118.45 16.75 -117.75 17.15 -118.05 16.4 -117.45 16.75 -117.7 16.15 -117.2 16.4 -117.35 15.75 -116.9 15.95 -117.0 15.4 -116.6 15.4" fill="#000000" fill-rule="evenodd" stroke="none"/>
      <path d="M-81.95 -16.5 L-78.7 -18.0 -78.7 -22.15 -81.95 -19.5 -81.95 -16.5 M-83.1 -20.1 L-78.7 -24.5 -52.7 -24.5 -52.7 -15.4 Q-52.7 -14.4 -53.0 -13.75 -53.2 -13.1 -54.0 -12.3 -55.4 -11.05 -57.1 -11.05 -58.95 -11.05 -60.3 -12.35 -61.6 -13.65 -61.6 -15.4 L-61.6 -15.6 -63.5 -15.6 -63.5 16.75 Q-63.5 18.6 -64.8 19.9 -66.05 21.15 -67.95 21.15 -69.75 21.15 -71.1 19.9 -72.4 18.45 -72.4 16.8 L-72.4 -15.6 -74.3 -15.6 Q-74.3 -14.55 -74.65 -13.8 -75.0 -13.05 -75.65 -12.4 -76.3 -11.75 -77.05 -11.45 -77.8 -11.1 -78.7 -11.1 -80.45 -11.1 -81.8 -12.4 -83.1 -13.65 -83.1 -15.5 L-83.1 -20.1 M-81.95 -15.3 Q-81.95 -14.0 -81.35 -13.35 -80.65 -12.6 -79.7 -12.6 L-80.25 -13.5 -79.45 -13.05 -79.7 -13.95 -79.05 -13.5 -79.3 -14.3 -78.7 -13.95 -78.95 -14.6 -78.45 -14.3 -78.55 -15.0 -78.1 -14.8 -78.25 -15.3 -77.85 -15.3 -77.85 -15.7 -78.2 -16.1 -78.7 -16.85 Q-78.7 -16.6 -80.35 -15.95 L-81.95 -15.3 M-54.25 -17.4 L-54.25 -22.95 -77.65 -22.95 -77.65 -17.5 -77.4 -16.85 -76.7 -16.6 Q-75.8 -16.6 -75.8 -17.5 L-75.8 -21.1 -66.95 -21.1 -66.95 14.7 -66.65 15.35 Q-66.35 15.7 -65.95 15.7 -65.0 15.7 -65.0 14.75 L-65.0 -21.1 -56.15 -21.1 -56.15 -17.5 -55.85 -16.8 Q-55.55 -16.5 -55.15 -16.5 -54.7 -16.5 -54.5 -16.8 -54.25 -17.05 -54.25 -17.4 M-56.65 -16.2 L-57.1 -17.0 Q-57.1 -16.7 -58.75 -16.05 L-59.4 -15.8 -60.4 -15.4 Q-60.4 -14.1 -59.8 -13.45 -59.05 -12.7 -58.1 -12.7 L-58.6 -13.6 -57.8 -13.1 -58.1 -14.05 -57.4 -13.6 -57.7 -14.4 -57.1 -14.05 -57.35 -14.7 -56.85 -14.4 -57.0 -15.1 -56.55 -14.9 -56.65 -15.4 -56.25 -15.4 -56.25 -15.8 -56.5 -16.1 -56.65 -16.2 M-54.85 -15.75 Q-55.25 -15.75 -55.25 -15.3 -55.25 -14.85 -54.85 -14.85 L-54.5 -15.0 -54.4 -15.3 Q-54.4 -15.75 -54.85 -15.75 M-55.15 -12.6 L-55.0 -12.95 -55.2 -13.4 Q-55.4 -13.6 -55.65 -13.6 -56.3 -13.6 -56.3 -13.0 -56.3 -12.35 -55.65 -12.35 -55.35 -12.35 -55.15 -12.6 M-74.3 -19.6 Q-74.85 -19.3 -74.55 -18.85 -74.35 -18.35 -73.7 -18.65 -73.2 -19.0 -73.5 -19.35 -73.85 -20.0 -74.3 -19.6 M-76.7 -15.4 L-76.9 -14.95 -76.7 -14.6 Q-76.55 -14.4 -76.25 -14.4 L-75.8 -14.6 Q-75.65 -14.75 -75.65 -15.0 L-75.9 -15.45 -76.3 -15.6 -76.7 -15.4 M-62.65 -19.4 L-63.1 -19.65 Q-63.75 -19.65 -63.75 -19.05 -63.75 -18.4 -63.05 -18.4 -62.5 -18.4 -62.5 -19.0 L-62.65 -19.4 M-71.1 -17.0 L-71.1 16.8 -67.95 14.8 -67.95 -19.6 -71.1 -17.0 M-67.7 16.25 Q-68.25 16.25 -69.7 17.0 L-71.1 17.7 Q-71.1 18.55 -70.45 19.25 -69.75 19.95 -68.85 19.95 L-69.3 19.0 -68.55 19.5 -68.85 18.55 -68.15 19.0 -68.45 18.2 -67.85 18.55 -68.1 17.9 -67.55 18.2 -67.7 17.5 -67.25 17.7 -67.35 17.2 -66.95 17.2 -66.95 16.85 -67.1 16.8 -67.2 16.8 -67.7 16.25 M-65.0 17.05 L-64.75 17.2 -64.55 17.05 -64.75 16.8 -65.0 17.05 M-65.95 18.55 Q-65.8 18.55 -65.8 18.2 -65.8 17.75 -66.35 17.75 L-66.6 17.95 -66.75 18.3 -66.55 18.6 -66.25 18.7 Q-66.0 18.7 -65.95 18.55" fill="#000000" fill-rule="evenodd" stroke="none"/>
      <path d="M-14.85 -22.0 Q-14.85 -22.35 -15.2 -22.7 L-15.85 -23.0 -38.3 -23.0 -38.3 15.7 -15.85 15.7 Q-15.45 15.7 -15.15 15.4 -14.85 15.1 -14.85 14.8 -14.85 14.4 -15.15 14.1 -15.5 13.85 -15.75 13.85 L-36.45 13.85 -36.45 -2.7 -26.65 -2.7 Q-26.25 -2.7 -25.95 -3.0 L-25.7 -3.7 -25.95 -4.35 Q-26.25 -4.65 -26.6 -4.65 L-36.45 -4.65 -36.45 -21.1 -15.9 -21.1 Q-15.55 -21.1 -15.2 -21.4 -14.85 -21.75 -14.85 -22.0 M-17.2 -19.8 L-17.85 -19.55 Q-18.2 -19.35 -18.2 -18.8 L-17.95 -18.15 Q-17.75 -17.8 -17.15 -17.8 L-16.55 -18.0 Q-16.15 -18.3 -16.15 -18.85 L-16.35 -19.35 Q-16.65 -19.8 -17.2 -19.8 M-14.5 -19.35 Q-14.75 -19.8 -15.15 -19.6 -15.65 -19.35 -15.4 -18.95 -15.15 -18.45 -14.75 -18.7 -14.25 -18.95 -14.5 -19.35 M-17.8 -15.6 L-34.95 -15.6 -34.95 -6.15 -28.55 -6.15 Q-26.9 -6.15 -25.5 -4.9 -24.15 -3.45 -24.15 -1.75 -24.15 0.25 -25.5 1.45 -26.95 2.75 -28.5 2.75 L-34.95 2.75 -34.95 12.35 -17.75 12.35 Q-16.9 12.35 -16.15 12.65 -15.5 12.85 -14.75 13.6 -13.4 14.9 -13.4 16.75 -13.4 18.7 -14.75 19.9 -16.05 21.15 -17.85 21.15 L-43.75 21.15 -43.75 -20.05 -39.3 -24.55 -17.85 -24.55 Q-16.0 -24.55 -14.75 -23.2 -13.4 -22.0 -13.4 -20.05 -13.4 -18.3 -14.75 -16.95 -16.0 -15.6 -17.8 -15.6 M-26.85 -0.85 Q-27.2 -1.3 -27.85 -1.3 L-28.55 -1.05 Q-29.05 -0.75 -29.05 -0.15 L-28.8 0.6 Q-28.5 1.1 -27.85 1.1 L-27.1 0.85 Q-26.65 0.55 -26.65 -0.15 L-26.85 -0.85 M-25.95 -1.75 Q-26.35 -1.55 -26.2 -1.05 -25.9 -0.65 -25.5 -0.85 -25.05 -1.1 -25.25 -1.5 -25.5 -2.0 -25.95 -1.75 M-17.95 18.85 L-17.25 19.15 -16.55 18.9 Q-16.15 18.6 -16.15 18.1 L-16.4 17.5 Q-16.7 17.1 -17.25 17.1 -17.5 17.1 -17.9 17.4 -18.25 17.7 -18.25 18.2 L-17.95 18.85 M-14.65 16.8 Q-14.8 16.65 -15.15 16.65 L-15.2 16.7 -15.3 16.7 -15.4 16.75 -15.55 17.2 -15.45 17.5 -15.1 17.65 Q-14.6 17.65 -14.6 17.05 L-14.65 16.8 M-42.65 -19.6 L-42.65 19.9 -39.3 16.35 -39.3 -22.7 -42.65 -19.6" fill="#000000" fill-rule="evenodd" stroke="none"/>
      <path d="M-3.2 -19.35 L-3.2 16.75 -0.1 14.75 -0.1 -22.05 -3.2 -19.35 M0.55 -24.55 L16.15 -24.55 Q20.05 -24.55 23.0 -21.6 25.9 -18.75 25.9 -14.7 L25.9 -11.65 Q25.9 -7.5 23.0 -4.7 20.1 -1.85 16.15 -1.85 L15.8 -1.85 25.2 14.25 Q25.8 15.25 25.95 16.75 25.95 18.5 24.55 19.9 23.15 21.15 21.5 21.15 18.9 21.15 17.55 18.85 L5.5 -1.85 4.45 -1.85 4.45 16.75 Q4.45 18.7 3.1 19.9 1.8 21.15 -0.05 21.15 -1.8 21.15 -3.15 19.9 -4.45 18.55 -4.45 16.75 L-4.45 -19.3 0.55 -24.55 M22.55 -13.55 Q22.55 -12.55 22.2 -11.85 L21.2 -10.45 19.8 -9.5 Q19.05 -9.15 18.15 -9.15 L2.9 -9.15 2.9 -21.1 18.15 -21.1 Q19.95 -21.1 21.3 -19.75 22.55 -18.5 22.55 -16.7 L22.55 -13.55 M22.5 -21.15 Q20.75 -23.0 18.15 -23.0 L1.05 -23.0 1.05 14.75 Q1.05 15.7 1.95 15.7 L2.65 15.4 2.95 14.75 2.95 -7.3 9.55 -7.3 22.55 15.15 23.5 15.7 Q23.9 15.7 24.2 15.4 L24.45 14.8 24.15 14.0 11.7 -7.3 18.15 -7.3 Q20.7 -7.3 22.55 -9.15 24.4 -11.0 24.4 -13.6 L24.4 -16.7 Q24.4 -19.25 22.5 -21.15 M16.85 -15.3 L16.1 -15.6 4.4 -15.6 4.4 -10.65 16.15 -10.65 Q16.5 -10.65 16.8 -10.95 L17.1 -11.65 17.1 -14.7 16.85 -15.3 M21.2 -17.35 L20.55 -18.35 18.15 -15.6 18.15 -10.7 19.95 -11.45 21.25 -13.4 21.3 -15.6 21.4 -16.4 21.2 -17.35 M6.4 -2.4 L13.4 8.8 7.4 -2.7 15.6 10.6 8.4 -3.0 18.4 12.8 9.2 -3.7 21.4 15.5 8.9 -6.05 6.4 -2.4 M22.5 17.7 Q22.1 18.2 22.1 18.65 22.1 18.95 22.45 19.4 22.75 19.8 23.3 19.8 23.85 19.8 24.2 19.45 24.55 19.1 24.55 18.55 L24.25 17.8 Q23.8 17.35 23.3 17.35 22.95 17.35 22.5 17.7 M25.2 17.5 Q25.05 16.55 24.8 16.55 24.25 16.55 24.25 17.1 L24.45 17.5 24.8 17.7 25.2 17.5 M-3.2 17.7 Q-3.2 18.55 -2.55 19.2 -1.85 19.9 -0.95 19.9 L-1.5 18.95 -0.7 19.5 -0.95 18.5 -0.3 18.95 -0.55 18.15 0.05 18.5 -0.2 17.9 0.3 18.15 0.2 17.5 0.65 17.7 0.5 17.15 0.9 17.15 0.9 16.8 0.65 16.7 0.2 16.2 Q-0.35 16.2 -1.85 16.95 L-3.2 17.7" fill="#000000" fill-rule="evenodd" stroke="none"/>
      <path d="M62.5 -14.4 Q61.85 -14.4 61.85 -13.75 61.85 -13.1 62.5 -13.1 63.15 -13.1 63.15 -13.75 L63.0 -14.15 62.5 -14.4 M63.4 -17.4 L62.9 -19.45 Q62.45 -20.55 61.65 -21.25 L59.95 -22.5 Q59.0 -23.0 58.0 -23.0 L44.15 -23.0 42.5 -22.65 41.1 -21.7 40.15 -20.3 Q39.8 -19.4 39.8 -18.7 39.8 -17.25 40.8 -15.8 L60.6 9.55 Q61.4 10.55 61.4 11.4 61.4 13.85 58.75 13.85 L45.55 13.85 Q43.9 13.85 42.8 12.75 41.7 11.65 41.7 10.1 L41.45 9.5 40.8 9.25 Q39.75 9.25 39.75 10.5 39.75 11.4 40.2 12.3 40.7 13.3 41.35 13.95 L43.0 15.2 45.15 15.7 59.5 15.7 60.85 15.35 62.1 14.4 63.05 13.05 63.4 11.4 Q63.4 9.85 62.3 8.6 L42.55 -16.75 41.95 -17.75 41.75 -18.7 Q41.75 -19.8 42.35 -20.4 42.95 -21.05 44.45 -21.05 L57.65 -21.05 Q60.6 -21.05 61.3 -18.1 L61.55 -17.2 62.0 -16.4 62.7 -16.55 63.15 -16.8 63.4 -17.4 M63.45 -12.3 L62.05 -11.35 Q61.35 -11.0 60.55 -11.0 58.9 -11.0 57.95 -11.7 57.1 -12.4 56.65 -13.3 L56.05 -14.9 Q55.9 -15.6 55.55 -15.6 L44.6 -15.6 63.05 8.4 64.4 10.8 Q64.85 12.0 64.85 13.4 64.85 15.05 64.2 16.4 L62.55 18.85 60.2 20.5 Q58.9 21.15 57.55 21.15 L43.15 21.15 Q41.25 21.15 39.7 20.35 38.1 19.6 36.9 18.35 35.85 17.3 35.0 15.6 34.3 13.95 34.3 12.45 34.3 7.75 38.85 7.75 40.75 7.75 41.95 8.95 43.2 10.2 43.2 12.25 L54.85 12.25 36.1 -11.65 Q34.35 -14.15 34.35 -16.65 34.35 -18.35 35.0 -19.7 35.55 -21.05 36.65 -22.2 L39.15 -23.9 Q40.7 -24.55 42.15 -24.55 L56.05 -24.55 Q57.5 -24.55 59.15 -23.85 60.85 -23.05 62.0 -21.95 63.35 -20.6 64.05 -19.05 64.85 -17.4 64.85 -15.4 64.85 -14.45 64.45 -13.7 L63.45 -12.3 M43.6 -18.6 L44.0 -18.4 Q44.25 -18.4 44.5 -18.6 L44.75 -19.1 Q44.75 -19.75 44.05 -19.75 43.35 -19.75 43.35 -19.1 43.35 -18.75 43.6 -18.6 M61.45 -15.2 L61.45 -15.6 60.9 -16.2 60.6 -16.75 59.7 -16.05 57.35 -14.7 Q57.35 -13.95 57.95 -13.2 58.6 -12.5 59.6 -12.5 L59.05 -13.4 59.85 -12.95 59.6 -13.85 60.25 -13.4 60.0 -14.2 60.6 -13.85 60.35 -14.5 60.85 -14.2 60.75 -14.9 61.2 -14.7 61.05 -15.2 61.45 -15.2 M58.5 12.3 L59.6 11.85 60.05 10.9 59.9 10.3 41.85 -12.65 58.2 10.1 42.55 -9.0 57.35 10.5 44.6 -4.0 56.45 11.15 49.45 3.75 56.1 12.3 58.5 12.3 M41.35 -23.35 Q39.7 -23.35 38.6 -22.65 37.55 -22.0 36.6 -20.35 L39.5 -20.95 40.2 -22.2 41.35 -23.1 41.35 -23.35 M35.55 12.05 Q35.55 12.75 36.1 14.4 L39.05 12.75 38.8 11.75 38.6 10.6 38.7 9.85 39.5 8.6 Q37.95 8.6 36.75 9.5 35.55 10.4 35.55 12.05 M40.5 15.4 L40.5 15.0 40.25 14.8 39.8 14.25 39.6 13.9 Q39.5 14.2 38.8 14.55 L36.4 15.95 Q36.4 16.75 37.05 17.4 37.7 18.1 38.65 18.1 L38.15 17.15 38.95 17.7 38.65 16.75 39.35 17.15 39.05 16.4 39.6 16.75 39.4 16.15 39.9 16.4 39.75 15.75 40.2 15.95 40.1 15.4 40.5 15.4 M59.6 17.1 Q59.35 17.1 59.05 17.4 58.7 17.7 58.7 18.1 L58.95 18.7 59.65 19.0 Q60.15 19.0 60.35 18.7 L60.6 18.0 60.4 17.5 Q60.1 17.1 59.6 17.1" fill="#000000" fill-rule="evenodd" stroke="none"/>
      <path d="M79.65 -5.95 L79.45 -3.6 79.65 -1.25 Q79.9 -0.05 80.45 0.85 L86.4 12.7 Q87.0 14.0 88.25 14.85 89.55 15.7 91.15 15.7 94.4 15.7 95.9 12.75 L101.85 0.9 Q102.85 -2.0 102.85 -3.6 L102.5 -5.95 Q102.35 -7.1 101.85 -8.1 L95.95 -20.1 Q94.6 -23.0 91.15 -23.0 87.75 -23.0 86.4 -20.1 L80.45 -8.1 Q79.9 -7.15 79.65 -5.95 M79.25 -8.65 L84.95 -19.4 82.2 -18.75 76.05 -7.25 Q75.6 -6.05 75.25 -4.3 74.95 -2.8 74.95 -1.7 L75.2 0.45 76.05 3.1 82.15 15.4 85.45 13.6 79.25 2.5 Q78.5 1.15 78.2 0.05 77.85 -0.95 77.85 -2.5 77.85 -3.95 78.25 -5.65 78.55 -6.95 79.2 -8.5 L79.25 -8.65 M74.35 -4.95 Q74.65 -6.3 75.35 -7.65 L81.25 -19.65 Q83.75 -24.55 89.15 -24.55 94.7 -24.55 97.1 -19.65 L102.95 -7.65 104.0 -4.75 Q104.4 -3.15 104.4 -1.6 L103.95 1.5 102.95 4.45 97.1 16.3 Q94.7 21.15 89.15 21.15 86.5 21.15 84.45 19.8 82.35 18.4 81.25 16.35 L75.35 4.45 Q74.75 3.3 74.3 1.6 74.0 0.2 74.0 -1.9 74.0 -3.6 74.35 -4.95 M82.25 -7.7 L87.8 -19.0 Q88.85 -21.15 91.15 -21.15 93.3 -21.15 94.45 -18.95 L100.0 -7.7 Q100.95 -5.95 100.95 -3.6 L100.75 -1.55 Q100.6 -0.5 100.0 0.45 L94.25 11.8 Q93.1 13.85 91.15 13.85 88.75 13.85 87.95 11.7 L82.25 0.45 Q81.4 -1.7 81.4 -3.65 81.4 -5.6 82.25 -7.7 M90.15 -19.7 L88.95 -16.55 Q89.95 -16.5 90.35 -15.6 L96.25 -4.75 96.8 -2.35 96.7 -1.05 Q96.6 -0.25 96.1 0.65 L91.95 9.9 91.1 11.35 90.05 12.6 90.75 12.75 Q91.6 12.75 92.25 12.1 L93.3 10.8 98.9 0.65 99.85 -1.65 100.0 -3.2 99.8 -4.9 Q99.55 -6.15 98.9 -7.25 L93.3 -18.4 92.45 -19.35 Q91.95 -19.9 91.1 -19.9 L90.15 -19.7 M87.15 -22.35 L89.15 -23.7 87.4 -23.4 85.6 -22.65 84.05 -21.55 82.95 -20.15 84.0 -20.55 85.0 -20.75 85.6 -20.55 86.4 -21.6 87.15 -22.35 M87.3 -15.5 Q87.3 -15.25 87.6 -15.25 87.75 -15.25 87.8 -15.4 L87.85 -15.55 87.8 -15.75 87.6 -15.85 87.4 -15.8 87.3 -15.5 M95.35 -3.05 L94.9 -4.2 89.15 -15.7 83.4 -4.25 Q82.85 -2.05 82.85 -1.65 82.85 -0.95 83.0 -0.35 L83.45 0.9 89.15 12.3 94.85 0.9 95.35 -0.4 95.5 -1.7 95.35 -3.05 M96.55 14.55 L96.25 14.75 96.25 14.85 96.4 15.05 96.55 15.05 96.75 14.85 96.75 14.75 96.55 14.55 M94.5 15.8 L94.3 16.2 Q94.3 16.55 94.55 16.7 L94.95 16.85 Q95.6 16.85 95.6 16.2 L95.35 15.7 94.95 15.55 Q94.65 15.55 94.5 15.8 M93.4 17.3 L92.9 17.05 Q92.75 17.05 92.5 17.2 92.35 17.35 92.35 17.7 L92.5 18.1 92.95 18.25 93.35 18.1 93.55 17.6 93.4 17.3 M87.35 15.85 L87.35 15.45 86.75 15.0 86.0 14.45 Q85.0 14.8 84.45 15.15 L82.75 16.55 84.2 18.15 Q84.9 18.55 85.45 18.55 L84.95 17.6 85.75 18.1 85.45 17.15 86.15 17.6 85.85 16.85 86.45 17.15 86.2 16.55 86.75 16.85 86.6 16.15 87.05 16.35 86.95 15.85 87.35 15.85" fill="#000000" fill-rule="evenodd" stroke="none"/>
      <path d="M139.15 -22.6 L140.5 -23.65 140.55 -23.9 Q138.85 -23.9 137.85 -23.05 137.05 -22.35 136.05 -20.65 L137.65 -21.35 138.6 -21.5 138.85 -22.15 139.15 -22.6 M141.3 -23.0 Q140.85 -23.0 140.55 -22.65 140.25 -22.35 140.25 -22.0 L140.25 13.85 121.45 -23.0 118.8 -23.0 118.8 14.75 Q118.8 15.7 119.7 15.7 120.65 15.7 120.65 14.75 L120.65 -20.65 139.45 15.7 142.1 15.7 142.1 -21.95 141.85 -22.7 Q141.55 -23.0 141.3 -23.0 M136.05 -23.2 Q137.4 -24.55 139.2 -24.55 141.1 -24.55 142.4 -23.25 143.65 -22.0 143.65 -20.05 L143.65 18.15 140.55 21.15 133.6 21.15 122.15 -3.25 122.15 16.75 Q122.15 18.6 120.85 19.9 119.6 21.15 117.75 21.15 116.0 21.15 114.6 19.9 113.35 18.5 113.35 16.75 L113.35 -20.65 117.2 -24.55 123.3 -24.55 134.8 0.05 134.8 -20.0 Q134.8 -21.8 136.05 -23.2 M136.05 -19.35 L136.05 1.25 139.2 7.7 139.2 -20.65 136.05 -19.35 M139.5 18.05 L139.25 18.85 Q139.25 19.45 139.7 19.75 139.9 19.95 140.35 19.95 L141.3 19.5 141.5 18.85 Q141.5 18.25 141.15 18.0 L140.35 17.7 Q139.75 17.7 139.5 18.05 M141.3 17.2 L141.15 17.6 141.35 18.0 141.7 18.1 142.1 17.9 142.3 17.5 142.1 17.15 141.7 17.0 Q141.45 17.0 141.3 17.2 M122.0 -5.85 L128.35 6.75 122.45 -7.55 132.3 11.2 122.55 -9.85 135.15 13.5 122.6 -12.55 138.6 16.35 121.7 -16.05 122.0 -5.85 M114.6 -19.35 L114.6 16.75 117.75 14.75 117.75 -22.05 114.6 -19.35 M118.0 16.2 Q117.5 16.2 116.0 16.95 L114.6 17.7 Q114.6 18.45 115.25 19.2 115.95 19.9 116.9 19.9 L116.35 18.95 117.15 19.5 116.9 18.5 117.55 18.95 117.3 18.15 117.9 18.5 117.65 17.9 118.1 18.15 118.0 17.5 118.45 17.7 118.3 17.15 118.7 17.15 118.7 16.8 118.6 16.75 118.5 16.75 118.45 16.7 118.0 16.2 M118.6 18.3 L118.85 19.05 Q119.15 19.4 119.65 19.4 L120.45 19.1 120.75 18.3 120.5 17.65 Q120.1 17.25 119.7 17.25 119.35 17.25 118.95 17.55 118.6 17.9 118.6 18.3 M121.5 16.9 L120.85 16.8 Q120.5 17.1 120.75 17.4 121.05 17.85 121.45 17.5 L121.6 17.15 121.5 16.9" fill="#000000" fill-rule="evenodd" stroke="none"/>
      <path d="M192.25 -14.9 L191.7 -15.6 180.75 -15.6 199.2 8.4 200.55 10.8 Q201.05 12.15 201.05 13.4 201.05 14.85 200.4 16.4 199.65 17.9 198.7 18.85 L196.35 20.5 Q195.05 21.15 193.7 21.15 L179.3 21.15 Q177.45 21.15 175.85 20.35 174.2 19.55 173.05 18.35 171.95 17.25 171.2 15.6 170.5 14.15 170.5 12.45 170.5 7.75 175.0 7.75 176.9 7.75 178.1 8.95 179.35 10.2 179.35 12.25 L191.0 12.25 172.25 -11.65 Q170.55 -14.1 170.55 -16.65 170.55 -18.25 171.15 -19.7 171.65 -20.95 172.85 -22.2 173.85 -23.25 175.3 -23.9 176.85 -24.55 178.3 -24.55 L192.2 -24.55 Q193.65 -24.55 195.35 -23.85 197.05 -23.05 198.2 -21.95 199.5 -20.6 200.25 -19.05 201.05 -17.2 201.05 -15.4 201.05 -14.6 200.65 -13.7 L199.6 -12.3 198.25 -11.35 Q197.5 -11.0 196.7 -11.0 195.05 -11.0 194.1 -11.7 193.2 -12.55 192.8 -13.3 192.35 -14.35 192.25 -14.9 M194.2 -23.0 L180.3 -23.0 178.65 -22.65 177.3 -21.7 Q176.6 -21.0 176.35 -20.3 176.0 -19.6 176.0 -18.7 176.0 -17.15 177.0 -15.8 L196.75 9.55 Q197.55 10.55 197.55 11.4 197.55 13.85 194.95 13.85 L181.7 13.85 Q180.05 13.85 178.95 12.75 177.85 11.55 177.85 10.1 L177.6 9.5 177.0 9.25 Q175.95 9.25 175.95 10.5 175.95 11.35 176.35 12.3 L177.5 13.95 179.2 15.2 181.3 15.7 195.7 15.7 197.0 15.35 198.3 14.4 199.2 13.05 Q199.55 12.3 199.55 11.4 199.55 9.75 198.45 8.6 L178.7 -16.75 178.1 -17.75 177.9 -18.7 Q177.9 -19.8 178.5 -20.4 179.1 -21.05 180.6 -21.05 L193.8 -21.05 Q196.75 -21.05 197.45 -18.1 L197.75 -17.2 198.15 -16.4 198.85 -16.55 199.3 -16.8 199.55 -17.4 Q199.55 -18.5 199.05 -19.45 L197.85 -21.25 196.1 -22.5 Q195.15 -23.0 194.2 -23.0 M197.6 -15.2 L197.6 -15.6 197.05 -16.2 196.75 -16.75 195.85 -16.05 193.5 -14.7 Q193.5 -13.9 194.15 -13.2 194.7 -12.5 195.8 -12.5 L195.25 -13.4 196.0 -12.95 195.8 -13.85 196.4 -13.4 196.15 -14.2 196.75 -13.85 196.5 -14.5 197.0 -14.2 196.9 -14.9 197.35 -14.7 197.2 -15.2 197.6 -15.2 M198.65 -13.1 Q199.3 -13.1 199.3 -13.75 L199.15 -14.15 198.65 -14.4 Q198.0 -14.4 198.0 -13.75 198.0 -13.1 198.65 -13.1 M180.2 -19.75 Q179.5 -19.75 179.5 -19.1 179.5 -18.75 179.75 -18.6 179.95 -18.4 180.15 -18.4 L180.65 -18.6 180.9 -19.1 Q180.9 -19.75 180.2 -19.75 M177.55 -23.35 Q175.9 -23.35 174.75 -22.65 173.7 -22.0 172.75 -20.35 174.55 -20.95 175.65 -20.95 L176.4 -22.2 177.55 -23.1 177.55 -23.35 M171.7 12.05 Q171.7 12.75 172.25 14.4 L175.2 12.75 174.95 11.75 174.75 10.6 174.85 9.85 175.65 8.6 Q174.1 8.6 172.9 9.5 171.7 10.4 171.7 12.05 M185.6 3.75 L192.25 12.3 194.7 12.3 195.75 11.85 196.2 10.9 196.05 10.3 178.0 -12.65 194.4 10.1 178.7 -9.0 193.5 10.5 180.75 -4.0 192.6 11.15 185.6 3.75 M195.8 17.1 Q195.5 17.1 195.2 17.4 194.9 17.7 194.9 18.1 L195.15 18.7 195.8 19.0 Q196.3 19.0 196.5 18.7 L196.75 18.0 196.55 17.5 Q196.25 17.1 195.8 17.1 M176.7 15.4 L176.7 15.0 176.45 14.8 176.0 14.25 175.8 13.9 174.95 14.55 172.55 15.95 Q172.55 16.65 173.2 17.4 173.85 18.1 174.8 18.1 L174.3 17.15 175.1 17.7 174.8 16.75 175.5 17.15 175.2 16.4 175.8 16.75 175.55 16.15 176.1 16.4 175.95 15.75 176.4 15.95 176.3 15.4 176.7 15.4" fill="#000000" fill-rule="evenodd" stroke="none"/>
      <path d="M151.6 -30.75 L151.85 -29.75 151.3 -29.55 151.25 -29.55 Q150.75 -30.9 150.95 -31.8 151.1 -32.5 151.55 -32.85 L151.5 -32.7 151.4 -31.95 151.6 -30.75" fill="#000000" fill-rule="evenodd" stroke="none"/>
      <path d="M153.3 -27.15 L152.95 -27.15 152.95 -27.05 152.05 -28.25 152.45 -28.65 152.65 -28.25 153.05 -27.75 153.3 -27.55 153.3 -27.15" fill="#000000" fill-rule="evenodd" stroke="none"/>
      <path d="M161.85 -18.35 L161.35 -18.6 Q160.7 -18.6 160.7 -17.95 160.7 -17.3 161.35 -17.3 162.0 -17.3 162.0 -17.95 L161.85 -18.35 M160.3 -19.8 L159.75 -20.4 159.45 -20.95 158.6 -20.25 156.2 -18.9 Q156.2 -18.05 156.85 -17.4 157.4 -16.7 158.5 -16.7 L157.95 -17.6 158.75 -17.1 158.5 -18.05 159.1 -17.6 158.9 -18.4 159.45 -18.05 159.2 -18.7 159.7 -18.4 159.6 -19.1 160.05 -18.9 159.9 -19.4 160.3 -19.4 160.3 -19.8 M154.75 -33.55 Q155.65 -32.8 155.55 -31.2 155.45 -29.65 156.1 -29.0 156.4 -28.75 158.05 -28.05 L160.9 -26.1 Q162.1 -24.95 162.95 -23.2 163.75 -21.45 163.75 -19.6 163.75 -18.8 163.35 -17.9 L162.3 -16.5 Q161.6 -15.8 160.95 -15.55 L159.4 -15.2 Q157.75 -15.2 156.8 -15.9 155.85 -16.75 155.55 -17.5 155.1 -18.3 154.95 -19.1 154.95 -21.05 154.6 -21.5 153.4 -21.75 152.5 -22.15 150.95 -22.9 149.7 -24.15 148.55 -25.35 147.8 -26.95 147.1 -28.5 147.1 -30.05 147.1 -34.8 151.65 -34.8 153.4 -34.8 154.75 -33.55" fill="#000000" fill-rule="evenodd" stroke="none"/>
      <path d="M159.35 -26.3 Q160.65 -25.45 161.45 -23.95 162.95 -21.35 162.65 -20.6 162.35 -20.0 161.65 -20.05 161.0 -20.1 160.6 -20.85 L160.0 -22.35 Q159.4 -24.05 156.9 -24.8 154.2 -25.55 153.2 -26.95 150.95 -29.8 151.35 -31.75 151.9 -34.15 153.8 -33.2 154.6 -32.8 154.65 -32.25 L154.55 -30.75 Q154.55 -28.2 156.85 -27.4 158.45 -26.9 159.35 -26.3" fill="#ffffff" fill-rule="evenodd" stroke="none"/>
      <path d="M148.45 -28.2 Q147.9 -29.85 147.9 -30.55 147.9 -32.25 149.1 -33.15 150.35 -34.0 151.8 -34.0 L151.25 -33.55 Q150.7 -33.1 150.4 -31.75 150.2 -30.55 150.7 -29.5 L148.45 -28.2" fill="#ffffff" fill-rule="evenodd" stroke="none"/>
      <path d="M149.05 -26.7 L151.35 -27.95 152.45 -26.3 151.9 -26.55 152.15 -26.0 151.6 -26.3 151.85 -25.6 151.2 -26.0 151.5 -25.1 150.75 -25.6 151.2 -24.75 Q150.7 -24.75 150.0 -25.35 149.05 -26.3 149.05 -26.7" fill="#ffffff" fill-rule="evenodd" stroke="none"/>
    </g>
    <g id="text0" transform="matrix(1.0, 0.0, 0.0, 1.0, -1.9, -11.65)">
      <g transform="matrix(1.0, 0.0, 0.0, 1.0, 0.0, 0.0)">
        <use fill="#ff0000" height="52.05" transform="matrix(0.0442, 0.0, 0.0, 0.0442, 0.0, 50.0)" width="245.35" xlink:href="#font_Comic_Sans_MS_e0"/>
        <use fill="#ff0000" height="52.05" transform="matrix(0.0442, 0.0, 0.0, 0.0442, 24.8, 50.0)" width="245.35" xlink:href="#font_Comic_Sans_MS_B0"/>
        <use fill="#ff0000" height="52.05" transform="matrix(0.0442, 0.0, 0.0, 0.0442, 53.35, 50.0)" width="245.35" xlink:href="#font_Comic_Sans_MS_a0"/>
        <use fill="#ff0000" height="52.05" transform="matrix(0.0442, 0.0, 0.0, 0.0442, 76.55, 50.0)" width="245.35" xlink:href="#font_Comic_Sans_MS_y0"/>
        <use fill="#ff0000" height="52.05" transform="matrix(0.0442, 0.0, 0.0, 0.0442, 113.7, 50.0)" width="245.35" xlink:href="#font_Comic_Sans_MS_s0"/>
        <use fill="#ff0000" height="52.05" transform="matrix(0.0442, 0.0, 0.0, 0.0442, 135.75, 50.0)" width="245.35" xlink:href="#font_Comic_Sans_MS_t0"/>
        <use fill="#ff0000" height="52.05" transform="matrix(0.0442, 0.0, 0.0, 0.0442, 157.1, 50.0)" width="245.35" xlink:href="#font_Comic_Sans_MS_o0"/>
        <use fill="#ff0000" height="52.05" transform="matrix(0.0442, 0.0, 0.0, 0.0442, 180.9, 50.0)" width="245.35" xlink:href="#font_Comic_Sans_MS_r0"/>
        <use fill="#ff0000" height="52.05" transform="matrix(0.0442, 0.0, 0.0, 0.0442, 202.65, 50.0)" width="245.35" xlink:href="#font_Comic_Sans_MS_e0"/>
      </g>
    </g>
    <g id="font_Comic_Sans_MS_e0">
      <path d="M289.5 -432.5 L289.5 -432.5 Q367.0 -432.5 410.0 -392.5 371.5 -360.0 281.0 -316.0 L127.5 -243.0 Q147.5 -338.0 188.0 -385.0 228.5 -432.5 289.5 -432.5 M303.0 23.0 L303.0 23.0 Q375.5 23.0 452.0 -11.0 541.5 -51.0 541.5 -106.5 541.5 -124.0 528.0 -137.0 514.0 -150.5 496.5 -150.5 477.0 -150.5 460.0 -123.5 443.0 -97.0 384.0 -80.5 337.5 -67.5 303.0 -67.5 247.5 -67.5 206.0 -88.5 164.0 -109.5 136.0 -151.0 L327.0 -241.5 Q408.0 -279.5 433.0 -297.5 489.5 -338.5 489.5 -388.5 489.5 -460.0 425.0 -494.5 372.5 -522.5 289.5 -522.5 175.0 -522.5 106.5 -426.5 43.5 -338.5 43.5 -208.5 43.5 -96.0 120.0 -33.5 190.0 23.0 303.0 23.0" fill-rule="evenodd" stroke="none"/>
    </g>
    <g id="font_Comic_Sans_MS_B0">
      <path d="M348.0 -283.0 L348.0 -283.0 Q393.5 -272.0 441.5 -249.5 505.5 -220.0 505.5 -196.5 505.5 -183.5 475.0 -157.5 443.0 -129.0 408.0 -115.5 325.5 -83.0 194.5 -78.5 L194.5 -182.0 Q194.5 -231.5 197.5 -294.5 228.0 -290.0 255.0 -290.0 262.0 -290.0 275.5 -290.5 288.5 -291.5 295.0 -291.5 L348.0 -283.0 M292.0 -683.5 L292.0 -683.5 Q350.5 -683.5 403.0 -643.0 455.5 -602.5 455.5 -555.0 455.5 -485.0 404.0 -440.5 356.0 -399.5 280.5 -393.5 275.5 -393.0 204.5 -399.0 L214.5 -592.5 215.5 -680.0 Q237.5 -683.5 292.0 -683.5 M443.0 -20.0 L443.0 -20.0 Q493.0 -39.5 538.5 -79.5 604.0 -136.0 604.0 -196.5 604.0 -242.5 567.0 -281.5 529.5 -320.5 454.5 -352.5 554.5 -426.5 554.5 -555.0 554.5 -656.5 461.0 -725.5 380.0 -785.5 292.0 -785.5 205.5 -785.5 137.5 -764.5 124.5 -756.5 121.0 -731.5 115.0 -640.5 115.5 -594.5 114.5 -530.5 104.5 -387.5 95.5 -255.0 95.5 -183.5 L95.5 -38.0 Q95.5 -16.5 115.0 4.0 134.0 24.0 155.5 24.0 330.5 24.0 443.0 -20.0" fill-rule="evenodd" stroke="none"/>
    </g>
    <g id="font_Comic_Sans_MS_a0">
      <path d="M356.0 -314.5 L356.0 -314.5 Q356.0 -248.5 372.0 -116.0 339.5 -87.5 321.5 -78.0 288.0 -60.5 240.0 -60.5 182.0 -60.5 153.0 -101.5 124.0 -142.5 124.0 -224.5 124.0 -307.0 180.5 -370.0 236.5 -433.5 314.0 -433.5 322.0 -433.5 335.5 -429.0 348.5 -424.5 367.0 -415.0 361.5 -386.5 359.0 -361.0 356.0 -336.0 356.0 -314.5 M460.0 33.0 L460.0 33.0 Q478.5 33.0 492.5 20.0 506.5 7.0 506.5 -13.0 L503.5 -21.5 Q495.5 -39.0 492.0 -48.0 465.5 -114.0 460.5 -136.0 451.5 -172.0 452.0 -234.0 452.5 -302.0 455.5 -345.5 458.0 -389.0 463.0 -408.0 473.0 -418.5 473.0 -432.0 473.0 -471.5 405.0 -499.5 351.0 -522.0 307.5 -522.0 192.0 -522.0 109.0 -436.0 25.5 -350.0 25.5 -229.0 25.5 -101.0 76.0 -39.0 129.5 27.0 246.5 27.0 271.0 27.0 307.5 14.0 344.0 0.5 392.0 -25.5 403.0 -9.5 425.5 11.0 450.5 33.0 460.0 33.0" fill-rule="evenodd" stroke="none"/>
    </g>
    <g id="font_Comic_Sans_MS_y0">
      <path d="M505.5 -446.0 L505.5 -446.0 Q512.0 -460.0 512.0 -471.0 512.0 -491.0 496.5 -505.5 480.5 -520.0 460.0 -520.0 434.0 -520.0 418.0 -492.0 381.0 -427.5 341.0 -338.0 L267.0 -165.5 Q169.5 -383.5 84.5 -501.5 72.0 -519.0 49.0 -519.0 29.5 -519.0 14.0 -503.5 -2.0 -488.0 -2.0 -467.5 -2.0 -452.0 11.5 -429.0 L34.0 -392.5 213.0 -48.0 Q105.0 191.5 105.0 241.5 105.0 262.0 120.5 276.0 135.5 289.5 156.5 289.5 188.5 289.5 201.5 253.5 L234.5 156.5 Q268.5 64.5 332.5 -72.0 L505.5 -446.0" fill-rule="evenodd" stroke="none"/>
    </g>
    <g id="font_Comic_Sans_MS_s0">
      <path d="M407.0 -385.0 L407.0 -385.0 Q428.5 -385.0 442.5 -399.0 456.0 -413.0 456.0 -435.5 456.0 -450.0 450.0 -478.0 443.5 -506.0 443.5 -520.5 443.5 -543.0 430.0 -557.0 416.0 -571.0 394.5 -571.0 370.5 -571.0 350.0 -562.0 321.5 -549.0 255.5 -530.0 189.5 -511.5 159.5 -498.0 61.0 -453.5 61.0 -349.0 61.0 -292.5 101.5 -264.5 129.5 -245.0 196.0 -230.5 L248.0 -219.0 Q343.0 -195.0 343.0 -127.0 343.0 -95.5 296.5 -81.0 264.5 -71.0 222.5 -71.0 199.5 -71.0 166.0 -77.0 124.0 -84.5 112.0 -96.0 87.5 -120.0 72.0 -120.0 52.0 -120.0 36.5 -105.0 20.5 -90.0 20.5 -70.0 20.5 -20.0 97.5 8.0 157.0 30.0 222.5 30.0 312.0 30.0 370.5 -4.0 441.0 -45.5 441.0 -127.0 441.0 -226.5 359.5 -279.0 303.5 -315.0 188.5 -335.5 174.0 -338.0 159.0 -343.5 159.5 -390.5 240.0 -422.5 318.0 -448.0 355.5 -457.5 361.0 -416.5 368.5 -403.5 379.5 -385.0 407.0 -385.0" fill-rule="evenodd" stroke="none"/>
    </g>
    <g id="font_Comic_Sans_MS_t0">
      <path d="M404.0 -426.0 L404.0 -426.0 Q425.5 -426.0 439.5 -440.0 453.0 -454.5 453.0 -476.5 453.0 -513.5 422.5 -523.5 406.5 -528.5 354.5 -528.5 345.5 -528.5 283.5 -520.5 L284.0 -551.5 285.0 -580.5 Q285.0 -606.5 283.5 -625.0 276.0 -698.5 231.0 -698.5 210.0 -698.5 195.5 -684.5 181.0 -671.0 181.0 -650.0 181.0 -631.0 183.5 -588.0 185.5 -545.5 185.5 -520.0 L80.5 -528.5 Q59.5 -528.5 46.0 -514.0 32.5 -499.5 32.5 -477.5 32.5 -434.0 77.0 -428.0 151.5 -421.0 188.0 -419.5 L198.0 -127.5 Q198.0 -108.5 196.5 -70.5 195.0 -32.5 195.0 -13.5 195.0 6.0 210.0 19.0 224.5 32.0 244.5 32.0 299.0 32.0 297.0 -77.5 L296.5 -103.0 296.0 -125.0 286.5 -420.5 Q343.0 -428.0 354.5 -428.0 365.0 -428.0 379.5 -427.0 393.5 -426.0 404.0 -426.0" fill-rule="evenodd" stroke="none"/>
    </g>
    <g id="font_Comic_Sans_MS_o0">
      <path d="M287.0 -417.0 L287.0 -417.0 Q398.5 -416.5 391.5 -223.0 389.0 -151.5 346.5 -109.5 309.0 -71.5 257.0 -71.5 212.5 -71.5 179.5 -105.0 140.0 -145.5 140.0 -218.0 140.0 -290.5 172.5 -347.0 213.5 -417.5 287.0 -417.0 M257.0 29.5 L257.0 29.5 Q362.5 29.5 426.5 -59.5 483.0 -138.0 484.5 -249.0 486.0 -353.0 445.0 -427.0 393.5 -518.5 293.5 -518.5 168.5 -518.5 98.5 -417.0 38.5 -331.0 41.5 -218.0 45.0 -101.5 112.5 -32.5 173.0 29.5 257.0 29.5" fill-rule="evenodd" stroke="none"/>
    </g>
    <g id="font_Comic_Sans_MS_r0">
      <path d="M458.5 -369.5 L458.5 -369.5 Q459.0 -378.5 459.0 -404.5 459.0 -466.0 439.0 -496.5 419.0 -527.0 378.5 -527.0 261.5 -527.0 165.5 -434.5 165.0 -517.5 116.0 -517.5 72.0 -517.5 72.0 -467.0 72.0 -450.5 71.0 -417.5 69.5 -384.5 69.5 -368.0 L69.5 -17.0 Q69.5 33.5 113.5 33.5 163.0 33.5 163.0 -17.0 L162.0 -291.0 Q191.5 -356.5 236.0 -389.0 283.5 -424.0 362.5 -433.5 L364.0 -391.5 Q365.5 -366.0 365.5 -356.5 365.5 -307.0 408.5 -307.0 455.0 -307.0 458.5 -369.5" fill-rule="evenodd" stroke="none"/>
    </g>
  </defs>
</svg>
