<?xml version="1.0" encoding="UTF-8" standalone="no"?>
<svg xmlns:xlink="http://www.w3.org/1999/xlink" height="300.0px" width="300.0px" xmlns="http://www.w3.org/2000/svg">
  <g transform="matrix(1.0, 0.0, 0.0, 1.0, 0.0, 0.0)">
    <use height="374.0" transform="matrix(1.0, 0.0, 0.0, 1.0, 6.35, -36.95)" width="295.7" xlink:href="#shape0"/>
  </g>
  <defs>
    <g id="shape0" transform="matrix(1.0, 0.0, 0.0, 1.0, -6.35, 36.95)">
      <path d="M260.55 63.3 L201.75 337.05 101.35 337.05 40.95 61.55 89.2 -36.95 213.2 -36.95 260.55 63.3" fill="#94754d" fill-rule="evenodd" stroke="none"/>
      <path d="M246.95 62.35 L195.35 322.25 107.2 322.25 54.1 60.8 96.5 -27.2 205.4 -27.2 246.95 62.35" fill="url(#gradient0)" fill-rule="evenodd" stroke="none"/>
      <path d="M193.15 39.7 Q193.15 56.8 181.05 68.95 168.95 81.05 151.85 81.05 134.7 81.05 122.6 68.95 110.5 56.8 110.5 39.7 110.5 22.55 122.6 10.45 134.7 -1.65 151.85 -1.65 168.95 -1.65 181.05 10.45 193.15 22.55 193.15 39.7" fill="#db9e00" fill-rule="evenodd" stroke="none"/>
      <path d="M179.9 51.45 Q174.7 56.8 167.9 59.75 160.8 62.8 153.05 62.8 145.3 62.8 138.2 59.75 131.4 56.8 126.2 51.45" fill="none" stroke="#000000" stroke-linecap="butt" stroke-linejoin="miter-clip" stroke-miterlimit="4.0" stroke-width="3.0"/>
      <path d="M155.95 32.1 Q160.4 36.7 166.85 36.7 173.25 36.7 177.7 32.1" fill="none" stroke="#000000" stroke-linecap="butt" stroke-linejoin="miter-clip" stroke-miterlimit="4.0" stroke-width="3.0"/>
      <path d="M144.1 32.2 Q144.1 34.85 142.2 36.75 140.3 38.65 137.65 38.65 134.95 38.65 133.05 36.75 131.15 34.85 131.15 32.2 131.15 29.5 133.05 27.6 134.95 25.7 137.65 25.7 140.3 25.7 142.2 27.6 144.1 29.5 144.1 32.2" fill="#000000" fill-rule="evenodd" stroke="none"/>
      <path d="M84.55 94.75 L84.55 126.3 Q84.55 127.25 85.0 127.75 L86.55 129.25 86.9 129.7 86.6 130.0 78.45 130.0 Q78.15 130.0 78.15 129.7 L78.5 129.25 80.05 127.75 Q80.5 127.25 80.5 126.3 L80.5 94.75 Q80.5 93.75 80.05 93.3 L78.5 91.8 78.15 91.35 Q78.15 91.0 78.45 91.0 L86.6 91.0 Q86.9 91.0 86.9 91.35 L86.55 91.8 85.0 93.3 Q84.55 93.75 84.55 94.75" fill="#ffffff" fill-rule="evenodd" stroke="none"/>
      <path d="M91.4 100.5 Q90.1 102.55 89.25 102.55 L89.0 102.35 89.3 101.9 89.8 101.3 Q90.75 99.85 91.2 98.25 91.55 96.85 91.35 96.2 89.25 96.05 89.25 93.5 89.25 91.0 91.2 91.0 93.05 91.0 93.05 94.55 93.05 97.9 91.4 100.5" fill="#ffffff" fill-rule="evenodd" stroke="none"/>
      <path d="M99.05 104.55 Q98.25 105.85 98.25 107.85 L98.25 127.15 98.35 127.65 99.95 129.45 100.2 129.8 99.85 130.0 93.0 130.0 92.7 129.8 92.9 129.45 94.5 127.65 94.6 127.15 94.6 103.6 94.45 103.2 92.9 101.75 92.7 101.3 Q92.7 101.1 93.0 101.1 L98.0 101.1 98.25 101.4 98.25 102.95 98.35 102.95 99.85 101.65 Q100.75 101.1 101.95 101.1 104.0 101.1 105.3 102.95 106.95 101.1 109.25 101.1 111.05 101.1 112.15 102.45 113.35 103.9 113.35 106.4 L113.35 127.15 113.45 127.65 115.05 129.45 115.25 129.8 114.95 130.0 108.1 130.0 Q107.75 130.0 107.75 129.8 L108.05 129.45 109.6 127.65 109.7 127.15 109.7 106.35 Q109.7 103.35 108.25 103.35 107.35 103.35 106.6 104.55 105.8 105.9 105.8 107.85 L105.8 127.15 105.9 127.65 107.15 129.45 107.3 129.8 107.0 130.0 100.95 130.0 100.65 129.8 100.85 129.45 102.05 127.65 102.15 127.15 102.15 106.35 Q102.15 103.35 100.7 103.35 99.75 103.35 99.05 104.55" fill="#ffffff" fill-rule="evenodd" stroke="none"/>
      <path d="M135.45 94.75 L135.45 129.45 Q135.45 130.0 134.9 130.0 L132.75 130.0 Q131.95 130.0 131.7 128.7 L125.6 100.4 125.5 100.4 125.5 126.3 Q125.5 127.15 126.0 127.7 L127.45 129.25 127.8 129.75 127.5 130.0 120.6 130.0 Q120.3 130.0 120.3 129.75 L120.65 129.25 121.95 127.75 Q122.45 127.1 122.45 126.3 L122.45 94.75 Q122.45 93.95 121.95 93.3 L120.65 91.8 120.3 91.3 Q120.3 91.0 120.6 91.0 L126.85 91.0 Q127.25 91.0 127.5 91.9 L132.25 114.25 132.35 114.25 132.35 94.75 Q132.35 93.85 131.9 93.35 L130.45 91.8 130.1 91.3 Q130.1 91.0 130.4 91.0 L137.25 91.0 137.55 91.3 137.2 91.8 135.9 93.3 Q135.45 94.0 135.45 94.75" fill="#ffffff" fill-rule="evenodd" stroke="none"/>
      <path d="M143.2 105.45 Q142.65 107.9 142.65 114.3 142.65 122.5 143.2 125.45 143.65 127.8 144.75 127.8 145.9 127.8 146.35 125.45 146.85 122.55 146.85 114.3 146.85 107.85 146.35 105.45 145.85 103.35 144.75 103.35 143.65 103.35 143.2 105.45 M138.6 114.3 Q138.6 101.1 144.75 101.1 150.95 101.1 150.95 114.3 150.95 123.2 149.1 126.95 147.65 130.0 144.75 130.0 141.9 130.0 140.4 126.95 138.6 123.2 138.6 114.3" fill="#ffffff" fill-rule="evenodd" stroke="none"/>
      <path d="M158.1 94.35 L158.1 100.35 Q158.1 100.8 158.5 100.8 L159.7 100.8 159.95 101.0 159.7 101.4 158.5 102.8 158.1 103.7 158.1 125.9 Q158.1 126.7 158.45 127.25 158.8 127.8 159.35 127.8 160.3 127.8 160.95 126.7 L161.3 126.5 Q161.55 126.5 161.45 126.8 160.55 130.0 157.85 130.0 156.1 130.0 155.35 129.0 154.45 127.8 154.45 124.75 L154.45 103.7 154.3 103.05 152.8 101.6 152.55 101.25 Q152.55 100.95 153.25 100.9 155.8 100.45 155.8 94.45 155.8 94.0 156.25 94.0 L157.8 94.0 Q158.1 94.0 158.1 94.35" fill="#ffffff" fill-rule="evenodd" stroke="none"/>
      <path d="M181.75 109.55 Q181.75 121.5 179.55 126.15 177.7 130.0 173.4 130.0 L166.55 130.0 166.2 129.7 166.6 129.25 168.15 127.75 Q168.6 127.25 168.6 126.3 L168.6 94.75 Q168.6 93.75 168.15 93.3 L166.6 91.8 166.2 91.35 Q166.2 91.0 166.55 91.0 L173.4 91.0 Q177.5 91.0 179.55 95.2 181.75 99.75 181.75 109.55 M172.6 93.6 L172.6 127.4 173.55 127.4 Q175.4 127.4 176.3 124.45 177.5 120.35 177.5 109.55 177.5 100.05 176.3 96.35 175.4 93.6 173.55 93.6 L172.6 93.6" fill="#ffffff" fill-rule="evenodd" stroke="none"/>
      <path d="M196.1 110.9 L196.1 114.1 Q196.1 114.75 195.65 114.75 L188.65 114.75 188.65 118.75 Q188.65 123.7 189.4 125.75 190.1 127.8 191.9 127.8 193.1 127.8 193.95 127.2 L195.55 125.35 195.9 125.1 Q196.15 125.1 196.05 125.4 195.55 127.4 194.4 128.65 193.1 130.0 191.3 130.0 187.7 130.0 186.15 126.2 184.55 122.4 184.55 113.7 184.55 107.8 186.15 104.45 187.75 101.1 190.5 101.1 196.1 101.1 196.1 110.9 M188.65 107.55 L188.65 112.75 192.5 112.75 192.5 107.55 Q192.5 103.35 190.5 103.35 188.65 103.35 188.65 107.55" fill="#ffffff" fill-rule="evenodd" stroke="none"/>
      <path d="M199.8 103.0 Q201.9 101.1 203.8 101.1 205.7 101.1 207.1 102.35 208.95 104.05 208.95 107.6 L208.95 126.5 Q208.95 127.8 209.65 127.8 210.6 127.8 211.15 126.9 L211.4 126.7 211.55 126.95 Q211.4 128.1 210.6 129.05 209.8 130.0 208.85 130.0 207.05 130.0 205.8 128.05 204.05 130.0 202.2 130.0 197.7 130.0 197.7 121.6 197.7 117.25 198.85 115.15 200.0 113.05 204.3 109.65 L205.2 108.4 205.3 106.2 Q205.3 104.5 204.85 103.9 204.4 103.35 203.15 103.35 202.1 103.35 200.6 104.05 L198.5 105.5 198.1 105.65 197.95 105.4 Q197.95 104.65 199.8 103.0 M205.2 111.1 Q203.0 113.0 202.3 114.8 201.5 116.75 201.5 120.65 201.5 124.9 201.95 126.45 202.3 127.8 203.25 127.8 204.1 127.8 204.7 126.8 205.3 125.85 205.3 124.7 L205.3 111.1 205.2 111.1" fill="#ffffff" fill-rule="evenodd" stroke="none"/>
      <path d="M224.8 91.35 L224.8 127.15 224.85 127.65 226.5 129.45 226.75 129.8 Q226.75 130.0 226.4 130.0 L221.55 130.0 221.2 129.8 221.2 128.05 221.1 128.05 Q219.45 130.0 217.6 130.0 215.4 130.0 214.4 127.5 212.9 123.9 212.9 114.05 212.9 106.3 214.45 103.25 215.55 101.1 217.65 101.1 219.45 101.1 221.1 102.95 L221.2 102.95 221.2 93.5 220.95 93.1 219.45 91.6 219.2 91.25 219.55 91.0 224.5 91.0 Q224.8 91.0 224.8 91.35 M217.45 105.1 Q216.95 107.3 216.95 114.05 216.95 122.9 217.4 125.65 217.75 127.8 218.85 127.8 219.8 127.8 220.5 126.7 221.2 125.5 221.2 123.65 L221.2 107.25 Q221.2 105.55 220.3 104.35 219.6 103.35 218.9 103.35 217.8 103.35 217.45 105.1" fill="#ffffff" fill-rule="evenodd" stroke="none"/>
      <path d="M289.65 167.5 Q289.65 176.7 292.8 183.4 296.25 190.65 302.05 191.7 288.7 189.65 154.2 189.65 19.7 189.65 6.35 191.7 12.15 190.65 15.6 183.4 18.75 176.7 18.75 167.5 18.75 158.3 15.6 151.6 12.15 144.35 6.35 143.3 19.7 145.3 154.2 145.3 288.7 145.3 302.05 143.3 296.25 144.35 292.8 151.6 289.65 158.3 289.65 167.5" fill="#000000" fill-rule="evenodd" stroke="none"/>
      <path d="M193.55 153.65 L192.3 152.45 192.05 152.1 192.25 151.85 203.05 151.85 203.3 151.95 203.4 152.25 203.4 162.6 203.2 162.85 202.85 162.6 200.6 154.7 Q200.35 153.9 199.55 153.9 L197.15 153.9 197.15 166.15 198.1 166.15 198.55 165.85 199.95 162.95 200.25 162.7 200.4 162.95 200.4 171.8 200.25 172.0 199.95 171.75 198.55 168.7 198.1 168.35 197.15 168.35 197.15 181.1 199.55 181.1 Q200.4 181.1 200.65 180.3 L202.9 172.3 203.2 172.05 203.4 172.3 203.4 182.75 Q203.4 183.15 203.05 183.15 L192.25 183.15 192.05 182.9 192.3 182.55 193.55 181.3 Q193.95 180.9 193.95 180.15 L193.95 154.85 Q193.95 154.1 193.55 153.65 M190.75 152.45 L189.45 153.65 Q189.1 154.05 189.1 154.85 L189.1 180.15 Q189.1 180.9 189.45 181.3 L190.75 182.55 191.0 182.9 190.8 183.15 184.2 183.15 183.95 182.9 184.25 182.55 185.5 181.3 Q185.9 180.9 185.9 180.15 L185.9 168.3 181.65 168.3 181.65 180.15 Q181.65 180.9 182.0 181.3 L183.25 182.55 183.55 182.9 183.3 183.15 176.75 183.15 176.5 182.9 176.75 182.55 178.0 181.3 Q178.4 180.9 178.4 180.15 L178.4 154.85 Q178.4 154.05 178.0 153.65 L176.75 152.45 176.5 152.1 Q176.5 151.85 176.75 151.85 L183.3 151.85 183.55 152.1 183.25 152.45 182.0 153.65 Q181.65 154.05 181.65 154.85 L181.65 166.1 185.9 166.1 185.9 154.85 Q185.9 154.05 185.5 153.65 L184.25 152.45 183.95 152.1 Q183.95 151.85 184.2 151.85 L190.8 151.85 191.0 152.1 190.75 152.45 M172.3 153.85 L170.75 153.85 170.75 180.15 Q170.75 180.95 171.1 181.3 L172.35 182.55 172.65 182.9 172.4 183.15 165.95 183.15 165.7 182.9 166.0 182.55 167.2 181.3 Q167.55 180.95 167.55 180.15 L167.55 153.85 166.0 153.85 Q165.7 153.85 165.55 154.3 L163.35 162.6 163.05 162.85 162.85 162.6 162.85 152.05 163.05 151.85 175.3 151.85 175.5 152.05 175.5 162.6 175.3 162.85 174.95 162.6 172.75 154.3 172.3 153.85 M238.85 153.45 L237.85 152.45 237.6 152.05 Q237.6 151.85 237.9 151.85 L243.5 151.85 Q243.85 151.85 243.85 152.05 L243.6 152.5 242.25 153.85 Q241.75 154.4 241.7 154.95 L238.4 182.7 238.0 183.15 236.55 183.15 Q236.3 183.15 236.2 182.8 L232.2 154.95 Q232.1 154.25 231.7 153.85 L230.3 152.5 230.05 152.05 Q230.05 151.85 230.45 151.85 L236.95 151.85 237.15 152.05 236.95 152.45 235.9 153.45 Q235.3 153.95 235.35 154.6 L237.5 169.25 237.6 169.25 239.35 154.6 Q239.4 154.05 238.85 153.45 M227.85 153.65 Q227.5 154.05 227.5 154.85 L227.5 180.15 Q227.5 180.9 227.85 181.3 L229.1 182.55 229.45 182.9 229.15 183.15 222.6 183.15 222.35 182.9 222.65 182.55 223.9 181.3 Q224.3 180.9 224.3 180.15 L224.3 154.85 Q224.3 154.05 223.9 153.65 L222.65 152.45 222.35 152.1 Q222.35 151.85 222.6 151.85 L229.15 151.85 229.45 152.1 229.1 152.45 227.85 153.65 M216.65 152.45 L215.4 153.65 Q215.05 154.05 215.05 154.85 L215.05 181.1 216.7 181.1 Q217.6 181.1 217.8 180.45 L220.4 172.35 220.65 172.05 220.85 172.35 220.85 182.55 Q220.85 183.15 220.4 183.15 L210.15 183.15 209.9 182.9 210.2 182.55 211.45 181.3 Q211.85 180.9 211.85 180.15 L211.85 154.85 Q211.85 154.05 211.45 153.65 L210.2 152.45 209.9 152.1 Q209.9 151.85 210.15 151.85 L216.7 151.85 Q217.0 151.85 217.0 152.1 L216.65 152.45 M276.05 152.8 L276.7 153.05 277.75 152.4 Q278.4 151.85 278.6 151.85 278.85 151.85 278.85 152.55 L278.85 162.6 278.65 162.85 Q278.4 162.85 278.25 162.45 277.4 159.25 276.4 157.0 275.0 153.9 273.8 153.9 272.5 153.9 272.0 157.0 271.55 159.85 271.55 166.7 271.55 175.5 271.95 178.4 272.35 181.1 273.55 181.1 275.75 181.1 275.75 175.5 L275.75 169.85 Q275.75 169.3 275.25 168.9 L274.1 167.9 273.9 167.5 Q273.9 167.25 274.2 167.25 L280.4 167.25 280.7 167.5 280.5 167.9 279.25 168.9 Q278.85 169.2 278.85 169.85 L278.85 182.95 278.65 183.15 Q278.45 183.15 278.25 182.95 L277.0 181.85 276.6 181.7 Q276.35 181.7 276.15 181.85 274.7 183.15 273.55 183.15 270.1 183.15 268.9 177.5 268.1 174.0 268.1 166.65 268.1 160.6 268.9 157.3 270.1 151.85 273.45 151.85 274.85 151.85 276.05 152.8 M265.1 153.65 Q264.7 154.2 264.7 154.85 L264.7 182.7 Q264.7 183.15 264.3 183.15 L262.55 183.15 Q261.95 183.15 261.75 182.15 L256.85 159.35 256.75 159.35 256.75 180.15 Q256.75 180.85 257.15 181.3 L258.3 182.55 258.55 182.95 258.3 183.15 252.85 183.15 252.6 182.95 252.85 182.55 253.9 181.3 254.25 180.15 254.25 154.85 253.9 153.65 252.85 152.45 252.6 152.05 Q252.6 151.85 252.85 151.85 L257.85 151.85 Q258.15 151.85 258.3 152.55 L262.2 170.5 262.25 170.5 262.25 154.85 Q262.25 154.1 261.9 153.7 L260.75 152.45 260.4 152.05 Q260.4 151.85 260.7 151.85 L266.2 151.85 Q266.45 151.85 266.45 152.05 L266.15 152.45 265.1 153.65 M251.6 152.1 L251.3 152.45 250.0 153.65 Q249.65 154.05 249.65 154.85 L249.65 180.15 Q249.65 180.9 250.0 181.3 L251.3 182.55 251.6 182.9 251.35 183.15 244.75 183.15 244.5 182.9 244.8 182.55 246.1 181.3 Q246.45 180.9 246.45 180.15 L246.45 154.85 Q246.45 154.05 246.1 153.65 L244.8 152.45 244.5 152.1 Q244.5 151.85 244.75 151.85 L251.35 151.85 251.6 152.1 M35.05 153.0 L35.85 152.45 Q36.45 151.85 36.65 151.85 36.95 151.85 36.95 152.55 L36.95 162.5 36.7 162.85 Q36.45 162.85 36.4 162.4 35.9 159.05 35.05 156.85 34.0 153.9 32.55 153.9 31.2 153.9 30.75 157.0 30.35 159.65 30.35 166.7 30.35 175.6 31.05 178.6 31.65 181.1 33.2 181.1 34.6 181.1 35.65 177.2 36.35 174.35 36.35 173.0 36.35 172.65 36.65 172.65 36.95 172.65 36.95 173.05 36.95 178.05 36.05 180.45 34.95 183.15 32.4 183.15 29.15 183.15 27.85 177.5 26.95 173.7 26.95 166.65 26.95 160.6 27.7 157.3 28.95 151.85 32.4 151.85 33.2 151.85 34.4 152.7 34.65 153.0 35.05 153.0 M39.1 166.65 Q39.1 151.85 44.7 151.85 50.3 151.85 50.3 166.65 50.3 174.15 49.35 177.85 48.05 183.15 44.7 183.15 41.35 183.15 40.05 177.85 39.1 174.15 39.1 166.65 M78.05 152.45 L77.75 152.1 Q77.75 151.85 78.0 151.85 L84.55 151.85 84.8 152.1 84.5 152.45 83.25 153.65 Q82.85 154.05 82.85 154.85 L82.85 180.15 Q82.85 180.9 83.25 181.3 L84.5 182.55 84.8 182.9 84.55 183.15 78.0 183.15 77.75 182.9 78.05 182.55 79.3 181.3 Q79.65 180.9 79.65 180.15 L79.65 154.85 Q79.65 154.05 79.3 153.65 L78.05 152.45 M72.35 153.9 L70.0 153.9 70.0 166.15 70.9 166.15 71.35 165.85 72.7 163.0 73.05 162.7 Q73.25 162.7 73.25 162.95 L73.25 171.75 73.05 172.0 72.85 171.75 71.35 168.7 Q71.25 168.35 70.9 168.35 L70.0 168.35 70.0 180.15 Q70.0 181.05 70.35 181.3 L71.9 182.55 72.2 182.9 71.95 183.15 65.1 183.15 64.85 182.9 65.1 182.55 66.35 181.3 Q66.75 180.9 66.75 180.15 L66.75 154.85 Q66.75 154.05 66.35 153.65 L65.1 152.45 64.85 152.1 Q64.85 151.85 65.1 151.85 L75.9 151.85 Q76.25 151.85 76.25 152.25 L76.25 162.65 76.05 162.85 75.7 162.6 73.45 154.7 Q73.2 153.9 72.35 153.9 M63.3 152.25 L63.3 162.65 63.1 162.85 62.8 162.6 60.55 154.7 Q60.3 153.9 59.45 153.9 L57.1 153.9 57.1 166.15 58.0 166.15 58.45 165.85 59.85 163.0 60.1 162.7 60.35 162.95 60.35 171.75 60.15 172.0 59.9 171.75 58.45 168.7 58.0 168.35 57.1 168.35 57.1 180.15 Q57.1 181.05 57.45 181.3 L59.0 182.55 59.3 182.9 59.0 183.15 52.2 183.15 51.95 182.9 52.25 182.55 53.5 181.3 Q53.85 180.9 53.85 180.15 L53.85 154.85 Q53.85 154.05 53.5 153.65 L52.25 152.45 51.95 152.1 Q51.95 151.85 52.2 151.85 L63.0 151.85 Q63.3 151.85 63.3 152.25 M44.7 153.9 Q42.55 153.9 42.55 166.7 42.55 181.1 44.7 181.1 46.85 181.1 46.85 166.7 46.85 153.9 44.7 153.9 M117.5 151.85 L128.35 151.85 Q128.65 151.85 128.65 152.25 L128.65 162.65 128.45 162.85 128.15 162.6 125.85 154.7 Q125.6 153.9 124.75 153.9 L122.4 153.9 122.4 166.15 123.3 166.15 123.75 165.85 125.15 163.0 125.45 162.7 125.65 162.95 125.65 171.75 125.5 172.0 125.25 171.75 123.75 168.7 123.3 168.35 122.4 168.35 122.4 180.15 Q122.4 181.05 122.75 181.3 L124.3 182.55 124.6 182.9 124.35 183.15 117.5 183.15 117.25 182.9 117.55 182.55 118.8 181.3 Q119.2 180.9 119.2 180.15 L119.2 154.85 Q119.2 154.05 118.8 153.65 L117.55 152.45 117.25 152.1 Q117.25 151.85 117.5 151.85 M108.9 152.4 Q109.55 151.85 109.8 151.85 L110.05 152.3 110.05 162.65 109.85 162.85 109.6 162.6 Q109.0 159.55 107.75 157.0 106.3 153.9 105.0 153.9 104.25 153.9 104.0 154.45 103.85 154.9 103.85 155.9 103.85 157.5 104.55 159.55 105.3 161.8 107.5 166.55 109.65 171.1 110.25 173.05 110.75 174.85 110.75 177.4 110.75 180.35 109.45 181.9 108.35 183.15 106.9 183.15 105.8 183.15 104.6 182.35 L103.75 181.9 Q103.7 181.9 102.4 182.85 L101.9 183.15 101.7 182.95 101.7 172.4 101.9 172.15 102.15 172.4 Q104.05 181.1 106.65 181.1 107.85 181.1 107.85 178.85 107.85 176.9 106.95 174.3 106.2 172.15 104.25 168.05 102.55 164.55 101.85 161.9 101.15 159.4 101.15 157.05 101.15 151.85 105.0 151.85 106.05 151.85 107.35 152.8 L107.95 153.05 108.9 152.4 M99.35 152.45 L98.3 153.65 Q97.95 154.25 97.95 154.85 L97.95 182.7 97.5 183.15 95.8 183.15 Q95.15 183.15 94.95 182.15 L90.05 159.35 89.95 159.35 89.95 180.15 Q89.95 180.85 90.35 181.3 L91.5 182.55 91.8 182.95 91.55 183.15 86.05 183.15 85.8 182.95 86.05 182.55 87.1 181.3 Q87.5 180.8 87.5 180.15 L87.5 154.85 Q87.5 154.2 87.1 153.65 L86.05 152.45 85.8 152.05 Q85.8 151.85 86.05 151.85 L91.05 151.85 Q91.35 151.85 91.55 152.55 L95.4 170.5 95.45 170.5 95.45 154.85 Q95.45 154.1 95.1 153.7 L93.95 152.45 93.65 152.05 Q93.65 151.85 93.9 151.85 L99.4 151.85 Q99.65 151.85 99.65 152.05 L99.35 152.45 M155.7 159.55 Q155.7 165.05 152.6 167.0 153.8 167.65 154.5 168.75 155.3 170.05 155.3 171.65 L155.3 180.4 Q155.3 180.7 155.65 181.15 L157.0 182.55 157.35 183.0 156.9 183.15 154.75 183.15 Q153.4 183.15 152.7 182.35 152.05 181.65 152.05 180.5 L152.05 171.5 Q152.05 170.15 151.35 169.2 150.55 168.3 149.5 168.3 L148.75 168.3 148.75 180.15 Q148.75 180.9 149.15 181.3 L150.4 182.55 150.7 182.9 150.45 183.15 143.9 183.15 143.6 182.9 143.95 182.55 145.2 181.3 Q145.55 180.9 145.55 180.15 L145.55 154.85 Q145.55 154.05 145.2 153.65 L143.95 152.45 143.6 152.1 Q143.6 151.85 143.9 151.85 L149.1 151.85 Q152.4 151.85 154.05 153.65 155.7 155.55 155.7 159.55 M148.75 153.9 L148.75 166.2 149.4 166.2 Q150.95 166.2 151.6 164.75 152.3 163.25 152.3 159.55 152.3 156.45 151.6 155.15 150.95 153.9 149.4 153.9 L148.75 153.9 M134.25 166.7 Q134.25 181.1 136.35 181.1 138.55 181.1 138.55 166.7 138.55 153.9 136.35 153.9 134.25 153.9 134.25 166.7 M136.35 151.85 Q142.0 151.85 142.0 166.65 142.0 174.2 141.05 177.85 139.75 183.15 136.35 183.15 133.05 183.15 131.75 177.85 130.8 174.15 130.8 166.65 130.8 151.85 136.35 151.85" fill="#db9e00" fill-rule="evenodd" stroke="none"/>
    </g>
    <radialGradient cx="0" cy="0" gradientTransform="matrix(0.1166, 0.0, 0.0, -0.1166, 146.9, 51.55)" gradientUnits="userSpaceOnUse" id="gradient0" r="819.2" spreadMethod="pad">
      <stop offset="0.0" stop-color="#574033"/>
      <stop offset="1.0" stop-color="#21140d"/>
    </radialGradient>
  </defs>
</svg>
