<?xml version="1.0" encoding="UTF-8" standalone="no"?>
<svg xmlns:xlink="http://www.w3.org/1999/xlink" height="300.0px" width="300.0px" xmlns="http://www.w3.org/2000/svg">
  <g transform="matrix(1.0, 0.0, 0.0, 1.0, 0.0, 0.0)">
    <use height="187.7" transform="matrix(1.0, 0.0, 0.0, 1.0, 7.85, 70.6)" width="282.35" xlink:href="#shape0"/>
  </g>
  <defs>
    <g id="shape0" transform="matrix(1.0, 0.0, 0.0, 1.0, -7.85, -70.6)">
      <path d="M243.4 238.75 Q245.5 240.5 244.45 244.2 243.25 248.55 238.2 252.7 L240.8 255.15 Q244.45 257.6 249.55 257.65 254.6 257.55 258.7 254.2 263.3 250.5 264.95 244.1 262.2 244.4 258.7 243.3 257.5 247.3 254.95 249.4 251.55 252.35 246.1 251.55 247.9 249.65 249.3 246.45 251.6 241.35 250.2 236.9 248.85 232.4 244.65 230.3 240.2 228.0 236.1 230.7 233.85 232.0 233.0 234.7 232.05 237.7 233.75 240.35 235.35 242.75 238.5 242.4 241.8 242.0 243.4 238.75 M254.25 234.65 Q252.55 235.7 253.65 238.0 254.75 240.35 256.65 241.6 257.6 242.25 258.3 242.35 258.95 238.75 257.65 236.6 256.0 233.6 254.25 234.65 M274.9 228.05 Q270.65 230.7 266.85 230.0 266.35 232.6 266.3 235.9 L265.95 242.65 Q271.05 241.6 273.65 236.3 275.9 231.65 274.9 228.05 M275.5 226.25 Q276.7 225.6 278.25 223.55 279.9 221.45 280.15 220.0 275.2 219.15 272.3 221.25 274.2 223.0 275.5 226.25 M267.0 229.25 L270.55 229.15 Q272.8 228.6 274.7 227.05 274.05 224.0 271.45 221.8 268.1 223.65 267.0 229.25 M270.15 220.95 Q267.75 219.1 264.95 219.8 262.45 220.45 261.95 222.15 260.95 224.95 262.9 227.15 264.3 228.65 266.1 229.2 266.7 226.15 267.75 224.15 268.65 222.45 270.15 220.95 M31.15 230.0 Q27.4 230.7 23.1 228.05 22.2 231.65 24.4 236.3 27.05 241.6 32.1 242.65 L31.75 235.9 Q31.7 232.1 31.15 230.0 M31.95 229.2 Q33.75 228.65 35.15 227.15 37.1 224.95 36.1 222.15 35.55 220.45 33.1 219.8 30.3 219.1 27.9 220.95 29.4 222.45 30.3 224.15 31.35 226.15 31.95 229.2 M26.6 221.8 Q25.0 223.2 24.0 225.25 L23.35 227.05 Q25.3 228.6 27.45 229.15 L31.05 229.25 Q29.95 223.65 26.6 221.8 M25.75 221.25 Q24.45 220.3 22.4 219.95 20.3 219.6 17.9 220.0 18.15 221.45 19.75 223.55 21.35 225.6 22.55 226.25 23.85 223.0 25.75 221.25 M63.1 247.35 Q62.65 250.2 61.5 252.0 62.85 253.25 65.55 254.05 69.05 254.95 73.75 254.7 L224.3 254.7 232.5 254.05 Q235.2 253.25 236.55 252.0 235.4 250.2 234.9 247.35 L63.1 247.35 M43.8 234.65 Q42.05 233.6 40.4 236.6 39.1 238.75 39.75 242.35 40.45 242.25 41.4 241.6 43.25 240.35 44.4 238.0 45.5 235.7 43.8 234.65 M54.65 238.75 Q56.25 242.0 59.55 242.4 62.7 242.75 64.3 240.35 66.0 237.7 65.05 234.7 64.2 232.0 61.95 230.7 57.85 228.0 53.35 230.3 49.2 232.4 47.85 236.9 46.45 241.35 48.75 246.45 50.2 249.75 52.0 251.55 46.55 252.35 43.1 249.4 40.55 247.3 39.35 243.3 35.85 244.4 33.1 244.1 34.75 250.5 39.35 254.2 43.45 257.55 48.5 257.65 53.65 257.6 57.3 255.15 L59.9 252.7 Q54.8 248.55 53.6 244.2 52.55 240.5 54.65 238.75 M28.95 207.35 Q29.65 204.75 27.15 203.45 L22.65 203.3 Q19.75 204.15 18.85 206.55 L20.15 208.45 Q22.05 210.35 25.1 210.15 28.3 209.9 28.95 207.35 M16.85 128.9 Q16.85 125.05 17.8 122.75 16.9 121.75 16.15 119.7 14.7 115.6 15.7 110.35 10.4 108.2 9.3 107.0 L9.3 221.9 Q10.4 220.75 15.7 218.55 14.7 213.35 16.15 209.2 L17.8 206.15 Q16.85 203.85 16.85 200.0 L16.85 128.9 M25.1 118.75 Q22.05 118.65 20.15 120.45 19.2 121.4 18.85 122.35 19.75 124.75 22.65 125.65 L27.15 125.45 Q29.65 124.15 28.95 121.6 28.3 119.0 25.1 118.75 M44.4 90.9 Q43.25 88.55 41.4 87.35 L39.75 86.6 Q39.1 90.15 40.4 92.35 42.05 95.4 43.8 94.35 45.5 93.25 44.4 90.9 M31.95 99.75 Q31.35 102.8 30.3 104.8 29.4 106.5 27.9 107.95 30.3 109.85 33.1 109.15 35.55 108.5 36.1 106.8 37.1 104.0 35.15 101.8 33.75 100.25 31.95 99.75 M23.35 101.85 L24.0 103.65 Q25.0 105.7 26.6 107.15 29.95 105.25 31.05 99.65 L27.45 99.8 Q25.3 100.3 23.35 101.85 M22.55 102.65 Q21.35 103.3 19.75 105.35 18.15 107.5 17.9 108.9 22.85 109.8 25.75 107.65 24.55 106.55 23.4 104.5 L22.55 102.65 M31.75 93.05 L32.1 86.3 Q27.05 87.35 24.4 92.65 22.2 97.25 23.1 100.85 27.4 98.2 31.15 98.9 31.7 96.8 31.75 93.05 M39.35 74.7 Q34.75 78.4 33.1 84.8 35.85 84.5 39.35 85.65 40.55 81.65 43.1 79.55 46.55 76.6 52.0 77.35 50.2 79.2 48.75 82.45 46.45 87.55 47.85 92.05 49.2 96.5 53.35 98.6 57.85 100.9 61.95 98.2 64.2 96.95 65.05 94.2 66.0 91.2 64.3 88.55 62.7 86.15 59.55 86.6 56.25 86.95 54.65 90.15 52.55 88.45 53.6 84.7 54.8 80.35 59.9 76.25 59.15 75.0 57.3 73.75 53.65 71.3 48.5 71.25 43.45 71.35 39.35 74.7 M270.85 203.45 Q268.45 204.75 269.1 207.35 269.8 209.9 272.9 210.15 276.05 210.35 277.9 208.45 278.85 207.55 279.2 206.55 278.25 204.15 275.4 203.3 L270.85 203.45 M280.25 122.75 Q281.2 125.05 281.2 128.9 L281.2 200.0 Q281.2 203.85 280.25 206.15 L281.9 209.2 Q283.4 213.35 282.3 218.55 287.65 220.75 288.7 221.9 L288.7 107.0 Q287.65 108.2 282.3 110.35 283.4 115.6 281.9 119.7 281.2 121.75 280.25 122.75 M277.9 120.45 Q276.05 118.65 272.9 118.75 269.8 119.0 269.1 121.6 268.45 124.15 270.85 125.45 L275.4 125.65 Q278.25 124.75 279.2 122.35 278.85 121.4 277.9 120.45 M236.55 76.95 Q235.2 75.65 232.5 74.95 229.0 73.95 224.3 74.3 L73.75 74.3 Q69.05 73.95 65.55 74.95 62.85 75.65 61.5 76.95 62.65 78.7 63.1 81.6 L234.9 81.6 Q235.4 78.7 236.55 76.95 M280.15 108.9 Q279.9 107.5 278.25 105.35 276.7 103.3 275.5 102.65 274.2 105.9 272.3 107.65 275.2 109.8 280.15 108.9 M270.55 99.8 L267.0 99.65 Q268.1 105.25 271.45 107.15 274.05 104.9 274.7 101.85 272.8 100.3 270.55 99.8 M267.75 104.8 Q266.7 102.8 266.1 99.75 264.3 100.25 262.9 101.8 260.95 104.0 261.95 106.8 262.45 108.5 264.95 109.15 267.75 109.85 270.15 107.95 268.65 106.5 267.75 104.8 M265.95 86.3 L266.3 93.05 Q266.35 96.35 266.85 98.9 270.65 98.2 274.9 100.85 275.9 97.25 273.65 92.65 271.05 87.35 265.95 86.3 M256.65 87.35 Q254.75 88.55 253.65 90.9 252.55 93.25 254.25 94.35 256.0 95.4 257.65 92.35 258.95 90.15 258.3 86.6 257.6 86.75 256.65 87.35 M249.95 70.6 Q255.15 70.95 259.1 74.25 263.65 78.0 265.7 84.8 269.45 84.95 272.9 88.75 277.5 93.7 275.7 101.45 279.95 104.1 281.75 108.6 283.9 108.05 286.45 106.6 289.3 104.9 290.2 103.3 L290.2 225.6 Q289.3 224.0 286.45 222.35 283.9 220.85 281.75 220.3 279.95 224.85 275.7 227.5 277.5 235.25 272.9 240.25 269.45 244.0 265.7 244.1 263.65 251.0 259.1 254.7 255.15 257.95 249.95 258.3 245.45 258.5 241.6 256.55 238.7 255.1 237.5 253.2 235.4 254.7 232.95 255.3 L224.55 255.95 73.5 255.95 65.1 255.3 Q62.65 254.7 60.55 253.2 59.35 255.1 56.4 256.55 52.6 258.5 48.1 258.3 42.9 257.95 38.9 254.7 34.45 250.9 32.35 244.1 28.6 244.0 25.1 240.25 20.55 235.25 22.35 227.5 18.05 224.85 16.3 220.3 14.15 220.85 11.6 222.35 8.75 224.0 7.85 225.6 L7.85 103.3 Q8.75 104.9 11.6 106.6 14.15 108.05 16.3 108.6 18.05 104.1 22.35 101.45 20.55 93.7 25.1 88.75 28.6 84.95 32.35 84.8 34.45 78.0 38.9 74.25 42.9 70.95 48.1 70.6 52.6 70.4 56.4 72.35 59.35 73.85 60.55 75.7 62.65 74.25 65.1 73.6 68.5 72.65 73.5 72.95 L224.55 72.95 232.95 73.6 Q235.4 74.25 237.5 75.7 238.7 73.85 241.6 72.35 245.45 70.4 249.95 70.6 M255.55 81.4 Q252.3 78.3 247.85 78.8 250.1 81.25 250.95 85.7 252.0 91.25 249.1 95.2 246.75 99.05 242.45 99.9 237.8 100.85 234.45 97.45 232.2 95.2 232.2 92.05 232.2 89.0 234.2 87.15 236.0 85.35 238.75 85.4 241.5 85.45 243.3 87.5 244.2 86.4 242.25 82.75 240.25 78.95 237.5 77.3 237.0 77.7 236.45 79.65 235.8 81.7 235.85 83.15 L62.2 83.15 Q62.25 81.7 61.65 79.65 61.05 77.7 60.55 77.3 57.8 78.95 55.8 82.75 53.85 86.45 54.8 87.5 56.55 85.45 59.35 85.4 62.1 85.35 63.9 87.15 65.8 89.0 65.8 92.05 65.8 95.2 63.6 97.45 60.25 100.85 55.6 99.9 51.3 99.05 48.95 95.2 46.05 91.25 47.1 85.7 47.95 81.25 50.2 78.8 45.75 78.3 42.5 81.4 40.05 83.85 39.9 85.95 42.8 87.45 44.15 89.55 45.55 92.0 44.9 93.55 44.3 95.0 42.85 94.85 40.55 94.7 39.65 91.55 38.85 89.2 39.1 86.45 L35.45 85.8 32.75 86.1 32.6 87.85 32.35 91.85 Q32.35 96.1 32.0 99.15 34.2 99.65 35.75 101.6 37.75 104.1 36.5 107.15 35.75 109.0 33.3 109.6 30.4 110.3 27.35 108.45 25.65 109.85 23.95 110.3 L17.4 110.55 Q16.55 112.9 16.85 116.65 17.05 120.3 18.25 121.65 20.65 117.7 25.45 118.25 28.25 118.55 29.4 120.9 30.65 123.3 28.45 125.2 26.8 126.6 24.1 126.5 20.9 126.4 18.65 123.75 18.4 123.75 18.15 124.85 17.8 126.1 17.8 127.4 L17.8 201.5 Q17.8 202.8 18.15 204.05 18.4 205.15 18.65 205.15 20.9 202.5 24.1 202.4 26.8 202.35 28.45 203.7 30.65 205.65 29.4 208.1 28.25 210.4 25.45 210.7 20.65 211.2 18.25 207.3 17.05 208.65 16.85 212.35 16.55 216.05 17.4 218.4 L23.95 218.6 Q25.65 219.1 27.35 220.5 30.4 218.6 33.3 219.3 35.75 219.9 36.5 221.8 37.75 224.85 35.75 227.3 34.2 229.25 32.0 229.75 32.35 232.85 32.35 237.05 32.35 240.0 32.75 242.8 L35.45 243.1 39.1 242.45 Q38.85 239.7 39.65 237.35 40.55 234.25 42.85 234.05 44.3 233.95 44.9 235.35 45.55 236.95 44.15 239.35 42.8 241.45 39.9 243.0 40.05 245.05 42.5 247.5 45.75 250.6 50.2 250.1 47.95 247.7 47.1 243.2 46.05 237.65 48.95 233.7 51.3 229.9 55.6 229.0 60.25 228.05 63.6 231.5 65.8 233.7 65.8 236.9 65.8 239.95 63.9 241.75 62.1 243.6 59.35 243.5 56.55 243.45 54.8 241.4 53.85 242.45 55.8 246.15 57.8 250.0 60.55 251.6 61.05 251.2 61.65 249.25 62.25 247.2 62.2 245.75 L235.85 245.75 Q235.8 247.2 236.45 249.25 237.0 251.2 237.5 251.6 240.25 250.0 242.25 246.15 244.2 242.5 243.3 241.4 241.5 243.45 238.75 243.5 236.0 243.6 234.2 241.75 232.2 240.0 232.2 236.9 232.2 233.7 234.45 231.5 237.8 228.05 242.45 229.0 246.75 229.9 249.1 233.7 252.0 237.65 250.95 243.2 250.1 247.7 247.85 250.1 252.3 250.6 255.55 247.5 258.0 245.05 258.1 243.0 255.25 241.45 253.95 239.35 252.5 236.95 253.2 235.35 253.7 233.95 255.2 234.05 257.5 234.25 258.4 237.35 259.2 239.7 258.95 242.45 L262.6 243.1 265.3 242.8 Q265.7 240.0 265.7 237.05 265.7 232.85 266.05 229.75 263.8 229.25 262.3 227.3 260.3 224.85 261.55 221.8 262.35 219.9 264.8 219.3 267.65 218.6 270.7 220.5 272.4 219.1 274.1 218.6 L280.6 218.4 Q281.5 216.05 281.2 212.35 280.95 208.65 279.8 207.3 277.4 211.2 272.55 210.7 269.8 210.4 268.65 208.1 267.4 205.65 269.6 203.7 271.2 202.35 273.9 202.4 277.15 202.5 279.4 205.15 L279.9 204.05 280.25 201.5 280.25 127.4 Q280.25 126.1 279.9 124.85 L279.4 123.75 Q277.15 126.4 273.9 126.5 271.2 126.6 269.6 125.2 267.4 123.3 268.65 120.9 269.8 118.55 272.55 118.25 277.4 117.7 279.8 121.65 280.95 120.3 281.2 116.65 281.5 112.9 280.6 110.55 L274.1 110.3 Q272.4 109.85 270.7 108.45 267.65 110.3 264.8 109.6 262.35 109.0 261.55 107.15 260.3 104.1 262.3 101.6 263.8 99.65 266.05 99.15 265.7 96.1 265.7 91.85 L265.5 87.85 265.3 86.1 262.6 85.8 258.95 86.45 Q259.2 89.2 258.4 91.55 257.5 94.7 255.2 94.85 253.7 95.0 253.2 93.55 252.5 92.0 253.95 89.55 255.25 87.45 258.1 85.95 258.0 83.85 255.55 81.4 M249.3 82.45 Q247.9 79.3 246.1 77.35 251.55 76.6 254.95 79.55 257.5 81.65 258.7 85.65 262.2 84.5 264.95 84.8 263.3 78.4 258.7 74.7 254.6 71.35 249.55 71.25 244.45 71.3 240.8 73.75 L238.2 76.25 Q243.25 80.35 244.45 84.7 245.5 88.45 243.4 90.15 241.8 86.95 238.5 86.6 235.35 86.15 233.75 88.55 232.05 91.2 233.0 94.2 233.85 96.95 236.1 98.2 240.2 100.9 244.65 98.6 248.85 96.5 250.2 92.05 251.6 87.55 249.3 82.45" fill="#000000" fill-rule="evenodd" stroke="none"/>
      <path d="M164.8 204.85 L164.6 206.55 164.15 208.3 163.4 210.25 162.8 211.8 164.05 211.75 165.65 211.65 167.05 211.8 Q167.7 211.9 168.15 212.35 L165.25 212.75 162.4 213.2 161.95 214.85 161.45 216.5 161.05 218.25 160.85 220.3 160.9 221.25 161.1 222.05 Q161.35 222.85 161.95 222.85 L162.65 222.3 163.55 221.05 164.45 219.05 164.8 217.25 164.8 216.65 164.7 216.1 Q165.4 216.6 165.4 218.0 L165.3 219.15 164.95 220.3 164.25 221.65 162.9 223.25 Q162.1 223.95 161.2 223.95 160.3 223.95 159.65 223.45 159.2 223.05 159.1 222.5 158.95 221.95 158.95 221.25 158.95 218.95 159.55 217.0 L160.7 213.15 159.65 213.0 158.8 212.75 158.45 214.55 158.1 216.85 157.85 219.2 157.7 221.35 Q157.7 222.4 157.95 223.25 158.2 224.15 159.05 224.65 L158.2 224.85 157.35 224.55 156.75 223.7 156.35 222.65 156.1 221.7 155.55 222.4 154.75 223.1 153.75 223.65 152.8 223.85 151.65 223.6 150.95 222.85 Q150.65 222.45 150.55 221.85 L150.45 220.7 150.65 219.05 151.3 216.4 152.35 213.8 Q152.9 212.5 153.75 211.5 154.2 211.95 154.25 212.6 L153.5 214.75 152.8 217.1 152.3 219.2 Q152.15 220.25 152.15 221.25 L152.35 222.5 Q152.6 223.1 153.25 223.25 L154.65 221.6 155.65 219.55 156.25 217.65 156.65 215.7 156.9 213.95 157.1 212.5 158.15 212.35 157.85 212.1 Q157.55 211.75 157.55 211.3 L158.35 211.5 159.35 211.65 160.3 211.8 161.05 211.8 162.05 209.75 162.85 207.75 Q163.9 205.4 164.4 203.1 164.8 203.85 164.8 204.85 M174.85 210.85 L175.4 210.85 175.85 210.9 173.7 216.35 171.75 221.95 171.05 224.15 170.55 226.15 170.2 228.15 170.0 230.1 Q170.0 230.4 170.15 230.4 L170.55 230.1 171.05 229.3 171.65 228.35 172.1 227.45 171.8 228.65 171.25 229.95 170.6 231.0 169.95 231.45 Q169.2 231.45 168.9 230.9 168.6 230.4 168.6 229.65 168.6 228.1 169.05 225.95 L169.65 223.7 Q169.95 222.55 170.4 221.55 L169.8 222.35 169.0 223.25 168.1 223.9 167.2 224.2 Q166.3 224.2 165.95 223.6 165.55 223.0 165.55 222.15 165.55 221.15 165.95 220.05 L166.9 217.9 168.15 215.7 169.25 213.6 170.05 211.55 170.4 213.6 170.25 214.8 169.95 215.85 169.05 217.5 168.05 219.1 167.25 220.7 Q166.95 221.5 166.95 222.4 L167.05 222.85 167.3 223.0 167.95 222.6 168.95 221.65 169.95 220.6 170.65 219.75 171.5 217.5 172.45 214.95 173.45 212.6 174.2 210.85 174.85 210.85 M179.1 207.65 Q179.65 206.9 180.55 206.4 181.45 205.9 182.55 205.55 L184.7 205.05 186.65 204.8 188.1 204.7 191.5 205.0 Q193.25 205.3 194.7 205.95 196.2 206.6 197.15 207.7 198.15 208.8 198.15 210.4 198.15 211.15 197.6 212.0 197.1 212.8 195.65 213.5 L192.3 214.6 186.7 215.4 185.9 218.1 185.1 220.85 184.4 223.55 183.9 226.1 Q183.65 225.55 183.65 224.5 L183.85 222.2 184.25 219.7 184.75 217.3 185.3 215.6 184.05 215.7 181.25 215.35 182.25 215.2 183.4 215.0 184.6 214.85 185.55 214.7 Q186.65 211.5 187.7 209.4 L189.35 206.3 188.85 208.4 188.2 210.7 187.5 212.8 187.05 214.4 188.65 214.0 190.55 213.5 192.55 212.85 194.4 212.1 196.2 210.9 Q196.9 210.3 196.9 209.65 196.9 208.9 196.4 208.3 195.85 207.7 195.0 207.2 194.15 206.8 193.1 206.45 L191.1 205.9 189.3 205.6 188.05 205.55 185.7 205.7 183.05 206.45 Q181.75 206.95 180.7 207.85 179.7 208.8 179.45 210.2 L179.4 210.45 Q178.55 210.45 178.55 209.35 178.55 208.4 179.1 207.65 M204.1 212.35 Q204.9 212.8 205.05 213.45 L204.1 215.25 203.15 217.3 202.5 219.2 Q202.2 220.1 202.2 220.75 202.2 221.85 202.8 222.8 203.4 223.75 204.65 223.75 L204.15 224.1 203.5 224.2 Q202.0 224.2 201.4 223.45 200.85 222.65 200.85 221.5 L200.95 220.25 200.5 220.8 199.55 222.05 Q199.0 222.75 198.25 223.25 197.5 223.8 196.7 223.8 L195.85 223.55 195.3 222.9 194.95 222.0 194.85 221.05 Q194.85 219.7 195.5 218.3 196.2 216.9 197.2 215.65 L199.7 213.25 Q201.1 212.25 202.45 211.65 203.35 211.85 204.1 212.35 M207.4 212.95 L207.55 214.2 207.45 215.45 Q208.1 214.25 209.1 213.25 210.05 212.25 211.25 211.75 212.4 211.15 213.7 211.15 L214.7 211.3 215.25 209.45 216.9 204.05 218.05 199.25 Q218.6 200.55 218.6 202.0 L218.55 202.95 218.45 203.9 217.85 206.35 216.8 210.25 215.85 213.9 215.2 216.75 215.05 217.85 214.85 219.35 214.65 220.95 214.6 222.3 Q214.6 223.4 214.85 223.4 L215.4 223.2 215.95 222.7 216.45 222.1 216.8 221.65 Q216.65 222.7 216.0 223.35 215.35 224.05 214.6 224.05 213.55 224.05 213.15 223.45 212.75 222.8 212.75 221.55 L212.85 219.95 213.15 217.85 214.05 213.65 214.7 211.35 Q213.2 211.65 212.0 212.5 210.85 213.3 209.9 214.45 L208.7 216.4 Q208.15 217.4 207.75 218.5 L207.05 220.85 206.6 223.3 206.55 223.7 206.5 224.05 Q206.5 224.4 206.65 224.5 L206.3 224.6 Q205.7 224.6 205.45 223.85 L205.25 222.1 205.4 219.95 205.8 217.55 206.35 214.8 206.95 212.15 207.4 212.95 M238.55 211.3 Q237.0 211.65 235.8 212.5 234.65 213.3 233.7 214.45 L232.5 216.4 Q231.95 217.4 231.55 218.5 L230.85 220.85 Q230.55 222.1 230.4 223.3 L230.35 223.7 230.3 224.05 230.45 224.5 230.1 224.6 Q229.5 224.6 229.25 223.85 L229.05 222.1 229.2 219.95 229.6 217.55 230.15 214.8 230.75 212.15 231.2 212.95 231.35 214.2 231.25 215.45 Q231.9 214.25 232.9 213.25 233.85 212.25 235.05 211.75 236.2 211.15 237.5 211.15 L238.55 211.3 M225.25 211.95 Q226.15 212.35 226.8 213.0 L227.8 214.55 Q228.15 215.4 228.15 216.4 228.15 217.7 227.55 219.0 L226.05 221.35 Q225.0 222.5 223.7 223.2 222.35 223.9 221.0 223.9 219.1 223.9 218.1 222.85 217.1 221.75 217.1 220.0 217.1 218.6 217.9 216.8 218.7 215.0 220.05 213.45 220.75 212.6 221.6 212.1 222.4 211.55 223.3 211.55 L225.25 211.95 M58.8 206.4 Q59.7 205.9 60.8 205.55 L62.95 205.05 64.9 204.8 66.35 204.7 69.75 205.0 Q71.5 205.3 72.95 205.95 74.45 206.6 75.4 207.7 76.4 208.8 76.4 210.4 76.4 211.15 75.85 212.0 75.35 212.8 73.9 213.5 L70.55 214.6 64.95 215.4 64.15 218.1 63.35 220.85 62.65 223.55 62.15 226.1 Q61.9 225.55 61.9 224.5 L62.1 222.2 62.5 219.7 63.0 217.3 63.55 215.6 62.3 215.7 59.5 215.35 60.5 215.2 61.65 215.0 62.85 214.85 63.8 214.7 Q64.9 211.5 65.95 209.4 L67.6 206.3 67.1 208.4 66.45 210.7 65.75 212.8 65.3 214.4 66.9 214.0 68.8 213.5 70.8 212.85 72.65 212.1 74.45 210.9 Q75.15 210.3 75.15 209.65 75.15 208.9 74.65 208.3 74.1 207.7 73.25 207.2 L71.35 206.45 Q70.35 206.1 69.35 205.9 L67.55 205.6 66.3 205.55 63.95 205.7 Q62.6 205.95 61.3 206.45 60.0 206.95 58.95 207.85 57.95 208.8 57.7 210.2 L57.65 210.45 Q56.8 210.45 56.8 209.35 56.8 208.4 57.35 207.65 57.9 206.9 58.8 206.4 M82.35 212.35 Q83.15 212.8 83.3 213.45 L82.35 215.25 81.4 217.3 80.75 219.2 Q80.45 220.1 80.45 220.75 80.45 221.85 81.05 222.8 81.4 223.4 82.05 223.65 L82.2 223.55 82.15 223.65 82.9 223.75 82.4 224.1 82.0 224.2 Q82.05 224.4 82.5 224.4 L83.55 224.25 84.9 223.9 86.4 223.35 87.75 222.75 86.7 221.95 85.55 220.75 84.45 219.1 Q84.05 218.25 84.05 217.25 L84.25 216.15 84.8 215.0 85.6 213.85 86.6 212.85 Q87.2 212.4 87.9 212.1 L89.1 211.8 89.0 211.3 89.8 211.5 90.8 211.65 91.75 211.8 92.5 211.8 93.5 209.75 94.3 207.75 Q95.35 205.4 95.85 203.1 96.25 203.85 96.25 204.85 L96.05 206.55 95.6 208.3 94.85 210.25 94.25 211.8 95.5 211.75 97.1 211.65 98.5 211.8 Q99.15 211.9 99.6 212.35 L96.7 212.75 93.85 213.2 93.4 214.85 92.9 216.5 92.5 218.25 92.3 220.3 92.35 221.25 92.55 222.05 Q92.8 222.85 93.4 222.85 L94.1 222.3 95.0 221.05 95.9 219.05 96.25 217.25 96.25 216.65 96.15 216.1 Q96.85 216.6 96.85 218.0 L96.75 219.15 96.4 220.3 95.7 221.65 94.35 223.25 Q93.55 223.95 92.65 223.95 91.75 223.95 91.1 223.45 90.65 223.05 90.55 222.5 90.4 221.95 90.4 221.25 90.4 218.95 91.0 217.0 L92.15 213.15 91.1 213.0 89.4 213.25 Q88.5 213.55 87.65 214.15 86.6 214.8 85.85 215.8 85.1 216.75 85.1 217.85 85.1 218.45 85.55 219.05 L86.7 220.45 88.35 222.05 89.75 223.35 87.9 224.45 85.6 225.3 84.0 225.65 82.75 225.75 81.75 225.4 Q81.35 225.05 81.35 224.6 L81.45 224.2 Q80.2 224.1 79.65 223.45 79.1 222.65 79.1 221.5 L79.2 220.25 78.75 220.8 77.8 222.05 76.5 223.25 Q75.75 223.8 74.95 223.8 L74.1 223.55 73.55 222.9 73.2 222.0 73.1 221.05 Q73.1 219.7 73.75 218.3 74.45 216.9 75.45 215.65 76.6 214.3 77.95 213.25 79.35 212.25 80.7 211.65 81.6 211.85 82.35 212.35 M106.3 212.35 Q107.1 212.8 107.25 213.45 L106.3 215.25 105.35 217.3 104.7 219.2 Q104.4 220.1 104.4 220.75 104.4 221.85 105.0 222.8 105.6 223.75 106.85 223.75 L106.35 224.1 105.7 224.2 Q104.2 224.2 103.6 223.45 103.05 222.65 103.05 221.5 L103.15 220.25 102.7 220.8 101.75 222.05 Q101.2 222.75 100.45 223.25 99.7 223.8 98.9 223.8 L98.05 223.55 97.5 222.9 97.15 222.0 97.05 221.05 Q97.05 219.7 97.7 218.3 98.4 216.9 99.4 215.65 L101.9 213.25 Q103.3 212.25 104.65 211.65 105.55 211.85 106.3 212.35 M119.45 205.65 L118.3 205.8 117.1 206.05 116.05 206.3 116.85 205.7 118.1 205.2 119.45 204.9 120.7 204.8 120.9 204.5 121.0 204.2 121.05 204.55 121.1 204.8 123.85 205.05 126.4 205.8 128.2 207.05 Q128.9 207.75 128.9 208.6 128.9 209.65 128.05 210.4 127.25 211.15 125.95 211.65 L124.2 212.2 122.45 212.6 120.85 212.9 119.65 213.15 121.4 213.3 123.45 213.65 125.5 214.3 127.35 215.2 Q128.2 215.75 128.7 216.45 129.2 217.15 129.2 218.1 129.2 219.15 128.2 220.0 127.25 220.8 125.7 221.5 L122.95 222.45 120.0 223.15 117.2 223.55 114.9 223.7 115.5 220.45 116.05 217.85 117.05 214.5 118.1 211.15 119.25 208.05 120.3 205.55 119.45 205.65 M118.95 212.1 L120.2 211.95 121.75 211.6 123.45 211.15 125.1 210.5 126.5 209.45 Q127.1 208.9 127.1 208.2 127.1 207.7 126.55 207.25 L125.15 206.4 123.25 205.8 121.2 205.55 120.85 206.35 120.25 208.1 119.55 210.2 118.95 212.1 M137.2 211.8 L138.35 212.25 139.25 212.95 139.75 214.05 138.95 215.7 137.55 217.35 135.75 218.55 Q134.75 219.05 133.8 219.05 L132.85 218.85 132.2 218.4 131.75 219.35 Q131.45 220.15 131.45 221.0 131.45 222.0 132.1 222.4 132.75 222.85 133.6 222.85 L135.7 222.3 Q136.95 221.75 138.2 220.8 L140.0 219.1 140.85 218.05 141.3 217.25 141.35 217.1 141.35 217.15 Q141.8 216.35 142.4 215.65 143.55 214.3 144.9 213.25 146.3 212.25 147.65 211.65 148.55 211.85 149.3 212.35 150.1 212.8 150.25 213.45 L149.3 215.25 148.35 217.3 147.7 219.2 Q147.4 220.1 147.4 220.75 147.4 221.85 148.0 222.8 148.6 223.75 149.85 223.75 L149.35 224.1 148.7 224.2 Q147.2 224.2 146.6 223.45 146.05 222.65 146.05 221.5 L146.15 220.25 145.7 220.8 144.75 222.05 143.45 223.25 Q142.7 223.8 141.9 223.8 L141.05 223.55 140.5 222.9 140.15 222.0 140.05 221.05 140.15 220.05 138.7 221.65 136.1 223.3 133.7 223.85 131.95 223.55 130.8 222.7 130.2 221.5 130.0 220.1 Q130.0 218.6 130.8 217.0 131.55 215.35 133.0 213.8 L134.4 212.45 Q135.15 211.85 135.9 211.65 L137.2 211.8 M146.05 214.55 L143.75 216.7 Q142.55 218.05 141.75 219.55 140.95 221.05 140.95 222.5 140.95 222.85 141.4 222.85 L142.85 222.2 144.55 220.6 146.1 218.6 147.1 216.95 147.5 216.05 147.85 215.0 148.1 214.0 148.3 213.15 146.05 214.55 M137.6 215.65 Q138.25 214.95 138.25 214.05 L137.9 213.25 137.15 212.8 Q136.45 212.85 135.75 213.5 L134.4 214.85 133.2 216.45 132.5 217.7 132.9 217.95 133.4 218.0 134.5 217.7 136.15 216.9 137.6 215.65 M126.3 216.0 Q125.5 215.45 124.25 215.0 L121.5 214.25 118.5 213.8 118.3 214.3 118.0 215.55 117.6 217.25 117.2 219.1 116.85 220.8 116.65 221.95 Q121.95 221.35 124.7 220.05 127.1 218.9 127.1 217.3 127.1 216.6 126.3 216.0 M100.75 216.7 Q99.55 218.05 98.75 219.55 97.95 221.05 97.95 222.5 97.95 222.85 98.4 222.85 99.0 222.85 99.85 222.2 L101.55 220.6 103.1 218.6 104.1 216.95 104.5 216.05 104.85 215.0 105.1 214.0 105.3 213.15 103.05 214.55 100.75 216.7 M81.35 213.15 L79.1 214.55 76.8 216.7 Q75.6 218.05 74.8 219.55 74.0 221.05 74.0 222.5 74.0 222.85 74.45 222.85 75.05 222.85 75.9 222.2 L77.6 220.6 79.15 218.6 80.15 216.95 80.55 216.05 80.9 215.0 81.15 214.0 81.35 213.15 M226.6 215.9 Q226.6 214.75 226.05 213.85 225.55 212.95 224.2 212.95 223.5 212.95 222.8 213.45 222.05 213.9 221.3 214.65 L220.15 216.1 219.25 217.7 218.6 219.3 218.35 220.65 Q218.35 221.45 218.75 222.0 219.15 222.6 220.25 222.6 221.6 222.6 222.8 221.9 224.05 221.2 224.9 220.15 L226.15 218.1 Q226.6 217.0 226.6 215.9 M202.9 214.0 L203.1 213.15 Q202.0 213.65 200.85 214.55 L198.55 216.7 Q197.35 218.05 196.55 219.55 195.75 221.05 195.75 222.5 195.75 222.85 196.2 222.85 196.8 222.85 197.65 222.2 L199.35 220.6 200.9 218.6 201.9 216.95 202.3 216.05 202.65 215.0 202.9 214.0" fill="#d90000" fill-rule="evenodd" stroke="none"/>
      <path d="M211.7 118.8 Q209.35 118.8 207.75 119.75 205.8 120.8 205.8 122.55 205.8 123.65 206.35 124.25 206.85 124.95 207.9 124.95 208.6 124.95 209.2 124.55 L209.65 123.5 209.6 122.7 209.35 121.95 Q209.2 121.75 209.4 121.75 L209.85 121.65 Q210.8 121.8 211.6 122.5 212.4 123.25 212.4 124.2 212.4 125.75 211.15 126.75 209.85 127.75 208.1 127.75 206.2 127.75 204.7 126.45 203.35 125.1 203.35 123.05 203.35 120.35 206.6 118.75 209.35 117.35 213.3 117.35 217.25 117.35 220.95 119.7 224.65 121.85 227.0 125.85 228.7 128.5 229.65 132.7 230.35 135.25 230.8 139.8 L231.8 145.95 Q231.95 146.75 232.4 147.55 L233.1 148.4 233.4 149.0 Q233.4 149.3 232.8 149.3 L229.75 149.1 228.4 149.15 227.45 149.3 Q226.65 149.3 226.65 148.95 L226.85 148.5 227.35 147.65 227.6 146.6 227.35 143.5 Q225.95 146.2 222.8 148.15 219.3 150.35 215.55 150.35 210.2 150.35 206.45 147.35 202.55 144.35 202.55 139.3 202.55 134.35 206.85 131.0 210.9 127.8 216.6 127.8 219.2 127.8 221.9 128.8 224.35 129.75 225.75 131.25 225.75 129.75 223.95 126.95 221.95 123.75 219.0 121.5 215.45 118.8 211.7 118.8 M210.0 132.4 Q207.1 134.7 207.1 138.15 207.1 141.9 210.0 144.35 212.85 146.85 216.95 146.85 221.55 146.85 224.35 144.4 227.2 141.95 227.2 138.1 227.2 134.5 224.3 132.3 221.35 130.1 216.65 130.1 212.75 130.1 210.0 132.4 M221.75 154.25 Q222.85 153.4 224.75 153.4 227.35 153.4 228.6 155.0 229.55 156.2 229.55 157.75 229.55 161.05 227.0 163.35 224.5 165.7 221.15 165.7 L219.4 165.4 219.0 165.05 Q219.0 164.7 219.6 164.7 L220.75 164.6 222.45 164.1 224.7 162.6 Q225.7 161.5 225.7 160.0 225.7 159.2 225.25 158.5 224.8 157.9 224.0 157.9 223.15 157.9 222.8 158.2 L222.3 158.8 221.9 159.2 Q221.65 159.2 221.35 158.9 220.45 158.15 220.45 156.45 220.45 155.0 221.75 154.25 M250.55 162.8 Q253.95 164.2 253.95 166.9 253.95 168.65 252.15 169.85 250.5 170.9 248.2 170.9 246.1 170.9 244.6 170.1 242.9 169.25 242.9 167.55 242.9 166.65 243.5 166.05 L245.0 165.1 245.3 165.05 245.6 165.4 245.55 166.05 Q245.55 166.8 246.0 167.2 246.55 167.8 248.0 167.8 248.95 167.8 249.6 167.2 250.25 166.65 250.25 165.85 250.25 164.35 248.0 163.7 L243.65 163.3 Q240.3 163.3 237.6 164.7 234.65 166.2 234.65 168.55 234.65 170.55 236.55 171.8 237.7 172.45 244.4 173.9 L250.65 175.6 Q253.75 176.7 255.25 178.35 257.1 180.3 257.1 183.3 257.1 188.35 252.3 191.6 247.9 194.65 241.7 194.65 236.4 194.65 233.05 193.1 228.8 191.2 228.8 187.4 228.8 184.5 231.1 182.55 233.4 180.55 236.5 180.55 239.85 180.55 241.85 181.65 244.2 182.95 244.2 185.2 244.2 186.55 243.05 187.7 241.95 188.75 240.4 188.75 238.8 188.75 238.15 188.3 L238.05 188.05 Q238.05 187.9 238.45 187.7 L239.45 187.05 Q239.85 186.6 239.85 185.5 239.85 184.55 238.8 184.0 237.7 183.4 236.45 183.4 234.05 183.4 232.3 184.5 230.65 185.5 230.65 187.55 230.65 190.2 234.3 191.65 237.25 192.95 241.7 192.95 246.05 192.95 249.4 191.15 253.35 188.95 253.35 185.25 253.35 181.55 250.5 179.85 248.6 178.7 243.75 177.6 L238.05 176.4 Q234.8 175.55 233.35 174.3 231.4 172.65 231.4 169.55 231.4 166.1 235.3 163.9 238.85 161.8 243.65 161.8 247.65 161.8 250.55 162.8 M194.55 121.75 Q196.7 124.75 196.7 129.3 196.7 133.75 194.45 138.35 192.25 142.75 188.45 146.75 L191.65 146.6 Q192.6 146.55 193.6 145.95 L194.7 145.0 195.1 144.95 195.3 145.45 194.95 147.6 195.25 149.9 Q195.25 150.45 194.95 150.45 L194.45 150.2 192.95 149.5 191.5 149.15 186.15 149.2 185.9 149.3 185.7 149.3 Q185.0 149.3 185.0 148.85 L185.2 148.3 Q186.75 146.2 188.3 143.5 190.0 140.45 190.9 138.05 192.05 134.9 192.05 132.45 192.05 127.35 190.35 124.25 188.35 120.8 184.25 120.8 182.6 120.8 181.0 121.45 179.55 122.05 178.3 123.35 178.9 125.15 179.15 127.2 L179.5 132.05 Q179.5 135.2 177.9 139.45 176.5 142.8 174.7 145.95 L172.55 149.15 172.05 149.3 Q171.55 149.3 171.45 149.1 L171.4 148.75 171.65 148.15 Q174.7 142.15 174.7 132.5 174.7 127.9 172.7 124.55 170.65 121.05 167.25 121.05 164.9 121.05 162.95 122.8 161.2 124.2 160.45 126.3 L160.45 146.05 Q160.45 146.6 161.2 147.25 L162.5 148.25 162.95 148.85 Q162.95 149.3 162.2 149.3 L156.15 149.15 154.35 149.3 Q153.55 149.3 153.55 148.95 L153.95 148.3 155.15 147.25 Q155.95 146.65 155.95 146.05 L155.95 126.95 Q155.95 124.25 154.05 122.55 153.45 121.95 151.4 120.85 151.15 120.8 151.15 120.45 L151.35 120.15 Q152.0 119.75 152.9 118.8 L154.3 117.5 Q154.5 117.25 154.7 117.25 L155.05 117.45 157.7 120.15 Q159.6 122.45 159.8 124.0 161.05 121.55 162.65 120.1 165.5 117.35 169.05 117.35 171.95 117.35 174.4 118.95 176.1 120.15 177.55 122.05 178.85 120.15 180.75 118.95 183.0 117.35 185.55 117.35 191.55 117.35 194.55 121.75 M203.75 163.95 Q198.85 163.95 195.65 167.85 192.6 171.45 192.6 176.55 192.6 179.55 194.2 182.55 195.45 184.95 197.5 186.9 L208.65 171.9 Q210.6 169.2 210.6 167.8 210.6 166.0 208.3 164.8 206.55 163.95 203.75 163.95 M199.1 188.1 Q201.1 189.4 203.3 190.2 205.9 191.1 208.55 191.1 212.35 191.1 214.75 189.75 216.65 188.7 218.75 186.3 L219.2 185.65 Q219.55 185.3 219.8 185.4 220.3 185.45 220.3 186.0 L220.15 186.85 Q219.15 189.55 215.75 191.95 211.65 194.75 206.95 194.75 L201.55 194.15 Q198.7 193.35 196.35 191.65 L194.55 194.15 Q193.6 195.8 193.6 196.55 193.6 197.5 194.1 197.8 L195.25 198.05 195.7 198.0 196.1 197.9 196.35 197.9 Q196.65 197.95 196.5 198.35 L195.65 199.75 Q194.85 200.65 193.7 200.65 192.5 200.65 191.75 199.75 190.95 199.05 190.95 197.75 190.95 196.7 191.75 195.2 L194.75 190.6 Q192.1 188.1 190.75 185.3 189.2 182.0 189.2 178.4 189.2 171.65 194.0 166.7 198.75 161.8 205.85 161.8 208.7 161.8 211.6 163.1 L214.85 164.5 215.8 164.65 217.0 164.7 218.05 164.65 Q218.45 164.65 218.45 165.0 L218.15 165.35 216.95 166.2 215.4 167.6 Q212.05 171.1 207.5 176.75 L199.1 188.1 M165.25 166.9 Q163.15 168.25 161.8 170.65 L161.8 190.45 Q161.8 191.1 162.6 191.6 L163.9 192.65 164.3 193.3 Q164.3 193.65 163.75 193.65 L155.6 193.65 Q154.8 193.65 154.8 193.3 L155.1 192.7 156.15 191.9 Q157.3 191.0 157.3 190.45 L157.3 171.35 Q157.3 168.65 155.55 167.0 L152.8 165.25 152.5 164.95 Q152.5 164.65 152.75 164.5 L154.35 163.2 155.6 161.85 Q155.75 161.7 156.05 161.7 L156.35 161.8 Q157.6 162.65 158.95 164.35 160.95 166.8 161.2 168.4 162.7 166.1 165.0 164.3 168.3 161.8 171.55 161.8 177.9 161.8 181.3 166.15 183.95 169.55 183.95 173.9 183.95 178.55 182.15 183.05 180.35 187.4 176.75 191.15 L179.9 191.0 181.75 190.4 182.9 189.45 183.3 189.35 Q183.55 189.35 183.45 190.0 L183.3 193.0 183.4 194.1 Q183.55 194.75 183.05 194.75 L181.3 193.95 179.8 193.55 175.95 193.45 174.4 193.65 Q173.4 193.9 173.4 193.05 L173.45 192.65 176.4 188.25 Q178.05 185.45 178.85 183.0 179.8 180.2 179.8 176.95 179.8 171.85 177.35 168.65 174.8 165.4 170.5 165.4 167.6 165.4 165.25 166.9 M72.65 105.95 L71.1 104.9 Q70.95 104.75 70.95 104.45 70.95 104.1 71.55 104.1 L80.25 104.1 Q81.1 104.1 81.1 104.45 L80.9 104.9 79.45 105.95 Q78.55 106.65 78.55 107.2 L78.6 107.4 Q79.25 108.85 82.05 111.95 L87.4 117.2 90.15 119.75 101.6 107.95 102.2 106.95 Q102.2 106.6 101.8 106.2 L101.1 105.65 100.1 104.9 99.85 104.4 Q99.85 104.1 100.65 104.1 L101.8 104.15 109.1 104.1 Q110.05 104.1 110.05 104.5 L109.7 104.95 108.7 105.65 Q107.25 106.6 107.4 107.25 L113.0 146.15 114.1 147.35 115.7 148.35 116.1 148.95 Q116.1 149.3 115.3 149.3 L114.1 149.2 106.85 149.3 Q106.15 149.3 106.15 148.95 L106.4 148.4 107.65 147.35 Q108.5 146.65 108.4 146.15 L103.1 109.7 91.9 121.35 Q93.8 123.15 95.1 125.5 96.5 128.25 96.5 130.55 96.5 133.75 94.7 136.0 92.7 138.45 89.7 138.45 86.7 138.45 84.75 136.05 82.95 133.85 82.95 130.75 82.95 128.45 84.25 126.3 85.1 124.65 86.55 123.15 82.85 119.1 80.4 115.85 78.2 112.9 77.5 111.2 L72.25 146.15 Q72.1 146.75 73.15 147.35 L74.7 148.4 74.9 148.95 Q74.9 149.3 74.35 149.3 L72.4 149.2 70.1 149.1 65.7 149.3 Q64.9 149.3 64.9 148.95 64.9 148.65 65.3 148.3 L66.7 147.35 Q67.55 146.65 67.65 146.15 L73.55 107.25 Q73.65 106.7 72.65 105.95 M47.1 148.45 L49.2 148.5 51.7 148.65 56.15 148.45 Q56.75 148.45 56.75 148.85 L56.65 149.2 55.2 150.25 Q54.1 151.0 54.1 151.6 L54.1 177.25 Q54.1 181.7 51.9 185.65 50.3 188.7 47.9 190.85 49.8 189.7 51.75 189.0 54.5 188.05 56.7 188.05 59.2 188.05 65.45 190.15 68.35 191.15 70.95 191.15 74.25 191.15 76.25 189.2 78.55 187.25 78.55 183.7 78.55 180.15 76.6 177.75 74.6 175.4 71.4 175.4 69.3 175.4 67.9 176.35 66.65 177.3 66.65 178.9 66.65 180.2 67.4 180.7 67.9 181.2 69.0 181.2 L70.55 180.85 Q70.8 180.7 70.8 180.9 L70.8 181.25 Q70.8 182.3 69.55 183.05 68.3 183.85 66.85 183.85 64.65 183.85 63.25 182.45 61.9 181.05 61.9 178.75 61.9 176.1 64.4 174.45 66.8 172.8 70.1 172.8 74.6 172.8 77.75 175.9 80.8 179.05 80.8 183.5 80.8 188.3 77.2 191.45 73.65 194.65 68.35 194.65 65.85 194.65 62.85 193.7 55.9 191.6 53.85 191.6 51.5 191.6 49.85 192.25 48.25 192.9 47.25 194.05 L46.8 194.3 46.55 194.1 46.1 193.4 45.15 192.45 43.85 191.75 42.9 191.45 Q42.55 191.45 42.55 191.3 L42.8 191.0 Q46.15 188.85 47.8 185.75 49.2 183.3 49.2 180.2 L49.2 151.6 Q49.2 151.0 48.15 150.25 L46.6 149.15 46.55 148.75 Q46.6 148.45 47.1 148.45 M140.0 126.95 Q137.95 123.75 135.05 121.5 131.35 118.8 127.7 118.8 125.45 118.8 123.7 119.75 121.8 120.75 121.8 122.55 121.8 123.7 122.35 124.25 122.9 124.95 124.0 124.95 124.7 124.95 125.15 124.55 125.7 124.05 125.7 123.5 L125.35 121.95 125.35 121.75 125.85 121.65 Q126.75 121.75 127.6 122.5 128.4 123.25 128.4 124.2 128.4 125.7 127.1 126.75 125.85 127.75 124.1 127.75 122.1 127.75 120.75 126.45 119.45 125.1 119.45 123.05 119.45 120.35 122.6 118.75 125.3 117.35 129.35 117.35 133.25 117.35 137.0 119.7 140.75 121.9 143.1 125.85 144.7 128.5 145.65 132.7 L146.9 139.8 147.8 145.95 148.5 147.55 149.15 148.4 149.35 149.0 148.9 149.3 145.8 149.1 144.4 149.15 143.5 149.3 Q142.7 149.3 142.7 148.95 L143.3 147.65 143.55 146.6 143.3 143.5 Q142.05 146.05 138.9 148.15 135.3 150.35 131.6 150.35 126.25 150.35 122.5 147.35 118.65 144.35 118.65 139.3 118.65 134.45 122.85 131.0 127.05 127.8 132.55 127.8 135.2 127.8 137.85 128.8 140.45 129.75 141.7 131.25 141.7 129.85 140.0 126.95 M125.95 132.4 Q123.05 134.75 123.05 138.15 123.05 141.8 126.05 144.35 128.95 146.85 132.95 146.85 137.55 146.85 140.4 144.4 143.2 141.95 143.2 138.1 143.2 134.45 140.25 132.3 137.35 130.1 132.6 130.1 128.8 130.1 125.95 132.4 M88.55 124.9 Q87.1 126.1 86.4 127.25 85.35 128.9 85.35 130.6 85.35 132.85 86.2 134.25 87.35 136.0 89.25 136.0 90.95 136.0 91.95 134.35 92.8 132.9 92.8 131.05 92.8 129.4 91.3 127.45 90.1 126.0 88.55 124.9 M111.35 164.65 L112.55 164.7 113.5 164.65 Q113.9 164.65 113.9 165.0 L113.7 165.35 112.5 166.2 110.95 167.6 Q107.6 171.1 103.05 176.75 98.6 182.45 94.65 188.1 96.65 189.4 98.85 190.2 101.45 191.1 104.1 191.1 107.9 191.1 110.3 189.75 112.2 188.7 114.25 186.3 L114.75 185.65 Q115.05 185.3 115.35 185.4 115.8 185.45 115.8 186.0 L115.6 186.85 Q114.75 189.55 111.25 191.95 107.2 194.75 102.45 194.75 L97.05 194.15 Q94.25 193.35 91.9 191.65 L90.1 194.15 Q89.05 195.8 89.05 196.55 89.05 197.5 89.65 197.8 L90.75 198.05 91.25 198.0 91.65 197.9 91.9 197.9 Q92.2 197.95 92.0 198.35 L91.15 199.75 Q90.35 200.65 89.25 200.65 88.05 200.65 87.3 199.75 86.5 199.05 86.5 197.75 86.5 196.7 87.3 195.2 L90.3 190.6 Q87.65 188.1 86.3 185.3 84.75 182.0 84.75 178.4 84.75 171.65 89.5 166.7 94.3 161.8 101.4 161.8 104.25 161.8 107.15 163.1 L110.4 164.5 111.35 164.65 M99.3 163.95 Q94.35 163.95 91.15 167.85 88.15 171.45 88.15 176.55 88.15 179.55 89.75 182.55 91.1 185.15 93.05 186.9 L104.2 171.9 Q106.05 169.25 106.05 167.8 106.05 165.95 103.85 164.8 102.05 163.95 99.3 163.95 M147.85 179.85 Q147.85 174.5 142.5 169.7 137.1 164.7 130.6 164.7 125.55 164.7 121.9 167.95 118.35 171.25 118.35 175.6 118.35 182.0 123.75 186.9 129.1 191.65 135.45 191.65 140.55 191.65 144.0 188.65 147.85 185.4 147.85 179.85 M150.8 178.4 Q150.8 185.25 145.45 190.05 140.25 194.65 133.15 194.65 125.65 194.65 120.5 189.85 115.35 185.05 115.35 178.1 115.35 171.3 120.65 166.55 125.85 161.8 133.2 161.8 140.65 161.8 145.75 166.65 150.8 171.45 150.8 178.4" fill="#007d00" fill-rule="evenodd" stroke="none"/>
    </g>
  </defs>
</svg>
