<?xml version="1.0" encoding="UTF-8" standalone="no"?>
<svg xmlns:xlink="http://www.w3.org/1999/xlink" height="300.0px" width="300.0px" xmlns="http://www.w3.org/2000/svg">
  <g transform="matrix(1.0, 0.0, 0.0, 1.0, 0.0, 0.0)">
    <use height="201.15" transform="matrix(1.0, 0.0, 0.0, 1.0, -8.0, 49.9)" width="313.3" xlink:href="#sprite0"/>
  </g>
  <defs>
    <g id="sprite0" transform="matrix(1.0, 0.0, 0.0, 1.0, 156.65, 100.55)">
      <use height="201.15" transform="matrix(1.0, 0.0, 0.0, 1.0, -156.65, -100.55)" width="313.3" xlink:href="#shape0"/>
    </g>
    <g id="shape0" transform="matrix(1.0, 0.0, 0.0, 1.0, 156.65, 100.55)">
      <path d="M28.0 -39.8 L20.8 -39.25 21.2 -34.4 23.6 -34.65 26.1 -6.15 30.85 -6.55 28.0 -39.8 M34.25 -50.25 L38.55 0.65 15.9 2.65 11.6 -48.35 34.25 -50.25" fill="#4f508c" fill-rule="evenodd" stroke="none"/>
      <path d="M71.65 -27.05 Q74.3 -26.6 75.55 -24.05 L67.0 -24.95 Q68.8 -27.25 71.65 -27.05 M71.3 -37.0 Q64.15 -37.0 59.3 -31.1 54.8 -25.6 54.8 -18.35 54.8 -11.2 59.05 -6.2 63.35 -1.0 70.5 -1.0 79.4 -1.0 85.1 -11.2 L74.3 -12.35 Q72.55 -11.05 70.3 -11.05 66.2 -11.05 65.0 -15.7 L85.9 -13.35 86.05 -18.25 Q86.05 -35.5 73.2 -36.9 L71.3 -37.0 M93.3 -42.65 L87.65 8.2 43.75 3.3 49.4 -47.55 93.3 -42.65" fill="#ad733d" fill-rule="evenodd" stroke="none"/>
      <path d="M156.65 -59.15 L110.9 -28.15 Q113.05 -30.2 133.75 -45.9 L154.05 -61.2 156.65 -59.15 M155.25 -43.55 L105.35 -19.9 Q107.75 -21.6 130.6 -33.95 L153.0 -46.0 155.25 -43.55 M100.2 79.25 L103.5 79.25 103.5 85.7 Q105.65 83.85 107.8 83.85 109.15 83.85 110.0 84.6 110.9 85.4 110.9 86.85 L110.9 94.45 112.75 94.45 112.75 95.55 107.6 95.55 107.6 94.45 109.65 94.45 109.65 87.15 Q109.65 85.0 107.65 85.0 105.6 85.0 103.5 86.95 L103.5 94.45 105.35 94.45 105.35 95.55 100.2 95.55 100.2 94.45 102.25 94.45 102.25 80.3 100.2 80.3 100.2 79.25 M92.35 85.75 Q91.8 86.3 91.8 87.15 91.8 88.5 95.4 89.25 98.95 89.95 98.95 92.4 98.95 93.9 97.8 94.8 96.6 95.7 94.65 95.7 92.2 95.7 91.2 94.1 L91.15 94.1 91.15 95.55 90.0 95.55 90.0 91.6 91.15 91.6 Q91.15 93.0 92.1 93.85 93.1 94.75 94.65 94.75 96.05 94.75 96.9 94.1 97.8 93.5 97.8 92.5 97.8 90.9 94.25 90.2 90.65 89.5 90.65 87.1 90.65 85.8 91.7 84.9 92.7 84.0 94.2 84.0 96.25 84.0 97.3 85.5 L97.35 85.5 97.35 84.15 98.4 84.15 98.4 87.9 97.35 87.9 Q97.3 86.65 96.45 85.85 95.55 85.05 94.25 85.05 93.0 85.05 92.35 85.75 M83.75 84.15 L87.0 84.15 87.0 94.45 88.9 94.45 88.9 95.55 85.75 95.55 85.75 93.9 Q83.65 95.7 81.25 95.7 79.95 95.7 79.15 94.95 78.4 94.2 78.4 92.9 L78.4 85.25 76.4 85.25 76.4 84.15 79.65 84.15 79.65 92.55 Q79.65 94.55 81.5 94.55 83.7 94.55 85.75 92.5 L85.75 85.25 83.75 85.25 83.75 84.15 M115.05 79.25 Q115.3 78.95 115.7 78.95 L116.4 79.25 116.7 79.95 116.4 80.6 115.7 80.9 Q115.35 80.9 115.05 80.6 114.75 80.35 114.75 79.95 114.75 79.55 115.05 79.25 M113.45 85.25 L113.45 84.15 116.7 84.15 116.7 94.45 118.65 94.45 118.65 95.55 113.45 95.55 113.45 94.45 115.45 94.45 115.45 85.25 113.45 85.25 M132.3 85.25 L132.3 84.15 135.6 84.15 135.6 85.95 Q137.95 84.0 139.9 84.0 141.25 84.0 142.1 84.8 142.95 85.6 142.95 86.95 L142.95 94.45 144.8 94.45 144.8 95.55 139.7 95.55 139.7 94.45 141.7 94.45 141.7 87.3 Q141.7 85.15 139.8 85.15 137.85 85.15 135.6 87.15 L135.6 94.45 137.45 94.45 137.45 95.55 132.3 95.55 132.3 94.45 134.35 94.45 134.35 85.25 132.3 85.25 M122.4 86.4 Q121.15 87.75 121.15 89.85 121.15 91.95 122.4 93.35 123.65 94.75 125.5 94.75 127.4 94.75 128.65 93.35 129.9 91.95 129.9 89.85 129.9 87.75 128.65 86.4 127.4 85.0 125.5 85.0 123.6 85.0 122.4 86.4 M125.5 83.85 Q127.9 83.85 129.55 85.6 131.15 87.3 131.15 89.85 131.15 92.4 129.55 94.15 127.9 95.85 125.5 95.85 123.1 95.85 121.5 94.15 119.85 92.4 119.85 89.85 119.85 87.3 121.5 85.6 123.1 83.85 125.5 83.85 M154.15 84.15 L154.15 87.9 153.1 87.9 Q153.05 86.65 152.2 85.85 151.35 85.05 150.0 85.05 148.75 85.05 148.1 85.75 147.55 86.3 147.55 87.15 147.55 88.5 151.15 89.25 154.7 89.95 154.7 92.4 154.7 93.9 153.55 94.8 152.35 95.7 150.4 95.7 147.95 95.7 146.95 94.1 L146.9 94.1 146.9 95.55 145.75 95.55 145.75 91.6 146.9 91.6 Q146.9 93.0 147.85 93.85 148.85 94.75 150.4 94.75 151.8 94.75 152.65 94.1 153.55 93.5 153.55 92.5 153.55 90.9 150.0 90.2 146.4 89.5 146.4 87.1 146.4 85.8 147.45 84.9 148.45 84.0 149.95 84.0 152.0 84.0 153.05 85.5 L153.1 85.5 153.1 84.15 154.15 84.15 M12.0 85.0 Q10.1 85.0 8.85 86.4 7.6 87.75 7.6 89.85 7.6 91.95 8.85 93.35 10.1 94.75 12.0 94.75 13.85 94.75 15.1 93.35 16.35 91.95 16.35 89.85 16.35 87.75 15.1 86.4 13.9 85.0 12.0 85.0 M16.05 85.6 Q17.65 87.3 17.65 89.85 17.65 92.4 16.05 94.15 14.4 95.85 12.0 95.85 9.55 95.85 7.95 94.15 6.35 92.4 6.35 89.85 6.35 87.3 7.95 85.6 9.55 83.85 12.0 83.85 14.4 83.85 16.05 85.6 M18.7 84.15 L21.85 84.15 21.85 86.55 21.9 86.55 Q23.35 84.0 26.35 84.0 28.7 84.0 30.25 85.7 31.85 87.4 31.85 89.9 31.85 92.55 30.3 94.2 28.75 95.85 26.25 95.85 23.2 95.85 21.9 93.25 L21.85 93.25 21.85 99.55 23.95 99.55 23.95 100.6 18.55 100.6 18.55 99.55 20.6 99.55 20.6 85.25 18.7 85.25 18.7 84.15 M3.1 89.85 Q3.1 87.75 1.85 86.4 0.65 85.0 -1.25 85.0 -3.15 85.0 -4.4 86.4 -5.65 87.75 -5.65 89.85 -5.65 91.95 -4.4 93.35 -3.15 94.75 -1.25 94.75 0.6 94.75 1.85 93.35 3.1 91.95 3.1 89.85 M2.8 94.15 Q1.15 95.85 -1.25 95.85 -3.7 95.85 -5.3 94.15 -6.9 92.4 -6.9 89.85 -6.9 87.3 -5.3 85.6 -3.7 83.85 -1.25 83.85 1.15 83.85 2.8 85.6 4.4 87.3 4.4 89.85 4.4 92.4 2.8 94.15 M36.65 79.95 L36.35 80.6 35.7 80.9 35.0 80.6 Q34.75 80.35 34.75 79.95 34.75 79.55 35.0 79.25 35.3 78.95 35.7 78.95 36.1 78.95 36.35 79.25 L36.65 79.95 M33.45 85.25 L33.45 84.15 36.65 84.15 36.65 94.45 38.6 94.45 38.6 95.55 33.45 95.55 33.45 94.45 35.4 94.45 35.4 85.25 33.45 85.25 M23.0 86.45 Q21.8 87.8 21.8 89.9 21.8 92.0 23.05 93.4 24.3 94.75 26.3 94.75 28.2 94.75 29.45 93.4 30.65 92.05 30.65 89.9 30.65 87.8 29.4 86.45 28.15 85.1 26.15 85.1 24.25 85.1 23.0 86.45 M45.5 84.9 Q43.8 84.9 42.6 86.0 41.4 87.15 41.1 89.05 L49.95 89.05 Q49.65 87.1 48.5 86.0 47.3 84.9 45.5 84.9 M49.65 85.6 Q51.2 87.3 51.25 90.15 L41.05 90.15 Q41.05 92.1 42.45 93.5 43.85 94.85 45.85 94.85 48.55 94.85 50.3 92.4 L51.25 92.85 Q50.4 94.25 48.95 95.05 47.45 95.85 45.7 95.85 43.1 95.85 41.45 94.15 39.8 92.5 39.8 89.85 39.8 87.2 41.45 85.55 43.05 83.85 45.6 83.85 48.1 83.85 49.65 85.6 M74.75 79.25 L74.75 84.45 73.65 84.45 Q73.3 82.45 71.4 81.25 69.75 80.15 67.65 80.15 64.7 80.15 62.8 82.15 60.95 84.15 60.95 87.3 60.95 90.5 62.85 92.55 64.75 94.6 67.75 94.6 72.45 94.6 74.25 89.55 L75.3 90.15 Q74.5 92.85 72.5 94.3 70.5 95.75 67.7 95.75 64.1 95.75 61.85 93.45 59.6 91.15 59.6 87.4 59.6 83.45 62.0 81.1 64.25 78.95 67.55 78.95 71.45 78.95 73.6 81.8 L73.65 81.8 73.65 79.25 74.75 79.25 M-99.6 -100.55 L-65.95 -56.75 Q-69.4 -59.95 -101.5 -97.85 L-99.6 -100.55 M-83.95 -100.1 L-57.4 -51.7 Q-60.3 -55.4 -86.25 -97.7 L-83.95 -100.1 M-67.15 84.15 L-65.1 84.15 -65.1 81.65 -63.85 80.65 -63.85 84.15 -61.5 84.15 -61.5 85.25 -63.85 85.25 -63.85 93.15 Q-63.85 94.25 -63.5 94.5 L-61.5 94.45 -61.5 95.55 Q-65.1 96.55 -65.1 93.7 L-65.1 85.25 -67.15 85.25 -67.15 84.15 M-60.9 84.15 L-55.95 84.15 -55.95 85.25 -57.8 85.25 -54.35 93.7 -51.15 85.25 -52.95 85.25 -52.95 84.15 -48.25 84.15 -48.25 85.25 -49.95 85.25 -55.8 100.6 -58.95 100.6 -58.95 99.55 -56.55 99.55 -54.95 95.2 -59.05 85.25 -60.9 85.25 -60.9 84.15 M-72.75 79.25 L-69.45 79.25 -69.45 94.45 -67.4 94.45 -67.4 95.55 -72.75 95.55 -72.75 94.45 -70.7 94.45 -70.7 80.3 -72.75 80.3 -72.75 79.25 M-76.3 87.15 Q-76.3 84.75 -79.35 84.75 -81.9 84.75 -82.85 86.7 L-83.8 86.45 Q-82.5 83.85 -79.25 83.85 -75.05 83.85 -75.05 87.1 L-75.05 94.45 -73.2 94.45 -73.2 95.55 -76.3 95.55 -76.3 93.9 Q-78.45 95.7 -80.5 95.7 -81.95 95.7 -83.0 94.7 -84.0 93.75 -84.0 92.35 -84.0 90.8 -82.8 89.85 -81.6 88.85 -79.8 88.85 -78.05 88.85 -76.3 89.75 L-76.3 87.15 M-79.55 89.75 Q-80.95 89.75 -81.85 90.5 -82.7 91.25 -82.7 92.4 -82.7 93.4 -82.0 94.1 -81.3 94.75 -80.2 94.75 -79.2 94.75 -78.1 94.2 -77.0 93.7 -76.3 92.85 L-76.3 90.75 Q-78.15 89.75 -79.55 89.75 M-44.15 80.3 L-44.15 79.25 -38.7 79.25 -38.7 80.3 -40.75 80.3 -36.85 93.8 -36.8 93.8 -33.35 80.3 -35.3 80.3 -35.3 79.25 -29.15 79.25 -29.15 80.3 -31.1 80.3 -27.45 93.8 -27.4 93.8 -23.65 80.3 -25.75 80.3 -25.75 79.25 -17.3 79.25 -17.3 85.7 Q-15.15 83.85 -13.0 83.85 -11.6 83.85 -10.8 84.6 -9.9 85.4 -9.9 86.85 L-9.9 94.45 -8.05 94.45 -8.05 95.55 -13.15 95.55 -13.15 94.45 -11.15 94.45 -11.15 87.15 Q-11.15 85.0 -13.15 85.0 -15.2 85.0 -17.3 86.95 L-17.3 94.45 -15.4 94.45 -15.4 95.55 -20.6 95.55 -20.6 94.45 -18.55 94.45 -18.55 80.3 -22.5 80.3 -26.95 95.7 -28.0 95.7 -32.3 80.05 -32.35 80.05 -36.4 95.7 -37.5 95.7 -42.1 80.3 -44.15 80.3 M-147.85 58.95 L-95.2 42.25 Q-99.4 44.4 -145.95 61.65 L-147.85 58.95 M-141.8 90.5 Q-141.8 92.15 -140.45 93.4 -139.05 94.6 -137.2 94.6 -135.55 94.6 -134.45 93.65 -133.35 92.65 -133.35 91.15 -133.35 88.85 -138.1 87.5 -142.85 86.15 -142.85 83.0 -142.85 81.3 -141.55 80.15 -140.2 78.95 -138.1 78.95 -135.45 78.95 -133.9 80.85 L-133.85 80.85 -133.85 79.25 -132.8 79.25 -132.8 83.6 -133.85 83.6 -133.85 83.3 Q-133.85 82.05 -135.15 81.1 -136.45 80.15 -138.15 80.15 -139.65 80.15 -140.6 80.95 -141.6 81.75 -141.6 83.0 -141.6 85.2 -136.8 86.5 -132.0 87.85 -132.0 91.2 -132.0 93.15 -133.5 94.45 -135.0 95.75 -137.2 95.75 -138.65 95.75 -139.85 95.1 -141.1 94.5 -141.75 93.4 L-141.8 93.4 -141.8 95.55 -142.9 95.55 -142.9 89.95 -141.8 89.95 -141.8 90.5 M-127.7 84.15 L-127.7 86.55 -127.65 86.55 Q-126.2 84.0 -123.2 84.0 -120.85 84.0 -119.25 85.7 -117.7 87.4 -117.7 89.9 -117.7 92.55 -119.25 94.2 -120.8 95.85 -123.3 95.85 -126.35 95.85 -127.65 93.25 L-127.7 93.25 -127.7 99.55 -125.6 99.55 -125.6 100.6 -131.0 100.6 -131.0 99.55 -128.95 99.55 -128.95 85.25 -130.85 85.25 -130.85 84.15 -127.7 84.15 M-126.55 86.45 Q-127.75 87.8 -127.75 89.9 -127.75 92.0 -126.5 93.4 -125.25 94.75 -123.25 94.75 -121.3 94.75 -120.05 93.4 -118.85 92.05 -118.85 89.9 -118.85 87.8 -120.15 86.45 -121.4 85.1 -123.4 85.1 -125.3 85.1 -126.55 86.45 M-110.05 84.9 Q-111.75 84.9 -112.95 86.0 -114.1 87.15 -114.45 89.05 L-105.55 89.05 Q-105.9 87.1 -107.05 86.0 -108.25 84.9 -110.05 84.9 M-105.9 85.6 Q-104.35 87.3 -104.3 90.15 L-114.5 90.15 Q-114.5 92.1 -113.1 93.5 -111.7 94.85 -109.7 94.85 -107.0 94.85 -105.25 92.4 L-104.3 92.85 Q-105.15 94.25 -106.6 95.05 -108.1 95.85 -109.85 95.85 -112.45 95.85 -114.1 94.15 -115.75 92.5 -115.75 89.85 -115.75 87.2 -114.1 85.55 -112.5 83.85 -109.95 83.85 -107.45 83.85 -105.9 85.6 M-89.05 79.25 Q-88.75 78.95 -88.35 78.95 -87.95 78.95 -87.7 79.25 -87.4 79.55 -87.4 79.95 -87.4 80.35 -87.7 80.6 -87.95 80.9 -88.35 80.9 -88.75 80.9 -89.05 80.6 L-89.35 79.95 -89.05 79.25 M-87.4 84.15 L-87.4 94.45 -85.45 94.45 -85.45 95.55 -90.6 95.55 -90.6 94.45 -88.65 94.45 -88.65 85.25 -90.6 85.25 -90.6 84.15 -87.4 84.15 M-100.0 86.5 Q-101.2 87.8 -101.2 89.9 -101.2 92.1 -100.0 93.4 -98.8 94.75 -96.85 94.75 -94.1 94.75 -92.95 92.0 L-91.9 92.45 Q-92.55 94.05 -93.85 94.95 -95.15 95.85 -96.85 95.85 -99.3 95.85 -100.9 94.2 -102.45 92.55 -102.45 90.0 -102.45 87.4 -100.9 85.7 -99.35 84.0 -97.0 84.0 -94.65 84.0 -93.4 85.65 L-93.35 85.65 -93.35 84.15 -92.35 84.15 -92.35 88.5 -93.35 88.5 Q-93.35 87.0 -94.45 86.05 -95.45 85.15 -96.95 85.15 -98.8 85.15 -100.0 86.5 M-156.65 46.8 L-99.5 37.95 Q-104.2 39.5 -155.1 49.9 L-156.65 46.8" fill="#000000" fill-rule="evenodd" stroke="none"/>
      <path d="M135.4 34.9 Q133.55 36.6 133.75 39.5 133.85 43.05 136.7 44.55 L138.2 44.95 139.6 45.35 Q141.85 46.05 141.85 46.7 141.85 47.2 140.9 47.7 L139.35 48.2 Q137.9 48.2 137.05 45.85 L133.15 45.55 Q134.6 53.05 139.95 52.9 142.35 52.9 144.05 51.15 145.8 49.35 145.65 46.2 145.5 41.95 141.3 40.75 139.6 40.4 137.7 39.5 137.7 38.3 139.45 38.3 140.85 38.3 141.55 40.3 L145.5 40.5 145.0 37.9 Q143.85 33.3 139.05 33.45 136.95 33.45 135.4 34.9 M148.8 19.0 L149.3 54.65 130.0 55.0 129.4 19.25 148.8 19.0" fill="#2a6094" fill-rule="evenodd" stroke="none"/>
      <path d="M113.5 26.45 L123.05 14.85 114.5 12.2 105.45 24.05 113.5 26.45 M97.15 29.1 L106.55 -1.4 130.1 5.9 120.7 36.35 97.15 29.1" fill="#823131" fill-rule="evenodd" stroke="none"/>
      <path d="M84.7 21.1 L76.15 43.3 67.05 22.15 58.8 22.25 58.95 28.25 63.15 28.2 73.0 51.25 69.15 60.95 74.8 63.15 90.35 23.3 84.7 21.1 M94.45 65.8 L53.6 66.1 53.25 15.3 94.0 14.95 94.45 65.8" fill="#acc223" fill-rule="evenodd" stroke="none"/>
      <path d="M44.0 25.85 L38.15 25.5 38.4 20.35 33.3 20.1 33.05 25.25 28.3 25.0 28.05 30.15 32.8 30.4 32.05 43.9 Q31.7 49.8 38.1 50.25 L39.55 50.25 41.65 50.15 41.4 45.0 38.1 45.25 Q37.15 45.1 37.15 44.25 L37.9 30.65 43.75 31.0 44.0 25.85 M47.4 17.65 L45.15 59.25 23.25 58.1 25.4 16.45 47.4 17.65" fill="#11826a" fill-rule="evenodd" stroke="none"/>
      <path d="M17.35 21.95 L16.85 51.0 -0.5 50.75 0.0 21.65 17.35 21.95 M13.7 26.2 Q10.1 26.15 7.9 28.25 L7.75 26.45 2.6 26.35 2.5 29.5 4.8 29.5 4.5 47.2 7.65 47.25 8.4 35.5 Q8.8 29.3 14.3 29.45 L15.7 29.5 16.0 26.35 13.7 26.2" fill="#728013" fill-rule="evenodd" stroke="none"/>
      <path d="M1.2 2.75 L-28.75 0.0 -24.5 -45.6 5.45 -42.8 1.2 2.75 M-9.65 -30.35 Q-3.95 -29.9 -3.35 -22.8 L0.65 -23.25 Q0.1 -27.65 -2.25 -30.7 -4.9 -33.9 -9.25 -34.25 -15.45 -34.9 -19.6 -30.05 -23.4 -25.5 -23.4 -19.15 -23.4 -13.4 -20.6 -9.35 -17.5 -4.8 -12.05 -4.3 -7.6 -3.9 -4.5 -6.65 -1.65 -9.15 -0.35 -13.45 L-4.1 -14.75 Q-6.4 -7.75 -11.8 -8.2 -15.8 -8.6 -17.95 -12.75 -19.8 -16.35 -19.35 -20.65 -19.05 -24.55 -16.3 -27.6 -13.5 -30.8 -9.65 -30.35" fill="#7a0087" fill-rule="evenodd" stroke="none"/>
      <path d="M-128.7 -45.45 L-139.1 -44.05 -138.4 -38.8 -133.2 -39.55 -129.3 -11.45 Q-128.15 -2.8 -122.25 2.2 -116.25 7.15 -107.7 5.95 -99.1 4.75 -94.45 -1.5 -89.8 -7.9 -90.95 -16.4 L-95.6 -50.0 -100.8 -49.3 -96.15 -15.65 Q-95.75 -12.4 -96.4 -9.7 -97.1 -6.8 -98.7 -4.7 -100.35 -2.45 -102.8 -1.05 -105.1 0.4 -108.4 0.85 L-114.2 0.5 Q-116.85 -0.35 -118.9 -2.0 -120.9 -3.65 -122.3 -6.3 -123.65 -8.95 -124.1 -12.15 L-128.7 -45.45 M-90.65 -61.55 L-80.15 14.6 -140.1 22.85 -150.55 -53.3 -90.65 -61.55" fill="#6da69a" fill-rule="evenodd" stroke="none"/>
      <path d="M-57.75 -29.2 L-57.85 -30.65 -66.8 -31.35 -67.3 -24.85 -64.25 -24.7 Q-64.35 -20.8 -64.75 -15.75 L-65.8 -2.7 -59.4 -2.15 -57.7 -17.55 Q-57.25 -20.75 -55.55 -22.6 -53.9 -24.55 -51.2 -24.35 -49.05 -24.2 -47.85 -22.6 -46.65 -21.0 -46.8 -18.75 L-48.15 0.5 -41.65 1.0 -40.35 -18.3 Q-39.9 -23.15 -43.0 -26.85 -45.95 -30.4 -50.9 -30.85 -54.45 -31.05 -57.75 -29.2 M-32.95 -34.65 L-35.85 6.35 -78.65 3.35 -75.85 -37.65 -32.95 -34.65" fill="#006900" fill-rule="evenodd" stroke="none"/>
      <path d="M-20.95 28.35 Q-19.5 23.7 -15.35 23.6 -12.65 23.55 -11.65 25.2 -10.85 26.3 -10.65 29.25 L-16.25 29.9 Q-18.85 30.45 -20.65 31.3 -22.5 32.2 -23.55 33.7 -24.6 35.15 -24.6 37.2 -24.6 40.4 -20.85 42.7 -17.55 44.1 -14.2 43.9 -11.2 43.85 -8.75 41.7 -7.4 44.25 -4.65 44.25 L-4.65 56.6 -28.25 57.1 -29.5 7.65 -4.5 7.25 -4.65 41.1 Q-6.3 40.75 -6.6 38.6 -6.95 29.85 -7.65 27.15 -9.65 20.25 -15.7 20.45 -21.95 20.55 -24.0 27.5 L-20.95 28.35 M-10.4 32.4 L-9.9 38.2 Q-10.7 39.7 -11.95 40.5 -13.25 41.2 -14.9 41.25 -16.9 41.25 -18.8 40.5 -21.2 39.55 -21.35 37.8 -21.5 32.6 -11.95 32.5 L-10.4 32.4" fill="#74b830" fill-rule="evenodd" stroke="none"/>
      <path d="M-62.1 27.4 L-65.0 55.9 -59.85 56.45 -58.3 41.25 -43.7 42.75 -43.2 37.55 -57.8 36.15 -57.0 27.9 -41.85 29.5 -41.3 24.3 -65.7 21.9 -66.25 27.0 -62.1 27.4 M-77.35 58.75 L-72.9 14.5 -32.15 18.55 -36.6 62.9 -77.35 58.75" fill="#ad83c7" fill-rule="evenodd" stroke="none"/>
    </g>
  </defs>
</svg>
