<?xml version="1.0" encoding="UTF-8" standalone="no"?>
<svg xmlns:xlink="http://www.w3.org/1999/xlink" height="300.0px" width="300.0px" xmlns="http://www.w3.org/2000/svg">
  <g transform="matrix(1.0, 0.0, 0.0, 1.0, 0.0, 0.0)">
    <use height="248.7" transform="matrix(1.0, 0.0, 0.0, 1.0, 2.75, 23.25)" width="278.1" xlink:href="#shape0"/>
  </g>
  <defs>
    <g id="shape0" transform="matrix(1.0, 0.0, 0.0, 1.0, -2.75, -23.25)">
      <path d="M251.35 60.1 Q258.05 71.1 249.9 82.55 L231.6 107.65 Q222.95 119.8 222.85 129.7 222.75 139.6 225.05 150.4 227.3 161.25 233.85 165.0 240.4 168.65 249.7 172.35 264.2 169.75 274.4 188.85 284.45 208.0 278.8 223.45 273.05 238.9 269.75 245.4 266.45 251.9 263.6 255.75 252.2 271.45 229.65 270.6 207.0 269.65 180.65 259.3 158.2 250.45 142.85 242.2 131.2 235.85 124.05 240.1 116.95 244.4 112.75 252.4 108.55 260.3 93.55 267.7 78.55 275.1 66.65 269.6 54.65 264.1 32.15 252.8 9.55 241.5 4.35 225.2 -0.05 211.6 7.75 192.5 12.55 180.7 27.3 157.05 42.6 132.55 50.0 118.15 57.35 103.8 59.35 91.1 61.4 78.45 59.6 63.15 57.75 47.7 82.55 34.9 107.4 22.05 123.05 23.4 138.75 24.7 158.8 38.05 164.45 41.7 175.85 49.6 186.1 56.35 194.65 54.1 203.25 51.8 223.95 50.4 244.65 49.0 251.35 60.1" fill="url(#gradient0)" fill-rule="evenodd" stroke="none"/>
      <path d="M185.2 80.4 L191.5 91.2 180.95 104.8 176.4 105.15 188.7 89.35 183.6 80.6 185.2 80.4 M203.2 80.95 L216.85 90.75 216.75 90.85 203.15 81.05 203.2 80.95 M172.25 90.55 L169.25 93.5 160.2 95.2 160.2 92.8 172.25 90.55 M191.5 106.05 L193.3 117.8 160.2 119.65 159.9 117.7 190.45 115.9 189.0 106.3 191.5 106.05 M233.8 88.1 L226.65 83.0 226.7 82.9 236.6 89.95 226.4 104.15 226.4 120.6 207.95 119.35 207.95 117.7 223.55 118.75 223.55 102.25 233.8 88.1 M218.25 125.55 L212.5 138.2 206.45 136.15 206.65 135.3 209.7 136.35 214.6 125.55 218.25 125.55 M244.25 135.5 L244.0 135.3 249.05 127.95 Q250.35 128.7 251.85 129.8 L245.9 138.45 Q245.45 136.65 244.25 135.5 M241.05 134.45 Q238.9 134.45 237.55 135.35 236.0 136.2 236.0 137.9 L236.1 138.3 Q233.2 137.2 233.2 136.05 233.2 134.3 234.7 133.5 236.05 132.6 238.25 132.6 240.2 132.6 241.45 133.65 L242.2 134.6 241.05 134.45 M225.75 141.9 Q227.75 142.8 233.05 144.55 236.3 145.55 237.1 146.85 L235.85 146.4 Q229.3 144.3 227.85 143.45 L225.75 141.9 M226.75 150.2 Q227.2 151.4 228.0 152.3 L226.1 151.35 226.75 150.2 M223.8 163.7 L224.2 163.9 224.65 164.1 Q226.95 165.05 230.2 165.05 234.15 165.05 237.55 164.1 240.95 163.2 243.85 161.25 249.95 157.25 249.95 151.5 249.95 146.2 246.45 143.0 L248.4 144.2 Q252.75 147.5 252.75 153.4 252.75 159.1 246.65 163.15 243.8 165.05 240.35 166.0 236.95 166.95 233.0 166.95 229.75 166.95 227.45 166.0 L227.0 165.8 223.8 163.7 M191.45 127.15 L206.4 160.3 194.85 166.95 193.55 164.25 203.6 158.45 189.2 126.5 191.45 127.15 M185.85 142.4 L184.05 149.7 180.8 149.7 184.05 136.2 185.85 142.4 M162.35 149.75 L156.45 150.2 156.45 152.2 153.6 152.1 153.6 148.35 159.5 147.85 159.5 145.1 162.35 144.95 162.35 149.75 M165.4 138.8 L165.65 127.1 168.55 126.85 168.2 140.65 154.95 141.2 154.95 143.3 152.1 143.4 152.1 139.3 165.4 138.8 M169.35 161.45 L177.45 166.2 181.5 158.2 187.9 156.35 189.05 158.75 184.3 160.05 180.25 168.1 169.25 161.6 169.35 161.45 M167.7 156.25 L166.45 159.75 168.2 160.8 168.2 161.1 147.8 165.4 147.75 162.95 165.4 159.25 164.9 154.15 167.5 154.2 167.7 156.25 M95.1 95.95 L94.25 95.95 93.0 88.1 Q93.95 87.5 94.9 87.5 96.55 87.5 97.9 88.7 L98.65 89.5 97.7 89.4 Q96.75 89.4 95.85 89.95 L96.75 95.65 95.1 95.95 M103.85 98.95 Q107.4 96.9 109.35 94.35 111.25 91.7 111.25 88.65 111.25 84.6 108.25 81.95 L109.25 82.5 Q114.05 85.45 114.05 90.55 114.05 93.55 112.15 96.2 110.35 98.55 107.25 100.5 L103.85 98.95 M80.7 83.0 L75.8 91.5 Q74.0 89.5 71.85 89.5 69.55 89.5 67.75 92.05 66.05 94.65 66.05 98.35 66.05 100.65 67.2 102.0 65.85 101.65 64.85 100.65 63.25 99.25 63.25 96.5 63.25 92.8 64.9 90.15 66.75 87.6 69.05 87.6 71.2 87.6 73.0 89.6 L77.6 81.7 Q78.95 82.05 80.7 83.0 M94.8 103.9 L97.4 106.75 94.65 118.45 87.2 118.45 87.15 116.6 91.8 116.6 94.8 103.9 M81.65 111.4 L77.35 101.55 78.35 99.45 84.25 112.75 84.25 113.45 Q78.2 119.05 71.45 119.05 66.35 119.05 62.55 115.75 65.3 117.15 68.6 117.15 75.5 117.15 81.65 111.4 M108.3 117.5 L118.35 106.15 120.35 107.1 119.25 110.25 110.5 120.0 108.3 117.5 M143.0 81.15 L156.05 110.15 156.9 114.9 146.35 120.9 145.1 118.15 155.15 112.35 140.75 80.5 143.0 81.15 M133.05 112.1 L139.45 110.3 140.55 112.7 135.85 114.0 131.8 122.0 120.8 115.55 120.9 115.4 128.95 120.15 133.05 112.1 M135.6 90.15 L137.35 96.3 135.55 103.65 132.25 103.65 135.6 90.15 M58.25 140.15 Q55.55 140.65 53.95 142.85 52.3 145.05 52.3 148.2 52.3 150.8 54.1 152.7 52.75 152.25 51.7 151.25 49.5 149.2 49.5 146.3 49.5 143.15 51.1 141.0 52.75 138.8 55.45 138.3 L55.45 139.3 56.9 139.2 Q59.95 139.2 61.65 141.25 L61.75 141.35 59.7 141.1 58.25 141.2 58.25 140.15 M75.8 143.6 Q75.8 135.1 70.65 129.8 L69.4 128.7 Q71.65 129.85 73.45 131.65 78.65 136.95 78.65 145.45 78.65 153.0 72.6 158.2 66.45 163.3 58.25 163.3 51.6 163.3 46.6 159.3 50.55 161.4 55.45 161.4 63.6 161.4 69.75 156.3 75.8 151.15 75.8 143.6 M143.25 146.55 Q143.25 153.9 135.55 159.25 127.95 164.4 118.4 164.4 L115.0 164.25 112.0 163.55 111.8 162.3 112.2 162.35 115.6 162.5 Q125.1 162.5 132.75 157.35 140.45 152.05 140.45 144.7 140.45 140.2 139.0 136.2 137.3 131.55 133.7 128.6 L135.55 129.7 Q139.9 132.8 141.8 138.05 143.25 142.1 143.25 146.55 M120.35 136.7 Q125.75 136.7 128.05 138.35 L129.05 139.3 Q126.8 138.6 123.2 138.6 L123.8 148.0 121.15 148.35 120.35 136.7 M128.55 168.8 L124.25 168.8 126.35 168.65 128.55 168.8 M152.05 168.65 L154.4 168.8 149.7 168.8 152.05 168.65 M104.0 127.6 L103.45 127.9 103.95 130.95 103.8 140.65 90.45 141.2 90.45 143.3 87.65 143.4 87.65 139.3 101.0 138.8 101.2 127.1 104.0 126.85 104.0 127.6 M92.0 150.2 L92.0 152.2 89.2 152.1 89.2 148.35 95.05 147.85 95.05 145.1 97.85 144.95 97.85 149.75 92.0 150.2 M83.25 162.95 L101.0 159.25 100.4 154.15 103.0 154.2 103.8 161.1 83.3 165.4 83.25 162.95 M102.9 168.8 L98.35 168.8 100.55 168.65 102.9 168.8" fill="#000000" fill-rule="evenodd" stroke="none"/>
      <path d="M215.45 123.7 L209.7 136.35 203.65 134.25 205.1 123.7 215.45 123.7 M233.05 144.55 Q226.5 142.45 225.0 141.55 220.65 139.05 220.65 135.05 220.65 130.6 225.8 127.45 231.0 124.25 237.35 124.25 241.2 124.25 243.7 125.0 246.05 125.65 249.05 127.9 L243.1 136.55 Q242.65 134.8 241.45 133.65 240.2 132.6 238.25 132.6 236.05 132.6 234.7 133.5 233.2 134.3 233.2 136.05 233.2 137.45 237.6 138.8 243.3 140.6 245.6 142.35 249.95 145.6 249.95 151.5 249.95 157.25 243.85 161.25 240.95 163.2 237.55 164.1 234.15 165.05 230.2 165.05 226.95 165.05 224.65 164.1 L224.2 163.9 Q221.9 162.75 217.65 159.25 L223.95 148.35 Q225.7 152.7 230.8 152.7 233.9 152.7 235.65 151.5 237.35 150.3 237.35 147.7 237.35 145.95 233.05 144.55 M165.4 138.8 L152.1 139.3 152.1 143.4 159.5 143.05 159.5 147.85 153.6 148.35 153.6 152.1 164.65 152.35 165.4 159.25 144.95 163.5 143.95 126.85 165.7 125.0 165.4 138.8 M188.65 125.3 L203.6 158.45 192.05 165.05 187.9 156.35 181.5 158.2 177.45 166.2 166.45 159.75 179.75 122.65 188.65 125.3 M187.9 149.7 L184.05 136.2 180.8 149.7 187.9 149.7 M49.5 146.3 Q49.5 149.2 51.7 151.25 53.75 153.2 57.05 153.2 59.8 153.2 61.4 151.2 63.05 149.25 63.05 145.75 63.05 143.05 61.65 141.25 59.95 139.2 56.9 139.2 L55.45 139.3 55.45 138.3 Q52.75 138.8 51.1 141.0 49.5 143.15 49.5 146.3 M75.8 143.6 Q75.8 151.15 69.75 156.3 63.6 161.4 55.45 161.4 47.95 161.4 42.5 156.3 37.2 151.25 37.2 143.85 37.2 135.25 42.3 129.2 47.6 122.9 55.45 122.9 L55.45 124.3 Q65.2 124.3 70.65 129.8 75.8 135.1 75.8 143.6 M79.4 126.85 L101.2 125.0 101.0 138.8 87.65 139.3 87.65 143.4 95.05 143.05 95.05 147.85 89.2 148.35 89.2 152.1 100.2 152.35 101.0 159.25 80.5 163.5 79.4 126.85 M128.05 138.35 Q125.75 136.7 120.35 136.7 L121.15 148.35 Q124.45 148.35 126.85 146.5 129.4 144.75 129.4 142.15 L129.5 141.15 Q129.5 139.3 128.05 138.35 M139.0 136.2 Q140.45 140.2 140.45 144.7 140.45 152.05 132.75 157.35 125.1 162.5 115.6 162.5 L112.2 162.35 109.15 161.7 103.45 127.9 Q106.55 126.15 110.4 125.15 114.15 124.05 118.4 124.05 127.4 124.05 132.75 127.8 137.1 130.95 139.0 136.2" fill="url(#gradient1)" fill-rule="evenodd" stroke="none"/>
      <path d="M188.7 89.35 L176.4 105.15 188.7 104.2 190.45 115.9 157.4 117.8 155.55 106.95 172.25 90.55 157.4 93.3 157.4 81.55 182.4 78.5 188.7 89.35 M200.35 79.05 L216.75 90.85 223.9 81.0 233.8 88.1 223.55 102.25 223.55 118.75 205.1 117.5 205.1 101.65 191.05 92.1 200.35 79.05 M88.4 78.65 L94.95 77.85 Q102.05 77.85 106.45 80.65 111.25 83.55 111.25 88.65 111.25 91.7 109.35 94.35 107.4 96.9 103.85 98.95 L118.7 105.75 107.7 118.1 94.8 103.9 91.8 116.6 84.35 116.6 83.2 80.7 Q85.3 79.4 88.4 78.65 M99.25 91.5 Q99.25 89.85 97.9 88.7 96.55 87.5 94.9 87.5 93.95 87.5 93.0 88.1 L94.25 95.95 95.1 95.95 Q96.85 95.95 98.05 94.65 99.25 93.4 99.25 91.5 M140.2 79.3 L155.15 112.35 143.5 119.05 139.45 110.3 133.05 112.1 128.95 120.15 118.0 113.7 131.25 76.55 140.2 79.3 M74.7 79.8 Q76.15 80.15 77.9 81.1 L73.0 89.6 Q71.2 87.6 69.05 87.6 66.75 87.6 64.9 90.15 63.25 92.8 63.25 96.5 63.25 99.25 64.85 100.65 66.5 102.25 69.1 102.25 71.3 102.25 73.1 101.05 74.9 99.7 75.55 97.55 L81.65 111.4 Q75.5 117.15 68.6 117.15 62.3 117.15 57.9 112.1 53.55 107.0 53.55 99.4 53.55 91.05 58.85 85.4 64.1 79.5 71.2 79.5 L74.7 79.8 M139.45 103.65 L135.6 90.15 132.25 103.65 139.45 103.65" fill="url(#gradient2)" fill-rule="evenodd" stroke="none"/>
      <path d="M125.75 166.95 L121.4 166.95 123.55 166.8 125.75 166.95" fill="url(#gradient3)" fill-rule="evenodd" stroke="none"/>
      <path d="M149.25 166.8 L151.6 166.95 146.9 166.95 149.25 166.8" fill="url(#gradient4)" fill-rule="evenodd" stroke="none"/>
      <path d="M97.75 166.8 L100.1 166.95 95.5 166.95 97.75 166.8" fill="url(#gradient5)" fill-rule="evenodd" stroke="none"/>
      <path d="M188.7 89.35 L176.4 105.15 188.7 104.2 190.45 115.9 157.4 117.8 155.55 106.95 172.25 90.55 157.4 93.3 157.4 81.55 182.4 78.5 188.7 89.35 M200.35 79.05 L216.75 90.85 223.9 81.0 233.8 88.1 223.55 102.25 223.55 118.75 205.1 117.5 205.1 101.65 191.05 92.1 200.35 79.05 M215.45 123.7 L209.7 136.35 203.65 134.25 205.1 123.7 215.45 123.7 M233.05 144.55 Q226.5 142.45 225.0 141.55 220.65 139.05 220.65 135.05 220.65 130.6 225.8 127.45 231.0 124.25 237.35 124.25 241.2 124.25 243.7 125.0 246.05 125.65 249.05 127.9 L243.1 136.55 Q242.65 134.8 241.45 133.65 240.2 132.6 238.25 132.6 236.05 132.6 234.7 133.5 233.2 134.3 233.2 136.05 233.2 137.45 237.6 138.8 243.3 140.6 245.6 142.35 249.95 145.6 249.95 151.5 249.95 157.25 243.85 161.25 240.95 163.2 237.55 164.1 234.15 165.05 230.2 165.05 226.95 165.05 224.65 164.1 L224.2 163.9 Q221.9 162.75 217.65 159.25 L223.95 148.35 Q225.7 152.7 230.8 152.7 233.9 152.7 235.65 151.5 237.35 150.3 237.35 147.7 237.35 145.95 233.05 144.55 M165.4 138.8 L152.1 139.3 152.1 143.4 159.5 143.05 159.5 147.85 153.6 148.35 153.6 152.1 164.65 152.35 165.4 159.25 144.95 163.5 143.95 126.85 165.7 125.0 165.4 138.8 M188.65 125.3 L203.6 158.45 192.05 165.05 187.9 156.35 181.5 158.2 177.45 166.2 166.45 159.75 179.75 122.65 188.65 125.3 M187.9 149.7 L184.05 136.2 180.8 149.7 187.9 149.7 M88.4 78.65 L94.95 77.85 Q102.05 77.85 106.45 80.65 111.25 83.55 111.25 88.65 111.25 91.7 109.35 94.35 107.4 96.9 103.85 98.95 L118.7 105.75 107.7 118.1 94.8 103.9 91.8 116.6 84.35 116.6 83.2 80.7 Q85.3 79.4 88.4 78.65 M99.25 91.5 Q99.25 89.85 97.9 88.7 96.55 87.5 94.9 87.5 93.95 87.5 93.0 88.1 L94.25 95.95 95.1 95.95 Q96.85 95.95 98.05 94.65 99.25 93.4 99.25 91.5 M140.2 79.3 L155.15 112.35 143.5 119.05 139.45 110.3 133.05 112.1 128.95 120.15 118.0 113.7 131.25 76.55 140.2 79.3 M74.7 79.8 Q76.15 80.15 77.9 81.1 L73.0 89.6 Q71.2 87.6 69.05 87.6 66.75 87.6 64.9 90.15 63.25 92.8 63.25 96.5 63.25 99.25 64.85 100.65 66.5 102.25 69.1 102.25 71.3 102.25 73.1 101.05 74.9 99.7 75.55 97.55 L81.65 111.4 Q75.5 117.15 68.6 117.15 62.3 117.15 57.9 112.1 53.55 107.0 53.55 99.4 53.55 91.05 58.85 85.4 64.1 79.5 71.2 79.5 L74.7 79.8 M49.5 146.3 Q49.5 149.2 51.7 151.25 53.75 153.2 57.05 153.2 59.8 153.2 61.4 151.2 63.05 149.25 63.05 145.75 63.05 143.05 61.65 141.25 59.95 139.2 56.9 139.2 L55.45 139.3 55.45 138.3 Q52.75 138.8 51.1 141.0 49.5 143.15 49.5 146.3 M75.8 143.6 Q75.8 151.15 69.75 156.3 63.6 161.4 55.45 161.4 47.95 161.4 42.5 156.3 37.2 151.25 37.2 143.85 37.2 135.25 42.3 129.2 47.6 122.9 55.45 122.9 L55.45 124.3 Q65.2 124.3 70.65 129.8 75.8 135.1 75.8 143.6 M79.4 126.85 L101.2 125.0 101.0 138.8 87.65 139.3 87.65 143.4 95.05 143.05 95.05 147.85 89.2 148.35 89.2 152.1 100.2 152.35 101.0 159.25 80.5 163.5 79.4 126.85 M139.45 103.65 L135.6 90.15 132.25 103.65 139.45 103.65 M128.05 138.35 Q125.75 136.7 120.35 136.7 L121.15 148.35 Q124.45 148.35 126.85 146.5 129.4 144.75 129.4 142.15 L129.5 141.15 Q129.5 139.3 128.05 138.35 M139.0 136.2 Q140.45 140.2 140.45 144.7 140.45 152.05 132.75 157.35 125.1 162.5 115.6 162.5 L112.2 162.35 109.15 161.7 103.45 127.9 Q106.55 126.15 110.4 125.15 114.15 124.05 118.4 124.05 127.4 124.05 132.75 127.8 137.1 130.95 139.0 136.2" fill="none" stroke="#ffff66" stroke-linecap="round" stroke-linejoin="round" stroke-width="2.0"/>
      <path d="M211.15 173.35 L211.15 176.05 205.95 176.05 205.95 188.6 210.9 188.6 210.9 191.25 205.95 191.25 205.95 205.15 211.15 205.15 211.15 207.8 202.8 207.8 202.8 173.35 211.15 173.35 M225.9 177.35 L225.9 186.05 Q225.9 188.0 225.1 188.9 224.3 189.7 222.45 189.8 L222.45 189.85 Q224.2 189.95 225.1 190.6 226.0 191.35 226.0 193.05 L226.0 203.85 Q226.0 206.3 224.7 207.1 223.65 207.8 221.0 207.8 L215.1 207.8 215.1 173.35 221.0 173.35 Q223.55 173.35 224.55 174.1 225.9 174.95 225.9 177.35 M220.1 176.05 L218.3 176.05 218.3 188.6 220.45 188.6 Q221.6 188.6 222.15 188.1 222.7 187.55 222.7 186.1 L222.7 178.35 Q222.7 177.0 222.05 176.45 L220.1 176.05 M157.5 173.35 L162.55 207.8 159.4 207.8 158.1 198.25 152.6 198.25 151.3 207.8 148.15 207.8 153.2 173.35 157.5 173.35 M155.3 175.75 L152.9 195.6 157.8 195.6 155.4 175.75 155.3 175.75 M170.3 173.35 L173.8 204.2 173.9 204.2 177.4 173.35 182.3 173.35 182.3 207.8 179.6 207.8 179.6 176.05 179.4 176.05 175.8 207.8 171.95 207.8 168.35 176.05 168.15 176.05 168.15 207.8 165.4 207.8 165.4 173.35 170.3 173.35 M190.45 176.65 Q190.0 177.4 190.0 179.0 L190.0 202.2 Q190.0 203.8 190.45 204.5 191.05 205.45 192.4 205.45 193.8 205.45 194.35 204.5 194.8 203.8 194.8 202.2 L194.8 179.0 Q194.8 177.4 194.35 176.65 193.8 175.75 192.4 175.75 191.05 175.75 190.45 176.65 M186.85 178.95 Q186.85 173.1 192.4 173.1 195.4 173.1 196.75 174.75 197.95 176.15 197.95 178.95 L197.95 202.3 Q197.95 205.05 196.75 206.45 195.4 208.1 192.4 208.1 186.85 208.1 186.85 202.3 L186.85 178.95 M218.3 191.25 L218.3 205.15 220.25 205.15 Q221.55 205.15 222.15 204.75 222.85 204.2 222.85 202.8 L222.85 193.35 Q222.85 192.15 222.2 191.75 221.6 191.25 220.45 191.25 L218.3 191.25 M228.85 207.8 L233.9 173.35 238.2 173.35 243.25 207.8 240.1 207.8 238.8 198.25 233.3 198.25 232.0 207.8 228.85 207.8 M254.45 174.3 Q255.6 175.45 255.6 177.9 L255.6 182.3 252.5 182.3 252.5 178.1 Q252.5 176.95 252.1 176.4 251.7 175.75 250.65 175.75 249.6 175.75 249.2 176.4 248.8 176.95 248.8 178.1 L248.8 181.7 Q248.8 183.5 249.55 184.8 L254.55 193.45 Q255.7 195.25 255.7 197.6 L255.7 203.05 Q255.7 205.45 254.35 206.8 253.0 208.1 250.65 208.1 248.05 208.1 246.75 206.9 245.5 205.65 245.5 203.05 L245.5 198.35 248.6 198.35 248.6 202.85 Q248.6 205.45 250.65 205.45 252.6 205.45 252.6 202.85 L252.6 198.0 Q252.6 196.35 251.65 194.7 L247.0 186.65 246.05 184.55 Q245.65 183.5 245.65 182.3 L245.65 178.1 Q245.65 173.1 250.65 173.1 253.25 173.1 254.45 174.3 M236.0 175.75 L233.6 195.6 238.5 195.6 236.1 175.75 236.0 175.75 M37.8 173.6 Q40.85 173.6 42.15 175.15 42.65 175.9 42.95 177.0 L43.15 179.2 43.15 202.5 Q43.15 205.25 42.15 206.55 40.85 208.1 37.8 208.1 L32.45 208.1 32.45 173.6 37.8 173.6 M37.25 176.35 L35.6 176.35 35.6 205.4 37.25 205.4 Q38.8 205.4 39.4 204.85 40.0 204.2 40.0 202.7 L40.0 179.0 Q40.0 177.65 39.5 177.0 L39.4 176.85 Q38.8 176.35 37.25 176.35 M55.45 178.4 L55.55 177.0 Q56.1 173.95 59.2 173.45 L61.7 173.45 Q63.35 173.65 64.2 174.6 65.1 175.45 65.3 177.0 L65.35 178.15 65.35 182.6 62.2 182.6 62.2 178.35 62.05 177.0 61.9 176.7 Q61.5 176.05 60.4 176.05 59.35 176.05 58.95 176.7 L58.8 177.0 58.6 178.35 58.6 182.0 Q58.6 183.85 59.3 185.05 L64.3 193.7 Q65.45 195.5 65.45 197.85 L65.45 203.35 Q65.45 205.75 64.1 207.05 62.75 208.35 60.4 208.35 57.75 208.35 56.55 207.15 55.3 205.9 55.3 203.35 L55.3 198.6 58.4 198.6 58.4 203.15 Q58.4 205.7 60.4 205.7 62.35 205.7 62.35 203.15 L62.35 198.3 Q62.35 196.65 61.45 195.05 L56.8 186.95 55.8 184.85 Q55.45 183.85 55.45 182.6 L55.45 178.4 M51.3 173.6 L51.3 208.1 48.15 208.1 48.15 173.6 51.3 173.6 M139.35 173.6 L139.35 176.35 135.75 176.35 135.75 208.1 132.65 208.1 132.65 176.35 129.1 176.35 129.1 173.6 139.35 173.6 M117.2 177.45 L117.2 208.1 114.4 208.1 114.4 173.6 118.95 173.6 122.9 203.15 122.95 203.15 122.95 173.6 125.7 173.6 125.7 208.1 121.15 208.1 117.25 177.45 117.2 177.45 M72.55 178.25 L72.55 203.5 Q72.55 205.7 74.35 205.7 76.1 205.7 76.1 203.5 L76.1 198.7 79.25 198.7 79.25 203.6 Q79.25 205.8 78.05 207.1 76.75 208.35 74.35 208.35 71.9 208.35 70.65 207.1 69.45 205.8 69.45 203.6 L69.45 178.1 69.55 177.0 Q69.75 175.55 70.65 174.65 71.6 173.7 73.2 173.45 L75.5 173.45 Q77.1 173.7 78.05 174.65 78.9 175.55 79.2 177.0 L79.25 178.1 79.25 182.65 76.1 182.65 76.1 178.25 75.85 177.0 Q75.5 176.05 74.35 176.05 73.15 176.05 72.8 177.0 72.55 177.5 72.55 178.25 M83.85 175.0 Q84.9 173.7 86.95 173.45 L89.5 173.45 Q92.75 173.95 93.5 177.0 L93.75 179.2 93.75 202.55 Q93.75 208.35 88.2 208.35 85.2 208.35 83.85 206.7 82.7 205.3 82.7 202.55 L82.7 179.2 82.9 177.0 Q83.15 175.8 83.85 175.0 M86.25 176.9 L86.25 177.0 Q85.85 177.75 85.85 179.3 L85.85 202.45 Q85.85 204.05 86.25 204.8 86.8 205.7 88.2 205.7 89.6 205.7 90.15 204.8 90.6 204.05 90.6 202.45 L90.6 179.3 Q90.6 177.75 90.2 177.0 L90.15 176.9 Q89.6 176.05 88.2 176.05 86.8 176.05 86.25 176.9 M101.75 173.6 L101.75 202.45 Q101.75 204.25 102.35 205.0 102.9 205.7 104.15 205.7 105.4 205.7 105.95 205.0 106.5 204.25 106.5 202.45 L106.5 173.6 109.65 173.6 109.65 203.5 Q109.65 206.05 107.9 207.3 106.45 208.35 104.1 208.35 101.85 208.35 100.4 207.3 98.6 206.05 98.6 203.5 L98.6 173.6 101.75 173.6" fill="#0526a5" fill-rule="evenodd" stroke="none"/>
    </g>
    <radialGradient cx="0" cy="0" fx="32.0" fy="0" gradientTransform="matrix(0.1642, -0.1642, 0.1642, 0.1642, 143.95, 170.2)" gradientUnits="userSpaceOnUse" id="gradient0" r="819.2" spreadMethod="pad">
      <stop offset="0.0" stop-color="#bbddff"/>
      <stop offset="1.0" stop-color="#8bcffc"/>
    </radialGradient>
    <linearGradient gradientTransform="matrix(0.0, -0.0227, 0.0266, 0.0, 185.0, 144.45)" gradientUnits="userSpaceOnUse" id="gradient1" spreadMethod="pad" x1="-819.2" x2="819.2">
      <stop offset="0.0" stop-color="#910000"/>
      <stop offset="1.0" stop-color="#f15a5a"/>
    </linearGradient>
    <linearGradient gradientTransform="matrix(0.0, -0.0261, 0.0242, 0.0, 212.35, 98.95)" gradientUnits="userSpaceOnUse" id="gradient2" spreadMethod="pad" x1="-819.2" x2="819.2">
      <stop offset="0.0" stop-color="#910000"/>
      <stop offset="1.0" stop-color="#f15a5a"/>
    </linearGradient>
    <linearGradient gradientTransform="matrix(0.0026, 0.0, 0.0, 1.0E-4, 123.55, 166.85)" gradientUnits="userSpaceOnUse" id="gradient3" spreadMethod="pad" x1="-819.2" x2="819.2">
      <stop offset="0.0" stop-color="#dc7a1b"/>
      <stop offset="1.0" stop-color="#eeff4d"/>
    </linearGradient>
    <linearGradient gradientTransform="matrix(0.0029, 0.0, 0.0, 1.0E-4, 149.25, 166.85)" gradientUnits="userSpaceOnUse" id="gradient4" spreadMethod="pad" x1="-819.2" x2="819.2">
      <stop offset="0.0" stop-color="#dc7a1b"/>
      <stop offset="1.0" stop-color="#eeff4d"/>
    </linearGradient>
    <linearGradient gradientTransform="matrix(0.0028, 0.0, 0.0, 1.0E-4, 97.8, 166.85)" gradientUnits="userSpaceOnUse" id="gradient5" spreadMethod="pad" x1="-819.2" x2="819.2">
      <stop offset="0.0" stop-color="#dc7a1b"/>
      <stop offset="1.0" stop-color="#eeff4d"/>
    </linearGradient>
  </defs>
</svg>
