<?xml version="1.0" encoding="UTF-8" standalone="no"?>
<svg xmlns:xlink="http://www.w3.org/1999/xlink" height="300.0px" width="300.0px" xmlns="http://www.w3.org/2000/svg">
  <g transform="matrix(1.0, 0.0, 0.0, 1.0, 0.0, 0.0)">
    <use height="218.85" transform="matrix(1.0, 0.0, 0.0, 1.0, -0.05, 58.0)" width="295.5" xlink:href="#sprite0"/>
  </g>
  <defs>
    <g id="sprite0" transform="matrix(1.0, 0.0, 0.0, 1.0, 149.1, 109.4)">
      <use height="218.85" transform="matrix(1.0, 0.0, 0.0, 1.0, -149.1, -109.4)" width="295.5" xlink:href="#shape0"/>
    </g>
    <g id="shape0" transform="matrix(1.0, 0.0, 0.0, 1.0, 149.1, 109.4)">
      <path d="M-84.35 84.95 L-84.6 85.3 -84.85 85.45 Q-86.05 84.35 -88.15 83.8 L-92.15 83.6 -93.15 85.6 -95.0 90.5 -95.05 91.65 -94.35 92.35 -92.65 92.9 -89.7 93.4 -88.25 93.45 Q-88.1 93.45 -88.05 93.75 L-88.0 94.4 -88.15 95.65 -88.6 96.05 -89.6 96.0 -91.3 95.65 -96.5 94.3 -97.6 93.8 Q-98.1 93.35 -95.75 87.1 L-94.45 83.85 Q-92.85 80.45 -87.7 81.75 -85.8 82.25 -83.7 83.3 L-84.35 84.95" fill="#000000" fill-rule="evenodd" stroke="none"/>
      <path d="M-80.75 86.35 L-81.9 86.3 Q-82.05 85.95 -81.45 84.15 L-79.1 84.75 -73.85 85.85 -74.3 87.85 -76.2 87.45 -76.35 87.8 Q-76.8 89.25 -76.05 93.55 -75.4 98.0 -74.55 99.1 -74.75 99.45 -75.65 99.75 L-77.65 100.4 -77.9 99.65 -78.1 97.55 -78.3 96.8 -81.2 95.95 Q-84.65 95.15 -85.55 98.05 L-88.05 96.7 -83.65 91.85 -81.4 89.1 -79.85 86.65 -80.75 86.35 M-78.85 89.6 Q-81.8 92.4 -82.25 93.6 L-78.9 94.4 -78.6 93.9 -78.55 93.25 -78.85 89.6" fill="#000000" fill-rule="evenodd" stroke="none"/>
      <path d="M-63.55 99.5 Q-63.2 99.25 -62.9 98.0 L-61.65 89.45 -60.05 90.05 -59.6 90.2 -58.85 90.1 -62.15 104.45 -63.0 104.4 -64.4 104.1 -65.15 104.0 Q-66.15 100.4 -68.4 95.05 -68.85 95.25 -69.4 97.3 L-70.65 102.95 -72.25 102.75 -72.85 102.55 -73.55 102.45 Q-72.85 101.1 -71.7 96.7 L-69.5 88.25 -69.35 87.85 -67.9 88.6 -66.95 88.65 -65.65 94.2 -64.7 97.1 -63.55 99.5" fill="#000000" fill-rule="evenodd" stroke="none"/>
      <path d="M-47.1 99.35 L-47.65 101.0 -49.0 104.05 -50.15 104.2 -51.25 104.2 -58.65 103.1 Q-59.45 103.0 -59.25 102.15 L-59.15 101.8 -58.6 100.5 -57.15 95.25 -56.25 91.65 Q-55.8 89.8 -55.9 88.95 -52.7 90.1 -46.9 91.2 L-46.95 98.2 -47.1 99.35 M-49.85 100.9 L-49.4 99.55 Q-48.9 96.9 -49.1 92.85 -52.45 91.65 -53.5 91.55 -53.85 91.45 -54.15 91.9 L-54.85 93.4 -55.7 96.4 -56.8 101.15 Q-56.6 101.3 -56.5 101.4 L-53.6 102.0 -51.8 102.05 -50.6 101.7 -49.85 100.9" fill="#000000" fill-rule="evenodd" stroke="none"/>
      <path d="M-44.35 91.4 L-44.6 90.1 -41.9 90.7 -41.75 91.75 -40.8 95.25 -40.45 96.3 -38.4 93.6 -37.2 91.45 -34.6 92.55 -40.8 100.15 -43.05 102.9 -44.75 105.3 -47.7 104.7 -42.25 98.35 -43.95 93.0 -44.35 91.4" fill="#000000" fill-rule="evenodd" stroke="none"/>
      <path d="M-18.25 94.55 L-18.35 94.9 -18.55 95.1 Q-20.0 94.25 -22.15 94.15 -24.4 94.0 -26.05 94.65 L-26.5 96.8 -26.85 100.05 -27.0 102.0 -26.8 103.05 -25.9 103.65 -24.15 103.85 -21.15 103.75 -19.8 103.55 -19.5 103.8 -19.3 104.4 -19.2 105.15 -19.15 105.7 -19.45 106.1 -20.4 106.25 -22.15 106.25 -24.8 106.1 -27.5 105.85 -28.65 105.65 Q-29.25 105.3 -28.55 98.75 L-28.15 95.35 Q-27.55 91.75 -22.2 92.05 L-18.05 92.75 -18.25 94.55" fill="#000000" fill-rule="evenodd" stroke="none"/>
      <path d="M-5.6 92.95 Q-5.05 95.0 -5.1 97.85 L-5.3 100.85 -5.65 103.85 -6.35 106.05 -6.45 106.95 -6.45 107.25 Q-8.3 107.95 -10.65 107.85 -14.2 107.75 -16.9 106.3 -17.3 102.05 -17.2 99.65 -16.9 95.35 -14.45 91.95 L-12.8 91.95 -10.25 92.1 -8.0 92.35 -7.45 92.45 -5.6 92.95 M-7.7 94.6 L-11.7 93.95 -12.45 93.95 -13.2 94.05 Q-14.85 97.9 -15.0 100.95 -15.1 103.75 -13.85 104.8 L-10.55 105.2 -8.85 104.9 -8.4 103.95 -8.0 102.1 -7.7 99.75 -7.55 97.25 Q-7.5 95.3 -7.7 94.6" fill="#000000" fill-rule="evenodd" stroke="none"/>
      <path d="M6.7 93.0 L7.0 94.1 7.2 96.05 8.15 105.65 8.4 107.5 Q8.45 108.2 6.4 108.3 L1.6 102.6 0.65 101.1 -0.6 99.35 Q-1.3 98.6 -2.05 98.2 L-2.35 99.75 -2.3 101.6 -1.6 108.65 -3.05 108.55 -4.3 108.6 -4.65 93.75 -3.55 93.6 -2.5 93.55 -2.25 93.55 -0.9 95.9 1.45 99.05 3.1 101.0 5.0 102.75 5.45 102.65 5.2 100.15 4.45 94.9 4.25 93.2 6.7 93.0" fill="#000000" fill-rule="evenodd" stroke="none"/>
      <path d="M10.55 95.65 Q9.95 95.75 8.75 96.15 L8.85 93.85 19.95 93.25 20.25 95.2 20.25 95.75 18.0 95.3 17.25 95.25 16.65 95.35 16.05 95.5 Q15.35 95.8 15.45 98.5 L15.95 108.55 14.5 108.35 12.55 108.3 12.75 107.05 13.15 95.6 12.05 95.45 10.55 95.65" fill="#000000" fill-rule="evenodd" stroke="none"/>
      <path d="M31.85 101.0 L29.2 101.3 Q28.5 101.4 28.6 101.6 L28.9 102.4 29.55 103.6 31.45 106.15 32.4 107.05 33.05 107.45 Q33.15 108.15 30.4 109.45 L28.85 106.35 27.4 103.75 26.05 101.95 Q25.4 101.3 24.75 101.35 L24.3 101.45 24.0 101.8 23.95 102.45 24.0 103.45 Q24.2 106.15 25.05 106.35 24.8 106.75 24.0 106.75 L21.85 106.8 21.55 96.75 Q21.3 93.9 20.7 91.7 L22.0 91.55 29.35 91.45 Q31.15 91.35 31.65 95.65 L31.85 101.0 M29.95 96.65 Q29.75 94.85 29.25 93.6 L27.45 93.55 24.9 93.7 23.75 93.8 23.0 93.95 23.5 99.05 24.5 99.3 25.45 99.35 29.25 99.15 Q30.25 99.05 29.95 96.65" fill="#000000" fill-rule="evenodd" stroke="none"/>
      <path d="M42.65 104.7 L42.15 103.45 41.2 101.45 38.7 101.7 36.35 101.8 36.05 102.7 35.75 105.55 33.95 105.35 33.45 105.5 35.05 90.65 38.55 90.75 38.95 92.65 39.5 94.3 40.3 95.95 45.25 103.65 44.7 103.9 42.65 104.7 M39.7 98.35 L39.4 97.55 37.95 95.2 36.95 93.55 36.4 99.35 Q36.8 99.75 37.65 99.65 L38.75 99.45 39.4 99.25 39.7 98.85 39.7 98.35" fill="#000000" fill-rule="evenodd" stroke="none"/>
      <path d="M57.6 99.95 Q58.2 102.75 56.35 104.25 L49.85 104.8 48.7 104.9 Q47.0 105.1 46.5 105.5 L46.25 104.25 45.75 100.95 44.2 89.8 54.4 88.95 Q55.55 90.2 55.95 91.85 L56.1 92.85 56.15 94.0 55.95 95.2 55.55 96.25 56.25 97.05 56.85 98.0 57.3 98.95 57.6 99.95 M53.6 91.75 L48.1 91.8 47.15 91.85 Q46.85 92.45 47.3 94.8 L47.55 96.15 51.65 95.95 53.1 95.65 53.85 95.5 54.0 95.1 54.0 94.3 53.8 93.15 53.6 91.75 M48.5 102.75 L51.35 102.85 54.2 102.6 Q55.65 102.35 54.7 98.1 54.7 97.8 53.95 97.7 L52.3 97.7 48.65 98.0 48.0 98.2 Q47.85 98.35 47.85 98.8 L48.5 102.75" fill="#000000" fill-rule="evenodd" stroke="none"/>
      <path d="M69.85 99.85 L67.85 100.8 67.25 99.6 66.1 97.7 63.65 98.05 61.3 98.35 61.05 99.25 61.0 102.15 59.25 102.05 58.7 102.2 58.9 87.35 62.45 87.2 63.0 89.05 63.75 90.7 64.7 92.25 65.95 93.95 66.3 94.45 70.4 99.55 69.85 99.85 M63.2 92.9 L61.1 90.1 61.1 95.9 62.4 96.15 63.45 95.85 64.05 95.55 64.35 95.2 64.3 94.65 63.9 93.9 63.2 92.9" fill="#000000" fill-rule="evenodd" stroke="none"/>
      <path d="M78.2 83.95 L78.75 85.0 83.15 95.95 83.95 97.7 Q84.15 98.35 82.2 98.95 L77.55 95.75 74.45 93.1 72.75 91.65 Q71.95 91.1 71.05 90.85 70.95 91.45 71.2 92.45 L71.6 93.8 74.4 100.9 72.95 101.1 71.75 101.4 67.25 87.1 68.25 86.7 69.3 86.45 69.5 86.4 70.45 87.4 74.7 91.0 76.85 92.5 79.25 93.85 79.6 93.6 78.7 91.25 76.5 86.3 75.8 84.7 78.2 83.95" fill="#000000" fill-rule="evenodd" stroke="none"/>
      <path d="M90.45 82.1 L93.3 86.95 94.05 88.35 94.6 89.45 94.95 91.15 95.3 94.4 94.35 94.95 93.35 95.35 86.05 97.2 Q85.25 97.4 85.0 96.6 L84.9 96.25 84.75 94.85 83.3 89.6 82.2 86.0 Q81.55 84.05 81.1 83.5 L90.45 82.1 M84.25 85.45 L84.4 87.1 85.2 90.1 86.75 94.75 87.15 94.9 90.1 94.3 91.7 93.7 92.65 92.9 92.9 91.85 92.6 90.5 Q91.7 88.15 89.35 84.4 L84.6 84.9 Q84.3 85.0 84.25 85.45" fill="#000000" fill-rule="evenodd" stroke="none"/>
      <path d="M-73.1 7.95 Q-70.15 3.9 -66.8 0.65 L-64.0 -1.75 50.3 -3.1 55.7 0.0 Q62.15 4.15 67.3 9.5 74.9 17.4 78.5 26.65 L101.15 4.5 101.15 5.25 Q101.2 6.1 101.6 7.0 103.0 9.75 107.45 11.3 112.55 13.0 114.55 17.75 116.5 22.15 114.4 25.65 L110.0 31.55 Q108.05 34.45 110.4 36.25 112.75 38.05 110.2 43.25 108.9 45.9 107.1 48.15 L81.25 37.35 Q82.05 43.35 81.35 49.8 78.75 73.75 48.45 82.1 30.6 87.0 2.7 86.1 -7.8 85.8 -20.45 83.75 -37.4 81.1 -50.55 76.3 -77.05 66.65 -83.0 50.7 L-110.25 64.65 Q-110.25 63.65 -111.0 62.1 -112.5 58.95 -116.2 56.05 -120.3 52.85 -119.6 48.3 -119.0 44.4 -115.55 41.5 -112.75 39.2 -113.05 35.2 -113.3 31.7 -115.55 28.3 -117.2 25.85 -115.55 22.55 L-113.55 19.7 -84.65 39.2 -84.5 37.25 Q-82.6 20.9 -73.1 7.95" fill="#4fcc8c" fill-rule="evenodd" stroke="none"/>
      <path d="M53.6 41.5 L55.85 44.2 Q58.4 47.5 59.45 50.6 62.95 60.5 50.95 64.65 39.0 68.8 33.85 59.55 32.25 56.65 31.5 52.75 L31.2 49.65 Q41.6 46.6 51.85 42.15 L53.6 41.5" fill="#ff9ff8" fill-rule="evenodd" stroke="none"/>
      <path d="M42.9 26.25 Q39.1 25.75 36.7 23.8 34.2 21.85 34.5 19.7 34.85 17.55 37.75 16.45 40.6 15.3 44.4 15.85 48.2 16.4 50.65 18.35 53.15 20.25 52.85 22.4 52.5 24.55 49.65 25.65 46.7 26.8 42.9 26.25 M-58.75 19.7 Q-58.75 17.7 -56.2 16.3 -53.7 14.85 -50.15 14.85 -46.6 14.85 -44.05 16.3 -41.55 17.7 -41.55 19.7 -41.55 21.75 -44.05 23.2 -46.6 24.6 -50.15 24.6 -53.7 24.6 -56.2 23.2 -58.75 21.75 -58.75 19.7" fill="#000000" fill-rule="evenodd" stroke="none"/>
      <path d="M41.05 46.8 L48.3 61.35" fill="none" stroke="#eb33db" stroke-linecap="round" stroke-linejoin="round" stroke-width="3.0"/>
      <path d="M-59.7 50.1 L-50.6 52.6 Q-38.95 55.2 -26.0 56.0 3.4 57.75 31.2 49.65 41.6 46.6 51.85 42.15 L53.3 41.6" fill="none" stroke="#296b49" stroke-linecap="round" stroke-linejoin="round" stroke-width="3.0"/>
      <path d="M146.4 -24.05 Q145.95 0.8 139.55 -1.25 64.9 -2.4 5.55 -0.15 -70.8 2.75 -135.95 11.6 -134.7 -1.7 -139.45 -14.6 -155.35 -48.6 -145.05 -52.45 -91.45 -50.3 -43.85 -50.1 -43.55 -54.6 -44.05 -62.4 -45.0 -78.05 -49.15 -94.6 -54.35 -106.65 -46.6 -108.85 -40.8 -110.55 -23.4 -106.8 L-7.4 -103.2 9.75 -99.75 Q29.95 -96.45 42.05 -99.2 39.15 -85.55 37.35 -67.0 36.4 -57.7 36.1 -51.15 91.25 -52.95 142.6 -57.8 L146.4 -24.05" fill="#eb33db" fill-rule="evenodd" stroke="none"/>
      <path d="M-24.25 -79.3 L-24.6 -71.05 -24.55 -64.9 Q-24.3 -61.2 -23.7 -61.15 L-9.65 -60.9 -9.85 -58.5 -9.85 -55.7 -11.4 -55.4 -14.15 -55.4 -24.35 -55.9 -26.5 -55.55 -30.2 -54.5 -30.2 -56.75 -29.9 -80.5 Q-30.4 -88.35 -34.6 -88.15 -36.25 -88.0 -38.65 -86.5 L-38.6 -91.85 Q-35.15 -92.05 -21.95 -91.85 -23.65 -90.45 -24.25 -79.3" fill="#ffffff" fill-rule="evenodd" stroke="none"/>
      <path d="M-4.6 -77.35 L-4.15 -68.6 -3.4 -62.15 -2.7 -58.1 -2.35 -56.55 -6.75 -56.6 -7.05 -58.4 -7.4 -61.95 -8.4 -78.6 Q-8.45 -79.9 -8.0 -80.6 L-7.0 -81.55 -5.75 -81.85 -4.6 -82.0 -4.6 -77.35" fill="#ffffff" fill-rule="evenodd" stroke="none"/>
      <path d="M-2.25 -78.2 L-1.95 -79.55 -1.7 -81.45 -1.6 -86.45 -1.65 -86.85 3.35 -86.15 Q1.65 -81.25 1.2 -77.45 0.5 -78.0 -0.3 -78.15 L-2.25 -78.2" fill="#ffffff" fill-rule="evenodd" stroke="none"/>
      <path d="M23.0 -59.8 L23.15 -57.65 19.05 -57.15 13.0 -57.1 Q11.5 -57.05 7.95 -55.75 L7.2 -70.75 5.85 -80.95 5.3 -83.85 7.05 -83.8 12.3 -84.25 Q10.95 -83.0 11.25 -71.15 11.4 -65.95 11.75 -63.45 12.1 -61.0 12.55 -61.0 L23.05 -61.55 23.0 -59.8" fill="#ffffff" fill-rule="evenodd" stroke="none"/>
      <path d="M-98.85 -36.4 L-99.05 -35.45 -99.55 -34.9 Q-103.25 -36.85 -108.8 -36.7 -114.55 -36.55 -118.55 -34.4 L-118.8 -31.15 Q-118.6 -25.4 -112.15 -25.55 L-107.35 -26.05 -104.55 -26.35 -102.55 -26.55 Q-99.65 -26.6 -97.85 -25.75 L-97.25 -24.55 -96.05 -19.15 -95.85 -16.95 Q-95.65 -11.2 -98.45 -8.1 -101.15 -5.05 -106.65 -4.85 -112.8 -4.75 -122.05 -6.3 L-122.0 -11.3 -121.75 -12.3 -121.3 -12.9 Q-116.0 -10.1 -108.45 -10.3 -104.0 -10.4 -101.25 -11.85 -100.95 -13.6 -101.0 -15.05 -101.1 -20.85 -107.7 -20.7 L-112.5 -20.25 -115.25 -19.95 -117.25 -19.8 Q-120.3 -19.75 -121.9 -20.55 -123.5 -21.35 -123.7 -27.9 -123.8 -31.35 -123.25 -33.85 -122.7 -36.4 -121.15 -38.15 -119.6 -39.9 -116.85 -40.75 -114.15 -41.65 -109.65 -41.85 L-104.5 -41.65 -98.75 -40.9 -98.85 -36.4" fill="#ffffff" fill-rule="evenodd" stroke="none"/>
      <path d="M-96.0 -39.6 L-96.1 -40.8 -89.05 -40.95 -84.7 -41.55 -82.45 -41.35 Q-81.4 -41.15 -80.7 -40.45 -79.95 -39.8 -79.35 -38.55 -78.7 -37.35 -78.1 -35.35 L-76.15 -29.25 -74.2 -24.1 -72.35 -20.55 Q-71.55 -19.25 -70.9 -19.25 -70.7 -19.25 -70.15 -20.6 L-68.75 -24.1 -63.0 -41.15 -57.0 -41.25 Q-56.4 -41.35 -55.5 -42.0 -54.55 -40.75 -54.4 -34.25 L-54.45 -27.2 -54.15 -22.1 -53.3 -16.05 -51.35 -5.05 -52.9 -4.85 -54.75 -4.9 -55.85 -4.95 -56.7 -4.95 -58.85 -4.65 -59.3 -29.15 Q-59.4 -33.0 -60.65 -32.95 L-61.25 -32.85 -61.9 -30.1 -68.3 -6.35 -68.95 -3.6 -71.2 -2.8 -72.05 -5.9 -74.35 -11.75 -82.6 -29.85 Q-83.85 -27.9 -83.9 -17.9 L-83.65 -4.8 Q-83.6 -2.25 -84.45 -2.25 L-85.75 -2.45 -87.15 -2.6 -89.6 -2.1 -89.75 -3.8 -89.85 -5.6 -89.8 -8.55 -89.55 -12.7 -88.9 -25.1 -88.45 -30.4 Q-88.2 -32.75 -87.85 -33.3 -87.85 -34.8 -88.75 -35.5 -89.6 -36.1 -91.95 -36.05 -94.7 -36.0 -95.95 -34.8 L-96.0 -39.6" fill="#ffffff" fill-rule="evenodd" stroke="none"/>
      <path d="M-24.8 -41.35 L-24.35 -36.15 -25.25 -36.05 -29.2 -36.0 -29.35 -35.1 Q-29.25 -31.5 -24.15 -21.2 -18.95 -10.6 -16.5 -8.55 -16.75 -7.55 -18.5 -6.35 L-22.7 -3.55 Q-23.3 -4.15 -23.8 -5.3 L-25.9 -10.35 -26.9 -11.95 -31.35 -12.35 -34.3 -12.45 Q-42.85 -12.25 -42.65 -4.55 L-45.4 -5.25 -49.4 -6.2 -43.3 -20.8 Q-41.4 -25.35 -40.35 -28.85 -39.25 -32.3 -38.65 -35.8 L-41.0 -35.95 -43.85 -35.4 Q-44.5 -36.2 -44.6 -40.85 L-38.3 -40.85 -31.8 -41.0 -27.7 -41.2 -24.8 -41.35 M-29.85 -18.9 Q-29.85 -19.55 -30.15 -20.5 L-33.85 -29.25 Q-38.55 -20.6 -38.55 -17.35 L-30.05 -17.6 Q-29.8 -18.45 -29.85 -18.9" fill="#ffffff" fill-rule="evenodd" stroke="none"/>
      <path d="M6.5 -39.4 L6.4 -38.4 6.1 -37.85 Q2.6 -39.4 -2.35 -38.8 -7.45 -38.15 -10.85 -35.7 -10.95 -33.65 -10.65 -30.2 L-9.85 -22.05 -9.2 -17.2 Q-8.8 -15.35 -8.1 -14.5 -7.35 -13.65 -6.0 -13.55 L-2.15 -13.75 Q0.85 -14.1 4.25 -15.2 L7.2 -16.3 7.85 -15.75 8.6 -14.35 9.5 -11.2 Q9.55 -10.5 9.05 -10.05 8.45 -9.6 7.05 -9.25 L3.35 -8.6 -2.4 -7.85 -8.2 -7.25 -10.85 -7.35 Q-12.3 -7.95 -14.25 -24.5 L-15.15 -33.05 Q-15.75 -42.4 -3.65 -43.9 0.8 -44.45 6.2 -43.85 L6.5 -39.4" fill="#ffffff" fill-rule="evenodd" stroke="none"/>
      <path d="M42.05 -46.4 Q42.7 -46.4 43.65 -45.6 L45.55 -43.8 47.75 -41.2 Q47.9 -40.65 41.95 -35.8 36.0 -30.95 36.05 -29.35 36.05 -28.9 37.2 -26.45 L40.3 -20.5 Q41.55 -18.1 47.65 -9.35 L41.05 -6.05 37.55 -15.3 35.5 -19.8 33.45 -22.95 Q32.4 -24.2 31.5 -24.15 30.65 -24.15 29.6 -23.25 L27.8 -21.2 26.45 -18.6 Q25.9 -17.2 25.95 -16.35 26.05 -13.0 27.2 -8.7 L24.95 -8.35 22.4 -8.25 21.7 -8.25 19.05 -8.2 Q20.65 -8.9 20.25 -23.9 L20.0 -30.7 19.65 -38.7 Q17.3 -39.65 14.85 -39.6 L10.75 -39.0 10.9 -42.7 10.6 -44.45 15.25 -44.3 18.35 -44.15 25.95 -43.9 25.85 -31.6 25.85 -28.2 Q28.0 -28.7 35.0 -36.5 41.7 -44.15 41.65 -46.15 L41.6 -46.3 42.05 -46.4" fill="#ffffff" fill-rule="evenodd" stroke="none"/>
      <path d="M79.35 -44.15 L78.2 -42.35 76.3 -39.6 71.75 -32.85 69.7 -29.75 68.4 -27.2 67.75 -24.5 67.15 -20.2 66.65 -15.5 66.5 -11.75 Q66.55 -9.9 66.9 -9.1 L62.75 -9.1 58.95 -8.55 59.65 -10.5 60.35 -13.45 61.1 -17.0 61.8 -20.65 62.2 -23.8 62.35 -26.05 Q62.35 -26.85 61.65 -28.3 L59.95 -31.65 55.3 -39.65 53.2 -43.3 51.9 -46.0 54.35 -45.7 59.15 -45.6 Q59.5 -44.25 60.45 -42.35 L62.5 -38.4 64.45 -35.0 65.5 -33.25 67.75 -36.9 69.85 -40.4 71.45 -43.55 72.4 -46.0 79.35 -44.15" fill="#ffffff" fill-rule="evenodd" stroke="none"/>
      <path d="M82.65 -48.75 L84.2 -48.65 88.0 -48.0 89.25 -47.85 Q87.05 -41.35 86.4 -36.3 85.3 -37.05 84.4 -37.2 L81.8 -37.25 82.25 -39.05 82.55 -41.6 82.75 -44.25 82.8 -46.5 82.65 -48.75" fill="#ffffff" fill-rule="evenodd" stroke="none"/>
      <path d="M117.2 -46.3 L116.9 -42.1 116.6 -40.6 116.2 -39.75 Q110.5 -42.95 102.55 -42.75 98.55 -42.65 96.15 -41.45 95.8 -39.35 95.8 -37.9 95.9 -35.0 97.55 -33.65 99.3 -32.35 103.15 -32.45 L104.75 -32.55 109.35 -32.9 111.05 -33.0 114.55 -32.85 Q115.85 -32.7 116.65 -31.95 117.4 -31.2 117.65 -29.85 L118.0 -26.2 Q118.1 -22.65 117.6 -19.8 117.15 -17.0 115.75 -15.15 114.35 -13.25 111.7 -12.25 109.1 -11.25 104.8 -11.15 99.55 -11.05 92.65 -12.5 L92.9 -17.05 93.15 -17.95 93.65 -18.5 Q97.65 -16.25 103.8 -16.45 108.9 -16.55 112.65 -18.35 L113.0 -21.95 Q112.95 -24.85 111.25 -26.15 109.65 -27.5 105.8 -27.4 L97.85 -26.85 Q94.15 -26.75 92.35 -27.7 92.1 -27.85 91.8 -28.8 L91.3 -31.0 90.8 -33.55 90.6 -35.8 Q90.45 -41.9 93.15 -44.95 95.85 -48.1 101.15 -48.25 107.25 -48.4 117.2 -46.3" fill="#ffffff" fill-rule="evenodd" stroke="none"/>
    </g>
  </defs>
</svg>
