<?xml version="1.0" encoding="UTF-8" standalone="no"?>
<svg xmlns:xlink="http://www.w3.org/1999/xlink" height="300.0px" width="300.0px" xmlns="http://www.w3.org/2000/svg">
  <g transform="matrix(1.0, 0.0, 0.0, 1.0, 0.0, 0.0)">
    <use height="51.5" transform="matrix(0.5534, 0.0, 0.0, 0.5534, 130.6278, 175.4502)" width="297.75" xlink:href="#sprite0"/>
    <use height="89.35" transform="matrix(1.0, 0.0, 0.0, 1.0, 1.0, 112.75)" width="300.75" xlink:href="#sprite1"/>
  </g>
  <defs>
    <g id="sprite0" transform="matrix(1.0, 0.0, 0.0, 1.0, 148.85, 25.75)">
      <use height="51.5" transform="matrix(1.0, 0.0, 0.0, 1.0, -148.85, -25.75)" width="297.75" xlink:href="#shape0"/>
    </g>
    <g id="shape0" transform="matrix(1.0, 0.0, 0.0, 1.0, 148.85, 25.75)">
      <path d="M-131.5 4.0 Q-127.65 4.0 -125.4 4.95 -121.95 6.3 -121.95 9.5 L-121.95 12.1 Q-121.95 15.05 -125.05 16.4 -127.4 17.4 -130.75 17.4 L-137.3 17.4 -124.05 23.05 Q-123.0 23.5 -123.0 24.45 -123.0 25.75 -125.3 25.75 L-126.8 25.65 -144.9 17.9 -144.9 24.35 Q-144.9 25.75 -146.3 25.75 L-148.0 25.65 Q-148.85 25.35 -148.85 24.35 L-148.85 5.4 Q-148.85 4.0 -147.45 4.0 L-131.5 4.0 M-125.95 9.4 Q-125.95 7.2 -131.5 7.2 L-144.9 7.2 -144.9 14.2 -130.8 14.2 Q-125.95 14.2 -125.95 12.15 L-125.95 9.4 M-100.05 20.45 L-100.05 13.85 Q-100.05 11.8 -104.7 11.8 L-110.8 11.8 -113.9 12.2 Q-115.8 12.85 -115.8 14.1 L-115.8 20.45 Q-115.8 21.7 -113.85 22.2 L-110.8 22.6 -104.65 22.6 -101.85 22.15 Q-100.05 21.55 -100.05 20.45 M-96.2 14.1 L-96.2 20.45 Q-96.2 23.35 -99.1 24.7 -101.2 25.75 -104.6 25.75 L-110.85 25.75 Q-113.95 25.75 -116.5 24.7 -119.6 23.25 -119.6 20.45 L-119.6 14.1 Q-119.6 11.25 -116.5 9.75 -114.2 8.6 -110.85 8.6 L-104.6 8.6 Q-96.2 8.6 -96.2 14.1 M-79.15 22.6 Q-73.3 22.6 -73.3 20.4 L-73.3 11.9 -84.65 11.9 Q-89.7 11.9 -89.7 14.15 L-89.7 20.25 Q-89.7 21.9 -87.8 22.35 L-84.55 22.6 -79.15 22.6 M-70.3 4.15 Q-69.55 4.45 -69.55 5.4 L-69.55 20.5 Q-69.55 23.25 -72.95 24.65 -75.3 25.75 -78.75 25.75 L-84.5 25.75 Q-93.25 25.75 -93.5 20.9 L-93.6 18.65 -93.45 14.1 Q-93.15 8.75 -84.55 8.75 L-73.3 8.75 -73.3 5.4 Q-73.3 4.0 -71.9 4.0 L-70.3 4.15 M-47.35 15.75 L-47.35 13.65 Q-47.35 11.75 -55.0 11.75 L-61.2 12.05 Q-63.6 12.5 -63.6 13.8 L-63.6 15.75 -47.35 15.75 M-58.35 8.6 L-51.3 8.6 Q-48.4 8.6 -46.4 9.6 -43.7 10.8 -43.7 13.35 L-43.7 17.5 Q-43.7 19.05 -44.75 19.05 L-63.45 19.05 -63.45 19.15 Q-63.45 21.55 -60.6 22.3 L-58.8 22.5 -47.95 22.6 Q-46.55 22.6 -46.55 24.35 -46.55 25.75 -47.95 25.75 L-60.7 25.65 Q-63.8 25.3 -65.3 24.15 -67.35 22.55 -67.35 20.35 L-67.35 14.05 Q-67.35 11.05 -64.15 9.65 -61.95 8.6 -58.35 8.6 M-18.25 13.45 L-18.25 24.35 Q-18.25 25.75 -19.65 25.75 L-21.3 25.65 Q-22.05 25.35 -22.05 24.35 L-22.05 13.45 Q-22.05 12.3 -24.0 11.9 L-25.05 11.8 -34.95 11.85 -36.05 11.95 Q-37.85 12.35 -37.85 13.45 L-37.85 24.35 Q-37.85 25.75 -39.25 25.75 L-40.85 25.65 Q-41.65 25.35 -41.65 24.35 L-41.65 13.5 Q-41.65 8.6 -33.0 8.6 L-26.8 8.6 Q-18.25 8.6 -18.25 13.45 M-2.6 10.5 Q-2.6 11.9 -4.0 11.9 L-9.95 11.9 -9.95 24.35 Q-9.95 25.75 -11.35 25.75 L-12.95 25.65 Q-13.75 25.35 -13.75 24.35 L-13.75 11.9 -14.95 11.9 -15.65 11.8 Q-16.55 11.5 -16.55 10.35 -16.55 9.15 -15.65 8.85 L-14.95 8.8 -13.75 8.75 -13.75 5.4 Q-13.75 4.0 -12.35 4.0 L-10.75 4.1 Q-9.95 4.4 -9.95 5.4 L-9.95 8.75 -4.0 8.75 Q-2.6 8.75 -2.6 10.5 M-46.7 -9.45 L-46.7 -20.35 Q-46.7 -23.25 -43.3 -24.7 -40.6 -25.75 -37.4 -25.75 L-24.9 -25.75 Q-23.45 -25.75 -23.45 -24.15 -23.45 -22.5 -24.9 -22.5 L-26.0 -22.5 -26.2 -22.55 -36.3 -22.55 Q-42.7 -22.55 -42.7 -20.35 L-42.7 -9.5 Q-42.7 -7.25 -37.35 -7.25 L-28.4 -7.25 -25.7 -7.75 Q-23.85 -8.35 -23.85 -9.4 L-23.85 -12.55 -33.8 -12.55 Q-35.2 -12.55 -35.2 -13.95 L-35.1 -15.55 Q-34.8 -16.3 -33.8 -16.3 L-23.0 -16.3 -21.3 -16.4 Q-19.9 -16.4 -19.9 -15.0 L-19.9 -9.55 Q-19.9 -6.55 -22.85 -5.1 -25.05 -4.0 -28.4 -4.0 L-37.4 -4.0 Q-40.9 -4.0 -43.35 -5.0 -46.7 -6.4 -46.7 -9.45 M30.75 4.0 Q32.2 4.0 32.2 5.6 32.2 7.2 30.75 7.2 L19.9 7.2 19.35 7.15 Q12.95 7.15 12.95 9.4 L12.95 20.25 Q12.95 22.5 18.35 22.5 L27.3 22.5 30.0 22.0 Q31.85 21.4 31.85 20.35 L31.85 17.2 21.9 17.2 Q20.5 17.2 20.5 15.8 L20.6 14.15 Q20.9 13.4 21.9 13.4 L34.4 13.35 Q35.8 13.35 35.8 14.75 L35.8 20.2 Q35.8 23.15 32.85 24.6 30.55 25.75 27.3 25.75 L18.3 25.75 Q14.8 25.75 12.35 24.75 9.0 23.35 9.0 20.3 L9.0 9.4 Q9.0 6.5 12.4 5.05 15.1 4.0 18.3 4.0 L30.75 4.0 M46.75 11.8 L45.4 11.75 Q41.05 11.75 41.05 13.9 L41.05 24.35 Q41.05 25.35 40.3 25.65 L38.65 25.75 Q37.3 25.75 37.3 24.3 L37.3 13.9 Q37.3 10.55 40.75 9.35 42.85 8.6 47.0 8.6 48.45 8.6 48.45 10.4 48.45 11.8 46.75 11.8 M69.4 15.75 L69.4 13.65 Q69.4 11.75 61.7 11.75 L55.5 12.05 Q53.15 12.5 53.15 13.8 L53.15 15.75 69.4 15.75 M65.45 8.6 Q68.35 8.6 70.35 9.6 73.05 10.8 73.05 13.35 L73.05 17.5 Q73.05 19.05 72.0 19.05 L53.25 19.05 53.25 19.15 Q53.25 21.55 56.1 22.3 L57.95 22.5 68.8 22.6 Q70.2 22.6 70.2 24.35 70.2 25.75 68.8 25.75 L56.05 25.65 Q52.95 25.3 51.45 24.15 49.35 22.6 49.35 20.35 L49.35 14.05 Q49.35 11.1 52.6 9.65 54.8 8.6 58.4 8.6 L65.45 8.6 M99.95 13.9 L99.95 20.6 Q99.95 25.75 92.25 25.75 L83.0 25.75 Q80.05 25.75 77.9 24.65 75.0 23.3 75.0 20.8 L75.0 18.6 Q75.0 15.95 77.75 14.6 79.8 13.55 82.9 13.55 L96.2 13.55 Q95.9 11.75 91.1 11.75 L80.05 11.8 Q78.65 11.8 78.65 10.05 78.65 8.6 80.05 8.6 L91.05 8.65 95.85 9.25 Q99.95 10.35 99.95 13.9 M95.15 22.2 Q96.25 21.6 96.25 19.7 L96.2 16.7 82.8 16.7 80.4 17.15 Q78.75 17.7 78.75 18.6 L78.75 20.75 Q78.75 21.7 80.45 22.2 L82.9 22.6 92.3 22.6 95.15 22.2 M123.75 20.05 L123.75 20.85 Q123.75 25.75 116.3 25.75 L103.55 25.75 Q102.15 25.75 102.15 24.35 102.15 22.6 103.55 22.6 L116.3 22.6 Q119.85 22.6 119.85 20.85 L119.85 20.2 Q119.85 18.65 116.6 18.65 L110.5 18.65 Q102.05 18.65 102.05 13.95 L102.05 13.0 Q102.05 9.9 106.3 9.0 L108.8 8.7 119.25 8.6 Q120.65 8.6 120.65 10.4 120.65 11.8 119.25 11.8 L107.7 11.85 Q105.8 12.1 105.8 13.0 L105.8 13.9 Q105.8 15.45 110.5 15.45 L116.75 15.45 Q123.75 15.45 123.75 20.05 M148.9 13.35 L148.9 17.5 Q148.9 19.05 147.85 19.05 L129.1 19.05 129.1 19.15 Q129.1 21.55 132.0 22.3 L133.8 22.5 144.65 22.6 Q146.05 22.6 146.05 24.35 146.05 25.75 144.65 25.75 L131.9 25.65 Q128.8 25.3 127.3 24.15 125.2 22.6 125.2 20.35 L125.2 14.05 Q125.2 11.1 128.45 9.65 130.65 8.6 134.25 8.6 L141.3 8.6 Q144.2 8.6 146.2 9.6 148.9 10.8 148.9 13.35 M145.25 15.75 L145.25 13.65 Q145.25 11.75 137.55 11.75 L131.35 12.05 Q129.0 12.5 129.0 13.8 L129.0 15.75 145.25 15.75 M127.65 -9.5 Q127.65 -7.85 129.55 -7.35 L132.8 -7.15 138.2 -7.15 Q144.05 -7.15 144.05 -9.35 L144.05 -17.8 132.7 -17.8 Q127.65 -17.8 127.65 -15.6 L127.65 -9.5 M145.45 -25.75 L147.05 -25.6 Q147.8 -25.3 147.8 -24.3 L147.8 -9.25 Q147.8 -6.55 144.4 -5.1 142.05 -4.0 138.6 -4.0 L132.85 -4.0 Q124.1 -4.0 123.8 -8.85 L123.85 -15.65 Q124.25 -21.0 132.8 -21.0 L144.05 -21.0 144.05 -24.3 Q144.05 -25.75 145.45 -25.75 M100.05 -4.0 L98.4 -4.1 Q97.65 -4.4 97.65 -5.4 L97.65 -16.25 Q97.65 -21.15 106.3 -21.15 L112.45 -21.15 Q121.05 -21.15 121.05 -16.3 L121.05 -5.4 Q121.05 -4.0 119.6 -4.0 L118.0 -4.1 Q117.2 -4.4 117.2 -5.4 L117.2 -16.3 Q117.2 -17.5 115.3 -17.8 L114.25 -17.9 104.3 -17.9 103.25 -17.8 Q101.45 -17.4 101.45 -16.3 L101.45 -5.4 Q101.45 -4.0 100.05 -4.0 M77.95 -13.05 L75.55 -12.6 Q73.9 -12.05 73.9 -11.15 L73.9 -9.0 Q73.9 -8.05 75.6 -7.55 L78.05 -7.15 87.4 -7.15 90.3 -7.55 Q91.4 -8.15 91.4 -10.05 L91.35 -13.05 77.95 -13.05 M73.8 -19.7 Q73.8 -21.15 75.2 -21.15 L86.2 -21.1 91.0 -20.5 Q95.1 -19.4 95.1 -15.85 L95.1 -9.15 Q95.1 -4.0 87.4 -4.0 L78.15 -4.0 Q75.2 -4.0 73.05 -5.1 70.15 -6.45 70.15 -8.95 L70.15 -11.15 Q70.15 -13.8 72.9 -15.15 74.95 -16.2 78.05 -16.2 L91.35 -16.2 Q91.05 -18.0 86.25 -18.0 L75.2 -17.95 Q73.8 -17.95 73.8 -19.7 M46.5 -19.8 Q46.5 -21.2 47.9 -21.2 L49.5 -21.05 Q50.25 -20.8 50.25 -19.8 L50.25 -5.4 Q50.25 -4.0 48.8 -4.0 L47.2 -4.1 Q46.5 -4.4 46.5 -5.4 L46.5 -19.8 M54.7 -25.75 L56.3 -25.65 Q57.05 -25.4 57.05 -24.35 L57.05 -5.4 Q57.05 -4.0 55.65 -4.0 L54.05 -4.1 Q53.3 -4.4 53.3 -5.4 L53.3 -24.35 Q53.3 -25.75 54.7 -25.75 M48.3 -25.4 Q49.3 -25.4 49.95 -24.95 50.75 -24.35 50.75 -23.45 50.75 -22.5 49.95 -22.0 49.3 -21.55 48.3 -21.55 47.35 -21.55 46.65 -22.0 45.85 -22.5 45.85 -23.45 45.85 -24.35 46.65 -24.95 L48.3 -25.4 M39.95 -15.6 Q39.95 -17.8 34.85 -17.8 L23.55 -17.8 23.55 -9.3 Q23.55 -8.15 26.0 -7.55 L27.7 -7.25 29.45 -7.15 36.85 -7.2 38.05 -7.35 Q39.95 -7.8 39.95 -9.5 L39.95 -15.6 M2.6 -20.15 Q5.3 -18.95 5.3 -16.4 L5.3 -12.25 Q5.3 -10.7 4.25 -10.7 L-14.5 -10.7 -14.5 -10.6 Q-14.5 -8.1 -11.65 -7.45 L-9.8 -7.25 1.05 -7.15 Q2.45 -7.15 2.45 -5.4 2.45 -4.0 1.05 -4.0 L-11.75 -4.1 Q-14.9 -4.5 -16.3 -5.6 -18.4 -7.15 -18.4 -9.4 L-18.4 -15.7 Q-18.4 -18.65 -15.15 -20.1 -12.95 -21.15 -9.35 -21.15 L-2.3 -21.15 Q0.6 -21.15 2.6 -20.15 M1.6 -14.0 L1.6 -16.1 Q1.6 -18.0 -6.05 -18.0 L-12.25 -17.7 Q-14.6 -17.25 -14.6 -15.95 L-14.6 -14.0 1.6 -14.0 M10.3 -20.35 Q12.35 -21.15 16.55 -21.15 17.95 -21.15 17.95 -19.35 17.95 -17.95 16.3 -17.95 L14.95 -18.0 Q10.6 -18.0 10.6 -15.8 L10.6 -5.4 Q10.6 -4.4 9.8 -4.1 L8.15 -4.0 Q6.85 -4.0 6.85 -5.4 L6.85 -15.8 Q6.85 -19.2 10.3 -20.35 M20.55 -25.6 L22.15 -25.75 Q23.55 -25.75 23.55 -24.3 L23.55 -21.0 34.8 -21.0 Q43.7 -21.0 43.7 -15.7 L43.7 -9.4 Q43.7 -4.0 34.8 -4.0 L29.0 -4.0 Q25.75 -4.0 23.2 -5.1 19.8 -6.6 19.8 -9.3 L19.8 -24.3 Q19.8 -25.35 20.55 -25.6" fill="#000000" fill-rule="evenodd" stroke="none"/>
    </g>
    <g id="sprite1" transform="matrix(1.0, 0.0, 0.0, 1.0, 152.4, 44.95)">
      <use height="89.35" transform="matrix(1.0, 0.0, 0.0, 1.0, -152.4, -44.95)" width="300.75" xlink:href="#shape1"/>
    </g>
    <g id="shape1" transform="matrix(1.0, 0.0, 0.0, 1.0, 152.4, 44.95)">
      <path d="M-1.25 -18.2 Q2.7 -17.2 4.85 -14.45 7.0 -11.75 7.0 -7.7 L7.0 -1.95 Q7.0 0.85 5.85 3.35 4.75 5.85 2.7 7.65 L2.75 8.75 Q2.75 12.95 -0.05 16.45 -2.8 19.9 -7.1 21.0 L-14.3 22.8 -22.45 24.75 -25.75 25.35 Q-31.65 26.2 -35.4 24.5 -40.65 29.2 -49.4 31.2 L-57.55 33.0 Q-63.65 34.35 -68.85 33.1 -70.55 32.65 -72.05 31.9 L-74.55 33.9 Q-80.1 37.75 -89.45 39.35 L-94.85 40.2 Q-101.5 41.25 -106.15 39.95 -108.55 41.95 -111.65 42.35 L-129.65 44.25 Q-136.9 44.8 -141.65 43.4 L-141.75 43.35 Q-146.8 41.65 -149.6 37.5 -152.4 33.4 -152.4 27.7 L-152.4 -32.2 Q-152.4 -36.95 -149.6 -40.0 -146.9 -43.05 -142.6 -43.1 L-138.0 -42.65 Q-134.85 -41.7 -133.0 -39.0 -131.15 -36.3 -131.15 -32.65 L-131.15 22.15 -129.35 22.05 -115.65 20.85 -115.65 10.55 Q-115.65 5.95 -112.9 2.65 -110.15 -0.6 -105.85 -1.05 L-103.1 -1.25 -100.5 -0.85 Q-97.8 0.05 -96.2 2.4 -94.65 4.8 -94.65 8.1 L-94.65 18.65 -87.25 17.5 -87.25 7.0 Q-87.25 3.7 -85.65 0.85 -84.1 -1.95 -81.35 -3.55 -80.15 -4.25 -78.55 -4.7 L-78.55 -32.2 Q-78.55 -36.95 -75.75 -40.0 -73.05 -43.05 -68.75 -43.1 L-64.15 -42.65 Q-61.0 -41.7 -59.15 -39.0 -57.25 -36.3 -57.25 -32.65 L-57.3 -8.35 -49.4 -9.85 Q-40.6 -11.6 -35.45 -9.35 L-33.0 -11.2 Q-28.4 -14.4 -21.5 -15.9 L-11.55 -18.1 Q-5.65 -19.4 -1.25 -18.2" fill="#000000" fill-rule="evenodd" stroke="none"/>
      <path d="M146.65 -28.15 Q145.5 -26.3 143.5 -25.1 L141.5 -23.85 Q144.6 -23.1 146.45 -20.8 148.35 -18.5 148.35 -15.4 148.35 -11.5 145.55 -8.9 142.75 -6.3 138.45 -6.1 L110.45 -3.7 Q107.15 -3.35 104.4 -4.45 101.85 -2.4 98.5 -1.95 L95.6 -1.65 93.15 -1.85 Q91.4 -2.25 90.1 -3.3 85.45 0.1 77.95 1.5 L64.95 4.0 Q59.2 5.2 54.65 4.1 51.75 6.8 47.25 7.85 L43.2 8.3 42.15 8.2 27.15 5.45 Q26.35 8.85 23.8 11.35 21.2 13.95 17.7 14.8 L15.0 15.35 12.5 15.45 Q9.55 15.1 7.9 13.1 6.2 11.05 6.2 7.9 L6.2 -18.75 Q6.2 -22.95 9.0 -26.35 11.75 -29.7 16.0 -30.55 L38.6 -35.25 50.15 -35.6 Q54.6 -34.7 57.1 -31.95 58.8 -32.8 60.6 -33.15 L71.05 -34.85 87.65 -37.0 Q88.5 -40.1 91.0 -42.2 93.6 -44.35 97.1 -44.75 L99.95 -44.95 102.35 -44.65 Q104.4 -44.1 105.8 -42.8 107.25 -41.5 107.85 -39.65 L137.5 -41.4 139.2 -41.25 Q142.55 -40.8 144.9 -38.65 147.75 -36.0 147.75 -32.25 147.75 -30.05 146.65 -28.15" fill="#000000" fill-rule="evenodd" stroke="none"/>
      <path d="M-2.65 -14.95 Q0.45 -14.2 2.15 -12.15 3.8 -10.1 3.8 -6.95 L3.8 -1.15 Q3.8 1.6 2.3 3.8 1.0 5.7 -1.05 6.6 -0.5 7.85 -0.5 9.5 -0.5 12.45 -2.35 14.7 -4.2 17.0 -7.1 17.75 L-22.4 21.45 -25.4 22.05 Q-31.05 22.8 -34.15 21.05 L-35.35 20.25 Q-39.7 25.7 -49.4 27.85 L-57.55 29.65 Q-63.0 30.85 -67.6 29.7 -70.3 29.05 -72.1 27.55 -73.7 29.55 -75.9 31.1 -80.8 34.45 -89.45 35.95 L-92.3 36.35 -92.65 36.35 -94.85 36.75 Q-102.3 37.9 -106.7 35.95 -108.55 38.5 -111.65 38.85 L-129.65 40.7 Q-136.4 41.25 -140.65 39.95 L-140.75 39.95 Q-144.8 38.6 -147.0 35.4 -149.15 32.2 -149.15 27.65 L-149.15 -32.2 Q-149.15 -35.4 -147.35 -37.45 -145.5 -39.45 -142.6 -39.5 L-138.9 -39.2 Q-136.8 -38.6 -135.55 -36.8 -134.35 -35.0 -134.35 -32.5 L-134.35 22.05 -134.15 23.9 Q-133.55 25.8 -131.7 25.7 L-129.35 25.55 -112.45 24.0 -112.45 10.25 Q-112.45 7.1 -110.6 4.9 -108.75 2.75 -105.85 2.4 L-103.5 2.25 -101.75 2.5 Q-99.95 3.1 -98.9 4.65 -97.9 6.25 -97.9 8.5 L-97.9 19.15 -97.95 19.7 -97.75 20.85 Q-97.15 22.45 -94.85 22.1 L-86.9 20.9 Q-84.8 20.55 -84.2 19.1 L-84.0 17.75 -84.0 6.5 Q-84.0 4.25 -82.95 2.35 -81.9 0.5 -80.1 -0.55 L-78.35 -1.3 -76.0 -1.8 -75.3 -1.9 -75.3 -32.2 Q-75.3 -35.4 -73.5 -37.45 -71.65 -39.45 -68.75 -39.5 L-65.05 -39.2 Q-62.95 -38.6 -61.7 -36.8 -60.5 -35.0 -60.5 -32.5 L-60.5 -4.35 -49.4 -6.5 Q-39.8 -8.45 -35.45 -5.2 -33.95 -6.95 -31.65 -8.5 -27.65 -11.3 -21.5 -12.65 L-11.55 -14.85 Q-6.35 -16.0 -2.65 -14.95" fill="#ffffff" fill-rule="evenodd" stroke="none"/>
      <path d="M144.5 -32.2 Q144.5 -30.75 143.8 -29.5 143.05 -28.3 141.7 -27.45 L131.45 -21.0 138.45 -21.25 Q141.4 -21.35 143.25 -19.7 145.1 -18.0 145.1 -15.35 145.1 -12.65 143.25 -10.85 141.4 -9.1 138.45 -9.0 L110.45 -6.7 Q107.7 -6.4 105.45 -7.45 L105.35 -7.5 104.1 -8.35 Q103.2 -7.0 101.8 -6.1 100.35 -5.2 98.5 -4.9 L96.15 -4.65 94.4 -4.8 Q93.1 -5.1 92.2 -5.95 91.25 -6.75 90.85 -7.9 86.95 -3.2 77.95 -1.55 L64.95 0.95 Q59.7 2.0 55.65 0.95 L54.05 0.4 Q52.05 3.65 47.25 4.7 L44.0 5.1 43.4 5.05 24.25 1.5 24.25 3.55 Q24.25 6.45 22.45 8.7 20.6 10.95 17.7 11.65 L13.6 12.15 Q11.65 11.95 10.55 10.6 9.45 9.25 9.45 7.1 L9.45 -19.45 Q9.45 -22.3 11.25 -24.55 13.1 -26.75 16.0 -27.4 L38.6 -32.1 48.9 -32.5 Q54.2 -31.5 55.9 -27.45 57.75 -29.55 60.6 -30.05 L73.8 -32.2 90.55 -34.15 90.55 -34.85 Q90.55 -37.55 92.35 -39.5 94.2 -41.45 97.1 -41.8 L99.4 -41.95 101.15 -41.75 Q102.95 -41.25 104.0 -39.9 105.05 -38.5 105.05 -36.6 L105.05 -36.45 137.5 -38.45 138.6 -38.4 Q140.95 -38.1 142.55 -36.6 144.5 -34.8 144.5 -32.2" fill="#ffffff" fill-rule="evenodd" stroke="none"/>
      <path d="M-138.95 -32.35 L-138.95 27.35 Q-138.95 30.0 -135.1 30.6 -133.7 30.95 -129.35 30.6 L-111.65 28.9 Q-109.7 28.7 -109.7 31.5 -109.7 33.65 -111.65 33.9 L-129.65 35.65 Q-135.75 36.15 -139.25 35.05 -144.55 33.3 -144.55 27.55 L-144.55 -32.25 Q-144.55 -34.4 -142.6 -34.45 L-140.15 -34.3 Q-138.95 -33.95 -138.95 -32.35" fill="#3e007f" fill-rule="evenodd" stroke="none"/>
      <path d="M-74.0 4.8 L-74.0 20.6 Q-74.0 24.45 -77.85 27.05 -81.8 29.75 -89.45 31.05 L-92.15 31.4 -92.35 31.4 -94.85 31.8 Q-101.3 32.8 -104.55 31.3 -107.8 29.8 -107.8 25.9 L-107.8 9.75 Q-107.8 7.55 -105.85 7.35 L-103.55 7.3 Q-102.5 7.55 -102.5 9.1 L-102.5 25.2 Q-102.5 28.2 -94.85 27.05 L-86.9 25.75 Q-79.4 24.55 -79.4 21.65 L-79.4 5.7 Q-79.4 4.2 -78.35 3.65 L-76.0 3.05 Q-74.0 2.7 -74.0 4.8" fill="#3e007f" fill-rule="evenodd" stroke="none"/>
      <path d="M-4.65 -10.35 Q-0.8 -9.45 -0.8 -5.9 L-0.8 -0.1 Q-0.8 2.15 -2.3 2.45 L-28.8 8.7 -28.8 8.85 Q-28.8 12.35 -24.75 12.45 L-22.2 12.15 -14.85 10.5 -7.1 8.65 Q-5.1 8.2 -5.1 10.65 -5.1 12.65 -7.1 13.1 L-14.9 15.05 -22.3 16.75 -24.85 17.25 Q-29.3 17.85 -31.35 16.65 -34.3 15.0 -34.3 11.8 L-34.3 2.7 Q-34.3 -1.6 -29.75 -4.65 -26.65 -6.8 -21.5 -7.95 L-11.55 -10.2 Q-7.4 -11.15 -4.65 -10.35 M-6.0 -4.25 Q-6.0 -7.0 -16.85 -4.55 -23.2 -3.05 -25.6 -2.1 -28.95 -0.7 -28.95 1.15 L-28.95 4.0 -6.0 -1.3 -6.0 -4.25" fill="#3e007f" fill-rule="evenodd" stroke="none"/>
      <path d="M46.4 -21.85 Q46.4 -24.8 38.55 -23.2 L19.65 -19.15 19.65 -9.45 39.55 -13.85 Q46.4 -15.35 46.4 -18.1 L46.4 -21.85 M52.0 -19.3 Q52.0 -15.3 47.65 -12.5 44.05 -10.4 39.6 -9.45 L30.35 -7.4 49.1 -3.8 Q50.6 -3.5 50.6 -2.25 50.6 -0.45 47.25 0.3 L45.2 0.5 19.65 -4.3 19.65 4.65 Q19.65 6.6 17.7 7.1 L15.25 7.5 Q14.05 7.45 14.05 6.0 L14.05 -20.45 Q14.05 -22.4 16.0 -22.85 L38.6 -27.65 47.2 -28.05 Q52.0 -27.15 52.0 -22.85 L52.0 -19.3" fill="#3e007f" fill-rule="evenodd" stroke="none"/>
      <path d="M81.5 -24.5 L76.35 -24.25 63.05 -21.9 61.85 -21.6 60.6 -21.4 Q58.65 -21.0 58.65 -23.4 58.65 -25.3 60.6 -25.7 L68.7 -27.1 76.7 -28.4 83.05 -28.65 Q88.85 -28.0 88.85 -23.4 L88.85 -14.55 Q88.85 -11.15 86.15 -9.0 83.45 -6.85 77.95 -5.9 L64.95 -3.45 Q60.75 -2.6 57.7 -3.45 53.6 -4.45 53.6 -7.85 L53.6 -10.8 Q53.6 -14.4 57.5 -17.0 60.45 -19.0 64.3 -19.7 L83.15 -22.95 Q83.25 -24.15 81.5 -24.5 M83.55 -18.85 L64.65 -15.55 Q62.95 -15.2 61.2 -14.3 58.9 -13.1 58.9 -11.9 L58.9 -9.0 Q58.9 -7.7 61.3 -7.5 L64.8 -7.65 78.0 -10.1 Q81.0 -10.65 82.1 -11.35 83.65 -12.35 83.65 -14.9 L83.55 -18.85" fill="#3e007f" fill-rule="evenodd" stroke="none"/>
      <path d="M137.5 -34.35 L137.45 -34.3 137.5 -34.3 Q138.6 -34.35 139.25 -33.7 139.9 -33.1 139.9 -32.15 139.9 -31.3 139.2 -30.9 127.8 -23.85 116.2 -15.7 L138.45 -17.15 Q140.5 -17.2 140.5 -15.2 140.5 -13.2 138.45 -13.1 L110.45 -10.9 Q109.15 -10.75 108.0 -11.3 106.8 -11.95 106.8 -13.15 106.8 -14.3 108.2 -15.3 119.25 -23.3 129.85 -30.15 115.6 -29.45 100.45 -27.55 L100.45 -11.3 Q100.45 -9.45 98.5 -9.2 L96.25 -9.0 Q95.15 -9.2 95.15 -10.55 L95.15 -26.85 91.1 -26.35 90.15 -26.3 Q88.9 -26.55 88.9 -28.05 88.9 -29.6 90.15 -30.2 L91.1 -30.45 95.15 -31.0 95.15 -35.4 Q95.15 -37.25 97.1 -37.5 L99.4 -37.6 Q100.45 -37.4 100.45 -36.05 L100.45 -31.65 Q120.0 -33.9 137.5 -34.35" fill="#3e007f" fill-rule="evenodd" stroke="none"/>
      <path d="M-65.25 18.6 Q-65.25 20.35 -61.85 20.5 L-59.4 20.45 -56.95 20.1 -49.35 18.45 -46.5 17.75 -44.8 17.15 Q-42.1 15.95 -42.1 13.4 L-42.1 4.55 Q-42.1 1.4 -49.3 2.85 L-65.25 6.05 -65.25 18.6 M-68.75 -34.45 L-66.35 -34.3 Q-65.1 -33.95 -65.1 -32.35 L-65.1 1.3 -49.4 -1.75 Q-36.8 -4.3 -36.8 3.3 L-36.8 12.45 Q-36.8 20.3 -49.4 23.1 L-57.55 24.85 Q-62.0 25.85 -65.8 24.9 -70.6 23.75 -70.6 19.65 L-70.6 5.2 -70.7 5.2 -70.7 -32.25 Q-70.7 -34.4 -68.75 -34.45" fill="#3e007f" fill-rule="evenodd" stroke="none"/>
    </g>
  </defs>
</svg>
