<?xml version="1.0" encoding="UTF-8" standalone="no"?>
<svg xmlns:xlink="http://www.w3.org/1999/xlink" height="300.0px" width="300.0px" xmlns="http://www.w3.org/2000/svg">
  <g transform="matrix(1.0, 0.0, 0.0, 1.0, 0.0, 0.0)">
    <use height="159.8" transform="matrix(1.0, 0.0, 0.0, 1.0, 32.8, 97.1)" width="232.65" xlink:href="#shape0"/>
  </g>
  <defs>
    <g id="shape0" transform="matrix(1.0, 0.0, 0.0, 1.0, -32.8, -97.1)">
      <path d="M211.0 112.4 Q217.25 114.35 223.95 116.85 L222.95 121.8 Q222.1 125.65 220.35 127.7 218.6 129.8 215.2 130.55 L207.95 130.8 208.65 126.7 Q211.6 126.4 212.3 124.5 L209.2 123.55 211.0 112.4" fill="url(#gradient0)" fill-rule="evenodd" stroke="none"/>
      <path d="M208.75 111.6 Q200.95 122.65 193.85 134.8 197.75 152.1 200.6 169.15 191.7 167.2 183.05 165.95 180.8 152.25 178.0 139.05 L176.15 165.0 159.1 163.7 159.75 100.8 Q170.15 102.2 180.45 104.3 L178.8 127.95 Q184.05 116.6 189.65 106.35 199.2 108.7 208.75 111.6" fill="url(#gradient1)" fill-rule="evenodd" stroke="none"/>
      <path d="M157.2 140.8 Q157.15 150.55 155.65 154.65 154.2 158.6 149.25 161.7 144.4 164.8 137.2 165.15 129.6 165.6 124.6 163.4 119.4 161.15 117.15 156.5 114.85 151.65 113.6 141.9 L111.0 122.3 Q110.05 114.9 110.15 111.35 110.25 107.65 112.7 104.25 115.25 100.75 120.3 98.85 124.8 97.1 130.6 97.1 L132.25 97.15 Q141.35 97.45 147.65 100.95 153.6 104.3 155.5 108.75 157.35 113.1 157.3 121.95 L157.25 128.0 138.0 127.0 137.4 115.65 Q137.15 110.8 136.4 109.5 135.7 108.25 133.45 108.2 131.0 108.1 130.4 109.6 129.8 111.05 130.2 116.1 L132.5 146.6 Q132.85 151.35 133.55 152.8 134.2 154.25 136.3 154.15 138.25 154.05 138.8 152.6 139.35 151.15 139.05 145.8 L138.6 137.65 157.2 138.35 157.2 140.8" fill="url(#gradient2)" fill-rule="evenodd" stroke="none"/>
      <path d="M170.5 168.6 Q173.5 170.65 174.25 173.35 175.05 175.95 174.65 181.45 L174.4 185.15 164.25 184.65 164.45 177.7 Q164.5 174.7 164.25 173.95 163.9 173.15 162.75 173.1 161.45 173.05 161.05 174.0 160.7 174.95 160.65 177.9 L160.3 196.55 Q160.3 199.55 160.55 200.35 160.9 201.3 162.0 201.25 163.1 201.25 163.4 200.3 163.75 199.5 163.9 196.15 L164.05 191.15 173.95 191.5 173.85 193.05 Q173.45 199.0 172.45 201.55 171.5 204.05 168.7 206.0 165.85 207.9 161.95 207.95 157.8 208.15 155.25 206.65 152.55 205.1 151.65 202.25 150.7 199.3 150.55 193.3 L150.35 181.3 Q150.25 176.8 150.5 174.65 150.75 172.5 152.2 170.4 153.7 168.35 156.4 167.25 159.15 166.15 162.65 166.35 167.4 166.6 170.5 168.6" fill="url(#gradient3)" fill-rule="evenodd" stroke="none"/>
      <path d="M187.25 181.7 Q186.25 181.55 185.9 182.15 185.65 182.75 185.3 185.35 L184.95 188.6 175.9 187.7 176.05 185.55 Q176.35 181.85 177.35 179.95 178.4 178.05 181.2 176.85 184.05 175.6 188.25 176.25 193.35 177.1 195.75 179.2 198.05 181.3 198.2 183.85 198.3 186.45 197.05 193.75 L194.65 208.8 185.9 207.8 186.25 205.1 Q185.25 206.65 183.8 207.4 182.45 208.1 180.65 208.0 178.3 207.9 176.5 206.35 174.6 204.85 174.95 200.05 L175.15 197.45 Q175.45 193.85 176.65 192.7 177.9 191.4 182.4 190.2 187.45 188.8 187.75 188.3 188.2 187.7 188.4 185.75 188.7 183.4 188.4 182.55 188.1 181.8 187.25 181.7 M184.5 195.65 Q184.05 196.65 183.8 198.8 183.55 201.3 183.75 201.95 184.0 202.7 184.9 202.8 185.8 202.85 186.05 202.35 L186.7 199.5 187.45 193.2 Q185.05 194.55 184.5 195.65" fill="url(#gradient4)" fill-rule="evenodd" stroke="none"/>
      <path d="M217.8 156.55 L218.6 152.9 Q226.45 155.4 235.1 158.85 L233.3 165.15 Q232.45 168.1 232.9 169.25 233.3 170.3 235.0 170.95 L237.85 170.9 Q239.0 170.15 239.65 168.1 241.05 163.65 239.85 161.6 238.45 159.2 232.95 153.5 226.55 146.95 225.2 145.15 223.35 142.8 222.5 139.45 221.6 136.1 222.55 131.75 223.95 125.35 226.75 123.4 229.7 121.25 235.0 121.75 240.5 122.2 247.4 125.45 254.85 128.95 259.8 133.55 264.45 137.9 265.25 141.3 L265.45 143.2 Q265.45 146.1 263.8 150.4 L263.05 152.25 Q254.7 147.75 245.95 143.8 L247.1 139.95 Q247.95 137.35 247.5 136.25 247.05 135.25 245.5 134.5 L242.55 134.35 Q241.4 134.9 240.8 136.95 240.15 139.55 240.7 141.3 241.25 142.95 245.0 146.8 255.15 157.1 257.3 162.45 259.1 167.2 256.3 174.2 254.35 179.3 251.75 180.95 249.3 182.6 244.1 182.35 239.1 182.2 233.0 179.9 226.35 177.45 222.25 173.95 218.0 170.2 217.2 166.5 216.5 162.65 217.8 156.55" fill="url(#gradient5)" fill-rule="evenodd" stroke="none"/>
      <path d="M218.25 182.9 Q220.55 183.6 221.95 185.2 223.35 186.7 223.4 188.25 223.45 189.85 222.55 193.05 L219.4 204.65 Q218.35 208.5 217.45 209.9 216.55 211.35 214.8 212.0 L211.0 212.2 Q209.4 211.8 208.15 210.8 206.9 209.7 206.0 208.0 L204.6 214.6 195.85 213.3 201.7 179.3 211.9 181.7 211.15 184.2 Q212.8 183.0 214.6 182.65 L218.25 182.9 M210.85 187.0 Q210.45 187.55 209.9 190.1 L207.35 202.0 Q206.8 204.6 206.9 205.35 207.05 206.05 207.95 206.2 208.8 206.35 209.15 205.9 L210.0 203.0 212.8 190.75 213.35 187.5 Q213.25 186.9 212.25 186.65 211.25 186.35 210.85 187.0" fill="url(#gradient6)" fill-rule="evenodd" stroke="none"/>
      <path d="M223.75 193.4 Q224.75 190.15 226.15 188.9 227.55 187.7 230.3 187.7 232.95 187.7 236.25 188.9 239.5 190.2 241.45 191.75 243.4 193.3 244.2 194.85 245.0 196.4 244.9 197.4 L244.1 200.3 243.5 201.75 235.15 198.5 235.65 197.1 236.15 194.7 Q236.1 194.1 235.05 193.75 234.25 193.45 233.75 193.75 233.15 194.1 232.9 194.95 L232.5 196.8 Q232.5 197.45 233.3 198.45 L236.7 201.9 Q240.15 205.05 240.9 207.05 241.55 209.0 240.5 211.75 239.35 214.8 237.75 216.05 236.25 217.3 233.8 217.4 231.4 217.55 228.3 216.65 224.85 215.6 222.85 214.0 220.75 212.4 220.3 210.45 219.9 208.5 220.8 205.05 L221.15 203.7 229.35 206.2 228.8 207.85 Q228.15 210.0 228.2 210.8 228.35 211.5 229.15 211.75 230.2 212.1 230.65 211.75 231.15 211.45 231.65 210.1 232.3 208.2 231.95 207.6 231.5 206.8 227.5 203.0 223.95 199.65 223.55 197.75 223.15 195.8 223.75 193.4" fill="url(#gradient7)" fill-rule="evenodd" stroke="none"/>
      <path d="M86.6 145.95 L92.9 144.75 84.2 116.45 Q85.1 135.1 86.6 145.95 M91.1 170.75 Q81.9 173.05 73.75 175.8 68.35 139.75 65.1 103.85 80.2 100.9 95.45 99.5 106.9 132.45 116.4 165.8 108.05 166.95 99.05 168.9 L95.75 156.8 89.45 158.15 91.1 170.75" fill="url(#gradient8)" fill-rule="evenodd" stroke="none"/>
      <path d="M53.6 106.35 L66.65 152.9 70.2 166.4 Q70.85 169.5 69.9 172.4 69.0 175.3 66.5 177.3 64.25 179.1 58.55 181.35 55.3 182.65 50.4 184.85 L45.95 172.6 48.2 171.75 Q50.0 171.05 50.8 169.6 51.5 168.25 51.2 166.8 L49.55 161.4 32.8 112.15 Q42.9 108.95 53.6 106.35" fill="url(#gradient9)" fill-rule="evenodd" stroke="none"/>
      <path d="M64.65 191.75 L67.9 201.65 68.85 201.3 Q70.3 200.6 70.4 199.65 70.55 198.55 69.3 194.65 68.7 192.5 68.05 191.8 67.5 191.15 66.85 191.1 66.25 191.1 64.65 191.75 M75.0 184.1 Q77.2 186.1 78.85 191.9 79.9 195.7 79.3 197.75 78.7 199.65 75.95 201.65 79.55 201.3 81.3 202.9 83.1 204.6 84.3 208.95 L85.4 213.05 Q86.65 217.5 86.45 220.1 86.3 222.6 84.75 224.15 83.45 225.55 78.05 228.2 73.55 230.4 68.1 233.35 L51.8 188.5 Q57.2 186.05 62.15 184.05 67.05 182.2 69.9 182.1 72.7 182.0 75.0 184.1 M75.85 215.6 L74.55 211.45 Q73.65 208.6 72.95 208.2 72.25 207.8 70.15 208.65 L74.2 221.2 Q76.1 220.2 76.35 219.3 76.7 218.35 75.85 215.6" fill="url(#gradient10)" fill-rule="evenodd" stroke="none"/>
      <path d="M84.6 186.1 Q86.8 183.5 90.95 182.3 95.95 180.9 99.0 182.3 101.9 183.6 102.95 186.35 104.0 189.0 105.65 198.0 L109.05 215.95 Q104.9 217.2 100.65 218.75 L99.95 215.5 Q99.6 217.6 98.55 219.1 97.6 220.5 95.9 221.2 93.6 222.0 91.35 221.2 89.05 220.3 87.55 214.8 L86.75 211.75 Q85.7 207.7 86.3 205.8 87.05 203.85 90.75 200.5 94.9 196.7 95.05 196.05 95.15 195.2 94.7 192.95 94.0 190.1 93.5 189.35 92.9 188.6 92.05 188.85 91.1 189.15 91.0 189.95 90.9 190.65 91.65 193.75 L92.5 197.55 83.75 200.6 83.1 198.15 Q82.0 193.85 82.2 191.3 82.45 188.65 84.6 186.1 M94.8 205.7 Q94.75 207.15 95.3 209.55 95.95 212.4 96.5 213.1 97.0 213.8 97.8 213.5 98.65 213.2 98.75 212.45 98.85 211.75 98.25 209.05 L96.6 201.55 Q94.85 204.2 94.8 205.7" fill="url(#gradient11)" fill-rule="evenodd" stroke="none"/>
      <path d="M123.6 175.6 L127.15 175.9 Q128.7 176.35 130.2 177.65 L129.25 167.9 139.6 167.1 141.95 208.8 133.15 210.15 132.9 207.65 Q131.8 209.4 130.45 210.5 129.1 211.55 127.6 211.85 125.6 212.3 123.9 211.3 122.25 210.35 121.6 208.75 120.9 207.0 120.4 203.15 L118.15 186.65 Q117.6 182.65 117.8 180.8 118.05 179.0 119.6 177.5 121.2 175.95 123.6 175.6 M128.95 181.15 Q128.1 181.25 127.8 181.95 127.6 182.6 127.8 184.6 L129.55 201.65 Q129.7 203.7 130.05 204.4 130.4 205.05 131.2 204.85 132.05 204.7 132.3 203.95 132.5 203.05 132.2 200.25 L130.75 184.2 Q130.6 182.35 130.2 181.7 129.85 181.05 128.95 181.15" fill="url(#gradient12)" fill-rule="evenodd" stroke="none"/>
      <path d="M113.65 169.8 L119.9 212.95 Q115.3 214.1 110.9 215.4 L103.05 171.75 113.65 169.8" fill="url(#gradient13)" fill-rule="evenodd" stroke="none"/>
      <path d="M145.9 214.45 L146.15 220.65 147.4 214.25 150.7 213.9 148.95 221.25 151.2 229.7 147.85 230.15 146.25 223.55 146.55 230.4 143.3 231.0 142.4 214.95 145.9 214.45" fill="url(#gradient14)" fill-rule="evenodd" stroke="none"/>
      <path d="M154.75 220.5 L154.8 229.15 151.7 229.6 151.45 216.65 154.8 216.3 154.75 217.5 155.65 216.4 Q156.15 215.95 156.85 215.9 157.75 215.85 158.25 216.3 158.75 216.7 158.95 217.4 L159.05 219.8 158.95 228.7 155.8 229.05 155.8 220.2 155.75 218.6 155.3 218.35 Q154.95 218.35 154.85 218.7 L154.75 220.5" fill="url(#gradient15)" fill-rule="evenodd" stroke="none"/>
      <path d="M127.0 220.6 L128.9 220.5 Q129.65 220.65 130.15 221.2 L130.7 222.1 131.0 223.55 131.0 224.35 128.2 225.05 128.1 224.3 127.9 223.15 Q127.8 222.85 127.4 222.95 127.15 223.05 127.05 223.3 126.95 223.55 127.0 224.0 127.05 224.75 127.2 224.9 L127.65 225.45 129.15 226.15 Q130.6 226.65 131.2 227.3 131.65 228.0 131.8 229.45 132.0 231.1 131.75 232.0 131.5 233.0 130.8 233.55 130.15 234.2 129.05 234.55 L127.0 234.6 Q126.1 234.3 125.7 233.55 125.25 232.9 125.05 231.15 L124.95 230.45 127.7 229.75 127.85 230.6 128.1 231.95 Q128.25 232.3 128.55 232.2 L129.0 231.85 129.0 230.9 128.7 229.75 126.7 228.75 Q125.2 228.1 124.8 227.35 124.35 226.55 124.2 225.45 123.95 223.9 124.2 222.95 124.4 222.1 125.2 221.5 125.85 220.9 127.0 220.6" fill="url(#gradient16)" fill-rule="evenodd" stroke="none"/>
      <path d="M135.2 221.25 Q134.85 221.3 134.8 221.6 L134.7 222.25 134.85 223.2 135.3 223.7 136.8 224.4 Q138.2 225.0 138.75 225.65 139.2 226.4 139.35 227.8 L139.15 230.3 Q138.9 231.25 138.2 231.8 137.5 232.4 136.4 232.7 L134.4 232.65 Q133.45 232.35 133.05 231.6 132.65 230.75 132.5 229.2 L132.4 228.55 135.2 227.9 135.3 228.75 135.55 230.1 Q135.65 230.4 135.95 230.35 L136.4 230.0 136.45 229.1 136.2 227.95 134.2 226.9 Q132.7 226.15 132.35 225.45 132.0 224.8 131.85 223.55 131.65 222.05 131.95 221.15 132.2 220.35 133.0 219.7 133.8 219.1 134.8 218.9 135.85 218.75 136.65 218.9 L137.9 219.6 138.45 220.5 138.65 221.95 138.7 222.75 135.85 223.3 135.8 222.55 135.6 221.45 Q135.45 221.2 135.2 221.25" fill="url(#gradient17)" fill-rule="evenodd" stroke="none"/>
      <path d="M121.3 222.75 Q122.3 223.15 122.8 224.15 123.3 225.15 123.6 227.15 L123.8 228.9 119.8 230.1 120.2 233.1 120.5 234.25 Q120.65 234.5 120.95 234.4 L121.35 233.9 121.25 232.5 121.0 230.7 123.95 229.85 124.1 230.85 124.2 232.8 123.9 234.4 123.0 235.9 121.4 236.8 119.6 236.95 Q118.8 236.8 118.3 236.25 117.8 235.8 117.45 235.0 L116.95 232.75 116.25 228.7 Q115.95 226.95 116.15 225.75 116.35 224.65 117.1 223.75 117.85 223.05 119.0 222.7 L121.3 222.75 M119.15 225.45 L119.25 226.9 119.4 227.9 120.35 227.6 120.2 226.65 119.9 225.25 Q119.8 225.05 119.5 225.05 L119.15 225.45" fill="url(#gradient18)" fill-rule="evenodd" stroke="none"/>
      <path d="M113.85 221.25 L116.8 238.05 113.65 239.2 110.5 222.3 113.85 221.25" fill="url(#gradient19)" fill-rule="evenodd" stroke="none"/>
      <path d="M104.15 227.75 L107.2 241.7 104.1 242.95 100.9 229.0 104.15 227.75 M100.7 228.2 L100.2 225.95 103.5 224.75 104.0 226.9 100.7 228.2" fill="url(#gradient20)" fill-rule="evenodd" stroke="none"/>
      <path d="M98.8 230.4 Q99.75 230.8 100.2 231.85 L101.45 236.4 103.05 243.4 100.25 244.65 99.9 243.45 99.45 244.9 98.55 245.75 Q97.8 246.1 97.0 245.75 96.2 245.4 95.65 243.3 L95.3 242.15 Q94.9 240.6 95.1 239.85 95.3 239.15 96.5 237.75 L97.85 235.9 97.7 234.7 97.2 233.3 96.7 233.1 96.35 233.6 96.7 235.05 97.05 236.55 94.15 237.85 93.9 236.9 Q93.5 235.3 93.5 234.25 93.6 233.2 94.2 232.2 94.85 231.2 96.2 230.6 L98.8 230.4 M97.95 239.65 L98.25 241.2 98.65 242.55 Q98.85 242.85 99.1 242.7 L99.45 242.3 99.2 240.95 98.5 238.05 Q97.9 239.15 97.95 239.65" fill="url(#gradient21)" fill-rule="evenodd" stroke="none"/>
      <path d="M110.15 234.65 L111.25 240.1 108.25 241.25 105.3 227.35 108.5 226.25 108.7 228.1 Q109.05 225.9 110.35 225.3 L111.25 230.2 Q110.45 230.5 110.05 230.95 109.7 231.45 109.75 232.0 L110.15 234.65" fill="url(#gradient22)" fill-rule="evenodd" stroke="none"/>
      <path d="M92.4 248.45 L90.35 241.2 89.4 241.7 91.5 248.95 88.5 250.5 83.3 233.25 86.55 231.65 88.3 237.85 89.3 237.4 87.5 231.25 90.8 229.8 95.45 246.9 92.4 248.45" fill="url(#gradient23)" fill-rule="evenodd" stroke="none"/>
      <path d="M71.45 240.8 Q72.0 238.9 73.85 237.85 L76.85 237.8 Q78.15 238.55 78.85 240.55 79.5 242.6 78.95 244.8 L81.3 247.4 82.6 244.55 83.7 248.0 83.05 249.45 85.35 252.2 82.2 254.0 81.45 253.15 Q80.4 255.6 79.0 256.45 L77.7 256.9 Q76.95 256.9 76.25 256.35 74.95 255.4 74.15 253.3 73.55 251.65 73.65 250.4 73.8 249.1 74.55 247.9 72.65 247.3 71.75 244.8 70.95 242.65 71.45 240.8 M74.35 241.2 L74.55 242.15 Q74.95 243.35 75.95 244.0 76.15 242.55 75.8 241.5 L75.35 240.8 Q75.05 240.5 74.75 240.7 L74.35 241.2 M77.4 249.35 Q77.1 250.6 77.4 251.6 L78.0 252.55 Q78.3 252.8 78.7 252.55 L79.5 251.45 77.4 249.35" fill="url(#gradient24)" fill-rule="evenodd" stroke="none"/>
      <path d="M225.15 220.4 L223.4 225.65 225.4 222.95 228.2 223.7 225.5 227.35 225.15 233.9 222.1 233.1 222.55 228.4 221.1 232.9 217.95 232.15 221.75 219.5 225.15 220.4" fill="url(#gradient25)" fill-rule="evenodd" stroke="none"/>
      <path d="M234.85 228.65 L234.65 229.25 231.75 228.3 231.95 227.8 232.15 226.9 Q232.15 226.7 231.8 226.6 L231.35 226.65 231.05 227.05 230.85 227.75 231.1 228.3 232.2 229.5 Q233.4 230.6 233.6 231.3 233.8 232.0 233.4 233.05 232.95 234.2 232.35 234.7 231.85 235.15 230.95 235.3 L228.95 235.1 Q227.6 234.7 227.0 234.2 226.3 233.6 226.15 232.9 226.1 232.1 226.5 230.95 L226.7 230.4 229.55 231.25 229.3 231.85 Q229.0 232.7 229.05 232.95 229.05 233.2 229.35 233.25 L229.9 233.25 230.3 232.65 Q230.55 231.95 230.4 231.65 L228.95 230.1 Q227.8 228.95 227.7 228.25 227.6 227.5 227.9 226.7 228.3 225.5 228.85 225.05 229.4 224.55 230.35 224.5 L232.35 224.8 Q233.45 225.15 234.1 225.65 L235.0 226.65 235.15 227.55 234.85 228.65" fill="url(#gradient26)" fill-rule="evenodd" stroke="none"/>
      <path d="M207.3 220.55 Q207.0 220.5 206.8 220.7 L206.5 221.9 206.2 223.0 203.15 222.5 203.3 221.8 Q203.6 220.5 204.0 219.85 204.45 219.15 205.45 218.8 L207.9 218.7 Q209.6 219.0 210.3 219.75 211.0 220.5 210.95 221.4 L210.2 225.0 208.85 230.35 205.75 229.9 206.0 228.9 205.0 229.7 203.85 229.85 202.45 229.1 Q201.8 228.5 202.2 226.8 L202.4 225.9 Q202.7 224.65 203.15 224.3 203.6 223.85 205.25 223.55 L207.2 222.95 207.55 222.0 207.65 220.9 207.3 220.55 M206.9 224.7 Q206.0 225.15 205.8 225.5 205.55 225.9 205.4 226.65 L205.25 227.75 205.6 228.1 206.05 227.9 206.4 226.9 206.9 224.7" fill="url(#gradient27)" fill-rule="evenodd" stroke="none"/>
      <path d="M215.55 222.45 Q215.4 222.6 215.2 223.3 L213.8 228.3 213.7 229.2 Q213.8 229.5 214.05 229.6 214.4 229.65 214.6 229.35 L215.0 228.3 215.4 227.0 218.25 227.65 217.6 229.5 216.7 230.7 Q216.1 231.25 215.2 231.45 L213.4 231.45 Q212.0 231.15 211.4 230.5 210.75 229.9 210.6 229.0 210.5 228.0 210.9 226.55 L211.7 223.45 Q212.05 222.1 212.55 221.45 213.0 220.8 214.0 220.45 L216.4 220.4 Q217.75 220.75 218.45 221.5 219.2 222.15 219.3 223.15 219.4 223.95 218.9 225.45 L215.85 224.75 216.2 223.55 216.35 222.65 216.0 222.3 Q215.7 222.25 215.55 222.45" fill="url(#gradient28)" fill-rule="evenodd" stroke="none"/>
      <path d="M189.45 219.3 L191.85 213.95 195.1 214.35 192.05 220.45 192.9 228.35 189.5 228.15 189.05 221.95 188.15 228.05 184.85 227.9 186.7 213.5 190.25 213.8 189.45 219.3" fill="url(#gradient29)" fill-rule="evenodd" stroke="none"/>
      <path d="M198.5 218.4 L199.6 217.6 200.85 217.45 Q201.7 217.55 202.2 218.1 L202.65 219.25 202.4 221.35 200.75 229.15 197.55 228.8 199.05 221.0 199.25 219.6 198.9 219.25 Q198.6 219.2 198.45 219.5 L198.05 221.05 196.6 228.7 193.4 228.4 195.4 217.0 198.8 217.4 198.5 218.4" fill="url(#gradient30)" fill-rule="evenodd" stroke="none"/>
      <path d="M180.4 215.7 L178.55 220.5 179.5 227.75 176.5 227.75 175.95 222.45 175.5 227.75 172.3 227.85 173.4 212.85 176.8 212.95 176.25 219.15 177.6 215.6 180.4 215.7" fill="url(#gradient31)" fill-rule="evenodd" stroke="none"/>
      <path d="M184.8 220.65 L184.5 223.2 180.25 223.05 180.45 220.5 184.8 220.65" fill="url(#gradient32)" fill-rule="evenodd" stroke="none"/>
      <path d="M163.7 215.7 L163.25 228.3 160.0 228.55 160.25 215.9 163.7 215.7 M163.75 212.95 L163.7 214.95 160.25 215.15 160.3 213.1 163.75 212.95" fill="url(#gradient33)" fill-rule="evenodd" stroke="none"/>
      <path d="M168.5 215.4 Q169.8 215.4 170.7 215.95 171.55 216.6 171.8 217.5 172.05 218.6 171.9 220.2 L168.85 220.3 168.9 218.8 168.85 217.8 Q168.75 217.55 168.5 217.55 168.15 217.6 168.1 217.8 L167.9 218.85 167.65 224.75 Q167.6 225.4 167.7 225.7 167.8 226.05 168.1 226.05 L168.55 225.65 168.75 224.35 168.85 222.85 171.7 222.8 171.5 225.05 170.85 226.55 169.6 227.75 Q168.9 228.2 167.85 228.25 166.45 228.3 165.7 227.85 165.0 227.3 164.7 226.35 164.4 225.45 164.45 223.55 L164.6 220.0 Q164.65 218.4 164.95 217.55 165.25 216.8 166.2 216.05 167.15 215.45 168.5 215.4" fill="url(#gradient34)" fill-rule="evenodd" stroke="none"/>
    </g>
    <linearGradient gradientTransform="matrix(-0.0034, -0.0638, -0.0526, 0.0041, 220.7, 212.45)" gradientUnits="userSpaceOnUse" id="gradient0" spreadMethod="pad" x1="-819.2" x2="819.2">
      <stop offset="0.0" stop-color="#0c0554"/>
      <stop offset="1.0" stop-color="#662d91"/>
    </linearGradient>
    <linearGradient gradientTransform="matrix(-0.0034, -0.0638, -0.0526, 0.0041, 188.05, 214.95)" gradientUnits="userSpaceOnUse" id="gradient1" spreadMethod="pad" x1="-819.2" x2="819.2">
      <stop offset="0.0" stop-color="#0c0554"/>
      <stop offset="1.0" stop-color="#662d91"/>
    </linearGradient>
    <linearGradient gradientTransform="matrix(-0.0034, -0.0638, -0.0526, 0.0041, 139.15, 218.8)" gradientUnits="userSpaceOnUse" id="gradient2" spreadMethod="pad" x1="-819.2" x2="819.2">
      <stop offset="0.0" stop-color="#0c0554"/>
      <stop offset="1.0" stop-color="#662d91"/>
    </linearGradient>
    <linearGradient gradientTransform="matrix(-0.0034, -0.0638, -0.0526, 0.0041, 164.3, 216.85)" gradientUnits="userSpaceOnUse" id="gradient3" spreadMethod="pad" x1="-819.2" x2="819.2">
      <stop offset="0.0" stop-color="#0c0554"/>
      <stop offset="1.0" stop-color="#662d91"/>
    </linearGradient>
    <linearGradient gradientTransform="matrix(-0.0034, -0.0638, -0.0526, 0.0041, 187.7, 215.0)" gradientUnits="userSpaceOnUse" id="gradient4" spreadMethod="pad" x1="-819.2" x2="819.2">
      <stop offset="0.0" stop-color="#0c0554"/>
      <stop offset="1.0" stop-color="#662d91"/>
    </linearGradient>
    <linearGradient gradientTransform="matrix(-0.0034, -0.0638, -0.0526, 0.0041, 244.25, 210.6)" gradientUnits="userSpaceOnUse" id="gradient5" spreadMethod="pad" x1="-819.2" x2="819.2">
      <stop offset="0.0" stop-color="#0c0554"/>
      <stop offset="1.0" stop-color="#662d91"/>
    </linearGradient>
    <linearGradient gradientTransform="matrix(-0.0034, -0.0638, -0.0526, 0.0041, 210.3, 213.2)" gradientUnits="userSpaceOnUse" id="gradient6" spreadMethod="pad" x1="-819.2" x2="819.2">
      <stop offset="0.0" stop-color="#0c0554"/>
      <stop offset="1.0" stop-color="#662d91"/>
    </linearGradient>
    <linearGradient gradientTransform="matrix(-0.0034, -0.0638, -0.0526, 0.0041, 232.95, 211.45)" gradientUnits="userSpaceOnUse" id="gradient7" spreadMethod="pad" x1="-819.2" x2="819.2">
      <stop offset="0.0" stop-color="#0c0554"/>
      <stop offset="1.0" stop-color="#662d91"/>
    </linearGradient>
    <linearGradient gradientTransform="matrix(-0.0034, -0.0638, -0.0526, 0.0041, 95.4, 222.25)" gradientUnits="userSpaceOnUse" id="gradient8" spreadMethod="pad" x1="-819.2" x2="819.2">
      <stop offset="0.0" stop-color="#0c0554"/>
      <stop offset="1.0" stop-color="#662d91"/>
    </linearGradient>
    <linearGradient gradientTransform="matrix(-0.0034, -0.0638, -0.0526, 0.0041, 56.2, 225.3)" gradientUnits="userSpaceOnUse" id="gradient9" spreadMethod="pad" x1="-819.2" x2="819.2">
      <stop offset="0.0" stop-color="#0c0554"/>
      <stop offset="1.0" stop-color="#662d91"/>
    </linearGradient>
    <linearGradient gradientTransform="matrix(-0.0034, -0.0638, -0.0526, 0.0041, 70.25, 224.2)" gradientUnits="userSpaceOnUse" id="gradient10" spreadMethod="pad" x1="-819.2" x2="819.2">
      <stop offset="0.0" stop-color="#0c0554"/>
      <stop offset="1.0" stop-color="#662d91"/>
    </linearGradient>
    <linearGradient gradientTransform="matrix(-0.0034, -0.0638, -0.0526, 0.0041, 96.55, 222.15)" gradientUnits="userSpaceOnUse" id="gradient11" spreadMethod="pad" x1="-819.2" x2="819.2">
      <stop offset="0.0" stop-color="#0c0554"/>
      <stop offset="1.0" stop-color="#662d91"/>
    </linearGradient>
    <linearGradient gradientTransform="matrix(-0.0034, -0.0638, -0.0526, 0.0041, 131.1, 219.4)" gradientUnits="userSpaceOnUse" id="gradient12" spreadMethod="pad" x1="-819.2" x2="819.2">
      <stop offset="0.0" stop-color="#0c0554"/>
      <stop offset="1.0" stop-color="#662d91"/>
    </linearGradient>
    <linearGradient gradientTransform="matrix(-0.0034, -0.0638, -0.0526, 0.0041, 113.0, 220.85)" gradientUnits="userSpaceOnUse" id="gradient13" spreadMethod="pad" x1="-819.2" x2="819.2">
      <stop offset="0.0" stop-color="#0c0554"/>
      <stop offset="1.0" stop-color="#662d91"/>
    </linearGradient>
    <linearGradient gradientTransform="matrix(-0.0034, -0.0638, -0.0526, 0.0041, 146.75, 218.25)" gradientUnits="userSpaceOnUse" id="gradient14" spreadMethod="pad" x1="-819.2" x2="819.2">
      <stop offset="0.0" stop-color="#0c0554"/>
      <stop offset="1.0" stop-color="#662d91"/>
    </linearGradient>
    <linearGradient gradientTransform="matrix(-0.0034, -0.0638, -0.0526, 0.0041, 155.05, 217.55)" gradientUnits="userSpaceOnUse" id="gradient15" spreadMethod="pad" x1="-819.2" x2="819.2">
      <stop offset="0.0" stop-color="#0c0554"/>
      <stop offset="1.0" stop-color="#662d91"/>
    </linearGradient>
    <linearGradient gradientTransform="matrix(-0.0034, -0.0638, -0.0526, 0.0041, 127.6, 219.75)" gradientUnits="userSpaceOnUse" id="gradient16" spreadMethod="pad" x1="-819.2" x2="819.2">
      <stop offset="0.0" stop-color="#0c0554"/>
      <stop offset="1.0" stop-color="#662d91"/>
    </linearGradient>
    <linearGradient gradientTransform="matrix(-0.0034, -0.0638, -0.0526, 0.0041, 135.2, 219.1)" gradientUnits="userSpaceOnUse" id="gradient17" spreadMethod="pad" x1="-819.2" x2="819.2">
      <stop offset="0.0" stop-color="#0c0554"/>
      <stop offset="1.0" stop-color="#662d91"/>
    </linearGradient>
    <linearGradient gradientTransform="matrix(-0.0034, -0.0638, -0.0526, 0.0041, 119.65, 220.35)" gradientUnits="userSpaceOnUse" id="gradient18" spreadMethod="pad" x1="-819.2" x2="819.2">
      <stop offset="0.0" stop-color="#0c0554"/>
      <stop offset="1.0" stop-color="#662d91"/>
    </linearGradient>
    <linearGradient gradientTransform="matrix(-0.0034, -0.0638, -0.0526, 0.0041, 113.15, 220.85)" gradientUnits="userSpaceOnUse" id="gradient19" spreadMethod="pad" x1="-819.2" x2="819.2">
      <stop offset="0.0" stop-color="#0c0554"/>
      <stop offset="1.0" stop-color="#662d91"/>
    </linearGradient>
    <linearGradient gradientTransform="matrix(-0.0034, -0.0638, -0.0526, 0.0041, 103.05, 221.65)" gradientUnits="userSpaceOnUse" id="gradient20" spreadMethod="pad" x1="-819.2" x2="819.2">
      <stop offset="0.0" stop-color="#0c0554"/>
      <stop offset="1.0" stop-color="#662d91"/>
    </linearGradient>
    <linearGradient gradientTransform="matrix(-0.0034, -0.0638, -0.0526, 0.0041, 97.4, 222.05)" gradientUnits="userSpaceOnUse" id="gradient21" spreadMethod="pad" x1="-819.2" x2="819.2">
      <stop offset="0.0" stop-color="#0c0554"/>
      <stop offset="1.0" stop-color="#662d91"/>
    </linearGradient>
    <linearGradient gradientTransform="matrix(-0.0034, -0.0638, -0.0526, 0.0041, 107.85, 221.25)" gradientUnits="userSpaceOnUse" id="gradient22" spreadMethod="pad" x1="-819.2" x2="819.2">
      <stop offset="0.0" stop-color="#0c0554"/>
      <stop offset="1.0" stop-color="#662d91"/>
    </linearGradient>
    <linearGradient gradientTransform="matrix(-0.0034, -0.0638, -0.0526, 0.0041, 88.45, 222.8)" gradientUnits="userSpaceOnUse" id="gradient23" spreadMethod="pad" x1="-819.2" x2="819.2">
      <stop offset="0.0" stop-color="#0c0554"/>
      <stop offset="1.0" stop-color="#662d91"/>
    </linearGradient>
    <linearGradient gradientTransform="matrix(-0.0034, -0.0638, -0.0526, 0.0041, 77.05, 223.65)" gradientUnits="userSpaceOnUse" id="gradient24" spreadMethod="pad" x1="-819.2" x2="819.2">
      <stop offset="0.0" stop-color="#0c0554"/>
      <stop offset="1.0" stop-color="#662d91"/>
    </linearGradient>
    <linearGradient gradientTransform="matrix(-0.0034, -0.0638, -0.0526, 0.0041, 222.25, 212.3)" gradientUnits="userSpaceOnUse" id="gradient25" spreadMethod="pad" x1="-819.2" x2="819.2">
      <stop offset="0.0" stop-color="#0c0554"/>
      <stop offset="1.0" stop-color="#662d91"/>
    </linearGradient>
    <linearGradient gradientTransform="matrix(-0.0034, -0.0638, -0.0526, 0.0041, 229.7, 211.7)" gradientUnits="userSpaceOnUse" id="gradient26" spreadMethod="pad" x1="-819.2" x2="819.2">
      <stop offset="0.0" stop-color="#0c0554"/>
      <stop offset="1.0" stop-color="#662d91"/>
    </linearGradient>
    <linearGradient gradientTransform="matrix(-0.0034, -0.0638, -0.0526, 0.0041, 205.95, 213.6)" gradientUnits="userSpaceOnUse" id="gradient27" spreadMethod="pad" x1="-819.2" x2="819.2">
      <stop offset="0.0" stop-color="#0c0554"/>
      <stop offset="1.0" stop-color="#662d91"/>
    </linearGradient>
    <linearGradient gradientTransform="matrix(-0.0034, -0.0638, -0.0526, 0.0041, 214.25, 212.9)" gradientUnits="userSpaceOnUse" id="gradient28" spreadMethod="pad" x1="-819.2" x2="819.2">
      <stop offset="0.0" stop-color="#0c0554"/>
      <stop offset="1.0" stop-color="#662d91"/>
    </linearGradient>
    <linearGradient gradientTransform="matrix(-0.0034, -0.0638, -0.0526, 0.0041, 189.65, 214.85)" gradientUnits="userSpaceOnUse" id="gradient29" spreadMethod="pad" x1="-819.2" x2="819.2">
      <stop offset="0.0" stop-color="#0c0554"/>
      <stop offset="1.0" stop-color="#662d91"/>
    </linearGradient>
    <linearGradient gradientTransform="matrix(-0.0034, -0.0638, -0.0526, 0.0041, 197.5, 214.2)" gradientUnits="userSpaceOnUse" id="gradient30" spreadMethod="pad" x1="-819.2" x2="819.2">
      <stop offset="0.0" stop-color="#0c0554"/>
      <stop offset="1.0" stop-color="#662d91"/>
    </linearGradient>
    <linearGradient gradientTransform="matrix(-0.0034, -0.0638, -0.0526, 0.0041, 176.05, 215.9)" gradientUnits="userSpaceOnUse" id="gradient31" spreadMethod="pad" x1="-819.2" x2="819.2">
      <stop offset="0.0" stop-color="#0c0554"/>
      <stop offset="1.0" stop-color="#662d91"/>
    </linearGradient>
    <linearGradient gradientTransform="matrix(-0.0034, -0.0638, -0.0526, 0.0041, 182.15, 215.45)" gradientUnits="userSpaceOnUse" id="gradient32" spreadMethod="pad" x1="-819.2" x2="819.2">
      <stop offset="0.0" stop-color="#0c0554"/>
      <stop offset="1.0" stop-color="#662d91"/>
    </linearGradient>
    <linearGradient gradientTransform="matrix(-0.0034, -0.0638, -0.0526, 0.0041, 161.7, 217.05)" gradientUnits="userSpaceOnUse" id="gradient33" spreadMethod="pad" x1="-819.2" x2="819.2">
      <stop offset="0.0" stop-color="#0c0554"/>
      <stop offset="1.0" stop-color="#662d91"/>
    </linearGradient>
    <linearGradient gradientTransform="matrix(-0.0034, -0.0638, -0.0526, 0.0041, 167.9, 216.55)" gradientUnits="userSpaceOnUse" id="gradient34" spreadMethod="pad" x1="-819.2" x2="819.2">
      <stop offset="0.0" stop-color="#0c0554"/>
      <stop offset="1.0" stop-color="#662d91"/>
    </linearGradient>
  </defs>
</svg>
