<?xml version="1.0" encoding="UTF-8" standalone="no"?>
<svg xmlns:xlink="http://www.w3.org/1999/xlink" height="300.0px" width="300.0px" xmlns="http://www.w3.org/2000/svg">
  <g transform="matrix(1.0, 0.0, 0.0, 1.0, 0.0, 0.0)">
    <use height="203.3" transform="matrix(0.8137, 0.0, 0.0, 0.8137, -5.4265, 70.9502)" width="383.0" xlink:href="#sprite0"/>
  </g>
  <defs>
    <g id="sprite0" transform="matrix(1.0, 0.0, 0.0, 1.0, 192.8, 100.9)">
      <use height="203.3" transform="matrix(1.0, 0.0, 0.0, 1.0, -192.8, -100.9)" width="383.0" xlink:href="#shape0"/>
    </g>
    <g id="shape0" transform="matrix(1.0, 0.0, 0.0, 1.0, 192.8, 100.9)">
      <path d="M55.2 -64.6 Q61.4 -67.4 68.1 -66.8 74.4 -66.2 79.85 -62.75 85.1 -59.35 88.55 -53.9 93.45 -58.15 99.45 -60.15 105.7 -62.3 112.3 -61.7 125.85 -60.5 134.8 -49.65 143.75 -38.85 142.9 -24.6 L143.75 -24.55 Q164.25 -22.7 177.85 -8.1 191.4 6.55 190.1 25.45 188.85 43.95 173.9 55.95 159.05 67.9 139.0 66.75 134.65 78.5 123.1 85.25 111.4 92.15 97.2 90.85 87.6 89.95 79.3 85.45 57.3 102.4 26.25 102.4 -5.1 102.4 -27.25 85.1 L-29.4 83.35 Q-47.1 90.7 -68.5 90.7 -104.2 90.7 -129.55 70.25 L-133.85 70.35 Q-158.25 70.35 -175.55 56.1 -192.8 41.85 -192.8 21.65 -192.8 1.45 -175.55 -12.8 -164.1 -22.2 -149.55 -25.4 -146.75 -38.1 -137.65 -46.5 -127.9 -55.6 -115.3 -55.6 -107.35 -55.6 -100.2 -51.75 -93.45 -63.35 -81.75 -68.7 -75.3 -71.6 -68.45 -71.9 -61.85 -72.2 -55.65 -70.1 -52.05 -84.95 -35.55 -93.65 -18.85 -102.45 2.6 -100.55 22.35 -98.8 37.15 -88.55 51.7 -78.5 55.2 -64.6" fill="#9cc2db" fill-rule="evenodd" stroke="none"/>
      <path d="M-117.4 -0.75 L-117.4 2.3 -114.1 2.3 -114.1 4.05 -117.4 4.05 -117.4 10.8 Q-117.4 13.25 -115.7 13.25 L-114.35 13.1 -114.25 14.8 -116.3 15.15 Q-117.9 15.15 -118.75 14.15 -119.65 13.25 -119.65 10.9 L-119.65 4.05 -121.6 4.05 -121.6 2.3 -119.65 2.3 -119.65 -0.05 -117.4 -0.75 M-109.25 -3.6 L-109.25 4.25 -109.2 4.25 Q-108.7 3.3 -107.55 2.65 -106.5 2.0 -105.25 2.0 -103.6 2.0 -102.4 3.05 -100.85 4.5 -100.85 7.4 L-100.85 14.85 -103.1 14.85 -103.1 7.65 Q-103.1 3.9 -106.05 3.9 -107.1 3.9 -107.95 4.6 -108.8 5.25 -109.1 6.2 L-109.25 7.3 -109.25 14.85 -111.55 14.85 -111.55 -3.6 -109.25 -3.6 M-87.0 9.0 L-95.85 9.0 Q-95.8 11.2 -94.5 12.35 -93.35 13.35 -91.5 13.35 -89.45 13.35 -88.05 12.7 L-87.65 14.35 Q-89.5 15.15 -91.85 15.15 -94.7 15.15 -96.35 13.4 -98.0 11.7 -98.0 8.8 -98.0 5.85 -96.45 4.0 -94.8 2.0 -92.1 2.0 -89.35 2.0 -87.95 4.1 -86.9 5.7 -86.9 7.95 L-87.0 9.0 M-89.75 4.95 Q-90.6 3.65 -92.3 3.65 -93.85 3.65 -94.85 4.9 -95.65 5.95 -95.8 7.35 L-89.15 7.35 Q-89.1 5.95 -89.75 4.95 M82.45 44.0 L82.45 42.05 95.4 42.05 95.4 44.0 90.05 44.0 90.05 59.6 87.8 59.6 87.8 44.0 82.45 44.0 M106.8 43.35 Q108.15 44.6 108.15 46.7 108.15 48.35 107.2 49.55 106.3 50.7 104.85 51.15 L104.85 51.25 Q106.75 51.9 107.45 54.8 108.35 58.8 108.8 59.6 L106.45 59.6 Q106.0 58.85 105.3 55.4 104.9 53.6 104.1 52.85 103.3 52.1 101.75 52.0 L99.65 52.0 99.65 59.6 97.35 59.6 97.35 42.3 101.7 41.95 Q105.2 41.95 106.8 43.35 M105.9 46.95 Q105.9 43.7 101.85 43.7 L99.65 43.9 99.65 50.3 101.95 50.3 Q103.75 50.3 104.85 49.4 105.9 48.45 105.9 46.95 M112.0 42.05 L114.5 46.9 116.2 50.5 116.3 50.5 118.05 46.9 120.55 42.05 123.15 42.05 117.25 52.15 117.25 59.6 115.0 59.6 115.0 52.15 109.45 42.05 112.0 42.05 M45.3 43.95 L38.1 43.95 38.1 49.5 44.9 49.5 44.9 51.4 38.1 51.4 38.1 57.7 45.7 57.7 45.7 59.6 35.85 59.6 35.85 42.05 45.3 42.05 45.3 43.95 M57.05 41.9 Q59.75 41.9 61.45 42.7 L60.9 44.55 Q59.1 43.8 57.0 43.8 53.8 43.8 51.9 45.7 50.0 47.55 50.0 50.85 50.0 54.15 51.85 56.05 53.65 57.9 56.75 57.9 L59.75 57.45 59.75 52.2 56.2 52.2 56.2 50.4 61.95 50.4 61.95 58.8 Q59.45 59.8 56.6 59.8 52.45 59.8 50.05 57.45 47.6 55.15 47.6 50.95 47.6 46.95 50.15 44.45 52.75 41.9 57.05 41.9 M67.7 42.05 L67.7 59.6 65.4 59.6 65.4 42.05 67.7 42.05 M72.7 43.15 Q74.25 41.8 76.8 41.8 79.25 41.8 80.65 42.65 L80.05 44.5 Q78.35 43.65 76.7 43.65 75.05 43.65 74.15 44.55 73.4 45.25 73.4 46.3 73.4 47.45 74.25 48.25 75.0 48.95 76.9 49.65 79.2 50.55 80.25 51.7 81.35 52.95 81.35 54.8 81.35 56.95 79.85 58.35 78.15 59.9 75.2 59.9 72.55 59.9 70.75 58.75 L71.3 56.85 Q73.3 58.0 75.4 58.0 77.1 58.0 78.1 57.15 79.05 56.35 79.05 55.0 79.05 53.8 78.3 52.95 77.55 52.2 75.75 51.5 71.1 49.85 71.1 46.55 71.1 44.45 72.7 43.15 M24.1 43.9 L24.1 50.3 26.4 50.3 Q28.2 50.3 29.3 49.4 30.35 48.45 30.35 46.95 30.35 43.7 26.35 43.7 L24.1 43.9 M26.2 41.95 Q29.65 41.95 31.25 43.35 32.65 44.6 32.65 46.7 32.65 48.35 31.7 49.55 30.8 50.7 29.35 51.15 L29.35 51.25 Q31.25 51.9 31.9 54.8 32.9 58.9 33.25 59.6 L30.9 59.6 Q30.55 58.9 29.75 55.4 29.4 53.6 28.6 52.85 27.8 52.1 26.25 52.0 L24.1 52.0 24.1 59.6 21.85 59.6 21.85 42.3 26.2 41.95" fill="#000000" fill-rule="evenodd" stroke="none"/>
      <path d="M4.35 -13.05 Q-1.1 -16.2 -7.3 -16.2 -13.3 -16.2 -18.8 -13.05 -24.15 -9.95 -27.25 -4.55 -30.3 0.75 -30.3 7.35 -30.3 17.05 -23.55 23.8 -16.75 30.5 -7.3 30.5 -1.0 30.5 4.45 27.4 9.9 24.3 12.9 19.0 15.95 13.5 15.95 7.1 15.95 0.7 12.9 -4.65 9.9 -9.9 4.35 -13.05 M32.55 -20.15 L32.55 12.65 Q32.55 21.75 38.3 26.45 43.1 30.4 50.55 30.4 58.0 30.4 62.8 26.45 68.55 21.75 68.55 12.65 L68.55 -20.15 74.05 -20.15 74.05 12.65 Q74.05 23.95 66.7 30.3 60.2 35.9 50.55 35.9 40.9 35.9 34.4 30.3 27.05 23.95 27.05 12.65 L27.05 -20.15 32.55 -20.15 M110.35 -18.2 Q118.3 -15.45 122.75 -8.55 127.25 -1.65 127.25 7.8 127.25 16.0 123.7 22.25 120.15 28.5 114.5 31.45 108.8 34.45 98.65 34.45 L81.25 34.45 81.25 -20.15 92.6 -20.15 Q104.8 -20.15 110.35 -18.2 M86.5 -14.8 L86.5 29.25 92.8 29.25 Q104.25 29.25 108.5 27.85 114.6 25.9 118.2 20.65 121.7 15.5 121.7 7.9 121.7 0.0 117.9 -5.6 114.1 -11.15 107.25 -13.25 102.25 -14.8 90.35 -14.8 L86.5 -14.8 M-105.4 -16.15 Q-111.95 -16.15 -117.5 -13.0 -123.1 -9.8 -126.1 -4.6 -129.2 0.75 -129.2 7.3 -129.2 17.25 -122.35 23.95 -115.4 30.65 -105.05 30.65 -93.55 30.65 -85.9 21.65 L-81.6 24.95 Q-85.6 30.05 -91.75 32.95 -97.9 35.8 -105.4 35.8 -119.75 35.8 -128.0 26.25 -134.95 18.15 -134.95 6.8 -134.95 -5.15 -126.55 -13.35 -118.1 -21.5 -105.45 -21.5 -97.8 -21.5 -91.65 -18.5 -85.55 -15.5 -81.6 -10.0 L-85.9 -6.7 Q-89.4 -11.35 -94.45 -13.75 -99.4 -16.15 -105.4 -16.15 M-68.7 -20.15 L-68.7 29.15 -36.7 29.15 -36.7 34.45 -74.15 34.45 -74.15 -20.15 -68.7 -20.15 M-7.55 -21.5 Q4.9 -21.5 13.2 -13.25 21.55 -5.05 21.55 7.1 21.55 19.15 13.25 27.45 4.9 35.8 -7.1 35.8 -19.2 35.8 -27.6 27.5 -35.95 19.15 -35.95 7.4 -35.95 -0.35 -32.15 -7.2 -28.3 -13.95 -21.75 -17.7 -15.25 -21.5 -7.55 -21.5" fill="#ffffff" fill-rule="evenodd" stroke="none"/>
    </g>
  </defs>
</svg>
