<?xml version="1.0" encoding="UTF-8" standalone="no"?>
<svg xmlns:xlink="http://www.w3.org/1999/xlink" height="300.0px" width="300.0px" xmlns="http://www.w3.org/2000/svg">
  <g transform="matrix(1.0, 0.0, 0.0, 1.0, 0.0, 0.0)">
    <use height="182.85" transform="matrix(1.0, 0.0, 0.0, 1.0, 20.35, 38.1)" width="259.9" xlink:href="#shape0"/>
  </g>
  <defs>
    <g id="shape0" transform="matrix(1.0, 0.0, 0.0, 1.0, -20.35, -38.1)">
      <path d="M179.1 214.95 L173.0 204.65 166.95 214.95 179.1 214.95 M185.3 220.75 L182.5 220.75 180.25 216.95 165.75 216.95 163.5 220.75 160.75 220.75 171.5 202.65 174.5 202.65 185.3 220.75 M205.95 208.95 L205.95 207.3 Q206.0 206.3 205.6 205.7 205.25 205.15 204.25 204.9 L201.5 204.65 190.35 204.65 190.35 211.6 202.1 211.6 Q204.15 211.6 205.05 211.0 206.0 210.4 205.95 208.95 M208.2 205.55 L208.45 207.75 208.45 209.25 Q208.4 210.5 208.0 211.25 L206.8 212.25 205.1 212.65 205.1 212.7 Q206.35 212.95 207.0 213.45 L207.95 214.6 208.2 216.1 208.2 220.75 205.9 220.75 205.9 216.75 Q205.9 215.4 205.45 214.7 205.05 214.0 204.25 213.8 L202.3 213.6 190.35 213.6 190.35 220.75 187.9 220.75 187.9 202.65 202.35 202.65 205.5 203.0 Q206.75 203.3 207.35 203.95 208.0 204.6 208.2 205.55 M230.35 209.05 L230.35 207.3 Q230.35 206.25 230.0 205.65 L228.85 204.85 227.05 204.65 215.2 204.65 215.2 211.6 227.25 211.6 Q228.75 211.65 229.55 211.05 230.35 210.45 230.35 209.05 M232.8 207.55 L232.7 210.2 Q232.55 211.35 232.0 212.1 231.45 212.85 230.3 213.25 L227.15 213.6 215.2 213.6 215.2 220.75 212.75 220.75 212.75 202.65 227.65 202.65 230.45 203.0 Q231.6 203.35 232.2 204.4 232.8 205.5 232.8 207.55 M254.1 218.75 L254.1 220.75 236.25 220.75 236.25 202.65 254.0 202.65 254.0 204.65 238.7 204.65 238.7 210.4 253.4 210.4 253.4 212.4 238.7 212.4 238.7 218.75 254.1 218.75 M276.6 202.65 L276.6 204.65 267.45 204.65 267.45 220.75 265.0 220.75 265.0 204.65 255.9 204.65 255.9 202.65 276.6 202.65 M42.85 205.7 Q42.5 205.15 41.5 204.9 L38.75 204.65 27.6 204.65 27.6 211.6 39.35 211.6 Q41.4 211.6 42.3 211.0 43.25 210.4 43.2 208.95 L43.2 207.3 Q43.25 206.3 42.85 205.7 M45.7 207.75 L45.7 209.25 Q45.65 210.5 45.25 211.25 L44.05 212.25 42.35 212.65 42.35 212.7 Q43.6 212.95 44.25 213.45 44.95 213.9 45.2 214.6 L45.45 216.1 45.45 220.75 43.15 220.75 43.15 216.75 Q43.15 215.4 42.7 214.7 42.3 214.0 41.5 213.8 L39.55 213.6 27.6 213.6 27.6 220.75 25.15 220.75 25.15 202.65 39.6 202.65 42.75 203.0 Q44.0 203.3 44.6 203.95 45.25 204.6 45.45 205.55 L45.7 207.75 M70.4 208.3 Q70.4 206.75 69.85 205.9 69.25 205.05 68.3 204.75 L66.15 204.45 56.25 204.45 54.1 204.75 Q53.15 205.05 52.55 205.9 52.0 206.75 52.0 208.3 L52.0 215.1 Q52.0 216.65 52.55 217.5 53.15 218.35 54.1 218.65 L56.25 218.95 66.15 218.95 68.3 218.65 Q69.25 218.35 69.85 217.5 70.4 216.65 70.4 215.1 L70.4 208.3 M72.25 205.45 Q72.85 206.95 72.85 209.25 L72.85 214.15 Q72.85 216.45 72.25 217.95 71.65 219.45 70.25 220.2 68.85 220.95 66.4 220.95 L56.0 220.95 Q53.55 220.95 52.15 220.2 50.7 219.45 50.1 217.95 49.5 216.45 49.55 214.15 L49.55 209.25 Q49.5 206.95 50.1 205.45 50.7 203.95 52.15 203.2 53.55 202.45 56.0 202.45 L66.4 202.45 Q68.85 202.45 70.25 203.2 71.65 203.95 72.25 205.45 M99.45 205.45 Q100.05 206.95 100.05 209.25 L100.05 214.15 Q100.05 216.45 99.45 217.95 98.85 219.45 97.45 220.2 96.05 220.95 93.6 220.95 L83.2 220.95 Q80.75 220.95 79.35 220.2 77.9 219.45 77.3 217.95 76.7 216.45 76.75 214.15 L76.75 209.25 Q76.7 206.95 77.3 205.45 77.9 203.95 79.35 203.2 80.75 202.45 83.2 202.45 L93.6 202.45 Q96.05 202.45 97.45 203.2 98.85 203.95 99.45 205.45 M97.05 205.9 Q96.45 205.05 95.5 204.75 L93.35 204.45 83.45 204.45 81.3 204.75 Q80.35 205.05 79.75 205.9 79.2 206.75 79.2 208.3 L79.2 215.1 Q79.2 216.65 79.75 217.5 80.35 218.35 81.3 218.65 L83.45 218.95 93.35 218.95 95.5 218.65 Q96.45 218.35 97.05 217.5 97.6 216.65 97.6 215.1 L97.6 208.3 Q97.6 206.75 97.05 205.9 M121.65 202.65 L121.65 204.65 106.85 204.65 106.85 210.4 121.05 210.4 121.05 212.4 106.85 212.4 106.85 220.75 104.4 220.75 104.4 202.65 121.65 202.65 M152.8 202.45 Q155.0 202.45 156.25 203.1 157.5 203.7 158.0 204.7 158.5 205.7 158.5 206.95 L158.5 208.5 156.35 208.5 156.35 207.7 Q156.3 206.15 155.75 205.5 155.2 204.8 154.25 204.6 L152.2 204.45 143.7 204.45 141.55 204.75 Q140.6 205.05 140.0 205.9 139.45 206.75 139.45 208.3 L139.45 215.1 Q139.45 216.65 140.0 217.5 140.6 218.35 141.55 218.65 L143.7 218.95 152.25 218.95 154.8 218.65 Q155.75 218.4 156.15 217.7 156.5 217.0 156.5 215.8 L156.5 214.65 158.8 214.65 158.8 215.9 Q158.8 217.55 158.35 218.65 157.85 219.8 156.5 220.35 155.2 220.95 152.7 220.95 L143.4 220.95 Q141.0 220.95 139.6 220.2 138.15 219.45 137.55 217.95 136.95 216.45 137.0 214.15 L137.0 209.25 Q136.95 206.95 137.55 205.45 138.15 203.95 139.6 203.2 141.0 202.45 143.4 202.45 L152.8 202.45" fill="#000000" fill-rule="evenodd" stroke="none"/>
      <path d="M191.55 160.65 Q193.2 161.6 193.2 162.65 193.2 163.3 192.45 164.15 191.25 165.25 190.75 166.25 190.15 167.4 190.15 168.7 190.15 171.1 186.05 171.4 L184.35 171.6 Q182.65 171.6 182.8 170.0 182.25 169.15 180.9 169.15 178.5 169.15 174.55 171.45 170.6 173.75 167.75 176.75 164.6 180.1 164.6 182.5 164.6 186.05 170.8 186.05 179.25 186.05 190.2 179.6 183.55 179.65 174.8 182.25 L173.9 182.4 Q172.55 182.4 171.8 181.15 171.2 180.1 171.2 178.75 171.2 177.15 172.75 176.35 173.5 175.9 175.65 175.4 185.4 173.2 193.0 173.2 198.65 173.2 198.65 176.9 198.65 178.9 197.8 181.0 196.85 183.3 195.35 184.3 190.85 187.15 182.95 189.7 174.85 192.25 169.8 192.25 164.75 192.25 161.75 189.8 158.95 187.5 158.55 183.7 L157.75 184.3 Q153.25 187.15 145.35 189.7 137.25 192.25 132.2 192.25 127.15 192.25 124.15 189.8 120.8 187.1 120.8 182.3 L120.9 181.3 119.7 181.55 118.0 181.45 116.35 181.3 Q115.6 184.4 115.6 186.9 115.6 188.8 116.25 191.55 L116.45 192.7 Q116.45 194.85 114.15 194.85 111.25 194.85 110.1 192.1 109.45 190.25 109.45 186.75 109.45 184.25 109.85 181.8 L98.75 183.85 100.75 189.55 Q100.75 190.8 99.65 191.55 98.7 192.2 97.4 192.2 95.1 192.2 94.05 190.3 93.3 188.9 92.0 184.8 L90.35 184.85 Q89.2 184.85 88.5 183.4 87.85 182.25 87.85 180.95 87.85 178.35 90.05 178.15 89.1 174.25 89.1 171.75 89.1 169.1 90.55 167.55 91.75 166.25 94.45 165.35 98.25 164.15 103.95 163.25 L113.65 162.4 Q120.55 162.4 120.55 166.75 120.55 168.35 118.3 174.8 119.7 175.0 120.65 176.5 121.35 177.5 121.55 178.6 122.55 175.75 125.1 172.8 128.95 168.35 134.65 165.25 140.4 162.15 144.85 162.15 L147.55 162.6 Q149.05 159.8 151.25 159.8 152.35 159.8 153.95 160.65 155.6 161.6 155.6 162.65 155.6 163.3 154.85 164.15 153.65 165.25 153.15 166.25 152.55 167.4 152.55 168.7 152.55 171.1 148.45 171.4 L146.75 171.6 Q145.05 171.6 145.2 170.0 144.65 169.15 143.3 169.15 140.9 169.15 136.95 171.45 133.0 173.75 130.1 176.75 127.0 180.1 127.0 182.5 127.0 186.05 133.2 186.05 141.65 186.05 152.6 179.6 145.95 179.65 137.2 182.25 L136.3 182.4 Q134.95 182.4 134.2 181.15 133.6 180.1 133.6 178.75 133.6 177.15 135.15 176.35 135.9 175.9 138.05 175.4 147.8 173.2 155.4 173.2 159.7 173.2 160.8 175.4 161.55 174.1 162.7 172.8 166.55 168.35 172.25 165.25 178.0 162.15 182.45 162.15 L185.15 162.6 Q186.65 159.8 188.85 159.8 189.95 159.8 191.55 160.65 M198.95 174.0 Q198.95 168.15 200.25 164.95 201.25 162.5 204.1 162.5 205.1 162.5 205.9 162.95 206.75 163.5 206.75 164.5 L206.1 168.1 Q205.5 170.4 205.5 171.65 205.5 172.55 206.55 172.55 L215.6 171.7 Q222.55 170.65 223.3 169.25 223.7 168.45 223.7 167.15 L223.55 164.65 223.3 162.2 Q223.3 161.15 224.4 160.4 225.45 159.6 226.55 159.6 228.7 159.6 229.55 162.4 231.85 169.85 231.85 179.7 231.85 185.2 229.8 188.75 227.35 193.15 222.35 193.15 218.95 193.15 212.95 190.65 209.8 189.3 206.45 189.0 L199.65 188.9 Q197.5 188.9 197.5 186.95 197.5 184.9 198.65 183.65 199.9 182.35 201.85 182.35 209.3 182.35 213.9 184.35 219.1 186.65 221.8 186.65 226.3 186.65 226.3 180.2 226.3 178.1 225.9 175.15 222.35 176.8 216.1 178.05 210.05 179.25 205.85 179.25 202.5 179.25 200.95 178.3 198.95 177.05 198.95 174.0 M242.6 157.2 Q243.9 157.2 244.85 158.0 245.85 158.85 245.85 160.1 245.85 160.8 244.55 163.9 L243.0 167.65 241.0 173.9 Q240.2 175.8 237.75 175.8 236.55 175.8 235.55 175.15 234.35 174.45 234.35 173.25 234.35 172.15 236.65 166.15 238.85 160.5 239.75 158.9 240.7 157.2 242.6 157.2 M265.1 169.5 L258.45 170.15 Q253.2 171.0 253.15 172.6 253.85 173.2 258.55 173.55 L267.65 174.4 Q273.1 175.05 275.35 176.35 280.25 179.1 280.25 182.0 280.25 185.35 273.65 188.55 269.1 190.75 264.15 191.85 L256.05 192.9 Q247.3 192.9 247.3 187.7 L247.25 186.5 247.2 185.4 Q247.2 183.9 248.2 182.6 249.6 180.95 251.35 180.95 252.4 180.95 253.65 181.45 255.15 182.1 255.15 183.05 255.15 184.0 254.45 184.6 253.8 185.15 253.8 185.85 253.8 187.0 256.0 187.0 260.5 187.0 265.8 185.65 272.8 183.85 272.8 182.4 272.8 181.55 269.3 180.85 L265.05 180.1 257.6 179.5 Q251.7 178.8 248.4 177.6 243.95 175.9 243.95 173.05 243.95 170.4 249.55 167.45 253.75 165.25 257.7 164.3 261.65 163.35 264.85 163.35 L267.9 163.65 Q269.7 160.05 272.0 160.05 273.45 160.05 274.6 161.1 275.7 162.15 275.7 163.65 275.7 164.6 275.0 165.35 L273.5 166.9 Q273.1 167.45 272.8 169.3 L272.05 171.9 Q271.4 173.2 269.75 173.2 268.05 173.2 266.7 172.25 265.25 171.2 265.45 169.5 L265.1 169.5 M25.95 167.45 Q30.15 165.25 34.15 164.3 38.05 163.35 41.25 163.35 L44.35 163.65 Q46.1 160.05 48.4 160.05 49.9 160.05 51.0 161.1 52.1 162.15 52.1 163.65 52.1 164.6 51.4 165.35 L49.95 166.9 Q49.5 167.45 49.2 169.3 L48.5 171.9 Q47.8 173.2 46.2 173.2 44.45 173.2 43.1 172.25 41.65 171.2 41.85 169.5 L41.55 169.5 34.85 170.15 Q29.6 171.0 29.55 172.6 30.25 173.2 34.95 173.55 L44.05 174.4 Q49.5 175.05 51.8 176.35 53.75 177.45 54.9 178.6 L54.85 178.05 Q54.85 175.4 57.7 175.0 L57.7 174.8 Q57.7 170.55 56.6 165.85 L56.5 165.4 Q56.5 163.7 59.05 163.7 61.5 163.7 62.3 165.25 63.45 167.3 63.25 174.15 L77.8 172.85 78.25 165.8 78.1 163.35 78.0 160.9 Q78.0 158.9 80.15 158.9 82.7 158.9 83.6 160.8 84.15 162.05 84.15 165.05 L83.75 171.45 Q86.2 170.45 86.6 170.45 87.5 170.45 88.1 171.6 L88.55 173.5 Q88.55 176.05 86.8 177.3 85.7 178.1 82.65 178.75 81.8 184.7 81.8 190.3 81.8 191.5 80.75 192.15 79.9 192.7 78.7 192.7 L76.8 192.2 Q75.9 191.6 75.9 190.6 75.9 186.25 76.85 179.65 L63.05 180.85 63.05 181.4 Q63.05 183.65 63.45 186.6 L63.55 187.8 Q63.55 188.9 62.5 189.55 61.5 190.25 60.25 190.25 58.15 190.25 57.65 188.1 L57.45 184.35 57.45 182.0 56.65 181.8 56.65 182.0 Q56.65 185.35 50.05 188.55 45.5 190.75 40.6 191.85 L32.45 192.9 Q23.7 192.9 23.7 187.7 L23.65 186.5 23.6 185.4 Q23.6 183.9 24.6 182.6 26.0 180.95 27.75 180.95 28.8 180.95 30.05 181.45 31.55 182.1 31.55 183.05 31.55 184.0 30.9 184.6 30.2 185.15 30.2 185.85 30.2 187.0 32.4 187.0 36.95 187.0 42.2 185.65 49.2 183.85 49.2 182.4 49.2 181.55 45.75 180.85 L41.45 180.1 34.0 179.5 Q28.15 178.8 24.85 177.6 20.35 175.9 20.35 173.05 20.35 170.4 25.95 167.45 M103.25 169.55 Q96.95 170.5 96.15 171.8 95.9 172.2 95.9 173.05 95.9 174.7 96.75 177.6 L104.25 176.1 111.75 174.8 113.65 169.0 111.25 168.85 103.25 169.55" fill="#f05a28" fill-rule="evenodd" stroke="none"/>
      <path d="M248.95 143.55 L247.9 144.6 222.45 144.6 151.4 73.55 80.3 144.6 52.75 144.6 51.7 143.55 150.35 44.95 248.95 143.55" fill="#627b71" fill-rule="evenodd" stroke="none"/>
      <path d="M147.8 46.6 L141.4 40.25 143.55 38.1 149.9 44.5 147.8 46.6 M145.65 48.7 L143.55 50.85 137.2 44.5 139.3 42.35 145.65 48.7 M135.05 46.6 L141.4 52.95 139.3 55.1 132.95 48.7 135.05 46.6 M132.95 61.45 L130.8 63.55 124.45 57.2 126.55 55.1 132.95 61.45 M130.8 50.85 L137.2 57.2 135.05 59.35 128.7 52.95 130.8 50.85 M126.55 67.8 L120.2 61.45 122.35 59.35 128.7 65.7 126.55 67.8 M101.1 80.55 L107.5 86.9 105.35 89.05 99.0 82.65 101.1 80.55 M105.35 76.3 L111.7 82.65 109.6 84.8 103.25 78.4 105.35 76.3 M122.35 72.05 L115.95 65.7 118.1 63.55 124.45 69.95 122.35 72.05 M113.85 67.8 L120.2 74.2 118.1 76.3 111.7 69.95 113.85 67.8 M107.5 74.2 L109.6 72.05 115.95 78.4 113.85 80.55 107.5 74.2 M84.15 97.5 L90.5 103.9 88.4 106.0 82.0 99.65 84.15 97.5 M77.8 103.9 L79.9 101.75 86.25 108.1 84.15 110.25 77.8 103.9 M75.65 106.0 L82.0 112.35 79.9 114.5 73.55 108.1 75.65 106.0 M62.95 118.75 L69.3 125.1 67.15 127.2 60.8 120.85 62.95 118.75 M50.2 131.45 L56.55 137.8 54.45 139.95 48.1 133.6 50.2 131.45 M54.45 127.2 L60.8 133.6 58.7 135.7 52.3 129.35 54.45 127.2 M56.55 125.1 L58.7 122.95 65.05 129.35 62.95 131.45 56.55 125.1 M71.4 122.95 L65.05 116.6 67.15 114.5 73.55 120.85 71.4 122.95 M75.65 118.75 L69.3 112.35 71.4 110.25 77.8 116.6 75.65 118.75 M96.85 97.5 L90.5 91.15 92.65 89.05 99.0 95.4 96.85 97.5 M101.1 93.25 L94.75 86.9 96.85 84.8 103.25 91.15 101.1 93.25 M88.4 93.25 L94.75 99.65 92.65 101.75 86.25 95.4 88.4 93.25 M51.25 143.1 L44.9 136.75 45.95 135.7 52.3 142.05 51.25 143.1" fill="#f05a28" fill-rule="evenodd" stroke="none"/>
      <path d="M168.3 49.3 L161.95 55.7 159.85 53.55 166.2 47.2 168.3 49.3 M172.55 53.55 L166.2 59.95 164.05 57.8 170.45 51.45 172.55 53.55 M181.05 62.05 L174.7 68.4 172.55 66.3 178.9 59.95 181.05 62.05 M176.8 57.8 L170.45 64.15 168.3 62.05 174.65 55.7 176.8 57.8 M176.8 70.55 L183.15 64.15 185.3 66.3 178.9 72.65 176.8 70.55 M198.0 79.0 L191.65 85.4 189.5 83.25 195.9 76.9 198.0 79.0 M191.65 72.65 L193.75 74.8 187.4 81.15 185.3 79.0 191.65 72.65 M189.5 70.55 L183.15 76.9 181.05 74.8 187.4 68.4 189.5 70.55 M202.25 83.25 L195.9 89.65 193.75 87.5 200.15 81.15 202.25 83.25 M198.0 91.75 L204.35 85.4 206.5 87.5 200.15 93.85 198.0 91.75 M206.5 100.25 L212.85 93.85 215.0 96.0 208.6 102.35 206.5 100.25 M204.35 98.1 L202.25 96.0 208.6 89.65 210.75 91.75 204.35 98.1 M219.2 100.25 L212.85 106.6 210.75 104.5 217.1 98.1 219.2 100.25 M219.2 112.95 L225.6 106.6 227.7 108.7 221.35 115.1 219.2 112.95 M215.0 108.7 L221.35 102.35 223.45 104.5 217.1 110.85 215.0 108.7 M231.95 112.95 L225.6 119.3 223.45 117.2 229.85 110.85 231.95 112.95 M227.7 121.45 L234.05 115.1 236.2 117.2 229.85 123.55 227.7 121.45 M240.45 121.45 L234.05 127.8 231.95 125.7 238.3 119.3 240.45 121.45 M240.45 134.15 L246.8 127.8 248.9 129.95 242.55 136.3 240.45 134.15 M236.2 129.95 L242.55 123.55 244.7 125.7 238.3 132.05 236.2 129.95 M253.15 134.15 L246.8 140.55 244.7 138.4 251.05 132.05 253.15 134.15 M161.95 42.95 L164.05 45.1 157.7 51.45 155.6 49.3 161.95 42.95 M153.45 47.2 L151.35 45.1 157.7 38.7 159.8 40.85 153.45 47.2" fill="#f05a28" fill-rule="evenodd" stroke="none"/>
    </g>
  </defs>
</svg>
