<?xml version="1.0" encoding="UTF-8" standalone="no"?>
<svg xmlns:xlink="http://www.w3.org/1999/xlink" height="300.0px" width="300.0px" xmlns="http://www.w3.org/2000/svg">
  <g transform="matrix(1.0, 0.0, 0.0, 1.0, 0.0, 0.0)">
    <use height="130.35" transform="matrix(1.0, 0.0, 0.0, 1.0, 23.9, 66.0)" width="247.35" xlink:href="#shape0"/>
    <use height="81.85" transform="matrix(0.7923, -0.0736, 0.0736, 0.7923, 38.5729, 108.4989)" width="291.0" xlink:href="#text0"/>
    <use height="277.5" transform="matrix(1.0, 0.0, 0.0, 1.0, 46.75, 10.55)" width="199.85" xlink:href="#shape1"/>
  </g>
  <defs>
    <g id="shape0" transform="matrix(1.0, 0.0, 0.0, 1.0, -23.9, -66.0)">
      <path d="M271.25 174.3 L33.95 196.35 23.9 88.05 261.15 66.0 271.25 174.3" fill="#6e7d00" fill-rule="evenodd" stroke="none"/>
    </g>
    <g id="text0" transform="matrix(1.0, 0.0, 0.0, 1.0, 59.4, -13.35)">
      <g transform="matrix(1.0, 0.0, 0.0, 1.0, -60.3, 0.0)">
        <use fill="#ffffff" height="81.85" transform="matrix(0.0586, 0.0, 0.0, 0.0586, 3.0, 61.0)" width="291.0" xlink:href="#font_Stencil_Std_R0"/>
        <use fill="#ffffff" height="81.85" transform="matrix(0.0586, 0.0, 0.0, 0.0586, 48.95, 61.0)" width="291.0" xlink:href="#font_Stencil_Std_e0"/>
        <use fill="#ffffff" height="81.85" transform="matrix(0.0586, 0.0, 0.0, 0.0586, 88.4, 61.0)" width="291.0" xlink:href="#font_Stencil_Std_m0"/>
        <use fill="#ffffff" height="81.85" transform="matrix(0.0586, 0.0, 0.0, 0.0586, 141.15, 61.0)" width="291.0" xlink:href="#font_Stencil_Std_o0"/>
        <use fill="#ffffff" height="81.85" transform="matrix(0.0586, 0.0, 0.0, 0.0586, 183.8, 61.0)" width="291.0" xlink:href="#font_Stencil_Std_t0"/>
        <use fill="#ffffff" height="81.85" transform="matrix(0.0586, 0.0, 0.0, 0.0586, 222.65, 61.0)" width="291.0" xlink:href="#font_Stencil_Std_e0"/>
      </g>
      <g transform="matrix(1.0, 0.0, 0.0, 1.0, -60.3, 0.0)">
        <use fill="#ffffff" height="81.85" transform="matrix(0.0378, 0.0, 0.0, 0.0378, 0.0, 94.0)" width="291.0" xlink:href="#font_Stencil_Std_c0"/>
        <use fill="#ffffff" height="81.85" transform="matrix(0.0378, 0.0, 0.0, 0.0378, 25.4, 94.0)" width="291.0" xlink:href="#font_Stencil_Std_o0"/>
        <use fill="#ffffff" height="81.85" transform="matrix(0.0378, 0.0, 0.0, 0.0378, 52.95, 94.0)" width="291.0" xlink:href="#font_Stencil_Std_n0"/>
        <use fill="#ffffff" height="81.85" transform="matrix(0.0378, 0.0, 0.0, 0.0378, 82.15, 94.0)" width="291.0" xlink:href="#font_Stencil_Std_t0"/>
        <use fill="#ffffff" height="81.85" transform="matrix(0.0378, 0.0, 0.0, 0.0378, 107.25, 94.0)" width="291.0" xlink:href="#font_Stencil_Std_r0"/>
        <use fill="#ffffff" height="81.85" transform="matrix(0.0378, 0.0, 0.0, 0.0378, 136.95, 94.0)" width="291.0" xlink:href="#font_Stencil_Std_o0"/>
        <use fill="#ffffff" height="81.85" transform="matrix(0.0378, 0.0, 0.0, 0.0378, 164.5, 94.0)" width="291.0" xlink:href="#font_Stencil_Std_l0"/>
        <use fill="#ffffff" height="81.85" transform="matrix(0.0378, 0.0, 0.0, 0.0378, 187.65, 94.0)" width="291.0" xlink:href="#font_Stencil_Std_l0"/>
        <use fill="#ffffff" height="81.85" transform="matrix(0.0378, 0.0, 0.0, 0.0378, 210.8, 94.0)" width="291.0" xlink:href="#font_Stencil_Std_e0"/>
        <use fill="#ffffff" height="81.85" transform="matrix(0.0378, 0.0, 0.0, 0.0378, 236.3, 94.0)" width="291.0" xlink:href="#font_Stencil_Std_d0"/>
      </g>
    </g>
    <g id="font_Stencil_Std_R0">
      <path d="M405.5 -705.5 L405.5 -766.0 410.5 -766.0 Q461.0 -767.0 511.5 -763.5 562.0 -759.5 608.0 -738.5 659.5 -713.0 685.5 -671.0 711.5 -629.0 712.5 -570.5 713.0 -512.0 690.0 -473.5 667.0 -435.0 626.0 -412.0 585.0 -389.0 532.5 -377.0 L532.5 -375.0 Q578.5 -369.0 619.0 -354.5 659.5 -340.5 685.0 -310.0 710.5 -280.0 712.5 -226.5 L712.5 -136.0 Q712.0 -128.5 712.5 -118.0 713.5 -107.5 722.5 -106.5 730.5 -107.0 736.0 -114.0 741.5 -121.5 748.0 -128.5 755.0 -135.5 766.5 -136.0 777.5 -135.5 786.5 -126.5 796.0 -117.5 796.5 -106.5 796.0 -91.5 787.0 -75.0 777.5 -59.0 764.5 -44.5 752.0 -30.5 740.0 -21.5 714.0 -0.5 686.0 8.0 657.5 16.0 624.5 15.5 591.5 16.0 562.0 6.0 533.0 -4.0 509.0 -27.5 483.0 -55.5 475.0 -88.5 467.0 -121.5 468.0 -157.5 L468.0 -227.5 Q468.5 -251.5 465.5 -275.5 462.5 -300.0 449.0 -317.0 435.5 -334.5 405.5 -338.0 L405.5 -398.5 Q433.0 -401.0 446.5 -412.5 460.0 -424.0 464.0 -443.0 468.5 -462.5 468.0 -487.5 L468.0 -611.5 Q469.0 -649.0 456.0 -670.5 443.0 -692.5 405.5 -705.5 M108.5 -114.5 L108.5 -651.5 Q109.5 -678.5 104.5 -689.0 99.5 -699.5 73.5 -706.5 63.5 -709.5 57.5 -716.5 51.5 -723.5 51.0 -734.0 52.0 -749.0 60.0 -755.5 68.5 -762.5 77.5 -764.5 86.5 -766.0 89.0 -766.0 L359.5 -766.0 359.5 -114.5 Q358.5 -87.5 363.5 -77.0 368.5 -66.5 394.5 -59.5 404.5 -56.5 410.5 -49.5 416.5 -42.5 417.0 -32.0 416.0 -17.0 408.0 -10.5 399.5 -3.5 390.5 -1.5 381.5 0.0 379.0 0.0 L89.0 0.0 Q86.5 0.0 77.5 -1.5 68.5 -3.5 60.0 -10.5 52.0 -17.0 51.0 -32.0 51.5 -42.5 57.5 -49.5 63.5 -56.5 73.5 -59.5 99.5 -66.5 104.5 -77.0 109.5 -87.5 108.5 -114.5" fill-rule="evenodd" stroke="none"/>
    </g>
    <g id="font_Stencil_Std_e0">
      <path d="M392.0 -360.5 L392.0 -424.0 Q424.0 -433.5 440.5 -458.5 457.0 -484.0 463.5 -514.0 467.0 -527.5 474.0 -537.5 480.5 -547.5 496.5 -548.0 512.0 -547.0 517.5 -538.0 523.0 -528.5 523.0 -518.0 523.5 -507.5 523.0 -503.0 L523.0 -281.5 Q523.5 -277.0 523.0 -266.5 523.0 -255.5 517.5 -246.5 512.0 -237.0 496.5 -236.5 480.5 -237.0 474.0 -247.0 467.0 -257.0 463.5 -270.5 457.0 -300.5 440.5 -326.0 424.0 -351.0 392.0 -360.5 M392.0 0.0 L392.0 -59.5 Q454.5 -68.0 500.0 -107.0 545.0 -146.0 566.0 -208.0 571.0 -220.0 577.5 -229.5 584.5 -239.0 598.0 -239.5 614.0 -239.0 620.0 -231.5 626.5 -224.0 627.0 -215.5 628.0 -207.5 627.5 -205.0 L627.5 0.0 392.0 0.0 M392.0 -706.5 L392.0 -766.0 620.5 -766.0 620.5 -558.0 Q621.5 -553.0 616.0 -544.0 611.0 -534.5 588.5 -533.5 576.0 -533.5 570.5 -540.5 564.5 -547.5 561.0 -559.0 541.5 -621.5 500.5 -658.5 459.5 -695.5 392.0 -706.5 M37.5 -734.0 L37.5 -734.0 Q38.5 -749.0 46.5 -755.5 55.0 -762.5 64.0 -764.5 73.0 -766.0 75.5 -766.0 L346.0 -766.0 346.0 0.0 75.5 0.0 Q73.0 0.0 64.0 -1.5 55.0 -3.5 46.5 -10.5 38.5 -17.0 37.5 -32.0 38.0 -42.5 44.0 -49.5 50.0 -56.5 60.0 -59.5 86.0 -66.5 91.0 -77.0 96.0 -87.5 95.0 -114.5 L95.0 -651.5 Q96.0 -678.5 91.0 -689.0 86.0 -699.5 60.0 -706.5 50.0 -709.5 44.0 -716.5 38.0 -723.5 37.5 -734.0" fill-rule="evenodd" stroke="none"/>
    </g>
    <g id="font_Stencil_Std_m0">
      <path d="M42.0 -734.0 L42.0 -734.0 Q42.5 -750.0 50.5 -756.5 58.5 -763.5 68.5 -765.0 78.5 -766.5 85.0 -766.0 L345.5 -766.0 455.0 -451.5 457.0 -451.5 503.0 -621.5 505.0 -621.5 505.0 -435.0 375.0 0.0 345.5 0.0 131.0 -634.0 Q127.5 -645.5 123.0 -656.5 118.5 -668.0 112.5 -678.0 106.5 -689.5 100.5 -697.5 94.5 -705.5 82.0 -706.5 75.5 -707.0 66.0 -708.5 57.0 -710.5 49.5 -716.5 42.5 -722.0 42.0 -734.0 M551.0 -114.5 L551.0 -766.0 821.5 -766.0 Q824.0 -766.0 833.0 -764.5 842.0 -762.5 850.5 -755.5 858.5 -749.0 859.5 -734.0 859.0 -723.5 853.0 -716.5 847.0 -709.5 837.0 -706.5 811.0 -699.5 806.0 -689.0 801.0 -678.5 802.0 -651.5 L802.0 -114.5 Q801.0 -87.5 806.0 -77.0 811.0 -66.5 837.0 -59.5 847.0 -56.5 853.0 -49.5 859.0 -42.5 859.5 -32.0 858.5 -17.0 850.5 -10.5 842.0 -3.5 833.0 -1.5 824.0 0.0 821.5 0.0 L531.5 0.0 Q529.0 0.0 520.0 -1.5 511.0 -3.5 502.5 -10.5 494.5 -17.0 494.0 -32.0 494.0 -42.5 500.0 -49.5 506.0 -56.5 516.0 -59.5 542.0 -66.5 547.0 -77.0 552.0 -87.5 551.0 -114.5 M128.0 -162.0 L128.0 -507.0 130.0 -507.0 187.5 -338.0 187.5 -162.0 Q194.0 -115.0 207.0 -93.5 220.5 -72.0 234.5 -64.5 249.0 -56.5 259.0 -51.0 269.0 -45.5 269.5 -29.5 269.0 -14.0 258.0 -8.0 247.5 -1.5 235.0 -0.5 222.5 0.5 216.0 0.0 L99.5 0.0 Q93.0 0.5 80.5 -0.5 68.0 -1.5 57.5 -8.0 47.0 -14.0 46.0 -29.5 46.5 -45.5 56.5 -51.0 66.5 -56.5 81.0 -64.5 95.0 -72.0 108.5 -93.5 121.5 -115.0 128.0 -162.0" fill-rule="evenodd" stroke="none"/>
    </g>
    <g id="font_Stencil_Std_o0">
      <path d="M387.0 15.5 L387.0 -44.0 Q411.0 -53.0 422.0 -65.0 433.5 -77.5 436.5 -91.0 440.0 -104.5 439.5 -117.5 L439.5 -648.5 Q440.0 -661.5 436.5 -675.0 433.5 -688.5 422.0 -701.0 411.0 -713.0 387.0 -722.0 L387.0 -781.5 Q495.5 -770.5 566.0 -715.0 636.5 -659.0 671.0 -572.5 705.5 -486.0 705.5 -383.0 705.5 -280.0 671.0 -193.5 636.5 -107.0 566.0 -51.0 495.5 4.5 387.0 15.5 M341.0 -781.5 L341.0 -722.0 Q317.0 -713.0 306.0 -701.0 294.5 -688.5 291.5 -675.0 288.0 -661.5 288.5 -648.5 L288.5 -117.5 Q288.0 -104.5 291.5 -91.0 294.5 -77.5 306.0 -65.0 317.0 -53.0 341.0 -44.0 L341.0 15.5 Q232.5 4.5 162.0 -51.0 91.5 -107.0 57.0 -193.5 22.5 -280.0 22.5 -383.0 22.5 -486.0 57.0 -572.5 91.5 -659.0 162.0 -715.0 232.5 -770.5 341.0 -781.5" fill-rule="evenodd" stroke="none"/>
    </g>
    <g id="font_Stencil_Std_t0">
      <path d="M22.5 -527.5 L22.5 -766.0 170.0 -766.0 170.0 -706.5 Q143.5 -687.0 128.5 -660.5 113.0 -633.5 105.5 -604.0 97.5 -574.5 93.0 -547.0 91.5 -529.0 84.5 -514.0 77.0 -498.5 56.5 -497.5 41.0 -498.0 34.0 -504.5 26.5 -511.0 24.5 -518.0 22.5 -525.0 22.5 -527.5 M660.5 -766.0 L660.5 -527.5 Q660.5 -525.0 658.5 -518.0 656.5 -511.0 649.0 -504.5 642.0 -498.0 626.5 -497.5 606.0 -498.5 598.5 -514.0 591.5 -529.0 590.0 -547.0 585.5 -574.5 577.5 -604.0 570.0 -633.5 554.5 -660.5 539.5 -687.0 513.0 -706.5 L513.0 -766.0 660.5 -766.0 M216.0 -114.5 L216.0 -766.0 467.0 -766.0 467.0 -114.5 Q466.0 -87.5 471.0 -77.0 476.0 -66.5 502.0 -59.5 512.0 -56.5 518.0 -49.5 524.0 -42.5 524.5 -32.0 523.5 -17.0 515.5 -10.5 507.0 -3.5 498.0 -1.5 489.0 0.0 486.5 0.0 L196.5 0.0 Q194.0 0.0 185.0 -1.5 176.0 -3.5 167.5 -10.5 159.5 -17.0 158.5 -32.0 159.0 -42.5 165.0 -49.5 171.0 -56.5 181.0 -59.5 207.0 -66.5 212.0 -77.0 217.0 -87.5 216.0 -114.5" fill-rule="evenodd" stroke="none"/>
    </g>
    <g id="font_Stencil_Std_c0">
      <path d="M354.5 -44.0 L354.5 15.5 Q241.5 12.0 168.0 -39.5 94.5 -91.5 58.5 -177.5 22.5 -263.5 22.5 -369.5 23.0 -489.0 64.5 -580.0 105.5 -671.0 180.0 -724.0 254.5 -777.0 354.5 -781.5 L354.5 -722.0 Q318.0 -713.5 303.0 -686.5 288.0 -660.0 288.5 -627.0 L288.5 -141.5 Q288.0 -108.0 303.0 -81.0 318.0 -54.0 354.5 -44.0 M568.5 -189.5 L568.5 -189.5 Q572.5 -203.0 579.5 -212.5 586.5 -222.0 602.5 -222.0 617.0 -221.5 625.0 -211.5 633.0 -201.5 633.0 -187.5 631.5 -155.0 611.0 -119.5 590.0 -84.0 556.0 -53.0 522.0 -21.5 481.5 -2.5 441.0 16.5 400.5 15.5 L400.5 -44.0 Q460.5 -57.5 505.5 -95.0 550.5 -132.0 568.5 -189.5 M400.5 -722.0 L400.5 -781.5 Q420.5 -780.0 448.5 -770.5 477.0 -760.5 503.5 -751.0 529.5 -741.0 544.0 -740.5 555.0 -740.5 561.0 -745.0 567.0 -750.0 571.5 -760.0 576.0 -770.0 582.5 -775.5 588.5 -781.5 599.0 -781.5 615.5 -781.0 622.5 -773.0 629.0 -765.0 630.5 -756.5 632.5 -747.5 632.0 -744.5 L632.0 -507.0 Q632.5 -504.0 630.5 -495.0 629.0 -486.5 622.5 -478.5 615.5 -470.5 599.0 -470.0 583.0 -470.5 573.5 -481.0 564.5 -492.0 561.5 -507.0 553.0 -549.5 533.0 -594.0 513.5 -638.5 480.5 -673.5 448.0 -708.5 400.5 -722.0" fill-rule="evenodd" stroke="none"/>
    </g>
    <g id="font_Stencil_Std_n0">
      <path d="M353.0 -766.0 L651.5 -247.5 651.5 0.0 499.0 0.0 123.5 -646.0 Q112.5 -667.5 102.5 -680.5 92.5 -693.5 68.5 -701.5 55.0 -705.5 46.5 -711.5 38.0 -718.0 37.5 -734.0 39.0 -756.5 55.5 -761.0 72.5 -766.0 90.0 -766.0 L353.0 -766.0 M592.0 -435.0 L592.0 -580.5 Q591.5 -634.5 579.0 -660.0 566.5 -685.5 550.0 -695.0 533.5 -705.0 521.0 -712.0 508.5 -718.5 508.0 -735.0 508.5 -749.5 517.0 -756.0 526.0 -762.5 536.0 -764.5 546.5 -766.0 552.0 -766.0 L691.5 -766.0 Q697.0 -766.0 707.5 -764.5 717.5 -762.5 726.5 -756.0 735.0 -749.5 735.5 -735.0 735.0 -718.5 722.5 -712.0 710.0 -705.0 693.5 -695.0 677.0 -685.5 664.5 -660.0 652.0 -634.5 651.5 -580.5 L651.5 -331.5 649.5 -331.5 592.0 -435.0 M117.5 -161.5 L117.5 -573.5 119.5 -573.5 177.0 -471.0 177.0 -161.5 Q183.5 -114.5 196.5 -93.5 210.0 -72.0 224.0 -64.0 238.5 -56.5 248.5 -51.0 258.5 -45.0 259.0 -29.5 258.5 -14.0 247.5 -8.0 237.0 -1.5 224.5 -0.5 212.0 0.5 205.5 0.0 L89.0 0.0 Q82.5 0.5 70.0 -0.5 57.5 -1.5 47.0 -8.0 36.5 -14.0 35.5 -29.5 36.0 -45.0 46.0 -51.0 56.0 -56.5 70.5 -64.0 84.5 -72.0 98.0 -93.5 111.0 -114.5 117.5 -161.5" fill-rule="evenodd" stroke="none"/>
    </g>
    <g id="font_Stencil_Std_r0">
      <path d="M405.5 -705.5 L405.5 -766.0 410.5 -766.0 Q461.0 -767.0 511.5 -763.5 562.0 -759.5 608.0 -738.5 659.5 -713.0 685.5 -671.0 711.5 -629.0 712.5 -570.5 713.0 -512.0 690.0 -473.5 667.0 -435.0 626.0 -412.0 585.0 -389.0 532.5 -377.0 L532.5 -375.0 Q578.5 -369.0 619.0 -354.5 659.5 -340.5 685.0 -310.0 710.5 -280.0 712.5 -226.5 L712.5 -136.0 Q712.0 -128.5 712.5 -118.0 713.5 -107.5 722.5 -106.5 730.5 -107.0 736.0 -114.0 741.5 -121.5 748.0 -128.5 755.0 -135.5 766.5 -136.0 777.5 -135.5 786.5 -126.5 796.0 -117.5 796.5 -106.5 796.0 -91.5 787.0 -75.0 777.5 -59.0 764.5 -44.5 752.0 -30.5 740.0 -21.5 714.0 -0.5 686.0 8.0 657.5 16.0 624.5 15.5 591.5 16.0 562.0 6.0 533.0 -4.0 509.0 -27.5 483.0 -55.5 475.0 -88.5 467.0 -121.5 468.0 -157.5 L468.0 -227.5 Q468.5 -251.5 465.5 -275.5 462.5 -300.0 449.0 -317.0 435.5 -334.5 405.5 -338.0 L405.5 -398.5 Q433.0 -401.0 446.5 -412.5 460.0 -424.0 464.0 -443.0 468.5 -462.5 468.0 -487.5 L468.0 -611.5 Q469.0 -649.0 456.0 -670.5 443.0 -692.5 405.5 -705.5 M108.5 -114.5 L108.5 -651.5 Q109.5 -678.5 104.5 -689.0 99.5 -699.5 73.5 -706.5 63.5 -709.5 57.5 -716.5 51.5 -723.5 51.0 -734.0 52.0 -749.0 60.0 -755.5 68.5 -762.5 77.5 -764.5 86.5 -766.0 89.0 -766.0 L359.5 -766.0 359.5 -114.5 Q358.5 -87.5 363.5 -77.0 368.5 -66.5 394.5 -59.5 404.5 -56.5 410.5 -49.5 416.5 -42.5 417.0 -32.0 416.0 -17.0 408.0 -10.5 399.5 -3.5 390.5 -1.5 381.5 0.0 379.0 0.0 L89.0 0.0 Q86.5 0.0 77.5 -1.5 68.5 -3.5 60.0 -10.5 52.0 -17.0 51.0 -32.0 51.5 -42.5 57.5 -49.5 63.5 -56.5 73.5 -59.5 99.5 -66.5 104.5 -77.0 109.5 -87.5 108.5 -114.5" fill-rule="evenodd" stroke="none"/>
    </g>
    <g id="font_Stencil_Std_l0">
      <path d="M395.5 0.0 L395.5 -59.5 Q457.5 -69.0 494.5 -117.0 531.0 -165.0 547.0 -237.5 551.0 -254.0 560.5 -260.5 570.0 -266.5 586.0 -266.5 603.0 -265.5 607.5 -254.0 612.0 -242.5 611.5 -227.5 L611.5 0.0 395.5 0.0 M349.0 -651.5 L349.0 0.0 78.5 0.0 Q76.0 0.0 67.0 -1.5 58.0 -3.5 49.5 -10.5 41.5 -17.0 40.5 -32.0 41.0 -42.5 47.0 -49.5 53.0 -56.5 63.0 -59.5 89.0 -66.5 94.0 -77.0 99.0 -87.5 98.0 -114.5 L98.0 -651.5 Q99.0 -678.5 94.0 -689.0 89.0 -699.5 63.0 -706.5 53.0 -709.5 47.0 -716.5 41.0 -723.5 40.5 -734.0 41.5 -749.0 49.5 -755.5 58.0 -762.5 67.0 -764.5 76.0 -766.0 78.5 -766.0 L368.5 -766.0 Q371.5 -766.0 380.5 -764.5 389.5 -762.5 398.0 -755.5 406.0 -749.0 407.0 -734.0 406.5 -723.5 400.5 -716.5 394.5 -709.5 384.0 -706.5 358.0 -699.5 353.0 -689.0 347.5 -678.5 349.0 -651.5" fill-rule="evenodd" stroke="none"/>
    </g>
    <g id="font_Stencil_Std_d0">
      <path d="M335.0 -766.0 L335.0 0.0 75.0 0.0 Q57.0 0.5 42.5 -5.0 27.5 -10.5 26.5 -32.0 27.0 -42.5 33.0 -49.5 39.0 -56.5 49.0 -59.5 75.0 -66.5 80.0 -77.0 85.0 -87.5 84.0 -114.5 L84.0 -651.5 Q85.0 -664.0 82.5 -679.5 80.5 -694.5 66.5 -700.5 50.5 -705.0 39.0 -711.5 27.5 -718.0 26.5 -736.5 27.5 -755.5 42.0 -761.0 56.5 -766.5 73.0 -766.0 L335.0 -766.0 M381.0 -706.5 L381.0 -766.0 Q469.0 -767.0 541.5 -726.5 614.0 -685.5 659.5 -600.0 705.5 -515.0 712.5 -383.0 716.0 -292.5 689.5 -221.5 662.5 -150.5 614.5 -101.5 566.5 -52.0 506.0 -26.0 445.5 0.0 381.0 0.0 L381.0 -59.5 Q411.5 -64.0 426.0 -82.0 440.0 -99.5 443.5 -122.0 447.0 -145.0 446.5 -165.0 L446.5 -601.0 Q447.0 -621.0 443.5 -644.0 440.0 -666.5 426.0 -684.0 411.5 -702.0 381.0 -706.5" fill-rule="evenodd" stroke="none"/>
    </g>
    <g id="shape1" transform="matrix(1.0, 0.0, 0.0, 1.0, -46.75, -10.55)">
      <path d="M146.9 215.65 L146.9 244.5 149.6 244.5 149.6 250.65 134.9 250.65 134.9 244.5 137.1 244.5 137.1 215.05 136.45 215.05 129.9 250.65 126.65 250.65 120.0 215.05 119.25 215.05 119.25 244.5 121.4 244.5 121.4 250.65 110.7 250.65 110.7 244.5 113.5 244.5 113.5 215.65 110.7 215.65 110.7 209.5 126.7 209.5 129.2 225.7 129.9 225.7 132.4 209.5 149.6 209.5 149.6 215.65 146.9 215.65 M153.6 230.1 Q153.6 220.4 157.4 214.65 161.25 208.85 167.65 208.85 174.0 208.85 177.9 214.6 181.7 220.4 181.7 230.1 181.7 239.8 177.9 245.55 174.0 251.3 167.65 251.3 161.3 251.3 157.45 245.55 153.6 239.8 153.6 230.1 M106.9 222.6 L99.55 222.6 99.55 215.65 92.45 215.65 92.45 226.55 97.9 226.55 97.9 232.7 92.45 232.7 92.45 244.5 99.55 244.5 99.55 237.25 106.9 237.25 106.9 250.65 79.1 250.65 79.1 244.5 82.65 244.5 82.65 215.65 79.1 215.65 79.1 209.5 106.9 209.5 106.9 222.6 M111.9 258.9 L111.9 253.9 120.7 253.9 120.7 258.9 118.9 258.9 118.9 287.85 112.65 287.85 110.1 281.1 107.05 272.75 104.45 264.55 104.05 264.55 Q104.45 270.4 104.45 275.95 L104.45 282.5 106.25 282.5 106.25 287.55 97.35 287.55 97.35 282.5 99.45 282.5 99.45 258.9 97.35 258.9 97.35 253.9 107.0 253.9 Q110.8 262.7 113.75 274.05 L114.15 274.05 113.85 265.5 113.85 258.9 111.9 258.9 M90.95 258.1 Q94.15 262.75 94.15 270.7 94.15 278.65 90.95 283.4 87.85 288.05 82.65 288.05 77.45 288.05 74.3 283.4 71.15 278.65 71.15 270.7 71.15 262.8 74.25 258.1 76.8 254.35 80.65 253.55 L84.7 253.55 Q88.5 254.35 90.95 258.1 M84.35 259.9 Q83.75 259.0 82.65 259.0 81.5 259.0 80.9 259.9 80.4 260.75 80.15 263.2 79.9 265.65 79.9 270.7 79.9 275.8 80.15 278.25 80.4 280.65 80.9 281.55 81.5 282.4 82.65 282.4 83.75 282.4 84.35 281.55 84.85 280.65 85.1 278.25 L85.35 270.7 85.1 263.2 Q84.85 260.75 84.35 259.9 M149.3 258.9 L149.3 253.9 161.8 253.9 Q166.45 253.9 169.1 256.75 171.85 259.5 171.85 263.8 171.85 266.1 171.1 267.65 170.35 269.2 168.55 270.5 L171.15 282.5 172.55 282.5 172.55 287.55 165.15 287.55 162.0 272.75 159.35 272.75 159.35 282.5 161.4 282.5 161.4 287.55 149.3 287.55 149.3 282.5 151.35 282.5 151.35 258.9 149.3 258.9 M146.75 266.35 L141.7 266.35 141.7 258.9 138.9 258.9 138.9 282.5 141.6 282.5 141.6 287.55 128.15 287.55 128.15 282.5 130.9 282.5 130.9 258.9 128.05 258.9 128.05 266.35 123.05 266.35 123.05 253.9 146.75 253.9 146.75 266.35 M159.35 267.95 Q162.3 267.95 163.05 266.8 163.85 265.7 163.85 263.15 163.85 261.0 163.1 259.85 162.4 258.7 159.35 258.7 L159.35 267.95 M75.7 221.6 Q75.7 224.4 74.8 226.3 73.85 228.2 71.65 229.85 L74.85 244.5 76.55 244.5 76.55 250.65 67.5 250.65 63.65 232.6 60.4 232.6 60.4 244.5 62.95 244.5 62.95 250.65 48.1 250.65 48.1 244.5 50.65 244.5 50.65 215.65 48.1 215.65 48.1 209.5 63.4 209.5 Q69.05 209.5 72.4 212.95 75.7 216.35 75.7 221.6 M65.05 216.8 Q64.1 215.35 60.4 215.35 L60.4 226.65 Q64.0 226.65 64.95 225.3 65.9 223.9 65.9 220.85 65.9 218.2 65.05 216.8 M61.9 253.9 L67.25 253.9 67.25 265.25 61.9 265.25 Q61.5 259.0 58.9 259.0 57.2 259.0 56.85 261.5 56.5 264.05 56.5 270.2 56.5 277.75 57.05 280.1 57.5 282.4 59.3 282.4 60.65 282.4 61.3 280.75 61.95 279.15 62.15 275.65 L68.3 277.5 Q67.75 282.45 65.15 285.3 62.55 288.05 58.75 288.05 53.85 288.05 50.8 283.45 47.75 278.75 47.75 270.25 47.75 262.4 50.4 257.9 52.55 254.3 55.45 253.55 L58.4 253.55 Q60.3 254.1 61.8 256.25 L61.9 256.25 61.9 253.9 M242.55 222.6 L235.2 222.6 235.2 215.65 228.1 215.65 228.1 226.55 233.55 226.55 233.55 232.7 228.1 232.7 228.1 244.5 235.2 244.5 235.2 237.25 242.55 237.25 242.55 250.65 214.75 250.65 214.75 244.5 218.3 244.5 218.3 215.65 214.75 215.65 214.75 209.5 242.55 209.5 242.55 222.6 M202.75 215.65 L202.75 244.5 206.1 244.5 206.1 250.65 189.65 250.65 189.65 244.5 192.95 244.5 192.95 215.65 189.5 215.65 189.5 224.7 183.35 224.7 183.35 209.5 212.35 209.5 212.35 224.7 206.2 224.7 206.2 215.65 202.75 215.65 M164.6 220.9 Q164.35 223.9 164.35 230.1 164.35 236.3 164.6 239.25 164.9 242.25 165.6 243.3 166.3 244.4 167.65 244.4 169.05 244.4 169.75 243.3 170.4 242.25 170.7 239.25 171.0 236.3 171.0 230.1 171.0 223.9 170.7 220.9 170.4 217.9 169.75 216.85 169.05 215.75 167.65 215.75 166.3 215.75 165.6 216.85 164.9 217.9 164.6 220.9 M199.85 253.9 L214.5 253.9 214.5 258.9 210.85 258.9 210.85 282.5 216.5 282.5 216.5 272.5 222.45 272.5 222.45 287.55 199.85 287.55 199.85 282.5 202.8 282.5 202.8 258.9 199.85 258.9 199.85 253.9 M187.55 253.55 Q191.35 254.35 193.85 258.1 197.0 262.75 197.0 270.7 197.0 278.65 193.85 283.4 190.7 288.05 185.5 288.05 180.35 288.05 177.15 283.4 174.05 278.65 174.05 270.7 174.05 262.8 177.1 258.1 179.65 254.35 183.5 253.55 L187.55 253.55 M182.75 270.7 Q182.75 275.8 183.0 278.25 183.25 280.65 183.8 281.55 184.35 282.4 185.5 282.4 186.6 282.4 187.2 281.55 187.75 280.65 188.0 278.25 L188.2 270.7 188.0 263.2 Q187.75 260.75 187.2 259.9 186.6 259.0 185.5 259.0 184.35 259.0 183.8 259.9 183.25 260.75 183.0 263.2 182.75 265.65 182.75 270.7 M237.15 256.0 L237.15 253.9 242.2 253.9 242.2 264.05 237.15 264.05 Q237.15 260.85 236.45 259.75 235.7 258.65 234.3 258.65 233.3 258.65 232.75 259.3 232.1 260.0 232.1 261.15 232.1 262.6 232.8 263.6 233.45 264.65 235.55 266.45 240.2 270.4 241.6 273.05 243.0 275.75 243.0 278.75 243.0 282.65 240.9 285.25 238.7 287.85 235.45 287.85 232.6 287.85 230.3 285.45 L230.3 287.55 225.3 287.55 225.3 276.6 230.3 276.6 Q230.3 280.45 231.1 281.6 231.9 282.75 233.25 282.75 234.45 282.75 235.1 281.85 235.75 280.95 235.75 279.4 235.75 278.2 235.05 276.75 234.25 275.4 231.25 272.55 227.2 268.8 226.05 266.45 224.95 264.0 224.95 261.65 224.95 258.15 226.95 255.9 228.9 253.6 231.9 253.6 L234.55 254.1 Q235.65 254.55 237.15 256.0" fill="#336600" fill-rule="evenodd" stroke="none"/>
      <path d="M174.95 178.25 Q177.4 180.75 177.4 184.65 177.4 186.75 176.75 188.15 176.05 189.55 174.45 190.8 L176.8 201.65 178.05 201.65 178.05 206.2 171.35 206.2 168.45 192.8 166.1 192.8 166.1 201.65 167.95 201.65 167.95 206.2 156.95 206.2 156.95 201.65 158.85 201.65 158.85 180.25 156.95 180.25 156.95 175.7 168.3 175.7 Q172.5 175.7 174.95 178.25 M169.5 181.1 Q168.85 180.05 166.1 180.05 L166.1 188.4 Q168.75 188.4 169.45 187.4 170.15 186.4 170.15 184.1 170.15 182.15 169.5 181.1 M186.7 182.25 Q186.7 183.55 187.3 184.5 L189.8 187.05 Q194.0 190.65 195.3 193.05 196.6 195.5 196.6 198.25 196.6 201.8 194.65 204.1 192.65 206.45 189.7 206.45 187.15 206.45 185.05 204.3 L185.05 206.2 180.45 206.2 180.45 196.3 185.05 196.3 Q185.05 199.75 185.75 200.8 186.5 201.85 187.7 201.85 188.8 201.85 189.4 201.05 190.0 200.25 190.0 198.8 190.0 197.7 189.35 196.45 188.65 195.2 185.9 192.65 182.25 189.25 181.2 187.05 180.2 184.85 180.2 182.75 180.2 179.55 182.0 177.5 183.75 175.45 186.5 175.45 L188.85 175.85 Q189.9 176.25 191.3 177.6 L191.3 175.7 195.85 175.7 195.85 184.9 191.3 184.9 Q191.3 182.0 190.6 181.0 189.95 180.0 188.7 180.0 187.75 180.0 187.25 180.6 186.7 181.25 186.7 182.25 M201.45 175.7 L218.3 175.7 218.3 180.25 216.2 180.25 219.7 201.65 221.6 201.65 221.6 206.2 211.2 206.2 211.2 201.65 213.1 201.65 212.35 195.95 207.35 195.95 206.65 201.65 208.55 201.65 208.55 206.2 198.05 206.2 198.05 201.65 200.1 201.65 203.4 180.25 201.45 180.25 201.45 175.7 M209.4 179.45 L207.9 192.15 211.8 192.15 210.25 179.45 209.4 179.45 M222.9 180.25 L222.9 175.7 236.2 175.7 236.2 180.25 232.85 180.25 232.85 201.65 237.95 201.65 237.95 192.6 243.4 192.6 243.4 206.2 222.9 206.2 222.9 201.65 225.6 201.65 225.6 180.25 222.9 180.25 M46.75 180.25 L46.75 175.7 57.6 175.7 57.6 180.25 56.35 180.25 56.35 198.9 Q56.35 202.15 58.5 202.15 60.9 202.15 60.9 198.6 L60.9 180.25 59.6 180.25 59.6 175.7 67.9 175.7 67.9 180.25 65.45 180.25 65.45 198.75 Q65.45 202.3 63.3 204.5 61.15 206.7 57.6 206.7 53.45 206.7 51.25 204.55 49.1 202.4 49.1 198.3 L49.1 180.25 46.75 180.25 M70.0 180.25 L70.0 175.7 78.75 175.7 Q82.2 183.7 84.9 193.95 L85.25 193.95 85.0 186.2 85.0 180.25 83.2 180.25 83.2 175.7 91.2 175.7 91.2 180.25 89.55 180.25 89.55 206.45 83.9 206.45 81.55 200.35 78.8 192.8 Q77.55 189.25 76.45 185.35 L76.05 185.35 Q76.45 190.65 76.45 195.7 L76.45 201.65 78.1 201.65 78.1 206.2 70.0 206.2 70.0 201.65 71.9 201.65 71.9 180.25 70.0 180.25 M93.6 180.25 L93.6 175.7 106.95 175.7 106.95 180.25 103.8 180.25 103.8 201.65 106.95 201.65 106.95 206.2 93.6 206.2 93.6 201.65 96.55 201.65 96.55 180.25 93.6 180.25 M108.2 180.25 L108.2 175.7 119.35 175.7 119.35 180.25 117.1 180.25 120.6 194.8 124.05 180.25 121.5 180.25 121.5 175.7 132.05 175.7 132.05 180.25 129.95 180.25 122.95 206.7 117.15 206.7 110.4 180.25 108.2 180.25 M133.35 180.25 L133.35 175.7 153.95 175.7 153.95 185.4 148.5 185.4 148.5 180.25 143.25 180.25 143.25 188.35 147.3 188.35 147.3 192.9 143.25 192.9 143.25 201.65 148.5 201.65 148.5 196.25 153.95 196.25 153.95 206.2 133.35 206.2 133.35 201.65 136.0 201.65 136.0 180.25 133.35 180.25" fill="#000000" fill-rule="evenodd" stroke="none"/>
      <path d="M246.6 88.75 L220.1 88.75 220.1 82.9 223.55 82.9 223.55 55.25 220.1 55.25 220.1 49.3 237.25 49.3 237.25 55.25 232.95 55.25 232.95 82.9 239.55 82.9 239.55 71.15 246.6 71.15 246.6 88.75 M177.65 49.3 Q183.1 49.3 186.25 52.65 189.45 55.85 189.45 60.9 189.45 63.6 188.55 65.45 187.65 67.25 185.6 68.8 L188.6 82.9 190.25 82.9 190.25 88.75 181.6 88.75 177.9 71.45 174.8 71.45 174.8 82.9 177.2 82.9 177.2 88.75 163.0 88.75 163.0 82.9 165.45 82.9 165.45 55.25 163.0 55.25 163.0 49.3 177.65 49.3 M194.5 54.25 Q198.2 48.7 204.3 48.7 210.4 48.7 214.1 54.25 217.8 59.75 217.8 69.05 217.8 78.3 214.1 83.85 210.4 89.4 204.3 89.4 198.25 89.4 194.5 83.85 190.85 78.3 190.85 69.05 190.85 59.8 194.5 54.25 M201.1 69.05 Q201.1 75.0 201.35 77.85 201.65 80.7 202.3 81.75 203.0 82.8 204.3 82.8 205.65 82.8 206.25 81.75 206.95 80.7 207.2 77.85 207.5 75.0 207.5 69.05 207.5 63.1 207.2 60.3 206.95 57.4 206.25 56.35 205.65 55.35 204.3 55.35 203.0 55.35 202.3 56.35 201.65 57.4 201.35 60.3 201.1 63.1 201.1 69.05 M179.2 56.3 Q178.35 54.95 174.8 54.95 L174.8 65.75 Q178.25 65.75 179.15 64.45 180.05 63.1 180.05 60.2 180.05 57.7 179.2 56.3 M161.15 49.3 L161.15 63.9 155.3 63.9 155.3 55.25 151.95 55.25 151.95 82.9 155.15 82.9 155.15 88.75 139.35 88.75 139.35 82.9 142.6 82.9 142.6 55.25 139.25 55.25 139.25 63.9 133.4 63.9 133.4 49.3 161.15 49.3 M115.65 49.3 Q120.1 59.65 123.55 72.95 L124.05 72.95 123.65 62.95 123.65 55.25 121.35 55.25 121.35 49.3 131.7 49.3 131.7 55.25 129.55 55.25 129.55 89.1 122.25 89.1 119.25 81.2 115.7 71.45 Q114.1 66.9 112.7 61.8 L112.15 61.8 Q112.7 68.6 112.7 75.2 L112.7 82.9 114.8 82.9 114.8 88.75 104.3 88.75 104.3 82.9 106.75 82.9 106.75 55.25 104.3 55.25 104.3 49.3 115.65 49.3 M91.05 60.3 Q90.85 57.4 90.15 56.35 89.5 55.35 88.2 55.35 86.85 55.35 86.15 56.35 85.55 57.4 85.25 60.3 85.0 63.1 85.0 69.05 85.0 75.0 85.25 77.85 85.55 80.7 86.15 81.75 86.85 82.8 88.2 82.8 89.5 82.8 90.15 81.75 90.85 80.7 91.05 77.85 91.35 75.0 91.35 69.05 91.35 63.1 91.05 60.3 M88.2 89.4 Q82.1 89.4 78.4 83.85 74.7 78.3 74.7 69.05 74.7 59.8 78.4 54.25 82.05 48.7 88.2 48.7 94.25 48.7 98.0 54.25 101.65 59.75 101.65 69.05 101.65 78.3 98.0 83.85 94.25 89.4 88.2 89.4 M71.25 49.3 L71.25 62.65 64.95 62.65 Q64.45 55.35 61.4 55.35 59.4 55.35 59.0 58.25 58.6 61.2 58.6 68.4 58.6 77.3 59.25 80.05 59.8 82.8 61.85 82.8 63.5 82.8 64.25 80.8 65.0 78.9 65.25 74.85 L72.45 76.95 Q71.8 82.85 68.75 86.1 65.75 89.4 61.25 89.4 55.5 89.4 51.95 83.95 48.35 78.45 48.35 68.5 48.35 59.25 51.45 54.0 54.6 48.7 59.25 48.7 62.45 48.7 64.85 52.05 L64.95 52.05 64.95 49.3 71.25 49.3" fill="#000000" fill-rule="evenodd" stroke="none"/>
      <path d="M245.35 44.05 L222.7 44.05 222.7 39.05 225.6 39.05 225.6 15.55 222.7 15.55 222.7 10.55 245.35 10.55 245.35 21.2 239.35 21.2 239.35 15.55 233.6 15.55 233.6 24.4 238.05 24.4 238.05 29.45 233.6 29.45 233.6 39.05 239.35 39.05 239.35 33.1 245.35 33.1 245.35 44.05 M212.95 15.55 L212.95 39.05 215.65 39.05 215.65 44.05 202.25 44.05 202.25 39.05 205.0 39.05 205.0 15.55 202.15 15.55 202.15 22.9 197.15 22.9 197.15 10.55 220.8 10.55 220.8 22.9 215.8 22.9 215.8 15.55 212.95 15.55 M184.15 14.7 L182.5 28.6 186.8 28.6 185.05 14.7 184.15 14.7 M193.9 15.55 L191.65 15.55 195.45 39.05 197.55 39.05 197.55 44.05 186.1 44.05 186.1 39.05 188.2 39.05 187.4 32.8 181.9 32.8 181.15 39.05 183.2 39.05 183.2 44.05 171.7 44.05 171.7 39.05 173.9 39.05 177.55 15.55 175.4 15.55 175.4 10.55 193.9 10.55 193.9 15.55 M167.75 15.55 L167.75 39.05 169.9 39.05 169.9 44.05 158.0 44.05 158.0 39.05 159.75 39.05 159.75 15.05 159.25 15.05 153.9 44.05 151.25 44.05 145.8 15.05 145.2 15.05 145.2 39.05 146.95 39.05 146.95 44.05 138.25 44.05 138.25 39.05 140.5 39.05 140.5 15.55 138.25 15.55 138.25 10.55 151.25 10.55 153.3 23.7 153.9 23.7 155.95 10.55 169.9 10.55 169.9 15.55 167.75 15.55 M132.15 15.55 L132.15 39.05 135.6 39.05 135.6 44.05 120.95 44.05 120.95 39.05 124.2 39.05 124.2 15.55 120.95 15.55 120.95 10.55 135.6 10.55 135.6 15.55 132.15 15.55 M111.15 15.55 L111.15 39.05 113.85 39.05 113.85 44.05 100.45 44.05 100.45 39.05 103.2 39.05 103.2 15.55 100.35 15.55 100.35 22.9 95.35 22.9 95.35 10.55 119.0 10.55 119.0 22.9 114.0 22.9 114.0 15.55 111.15 15.55 M83.95 15.55 L83.95 39.05 89.6 39.05 89.6 29.1 95.6 29.1 95.6 44.05 73.05 44.05 73.05 39.05 76.0 39.05 76.0 15.55 73.05 15.55 73.05 10.55 87.65 10.55 87.65 15.55 83.95 15.55 M61.95 15.55 L61.95 10.55 71.05 10.55 71.05 15.55 68.4 15.55 68.4 35.85 Q68.4 39.75 66.0 42.2 63.65 44.6 59.75 44.6 55.2 44.6 52.8 42.25 50.4 39.9 50.4 35.35 L50.4 15.55 47.85 15.55 47.85 10.55 59.75 10.55 59.75 15.55 58.35 15.55 58.35 36.0 Q58.35 39.55 60.75 39.55 63.35 39.55 63.35 35.7 L63.35 15.55 61.95 15.55" fill="#cc3300" fill-rule="evenodd" stroke="none"/>
    </g>
  </defs>
</svg>
