<?xml version="1.0" encoding="UTF-8" standalone="no"?>
<svg xmlns:xlink="http://www.w3.org/1999/xlink" height="300.0px" width="300.0px" xmlns="http://www.w3.org/2000/svg">
  <g transform="matrix(1.0, 0.0, 0.0, 1.0, 0.0, 0.0)">
    <use height="128.85" transform="matrix(0.7809, 0.0, 0.0, 0.7809, 2.4252, 111.4139)" width="374.75" xlink:href="#sprite0"/>
  </g>
  <defs>
    <g id="sprite0" transform="matrix(1.0, 0.0, 0.0, 1.0, 186.8, 64.65)">
      <use height="128.85" transform="matrix(1.0, 0.0, 0.0, 1.0, -186.8, -64.65)" width="374.75" xlink:href="#shape0"/>
    </g>
    <g id="shape0" transform="matrix(1.0, 0.0, 0.0, 1.0, 186.8, 64.65)">
      <path d="M167.9 60.3 L164.3 63.45 151.7 47.9 Q154.65 46.4 156.1 45.1 158.75 42.75 158.75 39.9 158.75 35.2 148.35 35.15 L148.35 49.15 148.45 56.25 148.6 62.65 143.7 62.65 143.8 46.65 143.8 43.05 143.55 31.75 153.85 32.1 Q158.55 32.65 161.1 34.5 163.7 36.4 163.7 39.25 163.7 41.85 161.8 44.25 160.1 46.5 157.0 48.25 L162.4 54.4 167.9 60.3 M132.05 30.95 L132.25 34.65 120.95 34.85 120.95 45.65 125.1 45.5 130.7 45.2 130.85 49.0 120.95 48.85 120.95 59.3 132.8 59.15 132.95 63.1 116.25 62.65 116.4 49.8 116.25 31.75 123.7 31.4 132.05 30.95 M92.2 21.35 L97.6 21.35 97.4 24.85 97.3 31.35 97.3 32.15 103.55 32.05 109.8 31.65 109.8 35.85 104.9 35.6 97.2 35.45 97.2 42.3 97.45 55.5 97.8 62.65 92.4 62.65 Q92.7 61.25 92.7 41.6 L92.7 35.45 80.0 35.85 80.0 31.65 86.25 32.05 92.8 32.15 92.8 31.7 Q92.5 21.95 92.2 21.35 M73.6 46.2 L82.35 60.95 78.15 63.5 72.0 52.35 55.95 53.0 51.0 63.55 47.0 61.3 64.0 30.2 64.1 30.2 73.6 46.2 M63.95 37.5 L57.7 49.7 70.4 49.2 63.95 37.5 M48.7 33.3 L35.7 62.7 35.5 62.7 29.8 53.4 24.45 44.8 13.15 64.2 12.95 64.2 1.35 32.95 5.85 31.2 14.05 55.65 24.6 37.05 24.7 37.05 Q27.6 42.05 35.45 54.7 L39.9 43.25 44.35 31.55 48.7 33.3 M-36.75 36.15 Q-31.85 41.5 -30.6 45.65 L-30.55 45.65 Q-28.7 40.85 -24.85 36.75 -23.3 35.1 -20.7 33.45 -18.15 31.75 -16.35 31.2 L-15.0 35.0 Q-19.6 36.4 -23.35 40.5 -25.8 43.1 -27.2 46.35 -28.65 49.75 -28.65 53.25 L-28.65 57.2 -28.4 62.65 -33.4 62.65 -33.2 53.25 Q-33.2 45.75 -39.1 39.65 -42.25 36.3 -45.5 35.1 L-43.55 31.3 -39.65 33.7 Q-37.7 35.15 -36.75 36.15 M-58.45 31.75 L-58.75 37.65 -58.9 46.95 -58.9 59.15 -47.1 58.95 -47.1 63.1 -63.8 62.65 Q-63.4 60.3 -63.4 49.8 L-63.4 43.95 -63.6 31.75 -58.45 31.75 M-80.95 37.4 Q-84.2 34.45 -89.15 34.45 -95.15 34.45 -98.8 38.45 -102.3 42.3 -102.3 48.1 -102.3 53.2 -99.2 56.5 -95.95 59.95 -90.7 59.95 -85.15 59.95 -81.4 56.4 -77.45 52.6 -77.45 46.3 -77.45 40.65 -80.95 37.4 M-72.65 46.1 Q-72.65 52.45 -76.75 57.3 -81.85 63.35 -91.1 63.35 -98.55 63.35 -103.0 59.0 -107.1 54.9 -107.1 48.8 -107.1 41.25 -102.05 36.25 -96.8 31.05 -88.45 31.05 -81.45 31.05 -77.1 35.0 -72.65 39.1 -72.65 46.1 M-116.3 45.75 L-116.3 50.2 -116.1 62.65 -121.1 62.65 Q-120.85 60.15 -120.85 52.45 L-120.85 48.0 -140.8 48.85 -140.6 62.65 -145.5 62.65 Q-145.35 59.75 -145.35 49.25 L-145.35 44.45 -145.6 31.75 -140.55 31.75 -140.8 42.35 -140.8 45.55 -120.85 44.75 -121.0 31.75 -115.95 31.75 -116.3 45.75" fill="#0276c1" fill-rule="evenodd" stroke="none"/>
      <path d="M44.85 -36.1 L61.75 -8.3 78.1 -34.95 78.8 -34.95 90.35 -9.4 99.7 11.25 85.5 17.6 75.8 -7.8 Q65.95 7.3 60.7 14.7 L59.95 14.7 51.4 1.35 Q46.95 -5.85 46.05 -7.55 L42.3 5.15 38.5 17.6 24.65 12.45 33.3 -9.5 Q41.65 -30.7 44.15 -36.1 L44.85 -36.1 M108.1 -6.0 L107.85 -34.55 124.2 -34.55 124.0 -26.7 123.9 -13.45 123.9 -5.85 124.0 6.8 124.2 15.2 124.2 15.4 107.85 15.4 107.85 15.35 108.1 -6.0 M138.7 -35.4 L173.75 -9.15 173.6 -34.9 187.95 -34.55 185.0 16.45 184.3 16.8 Q179.0 13.35 164.1 1.85 L149.4 -9.65 149.55 15.9 135.2 15.4 136.5 -8.15 138.0 -34.95 138.7 -35.4 M-184.7 -27.8 L-169.6 -36.0 -155.9 -6.9 -141.8 -36.0 -126.95 -28.35 -140.7 -6.6 -156.45 18.35 -157.15 18.35 Q-164.45 7.1 -184.7 -27.8 M18.95 9.35 L5.05 17.6 -1.15 6.9 -1.3 6.7 -22.45 7.85 -22.55 8.05 -27.1 17.65 -40.45 10.2 -28.05 -10.8 -12.05 -37.15 -11.35 -37.15 5.85 -10.6 18.95 9.35 M-97.2 -34.4 L-87.8 -34.1 -87.35 -34.1 Q-85.7 -39.25 -81.5 -43.3 -77.35 -47.25 -72.25 -48.8 L-72.35 -59.55 -56.0 -59.55 -56.2 -48.15 Q-51.95 -46.45 -48.45 -43.0 -44.45 -39.0 -42.8 -34.1 L-31.4 -34.4 -31.4 -22.1 -42.2 -22.25 Q-43.55 -15.85 -48.65 -10.95 -52.15 -7.65 -56.35 -6.0 L-56.35 -2.95 Q-56.35 12.4 -56.15 15.1 L-56.15 15.4 -72.4 15.4 Q-72.2 12.95 -72.2 -4.1 L-72.2 -5.5 Q-77.5 -7.1 -81.7 -11.25 L-83.6 -13.35 -83.9 -13.75 -84.0 -13.9 Q-86.9 -17.75 -87.9 -22.3 L-97.2 -22.1 -97.2 -34.4 M-104.35 -34.55 L-104.6 -13.45 -104.6 -5.85 -104.35 15.4 -120.65 15.4 Q-120.45 11.25 -120.45 -6.0 L-120.65 -34.55 -104.35 -34.55 M-49.2 -22.35 L-56.35 -22.5 -56.35 -14.05 Q-54.65 -15.1 -53.15 -16.6 -50.5 -19.2 -49.2 -22.35 M-77.1 -16.75 Q-74.85 -14.45 -72.2 -13.2 L-72.2 -22.5 -80.7 -22.4 Q-79.9 -20.3 -78.5 -18.4 L-78.45 -18.35 -78.35 -18.25 -77.1 -16.75 M-72.2 -44.15 Q-74.65 -43.0 -76.7 -40.95 -79.8 -37.9 -81.0 -34.0 L-72.15 -33.9 -72.2 -44.15 M-52.75 -40.7 Q-54.35 -42.4 -56.2 -43.5 L-56.3 -33.9 -48.75 -34.0 Q-49.9 -37.7 -52.75 -40.7 M-17.95 -2.55 L-6.05 -3.15 -9.3 -9.55 -12.0 -15.05 -17.95 -2.55" fill="#028ae3" fill-rule="evenodd" stroke="none"/>
      <path d="M76.35 -27.45 L76.45 -27.65 87.95 4.0 83.9 13.2 74.2 -12.2 76.25 -26.45 76.35 -27.45 59.45 -0.05 43.05 -29.2 31.65 4.55 23.05 8.05 31.7 -13.9 Q40.05 -35.1 42.55 -40.5 L43.25 -40.5 60.15 -12.7 76.5 -39.35 77.2 -39.35 76.35 -27.45 M106.5 -10.4 L106.25 -38.95 122.6 -38.95 113.85 -30.75 114.05 3.25 106.25 10.95 106.5 -10.4 M141.35 -27.85 L141.1 3.7 134.6 11.05 133.6 11.0 134.9 -12.55 136.4 -39.35 137.1 -39.8 141.35 -27.85 M186.35 -38.95 L178.35 -30.95 178.15 0.55 172.15 -13.55 172.0 -39.3 186.35 -38.95 M3.45 13.2 L-2.75 2.5 2.5 -3.4 -28.85 -1.6 -19.55 -6.95 -7.65 -7.55 -10.9 -13.95 -13.6 -19.45 -13.5 -30.75 -32.1 2.8 -42.05 5.8 -29.65 -15.2 -13.65 -41.55 -12.95 -41.55 -13.5 -30.75 5.8 1.8 3.45 13.2 M-174.3 -28.9 L-186.3 -32.2 -171.2 -40.4 -174.3 -28.9 M-141.1 -28.9 L-157.7 1.55 -157.5 -11.3 -143.4 -40.4 -128.55 -32.75 -141.1 -28.9 M-122.25 -38.95 L-105.95 -38.95 -114.65 -30.75 -114.65 3.25 -122.25 11.0 Q-122.05 6.85 -122.05 -10.4 L-122.25 -38.95 M-44.4 -38.5 L-33.0 -38.8 -40.35 -32.6 -66.15 -32.6 -66.15 -32.7 -66.25 -32.6 -91.95 -32.6 -98.8 -26.5 -98.8 -38.8 -89.4 -38.5 -88.95 -38.5 Q-87.3 -43.65 -83.1 -47.7 -78.95 -51.65 -73.85 -53.2 L-73.95 -63.95 -57.6 -63.95 -57.8 -52.55 Q-53.55 -50.85 -50.05 -47.4 -46.05 -43.4 -44.4 -38.5 M-57.8 -47.9 L-57.9 -38.3 -50.35 -38.4 Q-51.5 -42.1 -54.35 -45.1 -55.95 -46.8 -57.8 -47.9 M-73.8 -48.55 Q-76.25 -47.4 -78.3 -45.35 -81.4 -42.3 -82.6 -38.4 L-73.75 -38.3 -73.8 -48.55" fill="#b3f0ff" fill-rule="evenodd" stroke="none"/>
      <path d="M-44.4 -38.5 Q-46.05 -43.4 -50.05 -47.4 -53.55 -50.85 -57.8 -52.55 M-57.8 -47.9 Q-55.95 -46.8 -54.35 -45.1 -51.5 -42.1 -50.35 -38.4" fill="none" stroke="#6bc1ff" stroke-linecap="round" stroke-linejoin="round" stroke-width="1.0"/>
      <path d="M98.1 6.85 L87.95 4.0 76.45 -27.65 76.35 -27.45 77.2 -39.35 88.75 -13.8 98.1 6.85 M59.1 10.3 L59.45 -0.05 76.35 -27.45 76.25 -26.45 74.2 -12.2 Q64.35 2.9 59.1 10.3 M43.05 -29.2 L44.45 -11.95 40.7 0.75 36.9 13.2 31.65 4.55 43.05 -29.2 M172.15 -13.55 L178.15 0.55 141.35 -27.85 137.1 -39.8 172.15 -13.55 M147.95 11.5 L141.1 3.7 141.35 -27.85 147.8 -14.05 147.95 11.5 M122.6 -38.95 L122.4 -31.1 122.3 -17.85 122.3 -10.25 122.4 2.4 122.6 10.8 114.05 3.25 113.85 -30.75 122.6 -38.95 M178.35 -30.95 L186.35 -38.95 183.4 12.05 182.7 12.4 178.15 0.55 178.35 -30.95 M17.35 4.95 L5.8 1.8 -13.5 -30.75 -13.6 -19.45 -19.55 -6.95 -28.85 -1.6 -24.15 3.65 -28.7 13.25 -32.1 2.8 -13.5 -30.75 -12.95 -41.55 4.25 -15.0 Q15.75 2.75 17.35 4.95 M-174.3 -28.9 L-171.2 -40.4 -157.5 -11.3 -157.7 1.55 -141.1 -28.9 -128.55 -32.75 -142.3 -11.0 -158.05 13.95 -157.7 1.55 -174.3 -28.9 M-66.25 -32.6 L-66.15 -32.7 -66.15 -32.6 -66.25 -32.6 M-114.65 -30.75 L-105.95 -38.95 -106.2 -17.85 -106.2 -10.25 -105.95 11.0 -114.65 3.25 -114.65 -30.75 M-50.8 -26.75 L-43.8 -26.65 Q-45.15 -20.25 -50.25 -15.35 -53.75 -12.05 -57.95 -10.4 L-57.95 -7.35 Q-57.95 8.0 -57.75 10.7 L-66.15 3.25 -66.15 -32.45 -57.95 -26.85 -57.95 -18.45 Q-56.25 -19.5 -54.75 -21.0 -52.1 -23.6 -50.8 -26.75 M-40.35 -32.6 L-33.0 -38.8 -33.0 -26.5 -40.35 -32.6" fill="#3eb0fd" fill-rule="evenodd" stroke="none"/>
      <path d="M-85.2 -17.75 L-81.75 -21.1 -81.15 -21.7 -80.75 -22.15 -80.1 -22.8 -80.05 -22.75 -79.95 -22.65 -78.7 -21.15 Q-76.45 -18.85 -73.8 -17.6 L-73.8 -26.85 -66.25 -32.6 -66.15 -32.6 -66.15 -32.45 -66.15 3.25 -74.0 11.0 Q-73.8 8.55 -73.8 -8.5 L-73.8 -9.9 Q-79.1 -11.5 -83.3 -15.65 L-85.2 -17.75" fill="#b3f0ff" fill-rule="evenodd" stroke="none"/>
      <path d="M77.2 -39.35 L76.35 -27.45 76.45 -27.65 87.95 4.0 98.1 6.85 M74.2 -12.2 L76.25 -26.45 76.35 -27.45 59.45 -0.05 59.1 10.3 M42.8 -40.5 L43.05 -29.2 59.45 -0.05 M59.45 -0.95 L60.15 -12.7 M43.05 -29.2 L44.45 -11.95 M36.9 13.2 L31.65 4.55 23.05 8.05 M83.9 13.2 L87.95 4.0 M31.65 4.55 L43.05 -29.2" fill="none" stroke="#6bc1ff" stroke-linecap="round" stroke-linejoin="round" stroke-width="0.8"/>
      <path d="M113.85 -30.75 L106.25 -38.95 M137.1 -39.8 L141.35 -27.85 178.15 0.55 172.15 -13.55 M147.8 -14.05 L141.35 -27.85 141.1 3.7 147.95 11.5 M122.6 10.8 L114.05 3.25 106.25 10.95 M113.85 -30.75 L122.6 -38.95 M172.0 -39.3 L178.35 -30.95 186.35 -38.95 M182.7 12.4 L178.15 0.55 178.35 -30.95 M141.1 3.7 L134.05 11.65 M17.35 4.95 L5.8 1.8 3.45 13.2 M114.05 3.25 L113.85 -30.75 M-186.3 -32.2 L-174.3 -28.9 -171.2 -40.4 M-157.5 -11.3 L-157.7 1.55 -141.1 -28.9 -143.4 -40.4 M-128.55 -32.75 L-141.1 -28.9 M-158.05 13.95 L-157.7 1.55 -174.3 -28.9 M-98.8 -38.8 L-91.95 -32.6 -66.25 -32.6 -66.15 -32.6 -66.15 -32.45 -66.15 3.25 -74.0 11.0 M-98.8 -26.5 L-91.95 -32.6 M-114.65 -30.75 L-105.95 -38.95 M-105.95 11.0 L-114.65 3.25 -122.25 11.0 M-122.25 -38.95 L-114.65 -30.75 -114.65 3.25 M-73.5 -63.95 L-66.15 -55.95 -57.4 -64.15 M-57.75 10.7 L-57.4 11.0 M-57.9 -38.3 L-66.15 -32.75 -66.15 -32.7 -66.15 -32.6 -40.35 -32.6 -33.0 -38.8 M-33.0 -26.5 L-40.35 -32.6 M-32.1 2.8 L-13.5 -30.75 -12.95 -41.55 M-19.55 -6.95 L-28.85 -1.6 2.5 -3.4 -7.65 -7.55 M5.8 1.8 L-13.5 -30.75 -13.6 -19.45 M-66.15 -55.95 L-66.15 -32.75 M-32.1 2.8 L-28.7 13.25 M-24.15 3.65 L-28.85 -1.6 M-57.75 10.7 L-66.15 3.25 M-42.05 5.8 L-32.1 2.8 M2.5 -3.4 L-3.0 2.75" fill="none" stroke="#6bc1ff" stroke-linecap="round" stroke-linejoin="round" stroke-width="1.0"/>
      <path d="M-66.25 -32.6 L-66.15 -32.7 -73.75 -38.3 M-73.85 -53.2 Q-78.95 -51.65 -83.1 -47.7 -87.3 -43.65 -88.95 -38.5 M-89.5 -26.7 Q-88.5 -22.15 -85.6 -18.3 L-85.5 -18.15 -85.2 -17.75 -83.3 -15.65 Q-79.1 -11.5 -73.8 -9.9 M-80.1 -22.8 Q-81.5 -24.7 -82.3 -26.8 M-43.8 -26.65 Q-45.15 -20.25 -50.25 -15.35 -53.75 -12.05 -57.95 -10.4 M-82.6 -38.4 Q-81.4 -42.3 -78.3 -45.35 -76.25 -47.4 -73.8 -48.55 M-66.15 -32.45 L-57.95 -26.85 M-57.95 -18.45 Q-56.25 -19.5 -54.75 -21.0 -52.1 -23.6 -50.8 -26.75 M-73.8 -26.85 L-66.25 -32.6 M-73.8 -17.6 Q-76.45 -18.85 -78.7 -21.15 L-79.95 -22.65 -80.05 -22.75 -80.1 -22.8" fill="none" stroke="#6bc1ff" stroke-linecap="round" stroke-linejoin="round" stroke-width="1.0"/>
      <path d="M44.45 -11.95 L43.05 -29.2 59.45 -0.05 59.1 10.3 58.35 10.3 49.8 -3.05 Q45.35 -10.25 44.45 -11.95 M141.35 -27.85 L178.15 0.55 182.7 12.4 Q177.4 8.95 162.5 -2.55 151.85 -10.75 147.8 -14.05 L141.35 -27.85 M134.6 11.05 L141.1 3.7 147.95 11.5 134.6 11.05 M122.6 11.0 L106.25 11.0 106.25 10.95 114.05 3.25 122.6 10.8 122.6 11.0 M87.95 4.0 L98.1 6.85 83.9 13.2 87.95 4.0 M36.9 13.2 L23.05 8.05 31.65 4.55 36.9 13.2 M5.8 1.8 L17.35 4.95 3.45 13.2 5.8 1.8 M-174.3 -28.9 L-157.7 1.55 -158.05 13.95 -158.75 13.95 Q-166.05 2.7 -186.3 -32.2 L-174.3 -28.9 M-91.95 -32.6 L-66.25 -32.6 -73.8 -26.85 -73.8 -26.9 -82.3 -26.8 Q-81.5 -24.7 -80.1 -22.8 L-80.75 -22.15 -81.15 -21.7 -81.75 -21.1 -85.2 -17.75 -85.5 -18.15 -85.6 -18.3 Q-88.5 -22.15 -89.5 -26.7 L-98.8 -26.5 -91.95 -32.6 M-57.95 -26.9 L-57.95 -26.85 -66.15 -32.45 -66.15 -32.6 -40.35 -32.6 -33.0 -26.5 -57.95 -26.9 M-28.7 13.25 L-42.05 5.8 -32.1 2.8 -28.7 13.25 M-24.15 3.65 L-28.85 -1.6 2.5 -3.4 -2.75 2.5 -2.9 2.3 -24.05 3.45 -24.15 3.65 M-114.65 3.25 L-105.95 11.0 -122.25 11.0 -114.65 3.25 M-57.75 10.7 L-57.75 11.0 -74.0 11.0 -66.15 3.25 -57.75 10.7" fill="#6bc1ff" fill-rule="evenodd" stroke="none"/>
      <path d="M74.2 -12.2 L76.25 -26.45 76.35 -27.45 59.45 -0.05 59.1 10.3 M77.2 -39.35 L76.35 -27.45 76.45 -27.65 87.95 4.0 98.1 6.85 M42.8 -40.5 L43.05 -29.2 59.45 -0.05 M59.45 -0.95 L60.15 -12.7 M43.05 -29.2 L44.45 -11.95 M83.9 13.2 L87.95 4.0 M23.05 8.05 L31.65 4.55 43.05 -29.2 M31.65 4.55 L36.9 13.2" fill="none" stroke="#6bc1ff" stroke-linecap="round" stroke-linejoin="round" stroke-width="0.8"/>
      <path d="M122.6 10.8 L114.05 3.25 113.85 -30.75 106.25 -38.95 M147.8 -14.05 L141.35 -27.85 141.1 3.7 147.95 11.5 M137.1 -39.8 L141.35 -27.85 178.15 0.55 172.15 -13.55 M113.85 -30.75 L122.6 -38.95 M172.0 -39.3 L178.35 -30.95 186.35 -38.95 M182.7 12.4 L178.15 0.55 178.35 -30.95 M141.1 3.7 L134.05 11.65 M113.8 3.25 L106.25 10.95 M17.35 4.95 L5.8 1.8 3.45 13.2 M-186.3 -32.2 L-174.3 -28.9 -171.2 -40.4 M-157.5 -11.3 L-157.7 1.55 -141.1 -28.9 -143.4 -40.4 M-128.55 -32.75 L-141.1 -28.9 M-122.25 -38.95 L-114.65 -30.75 -105.95 -38.95 M-98.8 -26.5 L-91.95 -32.6 -98.8 -38.8 M-73.5 -63.95 L-66.15 -55.95 -57.4 -64.15 M5.8 1.8 L-13.5 -30.75 -13.6 -19.45 M-24.15 3.65 L-28.85 -1.6 -19.55 -6.95 M-33.0 -38.8 L-40.35 -32.6 -33.0 -26.5 M-42.05 5.8 L-32.1 2.8 -13.5 -30.75 -12.95 -41.55 M-66.15 -55.95 L-66.15 -32.6 -40.35 -32.6 M-91.95 -32.6 L-66.15 -32.6 -66.15 3.25 -57.4 11.0 M-32.1 2.8 L-28.7 13.25 M-66.4 3.25 L-74.0 11.0 M-105.95 11.0 L-114.65 3.25 -122.25 11.0 M-157.7 1.55 L-158.05 13.95 M-174.3 -28.9 L-157.7 1.55 M-114.65 3.25 L-114.65 -30.75 M-28.85 -1.6 L2.5 -3.4 -7.65 -7.55 M2.5 -3.4 L-3.0 2.75" fill="none" stroke="#6bc1ff" stroke-linecap="round" stroke-linejoin="round" stroke-width="1.0"/>
      <path d="M44.45 -11.95 L40.7 0.75 36.9 13.2 23.05 8.05 31.7 -13.9 Q40.05 -35.1 42.55 -40.5 L43.25 -40.5 60.15 -12.7 76.5 -39.35 77.2 -39.35 88.75 -13.8 98.1 6.85 83.9 13.2 74.2 -12.2 Q64.35 2.9 59.1 10.3 L58.35 10.3 49.8 -3.05 Q45.35 -10.25 44.45 -11.95 M106.25 -38.95 L122.6 -38.95 122.4 -31.1 122.3 -17.85 122.3 -10.25 122.4 2.4 122.6 10.8 122.6 11.0 106.25 11.0 106.25 10.95 106.5 -10.4 106.25 -38.95 M137.1 -39.8 L172.15 -13.55 172.0 -39.3 186.35 -38.95 183.4 12.05 182.7 12.4 Q177.4 8.95 162.5 -2.55 151.85 -10.75 147.8 -14.05 L147.95 11.5 133.6 11.0 134.9 -12.55 136.4 -39.35 137.1 -39.8 M3.45 13.2 L-2.9 2.3 -24.05 3.45 -24.15 3.65 -28.7 13.25 -42.05 5.8 -29.65 -15.2 -13.65 -41.55 -12.95 -41.55 4.25 -15.0 Q15.75 2.75 17.35 4.95 L3.45 13.2 M-171.2 -40.4 L-157.5 -11.3 -143.4 -40.4 -128.55 -32.75 -142.3 -11.0 -158.05 13.95 -158.75 13.95 Q-166.05 2.7 -186.3 -32.2 L-171.2 -40.4 M-122.25 -38.95 L-105.95 -38.95 -106.2 -17.85 -106.2 -10.25 -105.95 11.0 -122.25 11.0 Q-122.05 6.85 -122.05 -10.4 L-122.25 -38.95 M-98.8 -26.5 L-73.8 -26.9 -73.8 -8.5 Q-73.8 8.55 -74.0 11.0 L-57.75 11.0 -57.75 10.7 Q-57.95 8.0 -57.95 -7.35 L-57.95 -26.9 -33.0 -26.5 -33.0 -38.8 -44.4 -38.5 -57.9 -38.3 -57.6 -63.95 -73.95 -63.95 -73.75 -38.3 Q-96.7 -38.6 -98.8 -38.8 L-98.8 -26.5 M-19.55 -6.95 L-7.65 -7.55 -10.9 -13.95 -13.6 -19.45 -19.55 -6.95" fill="none" stroke="#6bc1ff" stroke-linecap="round" stroke-linejoin="round" stroke-width="1.0"/>
    </g>
  </defs>
</svg>
