<?xml version="1.0" encoding="UTF-8" standalone="no"?>
<svg xmlns:xlink="http://www.w3.org/1999/xlink" height="300.0px" width="300.0px" xmlns="http://www.w3.org/2000/svg">
  <g transform="matrix(1.0, 0.0, 0.0, 1.0, 0.0, 0.0)">
    <use height="271.0" transform="matrix(1.0, 0.0, 0.0, 1.0, 17.0, 28.95)" width="271.0" xlink:href="#shape0"/>
    <use height="366.45" transform="matrix(0.4399, 0.0, 0.0, 0.44, -5.96, 79.6184)" width="709.8" xlink:href="#sprite0"/>
  </g>
  <defs>
    <g id="shape0" transform="matrix(1.0, 0.0, 0.0, 1.0, -17.0, -28.95)">
      <path d="M288.0 164.45 Q288.0 220.6 248.3 260.25 208.65 299.95 152.5 299.95 96.35 299.95 56.65 260.25 17.0 220.6 17.0 164.45 17.0 108.3 56.65 68.6 96.35 28.95 152.5 28.95 208.65 28.95 248.3 68.6 288.0 108.3 288.0 164.45" fill="#0aa2b1" fill-rule="evenodd" stroke="none"/>
    </g>
    <g id="sprite0" transform="matrix(1.0, 0.0, 0.0, 1.0, 355.7, 184.85)">
      <use height="366.45" transform="matrix(1.0, 0.0, 0.0, 1.0, -355.7, -184.85)" width="709.8" xlink:href="#shape1"/>
    </g>
    <g id="shape1" transform="matrix(1.0, 0.0, 0.0, 1.0, 355.7, 184.85)">
      <path d="M-282.95 -141.25 L-282.9 -97.85 Q-288.05 -106.55 -293.0 -111.3 -294.85 -113.25 -297.15 -114.55 -299.3 -115.65 -301.25 -115.6 -303.2 -115.45 -304.75 -113.35 -306.3 -111.3 -307.5 -106.6 -309.3 -98.65 -308.5 -93.05 -307.6 -87.2 -304.8 -82.1 -301.95 -76.8 -297.35 -71.0 -292.45 -64.65 -287.05 -56.7 -279.35 -45.75 -275.9 -32.35 -272.4 -18.65 -272.55 -6.2 -272.7 6.55 -276.2 16.9 -279.7 27.3 -286.1 32.5 -296.75 40.9 -304.9 42.75 -313.05 44.6 -319.4 43.1 -325.7 41.6 -330.45 38.15 L-338.8 32.1 Q-339.8 26.7 -341.2 15.75 L-343.35 -2.25 -345.3 -22.9 Q-340.55 -16.1 -335.6 -11.8 -331.45 -7.95 -326.5 -6.0 -321.7 -4.1 -317.2 -7.65 -311.8 -12.05 -310.4 -16.7 -308.95 -21.35 -310.25 -26.45 -311.5 -31.6 -314.75 -37.15 L-321.95 -49.0 Q-326.15 -55.6 -329.95 -62.1 -334.0 -68.9 -336.7 -76.35 -340.8 -87.95 -341.85 -99.25 -342.9 -110.55 -340.75 -120.6 -338.6 -130.35 -333.05 -137.95 -327.45 -145.4 -318.6 -148.85 -309.45 -152.6 -302.9 -151.8 -296.15 -150.95 -291.9 -148.7 -286.85 -146.2 -282.95 -141.25" fill="#000000" fill-rule="evenodd" stroke="none"/>
      <path d="M352.35 -163.45 L352.95 -158.5 354.1 -140.95 350.35 -140.4 345.2 -138.65 340.05 -136.7 Q337.7 -135.75 336.4 -135.45 335.9 -132.6 335.7 -127.4 335.4 -121.9 335.4 -115.0 L335.65 -100.25 336.35 -85.15 Q336.75 -78.3 337.5 -71.85 338.2 -65.65 339.05 -62.3 337.2 -61.35 334.05 -59.3 L327.1 -54.35 320.3 -49.05 315.3 -44.8 Q314.95 -53.5 315.05 -66.55 L315.55 -90.35 Q315.95 -103.2 316.5 -112.9 L317.7 -130.75 Q315.95 -130.7 312.9 -129.45 L306.9 -126.8 Q303.5 -125.15 299.65 -122.95 L302.25 -151.1 345.5 -161.6 352.35 -163.45" fill="#000000" fill-rule="evenodd" stroke="none"/>
      <path d="M345.95 -151.35 L342.15 -150.8 337.0 -149.05 331.9 -147.1 Q329.55 -146.15 328.25 -145.85 327.75 -143.0 327.55 -137.8 327.25 -132.3 327.25 -125.4 327.25 -117.1 327.5 -110.65 327.7 -103.7 328.2 -95.55 328.7 -87.45 329.35 -82.25 330.05 -76.05 330.9 -72.7 L325.9 -69.7 318.95 -64.75 312.15 -59.45 Q308.85 -56.8 307.15 -55.2 306.8 -63.9 306.9 -76.95 306.95 -86.95 307.4 -100.75 307.65 -111.0 308.35 -123.3 L309.55 -141.15 Q307.8 -141.1 304.75 -139.85 301.7 -138.7 298.75 -137.2 295.35 -135.55 291.5 -133.35 L294.1 -161.45 337.35 -172.0 344.2 -173.85 344.8 -168.85 345.95 -151.35" fill="#ffffff" fill-rule="evenodd" stroke="none"/>
      <path d="M345.95 -151.35 L342.15 -150.8 337.0 -149.05 331.9 -147.1 Q329.55 -146.15 328.25 -145.85 327.75 -143.0 327.55 -137.8 327.25 -132.3 327.25 -125.4 327.25 -117.1 327.5 -110.65 327.7 -103.7 328.2 -95.55 328.7 -87.45 329.35 -82.25 330.05 -76.05 330.9 -72.7 L325.9 -69.7 318.95 -64.75 312.15 -59.45 Q308.85 -56.8 307.15 -55.2 306.8 -63.9 306.9 -76.95 306.95 -86.95 307.4 -100.75 307.65 -111.0 308.35 -123.3 L309.55 -141.15 Q307.8 -141.1 304.75 -139.85 301.7 -138.7 298.75 -137.2 295.35 -135.55 291.5 -133.35 L294.1 -161.45 337.35 -172.0 344.2 -173.85 344.8 -168.85 345.95 -151.35 Z" fill="none" stroke="#000000" stroke-linecap="butt" stroke-linejoin="miter-clip" stroke-miterlimit="4.0" stroke-width="3.3000000000000003"/>
      <path d="M299.3 -138.55 Q301.2 -131.45 300.6 -123.05 300.1 -114.65 296.9 -105.7 293.7 -96.75 287.55 -89.85 L291.25 -85.3 306.55 -68.2 Q301.0 -62.25 297.0 -56.3 293.05 -50.35 289.1 -45.35 L279.7 -60.25 274.1 -69.3 270.7 -75.2 270.6 -59.6 Q270.45 -52.4 270.65 -46.55 268.7 -46.4 266.5 -45.55 L261.8 -43.45 Q259.75 -42.5 257.1 -40.95 L252.8 -38.5 252.3 -109.05 252.5 -129.7 Q252.65 -138.9 253.05 -147.1 258.7 -149.8 264.0 -151.55 269.55 -153.45 274.6 -153.9 L284.55 -153.25 Q289.45 -152.05 293.65 -148.55 297.4 -145.55 299.3 -138.55 M280.6 -124.35 Q280.05 -126.65 278.95 -127.8 277.85 -129.0 276.2 -129.15 274.55 -129.3 272.8 -128.45 L271.9 -111.75 271.4 -101.75 271.15 -94.05 Q275.1 -100.8 277.45 -106.6 279.85 -112.55 280.65 -118.9 281.05 -122.25 280.6 -124.35" fill="#000000" fill-rule="evenodd" stroke="none"/>
      <path d="M291.15 -148.95 Q293.05 -141.85 292.45 -133.45 291.95 -125.05 288.75 -116.1 285.55 -107.15 279.4 -100.25 L283.1 -95.7 288.25 -89.85 298.4 -78.6 Q292.85 -72.65 288.85 -66.7 284.9 -60.75 280.95 -55.75 L271.55 -70.65 265.95 -79.7 Q263.3 -84.0 262.55 -85.6 L262.45 -70.0 Q262.3 -62.8 262.5 -56.95 260.8 -56.8 258.35 -55.95 256.15 -55.1 253.65 -53.85 L248.95 -51.35 244.65 -48.85 244.15 -119.45 244.35 -140.1 Q244.5 -149.3 244.9 -157.5 250.55 -160.2 255.85 -161.95 261.1 -163.75 266.45 -164.3 L276.4 -163.65 Q281.15 -162.45 285.5 -158.95 289.25 -155.95 291.15 -148.95 M264.65 -138.85 L263.75 -122.15 263.25 -112.15 263.0 -104.45 Q266.95 -111.2 269.3 -117.0 271.6 -122.7 272.5 -129.3 272.9 -132.65 272.45 -134.75 271.9 -137.05 270.8 -138.2 269.7 -139.4 268.05 -139.55 266.3 -139.65 264.65 -138.85" fill="#ffffff" fill-rule="evenodd" stroke="none"/>
      <path d="M291.15 -148.95 Q293.05 -141.85 292.45 -133.45 291.95 -125.05 288.75 -116.1 285.55 -107.15 279.4 -100.25 L283.1 -95.7 288.25 -89.85 298.4 -78.6 Q292.85 -72.65 288.85 -66.7 284.9 -60.75 280.95 -55.75 L271.55 -70.65 265.95 -79.7 Q263.3 -84.0 262.55 -85.6 L262.45 -70.0 Q262.3 -62.8 262.5 -56.95 260.8 -56.8 258.35 -55.95 256.15 -55.1 253.65 -53.85 L248.95 -51.35 244.65 -48.85 244.15 -119.45 244.35 -140.1 Q244.5 -149.3 244.9 -157.5 250.55 -160.2 255.85 -161.95 261.1 -163.75 266.45 -164.3 L276.4 -163.65 Q281.15 -162.45 285.5 -158.95 289.25 -155.95 291.15 -148.95 M264.65 -138.85 L263.75 -122.15 263.25 -112.15 263.0 -104.45 Q266.95 -111.2 269.3 -117.0 271.6 -122.7 272.5 -129.3 272.9 -132.65 272.45 -134.75 271.9 -137.05 270.8 -138.2 269.7 -139.4 268.05 -139.55 266.3 -139.65 264.65 -138.85" fill="none" stroke="#000000" stroke-linecap="butt" stroke-linejoin="miter-clip" stroke-miterlimit="4.0" stroke-width="3.3000000000000003"/>
      <path d="M246.25 -142.75 Q247.2 -130.95 246.95 -118.35 246.75 -106.45 245.05 -94.95 243.35 -83.35 240.0 -73.75 238.2 -68.6 235.2 -64.25 232.25 -59.95 228.65 -56.95 225.0 -53.95 220.85 -52.55 216.75 -51.2 212.6 -51.95 208.45 -52.7 204.4 -55.7 200.35 -58.75 197.0 -64.55 194.15 -69.4 192.45 -75.7 190.75 -82.0 189.85 -89.3 188.95 -95.95 188.7 -104.05 188.55 -112.4 188.8 -118.7 189.0 -125.1 189.75 -132.0 190.65 -139.45 191.25 -142.85 L212.05 -150.8 Q211.35 -142.4 210.8 -130.7 210.3 -118.45 210.3 -109.2 210.25 -99.4 210.8 -89.8 211.35 -80.9 212.75 -76.05 214.15 -71.25 216.25 -69.85 218.4 -68.4 220.45 -70.0 222.45 -71.45 224.25 -75.85 226.0 -80.05 226.55 -86.7 226.9 -90.55 226.8 -97.2 L226.35 -110.2 225.35 -124.1 224.0 -137.6 222.55 -149.2 221.2 -157.4 243.65 -166.85 Q245.25 -155.4 246.25 -142.75" fill="#000000" fill-rule="evenodd" stroke="none"/>
      <path d="M238.1 -153.15 Q239.05 -141.3 238.8 -128.75 238.6 -116.9 236.9 -105.3 235.2 -93.75 231.85 -84.15 230.05 -79.0 227.05 -74.65 224.1 -70.3 220.45 -67.35 216.85 -64.35 212.7 -62.95 208.6 -61.6 204.45 -62.35 200.3 -63.1 196.25 -66.1 192.25 -69.05 188.85 -74.95 186.0 -79.8 184.3 -86.1 182.65 -92.2 181.65 -99.7 180.8 -106.55 180.55 -114.4 180.4 -122.8 180.65 -129.1 180.85 -135.5 181.6 -142.4 L183.05 -153.25 203.9 -161.2 Q203.2 -152.8 202.65 -141.1 202.15 -128.85 202.15 -119.6 202.1 -109.8 202.65 -100.2 203.2 -91.3 204.6 -86.45 206.0 -81.65 208.1 -80.25 L212.3 -80.35 Q214.35 -81.85 216.1 -86.25 217.85 -90.45 218.4 -97.1 218.7 -101.75 218.65 -107.6 L218.2 -120.55 217.2 -134.5 215.85 -148.0 214.4 -159.6 213.05 -167.8 235.5 -177.25 Q237.1 -165.8 238.1 -153.15" fill="#ffffff" fill-rule="evenodd" stroke="none"/>
      <path d="M238.1 -153.15 Q239.05 -141.3 238.8 -128.75 238.6 -116.9 236.9 -105.3 235.2 -93.75 231.85 -84.15 230.05 -79.0 227.05 -74.65 224.1 -70.3 220.45 -67.35 216.85 -64.35 212.7 -62.95 208.6 -61.6 204.45 -62.35 200.3 -63.1 196.25 -66.1 192.25 -69.05 188.85 -74.95 186.0 -79.8 184.3 -86.1 182.65 -92.2 181.65 -99.7 180.8 -106.55 180.55 -114.4 180.4 -122.8 180.65 -129.1 180.85 -135.5 181.6 -142.4 L183.05 -153.25 203.9 -161.2 Q203.2 -152.8 202.65 -141.1 202.15 -128.85 202.15 -119.6 202.1 -109.8 202.65 -100.2 203.2 -91.3 204.6 -86.45 206.0 -81.65 208.1 -80.25 L212.3 -80.35 Q214.35 -81.85 216.1 -86.25 217.85 -90.45 218.4 -97.1 218.7 -101.75 218.65 -107.6 L218.2 -120.55 217.2 -134.5 215.85 -148.0 214.4 -159.6 213.05 -167.8 235.5 -177.25 Q237.1 -165.8 238.1 -153.15 Z" fill="none" stroke="#000000" stroke-linecap="butt" stroke-linejoin="miter-clip" stroke-miterlimit="4.0" stroke-width="3.3000000000000003"/>
      <path d="M163.55 -115.7 Q160.75 -114.9 158.7 -111.2 156.7 -107.5 155.4 -102.2 154.1 -97.1 153.4 -90.6 152.7 -84.85 152.55 -78.6 152.4 -72.85 152.7 -67.0 153.0 -60.8 153.85 -56.4 154.65 -51.8 156.35 -48.7 158.0 -45.7 160.7 -45.55 162.6 -45.45 164.15 -48.5 165.7 -51.4 167.1 -56.35 168.45 -61.2 169.35 -66.9 170.2 -72.35 170.45 -77.65 170.7 -83.8 170.4 -90.4 170.1 -97.35 169.2 -103.1 168.25 -109.05 166.9 -112.6 165.4 -116.3 163.55 -115.7 M149.7 -126.2 Q155.9 -131.5 165.85 -132.5 171.05 -133.1 175.7 -129.55 180.35 -125.95 183.8 -119.3 187.15 -112.65 189.05 -103.3 190.95 -93.8 190.65 -82.6 190.2 -66.75 188.25 -56.25 186.2 -45.5 182.55 -39.35 178.9 -32.9 173.2 -29.85 167.45 -26.7 159.8 -25.9 153.3 -25.2 147.8 -29.65 142.35 -34.1 138.6 -42.05 134.75 -50.25 133.2 -60.8 131.5 -71.4 132.65 -83.6 133.2 -90.05 134.75 -98.05 136.4 -106.2 139.95 -113.5 143.55 -120.9 149.7 -126.2" fill="#000000" fill-rule="evenodd" stroke="none"/>
      <path d="M167.55 -139.9 Q172.2 -136.35 175.65 -129.7 179.0 -123.05 180.9 -113.7 182.8 -104.2 182.5 -93.0 182.05 -77.15 180.1 -66.65 178.05 -55.9 174.4 -49.75 170.75 -43.3 165.05 -40.25 159.5 -37.15 151.65 -36.3 145.15 -35.6 139.65 -40.05 134.2 -44.45 130.45 -52.45 126.65 -60.3 125.0 -71.2 123.35 -81.9 124.5 -94.0 125.05 -100.45 126.6 -108.45 128.25 -116.6 131.8 -123.9 135.4 -131.3 141.55 -136.6 147.8 -141.95 157.7 -142.9 163.0 -143.45 167.55 -139.9 M144.4 -89.0 Q144.25 -83.25 144.55 -77.35 144.85 -71.15 145.7 -66.8 146.5 -62.2 148.2 -59.1 149.85 -56.1 152.55 -55.95 154.35 -55.8 156.0 -58.9 157.55 -61.8 158.95 -66.75 160.3 -71.55 161.2 -77.25 162.05 -82.8 162.3 -88.05 162.55 -94.2 162.25 -100.8 161.85 -108.5 161.05 -113.5 160.1 -119.45 158.75 -123.0 157.25 -126.7 155.4 -126.1 152.6 -125.3 150.55 -121.6 148.55 -117.9 147.25 -112.6 145.95 -107.5 145.25 -101.0 144.55 -95.25 144.4 -89.0" fill="#ffffff" fill-rule="evenodd" stroke="none"/>
      <path d="M167.55 -139.9 Q172.2 -136.35 175.65 -129.7 179.0 -123.05 180.9 -113.7 182.8 -104.2 182.5 -93.0 182.05 -77.15 180.1 -66.65 178.05 -55.9 174.4 -49.75 170.75 -43.3 165.05 -40.25 159.5 -37.15 151.65 -36.3 145.15 -35.6 139.65 -40.05 134.2 -44.45 130.45 -52.45 126.65 -60.3 125.0 -71.2 123.35 -81.9 124.5 -94.0 125.05 -100.45 126.6 -108.45 128.25 -116.6 131.8 -123.9 135.4 -131.3 141.55 -136.6 147.8 -141.95 157.7 -142.9 163.0 -143.45 167.55 -139.9 M144.4 -89.0 Q144.25 -83.25 144.55 -77.35 144.85 -71.15 145.7 -66.8 146.5 -62.2 148.2 -59.1 149.85 -56.1 152.55 -55.95 154.35 -55.8 156.0 -58.9 157.55 -61.8 158.95 -66.75 160.3 -71.55 161.2 -77.25 162.05 -82.8 162.3 -88.05 162.55 -94.2 162.25 -100.8 161.85 -108.5 161.05 -113.5 160.1 -119.45 158.75 -123.0 157.25 -126.7 155.4 -126.1 152.6 -125.3 150.55 -121.6 148.55 -117.9 147.25 -112.6 145.95 -107.5 145.25 -101.0 144.55 -95.25 144.4 -89.0" fill="none" stroke="#000000" stroke-linecap="butt" stroke-linejoin="miter-clip" stroke-miterlimit="4.0" stroke-width="3.3000000000000003"/>
      <path d="M142.35 -145.6 L122.1 -118.1 120.35 -127.2 Q119.45 -131.7 118.25 -135.3 117.15 -138.65 115.65 -141.0 114.25 -143.15 112.35 -143.15 107.65 -143.15 104.85 -135.8 102.15 -128.45 100.8 -117.95 99.45 -106.9 99.1 -95.9 98.65 -84.85 98.75 -76.1 98.75 -68.3 99.3 -59.05 99.8 -50.4 100.9 -42.95 102.05 -35.6 103.95 -30.95 105.9 -26.2 108.6 -26.2 111.5 -26.2 114.65 -30.2 117.95 -34.55 120.7 -40.05 123.6 -45.85 125.8 -52.3 128.05 -58.85 128.9 -63.4 L146.45 -30.6 Q144.65 -25.2 141.4 -19.35 138.2 -13.45 133.05 -8.3 128.05 -3.35 121.55 -0.05 115.05 3.15 107.2 3.0 99.25 2.75 92.2 -0.65 85.1 -4.1 79.7 -12.1 74.3 -20.05 70.85 -33.35 67.4 -46.35 66.5 -66.55 65.6 -87.15 69.55 -104.8 73.5 -122.55 79.55 -135.4 85.6 -148.45 92.6 -157.05 99.55 -165.55 104.85 -168.45 111.75 -172.15 117.8 -171.9 123.8 -171.75 128.8 -168.35 133.7 -165.05 137.15 -159.1 140.6 -153.3 142.35 -145.6" fill="#000000" fill-rule="evenodd" stroke="none"/>
      <path d="M132.7 -30.6 Q129.3 -24.45 124.35 -19.6 119.35 -14.55 112.8 -11.35 106.35 -8.05 98.45 -8.3 90.75 -8.45 83.5 -11.95 76.35 -15.4 70.95 -23.35 65.55 -31.35 62.1 -44.65 58.6 -58.05 57.8 -77.8 56.9 -98.55 60.8 -116.1 64.7 -133.45 70.8 -146.7 76.95 -159.95 83.9 -168.35 90.8 -176.8 96.15 -179.7 103.0 -183.35 109.1 -183.2 115.15 -182.95 120.05 -179.65 124.85 -176.35 128.45 -170.35 131.85 -164.5 133.6 -156.85 L113.35 -129.35 111.65 -138.45 Q110.55 -143.6 109.55 -146.55 108.35 -150.2 106.95 -152.25 105.5 -154.45 103.65 -154.4 98.85 -154.4 96.15 -147.05 93.4 -139.7 92.1 -129.2 90.7 -118.45 90.35 -107.15 89.95 -94.4 90.0 -87.4 90.1 -78.15 90.55 -70.3 91.05 -61.5 92.2 -54.2 93.25 -47.0 95.2 -42.2 97.15 -37.45 99.85 -37.45 102.8 -37.5 105.9 -41.5 108.9 -45.3 111.95 -51.3 114.75 -56.9 117.1 -63.55 119.25 -69.8 120.15 -74.7 L137.7 -41.85 Q136.1 -36.9 132.7 -30.6" fill="#ffffff" fill-rule="evenodd" stroke="none"/>
      <path d="M132.7 -30.6 Q129.3 -24.45 124.35 -19.6 119.35 -14.55 112.8 -11.35 106.35 -8.05 98.45 -8.3 90.75 -8.45 83.5 -11.95 76.35 -15.4 70.95 -23.35 65.55 -31.35 62.1 -44.65 58.6 -58.05 57.8 -77.8 56.9 -98.55 60.8 -116.1 64.7 -133.45 70.8 -146.7 76.95 -159.95 83.9 -168.35 90.8 -176.8 96.15 -179.7 103.0 -183.35 109.1 -183.2 115.15 -182.95 120.05 -179.65 124.85 -176.35 128.45 -170.35 131.85 -164.5 133.6 -156.85 L113.35 -129.35 111.65 -138.45 Q110.55 -143.6 109.55 -146.55 108.35 -150.2 106.95 -152.25 105.5 -154.45 103.65 -154.4 98.85 -154.4 96.15 -147.05 93.4 -139.7 92.1 -129.2 90.7 -118.45 90.35 -107.15 89.95 -94.4 90.0 -87.4 90.1 -78.15 90.55 -70.3 91.05 -61.5 92.2 -54.2 93.25 -47.0 95.2 -42.2 97.15 -37.45 99.85 -37.45 102.8 -37.5 105.9 -41.5 108.9 -45.3 111.95 -51.3 114.75 -56.9 117.1 -63.55 119.25 -69.8 120.15 -74.7 L137.7 -41.85 Q136.1 -36.9 132.7 -30.6 Z" fill="none" stroke="#000000" stroke-linecap="butt" stroke-linejoin="miter-clip" stroke-miterlimit="4.0" stroke-width="3.3000000000000003"/>
      <path d="M39.65 -96.95 L40.4 -79.65 20.85 -71.25 20.4 -65.4 20.1 -58.55 Q20.05 -55.0 20.25 -51.5 20.4 -48.15 20.95 -44.8 22.6 -45.8 25.8 -47.2 L40.6 -53.65 47.45 -56.7 48.2 -29.85 14.05 -13.65 0.05 -30.0 0.05 -41.95 0.35 -57.1 0.9 -74.0 2.9 -120.1 Q8.65 -122.15 14.75 -123.75 L27.3 -126.8 41.3 -129.7 41.6 -115.4 21.85 -108.65 20.8 -89.4 39.65 -96.95" fill="#000000" fill-rule="evenodd" stroke="none"/>
      <path d="M33.1 -140.1 L33.45 -125.8 13.7 -119.05 12.65 -99.8 31.5 -107.35 32.25 -90.05 12.7 -81.65 12.25 -75.8 11.95 -68.95 Q11.9 -65.45 12.1 -61.85 12.25 -58.55 12.8 -55.2 14.0 -55.95 17.65 -57.6 L32.45 -64.05 39.3 -67.1 40.05 -40.25 5.9 -24.05 -8.1 -40.4 -8.15 -52.35 -7.8 -67.5 -7.25 -84.4 -5.25 -130.5 Q0.7 -132.6 6.6 -134.1 L19.15 -137.2 33.1 -140.1" fill="#ffffff" fill-rule="evenodd" stroke="none"/>
      <path d="M33.1 -140.1 L33.45 -125.8 13.7 -119.05 12.65 -99.8 31.5 -107.35 32.25 -90.05 12.7 -81.65 12.25 -75.8 11.95 -68.95 Q11.9 -65.45 12.1 -61.85 12.25 -58.55 12.8 -55.2 14.0 -55.95 17.65 -57.6 L32.45 -64.05 39.3 -67.1 40.05 -40.25 5.9 -24.05 -8.1 -40.4 -8.15 -52.35 -7.8 -67.5 -7.25 -84.4 -5.25 -130.5 Q0.7 -132.6 6.6 -134.1 L19.15 -137.2 33.1 -140.1 Z" fill="none" stroke="#000000" stroke-linecap="butt" stroke-linejoin="miter-clip" stroke-miterlimit="4.0" stroke-width="3.3000000000000003"/>
      <path d="M-25.45 -93.2 Q-27.6 -85.45 -28.95 -76.95 -30.45 -67.55 -31.3 -58.65 L-32.75 -40.55 -33.45 -25.1 -46.0 -21.5 -48.3 -38.75 -50.3 -57.0 -51.7 -74.95 Q-52.2 -83.3 -52.2 -91.5 L-52.4 -91.5 Q-54.45 -82.4 -55.3 -74.15 -56.25 -65.3 -56.45 -57.45 L-56.6 -42.0 -56.5 -28.45 -79.25 -21.85 Q-79.0 -34.8 -77.9 -48.6 -76.9 -61.05 -75.15 -75.35 L-71.8 -99.8 -68.7 -119.6 -39.7 -135.05 Q-40.55 -125.45 -40.8 -119.3 -41.15 -111.35 -41.0 -105.7 -40.95 -99.95 -40.35 -93.45 L-38.8 -81.45 -38.5 -81.3 Q-36.2 -96.6 -33.9 -107.45 L-29.6 -126.35 -4.2 -136.75 Q-4.95 -128.4 -5.25 -118.75 L-5.5 -98.75 -5.05 -78.0 -4.1 -57.8 -2.8 -39.35 -1.35 -23.8 -22.05 -15.0 Q-23.3 -23.75 -23.8 -33.9 L-24.6 -55.0 -25.2 -93.2 -25.45 -93.2" fill="#000000" fill-rule="evenodd" stroke="none"/>
      <path d="M-13.2 -88.4 L-12.25 -68.2 -10.95 -49.75 -9.5 -34.15 -30.2 -25.4 Q-31.45 -34.15 -31.95 -44.3 L-32.75 -65.4 -33.35 -103.6 -33.6 -103.6 Q-35.75 -95.85 -37.1 -87.35 -38.6 -77.95 -39.45 -69.05 L-40.9 -50.95 -41.6 -35.5 -54.15 -31.9 -56.45 -49.15 -58.45 -67.4 -59.85 -85.3 Q-60.35 -93.75 -60.35 -101.9 L-60.55 -101.9 Q-62.6 -92.65 -63.45 -84.55 -64.4 -75.7 -64.6 -67.85 L-64.75 -52.4 -64.65 -38.85 -87.4 -32.25 Q-87.15 -45.2 -86.05 -59.0 -85.05 -71.45 -83.3 -85.75 L-80.0 -110.2 -76.85 -130.0 -47.85 -145.45 Q-48.7 -135.85 -48.95 -129.7 -49.3 -121.75 -49.15 -116.1 -49.1 -110.35 -48.5 -103.85 L-46.95 -91.85 -46.65 -91.7 Q-44.4 -106.65 -42.1 -117.85 L-37.8 -136.75 -12.35 -147.15 Q-13.1 -138.8 -13.4 -129.15 L-13.65 -109.15 -13.2 -88.4" fill="#ffffff" fill-rule="evenodd" stroke="none"/>
      <path d="M-13.2 -88.4 L-12.25 -68.2 -10.95 -49.75 -9.5 -34.15 -30.2 -25.4 Q-31.45 -34.15 -31.95 -44.3 L-32.75 -65.4 -33.35 -103.6 -33.6 -103.6 Q-35.75 -95.85 -37.1 -87.35 -38.6 -77.95 -39.45 -69.05 L-40.9 -50.95 -41.6 -35.5 -54.15 -31.9 -56.45 -49.15 -58.45 -67.4 -59.85 -85.3 Q-60.35 -93.75 -60.35 -101.9 L-60.55 -101.9 Q-62.6 -92.65 -63.45 -84.55 -64.4 -75.7 -64.6 -67.85 L-64.75 -52.4 -64.65 -38.85 -87.4 -32.25 Q-87.15 -45.2 -86.05 -59.0 -85.05 -71.45 -83.3 -85.75 L-80.0 -110.2 -76.85 -130.0 -47.85 -145.45 Q-48.7 -135.85 -48.95 -129.7 -49.3 -121.75 -49.15 -116.1 -49.1 -110.35 -48.5 -103.85 L-46.95 -91.85 -46.65 -91.7 Q-44.4 -106.65 -42.1 -117.85 L-37.8 -136.75 -12.35 -147.15 Q-13.1 -138.8 -13.4 -129.15 L-13.65 -109.15 -13.2 -88.4 Z" fill="none" stroke="#000000" stroke-linecap="butt" stroke-linejoin="miter-clip" stroke-miterlimit="4.0" stroke-width="3.3000000000000003"/>
      <path d="M-102.05 -95.35 L-103.1 -76.1 -84.25 -83.65 -83.5 -66.3 -103.05 -57.95 -103.5 -52.1 -103.8 -45.25 -103.7 -38.15 -102.95 -31.5 -98.15 -33.9 -76.5 -43.4 -75.7 -16.55 -109.85 -0.35 -123.9 -16.7 -123.9 -28.65 -123.6 -43.8 -121.0 -106.8 Q-115.75 -108.65 -109.15 -110.4 L-96.65 -113.5 -82.65 -116.4 -82.3 -102.1 -102.05 -95.35" fill="#000000" fill-rule="evenodd" stroke="none"/>
      <path d="M-92.4 -94.05 L-91.65 -76.7 -111.2 -68.35 -111.65 -62.5 -111.95 -55.65 -111.85 -48.55 -111.1 -41.9 -106.3 -44.3 -84.65 -53.8 -83.85 -26.9 -118.0 -10.75 -132.05 -27.1 -132.05 -39.05 -131.75 -54.2 -129.15 -117.2 -117.3 -120.8 -104.8 -123.9 -90.8 -126.8 -90.45 -112.45 -110.2 -105.75 -111.25 -86.5 -92.4 -94.05" fill="#ffffff" fill-rule="evenodd" stroke="none"/>
      <path d="M-92.4 -94.05 L-91.65 -76.7 -111.2 -68.35 -111.65 -62.5 -111.95 -55.65 -111.85 -48.55 -111.1 -41.9 -106.3 -44.3 -84.65 -53.8 -83.85 -26.9 -118.0 -10.75 -132.05 -27.1 -132.05 -39.05 -131.75 -54.2 -129.15 -117.2 -117.3 -120.8 -104.8 -123.9 -90.8 -126.8 -90.45 -112.45 -110.2 -105.75 -111.25 -86.5 -92.4 -94.05 Z" fill="none" stroke="#000000" stroke-linecap="butt" stroke-linejoin="miter-clip" stroke-miterlimit="4.0" stroke-width="3.3000000000000003"/>
      <path d="M-162.9 -118.7 Q-157.65 -120.5 -152.3 -121.05 -147.1 -121.5 -142.35 -120.4 -137.45 -119.2 -133.25 -115.7 -129.45 -112.65 -127.6 -105.65 -125.7 -98.6 -126.3 -90.2 -126.8 -81.8 -130.0 -72.85 -133.2 -63.9 -139.35 -57.0 L-135.65 -52.45 -120.35 -35.35 Q-125.9 -29.4 -129.9 -23.45 -133.85 -17.5 -137.8 -12.5 L-152.8 -36.45 -156.15 -42.35 Q-156.15 -31.25 -156.3 -26.75 -156.45 -19.55 -156.25 -13.7 -158.1 -13.55 -160.4 -12.65 -162.65 -11.8 -165.1 -10.6 -167.45 -9.45 -169.8 -8.1 L-174.1 -5.6 -174.4 -34.15 -174.55 -54.55 -174.6 -76.15 -174.4 -96.85 -173.85 -114.25 Q-168.75 -116.7 -162.9 -118.7 M-150.7 -96.3 Q-152.45 -96.4 -154.1 -95.6 L-155.75 -61.2 Q-151.8 -67.95 -149.45 -73.75 -147.05 -79.7 -146.25 -86.05 -145.8 -89.2 -146.3 -91.5 -146.75 -93.7 -147.95 -94.9 -149.05 -96.15 -150.7 -96.3" fill="#000000" fill-rule="evenodd" stroke="none"/>
      <path d="M-171.05 -129.1 Q-165.8 -130.9 -160.45 -131.45 -155.25 -131.9 -150.5 -130.8 -145.6 -129.6 -141.4 -126.1 -137.6 -123.05 -135.75 -116.05 -133.85 -109.0 -134.45 -100.6 -134.95 -92.2 -138.15 -83.25 -141.3 -74.35 -147.5 -67.4 L-143.8 -62.85 -128.5 -45.75 Q-134.05 -39.8 -138.05 -33.85 -142.0 -27.9 -145.95 -22.9 L-155.35 -37.75 -160.95 -46.85 -164.35 -52.75 Q-164.25 -42.7 -164.45 -37.15 -164.6 -29.95 -164.4 -24.1 -166.2 -23.95 -168.55 -23.05 L-173.25 -21.0 Q-175.3 -20.05 -177.95 -18.5 L-182.25 -16.0 -182.75 -86.55 -182.55 -107.25 -182.0 -124.65 Q-176.9 -127.1 -171.05 -129.1 M-163.65 -79.3 L-163.9 -71.6 Q-159.95 -78.35 -157.6 -84.15 -155.2 -90.1 -154.4 -96.45 -154.0 -99.8 -154.45 -101.9 -154.9 -104.1 -156.1 -105.3 -157.2 -106.55 -158.85 -106.65 -160.55 -106.8 -162.25 -106.0 L-163.15 -89.25 -163.65 -79.3" fill="#ffffff" fill-rule="evenodd" stroke="none"/>
      <path d="M-171.05 -129.1 Q-165.8 -130.9 -160.45 -131.45 -155.25 -131.9 -150.5 -130.8 -145.6 -129.6 -141.4 -126.1 -137.6 -123.05 -135.75 -116.05 -133.85 -109.0 -134.45 -100.6 -134.95 -92.2 -138.15 -83.25 -141.3 -74.35 -147.5 -67.4 L-143.8 -62.85 -128.5 -45.75 Q-134.05 -39.8 -138.05 -33.85 -142.0 -27.9 -145.95 -22.9 L-155.35 -37.75 -160.95 -46.85 -164.35 -52.75 Q-164.25 -42.7 -164.45 -37.15 -164.6 -29.95 -164.4 -24.1 -166.2 -23.95 -168.55 -23.05 L-173.25 -21.0 Q-175.3 -20.05 -177.95 -18.5 L-182.25 -16.0 -182.75 -86.55 -182.55 -107.25 -182.0 -124.65 Q-176.9 -127.1 -171.05 -129.1 M-163.65 -79.3 L-163.9 -71.6 Q-159.95 -78.35 -157.6 -84.15 -155.2 -90.1 -154.4 -96.45 -154.0 -99.8 -154.45 -101.9 -154.9 -104.1 -156.1 -105.3 -157.2 -106.55 -158.85 -106.65 -160.55 -106.8 -162.25 -106.0 L-163.15 -89.25 -163.65 -79.3" fill="none" stroke="#000000" stroke-linecap="butt" stroke-linejoin="miter-clip" stroke-miterlimit="4.0" stroke-width="3.3000000000000003"/>
      <path d="M-248.95 -108.9 L-226.5 -118.35 Q-224.9 -106.9 -223.9 -94.25 -222.95 -82.45 -223.2 -69.85 -223.4 -57.95 -225.1 -46.45 -226.7 -35.2 -230.15 -25.25 -231.95 -20.1 -234.95 -15.75 -237.9 -11.4 -241.55 -8.45 -245.15 -5.45 -249.3 -4.05 -253.4 -2.7 -257.55 -3.45 -261.7 -4.2 -265.75 -7.2 -269.75 -10.15 -273.15 -16.05 -276.0 -20.9 -277.7 -27.2 -279.35 -33.3 -280.35 -40.8 -281.2 -47.65 -281.45 -55.55 -281.6 -63.9 -281.35 -70.2 -281.15 -76.6 -280.4 -83.5 L-278.95 -94.35 -258.1 -102.3 -259.35 -82.2 Q-259.85 -69.95 -259.85 -60.7 -259.9 -50.9 -259.35 -41.3 -258.8 -32.4 -257.4 -27.55 -256.0 -22.75 -253.9 -21.35 L-249.7 -21.45 Q-247.65 -23.05 -245.9 -27.35 -244.15 -31.55 -243.6 -38.2 -243.3 -42.85 -243.35 -48.7 -243.4 -54.8 -243.8 -61.7 L-244.8 -75.6 -246.15 -89.1 -247.6 -100.7 -248.95 -108.9" fill="#000000" fill-rule="evenodd" stroke="none"/>
      <path d="M-234.65 -128.75 Q-233.05 -117.3 -232.05 -104.65 -231.1 -92.85 -231.35 -80.25 -231.55 -68.4 -233.25 -56.8 -234.9 -45.6 -238.3 -35.65 -240.1 -30.5 -243.1 -26.15 -246.25 -21.65 -249.7 -18.85 -253.3 -15.85 -257.45 -14.45 -261.55 -13.1 -265.75 -13.85 -269.85 -14.6 -273.9 -17.6 -277.9 -20.55 -281.3 -26.45 -284.15 -31.3 -285.85 -37.6 -287.5 -43.7 -288.5 -51.2 -289.35 -58.05 -289.6 -65.9 -289.75 -74.3 -289.5 -80.6 -289.3 -87.0 -288.55 -93.9 L-287.1 -104.75 -266.25 -112.7 -267.5 -92.6 Q-268.0 -80.35 -268.0 -71.1 -268.05 -61.3 -267.5 -51.7 -266.95 -42.8 -265.55 -37.95 -264.15 -33.2 -262.05 -31.7 -259.95 -30.25 -257.9 -31.85 -255.8 -33.45 -254.05 -37.75 -252.3 -41.95 -251.75 -48.6 -251.45 -53.25 -251.5 -59.1 L-251.95 -72.05 -252.95 -86.0 -254.3 -99.5 -255.75 -111.1 -257.1 -119.3 -234.65 -128.75" fill="#ffffff" fill-rule="evenodd" stroke="none"/>
      <path d="M-234.65 -128.75 Q-233.05 -117.3 -232.05 -104.65 -231.1 -92.85 -231.35 -80.25 -231.55 -68.4 -233.25 -56.8 -234.9 -45.6 -238.3 -35.65 -240.1 -30.5 -243.1 -26.15 -246.25 -21.65 -249.7 -18.85 -253.3 -15.85 -257.45 -14.45 -261.55 -13.1 -265.75 -13.85 -269.85 -14.6 -273.9 -17.6 -277.9 -20.55 -281.3 -26.45 -284.15 -31.3 -285.85 -37.6 -287.5 -43.7 -288.5 -51.2 -289.35 -58.05 -289.6 -65.9 -289.75 -74.3 -289.5 -80.6 -289.3 -87.0 -288.55 -93.9 L-287.1 -104.75 -266.25 -112.7 -267.5 -92.6 Q-268.0 -80.35 -268.0 -71.1 -268.05 -61.3 -267.5 -51.7 -266.95 -42.8 -265.55 -37.95 -264.15 -33.2 -262.05 -31.7 -259.95 -30.25 -257.9 -31.85 -255.8 -33.45 -254.05 -37.75 -252.3 -41.95 -251.75 -48.6 -251.45 -53.25 -251.5 -59.1 L-251.95 -72.05 -252.95 -86.0 -254.3 -99.5 -255.75 -111.1 -257.1 -119.3 -234.65 -128.75 Z" fill="none" stroke="#000000" stroke-linecap="butt" stroke-linejoin="miter-clip" stroke-miterlimit="4.0" stroke-width="3.3000000000000003"/>
      <path d="M-327.35 -160.0 Q-318.2 -163.75 -311.65 -162.95 -304.9 -162.1 -300.6 -159.85 -295.6 -157.35 -291.7 -152.45 L-291.65 -109.0 Q-296.9 -117.9 -301.75 -122.45 -303.6 -124.4 -305.9 -125.7 -308.05 -126.8 -310.0 -126.75 -311.95 -126.6 -313.5 -124.5 -315.05 -122.45 -316.25 -117.75 -318.05 -109.8 -317.25 -104.2 -316.35 -98.35 -313.55 -93.25 -310.45 -87.6 -306.1 -82.15 -301.2 -75.8 -295.8 -67.85 -288.1 -56.9 -284.65 -43.5 -281.15 -30.1 -281.3 -17.35 -281.45 -4.65 -284.95 5.75 -288.35 16.05 -294.85 21.35 -305.5 29.75 -313.65 31.6 -321.8 33.45 -328.15 31.95 -334.5 30.45 -339.2 27.0 -342.8 24.3 -347.55 20.95 L-349.95 4.6 -352.1 -13.4 -354.05 -34.05 Q-349.45 -27.45 -344.35 -22.95 -340.2 -19.1 -335.25 -17.15 -330.45 -15.25 -325.95 -18.8 -320.55 -23.2 -319.15 -27.85 -317.7 -32.5 -319.0 -37.6 -320.25 -42.75 -323.5 -48.3 -326.65 -53.85 -330.7 -60.15 L-338.7 -73.25 Q-342.75 -80.05 -345.45 -87.5 -349.45 -98.8 -350.6 -110.4 -351.65 -121.7 -349.5 -131.75 -347.35 -141.5 -341.8 -149.1 -336.2 -156.55 -327.35 -160.0" fill="#ffffff" fill-rule="evenodd" stroke="none"/>
      <path d="M-327.35 -160.0 Q-318.2 -163.75 -311.65 -162.95 -304.9 -162.1 -300.6 -159.85 -295.6 -157.35 -291.7 -152.45 L-291.65 -109.0 Q-296.9 -117.9 -301.75 -122.45 -303.6 -124.4 -305.9 -125.7 -308.05 -126.8 -310.0 -126.75 -311.95 -126.6 -313.5 -124.5 -315.05 -122.45 -316.25 -117.75 -318.05 -109.8 -317.25 -104.2 -316.35 -98.35 -313.55 -93.25 -310.45 -87.6 -306.1 -82.15 -301.2 -75.8 -295.8 -67.85 -288.1 -56.9 -284.65 -43.5 -281.15 -30.1 -281.3 -17.35 -281.45 -4.65 -284.95 5.75 -288.35 16.05 -294.85 21.35 -305.5 29.75 -313.65 31.6 -321.8 33.45 -328.15 31.95 -334.5 30.45 -339.2 27.0 -342.8 24.3 -347.55 20.95 L-349.95 4.6 -352.1 -13.4 -354.05 -34.05 Q-349.45 -27.45 -344.35 -22.95 -340.2 -19.1 -335.25 -17.15 -330.45 -15.25 -325.95 -18.8 -320.55 -23.2 -319.15 -27.85 -317.7 -32.5 -319.0 -37.6 -320.25 -42.75 -323.5 -48.3 -326.65 -53.85 -330.7 -60.15 L-338.7 -73.25 Q-342.75 -80.05 -345.45 -87.5 -349.45 -98.8 -350.6 -110.4 -351.65 -121.7 -349.5 -131.75 -347.35 -141.5 -341.8 -149.1 -336.2 -156.55 -327.35 -160.0 Z" fill="none" stroke="#000000" stroke-linecap="butt" stroke-linejoin="round" stroke-width="3.3000000000000003"/>
      <path d="M-179.95 -90.45 Q-177.35 -86.95 -175.85 -81.55 -174.35 -76.2 -174.65 -68.4 -175.05 -60.55 -177.85 -53.7 -180.6 -47.0 -184.7 -41.3 -188.6 -35.85 -193.2 -31.95 -197.65 -28.1 -201.45 -26.2 L-201.15 -19.3 -200.2 -10.9 -198.65 -2.35 Q-197.75 1.7 -196.45 4.95 L-200.95 6.6 -218.85 13.7 -220.65 -14.7 Q-221.45 -29.7 -221.85 -44.55 -222.2 -58.75 -222.05 -73.3 -221.8 -87.2 -220.85 -97.9 L-216.3 -99.1 -209.2 -100.25 -200.95 -100.55 Q-196.7 -100.4 -193.0 -99.2 -189.5 -98.05 -185.95 -95.95 -182.45 -93.85 -179.95 -90.45 M-202.95 -70.65 L-203.3 -60.95 -203.3 -44.05 Q-200.7 -47.55 -198.65 -51.45 -196.65 -55.15 -195.3 -59.3 -194.0 -63.1 -193.6 -66.7 -193.15 -70.3 -193.9 -73.0 -194.65 -75.75 -196.55 -77.35 -198.5 -79.0 -201.95 -78.85 -202.65 -75.3 -202.95 -70.65" fill="#000000" fill-rule="evenodd" stroke="none"/>
      <path d="M-184.0 -91.95 Q-182.5 -86.5 -182.85 -78.8 -183.15 -71.0 -186.0 -64.1 -189.0 -56.95 -192.85 -51.7 -196.85 -46.15 -201.35 -42.3 -205.75 -38.55 -209.6 -36.55 L-209.3 -29.7 -208.35 -21.3 -206.8 -12.75 Q-205.9 -8.7 -204.6 -5.45 L-209.1 -3.8 -227.0 3.3 -228.8 -25.05 Q-229.6 -40.15 -230.0 -54.95 -230.35 -69.1 -230.2 -83.7 -229.95 -97.6 -229.0 -108.3 L-224.45 -109.5 -217.35 -110.65 -209.1 -110.95 Q-204.8 -110.8 -201.15 -109.6 -197.65 -108.45 -194.1 -106.35 -190.7 -104.3 -188.1 -100.8 -185.5 -97.4 -184.0 -91.95 M-210.1 -89.25 Q-210.8 -86.1 -211.1 -81.05 L-211.45 -71.35 -211.5 -61.9 -211.5 -54.45 Q-209.1 -57.55 -206.8 -61.8 -204.65 -66.0 -203.45 -69.7 -202.15 -73.4 -201.75 -77.1 -201.3 -80.5 -202.05 -83.4 -202.8 -86.05 -204.7 -87.75 -206.65 -89.4 -210.1 -89.25" fill="#ffffff" fill-rule="evenodd" stroke="none"/>
      <path d="M-184.0 -91.95 Q-182.5 -86.5 -182.85 -78.8 -183.15 -71.0 -186.0 -64.1 -189.0 -56.95 -192.85 -51.7 -196.85 -46.15 -201.35 -42.3 -205.75 -38.55 -209.6 -36.55 L-209.3 -29.7 -208.35 -21.3 -206.8 -12.75 Q-205.9 -8.7 -204.6 -5.45 L-209.1 -3.8 -227.0 3.3 -228.8 -25.05 Q-229.6 -40.15 -230.0 -54.95 -230.35 -69.1 -230.2 -83.7 -229.95 -97.6 -229.0 -108.3 L-224.45 -109.5 -217.35 -110.65 -209.1 -110.95 Q-204.8 -110.8 -201.15 -109.6 -197.65 -108.45 -194.1 -106.35 -190.7 -104.3 -188.1 -100.8 -185.5 -97.4 -184.0 -91.95 M-210.1 -89.25 Q-210.8 -86.1 -211.1 -81.05 L-211.45 -71.35 -211.5 -61.9 -211.5 -54.45 Q-209.1 -57.55 -206.8 -61.8 -204.65 -66.0 -203.45 -69.7 -202.15 -73.4 -201.75 -77.1 -201.3 -80.5 -202.05 -83.4 -202.8 -86.05 -204.7 -87.75 -206.65 -89.4 -210.1 -89.25" fill="none" stroke="#000000" stroke-linecap="butt" stroke-linejoin="miter-clip" stroke-miterlimit="4.0" stroke-width="3.3000000000000003"/>
      <path d="M279.4 64.35 L262.1 65.35 Q261.4 61.35 259.2 59.5 256.95 57.7 253.1 57.7 249.9 57.7 248.25 59.05 246.65 60.4 246.65 62.35 246.65 63.75 247.95 64.9 249.25 66.1 254.15 67.1 266.15 69.7 271.4 72.35 276.6 75.0 279.0 78.9 281.35 82.85 281.35 87.7 281.35 93.45 278.15 98.25 275.0 103.1 269.35 105.6 263.65 108.05 255.05 108.05 239.85 108.05 234.05 102.25 228.2 96.4 227.45 87.4 L244.9 86.3 Q245.45 90.55 247.2 92.8 250.05 96.4 255.3 96.4 259.25 96.4 261.4 94.55 263.5 92.7 263.5 90.25 263.5 87.95 261.45 86.15 259.45 84.3 252.05 82.7 240.0 80.0 234.85 75.5 229.65 71.0 229.65 64.0 229.65 59.45 232.35 55.4 234.95 51.3 240.3 48.95 245.6 46.6 254.9 46.6 266.3 46.6 272.3 50.9 278.25 55.1 279.4 64.35 M222.5 47.65 L222.5 57.45 217.7 69.5 206.5 69.5 206.05 47.65 222.5 47.65 M197.55 47.65 L197.55 107.05 180.25 107.05 158.0 74.45 158.0 107.05 140.75 107.05 140.75 47.65 157.9 47.65 180.25 80.5 180.25 47.65 197.55 47.65 M209.65 138.9 Q208.95 134.9 206.75 133.05 204.5 131.25 200.65 131.25 197.45 131.25 195.8 132.6 194.2 133.95 194.2 135.9 194.2 137.3 195.5 138.45 196.8 139.65 201.7 140.65 213.7 143.25 218.95 145.9 224.15 148.55 226.55 152.45 228.9 156.4 228.9 161.25 228.9 167.0 225.7 171.8 222.55 176.65 216.9 179.15 211.2 181.6 202.6 181.6 187.4 181.6 181.6 175.8 175.75 169.95 175.0 160.95 L192.45 159.85 Q193.0 164.1 194.75 166.35 197.6 169.95 202.85 169.95 206.8 169.95 208.95 168.1 211.05 166.25 211.05 163.8 211.05 161.5 209.0 159.7 207.0 157.85 199.6 156.25 187.55 153.55 182.4 149.05 177.2 144.55 177.2 137.55 177.2 133.0 179.9 128.95 182.5 124.85 187.85 122.5 193.15 120.15 202.45 120.15 213.85 120.15 219.85 124.45 225.8 128.65 226.95 137.9 L209.65 138.9 M167.05 180.6 L149.75 180.6 127.5 148.0 127.5 180.6 110.25 180.6 110.25 121.2 127.4 121.2 149.75 154.05 149.75 121.2 167.05 121.2 167.05 180.6 M100.15 93.6 L131.85 93.6 131.85 107.05 81.75 107.05 81.75 47.65 130.95 47.65 130.95 60.3 100.15 60.3 100.15 69.75 128.7 69.75 128.7 81.9 100.15 81.9 100.15 93.6 M62.2 49.1 Q66.7 50.55 69.45 54.55 72.2 58.45 72.2 64.15 72.2 69.1 70.1 72.7 68.0 76.25 64.3 78.5 61.95 79.9 57.85 80.85 61.15 81.9 62.65 83.0 L65.55 86.15 68.15 89.85 77.0 107.05 56.25 107.05 46.45 88.9 Q44.6 85.35 43.15 84.3 41.15 82.95 38.65 82.95 L37.0 82.95 37.0 107.05 18.55 107.05 18.55 47.65 49.15 47.65 Q57.7 47.65 62.2 49.1 M37.0 71.7 L44.75 71.7 49.6 70.9 Q51.45 70.55 52.6 69.05 53.75 67.55 53.75 65.6 53.75 62.7 51.95 61.15 50.1 59.65 45.1 59.65 L37.0 59.65 37.0 71.7 M8.35 65.65 Q9.8 71.05 9.8 77.15 9.8 86.65 7.65 91.95 5.45 97.15 1.6 100.75 -2.25 104.25 -6.65 105.45 -12.7 107.05 -17.6 107.05 L-44.9 107.05 -44.9 47.65 -17.6 47.65 Q-9.55 47.65 -4.55 49.85 0.4 52.0 3.65 56.1 6.9 60.2 8.35 65.65 M68.3 121.2 L68.3 180.6 53.25 180.6 53.25 135.3 41.7 180.6 28.05 180.6 16.5 135.3 16.5 180.6 1.5 180.6 1.5 121.2 25.65 121.2 34.95 157.35 44.2 121.2 68.3 121.2 M79.65 121.2 L98.05 121.2 98.05 180.6 79.65 180.6 79.65 121.2 M-52.35 92.4 L-52.35 107.05 -99.35 107.05 -99.35 47.65 -81.0 47.65 -81.0 92.4 -52.35 92.4 M-26.5 93.55 L-22.0 93.55 Q-16.25 93.55 -13.85 92.3 -11.4 91.0 -10.0 87.85 -8.65 84.65 -8.65 77.5 -8.65 68.05 -11.75 64.6 -14.8 61.1 -21.95 61.1 L-26.5 61.1 -26.5 93.55 M-141.7 47.65 L-141.7 107.05 -160.1 107.05 -160.1 83.0 -180.2 83.0 -180.2 107.05 -198.55 107.05 -198.55 47.65 -180.2 47.65 -180.2 68.45 -160.1 68.45 -160.1 47.65 -141.7 47.65 M-111.45 47.65 L-111.45 107.05 -129.85 107.05 -129.85 47.65 -111.45 47.65 M-119.15 121.2 L-63.35 121.2 -63.35 135.85 -82.05 135.85 -82.05 180.6 -100.4 180.6 -100.4 135.85 -119.15 135.85 -119.15 121.2 M-127.05 121.2 L-127.05 180.6 -145.45 180.6 -145.45 121.2 -127.05 121.2 M-48.95 180.6 L-67.75 180.6 -45.4 121.2 -25.4 121.2 -3.05 180.6 -22.25 180.6 -25.25 170.8 -46.1 170.8 -48.95 180.6 M-29.05 157.95 L-35.6 136.6 -42.1 157.95 -29.05 157.95 M-207.0 65.1 L-223.2 68.7 Q-224.05 66.0 -225.0 64.75 -226.55 62.65 -228.75 61.5 -231.0 60.35 -233.75 60.35 -240.0 60.35 -243.3 65.4 -245.8 69.1 -245.8 77.1 -245.8 86.95 -242.8 90.65 -239.8 94.3 -234.4 94.3 -229.1 94.3 -226.4 91.35 -223.75 88.35 -222.5 82.75 L-206.45 87.6 Q-208.05 94.35 -211.55 98.9 -215.0 103.45 -220.15 105.75 -225.35 108.05 -233.35 108.05 -243.0 108.05 -249.15 105.25 -255.3 102.45 -259.75 95.35 -264.2 88.25 -264.2 77.2 -264.2 62.45 -256.35 54.55 -248.55 46.6 -234.2 46.6 -222.95 46.6 -216.5 51.15 -210.1 55.7 -207.0 65.1 M-193.0 180.6 L-215.45 121.2 -196.25 121.2 -182.85 163.95 -169.7 121.2 -151.05 121.2 -173.1 180.6 -193.0 180.6" fill="#b3e6e4" fill-rule="evenodd" stroke="none"/>
    </g>
  </defs>
</svg>
