<?xml version="1.0" encoding="UTF-8" standalone="no"?>
<svg
   xmlns:dc="http://purl.org/dc/elements/1.1/"
   xmlns:cc="http://creativecommons.org/ns#"
   xmlns:rdf="http://www.w3.org/1999/02/22-rdf-syntax-ns#"
   xmlns:svg="http://www.w3.org/2000/svg"
   xmlns="http://www.w3.org/2000/svg"
   xmlns:sodipodi="http://sodipodi.sourceforge.net/DTD/sodipodi-0.dtd"
   xmlns:inkscape="http://www.inkscape.org/namespaces/inkscape"
   inkscape:version="1.0 (4035a4fb49, 2020-05-01)"
   sodipodi:docname="comingSoonRect.svg"
   id="svg2130"
   version="1.1"
   viewBox="0 0 162.62477 93.806679"
   height="93.806679mm"
   width="162.62477mm">
  <defs
     id="defs2124" />
  <sodipodi:namedview
     inkscape:window-maximized="1"
     inkscape:window-y="-8"
     inkscape:window-x="-8"
     inkscape:window-height="1017"
     inkscape:window-width="1920"
     showgrid="false"
     inkscape:document-rotation="0"
     inkscape:current-layer="layer1"
     inkscape:document-units="mm"
     inkscape:cy="58.543756"
     inkscape:cx="58.879869"
     inkscape:zoom="0.5862842"
     inkscape:pageshadow="2"
     inkscape:pageopacity="0.0"
     borderopacity="1.0"
     bordercolor="#666666"
     pagecolor="#ffffff"
     id="base" />
  <metadata
     id="metadata2127">
    <rdf:RDF>
      <cc:Work
         rdf:about="">
        <dc:format>image/svg+xml</dc:format>
        <dc:type
           rdf:resource="http://purl.org/dc/dcmitype/StillImage" />
        <dc:title></dc:title>
      </cc:Work>
    </rdf:RDF>
  </metadata>
  <g
     transform="translate(-32.609604,-83.293213)"
     id="layer1"
     inkscape:groupmode="layer"
     inkscape:label="Layer 1">
    <rect
       style="fill:#000000;fill-opacity:0.60241;stroke:none;stroke-width:12.429;stroke-linecap:round;stroke-linejoin:round;stroke-miterlimit:4;stroke-dasharray:none;paint-order:stroke fill markers"
       id="rect2693-9"
       width="162.62477"
       height="93.806679"
       x="32.609604"
       y="83.293213"
       ry="20.151548" />
    <rect
       ry="9.4938631"
       y="94.514938"
       x="44.73391"
       height="71.36322"
       width="138.37616"
       id="rect2693"
       style="fill:none;stroke:#ff0000;stroke-width:10;stroke-linecap:round;stroke-linejoin:round;stroke-miterlimit:4;stroke-dasharray:none;paint-order:stroke fill markers" />
    <g
       style="font-size:34.8708px;line-height:0.8;font-family:JackCondensed;-inkscape-font-specification:JackCondensed;fill:#ff0000;stroke-width:0.87177"
       id="text2722"
       aria-label="COMING
SOON">
      <path
         id="path2726"
         style="text-align:center;text-anchor:middle;fill:#ff0000;stroke-width:0.87177"
         d="m 74.77747,112.50234 q 0,-4.22264 -2.247532,-6.67449 -2.247532,-2.4859 -6.436114,-2.4859 -5.073974,0 -7.593934,4.08642 -2.077264,3.3713 -2.077264,8.81986 0,5.61883 2.009157,8.88797 2.451853,4.01831 7.662041,4.01831 4.086422,0 6.436114,-2.55401 2.247532,-2.45186 2.247532,-6.57233 l -5.448562,-0.47675 q -0.06811,2.24753 -0.476749,3.26914 -0.681071,1.70267 -2.485907,1.70267 -2.009157,0 -2.690228,-2.21348 -0.476749,-1.63457 -0.476749,-6.02747 0,-4.05237 0.544856,-5.89126 0.681071,-2.45185 2.485907,-2.45185 2.690228,0 2.690228,4.56317 z" />
      <path
         id="path2728"
         style="text-align:center;text-anchor:middle;fill:#ff0000;stroke-width:0.87177"
         d="m 82.609779,116.24823 q 0,-4.59723 0.340535,-6.02747 0.544856,-2.28159 2.554013,-2.28159 2.009158,0 2.554014,2.28159 0.340535,1.43024 0.340535,6.02747 0,4.56317 -0.340535,5.95936 -0.57891,2.3497 -2.554014,2.3497 -1.975104,0 -2.554013,-2.3497 -0.340535,-1.39619 -0.340535,-5.95936 z m -6.77665,0 q 0,5.44856 2.077264,8.81986 2.485907,4.08642 7.593934,4.08642 5.108028,0 7.593934,-4.08642 2.077265,-3.3713 2.077265,-8.81986 0,-5.44856 -2.077265,-8.81986 -2.485906,-4.08642 -7.593934,-4.08642 -5.108027,0 -7.593934,4.08642 -2.077264,3.3713 -2.077264,8.81986 z" />
      <path
         id="path2730"
         style="text-align:center;text-anchor:middle;fill:#ff0000;stroke-width:0.87177"
         d="m 97.116577,128.64371 h 4.835603 V 109.6759 l 3.98426,18.96781 h 3.81399 l 4.35885,-18.32079 v 18.32079 h 6.26585 v -24.82502 h -8.44527 l -3.23509,13.92789 h -0.13621 l -2.72428,-13.92789 h -8.717703 z" />
      <path
         id="path2732"
         style="text-align:center;text-anchor:middle;fill:#ff0000;stroke-width:0.87177"
         d="m 123.71237,128.64371 h 6.2999 v -24.82502 h -6.2999 z" />
      <path
         id="path2734"
         style="text-align:center;text-anchor:middle;fill:#ff0000;stroke-width:0.87177"
         d="m 133.34952,128.64371 h 5.03992 v -13.82573 l 0.0681,-0.0681 7.45772,13.89384 h 4.90371 V 103.8187 h -5.00587 v 13.34898 l -7.21935,-13.34898 h -5.24424 v 24.82502 z" />
      <path
         id="path2736"
         style="text-align:center;text-anchor:middle;fill:#ff0000;stroke-width:0.87177"
         d="m 171.21703,116.31633 h -8.58149 v 4.18859 h 3.16698 q 0,1.49835 -0.78323,2.69022 -0.81728,1.36215 -2.24753,1.36215 -2.04321,0 -2.69023,-2.24754 -0.5108,-1.63457 -0.5108,-6.02747 0,-4.05237 0.54485,-5.89126 0.68107,-2.45185 2.48591,-2.45185 1.63457,0 2.17943,1.25998 0.40864,0.91944 0.54485,3.47346 h 6.09558 q 0,-4.42696 -2.28158,-6.87881 -2.28159,-2.45185 -6.67449,-2.45185 -5.24425,0 -7.73015,4.35885 -1.907,3.4394 -1.907,9.16039 0,5.31235 1.87294,8.44527 2.31564,3.84805 7.2534,3.84805 3.33725,0 5.44857,-2.4178 l 1.19187,2.31564 h 2.62212 z" />
      <path
         id="path2738"
         style="text-align:center;text-anchor:middle;fill:#ff0000;stroke-width:0.87177"
         d="m 74.607203,150.75125 q 1.055659,2.99671 3.473459,4.66533 2.383746,1.63457 5.584776,1.63457 3.813994,0 6.368008,-2.28159 2.690227,-2.38374 2.690227,-6.12963 0,-3.33724 -2.894549,-5.41451 -1.055659,-0.71512 -5.448562,-2.55401 -2.894549,-1.15782 -2.894549,-2.51996 0,-0.9535 0.612963,-1.53241 0.612964,-0.57891 1.566462,-0.57891 2.145372,0 3.405352,2.75834 l 5.005866,-2.07727 q -0.919444,-2.58807 -3.337244,-4.08642 -2.213479,-1.39619 -5.073974,-1.39619 -3.030763,0 -5.448562,1.9751 -2.588068,2.11132 -2.588068,5.07397 0,4.08643 2.860496,6.19774 0.749177,0.51081 5.312348,2.48591 2.860495,1.19187 2.860495,3.16698 0,0.91944 -0.78323,1.49835 -0.817285,0.57891 -1.804837,0.57891 -1.668622,0 -2.690227,-0.98755 -0.817285,-0.81729 -1.600516,-2.55401 z" />
      <path
         id="path2740"
         style="text-align:center;text-anchor:middle;fill:#ff0000;stroke-width:0.87177"
         d="m 100.07923,144.14487 q 0,-4.59723 0.34054,-6.02747 0.54485,-2.28159 2.55401,-2.28159 2.00916,0 2.55402,2.28159 0.34053,1.43024 0.34053,6.02747 0,4.56317 -0.34053,5.95936 -0.57891,2.3497 -2.55402,2.3497 -1.9751,0 -2.55401,-2.3497 -0.34054,-1.39619 -0.34054,-5.95936 z m -6.776647,0 q 0,5.44856 2.077264,8.81986 2.485907,4.08642 7.593933,4.08642 5.10803,0 7.59394,-4.08642 2.07726,-3.3713 2.07726,-8.81986 0,-5.44856 -2.07726,-8.81986 -2.48591,-4.08642 -7.59394,-4.08642 -5.108026,0 -7.593933,4.08642 -2.077264,3.3713 -2.077264,8.81986 z" />
      <path
         id="path2742"
         style="text-align:center;text-anchor:middle;fill:#ff0000;stroke-width:0.87177"
         d="m 120.1027,144.14487 q 0,-4.59723 0.34054,-6.02747 0.54485,-2.28159 2.55401,-2.28159 2.00916,0 2.55401,2.28159 0.34054,1.43024 0.34054,6.02747 0,4.56317 -0.34054,5.95936 -0.57891,2.3497 -2.55401,2.3497 -1.9751,0 -2.55401,-2.3497 -0.34054,-1.39619 -0.34054,-5.95936 z m -6.77665,0 q 0,5.44856 2.07727,8.81986 2.4859,4.08642 7.59393,4.08642 5.10803,0 7.59393,-4.08642 2.07727,-3.3713 2.07727,-8.81986 0,-5.44856 -2.07727,-8.81986 -2.4859,-4.08642 -7.59393,-4.08642 -5.10803,0 -7.59393,4.08642 -2.07727,3.3713 -2.07727,8.81986 z" />
      <path
         id="path2744"
         style="text-align:center;text-anchor:middle;fill:#ff0000;stroke-width:0.87177"
         d="m 134.6095,156.54035 h 5.03992 v -13.82573 l 0.0681,-0.0681 7.45772,13.89384 h 4.9037 v -24.82502 h -5.00586 v 13.34898 l -7.21935,-13.34898 h -5.24424 v 24.82502 z" />
    </g>
  </g>
</svg>
