<?xml version="1.0" encoding="UTF-8" standalone="no"?>
<svg xmlns:xlink="http://www.w3.org/1999/xlink" height="819.1px" width="907.25px" xmlns="http://www.w3.org/2000/svg">
  <g transform="matrix(1.0, 0.0, 0.0, 1.0, 302.3, 225.6)">
    <use height="374.05" transform="matrix(1.0, 0.0, 0.0, 1.0, -281.0, -188.65)" width="563.95" xlink:href="#sprite0"/>
    <use height="368.95" id="bg" transform="matrix(1.0, 0.0, 0.0, 1.0, -256.25, -155.45)" width="501.35" xlink:href="#sprite1"/>
    <use height="351.15" id="shadow" transform="matrix(1.0, 0.0, 0.0, 1.0, -275.25, -173.45)" width="554.65" xlink:href="#sprite2"/>
    <use height="351.15" transform="matrix(1.0, 0.0, 0.0, 1.0, -275.25, -173.45)" width="554.65" xlink:href="#sprite3"/>
    <use height="358.15" id="signText" transform="matrix(1.0, 0.0, 0.0, 1.0, -275.95, -179.45)" width="554.65" xlink:href="#sprite5"/>
    <use height="399.35" id="edge" transform="matrix(1.0, 0.0, 0.0, 1.0, -296.2, -202.95)" width="592.45" xlink:href="#sprite6"/>
    <use height="405.1" transform="matrix(1.0, 0.0, 0.0, 1.0, -302.3, -205.6)" width="604.95" xlink:href="#sprite7"/>
  </g>
  <defs>
    <g id="sprite0" transform="matrix(1.0, 0.0, 0.0, 1.0, 0.0, 0.0)">
      <use height="374.05" transform="matrix(1.0, 0.0, 0.0, 1.0, 0.0, 0.0)" width="563.95" xlink:href="#shape0"/>
    </g>
    <g id="shape0" transform="matrix(1.0, 0.0, 0.0, 1.0, 0.0, 0.0)">
      <path d="M563.95 374.05 L0.0 374.05 0.0 0.0 563.95 0.0 563.95 374.05" fill="url(#gradient0)" fill-rule="evenodd" stroke="none"/>
    </g>
    <linearGradient gradientTransform="matrix(0.0, 0.2218, -0.2283, 0.0, 281.95, 187.0)" gradientUnits="userSpaceOnUse" id="gradient0" spreadMethod="pad" x1="-819.2" x2="819.2">
      <stop offset="0.49019607843137253" stop-color="#231818"/>
      <stop offset="1.0" stop-color="#231818"/>
    </linearGradient>
    <g id="sprite1" transform="matrix(1.0, 0.0, 0.0, 1.0, 20.25, -0.05)">
      <use height="368.95" transform="matrix(1.0, 0.0, 0.0, 1.0, -20.25, 0.05)" width="501.35" xlink:href="#shape1"/>
    </g>
    <g id="shape1" transform="matrix(1.0, 0.0, 0.0, 1.0, 20.25, -0.05)">
      <path d="M481.1 369.0 L-20.25 369.0 -20.25 0.05 481.1 0.05 481.1 369.0" fill="url(#gradient1)" fill-rule="evenodd" stroke="none"/>
    </g>
    <linearGradient gradientTransform="matrix(0.0, 0.0988, -0.1089, 0.0, 224.65, 151.15)" gradientUnits="userSpaceOnUse" id="gradient1" spreadMethod="pad" x1="-819.2" x2="819.2">
      <stop offset="0.40784313725490196" stop-color="#231818"/>
      <stop offset="0.7411764705882353" stop-color="#231818" stop-opacity="0.0"/>
    </linearGradient>
    <g id="sprite2" transform="matrix(1.0, 0.0, 0.0, 1.0, 0.0, 0.0)">
      <use height="351.15" transform="matrix(1.0, 0.0, 0.0, 1.0, 0.0, 0.0)" width="554.65" xlink:href="#shape2"/>
    </g>
    <g id="shape2" transform="matrix(1.0, 0.0, 0.0, 1.0, 0.0, 0.0)">
      <path d="M423.65 132.3 Q423.65 142.85 420.75 146.5 417.55 150.95 407.35 150.95 L407.35 114.4 Q416.75 114.2 420.4 118.8 423.65 122.7 423.65 132.3 M352.1 151.5 Q358.15 138.6 358.15 106.2 358.15 73.0 351.4 60.25 342.35 43.0 315.7 43.0 L295.65 43.0 295.65 169.45 319.45 169.45 Q343.75 169.45 352.1 151.5 M399.55 188.85 L369.7 188.85 369.7 334.15 399.55 334.15 399.55 188.85 M334.0 106.05 Q334.0 135.95 331.85 142.25 329.4 149.75 318.55 149.9 L318.55 62.55 Q326.7 62.7 329.5 65.75 334.0 70.7 334.0 106.05 M407.35 94.85 L407.35 61.45 Q416.8 61.3 419.75 65.0 422.05 68.2 422.05 78.15 422.05 86.85 419.2 90.6 415.75 94.85 407.35 94.85 M444.1 74.95 Q444.1 60.45 435.75 51.7 427.45 43.0 412.85 43.0 L384.45 43.0 384.45 169.45 413.9 169.45 Q428.85 169.45 437.85 159.15 446.55 149.35 446.55 134.25 446.55 109.05 423.5 103.55 L423.5 103.2 Q444.1 98.75 444.1 74.95 M511.55 43.0 L492.2 43.0 480.5 92.55 480.15 92.55 469.1 43.0 446.2 43.0 467.35 120.6 467.35 169.45 490.25 169.45 490.25 118.45 511.55 43.0 M551.15 3.55 Q554.65 7.05 554.65 12.0 L554.65 339.15 Q554.65 344.15 551.15 347.65 547.6 351.15 542.65 351.15 L12.0 351.15 Q7.05 351.15 3.55 347.65 0.0 344.15 0.0 339.15 L0.0 12.0 Q0.0 7.05 3.55 3.55 7.05 0.0 12.0 0.0 L542.65 0.0 Q547.6 0.0 551.15 3.55 M457.3 188.85 L419.8 188.85 419.8 334.15 449.0 334.15 449.0 277.05 458.3 277.05 474.7 334.15 506.05 334.15 484.0 271.15 Q492.1 266.25 496.0 260.3 502.95 249.9 502.95 232.0 502.95 209.3 489.5 196.65 484.05 191.8 476.35 190.1 470.15 188.85 457.3 188.85 M457.3 211.7 Q464.9 211.7 468.95 216.1 473.35 221.05 473.35 231.75 473.35 242.35 469.65 247.6 465.7 253.1 457.3 253.1 L449.0 253.1 449.0 211.7 457.3 211.7 M358.75 334.15 L325.85 188.85 294.9 188.85 261.6 334.15 288.35 334.15 294.05 302.75 322.8 302.75 328.7 334.15 358.75 334.15 M63.4 60.05 Q72.65 60.05 72.65 79.05 L93.25 79.05 Q92.35 40.5 63.95 40.5 49.55 40.5 41.6 50.8 34.15 60.2 34.15 74.95 34.15 91.15 45.0 103.5 L65.25 121.45 Q76.05 131.05 76.05 140.1 76.05 145.1 73.35 148.75 70.7 152.4 65.75 152.4 55.8 152.4 55.8 132.85 L35.2 132.85 Q35.2 171.9 64.85 171.9 79.75 171.9 88.45 161.8 96.6 152.4 96.6 137.1 96.6 121.3 85.8 108.55 84.3 106.85 65.55 89.9 54.7 80.05 54.7 71.6 54.7 60.05 63.4 60.05 M94.85 62.55 L114.75 62.55 114.75 169.45 137.65 169.45 137.65 62.55 157.5 62.55 157.5 43.0 94.85 43.0 94.85 62.55 M217.4 188.85 L193.15 188.85 193.15 240.05 Q193.15 245.45 193.85 259.25 194.55 273.25 195.35 284.2 L191.8 267.85 Q190.0 259.9 188.4 255.5 L164.85 188.85 135.65 188.85 135.65 334.15 159.85 334.15 159.85 272.9 159.0 254.1 157.5 230.0 Q161.65 248.15 165.9 259.8 L193.15 334.15 217.4 334.15 217.4 188.85 M203.0 43.0 L169.6 43.0 151.85 169.45 171.15 169.45 174.35 141.35 192.95 141.35 196.4 169.45 218.6 169.45 203.0 43.0 M183.95 62.55 L184.3 62.55 191.05 122.9 176.7 122.9 183.95 62.55 M285.2 43.0 L266.7 43.0 266.7 109.75 245.25 43.0 222.7 43.0 222.7 169.45 242.2 169.45 242.2 92.9 242.75 92.7 268.0 169.45 285.2 169.45 285.2 43.0 M86.2 275.75 Q85.8 291.2 84.65 297.5 83.55 303.95 81.3 306.85 78.55 310.4 72.9 310.4 67.8 310.4 64.9 307.3 62.65 304.75 61.35 299.7 59.6 292.9 59.05 282.15 58.75 275.75 58.75 262.9 58.75 247.1 59.3 238.1 60.0 226.7 61.8 221.75 65.15 212.5 72.25 212.5 76.6 212.5 79.15 214.6 81.8 216.65 83.55 221.95 86.4 230.65 86.4 260.05 L86.2 275.75 M108.6 208.05 Q97.7 186.6 72.9 186.6 48.4 186.6 37.2 206.55 27.15 224.4 27.15 259.8 27.15 278.8 29.75 292.8 32.75 308.95 39.3 319.75 42.75 325.3 48.0 329.1 57.8 336.3 72.25 336.3 97.6 336.3 108.6 315.45 118.0 297.75 118.0 262.5 118.0 226.4 108.6 208.05 M307.05 226.6 L308.45 216.0 Q308.9 224.95 309.75 230.95 310.3 235.1 311.5 240.45 L319.5 279.25 297.1 279.25 304.95 239.15 307.05 226.6" fill="#1a1212" fill-rule="evenodd" stroke="none"/>
    </g>
    <g id="sprite3" transform="matrix(1.0, 0.0, 0.0, 1.0, 0.0, 0.0)">
      <use height="351.15" transform="matrix(1.0, 0.0, 0.0, 1.0, 0.0, 0.0)" width="554.65" xlink:href="#sprite4"/>
    </g>
    <g id="sprite4" transform="matrix(1.0, 0.0, 0.0, 1.0, 0.0, 0.0)">
      <use height="351.15" transform="matrix(1.0, 0.0, 0.0, 1.0, 0.0, 0.0)" width="554.65" xlink:href="#shape3"/>
    </g>
    <g id="shape3" transform="matrix(1.0, 0.0, 0.0, 1.0, 0.0, 0.0)">
      <path d="M420.4 118.8 Q423.65 122.7 423.65 132.3 423.65 142.85 420.75 146.5 417.55 150.95 407.35 150.95 L407.35 114.4 Q416.75 114.2 420.4 118.8 M352.1 151.5 Q358.15 138.6 358.15 106.2 358.15 73.0 351.4 60.25 342.35 43.0 315.7 43.0 L295.65 43.0 295.65 169.45 319.45 169.45 Q343.75 169.45 352.1 151.5 M399.55 188.85 L369.7 188.85 369.7 334.15 399.55 334.15 399.55 188.85 M334.0 106.05 Q334.0 135.95 331.85 142.25 329.4 149.75 318.55 149.9 L318.55 62.55 Q326.7 62.7 329.5 65.75 334.0 70.7 334.0 106.05 M444.1 74.95 Q444.1 60.45 435.75 51.7 427.45 43.0 412.85 43.0 L384.45 43.0 384.45 169.45 413.9 169.45 Q428.85 169.45 437.85 159.15 446.55 149.35 446.55 134.25 446.55 109.05 423.5 103.55 L423.5 103.2 Q444.1 98.75 444.1 74.95 M419.2 90.6 Q415.75 94.85 407.35 94.85 L407.35 61.45 Q416.8 61.3 419.75 65.0 422.05 68.2 422.05 78.15 422.05 86.85 419.2 90.6 M511.55 43.0 L492.2 43.0 480.5 92.55 480.15 92.55 469.1 43.0 446.2 43.0 467.35 120.6 467.35 169.45 490.25 169.45 490.25 118.45 511.55 43.0 M542.65 0.0 Q547.6 0.0 551.15 3.55 554.65 7.05 554.65 12.0 L554.65 339.15 Q554.65 344.15 551.15 347.65 547.6 351.15 542.65 351.15 L12.0 351.15 Q7.05 351.15 3.55 347.65 0.0 344.15 0.0 339.15 L0.0 12.0 Q0.0 7.05 3.55 3.55 7.05 0.0 12.0 0.0 L542.65 0.0 M457.3 188.85 L419.8 188.85 419.8 334.15 449.0 334.15 449.0 277.05 458.3 277.05 474.7 334.15 506.05 334.15 484.0 271.15 Q492.1 266.25 496.0 260.3 502.95 249.9 502.95 232.0 502.95 209.3 489.5 196.65 484.05 191.8 476.35 190.1 470.15 188.85 457.3 188.85 M468.95 216.1 Q473.35 221.05 473.35 231.75 473.35 242.35 469.65 247.6 465.7 253.1 457.3 253.1 L449.0 253.1 449.0 211.7 457.3 211.7 Q464.9 211.7 468.95 216.1 M358.75 334.15 L325.85 188.85 294.9 188.85 261.6 334.15 288.35 334.15 294.05 302.75 322.8 302.75 328.7 334.15 358.75 334.15 M63.4 60.05 Q72.65 60.05 72.65 79.05 L93.25 79.05 Q92.35 40.5 63.95 40.5 49.55 40.5 41.6 50.8 34.15 60.2 34.15 74.95 34.15 91.15 45.0 103.5 L65.25 121.45 Q76.05 131.05 76.05 140.1 76.05 145.1 73.35 148.75 70.7 152.4 65.75 152.4 55.8 152.4 55.8 132.85 L35.2 132.85 Q35.2 171.9 64.85 171.9 79.75 171.9 88.45 161.8 96.6 152.4 96.6 137.1 96.6 121.3 85.8 108.55 84.3 106.85 65.55 89.9 54.7 80.05 54.7 71.6 54.7 60.05 63.4 60.05 M94.85 62.55 L114.75 62.55 114.75 169.45 137.65 169.45 137.65 62.55 157.5 62.55 157.5 43.0 94.85 43.0 94.85 62.55 M217.4 188.85 L193.15 188.85 193.15 240.05 Q193.15 245.45 193.85 259.25 194.55 273.25 195.35 284.2 L191.8 267.85 Q190.0 259.9 188.4 255.5 L164.85 188.85 135.65 188.85 135.65 334.15 159.85 334.15 159.85 272.9 159.0 254.1 157.5 230.0 Q161.65 248.15 165.9 259.8 L193.15 334.15 217.4 334.15 217.4 188.85 M203.0 43.0 L169.6 43.0 151.85 169.45 171.15 169.45 174.35 141.35 192.95 141.35 196.4 169.45 218.6 169.45 203.0 43.0 M183.95 62.55 L184.3 62.55 191.05 122.9 176.7 122.9 183.95 62.55 M285.2 43.0 L266.7 43.0 266.7 109.75 245.25 43.0 222.7 43.0 222.7 169.45 242.2 169.45 242.2 92.9 242.75 92.7 268.0 169.45 285.2 169.45 285.2 43.0 M86.2 275.75 Q85.8 291.2 84.65 297.5 83.55 303.95 81.3 306.85 78.55 310.4 72.9 310.4 67.8 310.4 64.9 307.3 62.65 304.75 61.35 299.7 59.6 292.9 59.05 282.15 58.75 275.75 58.75 262.9 58.75 247.1 59.3 238.1 60.0 226.7 61.8 221.75 65.15 212.5 72.25 212.5 76.6 212.5 79.15 214.6 81.8 216.65 83.55 221.95 86.4 230.65 86.4 260.05 L86.2 275.75 M108.6 208.05 Q97.7 186.6 72.9 186.6 48.4 186.6 37.2 206.55 27.15 224.4 27.15 259.8 27.15 278.8 29.75 292.8 32.75 308.95 39.3 319.75 42.75 325.3 48.0 329.1 57.8 336.3 72.25 336.3 97.6 336.3 108.6 315.45 118.0 297.75 118.0 262.5 118.0 226.4 108.6 208.05 M308.45 216.0 Q308.9 224.95 309.75 230.95 310.3 235.1 311.5 240.45 L319.5 279.25 297.1 279.25 304.95 239.15 307.05 226.6 308.45 216.0" fill="url(#gradient2)" fill-rule="evenodd" stroke="none"/>
    </g>
    <linearGradient gradientTransform="matrix(0.0, 0.2207, -0.2143, 0.0, 279.25, 160.45)" gradientUnits="userSpaceOnUse" id="gradient2" spreadMethod="pad" x1="-819.2" x2="819.2">
      <stop offset="0.0" stop-color="#000000" stop-opacity="0.0"/>
      <stop offset="1.0" stop-color="#000000" stop-opacity="0.5019608"/>
    </linearGradient>
    <g id="sprite5" transform="matrix(1.0, 0.0, 0.0, 1.0, 0.0, 0.0)">
      <use height="358.15" transform="matrix(1.0, 0.0, 0.0, 1.0, 0.0, 0.0)" width="554.65" xlink:href="#shape4"/>
    </g>
    <g id="shape4" transform="matrix(1.0, 0.0, 0.0, 1.0, 0.0, 0.0)">
      <path d="M420.4 118.8 Q423.65 122.7 423.65 132.3 423.65 142.85 420.75 146.5 417.55 150.95 407.35 150.95 L407.35 114.4 Q416.75 114.2 420.4 118.8 M352.1 151.5 Q358.15 138.6 358.15 106.2 358.15 73.0 351.4 60.25 342.35 43.0 315.7 43.0 L295.65 43.0 295.65 169.45 319.45 169.45 Q343.75 169.45 352.1 151.5 M399.55 188.85 L369.7 188.85 369.7 334.15 399.55 334.15 399.55 188.85 M334.0 106.05 Q334.0 135.95 331.85 142.25 329.4 149.75 318.55 149.9 L318.55 62.55 Q326.7 62.7 329.5 65.75 334.0 70.7 334.0 106.05 M444.1 74.95 Q444.1 60.45 435.75 51.7 427.45 43.0 412.85 43.0 L384.45 43.0 384.45 169.45 413.9 169.45 Q428.85 169.45 437.85 159.15 446.55 149.35 446.55 134.25 446.55 109.05 423.5 103.55 L423.5 103.2 Q444.1 98.75 444.1 74.95 M407.35 61.45 Q416.8 61.3 419.75 65.0 422.05 68.2 422.05 78.15 422.05 86.85 419.2 90.6 415.75 94.85 407.35 94.85 L407.35 61.45 M511.55 43.0 L492.2 43.0 480.5 92.55 480.15 92.55 469.1 43.0 446.2 43.0 467.35 120.6 467.35 169.45 490.25 169.45 490.25 118.45 511.55 43.0 M551.15 3.55 Q554.65 7.05 554.65 12.0 L554.65 346.15 Q554.65 351.15 551.15 354.65 547.6 358.15 542.65 358.15 L12.0 358.15 Q7.05 358.15 3.55 354.65 0.0 351.15 0.0 346.15 L0.0 12.0 Q0.0 7.05 3.55 3.55 5.4 1.7 7.65 0.8 9.65 0.0 12.0 0.0 L542.65 0.0 Q545.0 0.0 547.05 0.8 549.3 1.7 551.15 3.55 M457.3 188.85 L419.8 188.85 419.8 334.15 449.0 334.15 449.0 277.05 458.3 277.05 474.7 334.15 506.05 334.15 484.0 271.15 Q492.1 266.25 496.0 260.3 502.95 249.9 502.95 232.0 502.95 209.3 489.5 196.65 484.05 191.8 476.35 190.1 470.15 188.85 457.3 188.85 M473.35 231.75 Q473.35 242.35 469.65 247.6 465.7 253.1 457.3 253.1 L449.0 253.1 449.0 211.7 457.3 211.7 Q464.9 211.7 468.95 216.1 473.35 221.05 473.35 231.75 M358.75 334.15 L325.85 188.85 294.9 188.85 261.6 334.15 288.35 334.15 294.05 302.75 322.8 302.75 328.7 334.15 358.75 334.15 M63.4 60.05 Q72.65 60.05 72.65 79.05 L93.25 79.05 Q92.35 40.5 63.95 40.5 49.55 40.5 41.6 50.8 34.15 60.2 34.15 74.95 34.15 91.15 45.0 103.5 L65.25 121.45 Q76.05 131.05 76.05 140.1 76.05 145.1 73.35 148.75 70.7 152.4 65.75 152.4 55.8 152.4 55.8 132.85 L35.2 132.85 Q35.2 171.9 64.85 171.9 79.75 171.9 88.45 161.8 96.6 152.4 96.6 137.1 96.6 121.3 85.8 108.55 84.3 106.85 65.55 89.9 54.7 80.05 54.7 71.6 54.7 60.05 63.4 60.05 M94.85 62.55 L114.75 62.55 114.75 169.45 137.65 169.45 137.65 62.55 157.5 62.55 157.5 43.0 94.85 43.0 94.85 62.55 M217.4 188.85 L193.15 188.85 193.15 240.05 Q193.15 245.45 193.85 259.25 194.55 273.25 195.35 284.2 L191.8 267.85 Q190.0 259.9 188.4 255.5 L164.85 188.85 135.65 188.85 135.65 334.15 159.85 334.15 159.85 272.9 159.0 254.1 157.5 230.0 Q161.65 248.15 165.9 259.8 L193.15 334.15 217.4 334.15 217.4 188.85 M203.0 43.0 L169.6 43.0 151.85 169.45 171.15 169.45 174.35 141.35 192.95 141.35 196.4 169.45 218.6 169.45 203.0 43.0 M183.95 62.55 L184.3 62.55 191.05 122.9 176.7 122.9 183.95 62.55 M285.2 43.0 L266.7 43.0 266.7 109.75 245.25 43.0 222.7 43.0 222.7 169.45 242.2 169.45 242.2 92.9 242.75 92.7 268.0 169.45 285.2 169.45 285.2 43.0 M86.2 275.75 Q85.8 291.2 84.65 297.5 83.55 303.95 81.3 306.85 78.55 310.4 72.9 310.4 67.8 310.4 64.9 307.3 62.65 304.75 61.35 299.7 59.6 292.9 59.05 282.15 58.75 275.75 58.75 262.9 58.75 247.1 59.3 238.1 60.0 226.7 61.8 221.75 65.15 212.5 72.25 212.5 76.6 212.5 79.15 214.6 81.8 216.65 83.55 221.95 86.4 230.65 86.4 260.05 L86.2 275.75 M108.6 208.05 Q97.7 186.6 72.9 186.6 48.4 186.6 37.2 206.55 27.15 224.4 27.15 259.8 27.15 278.8 29.75 292.8 32.75 308.95 39.3 319.75 42.75 325.3 48.0 329.1 57.8 336.3 72.25 336.3 97.6 336.3 108.6 315.45 118.0 297.75 118.0 262.5 118.0 226.4 108.6 208.05 M309.75 230.95 Q310.3 235.1 311.5 240.45 L319.5 279.25 297.1 279.25 304.95 239.15 307.05 226.6 308.45 216.0 Q308.9 224.95 309.75 230.95" fill="url(#gradient3)" fill-rule="evenodd" stroke="none"/>
    </g>
    <linearGradient gradientTransform="matrix(0.0, -0.2027, -0.1307, 0.0, 265.6, 203.05)" gradientUnits="userSpaceOnUse" id="gradient3" spreadMethod="pad" x1="-819.2" x2="819.2">
      <stop offset="0.43137254901960786" stop-color="#333333"/>
      <stop offset="0.6313725490196078" stop-color="#5a5e61"/>
    </linearGradient>
    <g id="sprite6" transform="matrix(1.0, 0.0, 0.0, 1.0, 0.0, 0.0)">
      <use height="399.35" transform="matrix(1.0, 0.0, 0.0, 1.0, 0.0, 0.0)" width="592.45" xlink:href="#shape5"/>
    </g>
    <g id="shape5" transform="matrix(1.0, 0.0, 0.0, 1.0, 0.0, 0.0)">
      <path d="M564.5 27.95 Q561.1 24.5 556.2 24.5 L36.25 24.5 Q31.4 24.5 27.95 27.95 24.5 31.4 24.5 36.25 L24.5 363.1 Q24.5 368.0 27.95 371.4 31.4 374.85 36.25 374.85 L556.2 374.85 Q561.1 374.85 564.5 371.4 567.95 368.0 567.95 363.1 L567.95 36.25 Q567.95 31.4 564.5 27.95 M581.85 10.65 Q592.45 21.25 592.45 36.25 L592.45 363.1 Q592.45 378.1 581.85 388.75 571.2 399.35 556.2 399.35 L36.25 399.35 Q21.25 399.35 10.65 388.75 0.0 378.1 0.0 363.1 L0.0 36.25 Q0.0 21.25 10.65 10.65 21.25 0.0 36.25 0.0 L556.2 0.0 Q571.2 0.0 581.85 10.65" fill="#1a1212" fill-rule="evenodd" stroke="none"/>
    </g>
    <g id="sprite7" transform="matrix(1.0, 0.0, 0.0, 1.0, 0.0, 0.0)">
      <use height="405.1" transform="matrix(1.0, 0.0, 0.0, 1.0, 0.0, 0.0)" width="604.95" xlink:href="#shape6"/>
    </g>
    <g id="shape6" transform="matrix(1.0, 0.0, 0.0, 1.0, 0.0, 0.0)">
      <path d="M579.65 37.0 Q579.65 32.0 576.15 28.5 572.6 25.0 567.65 25.0 L37.0 25.0 Q32.05 25.0 28.55 28.5 25.0 32.0 25.0 37.0 L25.3 368.1 Q25.3 373.05 28.85 376.6 32.35 380.1 37.3 380.1 L567.95 380.1 Q572.9 380.1 576.45 376.6 579.95 373.05 579.95 368.1 L579.65 37.0 M567.65 0.0 Q582.95 0.0 593.8 10.85 604.65 21.7 604.65 37.0 L604.95 368.1 Q604.95 383.4 594.1 394.25 583.25 405.1 567.95 405.1 L37.3 405.1 Q22.0 405.1 11.15 394.25 0.3 383.4 0.3 368.1 L0.0 37.0 Q0.0 21.7 10.85 10.85 21.7 0.0 37.0 0.0 L567.65 0.0" fill="url(#gradient4)" fill-rule="evenodd" stroke="none"/>
    </g>
    <linearGradient gradientTransform="matrix(0.0, -0.1612, -0.1612, 0.0, 302.3, 132.1)" gradientUnits="userSpaceOnUse" id="gradient4" spreadMethod="pad" x1="-819.2" x2="819.2">
      <stop offset="0.43529411764705883" stop-color="#4d5551"/>
      <stop offset="0.5803921568627451" stop-color="#8f9a9a"/>
    </linearGradient>
  </defs>
</svg>
