<?xml version="1.0" encoding="UTF-8" standalone="no"?>
<svg
   xmlns:dc="http://purl.org/dc/elements/1.1/"
   xmlns:cc="http://creativecommons.org/ns#"
   xmlns:rdf="http://www.w3.org/1999/02/22-rdf-syntax-ns#"
   xmlns:svg="http://www.w3.org/2000/svg"
   xmlns="http://www.w3.org/2000/svg"
   xmlns:sodipodi="http://sodipodi.sourceforge.net/DTD/sodipodi-0.dtd"
   xmlns:inkscape="http://www.inkscape.org/namespaces/inkscape"
   viewBox="0 0 980.00085 137.53"
   version="1.1"
   id="svg1701"
   sodipodi:docname="anime.svg"
   width="980.00085"
   height="137.53"
   inkscape:version="1.0 (4035a4fb49, 2020-05-01)">
  <metadata
     id="metadata1707">
    <rdf:RDF>
      <cc:Work
         rdf:about="">
        <dc:format>image/svg+xml</dc:format>
        <dc:type
           rdf:resource="http://purl.org/dc/dcmitype/StillImage" />
      </cc:Work>
    </rdf:RDF>
  </metadata>
  <defs
     id="defs1705" />
  <sodipodi:namedview
     inkscape:document-rotation="0"
     pagecolor="#ffffff"
     bordercolor="#666666"
     borderopacity="1"
     objecttolerance="10"
     gridtolerance="10"
     guidetolerance="10"
     inkscape:pageopacity="0"
     inkscape:pageshadow="2"
     inkscape:window-width="1920"
     inkscape:window-height="1017"
     id="namedview1703"
     showgrid="false"
     inkscape:zoom="1.049"
     inkscape:cx="490.0005"
     inkscape:cy="26.069165"
     inkscape:window-x="-8"
     inkscape:window-y="-8"
     inkscape:window-maximized="1"
     inkscape:current-layer="svg1701" />
  <g
     id="anime-mini-logo"
     fill="none"
     fill-rule="evenodd"
     stroke-linecap="square"
     transform="matrix(1,0,0,0.57304166,-9.9995027,0)"
     style="fill:none;stroke:#ffffff">
    <path
       id="Path-18-Copy-66"
       stroke="#f6f4f2"
       stroke-width="40"
       d="m 30,20 h 130 c 9.996,0 10,40 10,60 V 220 H 41 c -11.004,0 -11,-40 -11,-60 0,-20 -0.004,-60 10,-60 h 110"
       style="fill:none;stroke:#ffffff" />
    <path
       id="Path-18-Copy-67"
       stroke="#f6f4f2"
       stroke-width="40"
       d="m 850,140 h 110 c 10,0 10,-40 10,-60 0,-20 0,-60 -10,-60 H 840 c -10,0 -10,40 -10,60 v 80 c 0,20 0,60 10,60 h 130"
       style="fill:none;stroke:#ffffff" />
    <path
       id="Path-18-Copy-68"
       stroke="#f6f4f2"
       stroke-width="40"
       d="M 430,100 V 220"
       style="fill:none;stroke:#ffffff" />
    <path
       id="Path-18-Copy-69"
       stroke="#f6f4f2"
       stroke-width="40"
       d="m 430,20.2 v 0.6"
       style="fill:none;stroke:#ffffff" />
    <path
       id="Path-18-Copy-71"
       stroke="#f6f4f2"
       stroke-width="40"
       d="M 370,220 V 80 c 0,-20 0,-60 -10,-60 H 240 c -10,0 -10,40 -10,60 v 140"
       style="fill:none;stroke:#ffffff" />
    <path
       id="Path-18-Copy-74"
       stroke="#f6f4f2"
       stroke-width="40"
       d="M 770,220 V 80 c 0,-20 0,-60 -10,-60 H 500 c -10,0 -10,40 -10,60 v 140"
       style="fill:none;stroke:#ffffff" />
  </g>
</svg>
