<?xml version="1.0" encoding="UTF-8" standalone="no"?>
<svg
   xmlns:dc="http://purl.org/dc/elements/1.1/"
   xmlns:cc="http://creativecommons.org/ns#"
   xmlns:rdf="http://www.w3.org/1999/02/22-rdf-syntax-ns#"
   xmlns:svg="http://www.w3.org/2000/svg"
   xmlns="http://www.w3.org/2000/svg"
   xmlns:sodipodi="http://sodipodi.sourceforge.net/DTD/sodipodi-0.dtd"
   xmlns:inkscape="http://www.inkscape.org/namespaces/inkscape"
   width="90.114861mm"
   height="22.636812mm"
   viewBox="0 0 90.114861 22.636812"
   version="1.1"
   id="svg8"
   inkscape:version="1.0 (4035a4fb49, 2020-05-01)"
   sodipodi:docname="tap2.svg">
  <defs
     id="defs2" />
  <sodipodi:namedview
     id="base"
     pagecolor="#ffffff"
     bordercolor="#666666"
     borderopacity="1.0"
     inkscape:pageopacity="0.0"
     inkscape:pageshadow="2"
     inkscape:zoom="2.9292062"
     inkscape:cx="176.85275"
     inkscape:cy="56.225211"
     inkscape:document-units="mm"
     inkscape:current-layer="layer1"
     inkscape:document-rotation="0"
     showgrid="false"
     inkscape:pagecheckerboard="true"
     inkscape:window-width="1920"
     inkscape:window-height="1017"
     inkscape:window-x="1912"
     inkscape:window-y="411"
     inkscape:window-maximized="1" />
  <metadata
     id="metadata5">
    <rdf:RDF>
      <cc:Work
         rdf:about="">
        <dc:format>image/svg+xml</dc:format>
        <dc:type
           rdf:resource="http://purl.org/dc/dcmitype/StillImage" />
        <dc:title></dc:title>
      </cc:Work>
    </rdf:RDF>
  </metadata>
  <g
     inkscape:label="Layer 1"
     inkscape:groupmode="layer"
     id="layer1"
     transform="translate(-53.500019,-65.705467)">
    <rect
       style="fill:#00adee;fill-opacity:1;stroke:#ffffff;stroke-width:2;stroke-linecap:square;stroke-miterlimit:4;stroke-dasharray:none"
       id="rect833"
       width="88.114861"
       height="20.636812"
       x="54.500019"
       y="66.705467"
       ry="10.318406" />
    <g
       style="font-size:16.6657px;line-height:1.25;font-family:'Ostrich Sans';-inkscape-font-specification:'Ostrich Sans';fill:#ffffff;stroke-width:0.416642"
       id="text869"
       aria-label="TAP HERE">
      <path
         id="path871"
         style="font-style:normal;font-variant:normal;font-weight:normal;font-stretch:normal;font-family:JackCondensed;-inkscape-font-specification:JackCondensed;fill:#ffffff;stroke-width:0.416642"
         d="m 65.242324,73.402663 h 2.685391 v 9.553483 h 3.010894 v -9.553483 h 2.669116 v -2.311064 h -8.365401 v 2.311064 z" />
      <path
         id="path873"
         style="font-style:normal;font-variant:normal;font-weight:normal;font-stretch:normal;font-family:JackCondensed;-inkscape-font-specification:JackCondensed;fill:#ffffff;stroke-width:0.416642"
         d="m 77.7416,73.630515 h 0.03255 l 0.86258,4.833704 H 76.716269 L 77.7416,73.630515 Z m -4.443102,9.325631 h 2.49009 l 0.520803,-2.392439 h 2.750492 l 0.455703,2.392439 h 3.043443 L 80.020114,71.091599 H 76.08154 l -2.783042,11.864547 z" />
      <path
         id="path875"
         style="font-style:normal;font-variant:normal;font-weight:normal;font-stretch:normal;font-family:JackCondensed;-inkscape-font-specification:JackCondensed;fill:#ffffff;stroke-width:0.416642"
         d="m 83.161208,82.956146 h 3.010893 v -4.817429 q 0.76493,0.0651 1.139257,0.0651 1.985562,0 3.108544,-0.86258 1.236907,-0.960231 1.236907,-2.880692 0,-1.69261 -1.188082,-2.587741 -1.074156,-0.781205 -2.831867,-0.781205 h -4.475652 v 11.864547 z m 3.010893,-9.765059 h 0.520803 q 0.781205,0 1.285733,0.341777 0.585904,0.374327 0.585904,1.122982 0,0.748655 -0.585904,1.139257 -0.504528,0.309227 -1.285733,0.309227 h -0.520803 v -2.913243 z" />
      <path
         id="path877"
         style="font-style:normal;font-variant:normal;font-weight:normal;font-stretch:normal;font-family:JackCondensed;-inkscape-font-specification:JackCondensed;fill:#ffffff;stroke-width:0.416642"
         d="m 96.897391,82.956146 h 3.010893 v -4.866254 h 2.343616 v 4.866254 h 2.99462 V 71.091599 h -2.99462 v 4.605853 h -2.343616 v -4.605853 h -3.010893 v 11.864547 z" />
      <path
         id="path879"
         style="font-style:normal;font-variant:normal;font-weight:normal;font-stretch:normal;font-family:JackCondensed;-inkscape-font-specification:JackCondensed;fill:#ffffff;stroke-width:0.416642"
         d="m 106.79265,82.956146 h 7.47027 v -2.392439 h -4.45938 v -2.473815 h 2.99462 v -2.294789 h -2.99462 v -2.39244 h 4.45938 v -2.311064 h -7.47027 v 11.864547 z" />
      <path
         id="path881"
         style="font-style:normal;font-variant:normal;font-weight:normal;font-stretch:normal;font-family:JackCondensed;-inkscape-font-specification:JackCondensed;fill:#ffffff;stroke-width:0.416642"
         d="m 118.1364,73.288738 h 0.48825 q 0.96023,0 1.36711,0.211576 0.5859,0.292952 0.5859,1.122982 0,1.302008 -1.87164,1.302008 h -0.56962 v -2.636566 z m -3.0109,9.667408 h 3.0109 V 77.82949 h 0.99278 l 1.48103,5.126656 h 2.96207 l -1.96929,-5.761385 q 0.87886,-0.325502 1.43221,-1.074156 0.53708,-0.748655 0.53708,-1.66006 0,-1.69261 -1.17181,-2.587741 -1.05788,-0.781205 -2.79932,-0.781205 h -4.47565 v 11.864547 z" />
      <path
         id="path883"
         style="font-style:normal;font-variant:normal;font-weight:normal;font-stretch:normal;font-family:JackCondensed;-inkscape-font-specification:JackCondensed;fill:#ffffff;stroke-width:0.416642"
         d="m 124.40231,82.956146 h 7.47027 v -2.392439 h -4.45938 v -2.473815 h 2.99462 v -2.294789 h -2.99462 v -2.39244 h 4.45938 v -2.311064 h -7.47027 v 11.864547 z" />
    </g>
  </g>
</svg>
