<?xml version="1.0" encoding="UTF-8" standalone="no"?>
<svg xmlns:xlink="http://www.w3.org/1999/xlink" height="631.25px" width="363.0px" xmlns="http://www.w3.org/2000/svg">
  <g transform="matrix(1.0, 0.0, 0.0, 1.0, 181.5, 315.6)">
    <path d="M49.9 -279.0 Q44.2 -285.45 42.9 -285.1 L42.6 -285.1 Q10.25 -295.8 -14.4 -291.1 L-14.45 -291.1 Q-33.6 -289.3 -72.9 -257.95 L-72.95 -257.95 -84.4 -245.0 -84.3 -244.8 -84.25 -244.55 -84.35 -244.3 -105.55 -217.05 -122.3 -191.3 -122.3 -191.35 -129.55 -178.9 -142.0 -151.2 -145.75 -138.95 -145.75 -138.9 -153.75 -118.0 -160.0 -86.25 -160.0 -86.15 -164.25 -75.45 -165.5 -68.3 -167.0 -50.1 -167.5 -26.1 -165.25 25.9 Q-164.25 42.5 -157.55 54.65 -157.45 54.8 -157.5 55.0 L-158.95 64.35 -148.8 88.15 -148.8 88.2 -142.8 98.4 -142.8 98.45 -141.05 102.2 -141.05 102.15 -125.85 124.8 -119.65 131.55 -112.7 136.0 -97.95 147.5 -85.3 154.95 -73.05 159.7 -73.15 159.7 -62.25 162.15 -33.5 161.4 Q-31.35 160.9 -26.55 165.2 L-20.4 166.15 -12.8 166.65 -7.85 166.15 12.4 161.65 12.45 161.65 30.95 159.15 45.1 154.7 75.85 142.7 76.1 142.65 Q78.45 143.0 90.95 132.3 L91.05 132.2 106.9 125.55 111.05 117.9 Q111.15 117.75 111.35 117.7 119.8 114.8 121.3 110.0 L121.3 109.95 125.3 100.45 125.35 100.4 136.05 81.75 140.3 67.25 140.3 67.2 149.05 48.75 151.0 43.05 153.75 28.05 156.25 7.6 156.25 7.55 161.75 -20.2 161.75 -26.0 160.5 -32.5 160.5 -32.65 162.25 -46.9 162.0 -54.0 158.8 -60.9 158.75 -61.1 158.75 -71.75 151.75 -111.25 151.75 -111.3 149.25 -139.05 148.55 -141.35 143.1 -148.8 143.05 -148.95 139.8 -162.4 117.85 -199.35 117.75 -199.55 Q117.0 -207.6 114.35 -211.3 L104.15 -225.0 104.1 -225.05 92.65 -238.0 92.6 -238.1 87.85 -246.35 87.9 -246.25 84.15 -250.25 84.2 -250.2 72.7 -259.7 72.65 -259.75 61.15 -272.25 61.2 -272.2 57.0 -275.65 50.05 -278.9 49.9 -279.0 M50.45 -288.8 Q73.3 -279.05 111.15 -230.4 L111.2 -230.35 119.45 -217.1 119.45 -217.05 147.2 -164.8 147.25 -164.75 147.5 -164.0 155.45 -146.8 155.5 -146.6 155.5 -146.4 155.7 -145.8 155.95 -145.3 156.0 -145.25 156.2 -144.6 156.35 -144.45 156.5 -144.2 156.75 -143.2 156.75 -143.25 158.2 -139.3 158.45 -138.8 158.5 -138.6 158.5 -138.35 160.25 -131.2 160.25 -131.15 162.25 -116.4 164.25 -91.65 167.0 -81.7 167.0 -81.65 169.5 -57.4 170.25 -27.3 169.0 -13.3 169.0 -13.25 164.75 13.25 159.0 38.75 157.5 50.0 157.45 50.15 152.0 60.8 151.25 69.7 151.25 69.85 148.75 77.1 148.7 77.1 133.45 111.35 133.4 111.5 132.15 113.0 132.0 113.1 128.55 115.05 122.9 120.0 122.85 120.05 117.4 126.25 117.35 126.3 109.85 132.55 109.75 132.6 83.75 145.85 69.0 154.35 68.95 154.35 59.95 158.35 59.9 158.4 28.65 166.9 28.6 166.9 4.85 170.4 -9.65 173.65 -17.4 174.65 -17.5 174.65 -25.5 174.65 -25.6 174.65 -44.85 171.15 -58.25 170.4 -58.3 170.4 -69.55 168.65 -69.65 168.65 -78.9 165.9 -78.95 165.85 -94.2 158.1 Q-128.85 140.3 -150.65 101.9 L-150.7 101.9 -163.2 77.4 -166.65 71.95 -166.75 71.75 -170.25 48.5 -174.2 38.85 -174.25 38.65 -174.25 34.4 -174.25 34.35 -172.25 22.1 -173.75 -3.85 -174.0 -24.1 -173.5 -69.9 -172.5 -77.9 -172.45 -78.05 -169.45 -85.05 -169.5 -84.95 -167.75 -92.65 -164.5 -113.4 Q-164.0 -120.0 -156.7 -129.8 L-146.7 -162.25 -146.7 -162.3 -136.95 -180.55 -136.9 -180.65 -127.95 -192.8 -119.45 -209.3 -119.4 -209.4 -107.9 -223.65 -107.95 -223.55 -102.2 -236.05 -102.15 -236.15 -86.4 -255.65 -86.35 -255.65 -75.6 -267.65 -75.55 -267.75 -65.8 -274.75 -65.75 -274.8 -43.05 -287.25 -36.3 -292.75 -36.1 -292.8 -25.1 -295.3 -25.15 -295.3 -15.65 -298.55 -15.5 -298.6 -6.8 -298.85 Q21.85 -303.15 50.5 -288.8 L50.45 -288.8" fill="#000000" fill-rule="evenodd" stroke="none"/>
    <path d="M12.0 176.4 L12.0 315.65 -5.75 315.65 -5.75 178.45 12.0 176.4" fill="#968048" fill-rule="evenodd" stroke="none"/>
    <path d="M57.25 -276.1 L61.5 -272.6 73.0 -260.1 84.5 -250.6 88.25 -246.6 93.0 -238.35 104.5 -225.35 114.75 -211.6 Q117.5 -207.85 118.25 -199.6 L140.25 -162.6 143.5 -149.1 149.0 -141.6 149.75 -139.1 152.25 -111.35 159.25 -71.85 159.25 -61.1 162.5 -54.1 162.75 -46.85 161.0 -32.6 162.25 -26.1 162.25 -20.1 156.75 7.65 154.25 28.15 151.5 43.15 149.5 48.9 140.75 67.4 136.5 81.9 125.75 100.65 121.75 110.15 Q120.25 115.15 111.5 118.15 L107.25 125.9 91.25 132.65 Q78.5 143.65 76.0 143.15 L45.25 155.15 31.0 159.65 12.5 162.15 -7.75 166.65 -12.75 167.15 -20.5 166.65 -26.75 165.65 Q-31.5 161.4 -33.5 161.9 L-62.25 162.65 -73.25 160.15 -85.5 155.4 -98.25 147.9 -113.0 136.4 -120.0 131.9 -126.25 125.15 -141.5 102.4 -143.25 98.65 -149.25 88.4 -159.5 64.4 -158.0 54.9 Q-164.75 42.65 -165.75 25.9 L-168.0 -26.1 -167.5 -50.1 -166.0 -68.35 -164.75 -75.6 -160.5 -86.35 -154.25 -118.1 -146.25 -139.1 -142.5 -151.35 -130.0 -179.1 -122.75 -191.6 -106.0 -217.35 -84.75 -244.6 -85.0 -245.1 -73.25 -258.35 Q-33.75 -289.85 -14.5 -291.6 10.25 -296.35 42.75 -285.6 44.25 -286.1 50.25 -279.35 L57.25 -276.1" fill="url(#gradient0)" fill-rule="evenodd" stroke="none"/>
    <path d="M19.25 -314.6 L45.5 -304.6 53.0 -299.6 53.25 -299.6 54.25 -298.6 67.0 -290.1 81.75 -276.1 85.25 -272.1 88.5 -266.6 91.25 -263.85 118.25 -224.85 134.0 -194.85 134.0 -194.6 134.25 -194.1 134.75 -193.35 135.0 -193.1 137.75 -188.85 139.0 -185.1 144.5 -174.6 155.0 -146.6 147.0 -163.85 146.75 -164.6 119.0 -216.85 110.75 -230.1 Q73.0 -278.6 50.25 -288.35 21.75 -302.6 -6.75 -298.35 L-15.5 -298.1 -25.0 -294.85 -36.0 -292.35 -42.75 -286.85 -65.5 -274.35 -75.25 -267.35 -86.0 -255.35 -101.75 -235.85 -107.5 -223.35 -119.0 -209.1 -127.5 -192.6 -136.5 -180.35 -146.25 -162.1 -156.25 -129.6 Q-163.5 -119.85 -164.0 -113.35 L-167.25 -92.6 -169.0 -84.85 -172.0 -77.85 -173.0 -69.85 -173.5 -24.1 -173.25 -3.85 -171.75 22.15 -173.75 34.4 -173.75 38.65 -169.75 48.4 -166.25 71.65 -162.75 77.15 -150.25 101.65 Q-128.5 139.9 -94.0 157.65 L-78.75 165.4 -69.5 168.15 -58.25 169.9 -44.75 170.65 -25.5 174.15 -17.5 174.15 -9.75 173.15 4.75 169.9 28.5 166.4 59.75 157.9 68.75 153.9 83.5 145.4 109.5 132.15 117.0 125.9 122.5 119.65 128.25 114.65 131.75 112.65 133.0 111.15 148.25 76.9 150.75 69.65 151.5 60.65 157.0 49.9 158.5 38.65 164.25 13.15 168.5 -13.35 169.75 -27.35 169.0 -57.35 166.5 -81.6 163.75 -91.6 161.75 -116.35 159.75 -131.1 158.0 -138.35 166.0 -116.85 168.25 -106.6 168.5 -106.1 168.5 -105.35 168.75 -104.6 168.75 -104.1 179.5 -54.85 181.5 8.9 168.25 70.4 168.25 70.65 136.0 127.65 105.0 154.65 102.5 155.65 102.0 155.9 101.25 156.15 100.75 156.4 100.0 156.65 97.75 157.65 97.0 157.9 96.5 158.15 95.75 158.4 93.5 159.4 92.75 159.65 92.25 159.9 91.5 160.15 89.25 161.15 88.5 161.4 88.0 161.65 87.25 161.9 86.75 162.15 66.75 170.4 65.0 170.65 64.0 170.9 63.25 170.9 41.75 174.15 40.75 174.4 40.0 174.4 25.5 176.65 25.25 176.65 24.5 176.9 12.0 176.4 -20.5 178.15 -63.25 172.9 -102.5 157.9 -133.75 131.9 -167.75 73.65 -181.5 11.4 -179.5 -55.35 -165.75 -117.6 -144.0 -175.1 -117.5 -225.35 -89.75 -264.85 -84.25 -270.35 -82.0 -273.6 -77.0 -279.1 -63.5 -291.35 -61.0 -293.1 -60.75 -293.1 -60.25 -293.6 -58.75 -294.6 -58.5 -294.6 -55.25 -296.85 -51.0 -300.6 -46.0 -302.85 -42.5 -305.1 -38.5 -306.6 -38.25 -306.6 -32.0 -308.85 -31.75 -308.85 -30.0 -309.6 -29.75 -309.6 -29.25 -309.85 -28.5 -310.1 -27.75 -310.1 -27.5 -310.35 -22.75 -312.1 -22.25 -312.35 -14.0 -315.6 17.0 -314.85 17.75 -314.6 19.25 -314.6" fill="url(#gradient1)" fill-rule="evenodd" stroke="none"/>
  </g>
  <defs>
    <linearGradient gradientTransform="matrix(0.2019, 0.0, 0.0, 0.2809, -2.65, -62.95)" gradientUnits="userSpaceOnUse" id="gradient0" spreadMethod="pad" x1="-819.2" x2="819.2">
      <stop offset="0.0" stop-color="#d0d0d0"/>
      <stop offset="1.0" stop-color="#a2a2a2"/>
    </linearGradient>
    <linearGradient gradientTransform="matrix(0.2216, 0.0, 0.0, 0.3014, 0.0, -68.75)" gradientUnits="userSpaceOnUse" id="gradient1" spreadMethod="pad" x1="-819.2" x2="819.2">
      <stop offset="0.0" stop-color="#d0d0d0"/>
      <stop offset="1.0" stop-color="#a2a2a2"/>
    </linearGradient>
  </defs>
</svg>
