<?xml version="1.0" encoding="UTF-8" standalone="no"?>
<svg xmlns:xlink="http://www.w3.org/1999/xlink" height="300.0px" width="300.0px" xmlns="http://www.w3.org/2000/svg">
  <g transform="matrix(1.0, 0.0, 0.0, 1.0, 0.0, 0.0)">
    <use height="246.65" transform="matrix(1.0, 0.0, 0.0, 1.0, -5.1, -20.15)" width="312.95" xlink:href="#shape0"/>
  </g>
  <defs>
    <g id="shape0" transform="matrix(1.0, 0.0, 0.0, 1.0, 5.1, 20.15)">
      <path d="M193.3 208.05 Q193.3 209.15 192.6 209.75 191.95 210.4 190.5 210.45 L182.95 210.45 182.95 213.25 189.0 213.25 Q190.45 213.25 191.15 213.9 191.8 214.55 191.8 215.6 191.8 216.7 191.15 217.35 190.45 217.95 189.0 218.0 L182.95 218.0 182.95 221.25 190.8 221.25 Q192.25 221.3 192.95 221.9 193.6 222.55 193.6 223.65 193.6 224.7 192.95 225.35 192.25 226.0 190.8 226.0 L180.15 226.0 Q178.3 226.0 177.35 225.1 176.45 224.15 176.45 222.15 L176.45 209.55 Q176.45 207.55 177.35 206.6 178.3 205.7 180.15 205.7 L190.5 205.7 Q191.95 205.7 192.6 206.35 193.3 207.0 193.3 208.05 M214.0 221.45 L217.25 221.45 Q218.45 221.45 219.15 220.95 219.85 220.45 219.85 219.45 219.85 218.45 219.15 218.0 218.45 217.5 217.25 217.5 L214.0 217.5 214.0 221.45 M204.95 218.0 Q204.95 219.25 204.3 219.95 203.65 220.65 202.3 220.65 L197.7 220.65 Q196.3 220.65 195.65 219.95 195.05 219.25 195.05 218.0 195.05 216.8 195.65 216.1 196.3 215.4 197.7 215.35 L202.3 215.35 Q203.65 215.4 204.3 216.1 204.95 216.8 204.95 218.0 M217.2 210.25 L214.0 210.25 214.0 213.95 217.2 213.95 Q218.15 213.95 218.65 213.4 219.15 212.85 219.15 212.1 219.2 211.25 218.7 210.75 218.2 210.3 217.2 210.25 M242.7 212.95 Q242.25 211.7 241.4 211.0 240.5 210.3 239.15 210.3 237.8 210.3 236.9 211.0 236.0 211.7 235.55 212.95 235.1 214.2 235.1 215.85 235.1 217.5 235.55 218.75 236.0 220.0 236.9 220.7 237.8 221.4 239.15 221.4 240.5 221.4 241.4 220.7 242.25 220.0 242.7 218.75 243.15 217.5 243.15 215.85 243.15 214.2 242.7 212.95 M225.2 216.8 Q226.15 218.1 226.15 220.0 226.15 221.7 225.35 223.05 224.55 224.4 222.85 225.2 221.15 226.0 218.55 226.0 L211.35 226.0 Q209.5 226.0 208.6 225.1 207.7 224.15 207.7 222.15 L207.7 209.55 Q207.7 207.55 208.6 206.6 209.5 205.7 211.35 205.7 L218.1 205.7 Q220.85 205.7 222.4 206.4 224.0 207.15 224.65 208.3 225.3 209.45 225.3 210.85 225.35 212.4 224.65 213.5 224.0 214.6 222.4 215.05 L222.4 215.1 Q224.3 215.45 225.2 216.8 M243.05 205.85 Q244.9 206.55 246.4 207.85 247.9 209.2 248.75 211.2 249.6 213.2 249.6 215.85 249.6 218.6 248.75 220.6 247.9 222.65 246.4 223.9 244.95 225.25 243.05 225.85 L239.15 226.5 235.2 225.85 Q233.3 225.25 231.85 223.9 230.35 222.65 229.5 220.6 228.65 218.6 228.65 215.85 228.65 213.2 229.5 211.2 230.4 209.2 231.85 207.85 233.35 206.55 235.2 205.85 237.1 205.2 239.15 205.2 241.15 205.2 243.05 205.85 M267.55 209.1 L267.1 210.05 263.5 215.5 267.45 221.55 268.0 222.5 268.2 223.5 Q268.15 224.55 267.65 225.15 267.15 225.8 266.4 226.1 L265.05 226.35 Q264.2 226.35 263.45 225.9 262.7 225.45 262.2 224.6 L259.75 220.2 257.25 224.6 256.05 225.9 254.4 226.35 253.05 226.1 251.8 225.15 Q251.3 224.55 251.3 223.5 L251.5 222.5 252.05 221.55 256.0 215.5 252.4 210.05 251.9 209.1 251.8 208.3 Q251.8 207.35 252.2 206.7 252.65 206.05 253.3 205.7 254.0 205.3 254.75 205.3 255.55 205.3 256.25 205.65 257.0 206.0 257.4 206.75 L259.75 211.0 262.05 206.75 Q262.5 206.0 263.2 205.65 L264.7 205.3 Q265.5 205.3 266.15 205.7 266.85 206.05 267.25 206.7 267.7 207.35 267.7 208.3 L267.55 209.1 M287.05 206.35 Q287.75 207.0 287.75 208.05 287.75 209.15 287.05 209.75 286.4 210.4 284.95 210.45 L277.4 210.45 277.4 213.25 283.45 213.25 Q284.9 213.25 285.6 213.9 286.25 214.55 286.25 215.6 286.25 216.7 285.6 217.35 284.9 217.95 283.45 218.0 L277.4 218.0 277.4 221.25 285.25 221.25 Q286.7 221.3 287.4 221.9 288.05 222.55 288.05 223.65 288.05 224.7 287.4 225.35 286.7 226.0 285.25 226.0 L274.6 226.0 Q272.75 226.0 271.8 225.1 270.9 224.15 270.9 222.15 L270.9 209.55 Q270.9 207.55 271.8 206.6 272.75 205.7 274.6 205.7 L284.95 205.7 Q286.4 205.7 287.05 206.35 M304.0 206.1 Q305.3 206.55 306.1 207.4 306.9 208.25 306.9 209.5 306.9 210.7 306.1 211.4 305.3 212.1 304.1 212.1 L302.75 211.7 301.75 210.85 300.55 210.0 298.65 209.6 Q297.8 209.6 297.2 209.95 296.6 210.25 296.55 210.95 296.55 211.6 297.15 212.0 297.7 212.35 298.75 212.6 L302.1 213.5 Q303.8 214.0 305.1 214.7 306.4 215.45 307.1 216.65 307.85 217.8 307.85 219.55 307.85 221.35 307.15 222.7 306.4 224.0 305.25 224.85 304.05 225.65 302.55 226.1 L299.4 226.5 295.15 225.95 Q293.45 225.5 292.4 224.75 291.4 223.95 290.95 223.15 290.5 222.3 290.5 221.6 290.55 220.4 291.3 219.7 292.05 218.95 293.25 218.95 294.1 218.95 294.65 219.4 L295.8 220.4 297.1 221.45 299.0 221.9 300.75 221.5 Q301.5 221.15 301.5 220.2 301.5 219.6 301.1 219.3 300.65 218.95 299.75 218.7 L295.45 217.5 Q293.0 216.75 291.7 215.35 290.45 213.9 290.4 211.8 290.4 210.05 291.2 208.55 292.0 207.1 293.75 206.15 295.5 205.25 298.3 205.2 L301.25 205.4 304.0 206.1 M4.75 206.25 Q5.6 205.35 7.15 205.3 8.65 205.35 9.5 206.25 10.35 207.2 10.4 208.8 L10.4 219.85 Q10.35 221.55 9.7 222.85 9.0 224.1 7.9 224.9 6.75 225.7 5.35 226.1 L2.5 226.5 Q0.2 226.45 -1.5 225.7 -3.2 224.9 -4.15 223.6 -5.05 222.25 -5.1 220.55 -5.1 218.95 -4.35 218.05 -3.6 217.15 -2.0 217.1 L-0.65 217.4 Q-0.05 217.7 0.35 218.25 L0.75 219.7 Q0.75 220.75 1.2 221.15 1.6 221.6 2.3 221.6 3.05 221.6 3.45 220.95 3.9 220.3 3.9 218.55 L3.9 208.8 Q3.9 207.2 4.75 206.25 M24.2 219.2 L22.0 211.8 21.95 211.8 19.75 219.2 24.2 219.2 M24.95 206.0 Q25.65 206.65 26.1 207.95 L30.4 219.95 31.1 222.0 31.45 223.75 31.0 225.1 29.9 226.05 28.45 226.35 27.4 226.2 26.45 225.7 25.85 224.75 25.4 223.25 18.55 223.25 18.1 224.75 17.55 225.7 Q17.1 226.05 16.55 226.2 L15.5 226.35 14.1 226.05 Q13.4 225.7 13.0 225.1 12.55 224.5 12.55 223.75 12.55 223.05 12.85 222.0 L13.55 219.95 17.85 207.95 Q18.35 206.65 19.05 206.0 19.75 205.3 20.95 205.3 L23.0 205.3 Q24.2 205.3 24.95 206.0 M43.4 205.2 Q45.8 205.25 47.7 206.05 49.6 206.85 50.65 208.15 51.75 209.45 51.8 210.95 51.75 212.15 50.95 212.95 50.1 213.7 48.7 213.75 L47.7 213.6 47.0 213.1 46.25 212.05 Q45.6 211.0 44.85 210.65 44.1 210.25 43.05 210.3 42.0 210.3 41.2 210.95 40.35 211.55 39.85 212.8 39.4 214.05 39.35 215.85 39.35 217.5 39.8 218.75 40.25 220.0 41.15 220.7 42.05 221.4 43.4 221.4 L44.4 221.25 45.35 220.6 46.45 219.25 Q46.9 218.6 47.5 218.25 48.1 217.9 48.8 217.9 50.1 217.9 50.95 218.7 51.8 219.45 51.85 220.75 51.8 222.1 51.0 223.15 L48.95 224.95 Q47.7 225.7 46.2 226.1 L43.4 226.5 Q41.3 226.5 39.45 225.85 37.55 225.25 36.1 223.9 34.6 222.65 33.75 220.6 32.9 218.6 32.9 215.85 32.9 213.2 33.75 211.2 34.65 209.2 36.1 207.85 37.6 206.55 39.45 205.85 41.35 205.2 43.4 205.2 M70.95 205.75 L71.95 206.8 Q72.3 207.4 72.3 208.05 L72.0 209.25 71.05 210.4 68.0 213.75 72.95 221.45 73.4 222.4 73.6 223.4 Q73.6 224.25 73.1 224.9 L71.9 225.95 Q71.15 226.35 70.3 226.35 L68.85 226.1 Q68.15 225.8 67.6 224.95 L63.2 218.05 61.35 220.1 61.35 222.85 Q61.35 224.5 60.5 225.45 59.65 226.35 58.1 226.35 56.6 226.35 55.75 225.45 54.9 224.5 54.85 222.85 L54.85 208.8 Q54.9 207.2 55.75 206.25 56.6 205.35 58.1 205.3 59.65 205.35 60.5 206.25 61.35 207.2 61.35 208.8 L61.35 212.8 66.45 207.25 68.0 205.75 Q68.65 205.3 69.4 205.3 70.3 205.35 70.95 205.75 M83.75 219.95 Q83.1 220.65 81.75 220.65 L77.15 220.65 Q75.75 220.65 75.1 219.95 74.5 219.25 74.5 218.0 74.5 216.8 75.1 216.1 75.75 215.4 77.15 215.35 L81.75 215.35 Q83.1 215.4 83.75 216.1 84.4 216.8 84.4 218.0 84.4 219.25 83.75 219.95 M92.75 206.25 Q93.6 207.2 93.6 208.8 L93.6 222.85 Q93.6 224.5 92.75 225.45 91.9 226.35 90.4 226.35 88.85 226.35 88.0 225.45 87.15 224.5 87.15 222.85 L87.15 208.8 Q87.15 207.2 88.0 206.25 88.85 205.35 90.4 205.3 91.9 205.35 92.75 206.25 M111.8 206.1 Q112.6 205.25 114.1 205.2 115.6 205.25 116.4 206.1 117.25 207.0 117.25 208.45 L117.25 223.4 Q117.25 224.5 116.75 225.15 116.3 225.85 115.45 226.15 L113.6 226.5 112.1 226.3 110.9 225.5 109.7 223.95 104.3 215.1 104.25 215.1 104.25 223.1 Q104.25 224.75 103.4 225.6 102.6 226.45 101.1 226.5 99.55 226.45 98.75 225.6 97.95 224.75 97.95 223.1 L97.95 208.7 Q97.95 207.0 98.85 206.1 99.8 205.2 101.65 205.2 102.8 205.2 103.7 205.7 104.55 206.15 105.2 207.2 L110.9 216.95 110.95 216.95 110.95 208.45 Q110.95 207.0 111.8 206.1 M122.55 215.35 L127.15 215.35 Q128.5 215.4 129.15 216.1 129.8 216.8 129.8 218.0 129.8 219.25 129.15 219.95 128.5 220.65 127.15 220.65 L122.55 220.65 Q121.15 220.65 120.5 219.95 119.9 219.25 119.9 218.0 119.9 216.8 120.5 216.1 121.15 215.4 122.55 215.35 M149.65 206.4 Q150.3 207.15 150.3 208.3 150.3 209.5 149.65 210.2 149.0 210.9 147.65 210.95 L143.75 210.95 143.75 222.85 Q143.7 224.5 142.85 225.45 142.0 226.35 140.5 226.35 138.95 226.35 138.1 225.45 137.25 224.5 137.25 222.85 L137.25 210.95 133.3 210.95 Q131.95 210.9 131.3 210.2 130.65 209.5 130.65 208.3 130.65 207.15 131.35 206.4 132.0 205.7 133.55 205.7 L147.4 205.7 Q148.95 205.7 149.65 206.4 M158.35 206.25 Q159.2 207.2 159.25 208.8 L159.25 212.65 165.55 212.65 165.55 208.8 Q165.6 207.2 166.45 206.25 167.3 205.35 168.8 205.3 170.35 205.35 171.2 206.25 172.05 207.2 172.05 208.8 L172.05 222.85 Q172.05 224.5 171.2 225.45 170.35 226.35 168.8 226.35 167.3 226.35 166.45 225.45 165.6 224.5 165.55 222.85 L165.55 218.1 159.25 218.1 159.25 222.85 Q159.2 224.5 158.35 225.45 157.5 226.35 156.0 226.35 154.45 226.35 153.6 225.45 152.75 224.5 152.75 222.85 L152.75 208.8 Q152.75 207.2 153.6 206.25 154.45 205.35 156.0 205.3 157.5 205.35 158.35 206.25" fill="#00a4ff" fill-rule="evenodd" stroke="none"/>
      <path d="M229.45 57.75 Q236.4 74.2 236.4 92.2 236.4 110.2 229.45 126.65 222.7 142.5 210.45 154.75 198.2 167.0 182.35 173.75 165.9 180.7 147.9 180.7 129.9 180.7 113.45 173.75 97.55 167.0 85.3 154.75 73.05 142.5 66.35 126.65 59.4 110.2 59.4 92.2 59.4 74.2 66.35 57.75 73.05 41.85 85.3 29.6 97.55 17.35 113.45 10.65 129.9 3.7 147.9 3.7 165.9 3.7 182.35 10.65 198.2 17.35 210.45 29.6 222.7 41.85 229.45 57.75" fill="#00a4ff" fill-rule="evenodd" stroke="none"/>
      <path d="M173.75 162.25 Q184.9 158.75 194.6 152.15 L84.2 41.75 Q77.6 51.45 74.1 62.6 70.5 74.15 70.5 86.35 70.5 102.5 76.75 117.3 82.8 131.55 93.8 142.55 104.8 153.55 119.05 159.6 133.85 165.85 150.0 165.85 162.2 165.85 173.75 162.25 M191.45 -11.8 Q210.6 -3.7 225.3 11.05 240.05 25.75 248.15 44.9 256.5 64.65 256.5 86.35 256.5 108.0 248.15 127.8 240.05 146.9 225.3 161.65 210.6 176.35 191.45 184.45 171.7 192.8 150.0 192.8 128.35 192.8 108.55 184.45 89.45 176.35 74.7 161.65 59.95 146.9 51.85 127.8 43.5 108.0 43.5 86.35 43.5 64.65 51.85 44.9 59.95 25.75 74.7 11.05 89.45 -3.7 108.55 -11.8 128.35 -20.15 150.0 -20.15 171.7 -20.15 191.45 -11.8 M223.25 55.4 Q217.2 41.15 206.2 30.15 195.2 19.15 180.95 13.1 166.15 6.85 150.0 6.85 137.85 6.85 126.3 10.45 115.15 13.95 105.4 20.5 L215.85 130.95 Q222.4 121.2 225.9 110.05 229.5 98.5 229.5 86.35 229.5 70.2 223.25 55.4" fill="#ff005b" fill-rule="evenodd" stroke="none"/>
      <path d="M104.9 123.05 Q104.95 121.05 106.0 120.1 107.1 119.15 108.85 119.15 110.6 119.15 111.65 120.1 112.7 121.05 112.75 123.05 L112.75 136.3 Q112.75 138.15 111.85 139.1 110.9 140.05 109.0 140.05 107.3 140.05 106.5 139.1 105.65 138.15 105.5 136.35 L105.4 136.35 Q104.45 138.15 102.8 139.1 101.2 140.05 98.95 140.05 96.2 140.05 94.55 139.05 92.85 138.0 92.05 136.3 91.3 134.55 91.3 132.35 L91.3 123.05 Q91.3 121.05 92.4 120.1 93.45 119.15 95.2 119.15 96.95 119.15 98.05 120.1 99.1 121.05 99.1 123.05 L99.1 130.55 Q99.1 132.15 99.85 133.05 100.55 133.9 102.0 133.9 103.45 133.85 104.2 132.8 104.9 131.8 104.9 130.0 L104.9 123.05 M148.7 127.25 Q148.4 126.25 147.65 125.55 146.9 124.85 145.6 124.85 143.9 124.9 143.15 126.15 142.4 127.45 142.45 129.55 142.45 131.65 143.3 132.75 144.15 133.9 145.45 133.9 146.8 133.85 147.55 133.25 148.35 132.6 148.65 131.6 L149.0 129.4 148.7 127.25 M131.75 121.05 L132.05 122.75 Q132.05 124.2 131.5 125.1 130.9 126.0 129.9 126.25 L127.8 126.8 Q126.75 127.05 126.0 127.45 125.25 127.9 124.85 128.7 124.45 129.45 124.45 130.7 L124.45 136.15 Q124.45 138.15 123.4 139.1 122.3 140.05 120.55 140.05 118.8 140.05 117.75 139.1 116.65 138.15 116.65 136.15 L116.65 123.05 Q116.65 121.05 117.7 120.1 118.7 119.15 120.2 119.15 121.65 119.15 122.65 120.05 123.65 121.0 123.65 123.2 L123.65 124.7 123.75 124.7 Q124.75 122.0 125.95 120.6 127.2 119.15 128.85 119.15 130.05 119.15 130.75 119.7 131.45 120.25 131.75 121.05 M141.85 122.75 L141.95 122.75 Q142.3 121.45 143.25 120.7 144.25 119.9 145.5 119.5 L147.9 119.15 Q150.65 119.15 152.65 120.45 154.65 121.75 155.7 124.05 156.8 126.45 156.8 129.65 156.8 131.15 156.4 132.9 155.95 134.65 154.95 136.3 153.95 137.9 152.25 138.95 150.6 140.0 148.15 140.05 146.2 140.05 144.85 139.2 143.5 138.4 142.6 137.0 L142.55 137.0 142.55 143.5 Q142.55 145.55 141.55 146.5 140.6 147.45 138.75 147.45 136.9 147.45 135.9 146.5 134.95 145.55 134.95 143.5 L134.95 122.95 Q134.95 121.05 135.8 120.1 136.65 119.15 138.45 119.15 140.1 119.2 141.0 120.2 141.85 121.2 141.85 122.75 M68.8 122.6 Q69.7 121.1 71.9 120.15 74.1 119.2 78.0 119.15 L82.5 119.6 Q84.65 120.05 86.05 121.0 87.4 121.95 87.45 123.5 87.45 124.55 86.75 125.2 86.05 125.9 84.9 125.9 83.65 125.9 82.7 125.3 L80.7 124.1 Q79.6 123.5 77.75 123.5 76.7 123.5 76.15 123.85 75.55 124.2 75.55 124.9 75.5 125.45 76.0 125.8 76.45 126.15 78.0 126.5 L81.3 127.2 Q84.55 127.9 86.4 129.35 88.2 130.8 88.25 133.15 88.3 134.9 87.25 136.5 86.25 138.05 83.9 139.05 81.55 140.0 77.45 140.05 L72.75 139.55 Q70.55 139.0 69.25 137.95 67.95 136.85 67.9 135.2 67.95 134.2 68.7 133.55 69.5 132.85 70.7 132.8 71.5 132.85 72.15 133.25 L73.6 134.25 Q74.35 134.85 75.35 135.3 L77.7 135.7 Q78.95 135.7 79.6 135.2 80.2 134.75 80.2 134.15 80.25 133.65 79.75 133.15 79.25 132.7 77.65 132.3 L75.35 131.85 Q72.5 131.25 70.85 130.35 69.25 129.45 68.6 128.25 67.9 127.1 67.95 125.6 67.9 124.05 68.8 122.6 M163.85 119.15 Q165.3 119.15 166.3 120.05 167.3 121.0 167.3 123.2 L167.3 124.7 167.4 124.7 Q168.4 122.0 169.6 120.6 170.85 119.15 172.5 119.15 173.7 119.15 174.4 119.7 175.1 120.25 175.4 121.05 L175.7 122.75 Q175.7 124.2 175.15 125.1 174.55 126.0 173.55 126.25 L171.45 126.8 Q170.4 127.05 169.65 127.45 168.9 127.9 168.5 128.7 168.1 129.45 168.1 130.7 L168.1 136.15 Q168.1 138.15 167.05 139.1 165.95 140.05 164.2 140.05 162.45 140.05 161.4 139.1 160.3 138.15 160.3 136.15 L160.3 123.05 Q160.3 121.05 161.35 120.1 162.35 119.15 163.85 119.15 M185.25 116.6 Q184.2 117.65 182.65 117.7 181.05 117.65 180.0 116.6 178.95 115.6 178.95 114.0 178.95 112.45 180.0 111.4 181.05 110.35 182.65 110.35 184.2 110.35 185.25 111.4 186.25 112.45 186.3 114.0 186.25 115.6 185.25 116.6 M182.65 119.15 Q184.4 119.15 185.45 120.1 186.5 121.05 186.55 123.05 L186.55 136.15 Q186.5 138.15 185.45 139.1 184.4 140.05 182.65 140.05 180.9 140.05 179.8 139.1 178.75 138.15 178.7 136.15 L178.7 123.05 Q178.75 121.05 179.8 120.1 180.9 119.15 182.65 119.15 M221.15 125.25 Q220.6 126.1 220.5 127.45 L227.85 127.45 Q227.8 125.4 226.75 124.55 225.7 123.7 224.2 123.7 L222.5 124.05 Q221.7 124.45 221.15 125.25 M207.85 121.0 Q209.2 121.95 209.25 123.5 209.25 124.55 208.55 125.2 207.85 125.9 206.7 125.9 205.45 125.9 204.5 125.3 L202.5 124.1 Q201.4 123.5 199.55 123.5 198.5 123.5 197.95 123.85 197.35 124.2 197.35 124.9 197.3 125.45 197.8 125.8 198.25 126.15 199.8 126.5 L203.1 127.2 Q206.35 127.9 208.2 129.35 210.0 130.8 210.05 133.15 210.1 134.9 209.05 136.5 208.05 138.05 205.7 139.05 203.35 140.0 199.25 140.05 L194.55 139.55 Q192.35 139.0 191.05 137.95 189.75 136.85 189.7 135.2 189.75 134.2 190.5 133.55 191.3 132.85 192.5 132.8 193.3 132.85 193.95 133.25 L195.4 134.25 Q196.15 134.85 197.15 135.3 L199.5 135.7 Q200.75 135.7 201.4 135.2 202.0 134.75 202.0 134.15 202.05 133.65 201.55 133.15 201.05 132.7 199.45 132.3 L197.15 131.85 Q194.3 131.25 192.65 130.35 191.05 129.45 190.4 128.25 189.7 127.1 189.75 125.6 189.7 124.05 190.6 122.6 191.5 121.1 193.7 120.15 195.9 119.2 199.8 119.15 L204.3 119.6 Q206.45 120.05 207.85 121.0 M223.8 119.15 Q227.1 119.2 229.3 120.15 231.5 121.1 232.8 122.55 234.1 124.0 234.65 125.5 235.25 127.0 235.25 128.15 235.25 129.9 234.35 130.65 233.5 131.35 231.6 131.35 L220.5 131.35 Q220.65 133.25 221.7 134.35 222.8 135.45 224.7 135.5 226.1 135.45 227.2 134.85 L229.4 133.7 Q230.45 133.1 231.6 133.05 232.65 133.1 233.35 133.85 234.0 134.65 234.05 135.65 234.1 136.75 233.05 137.75 232.1 138.75 229.85 139.4 L223.8 140.05 Q220.65 140.05 218.15 138.95 215.65 137.8 214.2 135.5 212.7 133.2 212.65 129.6 212.7 126.0 214.2 123.7 215.65 121.35 218.15 120.25 220.65 119.15 223.8 119.15" fill="#ffff00" fill-rule="evenodd" stroke="none"/>
      <path d="M119.3 62.45 Q115.75 62.5 114.0 65.05 112.2 67.55 112.2 71.9 L112.2 88.9 Q112.15 93.75 109.55 96.05 106.9 98.35 102.65 98.35 98.4 98.35 95.8 96.05 93.2 93.75 93.1 88.9 L93.1 56.55 Q93.1 52.05 95.35 49.75 97.6 47.4 102.3 47.4 106.45 47.45 108.4 49.8 110.4 52.1 110.8 56.45 L111.0 56.45 Q113.4 52.1 117.35 49.8 121.3 47.45 126.8 47.4 133.4 47.45 137.55 49.9 141.65 52.4 143.55 56.6 145.45 60.85 145.45 66.15 L145.45 88.9 Q145.35 93.75 142.8 96.05 140.15 98.35 135.9 98.35 131.65 98.35 129.0 96.05 126.45 93.75 126.35 88.9 L126.35 70.6 Q126.35 66.65 124.6 64.55 122.8 62.45 119.3 62.45 M181.05 98.35 Q173.35 98.35 167.2 95.65 161.1 92.95 157.55 87.3 153.95 81.65 153.85 72.85 153.95 64.1 157.55 58.45 161.1 52.8 167.2 50.15 173.35 47.4 181.05 47.4 188.75 47.4 194.85 50.15 200.95 52.8 204.55 58.45 208.1 64.1 208.2 72.85 208.1 81.65 204.55 87.3 200.95 92.95 194.85 95.65 188.75 98.35 181.05 98.35 M189.1 73.4 Q189.05 66.65 186.95 63.4 184.9 60.2 181.05 60.25 177.2 60.2 175.1 63.4 173.0 66.65 173.0 73.4 173.0 79.5 175.1 82.5 177.2 85.55 181.05 85.55 184.9 85.55 186.95 82.5 189.05 79.5 189.1 73.4" fill="#ffffff" fill-rule="evenodd" stroke="none"/>
    </g>
  </defs>
</svg>
