<?xml version="1.0" encoding="UTF-8" standalone="no"?>
<svg xmlns:xlink="http://www.w3.org/1999/xlink" height="300.0px" width="300.0px" xmlns="http://www.w3.org/2000/svg">
  <g transform="matrix(1.0, 0.0, 0.0, 1.0, 0.0, 0.0)">
    <use height="293.0" transform="matrix(1.0, 0.0, 0.0, 1.0, 51.9, -4.75)" width="227.95" xlink:href="#sprite0"/>
  </g>
  <defs>
    <g id="sprite0" transform="matrix(1.0, 0.0, 0.0, 1.0, 113.15, 152.65)">
      <use height="19.2" transform="matrix(1.0, 0.0, 0.0, 1.0, -112.6, 93.2)" width="191.75" xlink:href="#shape0"/>
      <use height="24.3" transform="matrix(1.0869, 0.0, 0.0, 1.0869, -113.1609, 113.9149)" width="185.5" xlink:href="#text0"/>
      <use height="261.75" transform="matrix(1.0, 0.0, 0.0, 1.0, -77.2, -152.65)" width="192.0" xlink:href="#shape1"/>
    </g>
    <g id="shape0" transform="matrix(1.0, 0.0, 0.0, 1.0, 112.6, -93.2)">
      <path d="M-16.75 93.2 Q11.3 93.2 36.6 98.35 61.05 103.4 79.15 112.4 L-112.6 112.4 Q-94.5 103.4 -70.05 98.35 -44.8 93.2 -16.75 93.2" fill="#000000" fill-rule="evenodd" stroke="none"/>
    </g>
    <g id="text0" transform="matrix(1.0, 0.0, 0.0, 1.0, -0.45, -3.05)">
      <g transform="matrix(1.0, 0.0, 0.0, 1.0, 0.0, 0.0)">
        <use fill="#734493" height="24.3" transform="matrix(0.0218, 0.0, 0.0, 0.0218, 0.0, 22.0)" width="185.5" xlink:href="#font_Helvetica_A0"/>
        <use fill="#734493" height="24.3" transform="matrix(0.0218, 0.0, 0.0, 0.0218, 15.95, 22.0)" width="185.5" xlink:href="#font_Helvetica_d0"/>
        <use fill="#734493" height="24.3" transform="matrix(0.0218, 0.0, 0.0, 0.0218, 29.4, 22.0)" width="185.5" xlink:href="#font_Helvetica_u0"/>
        <use fill="#734493" height="24.3" transform="matrix(0.0218, 0.0, 0.0, 0.0218, 42.85, 22.0)" width="185.5" xlink:href="#font_Helvetica_l0"/>
        <use fill="#734493" height="24.3" transform="matrix(0.0218, 0.0, 0.0, 0.0218, 48.85, 22.0)" width="185.5" xlink:href="#font_Helvetica_t0"/>
        <use fill="#734493" height="24.3" transform="matrix(0.0218, 0.0, 0.0, 0.0218, 62.1, 22.0)" width="185.5" xlink:href="#font_Helvetica_O0"/>
        <use fill="#734493" height="24.3" transform="matrix(0.0218, 0.0, 0.0, 0.0218, 79.3, 22.0)" width="185.5" xlink:href="#font_Helvetica_r0"/>
        <use fill="#734493" height="24.3" transform="matrix(0.0218, 0.0, 0.0, 0.0218, 87.8, 22.0)" width="185.5" xlink:href="#font_Helvetica_p0"/>
        <use fill="#734493" height="24.3" transform="matrix(0.0218, 0.0, 0.0, 0.0218, 101.25, 22.0)" width="185.5" xlink:href="#font_Helvetica_h0"/>
        <use fill="#734493" height="24.3" transform="matrix(0.0218, 0.0, 0.0, 0.0218, 114.7, 22.0)" width="185.5" xlink:href="#font_Helvetica_a0"/>
        <use fill="#734493" height="24.3" transform="matrix(0.0218, 0.0, 0.0, 0.0218, 126.95, 22.0)" width="185.5" xlink:href="#font_Helvetica_n0"/>
        <use fill="#734493" height="24.3" transform="matrix(0.0218, 0.0, 0.0, 0.0218, 140.4, 22.0)" width="185.5" xlink:href="#font_Helvetica_a0"/>
        <use fill="#734493" height="24.3" transform="matrix(0.0218, 0.0, 0.0, 0.0218, 152.45, 22.0)" width="185.5" xlink:href="#font_Helvetica_g0"/>
        <use fill="#734493" height="24.3" transform="matrix(0.0218, 0.0, 0.0, 0.0218, 166.1, 22.0)" width="185.5" xlink:href="#font_Helvetica_e0"/>
      </g>
    </g>
    <g id="font_Helvetica_A0">
      <path d="M368.5 -569.0 L274.5 -278.5 462.0 -278.5 371.0 -569.0 368.5 -569.0 M233.5 -151.5 L182.5 0.0 20.5 0.0 282.5 -735.0 460.0 -735.0 719.0 0.0 552.0 0.0 505.0 -151.5 233.5 -151.5" fill-rule="evenodd" stroke="none"/>
    </g>
    <g id="font_Helvetica_d0">
      <path d="M182.5 -268.5 L182.5 -268.5 Q182.5 -243.5 188.0 -215.5 193.5 -187.0 207.0 -161.5 220.0 -136.5 243.0 -120.0 266.0 -104.0 300.0 -103.5 345.5 -104.0 373.5 -126.0 401.5 -148.0 414.5 -183.5 427.5 -219.0 427.0 -260.5 427.5 -304.5 417.0 -344.5 406.5 -384.0 380.0 -409.5 353.0 -434.5 304.5 -435.5 259.0 -435.0 232.0 -411.5 205.5 -388.0 194.0 -350.0 182.0 -312.0 182.5 -268.5 M564.5 -735.0 L564.5 0.0 424.0 0.0 424.0 -68.5 422.0 -68.5 Q395.0 -23.0 352.5 -4.0 310.0 15.0 264.5 14.5 204.0 14.0 160.5 -10.5 117.0 -34.5 89.0 -76.0 61.5 -117.5 48.0 -170.0 35.0 -222.0 35.0 -278.5 36.0 -373.0 67.0 -435.5 98.5 -497.5 149.5 -528.5 200.5 -559.5 261.5 -559.5 307.0 -559.0 338.0 -545.0 369.0 -531.5 388.5 -512.0 408.0 -492.5 419.0 -474.5 L421.0 -474.5 421.0 -735.0 564.5 -735.0" fill-rule="evenodd" stroke="none"/>
    </g>
    <g id="font_Helvetica_u0">
      <path d="M558.0 -545.0 L558.0 0.0 420.5 0.0 420.5 -76.5 418.5 -76.5 Q394.0 -32.5 352.0 -9.5 310.0 14.0 253.0 14.5 198.5 14.5 157.0 -6.5 115.5 -28.0 91.5 -72.5 68.0 -117.0 67.5 -186.5 L67.5 -545.0 211.0 -545.0 211.0 -207.0 Q211.5 -165.5 225.5 -143.5 239.0 -121.5 260.5 -114.0 281.5 -106.0 304.0 -106.5 328.5 -106.0 353.5 -117.0 379.0 -128.0 396.5 -155.0 414.0 -182.0 414.5 -230.5 L414.5 -545.0 558.0 -545.0" fill-rule="evenodd" stroke="none"/>
    </g>
    <g id="font_Helvetica_l0">
      <path d="M214.0 -735.0 L214.0 0.0 70.5 0.0 70.5 -735.0 214.0 -735.0" fill-rule="evenodd" stroke="none"/>
    </g>
    <g id="font_Helvetica_t0">
      <path d="M227.5 -692.5 L227.5 -545.0 316.5 -545.0 316.5 -442.5 227.5 -442.5 227.5 -146.5 Q227.0 -130.5 230.0 -121.0 233.0 -111.5 245.5 -107.0 258.0 -102.5 287.0 -102.5 294.0 -102.5 301.5 -103.0 309.0 -103.5 316.5 -104.5 L316.5 4.0 Q299.5 4.5 282.5 5.5 266.0 6.0 249.0 6.0 L230.5 6.0 Q169.5 6.0 137.5 -9.0 105.5 -23.5 94.5 -50.0 83.5 -76.0 84.0 -111.5 L84.0 -442.5 10.5 -442.5 10.5 -545.0 84.0 -545.0 84.0 -692.5 227.5 -692.5" fill-rule="evenodd" stroke="none"/>
    </g>
    <g id="font_Helvetica_O0">
      <path d="M198.5 -367.5 L198.5 -367.5 Q199.0 -290.5 218.0 -240.5 237.0 -190.5 267.0 -162.0 297.5 -133.5 332.0 -121.5 366.5 -110.0 398.5 -110.5 430.0 -110.0 464.5 -121.5 499.0 -133.5 529.5 -162.0 559.5 -190.5 578.5 -240.5 597.5 -290.5 598.0 -367.5 597.5 -444.5 578.5 -494.5 559.5 -544.5 529.5 -573.0 499.0 -601.5 464.5 -613.5 430.0 -625.0 398.5 -624.5 366.5 -625.0 332.0 -613.5 297.5 -601.5 267.0 -573.0 237.0 -544.5 218.0 -494.5 199.0 -444.5 198.5 -367.5 M45.0 -367.5 L45.0 -367.5 Q46.0 -470.5 72.5 -540.0 99.0 -610.0 141.5 -653.0 183.5 -695.5 232.0 -717.5 280.0 -739.5 324.0 -747.5 368.0 -755.0 398.5 -754.5 428.5 -755.0 472.5 -747.5 516.5 -739.5 564.5 -717.5 613.0 -695.5 655.0 -653.0 697.5 -610.0 724.0 -540.0 750.5 -470.5 751.5 -367.5 750.5 -264.5 724.0 -195.0 697.5 -125.0 655.0 -82.0 613.0 -39.5 564.5 -17.5 516.5 4.5 472.5 12.5 428.5 20.0 398.5 19.5 368.0 20.0 324.0 12.5 280.0 4.5 232.0 -17.5 183.5 -39.5 141.5 -82.0 99.0 -125.0 72.5 -195.0 46.0 -264.5 45.0 -367.5" fill-rule="evenodd" stroke="none"/>
    </g>
    <g id="font_Helvetica_r0">
      <path d="M65.5 0.0 L65.5 -545.0 203.0 -545.0 203.0 -451.0 205.0 -451.0 Q219.0 -479.0 237.5 -503.5 255.5 -528.0 283.5 -543.5 311.5 -559.0 354.5 -559.5 361.5 -559.5 368.0 -559.0 375.0 -558.0 382.0 -557.5 L382.0 -412.0 Q372.5 -413.5 362.0 -414.0 351.0 -414.0 341.0 -414.0 286.0 -413.5 257.0 -393.5 228.5 -374.0 218.5 -344.5 208.5 -315.0 209.0 -284.0 L209.0 0.0 65.5 0.0" fill-rule="evenodd" stroke="none"/>
    </g>
    <g id="font_Helvetica_p0">
      <path d="M201.0 -545.0 L201.0 -466.5 203.0 -466.5 Q215.5 -488.5 235.5 -509.5 255.0 -531.0 286.5 -545.0 318.0 -559.0 365.5 -559.5 426.5 -559.5 477.5 -528.5 528.5 -497.5 560.0 -435.5 591.0 -373.0 592.0 -278.5 592.0 -222.0 579.0 -170.0 565.5 -117.5 538.0 -76.0 510.0 -34.5 466.5 -10.5 423.0 14.0 362.5 14.5 313.0 13.5 282.0 -1.0 251.0 -15.0 234.0 -34.5 217.5 -54.0 209.0 -69.5 L207.0 -69.5 207.0 213.0 63.5 213.0 63.5 -545.0 201.0 -545.0 M201.0 -260.5 L201.0 -260.5 Q200.5 -219.0 213.0 -183.5 226.0 -148.0 253.5 -126.0 281.5 -104.0 327.0 -103.5 361.0 -104.0 384.0 -120.0 407.0 -136.5 420.0 -161.5 433.5 -187.0 439.0 -215.5 444.5 -243.5 444.5 -268.5 445.0 -312.0 433.0 -350.0 421.5 -388.0 395.0 -411.5 368.0 -435.0 322.5 -435.5 274.0 -434.5 247.5 -409.5 221.0 -384.0 210.5 -344.5 200.5 -304.5 201.0 -260.5" fill-rule="evenodd" stroke="none"/>
    </g>
    <g id="font_Helvetica_h0">
      <path d="M559.0 -377.0 L559.0 0.0 415.5 0.0 415.5 -331.0 Q416.5 -352.0 411.5 -376.5 407.0 -401.5 387.0 -419.5 367.0 -437.5 322.5 -438.5 274.0 -438.5 242.5 -406.5 211.0 -375.0 210.0 -312.5 L210.0 0.0 66.5 0.0 66.5 -735.0 210.0 -735.0 210.0 -474.5 212.0 -474.5 Q226.5 -509.5 268.5 -534.0 310.5 -558.5 369.5 -559.5 423.5 -559.5 466.0 -539.0 508.5 -518.0 533.5 -477.5 558.5 -437.0 559.0 -377.0" fill-rule="evenodd" stroke="none"/>
    </g>
    <g id="font_Helvetica_a0">
      <path d="M367.5 -196.0 L367.5 -265.5 Q357.5 -257.0 336.0 -250.0 314.0 -242.5 270.5 -235.5 243.5 -231.5 221.5 -223.5 199.5 -215.5 186.5 -199.5 173.5 -183.0 173.0 -153.5 173.5 -128.5 184.0 -114.0 194.5 -100.0 210.0 -94.0 225.0 -88.0 239.5 -88.0 272.0 -88.0 301.0 -101.0 330.0 -114.0 348.5 -138.0 367.0 -162.5 367.5 -196.0 M508.0 -402.0 L508.0 -106.5 Q508.0 -74.5 512.5 -57.0 516.5 -39.5 523.5 -32.0 531.0 -24.0 539.5 -21.5 L539.5 0.0 385.0 0.0 Q379.0 -18.0 376.5 -30.5 374.0 -42.5 371.5 -64.5 355.5 -47.0 333.0 -29.0 310.5 -11.0 277.0 1.5 244.0 14.0 195.5 14.5 153.5 14.5 116.0 -1.5 78.5 -18.0 54.5 -53.0 30.5 -88.5 29.5 -144.5 30.0 -198.0 50.5 -234.0 71.0 -270.5 106.5 -291.5 142.5 -312.5 188.5 -319.0 L317.5 -338.5 Q335.5 -340.0 351.0 -349.5 366.5 -359.0 367.5 -381.5 367.0 -411.0 351.5 -425.0 336.0 -438.5 314.0 -442.0 292.5 -445.5 273.5 -445.0 238.0 -444.5 219.5 -432.5 201.0 -420.5 194.0 -403.0 187.0 -385.5 185.0 -369.0 L47.0 -369.0 Q56.0 -451.5 92.5 -492.5 129.0 -534.0 181.5 -547.0 234.0 -560.5 290.5 -559.5 320.5 -560.0 357.0 -553.5 394.0 -547.5 428.0 -531.0 462.5 -514.5 485.0 -483.0 507.0 -452.0 508.0 -402.0" fill-rule="evenodd" stroke="none"/>
    </g>
    <g id="font_Helvetica_n0">
      <path d="M559.0 -377.0 L559.0 0.0 415.5 0.0 415.5 -331.0 Q416.5 -352.0 411.5 -376.5 407.0 -401.5 387.0 -419.5 367.0 -437.5 322.5 -438.5 274.0 -438.5 242.5 -406.5 211.0 -375.0 210.0 -312.5 L210.0 0.0 66.5 0.0 66.5 -545.0 204.0 -545.0 204.0 -465.0 206.0 -465.0 Q215.0 -482.5 234.0 -504.0 252.5 -526.0 285.5 -542.5 318.0 -558.5 369.5 -559.5 423.5 -559.5 466.0 -539.0 508.5 -518.0 533.5 -477.5 558.5 -437.0 559.0 -377.0" fill-rule="evenodd" stroke="none"/>
    </g>
    <g id="font_Helvetica_g0">
      <path d="M188.5 -269.5 L188.5 -269.5 Q188.0 -234.0 199.0 -199.5 210.0 -164.5 235.0 -142.0 260.0 -119.0 302.0 -118.0 350.5 -119.0 377.0 -142.0 403.5 -165.5 414.0 -201.5 424.5 -237.5 424.0 -275.5 424.0 -320.5 410.0 -356.5 396.0 -392.5 368.5 -413.5 341.0 -435.0 301.0 -435.5 274.0 -436.0 248.5 -420.5 222.5 -405.5 206.0 -369.0 189.0 -332.5 188.5 -269.5 M429.0 -545.0 L566.5 -545.0 566.5 -29.0 Q567.5 7.5 561.0 50.5 555.0 93.0 529.5 132.5 504.0 171.5 447.0 196.5 390.5 221.5 291.0 222.5 233.5 222.5 180.5 205.5 127.5 189.0 92.5 152.5 57.5 116.0 53.5 58.5 L209.0 58.5 Q211.5 72.5 219.5 85.0 227.0 98.0 248.0 106.0 268.5 114.0 309.5 114.0 367.0 114.5 395.0 84.5 423.0 54.5 423.0 -11.5 L423.0 -77.0 421.0 -79.0 Q404.5 -46.5 371.5 -22.5 339.0 1.5 275.5 3.0 209.5 3.0 156.5 -28.0 103.5 -58.5 72.5 -121.0 41.5 -183.5 41.0 -279.0 42.0 -373.0 73.0 -435.5 104.5 -497.5 155.5 -528.5 206.5 -559.5 267.5 -559.5 317.5 -558.5 350.0 -542.5 382.5 -527.0 400.5 -505.0 419.0 -483.0 427.0 -464.0 L429.0 -464.0 429.0 -545.0" fill-rule="evenodd" stroke="none"/>
    </g>
    <g id="font_Helvetica_e0">
      <path d="M171.0 -326.5 L393.0 -326.5 Q388.5 -370.5 371.0 -395.5 353.5 -421.0 330.0 -431.5 306.0 -442.0 282.5 -441.5 232.0 -441.0 204.5 -411.0 177.0 -381.0 171.0 -326.5 M387.0 -159.5 L534.5 -159.5 Q514.5 -94.5 476.0 -56.0 437.5 -18.0 390.0 -1.5 342.0 15.0 295.0 14.5 217.5 15.0 156.0 -13.0 95.0 -41.0 59.5 -106.5 24.5 -172.0 23.5 -283.5 23.0 -304.0 28.0 -337.5 32.5 -371.0 46.5 -409.0 61.0 -447.0 89.5 -481.0 118.5 -515.5 166.0 -537.0 213.5 -558.5 284.5 -559.5 325.5 -560.0 370.0 -547.5 414.0 -535.0 453.0 -502.5 491.5 -470.5 515.5 -411.0 539.5 -352.0 540.5 -259.0 L540.5 -233.5 167.0 -233.5 Q168.0 -217.5 172.5 -195.5 176.5 -173.0 189.0 -151.5 201.5 -129.5 226.5 -115.0 252.0 -100.5 295.0 -100.0 325.5 -100.0 351.5 -115.0 377.5 -130.0 387.0 -159.5" fill-rule="evenodd" stroke="none"/>
    </g>
    <g id="shape1" transform="matrix(1.0, 0.0, 0.0, 1.0, 77.2, 152.65)">
      <path d="M56.2 -52.75 L56.2 -49.45 Q56.2 -44.75 51.7 -43.85 L51.7 -45.55 Q53.15 -45.95 53.7 -46.85 54.1 -47.5 54.15 -48.65 L51.65 -48.65 51.65 -52.75 56.2 -52.75 M46.1 -51.4 L46.1 -46.7 48.9 -46.7 48.9 -43.4 46.1 -43.4 46.1 -34.0 Q46.1 -33.15 46.3 -32.95 46.65 -32.6 47.95 -32.6 L48.9 -32.65 48.9 -29.25 46.15 -29.1 Q43.4 -29.1 42.4 -30.15 41.5 -30.95 41.5 -32.85 L41.5 -43.4 39.15 -43.4 39.15 -46.7 41.5 -46.7 41.5 -51.4 46.1 -51.4 M36.9 -53.0 L36.9 -48.75 32.35 -48.75 32.35 -53.0 36.9 -53.0 M36.9 -29.35 L32.35 -29.35 32.35 -46.7 36.9 -46.7 36.9 -29.35 M-59.7 21.3 L-58.7 20.4 Q-55.5 17.5 -55.5 15.45 L-55.0 7.05 Q-54.45 1.0 -53.8 -1.5 -53.2 -3.8 -51.8 -6.2 L-50.5 -8.15 -52.15 -9.45 Q-49.6 -25.0 -47.6 -28.65 -45.6 -32.2 -44.4 -33.35 -41.9 -35.75 -34.9 -39.0 -31.55 -40.55 -30.1 -41.75 L-29.25 -42.65 Q-30.9 -48.3 -30.9 -50.0 L-31.25 -55.3 Q-32.55 -56.95 -32.2 -58.95 -32.1 -59.55 -32.7 -62.65 -33.2 -65.05 -32.2 -65.6 -31.5 -66.0 -29.35 -67.75 L-26.25 -69.95 -22.95 -71.4 Q-20.85 -71.95 -19.6 -70.9 -18.9 -70.3 -15.9 -68.6 -13.55 -67.2 -13.0 -66.25 -12.15 -65.0 -11.4 -62.75 -10.65 -60.55 -10.65 -59.3 -10.65 -57.6 -12.3 -53.95 L-12.3 -50.0 -10.0 -49.35 -9.15 -44.95 -6.3 -44.75 1.55 -43.7 Q9.5 -42.05 14.85 -30.7 17.2 -25.75 20.25 -13.45 L17.95 -12.1 18.55 -10.0 19.55 -4.2 Q20.05 -0.75 18.5 5.15 17.05 10.45 15.6 12.8 13.9 15.45 13.25 20.45 L9.95 24.9 10.25 26.85 10.6 29.55 9.95 40.15 Q9.95 42.2 11.3 53.8 L5.35 57.1 -0.3 58.4 0.7 62.0 Q1.75 66.15 1.95 69.1 2.2 71.7 0.55 79.25 L-1.7 90.65 Q-2.1 94.9 0.0 97.75 1.3 99.5 5.65 102.6 8.85 104.95 7.8 106.65 6.85 108.1 3.0 108.9 0.0 109.55 -1.65 107.8 L-4.0 104.25 -7.5 100.75 Q-9.55 98.75 -8.95 97.95 -7.6 96.1 -8.65 89.65 -9.25 86.05 -10.3 82.1 -11.75 77.35 -13.3 74.4 -14.7 71.7 -14.0 64.6 L-13.0 58.1 -15.6 58.1 -18.25 43.8 -21.25 57.1 -25.6 57.1 -24.7 62.45 Q-23.9 68.05 -23.9 69.75 -23.9 71.4 -26.5 79.55 L-29.9 89.65 Q-30.5 91.45 -29.8 94.6 L-28.9 98.3 Q-28.9 99.45 -29.7 100.4 -30.7 101.5 -32.55 101.95 -33.15 102.1 -35.05 104.85 -36.75 107.2 -40.85 107.2 -45.2 107.2 -46.3 104.8 L-46.5 102.3 Q-44.2 101.2 -41.85 99.4 -37.2 95.8 -37.2 92.35 -37.2 88.85 -38.3 83.05 L-40.2 73.7 Q-40.8 70.15 -39.9 65.1 L-38.85 60.75 -38.55 56.8 Q-40.8 56.4 -45.2 54.1 L-49.2 51.8 -47.15 46.45 -47.5 24.9 -47.15 23.75 -47.8 18.45 -45.8 11.8 -46.85 9.45 -51.8 21.1 -51.8 23.15 Q-51.8 24.95 -52.8 26.75 -54.45 29.75 -57.1 31.05 L-59.4 31.4 -59.1 27.05 Q-59.5 24.65 -59.7 21.3 -59.5 24.65 -59.1 27.05 L-59.4 31.4 -60.35 31.5 Q-63.7 31.9 -64.1 31.05 -64.65 29.9 -64.5 27.65 -64.25 25.2 -63.1 24.1 L-59.7 21.3 M36.6 -20.6 L36.6 -18.05 36.65 -18.05 Q38.5 -21.1 41.85 -21.1 44.5 -21.1 46.15 -19.6 47.9 -18.05 47.9 -15.25 L47.9 -3.25 43.3 -3.25 43.3 -13.8 Q43.3 -15.25 42.95 -15.95 42.3 -17.2 40.4 -17.2 38.75 -17.2 37.85 -16.2 36.8 -15.15 36.8 -13.2 L36.8 -3.25 32.25 -3.25 32.25 -20.6 36.6 -20.6 M67.4 -42.95 Q66.7 -43.7 65.0 -43.7 62.25 -43.7 62.25 -42.0 62.25 -41.15 63.9 -40.6 L67.65 -39.75 Q73.05 -38.45 73.05 -34.85 73.05 -31.5 70.25 -30.0 68.3 -28.9 65.5 -28.9 62.0 -28.9 59.85 -30.15 57.15 -31.7 57.1 -34.9 L61.8 -34.9 Q61.8 -32.35 65.6 -32.35 67.15 -32.35 67.95 -33.0 68.5 -33.45 68.5 -34.1 68.5 -35.05 66.8 -35.6 L63.1 -36.4 Q57.7 -37.65 57.7 -41.35 57.7 -43.65 59.2 -45.2 61.1 -47.15 64.75 -47.15 72.1 -47.15 72.55 -41.4 L68.1 -41.4 Q67.9 -42.5 67.4 -42.95 M55.1 -13.65 L62.25 -13.65 Q62.05 -15.6 60.9 -16.5 60.0 -17.35 58.7 -17.35 55.55 -17.35 55.1 -13.65 M58.75 -21.1 Q62.0 -21.1 64.15 -19.3 66.9 -16.85 66.9 -11.5 L66.9 -10.7 55.0 -10.7 Q55.4 -6.45 59.1 -6.45 60.05 -6.45 60.85 -6.95 61.75 -7.45 62.0 -8.35 L66.7 -8.35 Q65.85 -5.5 63.55 -4.0 61.65 -2.8 59.1 -2.8 50.45 -2.8 50.45 -12.3 50.45 -15.2 51.75 -17.5 53.85 -21.1 58.75 -21.1 M73.65 -3.25 L67.45 -20.6 72.5 -20.6 76.1 -7.8 76.15 -7.8 79.85 -20.6 84.75 -20.6 78.4 -3.25 73.65 -3.25 M99.25 -19.3 Q102.0 -16.85 102.0 -11.5 L102.0 -10.7 90.1 -10.7 Q90.3 -8.9 90.8 -8.1 91.8 -6.45 94.2 -6.45 95.2 -6.45 96.05 -6.95 96.9 -7.45 97.1 -8.35 L101.85 -8.35 Q100.95 -5.5 98.7 -4.0 96.75 -2.8 94.2 -2.8 85.55 -2.8 85.55 -12.3 85.55 -15.2 86.85 -17.5 88.95 -21.1 93.85 -21.1 97.1 -21.1 99.25 -19.3 M93.8 -17.35 Q90.65 -17.35 90.25 -13.65 L97.35 -13.65 Q97.15 -15.6 96.05 -16.5 95.1 -17.35 93.8 -17.35 M114.8 -20.95 L114.8 -16.35 113.45 -16.4 Q109.25 -16.4 109.25 -12.3 L109.25 -3.25 104.65 -3.25 104.65 -20.6 109.05 -20.6 109.05 -17.6 109.15 -17.6 Q110.0 -19.3 110.8 -20.0 112.05 -21.1 113.9 -21.1 L114.8 -20.95 M84.4 45.8 L72.5 45.8 Q72.9 50.05 76.55 50.05 77.55 50.05 78.35 49.55 79.25 49.1 79.5 48.15 L84.2 48.15 Q83.35 51.05 81.05 52.5 79.05 53.7 76.55 53.7 67.95 53.7 67.95 44.25 67.95 41.3 69.25 39.0 71.35 35.45 76.25 35.45 79.5 35.45 81.65 37.25 84.4 39.7 84.4 45.0 L84.4 45.8 M70.2 7.2 Q73.95 7.2 76.35 9.4 79.05 11.85 79.05 16.3 79.05 20.75 76.35 23.25 73.95 25.45 70.2 25.45 66.4 25.45 64.0 23.25 61.3 20.75 61.3 16.3 61.3 11.85 64.0 9.4 66.45 7.2 70.2 7.2 M70.2 21.65 Q74.35 21.65 74.35 16.3 74.35 11.05 70.2 11.05 66.05 11.05 66.05 16.3 66.05 21.65 70.2 21.65 M50.6 7.2 Q54.35 7.2 56.8 9.4 59.45 11.85 59.45 16.3 59.45 20.75 56.8 23.25 54.4 25.45 50.6 25.45 46.8 25.45 44.4 23.25 41.75 20.75 41.75 16.3 41.75 11.85 44.4 9.4 46.85 7.2 50.6 7.2 M50.6 21.65 Q54.8 21.65 54.8 16.3 54.8 11.05 50.6 11.05 46.4 11.05 46.4 16.3 46.4 21.65 50.6 21.65 M59.3 31.2 L63.85 31.2 63.85 35.95 66.7 35.95 66.7 39.2 63.85 39.2 63.85 48.6 Q63.85 49.45 64.15 49.65 64.45 50.0 65.75 50.0 L66.7 49.95 66.7 53.35 64.55 53.5 63.95 53.5 Q61.2 53.5 60.15 52.45 59.3 51.65 59.3 49.75 L59.3 39.2 56.95 39.2 56.95 35.95 59.3 35.95 59.3 31.2 M48.1 35.45 Q50.65 35.45 52.45 36.35 55.0 37.65 55.0 40.5 L55.0 49.9 Q55.0 52.3 56.05 52.55 L56.05 53.25 51.1 53.25 Q50.75 52.35 50.65 51.2 L48.65 52.9 Q47.1 53.7 45.05 53.7 42.9 53.7 41.45 52.5 39.8 51.15 39.8 48.65 39.8 46.2 41.2 44.8 42.5 43.45 44.85 43.1 L48.9 42.5 Q50.55 42.3 50.55 41.15 50.55 39.15 47.55 39.15 45.0 39.15 44.75 41.5 L40.35 41.5 Q40.7 37.95 43.1 36.45 44.85 35.45 48.1 35.45 M44.35 48.35 Q44.35 49.45 45.1 50.0 45.65 50.45 46.45 50.45 48.05 50.45 49.25 49.5 50.55 48.55 50.55 47.0 L50.55 44.85 Q49.6 45.45 47.45 45.75 45.9 46.05 45.25 46.45 44.35 47.05 44.35 48.35 M72.6 42.9 L79.65 42.9 Q79.5 40.95 78.35 40.0 77.45 39.2 76.15 39.2 73.05 39.2 72.6 42.9 M30.45 7.65 L32.75 7.65 32.75 2.95 37.35 2.95 37.35 7.65 40.15 7.65 40.15 10.95 37.35 10.95 37.35 20.35 37.55 21.4 Q37.95 21.75 39.25 21.75 L40.15 21.7 40.15 25.1 38.0 25.2 37.45 25.2 Q34.65 25.2 33.65 24.2 32.75 23.35 32.75 21.45 L32.75 10.95 30.45 10.95 30.45 7.65 M36.9 29.85 L36.9 53.25 32.35 53.25 32.35 29.85 36.9 29.85" fill="#000000" fill-rule="evenodd" stroke="none"/>
      <path d="M-60.1 -103.1 L-61.55 -102.75 -60.85 -105.3 -61.15 -105.6 Q-61.5 -106.05 -61.5 -106.8 L-61.35 -107.55 Q-66.0 -111.75 -70.95 -119.45 -79.5 -132.6 -76.35 -141.6 -74.55 -146.8 -69.95 -149.75 -65.65 -152.55 -60.25 -152.65 -54.95 -152.8 -50.7 -150.2 -46.15 -147.45 -44.45 -142.3 -41.55 -133.4 -50.7 -119.15 -54.8 -112.8 -59.4 -107.9 -59.0 -107.5 -59.0 -106.8 -59.0 -106.05 -59.4 -105.6 L-59.45 -105.5 -58.1 -103.65 -60.1 -103.1" fill="#734493" fill-rule="evenodd" stroke="none"/>
      <path d="M-59.4 31.4 L-60.75 51.95 M-60.1 -103.1 L-60.6 -91.8 Q-60.65 -76.25 -58.35 -64.0 -56.15 -52.15 -57.85 -25.3 L-60.1 8.1 Q-60.1 15.9 -59.7 21.3 -59.5 24.65 -59.1 27.05 L-59.4 31.4 Z" fill="none" stroke="#000000" stroke-linecap="butt" stroke-linejoin="miter-clip" stroke-miterlimit="4.0" stroke-width="0.9"/>
    </g>
  </defs>
</svg>
