<?xml version="1.0" encoding="UTF-8" standalone="no"?>
<svg xmlns:xlink="http://www.w3.org/1999/xlink" height="300.0px" width="300.0px" xmlns="http://www.w3.org/2000/svg">
  <g transform="matrix(1.0, 0.0, 0.0, 1.0, 0.0, 0.0)">
    <use height="248.1" transform="matrix(0.65, 0.0, 0.0, 0.65, -4.4185, 74.8183)" width="477.6" xlink:href="#sprite0"/>
  </g>
  <defs>
    <g id="sprite0" transform="matrix(1.0, 0.0, 0.0, 1.0, 238.8, 124.05)">
      <use height="248.1" transform="matrix(1.0, 0.0, 0.0, 1.0, -238.8, -124.05)" width="477.6" xlink:href="#shape0"/>
    </g>
    <g id="shape0" transform="matrix(1.0, 0.0, 0.0, 1.0, 238.8, 124.05)">
      <path d="M-129.75 -107.6 Q-134.5 -97.95 -138.2 -83.05 -142.3 -67.15 -142.3 -56.75 -142.3 -32.05 -123.45 -32.05 -109.75 -32.05 -102.8 -37.2 -97.75 -41.05 -97.75 -45.7 -97.75 -48.15 -98.95 -48.15 L-99.5 -47.9 Q-107.8 -42.15 -116.6 -42.15 -124.65 -42.15 -129.45 -47.6 -131.55 -50.0 -131.55 -52.7 -131.55 -57.2 -126.4 -61.45 -121.5 -65.55 -113.25 -68.15 -106.9 -70.15 -102.65 -70.15 -90.85 -70.15 -90.85 -53.05 -90.85 -44.65 -93.35 -36.95 -95.15 -31.3 -98.3 -25.95 L-101.75 -20.45 Q-102.2 -19.7 -103.2 -19.9 -123.65 -22.95 -141.5 -22.95 -165.45 -22.95 -170.35 -16.35 L-172.8 -30.1 Q-169.85 -32.05 -165.2 -32.05 L-159.8 -31.4 Q-167.35 -50.15 -167.35 -83.2 L-167.05 -98.4 Q-167.05 -103.0 -172.05 -104.0 L-177.6 -104.9 Q-179.05 -105.25 -179.05 -110.15 L-178.85 -112.5 -129.75 -107.6" fill="#007a5e" fill-rule="evenodd" stroke="none"/>
      <path d="M-44.0 -63.45 Q-54.9 -63.45 -65.2 -57.45 -74.9 -51.85 -74.9 -46.75 -74.9 -43.2 -68.7 -40.9 -64.35 -39.3 -58.55 -38.75 L-59.0 -39.7 Q-60.25 -44.2 -56.35 -48.65 -52.45 -53.15 -45.95 -55.05 -40.0 -56.75 -35.9 -56.15 -31.1 -55.45 -30.05 -52.0 -28.85 -47.65 -31.1 -44.05 -20.75 -49.2 -20.75 -54.75 -20.75 -58.95 -27.75 -61.35 -34.05 -63.45 -44.0 -63.45 M-49.75 -84.15 L-37.3 -84.8 Q-23.15 -84.8 -16.95 -79.0 -11.4 -73.75 -11.4 -62.65 -11.4 -57.4 -12.65 -50.25 -14.8 -37.4 -22.25 -28.8 -31.85 -17.65 -47.8 -17.65 -62.25 -17.65 -74.05 -26.95 -86.4 -36.7 -86.4 -50.5 -86.4 -61.3 -77.15 -71.0 -66.7 -81.95 -49.75 -84.15" fill="#007a5e" fill-rule="evenodd" stroke="none"/>
      <path d="M54.3 -75.95 Q54.85 -75.95 54.85 -76.2 54.85 -77.0 50.8 -78.3 46.1 -79.9 41.15 -79.9 19.1 -79.9 19.1 -60.1 19.1 -58.45 19.45 -55.05 21.1 -41.25 25.35 -36.1 28.5 -32.25 34.45 -32.25 43.6 -32.25 51.75 -35.95 58.75 -39.0 63.25 -44.2 63.5 -44.25 63.7 -43.9 58.6 -22.4 38.45 -19.8 L28.05 -19.15 Q-7.35 -19.15 -7.35 -52.05 -7.35 -68.05 1.4 -75.8 9.6 -83.0 28.05 -84.9 L36.8 -85.35 Q52.1 -85.35 62.3 -79.9 71.3 -75.0 72.3 -68.4 L72.6 -63.45 Q72.6 -50.95 53.65 -50.95 44.15 -50.95 37.95 -54.3 32.1 -57.45 32.1 -61.8 32.1 -68.6 39.25 -72.5 45.55 -75.95 54.3 -75.95" fill="#007a5e" fill-rule="evenodd" stroke="none"/>
      <path d="M94.55 -51.1 Q98.35 -53.25 104.2 -53.85 110.95 -54.6 116.3 -51.95 121.55 -49.3 122.1 -44.65 122.4 -42.25 120.3 -40.4 124.75 -41.65 129.2 -43.85 140.0 -49.1 140.0 -54.75 140.0 -58.95 133.0 -61.35 126.7 -63.45 116.75 -63.45 105.85 -63.45 95.55 -57.45 85.85 -51.85 85.85 -46.75 85.85 -43.2 92.0 -40.9 90.9 -42.75 90.7 -45.0 90.35 -48.65 94.55 -51.1 M111.0 -84.15 L123.45 -84.8 Q137.6 -84.8 143.8 -79.0 149.35 -73.75 149.35 -62.65 149.35 -57.4 148.1 -50.25 145.95 -37.4 138.5 -28.8 128.9 -17.65 112.95 -17.65 98.4 -17.65 86.7 -26.95 74.35 -36.7 74.35 -50.5 74.35 -61.3 83.6 -71.0 94.05 -81.95 111.0 -84.15" fill="#007a5e" fill-rule="evenodd" stroke="none"/>
      <path d="M-231.75 -26.35 L-237.3 -27.3 Q-238.8 -27.65 -238.8 -32.5 L-238.6 -34.85 -189.5 -29.95 Q-194.1 -20.55 -197.95 -5.4 -202.05 10.75 -202.05 20.9 -202.05 45.6 -183.15 45.6 -169.5 45.6 -162.55 40.4 -157.5 36.7 -157.5 31.95 -157.5 29.5 -158.7 29.5 L-159.2 29.7 Q-167.65 35.5 -176.35 35.5 -184.35 35.5 -189.15 30.05 -191.3 27.7 -191.3 24.9 -191.3 20.5 -186.1 16.2 -181.0 11.95 -172.95 9.5 -166.5 7.45 -162.4 7.45 -150.55 7.45 -150.55 24.6 -150.55 32.75 -153.05 40.7 -154.9 46.45 -158.0 51.7 L-161.45 57.2 Q-161.9 57.9 -162.95 57.75 -182.9 54.7 -201.2 54.7 -225.25 54.7 -230.05 61.3 L-232.5 47.55 Q-229.55 45.6 -224.95 45.6 L-219.55 46.25 Q-227.05 27.4 -227.05 -5.55 L-226.8 -20.8 Q-226.8 -25.45 -231.75 -26.35" fill="#007a5e" fill-rule="evenodd" stroke="none"/>
      <path d="M-81.05 23.45 Q-81.05 19.25 -88.0 16.85 -94.55 14.7 -104.25 14.7 -115.15 14.7 -125.5 20.7 -135.2 26.4 -135.2 31.45 -135.2 35.0 -129.0 37.3 -122.7 39.65 -113.85 39.65 -102.6 39.65 -91.85 34.35 -81.05 29.05 -81.05 23.45 M-71.65 15.55 Q-71.65 20.4 -72.9 27.9 -75.05 40.75 -82.5 49.4 -92.15 60.55 -108.1 60.55 -122.6 60.55 -134.3 51.25 -146.7 41.45 -146.7 27.7 -146.7 16.9 -137.45 7.2 -126.85 -3.85 -110.05 -5.95 L-97.55 -6.6 Q-83.4 -6.6 -77.2 -0.85 -71.65 4.4 -71.65 15.55" fill="#007a5e" fill-rule="evenodd" stroke="none"/>
      <path d="M-22.3 -3.7 Q-29.2 4.85 -34.2 15.65 -39.35 26.9 -39.35 34.5 -39.35 38.9 -37.35 41.55 -35.5 44.0 -32.75 44.0 -27.6 44.0 -21.4 29.1 -14.85 13.3 -13.35 -5.85 -12.95 -10.55 -12.9 -12.9 L18.2 -6.15 Q18.2 -1.15 17.35 -0.55 L9.55 -1.5 Q5.15 -1.5 4.75 0.55 3.6 6.2 2.55 16.8 1.25 28.9 1.25 36.2 L1.25 38.55 Q4.2 37.1 8.1 37.1 11.45 37.1 14.25 38.05 L15.0 47.0 13.8 47.0 Q6.9 47.0 -4.65 51.85 -13.55 55.55 -21.65 60.3 -22.8 61.0 -22.95 60.95 -23.25 60.9 -22.85 59.05 -20.7 50.6 -19.95 42.1 -27.5 50.9 -36.6 55.15 -43.65 58.4 -50.0 58.4 -57.8 58.4 -62.85 54.7 -68.45 50.55 -68.45 43.1 -68.45 31.1 -60.15 18.9 -54.35 10.5 -46.05 3.9 L-50.85 3.8 -70.45 4.55 -66.1 -4.25 -42.4 -3.25 -22.3 -3.7" fill="#007a5e" fill-rule="evenodd" stroke="none"/>
      <path d="M62.2 -6.3 L62.4 -5.35 61.85 -1.0 Q58.35 18.2 58.35 31.15 58.35 40.1 60.5 42.75 61.8 44.45 64.2 44.45 66.95 44.45 70.4 42.95 71.4 42.55 71.55 43.9 72.15 48.6 72.3 57.2 61.4 55.2 48.75 55.2 36.6 55.2 15.05 59.15 L16.9 49.8 Q25.6 48.75 28.3 45.6 30.95 42.4 32.75 33.95 34.45 26.05 34.45 18.2 34.45 10.0 27.55 10.0 L23.4 10.5 Q20.4 3.9 20.4 1.1 42.85 0.9 62.2 -6.3" fill="#007a5e" fill-rule="evenodd" stroke="none"/>
      <path d="M122.6 2.35 Q118.75 0.45 112.1 0.45 104.4 0.45 98.85 1.85 92.25 3.5 92.25 6.25 92.25 13.3 114.75 13.3 126.6 13.3 126.6 7.35 126.6 4.3 122.6 2.35 M144.8 5.0 Q147.5 10.85 147.5 19.9 L147.25 26.45 Q147.25 27.1 146.7 26.95 137.2 24.8 116.35 21.45 L96.7 18.45 Q95.45 18.45 95.45 28.7 95.45 41.6 101.1 48.0 105.5 52.85 112.2 53.15 115.95 53.35 119.25 52.0 120.5 51.55 120.5 51.05 120.5 50.75 119.85 50.5 112.7 49.15 108.15 45.2 103.65 41.15 103.65 35.6 103.65 32.1 107.6 29.95 111.6 27.8 118.35 27.8 L128.3 28.8 Q142.35 31.5 142.35 40.1 142.35 42.4 141.05 45.0 137.35 51.9 132.0 54.8 124.15 59.05 108.1 59.05 89.7 59.05 78.65 45.4 69.2 33.85 69.2 19.2 69.2 -7.8 113.35 -7.8 138.95 -7.8 144.8 5.0" fill="#007a5e" fill-rule="evenodd" stroke="none"/>
      <path d="M148.55 -29.1 Q152.75 -31.15 158.8 -31.15 166.0 -31.15 170.15 -28.05 174.1 -25.05 174.1 -20.15 174.1 -16.3 171.95 -11.65 169.85 -6.9 167.75 -5.6 164.9 -4.6 163.3 -4.6 162.35 -4.6 162.35 -5.25 L163.05 -6.6 Q164.8 -9.6 164.8 -11.5 164.8 -13.95 161.15 -13.95 L156.8 -13.55 154.55 -13.3 Q150.25 -13.3 147.15 -16.15 144.15 -18.9 144.15 -23.25 144.15 -26.95 148.55 -29.1" fill="#007a5e" fill-rule="evenodd" stroke="none"/>
      <path d="M164.8 16.4 Q164.8 14.0 165.3 11.6 167.1 2.9 175.2 -2.25 184.45 -8.2 200.25 -8.2 215.55 -8.2 222.9 -5.4 229.35 -3.0 231.4 2.35 232.8 5.75 232.8 7.55 232.8 13.75 219.7 14.6 L214.35 14.7 Q197.0 14.7 197.0 8.7 197.0 3.45 203.05 0.85 203.9 0.5 212.1 -1.5 213.1 -1.75 213.1 -2.25 213.1 -4.15 204.65 -4.15 188.55 -4.15 188.55 5.45 188.55 7.6 189.4 10.25 191.45 16.0 195.75 18.3 199.3 20.25 205.5 20.25 L212.4 19.95 219.45 19.65 Q228.65 19.65 233.2 22.4 238.8 25.75 238.8 33.85 L238.45 38.3 Q236.85 48.7 223.0 54.45 210.15 59.85 190.7 59.85 177.2 59.85 168.85 56.15 161.65 53.05 160.05 48.35 158.95 45.1 158.95 42.75 158.95 34.8 174.0 32.8 L183.35 32.15 Q191.3 32.15 195.8 34.15 200.4 36.1 200.4 39.55 200.4 43.1 197.05 45.9 192.95 49.4 184.5 50.6 179.5 51.35 179.5 52.75 179.5 54.25 188.35 54.25 L194.45 53.95 Q202.15 52.95 205.75 51.25 211.15 48.7 210.95 43.55 210.3 26.95 194.55 26.95 L188.15 27.3 181.3 27.7 Q164.8 27.7 164.8 16.4" fill="#007a5e" fill-rule="evenodd" stroke="none"/>
      <path d="M152.65 -82.55 L147.55 -83.1 147.65 -83.85 147.2 -86.3 Q145.7 -91.85 126.4 -95.0 112.3 -97.25 99.15 -97.25 91.75 -97.25 85.15 -94.25 79.4 -91.6 78.3 -88.95 77.55 -87.0 77.6 -85.8 76.15 -85.8 74.1 -84.75 72.95 -87.25 72.95 -89.45 72.95 -112.85 102.6 -112.85 108.9 -112.85 120.95 -110.1 135.1 -106.85 144.0 -102.25 155.3 -96.4 155.3 -89.55 155.3 -87.45 154.25 -85.05 153.4 -83.25 152.65 -82.55" fill="#007a5e" fill-rule="evenodd" stroke="none"/>
      <path d="M-10.0 -105.2 Q-9.7 -102.95 -10.4 -100.35 L-14.1 -100.75 Q-14.15 -101.9 -15.3 -103.75 -16.85 -106.2 -23.05 -107.8 -30.15 -109.6 -37.55 -108.4 -50.6 -106.15 -64.4 -101.55 -83.15 -95.2 -83.7 -89.45 L-83.75 -86.95 -83.65 -86.5 -83.55 -86.25 Q-83.65 -86.15 -85.85 -85.55 L-88.55 -84.8 Q-89.45 -85.4 -90.55 -87.0 -92.0 -89.15 -92.4 -91.25 -93.5 -98.0 -83.2 -105.7 -75.15 -111.75 -61.45 -117.35 -50.05 -122.1 -43.6 -123.15 -13.9 -128.15 -10.0 -105.2" fill="#007a5e" fill-rule="evenodd" stroke="none"/>
      <path d="M-207.5 110.55 Q-202.4 110.55 -202.4 105.9 -202.4 103.4 -204.0 101.85 -205.55 100.35 -208.2 100.35 L-208.8 100.35 Q-210.05 100.35 -210.05 101.7 L-210.05 109.2 Q-210.05 110.55 -208.8 110.55 L-207.5 110.55 M-202.45 97.95 L-202.0 98.35 Q-197.1 100.15 -197.1 105.9 -197.1 110.25 -199.7 112.7 -202.35 115.2 -206.95 115.2 L-213.85 115.2 Q-214.3 115.2 -214.75 114.75 L-215.2 113.85 -215.2 98.9 -200.25 96.35 -202.0 97.45 -202.45 97.95" fill="#000000" fill-rule="evenodd" stroke="none"/>
      <path d="M-212.0 82.75 L-212.65 82.85 Q-213.9 83.1 -213.7 84.45 L-212.75 90.4 -212.2 91.2 Q-211.7 91.55 -211.25 91.5 L-210.65 91.4 Q-208.4 91.05 -207.25 89.55 -206.1 88.1 -206.4 86.0 -207.1 81.95 -212.0 82.75 M-204.85 79.05 Q-202.0 80.75 -201.4 84.7 -200.8 88.5 -202.75 90.75 L-217.05 95.7 -219.55 80.6 Q-219.65 80.05 -219.25 79.6 -218.95 79.15 -218.4 79.05 L-212.2 78.05 Q-207.65 77.3 -204.85 79.05" fill="#000000" fill-rule="evenodd" stroke="none"/>
      <path d="M-192.5 97.0 L-187.5 96.05 -187.5 97.75 Q-187.5 99.1 -186.15 99.1 L-185.6 99.1 Q-182.75 99.1 -181.5 97.95 -180.55 97.0 -180.4 94.75 L-175.1 93.75 Q-175.1 99.2 -178.45 101.65 -179.3 102.25 -179.3 102.75 L-179.2 103.3 -176.3 112.15 -179.25 117.1 Q-180.1 116.85 -180.45 115.85 L-183.95 105.0 Q-184.3 103.75 -185.65 103.75 L-186.15 103.75 Q-187.5 103.75 -187.5 105.05 L-187.5 115.9 Q-187.5 117.2 -188.75 117.2 L-191.3 117.2 Q-192.5 117.2 -192.5 115.9 L-192.5 97.0" fill="#000000" fill-rule="evenodd" stroke="none"/>
      <path d="M-175.0 112.8 L-173.75 116.5 -173.75 116.9 Q-173.75 117.85 -174.65 117.85 L-177.35 117.85 -177.9 117.8 -175.0 112.8" fill="#000000" fill-rule="evenodd" stroke="none"/>
      <path d="M-218.4 115.0 L-222.15 116.1 -222.5 116.1 Q-223.45 116.1 -223.45 115.15 L-223.4 112.5 -223.3 111.95 -218.4 115.0" fill="#000000" fill-rule="evenodd" stroke="none"/>
      <path d="M-175.75 89.7 L-175.75 89.75 -181.05 90.75 -181.0 89.95 Q-181.0 87.2 -182.2 86.05 -183.3 84.95 -186.25 84.95 L-186.8 84.95 Q-188.15 84.95 -188.15 86.3 L-188.15 92.05 -193.2 93.0 -193.2 81.6 Q-193.2 81.2 -192.8 80.7 -192.45 80.3 -191.9 80.3 L-185.15 80.3 Q-175.75 80.3 -175.75 89.7" fill="#000000" fill-rule="evenodd" stroke="none"/>
      <path d="M-159.45 78.3 L-162.0 82.95 -163.3 82.95 Q-164.65 82.95 -164.65 84.45 L-164.65 85.85 -169.65 86.85 -169.65 79.6 Q-169.65 79.1 -169.25 78.7 -168.75 78.3 -168.35 78.3 L-159.45 78.3" fill="#000000" fill-rule="evenodd" stroke="none"/>
      <path d="M-154.05 80.3 Q-152.75 80.3 -152.75 81.6 L-152.75 83.65 Q-152.75 84.95 -154.0 84.95 L-160.0 84.95 -157.45 80.3 -154.05 80.3" fill="#000000" fill-rule="evenodd" stroke="none"/>
      <path d="M-164.65 88.55 L-164.65 90.35 -169.65 99.15 -169.65 89.55 -164.65 88.55" fill="#000000" fill-rule="evenodd" stroke="none"/>
      <path d="M-156.1 112.55 Q-155.65 112.55 -155.15 112.95 -154.75 113.45 -154.75 113.9 L-154.75 115.9 Q-154.75 117.2 -156.1 117.2 L-168.35 117.2 Q-169.65 117.2 -169.65 115.9 L-169.65 102.45 -164.65 93.65 -164.65 96.3 Q-164.65 97.6 -163.3 97.6 L-157.15 97.6 Q-155.85 97.6 -155.85 98.95 L-155.85 101.0 Q-155.85 102.25 -157.15 102.25 L-163.4 102.25 Q-164.65 102.25 -164.65 103.65 L-164.65 111.2 Q-164.65 112.55 -163.4 112.55 L-156.1 112.55" fill="#000000" fill-rule="evenodd" stroke="none"/>
      <path d="M-138.3 82.3 L-138.1 83.35 -146.4 85.1 -145.85 82.2 Q-145.65 80.95 -144.3 80.95 L-139.95 80.95 Q-138.6 80.95 -138.3 82.3" fill="#000000" fill-rule="evenodd" stroke="none"/>
      <path d="M-145.0 90.3 L-144.4 87.1 -136.1 85.35 -130.25 114.5 Q-129.95 115.85 -131.4 115.85 L-133.8 115.85 Q-135.1 115.85 -135.35 114.5 L-136.3 110.05 Q-136.6 108.65 -137.95 108.65 L-140.6 108.65 -141.7 103.95 -141.4 104.0 -138.75 104.0 Q-137.45 104.0 -137.65 102.7 L-139.85 90.7 -140.15 90.4 Q-140.35 90.4 -140.4 90.75 L-142.3 101.35 Q-143.6 95.6 -145.0 90.3" fill="#000000" fill-rule="evenodd" stroke="none"/>
      <path d="M-144.35 106.0 L-143.3 110.65 -145.0 110.65 Q-145.5 110.65 -145.95 111.1 L-146.5 112.05 -147.4 116.55 Q-147.65 117.85 -148.95 117.85 L-151.35 117.85 Q-152.65 117.85 -152.35 116.5 L-147.7 92.3 -144.95 103.35 -145.2 104.8 Q-145.4 105.85 -144.35 106.0" fill="#000000" fill-rule="evenodd" stroke="none"/>
      <path d="M-124.4 80.3 L-123.45 80.3 -125.45 80.7 Q-125.05 80.3 -124.4 80.3" fill="#000000" fill-rule="evenodd" stroke="none"/>
      <path d="M-123.15 78.3 L-123.15 85.5 -128.2 84.1 -128.2 78.25 -127.95 77.4 -125.95 76.95 -124.5 76.95 Q-123.15 76.95 -123.15 78.3" fill="#000000" fill-rule="evenodd" stroke="none"/>
      <path d="M-116.75 91.5 L-112.9 101.6 -116.5 106.6 -119.9 97.0 Q-120.05 96.55 -120.9 96.55 -121.55 96.55 -122.3 97.9 -123.15 99.4 -123.15 101.7 L-123.15 109.9 Q-123.15 111.2 -124.5 111.2 L-126.9 111.2 Q-128.2 111.2 -128.2 109.9 L-128.2 85.45 -123.15 86.85 -123.15 90.65 -122.9 91.0 -122.45 90.65 -120.8 87.55 -116.4 88.85 -116.45 88.95 Q-117.2 90.3 -116.75 91.5" fill="#000000" fill-rule="evenodd" stroke="none"/>
      <path d="M-110.25 102.9 L-107.1 111.2 -107.0 111.65 Q-107.0 112.5 -107.9 112.5 L-110.85 112.5 Q-112.2 112.5 -112.65 111.2 L-113.8 107.95 -110.25 102.9" fill="#000000" fill-rule="evenodd" stroke="none"/>
      <path d="M-232.4 112.9 L-224.55 117.0 -224.2 117.3 Q-223.65 117.95 -224.25 118.55 L-226.5 120.5 Q-227.45 121.4 -228.75 120.7 L-231.75 119.05 -232.4 112.9" fill="#000000" fill-rule="evenodd" stroke="none"/>
      <path d="M219.7 119.2 L228.05 120.75 228.5 120.9 Q229.35 121.3 229.1 121.75 L228.3 123.5 Q227.95 124.2 226.6 124.0 L223.35 123.3 219.7 119.2" fill="#000000" fill-rule="evenodd" stroke="none"/>
      <path d="M-108.4 78.3 L-113.75 87.55 -118.15 86.2 -113.85 78.3 Q-113.1 76.95 -111.75 76.95 L-108.95 76.95 Q-108.2 76.95 -108.2 77.7 L-108.4 78.3" fill="#000000" fill-rule="evenodd" stroke="none"/>
      <path d="M-97.15 91.9 Q-97.4 91.9 -97.4 92.25 L-99.55 104.3 Q-99.75 105.5 -98.4 105.5 L-95.75 105.5 Q-94.45 105.5 -94.65 104.2 L-96.9 92.2 Q-96.95 91.9 -97.15 91.9 M-100.85 85.7 L-100.45 84.9 -93.2 86.35 -87.25 116.0 Q-86.95 117.35 -88.4 117.35 L-90.8 117.35 Q-92.1 117.35 -92.4 116.0 L-93.3 111.55 Q-93.6 110.15 -94.95 110.15 L-99.35 110.15 Q-99.85 110.15 -100.3 110.6 L-100.85 111.55 -101.75 116.05 Q-102.0 117.35 -103.3 117.35 L-105.7 117.35 Q-107.0 117.35 -106.7 116.0 L-100.85 85.7" fill="#000000" fill-rule="evenodd" stroke="none"/>
      <path d="M-95.6 81.8 Q-94.3 81.8 -94.0 83.1 L-93.9 83.65 -101.15 82.25 Q-100.7 81.8 -100.0 81.8 L-95.6 81.8" fill="#000000" fill-rule="evenodd" stroke="none"/>
      <path d="M-83.7 101.45 L-77.45 117.0 -82.35 117.0 -83.25 116.6 -83.7 115.7 -83.7 101.45" fill="#000000" fill-rule="evenodd" stroke="none"/>
      <path d="M-76.1 100.5 L-76.1 108.0 Q-76.1 109.35 -74.8 109.35 L-73.5 109.35 Q-68.45 109.35 -68.45 104.75 -68.45 102.2 -70.0 100.7 -71.55 99.2 -74.2 99.2 L-74.8 99.2 Q-76.1 99.2 -76.1 100.5 M-81.2 98.45 L-81.2 84.85 -75.5 85.95 Q-76.1 86.3 -76.1 87.2 L-76.1 93.25 -75.65 94.1 -74.8 94.55 -74.2 94.55 Q-71.85 94.55 -70.5 93.25 -69.1 91.95 -69.1 89.9 -69.1 88.15 -70.15 87.0 L-64.05 88.2 -63.95 89.4 Q-63.95 94.5 -68.0 96.3 -68.45 96.45 -68.45 96.8 L-68.0 97.2 Q-63.15 98.9 -63.15 104.7 -63.15 109.1 -65.75 111.55 -68.25 114.0 -72.95 114.0 L-74.95 114.0 -81.2 98.45" fill="#000000" fill-rule="evenodd" stroke="none"/>
      <path d="M-82.05 81.65 L-82.05 79.3 Q-82.05 78.75 -81.6 78.35 -81.2 77.95 -80.7 77.95 L-74.4 77.95 Q-69.75 77.95 -67.3 80.1 -65.25 81.95 -64.85 85.05 L-71.0 83.85 Q-72.25 82.6 -74.95 82.6 L-75.6 82.6 -76.35 82.8 -82.05 81.65" fill="#000000" fill-rule="evenodd" stroke="none"/>
      <path d="M-57.15 81.6 Q-55.75 81.6 -55.75 82.95 L-55.75 90.7 -60.85 89.75 -60.85 82.95 Q-60.85 81.6 -59.55 81.6 L-57.15 81.6" fill="#000000" fill-rule="evenodd" stroke="none"/>
      <path d="M-58.9 118.5 Q-60.2 118.5 -60.2 117.25 L-60.2 93.75 -55.1 94.75 -55.1 112.55 Q-55.1 113.85 -53.85 113.85 L-46.3 113.85 Q-45.0 113.85 -45.0 115.2 L-45.0 117.25 Q-45.0 118.5 -46.3 118.5 L-58.9 118.5" fill="#000000" fill-rule="evenodd" stroke="none"/>
      <path d="M-30.65 78.1 Q-29.35 78.1 -29.35 79.45 L-29.35 81.5 Q-29.35 82.75 -30.6 82.75 L-37.9 82.75 Q-39.25 82.75 -39.25 84.3 L-39.25 90.15 -39.2 90.4 -44.25 89.55 -44.25 79.45 Q-44.25 79.05 -43.85 78.55 -43.4 78.1 -42.95 78.1 L-30.65 78.1" fill="#000000" fill-rule="evenodd" stroke="none"/>
      <path d="M-30.75 94.65 L-29.2 94.8 Q-28.7 95.1 -28.65 95.85 L-28.5 97.9 Q-28.4 99.2 -29.7 99.25 L-35.95 99.7 Q-37.15 99.75 -37.1 101.15 L-36.6 108.65 Q-36.45 110.05 -35.25 109.95 L-27.95 109.45 Q-27.5 109.4 -27.0 109.8 -26.6 110.15 -26.5 110.7 L-26.35 112.7 Q-26.25 113.95 -27.6 114.05 L-39.85 114.9 Q-41.15 115.05 -41.25 113.7 L-42.65 93.6 -37.55 94.1 Q-37.3 95.1 -36.15 95.05 L-30.75 94.65" fill="#000000" fill-rule="evenodd" stroke="none"/>
      <path d="M-5.95 87.7 Q-7.2 87.5 -7.45 88.8 L-8.75 96.3 Q-8.95 97.65 -7.7 97.85 L-6.8 98.0 Q-3.75 98.55 -2.45 97.65 -1.05 96.7 -0.6 94.05 -0.05 91.0 -1.0 89.7 -1.85 88.45 -5.0 87.85 L-5.95 87.7 M-11.6 83.35 L-11.05 82.5 Q-10.55 82.2 -10.05 82.25 L-3.05 83.5 Q1.6 84.35 3.4 86.8 5.5 89.85 4.7 94.65 3.8 99.7 1.1 101.65 L0.05 102.25 -14.1 97.6 -11.6 83.35" fill="#000000" fill-rule="evenodd" stroke="none"/>
      <path d="M1.7 104.1 Q-0.65 105.7 -4.65 105.7 L-6.75 105.7 Q-8.0 105.7 -8.0 107.1 L-8.0 117.75 Q-8.0 118.3 -8.45 118.65 L-9.4 119.0 -11.8 119.0 Q-12.3 119.0 -12.65 118.65 L-13.05 117.8 -13.05 101.95 1.7 104.1" fill="#000000" fill-rule="evenodd" stroke="none"/>
      <path d="M15.65 88.4 Q15.45 88.4 15.4 88.75 L13.35 100.4 8.6 99.75 12.0 82.2 Q12.2 80.95 13.5 80.95 L17.9 80.95 Q19.2 80.95 19.5 82.3 L23.45 101.8 18.2 101.1 18.2 100.7 15.95 88.7 15.65 88.4" fill="#000000" fill-rule="evenodd" stroke="none"/>
      <path d="M14.4 104.0 Q15.5 104.0 15.5 103.1 L20.75 103.8 22.9 114.5 Q23.2 115.85 21.75 115.85 L19.35 115.85 Q18.05 115.85 17.8 114.5 L16.85 110.05 Q16.55 108.65 15.2 108.65 L10.85 108.65 Q10.3 108.65 9.85 109.1 9.35 109.6 9.3 110.05 L8.45 114.55 Q8.2 115.85 6.85 115.85 L4.5 115.85 Q3.25 115.85 3.45 114.5 L5.95 101.75 10.7 102.4 10.6 102.8 Q10.4 104.0 11.75 104.0 L14.4 104.0" fill="#000000" fill-rule="evenodd" stroke="none"/>
      <path d="M30.7 116.5 Q29.45 116.5 29.45 115.25 L29.45 105.2 34.5 105.9 34.5 115.25 Q34.5 116.5 33.2 116.5 L30.7 116.5" fill="#000000" fill-rule="evenodd" stroke="none"/>
      <path d="M46.25 106.5 L48.3 112.75 46.85 115.85 45.3 115.85 Q44.0 115.85 43.55 114.5 L40.75 105.8 46.25 106.5" fill="#000000" fill-rule="evenodd" stroke="none"/>
      <path d="M44.95 111.4 L45.55 113.2 45.55 113.55 Q45.55 114.5 44.65 114.5 L43.5 114.5 44.95 111.4" fill="#000000" fill-rule="evenodd" stroke="none"/>
      <path d="M27.2 80.75 L33.85 79.85 Q43.2 78.5 44.45 87.85 45.3 93.35 42.25 96.2 41.5 96.85 41.6 97.4 L41.75 97.95 43.85 102.2 38.25 102.25 37.3 100.3 Q36.7 99.05 35.4 99.25 L34.95 99.3 Q33.6 99.55 33.8 100.8 L34.0 102.3 28.95 102.3 26.1 82.25 Q26.0 81.8 26.35 81.3 L27.2 80.75 M33.4 84.6 L32.85 84.65 Q31.55 84.9 31.75 86.2 L32.75 93.55 Q33.0 94.9 34.3 94.7 L34.85 94.65 Q37.75 94.2 38.7 92.95 39.65 91.6 39.3 88.85 38.9 86.05 37.6 85.15 36.3 84.15 33.4 84.6" fill="#000000" fill-rule="evenodd" stroke="none"/>
      <path d="M66.15 80.9 L66.15 83.45 Q66.15 84.75 64.9 84.75 L61.15 84.75 Q59.8 84.75 59.8 86.05 L59.8 105.3 54.7 104.6 54.7 91.5 61.2 79.6 64.9 79.6 Q66.15 79.6 66.15 80.9" fill="#000000" fill-rule="evenodd" stroke="none"/>
      <path d="M52.05 84.7 L51.55 83.8 50.7 83.4 46.95 83.4 Q46.55 83.4 46.05 83.0 L45.65 82.05 45.65 79.55 Q45.65 79.1 46.05 78.7 46.45 78.3 46.95 78.3 L58.55 78.3 52.05 90.2 52.05 84.7" fill="#000000" fill-rule="evenodd" stroke="none"/>
      <path d="M54.7 115.4 L54.7 108.8 59.8 109.45 59.8 115.4 Q59.8 115.95 59.4 116.3 59.0 116.7 58.5 116.7 L56.0 116.7 Q54.7 116.7 54.7 115.4" fill="#000000" fill-rule="evenodd" stroke="none"/>
      <path d="M86.4 87.1 Q87.35 87.25 87.25 88.0 L87.0 88.55 78.05 104.95 Q77.45 105.95 77.2 107.5 L76.3 114.05 71.3 112.7 72.15 106.75 Q72.3 105.25 72.05 104.1 L68.05 85.95 68.05 85.45 Q68.2 84.65 69.1 84.7 L72.1 85.15 Q73.35 85.3 73.55 86.65 L75.55 98.35 Q75.65 99.0 75.9 99.0 L76.4 98.45 81.65 87.75 Q82.25 86.55 83.5 86.7 L86.4 87.1" fill="#000000" fill-rule="evenodd" stroke="none"/>
      <path d="M72.45 122.7 Q71.15 122.7 71.15 121.4 L71.15 117.2 76.25 117.85 76.25 121.35 Q76.25 121.85 75.85 122.25 L74.9 122.7 72.45 122.7" fill="#000000" fill-rule="evenodd" stroke="none"/>
      <path d="M112.25 79.6 Q113.6 79.6 113.6 80.95 L113.6 83.0 Q113.6 83.55 113.15 83.9 112.8 84.25 112.25 84.25 L104.85 84.25 Q104.35 84.25 103.95 84.7 103.6 85.1 103.6 85.65 L103.6 91.65 Q103.6 92.2 104.0 92.55 104.4 92.95 104.85 92.95 L111.2 92.95 Q111.75 92.95 112.1 93.4 L112.55 94.35 112.55 96.3 112.05 97.2 111.2 97.6 104.9 97.6 104.0 98.0 Q103.6 98.5 103.6 98.95 L103.6 110.65 98.55 110.05 98.55 80.95 Q98.55 79.6 99.85 79.6 L112.25 79.6" fill="#000000" fill-rule="evenodd" stroke="none"/>
      <path d="M99.85 114.5 Q99.45 114.5 99.0 114.05 98.55 113.6 98.55 113.2 L98.55 112.05 103.6 112.65 103.6 113.2 103.15 114.1 Q102.65 114.5 102.25 114.5 L99.85 114.5" fill="#000000" fill-rule="evenodd" stroke="none"/>
      <path d="M121.0 117.75 L120.55 118.2 119.85 118.25 121.0 117.75" fill="#000000" fill-rule="evenodd" stroke="none"/>
      <path d="M135.25 115.75 L136.15 118.05 Q136.65 119.3 135.3 119.6 L132.9 120.05 Q131.7 120.25 131.15 119.05 L130.6 117.8 135.25 115.75" fill="#000000" fill-rule="evenodd" stroke="none"/>
      <path d="M131.0 114.2 L133.85 107.8 136.15 113.55 131.55 115.6 131.0 114.2" fill="#000000" fill-rule="evenodd" stroke="none"/>
      <path d="M120.4 91.8 Q120.2 91.8 120.2 92.15 L120.35 104.4 Q120.35 105.65 121.7 105.35 L124.3 104.9 Q125.6 104.6 125.15 103.4 L120.7 92.0 Q120.55 91.75 120.4 91.8 M131.35 105.55 L128.5 111.95 127.85 110.35 Q127.3 109.05 126.0 109.3 L121.7 110.1 Q121.15 110.25 120.8 110.75 120.45 111.15 120.45 111.75 L120.45 116.35 120.2 117.2 119.05 117.75 115.7 117.95 115.55 117.25 115.6 86.35 Q115.6 85.1 116.9 84.85 L121.2 84.05 Q122.5 83.8 123.0 85.05 L131.35 105.55" fill="#000000" fill-rule="evenodd" stroke="none"/>
      <path d="M117.55 118.9 Q116.75 119.05 116.45 118.5 L119.85 118.25 119.0 118.65 117.55 118.9" fill="#000000" fill-rule="evenodd" stroke="none"/>
      <path d="M120.15 119.65 L119.5 119.9 118.6 120.05 119.4 119.7 120.15 119.65" fill="#000000" fill-rule="evenodd" stroke="none"/>
      <path d="M140.85 115.95 L140.6 111.8 149.7 111.15 147.55 117.05 Q147.15 118.3 145.8 118.05 L142.2 117.5 Q140.95 117.3 140.85 115.95" fill="#000000" fill-rule="evenodd" stroke="none"/>
      <path d="M138.55 83.2 L139.3 91.55 134.8 96.6 133.35 82.6 Q133.3 81.25 134.45 81.4 L137.05 81.7 Q138.5 81.85 138.55 83.2" fill="#000000" fill-rule="evenodd" stroke="none"/>
      <path d="M153.45 81.6 Q154.85 81.6 154.55 82.95 L149.85 107.05 140.95 109.1 138.3 96.7 142.2 91.2 145.0 105.4 145.25 105.7 145.45 105.35 149.4 82.95 Q149.65 81.6 150.9 81.6 L153.45 81.6" fill="#000000" fill-rule="evenodd" stroke="none"/>
      <path d="M168.85 108.4 L174.05 107.2 174.05 110.25 Q174.05 115.5 172.15 118.0 169.75 121.2 165.0 121.2 160.15 121.2 157.9 118.0 156.25 115.7 156.1 111.45 L161.15 110.25 Q161.15 113.75 161.95 115.05 162.75 116.45 165.0 116.45 167.2 116.45 168.0 115.05 168.85 113.8 168.85 110.2 L168.85 108.4" fill="#000000" fill-rule="evenodd" stroke="none"/>
      <path d="M172.15 85.45 Q174.05 88.2 174.05 93.3 L174.05 102.15 168.85 103.4 168.85 93.4 Q168.85 89.8 168.0 88.5 167.15 87.05 165.0 87.05 162.85 87.05 162.0 88.45 161.15 89.75 161.15 93.4 L161.15 105.25 156.1 106.45 156.0 105.2 156.0 93.3 Q156.0 88.1 157.9 85.45 160.25 82.3 165.0 82.3 170.0 82.3 172.15 85.45" fill="#000000" fill-rule="evenodd" stroke="none"/>
      <path d="M187.1 80.95 Q196.5 80.95 196.5 90.35 196.5 93.0 195.75 94.95 L179.1 99.1 179.1 82.3 Q179.1 81.85 179.5 81.35 179.9 80.95 180.4 80.95 L187.1 80.95 M191.25 90.65 Q191.25 87.8 190.1 86.7 188.9 85.6 186.05 85.6 L185.45 85.6 Q184.15 85.6 184.15 86.95 L184.15 94.4 Q184.15 95.75 185.45 95.75 L186.05 95.75 Q188.95 95.75 190.1 94.6 191.25 93.5 191.25 90.65" fill="#000000" fill-rule="evenodd" stroke="none"/>
      <path d="M186.05 104.15 L185.6 104.05 Q184.3 103.75 184.0 105.05 L182.0 115.75 Q181.8 117.05 180.5 116.8 L178.05 116.3 Q176.8 116.05 177.1 114.8 L179.55 101.6 196.7 100.6 Q195.4 102.55 193.5 103.4 192.55 103.85 192.5 104.35 L192.5 104.9 194.2 118.0 194.15 118.35 Q193.95 119.3 193.05 119.15 L190.4 118.65 Q189.1 118.4 188.95 117.0 L187.55 105.7 Q187.35 104.4 186.05 104.15" fill="#000000" fill-rule="evenodd" stroke="none"/>
      <path d="M208.25 89.4 Q208.25 91.05 209.85 92.9 L204.45 94.3 Q202.95 92.0 202.95 89.4 202.95 85.8 205.35 83.55 207.75 81.35 211.55 81.35 216.0 81.35 218.6 84.65 220.5 87.1 220.5 88.7 220.5 89.6 219.5 89.9 L217.2 90.6 216.65 90.7 Q215.9 90.7 215.5 89.65 214.3 86.05 211.5 86.05 210.15 86.05 209.2 87.0 208.25 87.95 208.25 89.4" fill="#000000" fill-rule="evenodd" stroke="none"/>
      <path d="M208.8 100.25 L211.1 102.05 Q214.9 105.1 216.0 106.45 218.15 109.05 218.15 112.5 218.15 116.25 215.7 118.55 213.25 120.85 209.15 120.85 203.85 120.85 201.15 117.15 199.35 114.7 199.35 112.5 199.35 111.65 200.55 111.25 L202.35 110.7 203.3 110.5 Q204.0 110.5 204.3 111.55 205.4 116.1 209.15 116.1 210.75 116.1 211.85 115.1 212.9 114.05 212.9 112.4 212.9 110.9 211.9 109.5 210.7 108.05 208.05 105.95 L204.7 103.3 Q202.65 101.65 201.6 99.95 L207.0 98.55 208.8 100.25" fill="#000000" fill-rule="evenodd" stroke="none"/>
    </g>
  </defs>
</svg>
