<?xml version="1.0" encoding="UTF-8" standalone="no"?>
<svg xmlns:xlink="http://www.w3.org/1999/xlink" height="300.0px" width="300.0px" xmlns="http://www.w3.org/2000/svg">
  <g transform="matrix(1.0, 0.0, 0.0, 1.0, 0.0, 0.0)">
    <use height="104.0" transform="matrix(1.0, 0.0, 0.0, 1.0, -0.05, 108.2)" width="316.35" xlink:href="#shape0"/>
  </g>
  <defs>
    <g id="shape0" transform="matrix(1.0, 0.0, 0.0, 1.0, 0.05, -108.2)">
      <path d="M169.95 190.1 Q171.1 187.1 173.1 185.05 175.2 182.9 178.45 181.65 181.7 180.35 185.1 180.35 192.1 180.35 196.6 184.7 201.1 189.0 201.1 195.85 201.1 203.0 196.55 207.6 192.0 212.2 184.95 212.2 177.75 212.2 173.2 207.75 168.75 203.4 168.75 196.3 168.75 193.15 169.95 190.1 M172.3 194.75 Q172.3 201.55 176.2 206.2 180.1 210.9 185.85 210.9 191.0 210.9 194.45 207.1 197.85 203.3 197.85 197.45 197.85 190.75 193.75 186.25 189.7 181.8 183.65 181.8 178.4 181.8 175.35 185.35 172.3 188.85 172.3 194.75 M205.95 190.1 Q207.1 187.1 209.1 185.05 211.2 182.9 214.45 181.65 217.7 180.35 221.1 180.35 228.1 180.35 232.6 184.7 237.1 189.0 237.1 195.85 237.1 203.0 232.55 207.6 228.0 212.2 220.95 212.2 213.75 212.2 209.25 207.75 204.75 203.4 204.75 196.3 204.75 193.15 205.95 190.1 M208.3 194.75 Q208.3 201.55 212.2 206.2 216.1 210.9 221.85 210.9 227.05 210.9 230.45 207.1 233.85 203.3 233.85 197.45 233.85 190.75 229.8 186.25 225.7 181.8 219.65 181.8 214.4 181.8 211.35 185.35 208.3 188.85 208.3 194.75 M242.0 180.8 L245.55 180.95 248.05 180.9 249.25 180.85 250.3 180.8 Q250.85 180.8 250.85 181.25 L250.3 181.7 Q248.95 182.35 248.55 183.1 248.15 183.9 248.15 186.2 L248.15 194.9 Q248.15 195.4 248.4 195.4 L248.75 195.15 258.7 186.25 Q260.9 184.3 260.9 183.05 260.9 182.1 259.3 181.75 258.25 181.65 258.25 181.25 258.25 180.75 258.95 180.75 L259.55 180.8 261.7 180.85 265.45 180.85 267.3 180.8 268.0 180.75 Q268.6 180.75 268.65 181.2 L267.6 181.8 Q265.55 182.3 259.85 187.45 L252.15 194.4 251.65 195.1 Q251.65 195.45 252.15 196.05 L263.9 208.3 Q265.75 210.25 267.95 210.7 L268.95 210.9 Q269.45 211.0 269.45 211.35 269.45 211.85 268.75 211.8 L268.2 211.8 266.25 211.75 264.35 211.8 263.3 211.8 Q262.55 211.8 262.0 211.25 L261.65 210.8 249.1 197.9 248.55 197.65 Q248.15 197.65 248.15 198.15 L248.15 206.35 Q248.15 208.95 248.9 209.8 249.55 210.6 252.05 211.0 L252.7 211.5 Q252.75 211.9 252.15 211.9 L250.95 211.8 248.3 211.75 244.9 211.8 243.7 211.8 242.35 211.9 Q241.6 211.9 241.6 211.4 241.6 211.05 242.25 210.95 243.65 210.85 244.2 209.65 244.75 208.45 244.75 205.65 L244.75 186.55 Q244.75 184.1 244.25 183.15 243.7 182.2 242.25 181.9 L241.15 181.7 240.55 181.25 Q240.55 180.75 241.2 180.75 L242.0 180.8 M33.75 171.35 L65.5 171.35 Q67.1 171.35 67.45 171.7 L67.75 172.55 67.9 172.55 67.95 173.8 Q67.95 175.5 68.1 176.3 L68.3 177.75 Q68.3 178.6 67.65 178.7 67.15 178.7 66.95 177.8 66.6 175.7 65.75 175.05 64.85 174.4 62.4 174.4 L54.1 174.4 Q52.8 174.4 52.5 174.8 52.1 175.15 52.1 176.5 L52.15 206.6 Q52.3 210.05 56.0 210.7 57.05 210.9 57.05 211.35 57.05 212.0 56.2 212.0 L54.8 211.8 52.1 211.75 47.65 211.75 45.55 211.8 43.55 212.0 Q42.7 212.0 42.7 211.35 42.7 210.9 43.65 210.8 45.95 210.5 46.7 209.5 47.55 208.6 47.55 206.1 L47.5 176.1 Q47.5 175.0 47.2 174.7 46.9 174.4 45.75 174.4 L37.95 174.4 Q35.55 174.4 34.5 175.4 33.4 176.3 32.8 178.95 32.55 180.15 32.05 180.1 31.5 180.1 31.5 179.35 31.5 178.7 31.85 177.05 L32.3 173.55 32.35 172.55 32.2 172.55 32.45 171.75 Q32.75 171.35 33.75 171.35 M74.1 181.8 Q74.75 181.8 74.75 182.25 74.75 182.6 74.15 182.75 72.7 183.1 72.25 183.8 71.75 184.45 71.75 186.1 L71.75 193.8 Q71.75 195.05 71.95 195.3 L73.55 195.5 86.3 195.5 87.45 195.35 Q87.75 195.15 87.75 194.55 L87.75 187.15 Q87.75 184.95 87.2 184.0 86.6 183.05 85.05 182.75 84.4 182.6 84.45 182.25 84.45 181.9 85.0 181.9 L86.4 182.0 89.45 182.15 92.7 182.0 93.5 181.95 Q94.0 181.95 94.0 182.35 94.0 182.65 93.5 182.8 L92.6 183.0 Q91.9 183.1 91.45 184.0 91.0 184.8 91.0 185.85 L91.0 206.7 Q91.0 209.05 91.7 209.9 92.3 210.8 94.15 210.95 94.85 211.05 94.85 211.4 94.9 211.9 94.25 211.9 L93.15 211.8 90.95 211.7 87.75 211.75 86.75 211.8 85.25 211.9 Q84.7 211.9 84.7 211.45 84.75 211.1 85.45 211.0 87.75 210.6 87.75 207.3 L87.75 198.55 Q87.75 197.55 87.55 197.35 L86.25 197.2 73.55 197.2 72.0 197.45 Q71.75 197.65 71.75 198.65 L71.75 206.6 Q71.75 208.85 72.4 209.75 73.15 210.65 75.05 210.9 75.9 210.95 75.9 211.4 75.9 211.85 75.3 211.85 L74.2 211.75 71.65 211.65 68.4 211.7 67.05 211.8 65.7 211.85 Q65.15 211.85 65.15 211.45 65.15 211.1 65.7 210.95 L66.75 210.7 Q67.7 210.45 68.1 209.25 68.4 208.1 68.4 205.0 L68.4 186.5 Q68.4 184.6 67.7 183.75 67.0 182.95 65.15 182.6 64.5 182.55 64.5 182.15 64.5 181.7 65.1 181.75 L66.35 181.9 70.35 182.1 73.2 181.9 74.1 181.8 M99.2 181.8 L100.65 181.95 108.1 182.25 112.75 182.15 115.8 182.05 117.35 181.95 118.2 181.85 Q118.9 181.85 118.9 182.5 L118.85 183.0 118.7 184.7 118.6 185.95 118.35 187.55 Q118.3 187.85 117.85 187.85 117.45 187.9 117.45 187.2 L117.45 186.65 117.2 185.35 Q116.8 184.4 115.55 184.0 L111.0 183.7 107.6 183.7 Q106.25 183.7 105.9 184.05 105.5 184.4 105.5 185.5 L105.5 194.25 Q105.5 195.25 105.65 195.4 L106.8 195.65 110.1 195.65 113.7 195.4 Q114.85 195.15 115.15 194.75 115.55 194.4 115.8 192.95 115.95 192.4 116.4 192.45 116.8 192.45 116.8 193.05 L116.75 193.5 116.55 197.25 116.7 199.9 116.75 200.5 Q116.75 201.05 116.35 201.05 115.85 201.05 115.75 200.55 L115.65 199.95 Q115.4 198.55 114.65 198.05 113.8 197.5 111.95 197.5 L107.25 197.5 105.8 197.7 Q105.5 197.95 105.5 198.55 L105.5 207.25 Q105.5 209.05 106.15 209.5 L109.5 209.95 Q117.9 209.95 120.35 206.15 L120.85 205.8 Q121.2 205.75 121.2 206.35 121.2 207.7 119.65 209.65 117.75 212.0 114.85 212.0 L113.2 211.9 106.4 211.5 101.05 211.8 99.95 211.9 Q99.2 211.9 99.2 211.45 99.2 211.1 99.8 210.95 L100.6 210.7 Q102.15 210.3 102.15 207.7 L102.2 188.05 Q102.2 184.95 101.5 183.9 100.85 182.8 98.85 182.8 98.25 182.8 98.25 182.4 98.25 181.8 99.2 181.8 M146.9 170.75 Q153.45 170.75 157.2 173.4 160.9 176.0 160.9 180.5 160.9 185.25 157.0 187.85 L155.75 188.7 155.35 189.15 Q155.35 189.45 156.85 189.8 160.1 190.5 162.2 193.3 164.25 196.1 164.25 199.7 164.25 205.15 160.3 208.65 156.3 212.2 150.1 212.2 L142.7 211.8 139.0 211.7 136.65 211.8 134.6 212.0 Q133.8 212.0 133.8 211.35 133.8 210.9 134.7 210.75 137.2 210.4 137.65 208.0 138.1 205.85 138.1 202.7 L138.1 179.9 Q138.1 176.0 136.95 174.2 135.8 172.3 133.4 172.3 132.2 172.3 132.2 171.65 132.2 171.05 133.35 171.05 L134.85 171.1 137.3 171.15 140.65 171.1 144.0 170.85 146.9 170.75 M143.25 173.1 Q142.65 173.7 142.65 175.5 L142.65 187.35 Q142.65 188.35 142.95 188.6 L144.6 188.9 149.5 188.9 Q156.9 188.9 156.9 182.2 156.9 178.1 153.75 175.3 150.6 172.55 145.95 172.55 143.9 172.55 143.25 173.1 M142.9 191.15 Q142.65 191.3 142.65 192.1 L142.55 207.05 142.7 208.15 Q143.1 209.45 144.9 210.0 L150.2 210.5 Q154.85 210.5 157.4 208.15 160.0 205.65 160.0 201.3 160.0 196.85 157.15 193.9 154.35 190.95 150.0 190.95 L144.25 190.95 142.9 191.15" fill="#000000" fill-rule="evenodd" stroke="none"/>
      <path d="M217.35 133.95 Q215.7 133.95 214.55 137.5 213.35 141.05 212.45 148.75 L211.4 157.25 Q211.35 158.6 209.25 158.6 207.4 158.6 207.4 157.5 L209.15 143.3 209.25 140.5 Q209.25 135.4 206.9 135.4 205.85 135.4 205.0 136.55 204.1 137.75 203.9 139.35 203.75 140.7 203.05 140.7 202.25 140.7 202.25 139.0 202.25 135.45 204.05 133.2 204.9 132.1 206.05 131.25 207.35 130.4 208.0 130.4 210.3 130.4 212.0 137.3 215.8 130.2 220.05 130.2 222.5 130.2 222.5 131.85 L222.25 132.9 221.6 135.5 Q221.3 136.65 220.5 136.7 220.15 136.7 219.75 135.95 219.0 133.95 217.35 133.95 M230.1 130.3 Q231.4 130.3 232.15 131.8 232.95 133.25 232.95 135.7 L232.95 137.05 Q235.25 133.9 238.25 132.0 241.25 130.2 243.95 130.2 246.1 130.2 247.5 132.4 248.95 134.6 248.95 138.0 L248.7 142.95 247.9 152.65 Q247.9 154.45 248.9 154.45 250.6 154.45 252.2 152.1 252.95 151.1 253.45 151.1 254.1 151.1 254.05 151.75 254.0 153.55 251.15 156.15 248.25 158.65 246.3 158.65 243.85 158.65 243.85 154.05 L244.95 139.05 Q244.95 136.35 243.9 134.75 242.95 133.1 241.2 133.1 238.3 133.1 236.1 136.7 233.95 140.25 233.2 146.4 L231.85 156.85 Q231.75 157.95 231.3 158.25 L229.5 158.6 Q227.75 158.6 227.8 157.5 L229.5 143.75 229.95 138.35 Q229.95 134.95 228.4 134.95 227.8 134.95 227.0 135.8 226.15 136.65 225.8 137.65 225.35 138.95 224.85 138.95 224.15 138.95 224.15 138.0 224.15 135.7 226.2 132.95 228.25 130.3 230.1 130.3 M173.65 132.85 L169.0 132.65 Q168.15 132.65 167.7 133.0 167.4 133.4 167.25 134.6 L165.45 148.6 165.35 150.65 Q165.35 152.4 166.2 153.45 167.0 154.55 168.25 154.55 170.5 154.55 172.9 152.0 173.55 151.3 174.0 151.3 174.55 151.3 174.55 151.85 174.55 153.75 171.35 156.15 168.15 158.6 165.65 158.6 163.65 158.6 162.45 156.75 161.2 155.0 161.2 152.0 L161.45 148.55 163.35 133.6 Q163.3 132.85 162.15 132.85 L160.2 132.85 Q159.4 132.85 159.4 132.25 159.4 131.6 160.85 130.75 164.65 128.75 166.9 125.15 167.5 124.25 168.05 124.25 168.85 124.25 168.85 124.9 L168.65 125.9 167.75 129.75 Q167.75 130.55 169.15 130.55 L174.2 130.4 Q175.4 130.4 175.4 131.35 175.4 132.85 173.65 132.85 M197.35 131.35 Q199.0 132.8 199.0 135.05 199.0 139.2 193.6 142.25 189.35 144.6 182.45 144.6 L182.25 147.0 Q182.25 150.5 184.6 153.0 186.95 155.5 190.35 155.5 194.6 155.5 197.15 152.85 197.95 152.05 198.25 152.05 198.75 152.05 198.75 152.7 198.75 153.85 196.25 155.8 192.4 158.85 187.45 158.85 183.25 158.85 180.75 156.2 178.25 153.55 178.25 148.95 178.25 142.0 182.95 135.95 187.6 129.95 193.0 129.95 195.65 129.95 197.35 131.35 M186.05 135.15 Q183.55 138.15 182.6 143.3 187.9 143.3 191.4 140.9 195.0 138.5 195.0 134.95 195.0 131.7 191.75 131.7 188.9 131.7 186.05 135.15 M296.95 132.85 L292.35 132.65 Q291.4 132.65 291.05 133.0 290.7 133.35 290.55 134.6 L288.75 148.6 288.65 150.65 Q288.65 152.3 289.5 153.45 290.3 154.55 291.6 154.55 293.8 154.55 296.2 152.0 296.85 151.3 297.3 151.3 297.9 151.3 297.9 151.85 297.9 153.75 294.65 156.15 291.45 158.6 288.95 158.6 286.95 158.6 285.75 156.75 284.55 154.95 284.55 152.0 284.55 150.3 284.8 148.55 L286.65 133.6 Q286.6 132.85 285.45 132.85 L283.55 132.85 Q282.75 132.85 282.75 132.25 282.75 131.55 284.2 130.75 288.0 128.7 290.2 125.15 290.8 124.25 291.4 124.25 292.15 124.25 292.15 124.9 L291.95 125.9 291.15 129.25 291.1 129.75 Q291.1 130.55 292.45 130.55 L297.55 130.4 Q298.7 130.4 298.7 131.35 298.7 132.85 296.95 132.85 M304.0 134.6 Q304.0 134.05 304.85 133.45 L306.15 132.45 307.2 131.35 Q307.8 130.75 308.2 130.75 308.7 130.75 309.2 131.35 L310.15 132.5 311.35 133.6 311.85 134.35 311.2 135.25 308.35 137.9 307.45 138.55 Q306.95 138.55 306.6 137.85 L304.65 135.55 Q304.0 135.05 304.0 134.6 M261.05 147.0 Q261.05 150.5 263.4 153.0 265.75 155.5 269.15 155.5 273.4 155.5 275.95 152.85 276.75 152.05 277.05 152.05 277.55 152.05 277.55 152.7 277.55 153.85 275.05 155.8 271.2 158.85 266.25 158.85 262.05 158.85 259.55 156.2 257.1 153.6 257.1 148.95 257.1 141.95 261.75 135.95 266.4 129.95 271.8 129.95 274.45 129.95 276.15 131.35 277.8 132.8 277.8 135.05 277.8 139.2 272.4 142.25 268.15 144.6 261.25 144.6 L261.05 147.0 M270.55 131.7 Q267.7 131.7 264.85 135.15 262.35 138.15 261.4 143.3 266.7 143.3 270.2 140.9 273.8 138.5 273.8 134.95 273.8 131.7 270.55 131.7 M306.95 151.0 Q307.45 151.0 307.95 151.65 L310.05 153.9 Q310.7 154.4 310.6 154.7 L309.9 155.55 Q307.75 157.3 307.1 158.2 L306.15 158.85 Q305.75 158.85 305.35 158.15 L303.35 155.85 Q302.75 155.25 302.75 154.8 302.85 154.25 303.6 153.75 L304.9 152.75 305.95 151.65 306.95 151.0 M52.5 109.95 L49.25 136.1 Q54.6 129.95 59.15 129.95 61.75 129.95 63.25 131.9 64.75 133.85 64.75 137.15 L63.7 148.25 63.5 151.2 Q63.5 154.3 65.1 154.3 67.45 154.3 69.45 150.75 69.85 150.05 70.3 150.05 70.9 150.05 70.9 150.65 70.9 152.3 68.9 154.9 66.1 158.6 62.65 158.6 59.5 158.6 59.5 152.0 L60.35 137.45 Q60.35 133.45 57.2 133.45 54.0 133.45 51.45 135.95 49.1 138.15 48.5 142.95 L46.7 157.25 Q46.55 158.6 44.55 158.6 42.7 158.6 42.7 157.5 L42.7 157.25 48.15 112.6 Q48.25 111.4 46.25 111.4 L44.5 111.4 Q43.1 111.4 43.1 110.75 43.2 109.95 44.5 109.95 L50.25 109.35 51.8 109.15 Q52.5 109.15 52.5 109.95 M42.3 119.5 Q42.3 121.2 41.45 121.2 40.55 121.2 40.45 119.45 40.3 116.8 39.25 115.75 38.2 114.65 35.85 114.65 L26.35 114.65 Q25.6 114.65 25.35 116.3 L20.95 153.15 Q20.95 156.25 24.5 156.85 26.65 157.3 26.65 157.8 26.65 158.55 25.1 158.55 L24.0 158.5 18.9 158.2 14.9 158.4 12.75 158.55 Q11.0 158.55 11.0 157.85 11.0 157.3 12.35 157.0 14.45 156.5 15.05 155.65 15.7 154.65 16.0 151.9 L20.4 116.3 20.4 115.8 Q20.4 114.65 18.9 114.65 L11.4 114.65 Q5.2 114.65 3.9 118.85 3.25 120.85 2.5 120.85 1.5 120.85 1.5 119.45 1.5 118.2 2.6 115.55 L3.45 112.75 Q3.7 111.6 4.15 111.2 4.7 110.8 5.7 110.8 L8.95 110.95 Q13.35 111.3 23.4 111.3 33.05 111.3 37.85 110.95 L40.4 110.8 Q41.55 110.8 41.9 111.25 42.25 111.75 42.25 113.1 L42.3 119.5 M77.0 147.0 Q77.0 150.6 79.35 153.0 81.7 155.5 85.05 155.5 89.35 155.5 91.9 152.85 92.7 152.05 92.95 152.05 93.45 152.05 93.45 152.7 93.45 153.85 91.0 155.8 87.05 158.85 82.2 158.85 78.0 158.85 75.5 156.2 73.0 153.55 73.0 148.95 73.0 141.95 77.65 135.95 82.3 129.95 87.75 129.95 90.45 129.95 92.05 131.35 93.75 132.8 93.75 135.05 93.75 139.15 88.3 142.25 84.15 144.6 77.15 144.6 L77.0 147.0 M77.35 143.3 L77.7 143.3 78.95 143.25 Q83.4 143.0 86.5 140.9 90.1 138.5 90.1 134.95 90.1 131.7 86.85 131.7 L86.7 131.7 86.45 131.7 Q83.6 131.7 80.75 135.15 78.3 138.2 77.35 143.3 M133.7 135.7 L133.7 137.05 Q136.0 133.9 139.0 132.0 142.0 130.2 144.7 130.2 146.85 130.2 148.25 132.4 149.7 134.6 149.7 138.0 L149.45 142.95 148.65 152.0 148.65 152.65 Q148.65 154.45 149.65 154.45 151.35 154.45 152.95 152.1 153.7 151.1 154.2 151.1 154.85 151.1 154.8 151.75 154.75 153.55 151.9 156.15 149.0 158.65 147.05 158.65 144.6 158.65 144.6 154.05 L145.7 139.05 Q145.7 136.35 144.65 134.75 143.7 133.1 141.95 133.1 139.05 133.1 136.85 136.7 134.7 140.25 133.95 146.4 L132.6 156.85 Q132.5 157.95 132.05 158.25 L130.25 158.6 Q128.5 158.6 128.55 157.5 L130.25 143.75 130.7 138.35 Q130.7 134.95 129.15 134.95 128.55 134.95 127.75 135.8 126.9 136.65 126.55 137.65 126.1 138.95 125.6 138.95 124.9 138.95 124.9 138.0 124.9 135.7 126.95 132.95 129.0 130.3 130.85 130.3 132.15 130.3 132.9 131.8 133.7 133.4 133.7 135.7 M118.35 110.95 L120.5 110.8 Q121.75 110.8 121.75 111.5 121.75 112.05 121.05 112.2 L120.5 112.4 Q118.55 112.95 118.15 113.7 117.65 114.45 117.25 117.45 L112.9 153.15 Q112.9 156.25 116.15 156.85 118.15 157.3 118.15 157.85 118.15 158.55 117.05 158.55 L116.0 158.5 110.95 158.2 106.85 158.4 104.8 158.55 Q103.5 158.55 103.5 157.85 103.5 157.3 104.7 157.0 107.45 156.25 107.8 153.7 L112.15 118.3 112.25 116.2 Q112.25 113.1 109.05 112.5 107.05 112.1 107.05 111.55 107.05 110.8 108.25 110.8 L110.0 110.95 114.25 111.15 118.35 110.95" fill="#ffff99" fill-rule="evenodd" stroke="none"/>
      <path d="M88.5 136.75 L88.25 136.75 Q86.85 136.75 84.9 139.1 84.0 140.15 83.3 141.85 85.0 141.3 86.3 140.45 88.55 138.9 88.55 136.95 L88.5 136.75 M118.35 110.95 L114.25 111.15 110.0 110.95 108.25 110.8 Q107.05 110.8 107.05 111.55 107.05 112.1 109.05 112.5 112.25 113.1 112.25 116.2 L112.15 118.3 107.8 153.7 Q107.45 156.25 104.7 157.0 103.5 157.3 103.5 157.85 103.5 158.55 104.8 158.55 L106.85 158.4 110.95 158.2 116.0 158.5 117.05 158.55 Q118.15 158.55 118.15 157.85 118.15 157.3 116.15 156.85 112.9 156.25 112.9 153.15 L117.25 117.45 Q117.65 114.45 118.15 113.7 118.55 112.95 120.5 112.4 L121.05 112.2 Q121.75 112.05 121.75 111.5 121.75 110.8 120.5 110.8 L118.35 110.95 M133.7 135.7 Q133.7 133.4 132.9 131.8 132.15 130.3 130.85 130.3 129.0 130.3 126.95 132.95 124.9 135.7 124.9 138.0 124.9 138.95 125.6 138.95 126.1 138.95 126.55 137.65 126.9 136.65 127.75 135.8 128.55 134.95 129.15 134.95 130.7 134.95 130.7 138.35 L130.25 143.75 128.55 157.5 Q128.5 158.6 130.25 158.6 L132.05 158.25 Q132.5 157.95 132.6 156.85 L133.95 146.4 Q134.7 140.25 136.85 136.7 139.05 133.1 141.95 133.1 143.7 133.1 144.65 134.75 145.7 136.35 145.7 139.05 L144.6 154.05 Q144.6 158.65 147.05 158.65 149.0 158.65 151.9 156.15 154.75 153.55 154.8 151.75 154.85 151.1 154.2 151.1 153.7 151.1 152.95 152.1 151.35 154.45 149.65 154.45 148.65 154.45 148.65 152.65 L148.65 152.0 149.45 142.95 149.7 138.0 Q149.7 134.6 148.25 132.4 146.85 130.2 144.7 130.2 142.0 130.2 139.0 132.0 136.0 133.9 133.7 137.05 L133.7 135.7 M137.15 132.7 L138.85 131.5 Q142.6 129.2 146.1 129.2 149.85 129.2 152.25 132.8 154.15 135.85 154.15 140.05 L153.9 145.25 153.4 150.9 Q154.5 150.1 155.65 150.1 157.25 150.1 158.25 151.2 159.35 152.3 159.25 153.95 159.05 157.2 155.3 160.4 151.65 163.7 148.5 163.7 146.5 163.7 145.15 162.45 143.05 160.55 143.05 156.1 L144.15 141.1 Q144.15 139.25 143.6 138.4 L143.4 138.15 Q142.15 138.15 140.85 140.3 139.0 143.4 138.4 148.8 L137.05 159.3 Q136.8 161.6 135.2 162.75 133.95 163.65 131.65 163.65 129.3 163.65 128.0 162.3 126.85 161.1 126.95 159.35 L127.0 159.2 128.95 143.4 Q128.1 144.0 127.0 144.0 125.55 144.0 124.5 143.0 123.35 141.9 123.35 140.0 123.35 136.7 126.0 133.15 129.0 129.3 132.3 129.3 135.35 129.3 137.0 132.45 L137.15 132.7 M122.05 117.55 Q121.8 118.35 121.7 119.85 L117.45 153.5 117.35 155.2 117.45 155.7 118.2 155.95 Q122.55 156.85 122.55 159.9 122.55 161.4 121.5 162.45 120.4 163.6 118.5 163.6 L117.15 163.55 112.35 163.25 108.55 163.4 106.2 163.6 Q104.15 163.6 103.0 162.45 101.95 161.4 101.95 159.9 101.95 157.15 105.3 156.15 L105.4 156.1 106.1 155.8 106.25 155.35 110.7 118.25 110.65 117.75 109.9 117.5 Q105.5 116.6 105.5 113.55 105.5 112.05 106.5 111.05 107.65 109.85 109.7 109.85 L110.9 109.9 111.8 110.05 115.7 110.2 119.5 110.05 121.9 109.85 Q123.95 109.85 125.15 111.05 126.2 112.05 126.2 113.55 126.2 114.85 125.45 115.8 124.65 116.8 123.35 117.15 L122.05 117.55 M78.95 143.25 L77.7 143.3 Q78.65 138.15 81.15 135.15 83.9 131.8 86.7 131.7 L86.85 131.7 Q90.1 131.7 90.1 134.95 90.1 138.5 86.5 140.9 83.4 143.0 78.95 143.25 M77.0 147.0 L77.15 144.6 Q84.15 144.6 88.3 142.25 93.75 139.15 93.75 135.05 93.75 132.8 92.05 131.35 90.45 129.95 87.75 129.95 82.3 129.95 77.65 135.95 73.0 141.95 73.0 148.95 73.0 153.55 75.5 156.2 78.0 158.85 82.2 158.85 87.05 158.85 91.0 155.8 93.45 153.85 93.45 152.7 93.45 152.05 92.95 152.05 92.7 152.05 91.9 152.85 89.35 155.5 85.05 155.5 81.7 155.5 79.35 153.0 77.0 150.6 77.0 147.0 M41.45 121.2 Q42.3 121.2 42.3 119.5 L42.25 113.1 Q42.25 111.75 41.9 111.25 41.55 110.8 40.4 110.8 L37.85 110.95 Q33.05 111.3 23.4 111.3 13.35 111.3 8.95 110.95 L5.7 110.8 Q4.7 110.8 4.15 111.2 3.7 111.6 3.45 112.75 L2.6 115.55 Q1.5 118.2 1.5 119.45 1.5 120.85 2.5 120.85 3.25 120.85 3.9 118.85 5.2 114.65 11.4 114.65 L18.9 114.65 Q20.4 114.65 20.4 115.8 L20.4 116.3 16.0 151.9 Q15.7 154.65 15.05 155.65 14.45 156.5 12.35 157.0 11.0 157.3 11.0 157.85 11.0 158.55 12.75 158.55 L14.9 158.4 18.9 158.2 24.0 158.5 25.1 158.55 Q26.65 158.55 26.65 157.8 26.65 157.3 24.5 156.85 20.95 156.25 20.95 153.15 L25.35 116.3 Q25.6 114.65 26.35 114.65 L35.85 114.65 Q38.2 114.65 39.25 115.75 40.3 116.8 40.45 119.45 40.55 121.2 41.45 121.2 M52.5 109.95 Q52.5 109.15 51.8 109.15 L50.25 109.35 44.5 109.95 Q43.2 109.95 43.1 110.75 43.1 111.4 44.5 111.4 L46.25 111.4 Q48.25 111.4 48.15 112.6 L42.7 157.25 42.7 157.5 Q42.7 158.6 44.55 158.6 46.55 158.6 46.7 157.25 L48.5 142.95 Q49.1 138.15 51.45 135.95 54.0 133.45 57.2 133.45 60.35 133.45 60.35 137.45 L59.5 152.0 Q59.5 158.6 62.65 158.6 66.1 158.6 68.9 154.9 70.9 152.3 70.9 150.65 70.9 150.05 70.3 150.05 69.85 150.05 69.45 150.75 67.45 154.3 65.1 154.3 63.5 154.3 63.5 151.2 L63.7 148.25 64.75 137.15 Q64.75 133.85 63.25 131.9 61.75 129.95 59.15 129.95 54.6 129.95 49.25 136.1 L52.5 109.95 M51.05 108.45 L53.25 108.2 Q54.95 108.2 55.9 109.25 56.95 110.3 56.9 112.05 L54.65 130.7 Q57.6 129.0 60.6 129.0 64.7 129.0 67.1 132.1 69.2 134.9 69.2 139.2 L69.05 141.85 68.0 151.8 68.25 151.35 Q69.5 149.2 71.5 149.1 72.1 142.15 76.75 136.15 82.3 129.0 89.2 129.0 92.9 129.0 95.45 131.1 98.2 133.45 98.2 137.05 98.2 142.9 91.25 146.9 87.3 149.1 81.45 149.55 81.6 151.5 82.95 153.0 84.45 154.55 86.5 154.55 89.45 154.55 91.2 152.8 92.9 151.1 94.4 151.1 95.9 151.1 96.9 152.15 97.9 153.2 97.9 154.75 97.9 157.25 94.3 160.2 89.45 163.9 83.65 163.9 78.05 163.9 74.75 160.3 L73.15 158.15 72.75 158.75 Q69.05 163.65 64.1 163.65 61.7 163.65 60.15 162.0 57.95 159.6 57.95 154.05 L58.8 139.5 58.7 138.5 58.65 138.5 Q56.75 138.5 54.95 140.15 53.35 141.7 52.9 145.35 L51.15 159.65 Q50.95 161.3 49.75 162.4 48.35 163.65 46.0 163.65 43.45 163.65 42.15 162.15 41.15 161.05 41.15 159.55 L41.15 159.15 45.3 125.35 Q44.25 126.25 42.9 126.25 41.8 126.25 40.85 125.6 39.05 124.45 38.9 121.65 L38.65 120.25 38.5 119.85 37.3 119.7 29.65 119.7 25.4 155.15 25.55 155.65 26.45 155.95 Q31.1 156.75 31.1 159.85 31.1 161.25 30.2 162.25 28.95 163.6 26.55 163.6 L25.15 163.55 20.35 163.25 16.65 163.4 14.2 163.6 Q11.35 163.6 10.15 162.0 9.45 161.05 9.45 159.9 9.45 157.1 13.05 156.1 L14.1 155.8 18.65 119.7 12.85 119.7 Q8.85 119.7 8.2 121.8 6.75 125.9 3.95 125.9 2.35 125.9 1.2 124.85 -0.05 123.6 -0.05 121.5 -0.05 119.75 1.25 116.45 L1.95 114.15 Q2.5 112.0 3.65 110.95 4.95 109.85 7.1 109.85 L10.6 110.0 Q15.2 110.3 24.8 110.3 35.1 110.3 39.05 110.0 L41.85 109.85 42.95 109.95 Q44.15 109.0 45.85 108.95 L51.05 108.45 M306.95 151.0 L305.95 151.65 304.9 152.75 303.6 153.75 Q302.85 154.25 302.75 154.8 302.75 155.25 303.35 155.85 L305.35 158.15 Q305.75 158.85 306.15 158.85 L307.1 158.2 Q307.75 157.3 309.9 155.55 L310.6 154.7 Q310.7 154.4 310.05 153.9 L307.95 151.65 Q307.45 151.0 306.95 151.0 M270.0 140.45 Q272.25 138.9 272.25 136.95 L272.2 136.75 271.95 136.75 Q270.55 136.75 268.6 139.1 267.7 140.15 267.0 141.85 268.7 141.3 270.0 140.45 M264.85 135.15 Q267.7 131.7 270.55 131.7 273.8 131.7 273.8 134.95 273.8 138.5 270.2 140.9 266.7 143.3 261.4 143.3 262.35 138.15 264.85 135.15 M261.05 147.0 L261.25 144.6 Q268.15 144.6 272.4 142.25 277.8 139.2 277.8 135.05 277.8 132.8 276.15 131.35 274.45 129.95 271.8 129.95 266.4 129.95 261.75 135.95 257.1 141.95 257.1 148.95 257.1 153.6 259.55 156.2 262.05 158.85 266.25 158.85 271.2 158.85 275.05 155.8 277.55 153.85 277.55 152.7 277.55 152.05 277.05 152.05 276.75 152.05 275.95 152.85 273.4 155.5 269.15 155.5 265.75 155.5 263.4 153.0 261.05 150.5 261.05 147.0 M304.0 134.6 Q304.0 135.05 304.65 135.55 L306.6 137.85 Q306.95 138.55 307.45 138.55 L308.35 137.9 311.2 135.25 311.85 134.35 311.35 133.6 310.15 132.5 309.2 131.35 Q308.7 130.75 308.2 130.75 307.8 130.75 307.2 131.35 L306.15 132.45 304.85 133.45 Q304.0 134.05 304.0 134.6 M296.95 132.85 Q298.7 132.85 298.7 131.35 298.7 130.4 297.55 130.4 L292.45 130.55 Q291.1 130.55 291.1 129.75 L291.15 129.25 291.95 125.9 292.15 124.9 Q292.15 124.25 291.4 124.25 290.8 124.25 290.2 125.15 288.0 128.7 284.2 130.75 282.75 131.55 282.75 132.25 282.75 132.85 283.55 132.85 L285.45 132.85 Q286.6 132.85 286.65 133.6 L284.8 148.55 Q284.55 150.3 284.55 152.0 284.55 154.95 285.75 156.75 286.95 158.6 288.95 158.6 291.45 158.6 294.65 156.15 297.9 153.75 297.9 151.85 297.9 151.3 297.3 151.3 296.85 151.3 296.2 152.0 293.8 154.55 291.6 154.55 290.3 154.55 289.5 153.45 288.65 152.3 288.65 150.65 L288.75 148.6 290.55 134.6 Q290.7 133.35 291.05 133.0 291.4 132.65 292.35 132.65 L296.95 132.85 M189.8 139.1 Q188.9 140.15 188.2 141.85 189.9 141.3 191.2 140.45 193.45 138.9 193.45 136.95 L193.4 136.75 193.15 136.75 Q191.75 136.75 189.8 139.1 M186.05 135.15 Q188.9 131.7 191.75 131.7 195.0 131.7 195.0 134.95 195.0 138.5 191.4 140.9 187.9 143.3 182.6 143.3 183.55 138.15 186.05 135.15 M199.0 135.05 Q199.0 132.8 197.35 131.35 195.65 129.95 193.0 129.95 187.6 129.95 182.95 135.95 178.25 142.0 178.25 148.95 178.25 153.55 180.75 156.2 183.25 158.85 187.45 158.85 192.4 158.85 196.25 155.8 198.75 153.85 198.75 152.7 198.75 152.05 198.25 152.05 197.95 152.05 197.15 152.85 194.6 155.5 190.35 155.5 186.95 155.5 184.6 153.0 182.25 150.5 182.25 147.0 L182.45 144.6 Q189.35 144.6 193.6 142.25 199.0 139.2 199.0 135.05 M173.65 132.85 Q175.4 132.85 175.4 131.35 175.4 130.4 174.2 130.4 L169.15 130.55 Q167.75 130.55 167.75 129.75 L168.65 125.9 168.85 124.9 Q168.85 124.25 168.05 124.25 167.5 124.25 166.9 125.15 164.65 128.75 160.85 130.75 159.4 131.6 159.4 132.25 159.4 132.85 160.2 132.85 L162.15 132.85 Q163.3 132.85 163.35 133.6 L161.45 148.55 161.2 152.0 Q161.2 155.0 162.45 156.75 163.65 158.6 165.65 158.6 168.15 158.6 171.35 156.15 174.55 153.75 174.55 151.85 174.55 151.3 174.0 151.3 173.55 151.3 172.9 152.0 170.5 154.55 168.25 154.55 167.0 154.55 166.2 153.45 165.35 152.4 165.35 150.65 L165.45 148.6 167.25 134.6 Q167.4 133.4 167.7 133.0 168.15 132.65 169.0 132.65 L173.65 132.85 M230.1 130.3 Q228.25 130.3 226.2 132.95 224.15 135.7 224.15 138.0 224.15 138.95 224.85 138.95 225.35 138.95 225.8 137.65 226.15 136.65 227.0 135.8 227.8 134.95 228.4 134.95 229.95 134.95 229.95 138.35 L229.5 143.75 227.8 157.5 Q227.75 158.6 229.5 158.6 L231.3 158.25 Q231.75 157.95 231.85 156.85 L233.2 146.4 Q233.95 140.25 236.1 136.7 238.3 133.1 241.2 133.1 242.95 133.1 243.9 134.75 244.95 136.35 244.95 139.05 L243.85 154.05 Q243.85 158.65 246.3 158.65 248.25 158.65 251.15 156.15 254.0 153.55 254.05 151.75 254.1 151.1 253.45 151.1 252.95 151.1 252.2 152.1 250.6 154.45 248.9 154.45 247.9 154.45 247.9 152.65 L248.7 142.95 248.95 138.0 Q248.95 134.6 247.5 132.4 246.1 130.2 243.95 130.2 241.25 130.2 238.25 132.0 235.25 133.9 232.95 137.05 L232.95 135.7 Q232.95 133.25 232.15 131.8 231.4 130.3 230.1 130.3 M214.25 132.85 Q217.6 129.2 221.5 129.2 225.15 129.2 226.45 131.8 228.95 129.3 231.55 129.3 234.6 129.3 236.25 132.45 L236.4 132.7 238.1 131.5 Q241.85 129.2 245.4 129.2 249.1 129.2 251.5 132.8 253.4 135.85 253.4 140.05 L253.15 145.25 252.65 150.9 Q253.75 150.1 254.9 150.1 L255.55 150.2 Q255.85 142.6 260.8 136.15 266.35 129.0 273.25 129.0 277.05 129.0 279.5 131.1 280.6 132.05 281.3 133.3 281.85 131.4 284.2 130.15 287.3 128.55 289.1 125.6 290.6 123.3 292.8 123.3 294.45 123.3 295.55 124.35 296.6 125.35 296.6 126.95 L296.25 128.8 296.05 129.55 298.9 129.45 Q300.9 129.45 302.1 130.7 303.15 131.8 303.15 133.4 L302.9 134.85 Q303.5 133.85 304.55 133.05 L305.5 132.35 306.5 131.3 Q307.95 129.75 309.65 129.75 311.5 129.75 312.95 131.5 L313.9 132.6 314.6 133.25 314.75 133.4 Q316.3 134.8 316.3 136.4 316.3 138.25 314.5 139.65 L312.15 141.8 Q310.85 143.6 308.9 143.6 306.7 143.6 305.45 141.45 L304.1 139.85 Q302.45 138.45 302.45 136.65 L302.65 135.55 Q301.45 137.9 298.4 137.9 L294.9 137.75 293.1 152.7 293.25 153.55 Q294.15 153.4 295.45 151.95 297.0 150.35 298.75 150.35 300.3 150.35 301.3 151.35 302.3 152.35 302.3 153.9 L302.3 154.2 303.35 153.3 304.2 152.65 305.25 151.6 Q306.65 150.2 308.1 150.05 L308.4 150.05 Q310.3 150.05 311.7 151.75 L312.65 152.9 313.45 153.65 Q315.15 155.05 315.05 157.05 314.9 158.65 313.2 159.95 L310.95 162.05 Q309.45 163.9 307.6 163.9 305.55 163.9 304.2 161.75 303.7 160.9 302.8 160.15 301.35 158.75 301.25 157.25 300.05 159.05 297.9 160.6 293.9 163.65 290.4 163.65 286.8 163.65 284.7 160.45 282.95 157.85 282.95 154.05 282.95 152.5 283.25 150.25 L284.75 137.9 Q283.25 137.85 282.25 136.85 L282.25 137.05 Q282.25 142.9 275.3 146.9 271.35 149.1 265.5 149.55 265.65 151.5 267.0 153.0 268.5 154.55 270.6 154.55 273.6 154.55 275.25 152.8 276.95 151.1 278.45 151.1 279.95 151.1 280.95 152.15 281.95 153.2 281.95 154.75 281.95 157.35 278.35 160.2 273.6 163.9 267.7 163.9 262.2 163.9 258.8 160.3 L257.05 157.75 254.55 160.4 Q250.9 163.7 247.75 163.7 245.75 163.7 244.4 162.45 242.3 160.55 242.3 156.1 L243.4 141.1 Q243.4 139.25 242.85 138.4 L242.65 138.15 Q241.4 138.15 240.1 140.3 238.25 143.4 237.65 148.8 L236.3 159.3 Q236.05 161.6 234.45 162.75 233.2 163.65 230.9 163.65 228.55 163.65 227.25 162.3 226.1 161.05 226.25 159.35 L226.25 159.2 228.2 143.4 Q227.35 144.0 226.3 144.0 225.2 144.0 224.25 143.4 223.3 142.75 222.85 141.6 L222.15 141.75 221.9 141.75 Q220.1 141.75 218.95 140.1 L218.8 140.5 Q217.75 143.75 216.85 151.15 L215.85 159.55 Q215.7 161.25 214.5 162.35 213.15 163.65 210.7 163.65 208.15 163.65 206.85 162.15 205.85 161.05 205.85 159.55 L207.7 143.85 Q206.65 145.7 204.5 145.7 201.95 145.7 201.05 143.25 199.4 145.25 196.5 146.9 192.55 149.1 186.7 149.55 186.85 151.5 188.2 153.0 189.7 154.55 191.8 154.55 194.8 154.55 196.45 152.8 198.15 151.1 199.65 151.1 201.15 151.1 202.15 152.15 203.15 153.2 203.15 154.75 203.15 157.35 199.55 160.2 194.8 163.9 188.9 163.9 183.4 163.9 180.0 160.3 178.7 158.9 177.95 157.2 176.85 158.85 174.6 160.6 170.6 163.65 167.1 163.65 163.5 163.65 161.4 160.45 159.65 157.85 159.65 154.05 L159.9 150.25 161.45 137.9 Q159.8 137.85 158.75 136.7 157.85 135.7 157.85 134.3 157.85 131.85 160.9 130.15 163.9 128.55 165.8 125.6 167.25 123.3 169.5 123.3 171.15 123.3 172.25 124.35 173.3 125.35 173.3 126.95 L172.95 128.8 172.75 129.55 175.6 129.45 Q177.6 129.45 178.8 130.7 179.85 131.8 179.85 133.4 179.85 135.4 178.5 136.65 177.2 137.9 175.05 137.9 L171.55 137.75 169.85 151.0 169.8 152.7 169.95 153.55 Q170.9 153.4 172.15 151.95 173.7 150.35 175.45 150.35 L176.75 150.55 Q176.9 142.75 182.0 136.15 187.55 129.0 194.45 129.0 198.25 129.0 200.7 131.1 202.0 132.2 202.8 133.85 L203.1 133.4 Q204.3 131.9 205.75 130.85 207.8 129.45 209.45 129.45 212.4 129.45 214.25 132.85 M217.35 133.95 Q219.0 133.95 219.75 135.95 220.15 136.7 220.5 136.7 221.3 136.65 221.6 135.5 L222.25 132.9 222.5 131.85 Q222.5 130.2 220.05 130.2 215.8 130.2 212.0 137.3 210.3 130.4 208.0 130.4 207.35 130.4 206.05 131.25 204.9 132.1 204.05 133.2 202.25 135.45 202.25 139.0 202.25 140.7 203.05 140.7 203.75 140.7 203.9 139.35 204.1 137.75 205.0 136.55 205.85 135.4 206.9 135.4 209.25 135.4 209.25 140.5 L209.15 143.3 207.4 157.5 Q207.4 158.6 209.25 158.6 211.35 158.6 211.4 157.25 L212.45 148.75 Q213.35 141.05 214.55 137.5 215.7 133.95 217.35 133.95" fill="#04429d" fill-rule="evenodd" stroke="none"/>
    </g>
  </defs>
</svg>
