<?xml version="1.0" encoding="UTF-8" standalone="no"?>
<svg xmlns:xlink="http://www.w3.org/1999/xlink" height="300.0px" width="300.0px" xmlns="http://www.w3.org/2000/svg">
  <g transform="matrix(1.0, 0.0, 0.0, 1.0, 0.0, 0.0)">
    <use height="98.75" transform="matrix(1.0, 0.0, 0.0, 1.0, -4.0, 104.1)" width="306.0" xlink:href="#sprite0"/>
  </g>
  <defs>
    <g id="sprite0" transform="matrix(1.0, 0.0, 0.0, 1.0, 153.0, 49.35)">
      <use height="98.75" transform="matrix(1.0, 0.0, 0.0, 1.0, -153.0, -49.35)" width="306.0" xlink:href="#shape0"/>
    </g>
    <g id="shape0" transform="matrix(1.0, 0.0, 0.0, 1.0, 153.0, 49.35)">
      <path d="M-53.05 -21.2 L-54.4 -21.75 -54.4 -20.45 -53.05 -21.2 M-61.5 -29.25 L-61.5 -49.35 -22.1 -49.35 -22.1 -29.25 153.0 -29.25 153.0 34.35 -153.0 34.35 -153.0 -29.25 -61.5 -29.25" fill="#00754d" fill-rule="evenodd" stroke="none"/>
      <path d="M-50.4 -40.0 L-48.6 -38.2 -48.6 -23.8 -54.4 -20.45 -54.4 -23.55 -50.4 -25.85 -50.4 -40.0 M-39.3 -39.3 L-37.55 -37.3 -37.55 -22.95 -40.4 -20.2 -43.35 -23.05 -43.35 -23.35 -42.2 -22.25 -39.3 -25.0 -39.3 -39.3 M-28.45 -42.25 L-26.7 -44.0 -26.7 -20.45 -32.5 -23.8 -32.5 -24.85 -28.45 -22.5 -28.45 -42.25" fill="#000000" fill-rule="evenodd" stroke="none"/>
      <path d="M-54.4 -23.55 L-56.2 -22.5 -56.2 -46.0 -50.4 -40.2 -50.4 -40.0 -50.4 -25.85 -54.4 -23.55 M-43.35 -23.35 L-45.15 -25.05 -45.15 -39.35 -42.1 -42.5 -39.3 -39.35 -39.3 -39.3 -39.3 -25.0 -42.2 -22.25 -43.35 -23.35 M-32.5 -24.85 L-34.25 -25.85 -34.25 -40.2 -28.45 -46.0 -28.45 -42.25 -28.45 -22.5 -32.5 -24.85" fill="#ffffff" fill-rule="evenodd" stroke="none"/>
      <path d="M123.05 40.0 Q123.45 40.65 123.45 41.8 L123.45 42.15 120.4 42.15 Q120.4 41.4 119.5 41.15 L115.2 41.2 114.4 41.4 Q114.05 41.6 114.05 42.05 114.05 42.65 114.75 42.9 L120.45 43.0 122.55 43.3 Q123.85 43.85 123.85 46.1 123.85 48.2 122.75 48.8 L117.25 49.35 112.8 49.15 Q111.8 49.0 111.4 48.25 111.0 47.7 111.0 46.6 L111.0 46.0 114.1 46.0 114.2 46.65 114.6 47.05 115.5 47.2 119.0 47.2 120.15 47.05 Q120.75 46.8 120.75 46.2 120.75 45.4 119.85 45.3 L115.45 45.3 112.6 45.05 Q111.7 44.75 111.25 43.95 110.95 43.25 110.95 42.25 110.95 40.4 111.85 39.75 112.55 39.15 114.45 39.0 L117.45 38.95 121.5 39.1 Q122.6 39.35 123.05 40.0 M89.85 40.0 Q90.25 40.6 90.25 41.8 L90.25 42.15 87.2 42.15 Q87.2 41.4 86.35 41.15 L82.0 41.2 81.25 41.4 Q80.9 41.6 80.9 42.05 80.9 42.7 81.55 42.9 L87.3 43.0 89.35 43.3 Q90.7 43.85 90.7 46.1 90.7 48.15 89.55 48.8 L84.05 49.35 79.65 49.15 Q78.65 49.0 78.2 48.25 77.85 47.65 77.85 46.6 L77.85 46.0 80.95 46.0 80.95 46.65 81.4 47.05 82.25 47.2 85.8 47.2 86.95 47.05 Q87.6 46.8 87.6 46.2 87.6 45.4 86.65 45.3 L82.2 45.3 79.4 45.05 Q78.5 44.75 78.1 43.95 77.8 43.4 77.8 42.25 77.8 40.4 78.65 39.75 79.35 39.15 81.25 39.0 L84.25 38.95 88.3 39.1 Q89.4 39.35 89.85 40.0 M93.1 49.35 L93.1 39.0 96.25 39.0 96.25 49.35 93.1 49.35 M98.95 39.0 L102.05 39.0 102.05 46.75 109.15 46.75 109.15 49.35 98.95 49.35 98.95 39.0 M41.0 49.35 L37.8 49.35 37.8 41.55 33.25 41.55 33.25 39.0 45.55 39.0 45.55 41.55 41.0 41.55 41.0 49.35 M47.3 39.0 L58.75 39.0 58.75 41.35 50.4 41.35 50.4 43.1 58.3 43.1 58.3 45.15 50.4 45.15 50.4 46.95 58.9 46.95 58.9 49.35 47.3 49.35 47.3 39.0 M64.1 41.55 L64.2 49.35 61.2 49.35 61.2 39.0 66.2 39.0 72.4 46.85 72.35 39.0 75.3 39.0 75.3 49.35 70.25 49.35 64.1 41.55 M5.85 41.4 L3.2 41.45 Q2.1 41.7 2.0 42.9 L2.0 44.25 Q2.0 45.95 2.4 46.4 2.8 46.8 3.8 46.85 L5.25 46.9 8.35 46.65 Q8.95 46.45 9.0 45.4 L12.0 45.4 12.0 45.9 Q12.0 47.45 11.65 48.0 11.25 48.9 9.95 49.15 L8.1 49.35 4.85 49.35 1.75 49.25 Q-0.25 49.0 -0.75 47.5 -1.1 46.3 -1.1 43.9 L-0.9 41.2 Q-0.5 39.85 0.85 39.3 L5.1 38.95 10.05 39.2 Q11.15 39.5 11.55 40.4 L11.85 42.25 11.85 42.6 8.85 42.6 8.75 41.9 Q8.45 41.45 7.35 41.4 L5.85 41.4 M18.3 39.0 L21.45 39.0 21.55 45.75 Q21.7 46.7 22.9 46.9 L26.95 46.9 Q28.05 46.85 28.25 46.05 L28.4 44.6 28.4 39.0 31.55 39.0 31.55 44.4 31.4 47.05 Q31.0 48.65 29.3 49.1 L27.1 49.4 24.8 49.4 21.45 49.35 Q18.95 49.05 18.5 47.05 L18.3 44.55 18.3 39.0 M-33.1 41.4 L-36.2 41.65 Q-36.7 41.9 -36.85 42.7 L-36.95 44.1 -36.8 45.95 Q-36.55 46.8 -35.3 46.85 L-33.5 46.9 -30.1 46.7 Q-29.45 46.55 -29.2 45.55 L-29.15 44.0 -29.2 42.8 Q-29.3 41.9 -29.9 41.65 L-31.35 41.4 -33.1 41.4 M-36.8 39.0 L-33.5 38.9 -28.7 39.05 Q-26.75 39.35 -26.25 41.1 L-26.05 42.75 -26.05 44.2 -26.25 47.1 Q-26.85 49.15 -29.4 49.35 L-35.9 49.4 -38.55 48.9 Q-39.65 48.4 -40.0 46.75 L-40.15 44.15 -40.1 42.45 -39.8 40.85 Q-39.25 39.25 -36.8 39.0 M-23.55 49.35 L-23.55 39.0 -18.55 39.0 -12.3 46.85 -12.4 39.0 -9.4 39.0 -9.4 49.35 -14.5 49.35 -20.65 41.55 -20.55 49.35 -23.55 49.35 M-6.75 49.35 L-6.75 39.0 -3.6 39.0 -3.6 49.35 -6.75 49.35 M-74.35 41.9 Q-74.55 41.5 -75.7 41.4 L-77.2 41.4 -79.85 41.45 Q-80.95 41.65 -81.05 42.9 L-81.05 44.25 Q-81.05 45.95 -80.65 46.4 -80.3 46.8 -79.3 46.85 L-77.85 46.9 -74.7 46.65 Q-74.1 46.4 -74.1 45.4 L-71.05 45.4 -71.05 45.9 Q-71.05 47.3 -71.4 48.0 -71.8 48.9 -73.05 49.15 L-74.9 49.35 -78.2 49.35 -81.25 49.25 Q-83.3 49.0 -83.8 47.5 -84.2 46.4 -84.2 43.9 L-83.95 41.2 Q-83.55 39.85 -82.2 39.3 L-77.95 38.95 -73.0 39.2 Q-71.9 39.55 -71.5 40.4 -71.15 41.1 -71.15 42.25 L-71.15 42.6 -74.2 42.6 -74.35 41.9 M-64.9 41.55 L-69.5 41.55 -69.5 39.0 -57.15 39.0 -57.15 41.55 -61.75 41.55 -61.75 49.35 -64.9 49.35 -64.9 41.55 M-52.3 44.15 L-47.35 44.15 -46.1 44.05 Q-45.55 43.85 -45.55 43.0 -45.55 42.0 -45.95 41.75 L-47.25 41.55 -52.3 41.55 -52.3 44.15 M-55.4 39.0 L-46.5 39.0 -44.3 39.2 Q-43.05 39.55 -42.7 40.5 -42.4 41.25 -42.4 42.35 -42.4 44.2 -43.3 44.85 L-45.3 45.35 -44.8 45.4 -43.3 45.7 Q-42.55 46.2 -42.55 47.7 L-42.55 49.35 -45.75 49.35 -45.75 48.05 Q-45.75 46.9 -46.55 46.75 L-47.45 46.7 -52.3 46.7 -52.3 49.35 -55.4 49.35 -55.4 39.0 M-112.15 41.35 L-120.45 41.35 -120.45 43.1 -112.6 43.1 -112.6 45.15 -120.45 45.15 -120.45 46.95 -112.05 46.95 -112.05 49.35 -123.6 49.35 -123.6 39.0 -112.15 39.0 -112.15 41.35 M-109.7 39.0 L-106.6 39.0 -106.6 46.75 -99.5 46.75 -99.5 49.35 -109.7 49.35 -109.7 39.0 M-94.7 43.1 L-86.85 43.1 -86.85 45.15 -94.7 45.15 -94.7 46.95 -86.3 46.95 -86.3 49.35 -97.8 49.35 -97.8 39.0 -86.4 39.0 -86.4 41.35 -94.7 41.35 -94.7 43.1" fill="#000000" fill-rule="evenodd" stroke="none"/>
      <path d="M7.15 -19.8 L11.4 -15.65 11.9 -15.65 13.0 -14.55 13.0 -1.3 7.15 2.05 7.15 0.55 10.4 -1.3 10.4 -14.55 7.15 -17.8 7.15 -19.8 M25.4 -15.65 L31.25 -21.45 33.8 -21.45 32.3 -19.95 32.3 -20.55 27.45 -15.65 25.4 -15.65 M1.25 -21.45 L3.85 -21.45 -2.0 -15.65 -4.55 -15.65 1.25 -21.45 M-18.15 -15.65 L-17.1 -14.55 -17.1 -1.3 -18.55 -0.45 -18.65 -0.45 -22.9 2.0 -22.9 0.55 -19.7 -1.3 -19.7 -14.55 -22.9 -17.8 -22.9 -19.8 -18.65 -15.65 -18.15 -15.65 M-4.55 -0.45 L-2.0 -0.45 3.55 2.85 -2.0 5.35 -4.55 5.35 0.95 2.85 -4.55 -0.45 M32.3 -17.95 L34.85 -20.55 34.85 2.05 32.3 0.6 32.3 -17.95 M43.15 -17.25 L44.85 -15.65 45.45 -15.65 46.4 -14.7 46.4 -1.3 44.95 -0.45 44.85 -0.45 40.55 2.05 40.55 0.6 43.85 -1.3 43.85 -14.7 42.2 -16.3 43.15 -17.25 M59.45 -15.65 L65.7 -21.45 68.3 -21.45 62.0 -15.65 59.45 -15.65 M58.95 -0.45 L61.55 -0.45 67.0 2.7 Q64.3 4.05 61.55 5.35 L58.95 5.35 64.45 2.7 58.95 -0.45 M77.3 -18.9 L79.85 -21.45 79.85 2.05 77.3 0.6 77.3 -18.9 M85.55 0.55 L88.75 -1.3 88.75 -15.65 85.55 -18.85 85.55 -21.45 91.35 -15.65 91.35 -1.3 85.55 2.05 85.55 0.55 M143.05 -21.45 L145.6 -21.45 139.35 -15.65 136.75 -15.65 143.05 -21.45 M122.8 -15.65 L123.75 -14.7 123.75 -1.3 122.3 -0.45 122.2 -0.45 117.95 2.0 117.95 0.55 121.15 -1.3 121.15 -14.7 119.6 -16.3 120.5 -17.25 122.2 -15.65 122.8 -15.65 M136.3 -0.45 L138.85 -0.45 144.3 2.7 138.85 5.35 136.3 5.35 141.75 2.7 136.3 -0.45 M-140.45 0.55 L-137.2 -1.3 -137.2 -14.55 -140.45 -17.8 -140.45 -19.8 -136.2 -15.65 -135.7 -15.65 -134.6 -14.55 -134.6 -1.3 -140.45 2.05 -140.45 0.55 M-122.05 -21.45 L-119.5 -21.45 -116.5 -18.5 -117.85 -17.2 -118.25 -17.6 -120.15 -15.65 -122.05 -15.65 -119.1 -18.5 -122.05 -21.45 M-116.95 -16.3 L-115.65 -17.6 -112.75 -14.7 -112.75 2.05 -115.3 0.6 -115.3 -14.7 -116.95 -16.3 M-103.75 -18.85 L-101.15 -21.45 -101.15 2.05 -103.75 0.55 -103.75 -18.85 M-90.65 -15.65 L-89.7 -14.7 -89.7 -1.3 -95.5 2.05 -95.5 0.6 -92.25 -1.3 -92.25 -14.7 -93.9 -16.3 -92.95 -17.25 -91.3 -15.65 -90.65 -15.65 M-71.6 -21.45 L-69.0 -21.45 -74.55 -15.65 -77.15 -15.65 -71.6 -21.45 M-77.15 -0.45 L-74.55 -0.45 -69.1 2.85 -74.55 5.35 -77.15 5.35 -71.7 2.85 -77.15 -0.45 M-58.85 -18.85 L-56.4 -21.25 -56.25 -21.05 -56.25 2.05 -58.85 0.55 -58.85 -18.85 M-27.9 -21.45 L-25.3 -21.45 -30.0 -15.65 -32.6 -15.65 -27.9 -21.45 M-37.85 -15.65 L-36.75 -14.4 -36.75 -0.1 -39.6 2.65 -40.9 1.45 -39.3 -0.1 -39.3 -14.4 -40.85 -16.2 -40.1 -17.0 -38.8 -15.65 -37.85 -15.65 M-43.95 -15.65 L-45.65 -15.65 -42.1 -19.0 -40.85 -17.75 -41.6 -17.0 -42.1 -17.6 -43.95 -15.65 M-22.9 4.85 L-22.9 3.55 -17.1 6.45 -17.1 20.3 -18.05 21.3 -18.65 21.3 -22.9 25.5 -22.9 23.6 -19.7 20.3 -19.7 6.45 -22.9 4.85 M-4.55 21.3 L-2.0 21.3 3.85 27.1 1.25 27.1 -4.55 21.3 M-40.85 4.85 L-39.55 3.45 -36.75 6.5 -36.75 23.95 -39.6 27.15 -40.9 25.75 -39.3 23.95 -39.3 6.5 -40.85 4.85 M-58.85 4.85 L-56.25 3.55 -56.25 27.15 -58.85 24.55 -58.85 4.85 M-70.4 4.85 L-67.8 3.55 -67.8 20.3 -70.75 23.2 -72.0 21.95 -70.4 20.3 -70.4 4.85 M-72.95 22.85 L-71.6 24.15 -74.55 27.1 -77.15 27.1 -74.2 24.15 -77.15 21.3 -75.2 21.3 -73.3 23.2 -72.95 22.85 M-92.9 22.9 L-93.9 21.9 -92.25 20.3 -92.25 6.45 -95.5 4.85 -95.5 3.55 -89.7 6.45 -89.7 20.3 -90.7 21.3 -91.3 21.3 -92.9 22.9 M-103.75 4.85 L-101.15 3.55 -101.15 27.15 -103.75 24.55 -103.75 4.85 M-115.3 4.85 L-112.75 3.55 -112.75 20.3 -115.65 23.2 -116.95 21.9 -115.3 20.3 -115.3 4.85 M-117.9 22.85 L-116.55 24.15 -119.5 27.1 -122.1 27.1 -119.15 24.15 -122.1 21.3 -120.1 21.3 -118.25 23.2 -117.9 22.85 M-140.45 25.45 L-140.45 23.55 -137.2 20.3 -137.2 6.45 -140.45 4.85 -140.45 3.55 -134.6 6.45 -134.6 20.3 -135.6 21.3 -136.2 21.3 -140.45 25.45 M141.45 21.9 L143.05 20.3 143.05 4.85 145.6 3.55 145.6 20.3 142.75 23.2 141.45 21.9 M138.25 21.3 L140.15 23.2 140.5 22.85 141.85 24.15 138.85 27.1 136.3 27.1 139.25 24.15 136.3 21.3 138.25 21.3 M110.65 4.85 L113.2 3.55 113.2 26.15 110.65 23.6 110.65 4.85 M110.65 25.55 L112.25 27.1 109.7 27.1 103.85 21.3 105.8 21.3 110.65 26.15 110.65 25.55 M85.55 25.5 L85.55 23.6 88.75 20.3 88.75 6.45 85.55 4.85 85.55 3.55 91.35 6.45 91.35 20.3 90.4 21.3 89.75 21.3 85.55 25.5 M77.3 4.85 L79.85 3.55 79.85 27.15 77.3 24.6 77.3 4.85 M65.7 4.85 L68.3 3.55 68.3 20.3 65.35 23.2 64.1 21.95 65.7 20.3 65.7 4.85 M63.15 22.85 L64.5 24.15 61.55 27.1 58.95 27.1 61.95 24.15 58.95 21.3 60.9 21.3 62.8 23.2 63.15 22.85 M32.3 4.85 L34.85 3.55 34.85 27.15 32.3 24.6 32.3 4.85 M7.15 4.85 L7.15 3.55 13.0 6.45 13.0 21.3 7.15 27.1 7.15 24.55 10.4 21.3 10.4 6.45 7.15 4.85" fill="#000000" fill-rule="evenodd" stroke="none"/>
      <path d="M11.9 -15.65 L11.4 -15.65 7.15 -19.8 5.5 -21.45 31.25 -21.45 25.4 -15.65 11.9 -15.65 M7.15 -17.8 L10.4 -14.55 10.4 -1.3 7.15 0.55 4.55 2.05 4.55 -20.45 7.15 -17.8 M-4.55 -15.65 L-18.15 -15.65 -18.65 -15.65 -22.9 -19.8 -24.55 -21.45 1.25 -21.45 -4.55 -15.65 M-18.55 -0.45 L-4.55 -0.45 0.95 2.85 -4.55 5.35 -18.65 5.35 -24.1 2.7 -22.9 2.0 -18.65 -0.45 -18.55 -0.45 M-22.9 0.55 L-25.5 2.05 -25.5 -20.45 -22.9 -17.8 -19.7 -14.55 -19.7 -1.3 -22.9 0.55 M32.3 -19.95 L32.3 -17.95 32.3 0.6 32.3 2.05 26.5 -1.3 26.5 -14.7 27.45 -15.65 32.3 -20.55 32.3 -19.95 M45.45 -15.65 L44.85 -15.65 43.15 -17.25 41.85 -18.5 44.85 -21.45 65.7 -21.45 59.45 -15.65 45.45 -15.65 M42.2 -16.3 L43.85 -14.7 43.85 -1.3 40.55 0.6 38.0 2.05 38.0 -14.7 40.9 -17.6 42.2 -16.3 M40.55 2.05 L44.85 -0.45 44.95 -0.45 58.95 -0.45 64.45 2.7 58.95 5.35 44.85 5.35 39.35 2.7 40.55 2.05 M77.3 0.6 L77.3 2.05 71.45 -1.3 71.45 -15.65 77.3 -21.45 77.3 -18.9 77.3 0.6 M85.55 -18.85 L88.75 -15.65 88.75 -1.3 85.55 0.55 82.95 2.05 82.95 -21.45 85.55 -18.85 M120.5 -17.25 L119.2 -18.5 122.2 -21.45 143.05 -21.45 136.75 -15.65 122.8 -15.65 122.2 -15.65 120.5 -17.25 M122.3 -0.45 L136.3 -0.45 141.75 2.7 136.3 5.35 122.2 5.35 116.7 2.7 117.95 2.0 122.2 -0.45 122.3 -0.45 M117.95 0.55 L115.35 2.05 115.35 -14.7 118.3 -17.6 119.6 -16.3 121.15 -14.7 121.15 -1.3 117.95 0.55 M-140.45 -17.8 L-137.2 -14.55 -137.2 -1.3 -140.45 0.55 -143.05 2.05 -143.05 -20.45 -140.45 -17.8 M-135.7 -15.65 L-136.2 -15.65 -140.45 -19.8 -142.1 -21.45 -122.05 -21.45 -119.1 -18.5 -122.05 -15.65 -135.7 -15.65 M-117.85 -17.2 L-116.95 -16.3 -115.3 -14.7 -115.3 0.6 -115.3 2.05 -121.1 -1.3 -121.1 -14.7 -120.15 -15.65 -118.25 -17.6 -117.85 -17.2 M-103.75 0.55 L-103.75 2.05 -109.6 -1.3 -109.6 -15.65 -103.75 -21.45 -103.75 -18.85 -103.75 0.55 M-95.5 0.6 L-98.05 2.05 -98.05 -14.7 -95.2 -17.6 -93.9 -16.3 -92.25 -14.7 -92.25 -1.3 -95.5 0.6 M-92.95 -17.25 L-94.25 -18.5 -91.3 -21.45 -71.6 -21.45 -77.15 -15.65 -90.65 -15.65 -91.3 -15.65 -92.95 -17.25 M-77.15 5.35 L-82.55 5.35 Q-85.25 4.05 -88.0 2.7 L-82.55 -0.45 -77.15 -0.45 -71.7 2.85 -77.15 5.35 M-58.85 0.55 L-58.85 2.05 -64.65 -1.3 -64.65 -15.65 -58.85 -21.45 -58.85 -18.85 -58.85 0.55 M-56.4 -21.25 L-56.55 -21.45 -27.9 -21.45 -32.6 -15.65 -37.85 -15.65 -38.8 -15.65 -40.1 -17.0 -40.85 -17.75 -42.1 -19.0 -45.65 -15.65 -51.95 -15.65 -56.25 -21.05 -56.4 -21.25 M-40.9 1.45 L-42.2 2.65 -45.15 -0.15 -45.15 -14.4 -43.95 -15.65 -42.1 -17.6 -41.6 -17.0 -40.85 -16.2 -39.3 -14.4 -39.3 -0.1 -40.9 1.45 M-18.05 21.3 L-4.55 21.3 1.25 27.1 -24.55 27.1 -22.9 25.5 -18.65 21.3 -18.05 21.3 M-22.9 23.6 L-25.5 26.25 -25.5 3.55 -22.9 4.85 -19.7 6.45 -19.7 20.3 -22.9 23.6 M-40.9 25.75 L-42.2 27.15 -45.15 23.95 -45.15 6.6 -42.1 3.45 -40.85 4.85 -39.3 6.5 -39.3 23.95 -40.9 25.75 M-58.85 24.55 L-58.85 27.15 -64.65 21.3 -64.65 6.45 -58.85 3.55 -58.85 4.85 -58.85 24.55 M-75.2 21.3 L-76.2 20.3 -76.2 6.45 -70.4 3.55 -70.4 4.85 -70.4 20.3 -72.0 21.95 -72.95 22.85 -73.3 23.2 -75.2 21.3 M-77.15 27.1 L-91.3 27.1 -94.25 24.15 -92.9 22.9 -91.3 21.3 -90.7 21.3 -77.15 21.3 -74.2 24.15 -77.15 27.1 M-93.9 21.9 L-95.2 23.2 -98.05 20.3 -98.05 3.55 -95.5 4.85 -92.25 6.45 -92.25 20.3 -93.9 21.9 M-103.75 24.55 L-103.75 27.15 -109.6 21.3 -109.6 6.45 -103.75 3.55 -103.75 4.85 -103.75 24.55 M-120.1 21.3 L-121.1 20.3 -121.1 6.45 -115.3 3.55 -115.3 4.85 -115.3 20.3 -116.95 21.9 -117.9 22.85 -118.25 23.2 -120.1 21.3 M-122.1 27.1 L-142.15 27.1 -140.45 25.45 -136.2 21.3 -135.6 21.3 -122.1 21.3 -119.15 24.15 -122.1 27.1 M-140.45 23.55 L-143.05 26.15 -143.05 3.55 -140.45 4.85 -137.2 6.45 -137.2 20.3 -140.45 23.55 M143.05 4.85 L143.05 20.3 141.45 21.9 140.5 22.85 140.15 23.2 138.25 21.3 137.25 20.3 137.25 6.45 143.05 3.55 143.05 4.85 M136.3 21.3 L139.25 24.15 136.3 27.1 115.35 27.1 121.7 21.3 136.3 21.3 M105.8 21.3 L104.8 20.3 104.8 6.45 110.65 3.55 110.65 4.85 110.65 23.6 110.65 25.55 110.65 26.15 105.8 21.3 M109.7 27.1 L83.9 27.1 85.55 25.5 89.75 21.3 90.4 21.3 103.85 21.3 109.7 27.1 M85.55 23.6 L82.95 26.25 82.95 3.55 85.55 4.85 88.75 6.45 88.75 20.3 85.55 23.6 M77.3 24.6 L77.3 27.15 71.45 21.3 71.45 6.45 77.3 3.55 77.3 4.85 77.3 24.6 M60.9 21.3 L59.9 20.3 59.9 6.45 65.7 3.55 65.7 4.85 65.7 20.3 64.1 21.95 63.15 22.85 62.8 23.2 60.9 21.3 M58.95 27.1 L38.0 27.1 44.35 21.3 58.95 21.3 61.95 24.15 58.95 27.1 M32.3 24.6 L32.3 27.15 26.5 21.3 26.5 6.45 32.3 3.55 32.3 4.85 32.3 24.6 M7.15 24.55 L4.55 27.1 4.55 3.55 7.15 4.85 10.4 6.45 10.4 21.3 7.15 24.55" fill="#ffffff" fill-rule="evenodd" stroke="none"/>
    </g>
  </defs>
</svg>
