<?xml version="1.0" encoding="UTF-8" standalone="no"?>
<svg xmlns:xlink="http://www.w3.org/1999/xlink" height="300.0px" width="300.0px" xmlns="http://www.w3.org/2000/svg">
  <g transform="matrix(1.0, 0.0, 0.0, 1.0, 0.0, 0.0)">
    <use height="249.3" transform="matrix(1.0, 0.0, 0.0, 1.0, 8.1, 7.45)" width="282.75" xlink:href="#shape0"/>
  </g>
  <defs>
    <g id="shape0" transform="matrix(1.0, 0.0, 0.0, 1.0, -8.1, -7.45)">
      <path d="M127.3 237.3 L125.8 237.25 124.05 237.5 122.25 237.5 122.4 240.95 130.9 246.4 130.9 256.35 119.4 256.35 119.25 255.85 119.4 255.15 119.4 247.1 119.75 247.0 120.45 247.1 122.45 247.1 122.45 253.2 122.65 253.35 124.35 253.35 124.55 253.1 126.05 253.25 127.8 253.25 127.6 251.0 127.75 248.35 123.6 245.8 119.65 243.15 119.45 243.3 119.05 243.0 119.25 241.65 119.05 234.6 130.5 234.55 130.5 242.0 130.0 242.1 128.55 242.0 128.0 242.1 127.5 241.85 127.5 237.65 127.3 237.3 M161.55 234.2 L162.0 234.45 162.25 234.7 Q162.1 235.35 162.1 236.3 L162.2 243.4 161.45 243.3 160.75 243.0 160.5 243.1 160.35 242.8 159.8 243.0 158.85 242.8 158.85 239.1 158.95 238.85 159.05 238.2 159.05 237.25 154.4 237.45 154.8 243.15 154.65 243.55 154.65 249.95 154.55 250.25 154.7 250.45 154.55 251.2 154.7 251.55 154.65 252.75 155.9 252.9 159.4 252.9 159.4 247.75 162.3 247.0 162.35 250.95 162.45 251.2 162.35 251.35 162.35 255.75 162.2 256.0 158.05 255.85 158.0 255.75 151.9 255.85 151.6 253.6 151.4 248.6 151.5 247.3 151.4 246.2 Q151.4 243.65 151.65 242.7 L151.2 242.2 151.3 241.6 151.5 241.2 151.3 241.15 151.5 239.8 151.3 239.4 151.5 239.25 151.5 234.3 161.2 234.3 161.55 234.2 M86.95 234.35 L87.1 234.45 87.3 234.35 88.0 234.45 89.0 234.45 89.7 234.55 90.0 234.35 90.85 234.55 92.4 234.45 92.55 235.9 92.55 236.3 92.75 237.85 92.35 238.25 89.85 238.0 88.75 238.15 88.8 243.4 88.8 243.6 88.75 243.8 88.95 251.95 88.8 252.3 88.9 253.35 Q88.9 254.15 89.15 254.45 L88.95 254.8 Q88.8 255.1 88.8 255.45 L88.95 256.3 88.6 256.65 85.7 256.65 85.55 256.35 85.3 238.25 80.6 238.25 80.75 235.45 80.65 235.2 80.75 234.9 80.5 234.45 80.6 234.1 82.4 234.35 86.95 234.35 M100.45 238.75 L100.15 234.55 103.3 234.8 103.65 245.1 103.4 245.3 103.8 245.55 103.25 246.0 103.65 253.3 108.15 253.15 108.0 234.8 110.0 234.7 110.9 234.8 111.2 243.85 111.35 244.6 111.05 244.8 111.4 245.5 111.2 245.65 111.35 250.85 111.2 252.9 111.35 253.0 111.05 253.1 111.35 256.7 110.9 256.4 108.5 256.35 108.4 256.5 105.6 256.35 105.5 256.5 101.05 256.25 100.7 256.35 100.25 238.95 100.45 238.75 M48.65 234.9 L48.9 235.95 48.9 236.25 49.25 237.2 49.4 238.25 50.7 243.35 52.3 252.0 53.05 256.75 50.55 256.75 49.55 252.65 44.7 252.65 44.05 256.55 41.3 256.55 43.45 240.7 43.6 240.45 43.95 238.65 44.2 237.85 44.65 235.0 48.65 234.9 M46.4 244.55 L45.5 249.2 48.95 249.2 46.95 239.9 46.4 244.55 M60.15 242.1 L60.35 241.9 60.35 235.1 72.75 235.1 72.75 241.4 Q72.75 242.35 72.9 243.0 L72.85 243.05 72.75 243.1 72.75 244.15 72.5 244.15 72.25 244.2 71.9 244.1 71.65 244.4 71.05 244.2 70.7 244.5 70.65 244.3 68.85 244.75 68.85 238.5 66.3 238.7 63.65 238.8 63.95 243.15 64.05 243.8 64.05 244.35 64.25 244.8 64.35 251.25 64.4 251.4 64.25 251.55 64.35 253.05 69.15 252.85 69.25 252.75 69.05 252.5 69.25 251.6 Q68.95 251.1 68.95 249.65 L68.8 248.85 68.85 248.9 69.05 248.6 68.85 248.55 69.05 247.65 70.25 247.65 Q70.9 247.65 71.35 247.25 L71.65 247.4 72.4 247.3 72.7 247.35 72.9 247.7 72.95 249.35 73.2 249.3 73.4 249.35 73.25 249.65 73.0 249.6 72.9 249.7 Q72.9 250.85 73.05 251.45 L72.9 252.9 72.8 252.9 72.65 252.95 72.9 253.8 72.75 254.25 72.75 255.5 72.55 256.4 70.85 256.15 70.45 256.4 60.75 256.3 Q60.45 254.9 60.45 253.4 L60.35 252.8 60.6 252.15 60.25 245.2 60.35 245.15 60.3 243.4 60.2 243.1 60.15 242.75 60.35 242.4 60.25 242.25 60.15 242.1 M33.4 234.7 L33.2 236.3 33.3 243.4 32.55 243.3 31.9 243.0 31.65 243.1 31.5 242.8 30.95 243.0 30.0 242.8 30.0 239.1 30.1 238.6 30.1 237.25 25.55 237.45 25.75 241.35 25.9 243.15 25.85 243.4 25.75 243.55 25.75 249.95 25.7 250.25 25.85 250.45 25.7 251.2 25.85 251.55 25.75 252.75 27.05 252.9 30.5 252.9 30.5 247.75 33.45 247.0 33.5 250.95 33.6 251.2 33.5 251.35 33.5 255.75 33.3 256.0 29.15 255.85 29.1 255.75 23.0 255.85 Q22.8 255.45 22.75 253.6 L22.6 250.2 22.5 248.6 22.6 247.3 22.6 246.95 22.5 246.2 Q22.5 243.95 22.75 242.7 L22.3 242.2 22.45 241.6 Q22.45 241.2 22.6 241.2 L22.35 241.15 22.6 239.8 22.35 239.4 22.6 239.25 22.6 234.3 32.35 234.3 32.65 234.2 33.05 234.45 33.4 234.7 M257.85 234.75 L257.9 242.0 258.1 242.2 257.85 242.65 258.1 243.0 258.1 248.15 258.0 248.4 258.1 248.5 257.95 253.6 257.85 253.75 257.85 255.35 257.95 256.2 255.35 256.2 249.85 242.75 250.0 256.05 247.1 256.15 246.8 254.25 246.95 254.1 246.45 248.85 246.7 248.25 246.6 235.65 246.45 234.65 248.75 234.75 248.9 234.65 249.25 234.75 249.9 234.65 250.5 236.95 250.9 237.4 251.85 239.75 252.15 239.95 252.0 240.15 252.55 241.15 252.4 241.3 254.85 247.35 255.05 247.7 254.9 244.25 254.6 241.05 254.75 240.85 254.75 238.1 254.5 237.9 254.75 237.7 254.75 234.8 257.85 234.75 M269.4 234.3 L271.25 241.35 Q271.65 239.25 273.2 234.35 L276.6 234.25 273.8 241.7 273.2 244.4 Q272.85 245.95 272.85 249.15 L273.05 255.95 269.65 256.1 269.4 251.25 269.75 251.0 269.4 250.7 269.55 250.2 269.5 247.25 269.4 244.4 265.9 234.25 269.4 234.3 M212.5 240.55 L216.4 240.9 216.85 240.4 216.85 238.35 212.5 238.35 212.5 240.55 M212.85 244.2 L212.85 255.95 210.5 255.85 209.0 255.95 208.85 252.9 209.0 252.75 209.0 236.3 208.85 235.0 220.05 235.0 220.05 244.2 212.85 244.2 M232.4 235.05 L234.8 234.9 235.05 235.95 235.0 236.25 Q235.3 236.45 235.35 237.2 L238.4 252.0 239.15 256.75 236.65 256.75 235.65 252.65 230.8 252.65 230.15 256.55 227.4 256.55 229.55 240.7 229.7 240.45 230.05 238.65 230.35 237.85 230.75 235.0 232.4 235.05 M232.5 244.55 L231.6 249.2 235.1 249.2 233.05 239.9 232.5 244.55 M181.65 234.65 L182.0 256.1 170.75 256.1 170.3 242.75 170.2 242.4 170.3 240.5 170.35 238.0 170.5 237.65 170.45 234.5 175.8 234.65 181.65 234.65 M178.05 237.75 L173.65 237.75 173.9 241.9 173.8 242.0 173.9 242.7 173.8 243.0 173.9 243.4 173.75 243.65 173.9 243.75 173.9 253.15 178.65 253.15 178.3 238.15 178.05 237.75 M202.3 234.2 Q202.15 234.55 202.15 235.65 L202.35 236.6 202.2 238.1 202.5 241.6 202.35 242.25 202.6 242.55 202.35 243.25 202.5 246.05 202.2 247.4 202.6 251.3 202.6 253.05 202.5 253.4 202.6 256.15 202.25 256.35 199.45 256.45 199.15 256.05 199.3 244.4 195.55 250.35 195.55 249.85 193.25 245.9 192.9 245.1 193.4 256.4 190.1 256.4 189.7 254.6 189.3 234.95 189.9 234.5 192.6 234.5 195.65 241.75 199.3 234.2 202.3 234.2" fill="#000000" fill-rule="evenodd" stroke="none"/>
      <path d="M159.2 206.7 L159.2 200.5 167.45 200.5 178.95 200.1 179.05 206.4 175.4 205.85 172.8 206.15 170.2 206.4 162.1 206.6 Q161.45 206.55 160.2 207.05 159.65 206.7 159.2 206.7" fill="url(#gradient0)" fill-rule="evenodd" stroke="none"/>
      <path d="M130.55 206.4 Q128.8 205.85 126.9 205.85 L124.3 206.15 121.65 206.4 113.6 206.6 Q112.95 206.55 111.65 207.05 L110.65 206.7 110.65 200.5 118.9 200.5 130.45 200.1 130.55 206.4" fill="url(#gradient1)" fill-rule="evenodd" stroke="none"/>
      <path d="M185.9 183.3 L187.05 183.15 188.35 183.3 189.5 183.25 190.75 183.15 Q191.4 183.15 191.85 183.5 L203.95 183.55 Q203.95 184.05 204.35 184.05 L204.6 183.95 205.0 184.5 Q204.5 184.5 204.2 185.05 L204.5 198.65 188.35 198.2 188.65 209.45 189.0 222.65 Q189.0 223.2 188.45 223.55 L187.3 223.15 Q186.95 223.25 186.75 223.55 L184.95 223.15 183.35 223.55 182.85 184.75 182.55 183.8 182.65 183.15 184.3 183.25 185.9 183.3 M188.8 192.65 L198.95 192.65 198.95 188.9 188.05 188.9 Q189.0 191.55 188.8 192.65 M207.7 182.6 L228.0 182.85 228.5 183.2 Q228.35 183.8 228.35 187.45 L228.35 190.9 Q228.35 191.3 228.7 191.5 228.35 192.6 228.35 194.45 L228.5 198.05 223.6 198.4 224.2 202.85 Q224.45 203.0 224.9 205.0 L226.65 213.1 226.65 213.25 226.5 213.9 228.35 223.05 227.25 223.15 223.35 223.15 217.45 198.25 215.85 198.4 214.15 198.25 213.55 198.5 213.95 209.2 Q213.95 210.5 213.55 210.8 L213.75 211.45 213.95 212.15 213.8 213.05 214.1 214.9 213.55 215.2 214.1 215.95 Q213.55 218.25 213.55 221.0 L213.8 222.8 207.9 222.8 208.05 221.05 207.9 215.6 207.7 209.6 207.4 203.7 207.4 184.8 Q207.4 183.25 207.7 182.6 M222.5 188.85 L213.35 188.85 213.25 190.75 213.25 191.7 222.5 191.7 222.6 190.15 222.5 188.85 M240.15 183.1 L239.95 191.45 239.95 209.75 Q239.95 218.6 239.55 224.05 L233.05 223.15 233.05 184.2 Q233.05 183.8 232.5 183.65 L238.6 183.1 240.15 183.1 M251.0 194.15 L251.0 197.4 251.3 199.9 251.3 200.85 Q251.3 201.5 251.65 201.8 L251.75 213.75 251.85 214.0 251.65 214.3 251.75 217.05 260.8 216.65 260.85 216.45 260.6 216.1 260.9 214.35 Q260.45 213.5 260.45 210.85 260.45 209.95 260.05 209.25 L260.15 209.3 260.6 208.85 Q260.5 208.7 260.25 208.7 260.25 208.2 260.6 207.1 L261.05 207.05 262.75 207.05 Q264.25 207.05 264.8 206.3 L265.45 206.6 266.8 206.4 267.35 206.45 267.7 207.15 267.8 210.2 268.25 210.15 268.6 210.25 268.3 210.8 267.9 210.7 267.7 210.85 Q267.7 213.0 268.0 214.1 267.6 216.0 267.7 216.7 L267.6 216.7 267.25 216.9 267.7 218.45 267.45 219.25 267.45 221.65 Q266.95 222.85 267.1 223.25 L263.9 222.85 263.15 223.25 245.15 223.1 Q244.5 220.55 244.5 217.75 L244.4 216.55 Q244.85 216.35 244.85 215.35 L244.25 202.5 244.4 202.4 244.35 199.15 244.15 198.55 244.05 197.9 Q244.05 197.6 244.4 197.25 L244.2 196.95 244.05 196.65 244.4 196.4 244.4 183.75 267.45 183.75 267.45 195.4 Q267.45 197.45 267.7 198.35 L267.65 198.45 267.45 198.55 267.45 200.5 266.45 200.6 265.85 200.4 265.45 201.05 264.35 200.6 263.7 201.2 Q263.55 201.15 263.55 200.8 L260.25 201.6 260.25 190.0 255.35 190.4 250.5 190.6 251.0 194.15 M280.55 193.35 L284.55 183.6 290.8 183.65 283.9 198.55 290.85 221.75 290.5 222.85 285.6 222.85 283.35 215.6 283.25 215.15 280.25 206.35 277.4 211.7 277.4 222.85 271.95 222.85 Q271.75 218.1 271.25 216.15 L271.7 215.55 271.25 183.1 277.4 183.35 277.4 193.95 Q277.4 199.0 277.6 200.3 L280.3 193.35 280.55 193.35 M13.0 184.3 Q13.0 185.45 13.3 185.9 L13.4 186.45 13.25 186.85 Q13.75 188.75 14.95 200.1 L19.15 183.15 Q19.65 184.15 19.7 185.65 L20.05 188.15 21.35 193.25 22.7 200.65 23.2 201.1 25.05 182.75 29.4 182.75 Q29.7 182.9 29.7 183.4 L29.4 185.2 29.5 185.75 29.3 190.95 29.45 192.55 29.3 192.55 29.35 195.7 Q29.35 198.15 28.7 199.45 L28.8 199.85 28.95 200.2 28.65 200.45 28.0 207.65 Q27.55 212.95 26.9 214.5 26.9 214.85 27.3 214.9 L25.9 218.9 26.05 220.2 25.95 221.7 25.85 223.15 21.6 223.15 20.9 222.65 20.9 221.7 19.35 210.9 19.7 209.35 Q19.7 208.9 19.35 208.6 L17.1 223.15 16.9 223.0 12.5 223.15 Q11.55 217.1 11.25 213.65 L10.85 211.4 Q10.4 209.3 10.4 204.4 L10.1 204.0 9.25 193.15 Q8.8 186.7 8.1 182.4 L13.35 182.4 Q13.0 183.15 13.0 184.3 M33.95 181.7 L40.8 181.7 41.85 198.25 49.5 198.25 Q50.0 197.45 50.0 196.5 L49.65 194.5 Q49.35 193.25 49.35 192.55 L49.45 186.55 49.15 181.45 50.95 181.6 55.8 181.2 Q56.15 181.9 56.15 182.65 L56.05 183.3 Q57.25 195.25 57.25 212.35 L57.0 221.55 57.55 223.25 49.15 223.25 Q49.8 222.35 50.0 221.25 L48.9 205.45 42.35 205.45 41.65 206.0 42.4 223.7 39.3 223.25 35.55 223.4 33.95 195.85 33.95 181.7 M74.65 185.3 L74.6 185.8 Q75.15 186.2 75.35 187.55 L75.6 189.6 78.05 199.0 81.0 215.1 82.35 223.9 77.7 223.9 75.9 216.3 66.85 216.3 65.65 223.6 60.55 223.6 64.55 194.1 64.85 193.7 Q64.9 192.8 65.45 190.25 L65.95 188.85 Q66.45 187.2 66.75 183.55 L69.8 183.7 74.3 183.35 74.65 185.3 M100.25 182.4 L101.6 182.7 Q101.75 182.4 102.15 182.25 L103.65 182.7 106.7 182.4 106.95 185.2 106.95 185.95 Q106.95 188.0 107.2 188.85 L106.5 189.6 101.85 189.1 99.75 189.25 99.95 199.2 99.75 199.9 99.95 206.4 100.05 210.5 100.1 214.7 100.2 214.95 99.95 215.7 Q100.2 216.2 100.1 217.65 100.1 219.05 100.55 219.7 100.1 219.8 100.2 220.25 99.95 220.75 99.95 221.6 99.95 222.6 100.2 223.1 L99.55 223.7 94.2 223.7 93.9 223.15 93.4 189.6 84.65 189.6 84.95 187.0 85.0 184.35 84.9 183.85 85.0 183.35 84.45 182.4 84.65 181.9 86.35 182.1 88.9 182.25 91.4 182.4 96.45 182.25 96.75 182.4 97.0 182.35 97.2 182.25 98.35 182.4 100.25 182.4 M138.55 193.7 L139.1 190.25 139.65 188.85 140.45 183.55 143.45 183.7 147.95 183.35 148.35 185.3 148.3 185.8 Q148.8 186.2 148.95 187.55 L149.3 189.6 151.65 199.0 154.6 215.1 Q155.3 218.25 155.95 223.9 L151.4 223.9 149.6 216.3 140.55 216.3 139.25 223.6 134.2 223.6 138.2 194.1 138.55 193.7 M142.0 209.85 L148.45 209.85 144.65 192.65 Q144.55 196.4 143.65 201.3 L142.0 209.85 M68.4 209.85 L74.75 209.85 70.95 192.65 Q70.9 196.25 70.0 201.3 L68.4 209.85" fill="url(#gradient2)" fill-rule="evenodd" stroke="none"/>
      <path d="M185.2 189.1 L128.05 200.35 Q122.95 150.25 122.4 116.6 121.3 49.35 126.25 27.8 126.55 21.65 128.75 16.1 133.0 5.05 142.2 8.15 152.2 11.45 162.65 53.7 171.75 90.3 173.1 115.65 174.0 132.3 177.85 155.15 179.8 166.6 185.2 189.1" fill="url(#gradient3)" fill-rule="evenodd" stroke="none"/>
      <path d="M208.95 58.75 Q211.4 69.9 210.0 82.45 208.45 95.75 203.05 106.3 189.85 132.1 161.9 129.65 L161.9 103.7 166.3 101.6 Q171.65 98.65 176.1 94.55 190.5 81.55 191.4 62.2 192.35 41.9 200.0 45.5 202.75 46.8 205.55 51.1 208.15 55.1 208.95 58.75" fill="#49653a" fill-rule="evenodd" stroke="none"/>
      <path d="M134.45 9.5 Q132.25 26.2 132.8 103.55 133.1 142.15 133.8 177.45 L130.95 180.25 Q123.45 110.45 128.2 53.0 130.6 24.25 134.45 9.5" fill="#a1b794" fill-rule="evenodd" stroke="none"/>
      <path d="M137.25 10.25 Q146.5 41.85 147.4 110.4 147.85 144.65 146.45 172.55 L137.25 10.25" fill="#a1b794" fill-rule="evenodd" stroke="none"/>
      <path d="M153.95 73.5 Q148.0 39.75 142.2 11.6 159.35 67.85 164.8 124.1 167.5 152.15 166.8 169.05 165.9 140.95 153.95 73.5" fill="#a1b794" fill-rule="evenodd" stroke="none"/>
      <path d="M202.3 80.75 Q204.45 71.4 203.95 63.65 207.05 92.55 191.5 108.15 183.15 116.5 173.85 118.45 196.65 104.85 202.3 80.75" fill="#a1b794" fill-rule="evenodd" stroke="none"/>
      <path d="M199.15 55.2 Q203.5 81.55 188.4 98.8 180.85 107.35 172.4 110.7 189.55 96.2 196.1 74.3 199.3 63.25 199.15 55.2" fill="#a1b794" fill-rule="evenodd" stroke="none"/>
    </g>
    <linearGradient gradientTransform="matrix(0.0121, 0.0, 0.0, 0.0042, 169.1, 203.55)" gradientUnits="userSpaceOnUse" id="gradient0" spreadMethod="pad" x1="-819.2" x2="819.2">
      <stop offset="0.0" stop-color="#603c06"/>
      <stop offset="1.0" stop-color="#603c06"/>
    </linearGradient>
    <linearGradient gradientTransform="matrix(0.0121, 0.0, 0.0, 0.0042, 120.6, 203.55)" gradientUnits="userSpaceOnUse" id="gradient1" spreadMethod="pad" x1="-819.2" x2="819.2">
      <stop offset="0.0" stop-color="#603c06"/>
      <stop offset="1.0" stop-color="#603c06"/>
    </linearGradient>
    <linearGradient gradientTransform="matrix(0.0, -0.013, 0.0247, 0.0, 218.05, 202.85)" gradientUnits="userSpaceOnUse" id="gradient2" spreadMethod="pad" x1="-819.2" x2="819.2">
      <stop offset="0.0" stop-color="#301e03"/>
      <stop offset="1.0" stop-color="#603c06"/>
    </linearGradient>
    <linearGradient gradientTransform="matrix(0.0, -0.0352, 0.1051, 0.0, 143.7, 154.25)" gradientUnits="userSpaceOnUse" id="gradient3" spreadMethod="pad" x1="-819.2" x2="819.2">
      <stop offset="0.0" stop-color="#49653a" stop-opacity="0.0"/>
      <stop offset="0.6431372549019608" stop-color="#49653a"/>
    </linearGradient>
  </defs>
</svg>
