<?xml version="1.0" encoding="UTF-8" standalone="no"?>
<svg xmlns:xlink="http://www.w3.org/1999/xlink" height="300.0px" width="300.0px" xmlns="http://www.w3.org/2000/svg">
  <g transform="matrix(1.0, 0.0, 0.0, 1.0, 0.0, 0.0)">
    <use height="277.55" transform="matrix(1.0, 0.0, 0.0, 1.0, 10.1, 33.75)" width="289.95" xlink:href="#shape0"/>
  </g>
  <defs>
    <g id="shape0" transform="matrix(1.0, 0.0, 0.0, 1.0, -10.1, -33.75)">
      <path d="M300.05 172.5 Q300.05 230.0 257.55 270.65 215.1 311.3 155.05 311.3 95.05 311.3 52.55 270.65 10.1 230.0 10.1 172.5 10.1 115.05 52.55 74.4 95.05 33.75 155.05 33.75 215.1 33.75 257.55 74.4 300.05 115.05 300.05 172.5" fill="url(#gradient0)" fill-rule="evenodd" stroke="none"/>
      <path d="M256.05 94.0 L259.15 94.05 Q260.95 94.6 261.3 96.3 L262.4 100.45 Q263.1 102.85 262.4 122.95 267.1 121.0 270.15 122.1 273.25 123.15 275.5 126.3 277.8 129.6 278.25 133.55 278.7 137.7 277.45 142.9 276.25 148.05 274.3 149.95 272.35 151.75 271.0 152.2 L267.05 152.7 263.05 152.55 Q261.65 152.3 260.95 151.7 L259.5 150.1 Q258.75 149.0 258.8 147.8 L259.0 145.5 Q259.15 144.5 260.4 143.75 261.7 143.0 263.2 143.0 264.85 142.9 266.8 142.2 268.9 141.45 269.1 139.9 269.25 138.2 268.8 136.25 268.35 134.1 267.6 133.65 266.95 133.15 266.4 133.05 265.8 133.05 264.75 133.75 263.65 134.5 263.4 136.15 L263.05 138.7 262.7 140.2 262.0 141.4 261.4 142.2 Q261.2 142.5 260.4 142.7 L258.55 143.0 256.05 142.65 Q254.5 142.3 253.9 141.05 L252.7 137.9 Q252.05 136.1 252.05 131.35 252.05 126.5 252.25 125.15 253.0 97.5 253.85 96.0 254.7 94.45 256.05 94.0 M242.7 121.15 Q244.6 122.3 245.5 123.75 246.35 125.1 246.65 126.95 L246.85 130.55 246.8 134.5 246.55 137.95 Q246.25 139.25 245.75 139.9 245.2 140.55 244.35 140.75 L242.4 141.15 240.1 140.85 Q238.8 140.45 238.2 139.7 237.5 138.85 237.45 138.15 L237.1 133.0 Q235.6 133.5 235.05 135.05 L234.35 137.6 Q234.2 138.7 233.7 139.4 L232.15 141.15 230.1 142.95 Q229.05 143.7 228.05 143.7 L226.0 143.55 Q224.9 143.4 224.05 142.9 223.15 142.35 222.55 141.2 221.9 139.95 221.95 138.8 221.95 137.5 221.55 137.35 L220.55 137.35 Q219.9 137.5 219.1 138.5 218.35 139.55 218.05 140.65 L217.4 142.95 216.35 144.9 214.45 146.15 Q213.25 146.65 211.6 146.65 L209.05 146.35 Q208.1 146.15 207.25 144.55 206.5 142.95 206.55 141.45 206.55 139.95 206.85 137.1 207.65 122.35 208.5 121.25 209.25 120.2 211.2 119.6 L214.4 119.35 Q215.7 119.8 216.2 120.8 L216.7 122.35 216.8 123.75 216.9 124.75 218.35 123.25 Q219.75 121.65 221.05 120.95 L223.75 120.35 226.7 120.35 Q228.3 120.45 228.85 120.9 L229.9 122.05 Q230.3 122.75 231.8 123.75 234.3 120.75 235.8 120.2 L239.0 119.85 Q240.9 120.0 242.7 121.15 M199.85 121.05 Q201.55 123.35 201.45 127.45 201.45 131.35 200.8 134.2 200.2 137.0 198.45 139.15 196.65 141.35 193.8 141.75 L188.55 141.95 Q186.15 141.8 183.75 140.05 181.25 138.3 179.9 136.2 178.6 134.0 178.6 130.85 178.7 127.35 178.95 125.0 179.2 122.35 180.9 119.95 182.55 117.55 187.8 115.0 L191.75 115.15 Q193.75 115.5 196.0 117.15 198.25 118.85 199.85 121.05 M175.2 120.55 Q175.8 121.6 175.95 124.0 176.05 126.35 175.65 129.8 175.2 133.25 173.25 137.45 171.3 141.7 169.25 143.05 167.15 144.5 165.9 144.7 L163.2 144.9 160.5 144.75 Q159.35 144.7 158.5 144.1 L157.1 143.1 155.95 141.8 154.95 140.25 Q152.85 142.55 151.7 143.05 L148.6 143.25 145.3 142.45 Q143.9 141.95 142.9 140.8 141.85 139.6 141.25 138.05 140.65 136.75 140.5 132.95 140.4 128.7 140.6 125.4 L140.75 119.35 Q141.05 118.1 141.8 116.8 142.5 115.6 144.25 114.9 L147.6 114.8 Q149.2 115.3 149.9 116.1 150.5 116.95 150.65 117.9 L150.85 120.2 Q151.0 121.45 150.6 123.55 L149.8 126.6 149.4 128.4 149.25 129.7 Q149.1 130.2 149.65 130.35 150.2 130.45 150.9 129.95 151.7 129.45 152.2 128.15 152.7 126.9 153.75 126.65 L156.35 126.4 Q157.8 126.4 159.0 127.2 160.15 128.05 160.15 128.9 L160.4 131.2 Q160.6 132.55 161.4 133.65 162.15 134.6 162.8 134.55 163.45 134.4 163.95 132.9 164.5 131.2 164.65 128.9 L165.05 124.05 Q165.35 121.55 166.0 120.5 166.55 119.4 168.95 118.45 171.2 117.6 172.9 118.5 174.6 119.45 175.2 120.55 M191.2 127.05 L189.95 127.05 Q188.9 128.55 188.75 129.45 188.6 130.4 188.75 131.15 188.85 131.9 189.9 132.05 190.9 132.2 191.2 131.3 L191.6 129.35 191.7 127.7 Q191.7 127.05 191.2 127.05 M192.9 158.45 Q195.05 160.55 195.45 162.5 195.8 164.25 192.2 167.95 188.75 171.5 187.25 171.5 185.9 171.5 183.35 169.25 180.75 166.95 180.75 165.75 180.75 163.35 183.35 160.4 185.95 157.45 189.1 156.65 190.6 156.25 192.9 158.45 M162.4 157.55 Q163.1 155.35 164.5 154.25 165.95 153.05 167.5 153.25 169.1 153.5 170.2 154.65 171.35 155.8 171.95 157.45 172.55 159.2 173.05 173.95 L173.25 178.55 Q173.75 190.05 174.3 194.8 L174.8 201.95 Q174.65 203.15 173.45 204.05 172.25 204.95 170.75 205.1 169.2 205.25 167.55 204.05 165.8 202.75 165.3 201.3 164.8 199.95 164.65 198.9 164.55 198.05 163.55 199.2 162.5 200.3 160.9 201.0 159.4 201.65 157.5 201.65 L153.6 201.25 Q151.45 201.0 149.6 198.85 147.7 196.8 146.95 193.6 146.25 190.25 146.3 187.35 146.4 184.2 148.45 181.1 L150.25 178.55 152.65 175.6 Q154.75 173.3 157.1 172.7 L160.35 171.95 161.8 172.05 Q162.35 172.3 162.65 170.65 161.75 159.6 162.4 157.55 M181.5 176.2 Q181.95 175.2 182.7 174.85 L184.9 174.4 187.2 174.45 Q188.05 174.6 189.7 175.8 191.15 176.85 191.7 178.55 L191.8 179.05 Q192.3 181.3 191.85 186.6 191.5 192.15 190.8 197.1 190.2 202.05 189.25 203.7 188.25 205.4 186.6 205.6 L183.15 205.35 Q181.35 204.9 180.65 204.25 179.85 203.55 179.3 202.2 178.7 200.75 179.15 198.2 179.6 195.7 180.65 193.65 181.75 191.7 181.9 185.2 L181.7 182.5 181.65 180.95 181.3 179.55 181.1 178.55 181.05 178.0 181.5 176.2 M162.55 183.8 Q161.85 182.9 161.3 182.95 160.8 182.95 158.2 184.3 L155.65 187.15 Q154.8 188.25 154.85 189.15 154.95 190.05 155.8 190.75 156.6 191.4 158.2 191.25 159.65 191.1 160.95 189.3 L162.65 186.15 Q163.15 184.8 162.55 183.8 M202.45 178.1 Q204.7 175.45 205.85 174.5 207.25 173.3 210.25 172.3 213.2 171.25 215.15 171.4 217.0 171.55 218.7 172.75 220.4 173.9 221.2 175.65 221.7 176.75 221.9 178.55 L222.1 180.8 Q222.25 184.25 221.65 187.35 221.05 190.4 219.65 191.5 218.15 192.6 216.4 193.2 L213.05 193.9 Q211.5 193.95 212.35 194.65 L214.9 196.25 217.7 197.6 Q218.85 198.05 219.0 199.95 219.2 201.85 218.3 203.25 217.35 204.65 215.95 204.85 L212.85 204.8 209.3 203.65 Q207.3 202.75 204.9 201.1 202.45 199.45 200.65 197.65 198.9 196.0 198.45 192.2 198.05 188.3 198.4 185.8 198.7 183.2 202.15 178.55 L202.45 178.1 M241.6 164.6 Q246.1 164.45 246.95 164.65 250.15 165.35 250.8 168.85 251.05 170.0 249.95 171.05 248.55 172.35 245.75 172.5 242.8 172.6 241.4 173.7 240.7 174.25 240.0 175.3 L239.0 176.85 Q238.3 177.85 238.3 178.55 L238.3 179.0 Q238.55 179.95 240.15 181.45 241.8 183.05 244.35 183.7 246.8 184.3 248.4 186.2 250.05 188.1 250.95 191.0 251.85 193.95 251.4 196.65 250.95 199.35 249.8 201.75 248.65 204.1 246.15 205.45 243.6 206.85 241.05 207.35 238.45 207.95 234.9 206.9 231.25 205.8 229.2 204.75 227.0 203.75 226.0 201.55 225.0 199.5 225.0 197.7 225.0 196.0 225.45 194.95 225.9 194.0 228.45 193.75 231.0 193.6 232.05 195.05 233.05 196.6 236.0 197.05 L240.65 197.25 Q242.3 196.85 242.6 196.0 242.95 195.1 242.65 194.4 L241.65 192.8 Q240.9 191.9 237.55 189.9 L232.35 186.6 Q230.45 185.25 229.45 183.45 228.35 181.45 228.05 179.55 L228.1 178.55 Q228.4 176.15 230.95 170.75 L234.45 167.0 Q235.4 166.15 236.95 165.75 L239.2 165.1 241.6 164.6 M213.45 183.8 L213.35 182.25 Q213.15 181.45 212.35 181.45 L210.8 181.65 Q209.8 182.6 209.7 183.4 209.7 184.15 210.2 184.6 210.75 185.0 211.35 185.0 L212.65 184.8 Q213.3 184.45 213.45 183.8 M110.3 96.6 Q111.85 96.95 112.85 98.3 113.85 99.55 114.25 101.25 114.65 103.0 113.45 117.75 112.35 132.6 112.25 138.65 112.2 144.7 111.95 145.8 111.65 146.95 110.4 147.7 109.15 148.45 107.55 148.45 106.0 148.45 104.5 147.05 102.95 145.6 102.6 144.05 102.25 142.65 102.25 141.65 102.25 140.7 101.1 141.75 99.75 142.85 98.25 143.25 L94.8 143.5 90.95 142.7 Q88.9 142.15 87.25 139.85 85.65 137.55 85.25 134.3 84.95 131.0 85.3 128.05 85.75 124.95 88.2 122.05 90.8 118.95 92.95 117.1 95.3 115.1 97.75 114.7 L101.05 114.35 102.45 114.6 Q103.0 114.85 103.5 113.35 103.9 102.3 104.75 100.25 105.75 98.2 107.25 97.2 108.75 96.2 110.3 96.6 M30.6 95.1 L32.25 99.1 Q33.3 101.55 35.15 121.4 39.6 118.9 42.7 119.55 45.9 120.25 48.6 123.05 51.2 125.85 52.25 129.9 53.25 133.95 52.65 139.25 52.15 144.6 50.4 146.65 48.75 148.7 47.45 149.3 46.3 149.9 43.6 150.3 L39.65 150.65 37.45 150.15 35.8 148.7 Q34.9 147.8 34.8 146.5 L34.7 144.2 Q34.7 143.2 35.85 142.3 36.95 141.45 38.55 141.15 40.15 140.9 42.05 139.9 43.95 138.9 43.95 137.35 44.0 135.9 43.25 133.8 42.5 131.75 41.7 131.35 L40.45 130.95 Q40.0 130.95 38.9 131.8 37.85 132.7 37.85 134.35 L37.7 138.45 37.15 139.75 36.65 140.65 35.75 141.25 33.95 141.75 31.4 141.75 Q29.85 141.6 29.1 140.45 L27.45 137.5 Q26.55 135.7 25.95 131.05 25.35 126.5 25.35 124.9 22.55 97.35 23.2 95.8 23.8 94.15 25.15 93.55 26.35 92.9 28.2 93.15 30.0 93.45 30.6 95.1 M77.45 115.4 Q79.25 116.55 80.0 118.25 80.8 119.95 81.0 123.35 81.25 126.8 80.7 129.9 80.1 133.0 78.7 134.1 77.35 135.25 75.5 135.85 73.7 136.55 72.15 136.6 70.65 136.75 71.5 137.35 L74.05 138.95 76.9 140.25 Q78.05 140.65 78.25 142.55 78.55 144.4 77.6 145.9 76.7 147.25 75.3 147.55 L72.2 147.5 68.65 146.45 Q66.5 145.55 64.15 143.95 61.7 142.35 59.85 140.6 58.05 138.95 57.6 135.2 57.1 131.7 57.35 128.8 57.65 126.05 61.3 121.0 63.15 118.7 64.65 117.35 65.9 116.2 69.0 115.05 72.1 113.95 73.9 114.1 75.7 114.2 77.45 115.4 M71.25 124.15 L69.7 124.4 Q68.75 125.35 68.65 126.2 68.65 126.95 69.15 127.35 69.7 127.75 70.3 127.75 L71.6 127.5 Q72.25 127.3 72.4 126.5 72.5 125.55 72.25 124.95 72.05 124.25 71.25 124.15 M60.65 156.75 Q61.6 159.2 63.05 178.55 L63.1 179.15 64.25 178.55 Q67.95 176.75 70.7 177.4 72.2 177.75 73.6 178.55 75.15 179.45 76.5 181.0 79.15 183.95 80.05 187.9 80.95 191.95 80.3 197.25 79.7 202.6 77.95 204.65 76.15 206.7 74.95 207.25 L71.05 208.15 67.1 208.45 Q65.55 208.35 64.9 207.9 L63.3 206.4 Q62.45 205.55 62.35 204.2 L62.25 201.9 Q62.35 200.9 63.45 200.0 64.65 199.15 66.2 198.95 67.7 198.75 69.65 197.75 71.65 196.75 71.65 195.25 71.7 193.8 71.0 191.65 70.25 189.6 69.5 189.15 L68.25 188.75 Q67.7 188.75 66.7 189.6 65.6 190.55 65.6 192.15 L65.5 194.7 65.35 196.25 64.8 197.5 64.25 198.4 63.35 199.0 61.55 199.45 59.0 199.4 Q57.45 199.25 56.7 198.05 L55.15 195.05 Q54.3 193.3 53.75 188.6 53.25 184.05 53.3 182.45 L53.0 178.55 Q50.95 154.9 51.6 153.3 52.35 151.65 53.6 151.05 54.9 150.45 56.7 150.75 58.45 151.05 59.05 152.75 L60.65 156.75 M134.2 121.05 Q135.5 122.85 135.55 124.9 135.7 127.0 134.65 128.5 133.6 130.05 129.75 130.1 126.1 130.25 122.35 129.3 118.7 128.3 117.25 126.7 115.7 125.0 115.85 122.95 116.0 120.9 118.05 120.05 120.2 119.15 126.0 119.2 L130.5 119.0 Q132.9 119.25 134.2 121.05 M93.6 130.8 Q93.6 131.7 94.4 132.45 95.15 133.25 96.65 133.25 98.25 133.25 99.65 131.6 L101.7 128.7 Q102.4 127.4 101.85 126.4 101.35 125.35 100.7 125.35 99.95 125.35 97.5 126.35 95.7 127.85 94.65 128.9 93.7 129.8 93.6 130.8 M88.45 172.05 Q89.45 172.05 91.25 172.75 93.05 173.45 93.5 174.85 L94.4 178.55 95.8 186.3 Q96.7 190.2 97.45 191.85 98.1 193.55 98.65 193.55 99.2 193.65 99.35 192.95 L99.5 190.9 99.3 188.35 98.75 185.75 Q98.4 184.35 98.45 182.65 98.45 181.35 99.05 178.7 L99.1 178.55 Q99.7 176.45 100.65 176.2 L103.6 176.0 Q105.55 176.1 106.75 178.3 L106.9 178.55 Q108.0 180.55 108.65 183.6 109.35 186.45 109.5 191.7 109.6 196.75 108.4 199.7 107.15 202.75 105.6 203.75 103.85 204.8 101.95 205.3 L98.35 205.75 Q96.7 205.5 94.55 204.5 92.2 203.35 90.15 200.5 88.05 197.65 86.7 191.6 85.3 185.65 85.15 181.7 L85.05 178.55 85.05 175.8 Q85.1 173.75 86.25 172.85 87.5 172.0 88.45 172.05 M116.6 178.55 Q118.75 176.1 121.3 173.8 123.75 171.8 126.1 171.5 L129.45 171.2 130.85 171.5 Q131.35 171.8 131.9 170.25 132.5 159.25 133.4 157.2 134.35 155.2 135.9 154.2 137.5 153.2 139.0 153.65 140.55 154.1 141.55 155.4 142.55 156.7 142.85 158.35 143.25 160.1 141.8 174.85 L141.45 178.55 Q140.35 190.75 140.2 195.7 140.05 201.7 139.75 202.9 139.55 203.95 138.2 204.75 136.8 205.5 135.35 205.45 133.8 205.45 132.3 203.95 130.85 202.55 130.45 200.95 130.15 199.45 130.15 198.55 L129.0 198.6 Q127.95 199.55 126.15 200.1 L122.65 200.25 118.85 199.4 Q116.7 198.75 115.2 196.45 113.6 194.1 113.3 190.9 113.0 187.65 113.45 184.65 114.0 181.45 116.45 178.7 L116.6 178.55 M125.7 183.15 Q124.2 184.35 122.8 185.65 121.8 186.6 121.7 187.55 121.7 188.45 122.45 189.2 123.2 190.05 124.75 190.05 126.25 190.15 127.7 188.45 L129.85 185.6 Q130.5 184.35 130.05 183.25 129.5 182.25 128.9 182.2 128.2 182.2 125.7 183.15" fill="#ff9999" fill-rule="evenodd" stroke="none"/>
      <path d="M253.55 91.0 L256.65 91.05 Q258.45 91.6 258.8 93.3 L259.9 97.45 Q260.6 99.85 259.9 119.95 264.6 118.0 267.65 119.1 270.75 120.15 273.0 123.3 275.3 126.6 275.75 130.55 276.2 134.7 274.95 139.9 273.75 145.05 271.8 146.95 269.85 148.75 268.5 149.2 L264.55 149.7 260.55 149.55 Q259.15 149.3 258.45 148.7 L257.0 147.1 Q256.25 146.0 256.3 144.8 L256.5 142.5 Q256.65 141.5 257.9 140.75 259.2 140.0 260.7 140.0 L264.3 139.2 Q266.4 138.45 266.6 136.9 266.75 135.2 266.3 133.25 265.85 131.1 265.1 130.65 264.45 130.15 263.9 130.05 263.3 130.05 262.25 130.75 261.15 131.5 260.9 133.15 L260.55 135.7 260.2 137.2 259.5 138.4 258.9 139.2 Q258.7 139.5 257.9 139.7 L256.05 140.0 253.55 139.65 Q252.0 139.3 251.4 138.05 L250.2 134.9 Q249.55 133.1 249.55 128.35 249.55 123.5 249.75 122.15 250.5 94.5 251.35 93.0 252.2 91.45 253.55 91.0 M226.35 117.9 L227.4 119.05 Q227.8 119.75 229.3 120.75 231.8 117.75 233.3 117.2 L236.5 116.85 Q238.4 117.0 240.2 118.15 242.1 119.3 243.0 120.75 243.85 122.1 244.15 123.95 L244.35 127.55 244.3 131.5 244.05 134.95 Q243.75 136.25 243.25 136.9 242.7 137.55 241.85 137.75 L239.9 138.15 237.6 137.85 Q236.3 137.45 235.7 136.7 235.0 135.85 234.95 135.15 L234.6 130.0 Q233.1 130.5 232.55 132.05 L231.85 134.6 Q231.7 135.7 231.2 136.4 L229.65 138.15 227.6 139.95 Q226.55 140.7 225.55 140.7 L223.5 140.55 Q222.4 140.4 221.55 139.9 220.65 139.35 220.05 138.2 219.4 136.95 219.45 135.8 219.45 134.5 219.05 134.35 L218.05 134.35 Q217.4 134.5 216.6 135.5 215.85 136.55 215.55 137.65 L214.9 139.95 Q214.55 141.05 213.85 141.9 L211.95 143.15 209.1 143.65 206.55 143.35 Q205.6 143.15 204.75 141.55 204.0 139.95 204.05 138.45 204.05 136.95 204.35 134.1 205.15 119.35 206.0 118.25 206.75 117.2 208.7 116.6 L211.9 116.35 Q213.2 116.8 213.7 117.8 L214.2 119.35 214.3 120.75 214.4 121.75 215.85 120.25 Q217.25 118.65 218.55 117.95 L221.25 117.35 224.2 117.35 Q225.8 117.45 226.35 117.9 M189.25 112.15 Q191.25 112.5 193.5 114.15 195.75 115.85 197.35 118.05 199.05 120.35 198.95 124.45 198.95 128.35 198.3 131.2 197.7 134.0 195.95 136.15 194.15 138.35 191.3 138.75 L186.05 138.95 Q183.65 138.8 181.25 137.05 178.75 135.3 177.4 133.2 176.1 131.0 176.1 127.85 176.2 124.35 176.45 122.0 176.7 119.35 178.4 116.95 180.05 114.55 185.3 112.0 L189.25 112.15 M163.5 117.5 Q164.05 116.4 166.45 115.45 168.7 114.6 170.4 115.5 172.1 116.45 172.7 117.55 173.3 118.6 173.45 121.0 173.55 123.35 173.15 126.8 172.7 130.25 170.75 134.45 168.8 138.7 166.75 140.05 164.65 141.5 163.4 141.7 L160.7 141.9 158.0 141.75 Q156.85 141.7 156.0 141.1 L154.6 140.1 153.45 138.8 152.45 137.25 Q150.35 139.55 149.2 140.05 L146.1 140.25 142.8 139.45 Q141.4 138.95 140.4 137.8 139.35 136.6 138.75 135.05 138.15 133.75 138.0 129.95 137.9 125.7 138.1 122.4 L138.25 116.35 Q138.55 115.1 139.3 113.8 140.0 112.6 141.75 111.9 L145.1 111.8 Q146.7 112.3 147.4 113.1 148.0 113.95 148.15 114.9 L148.35 117.2 Q148.5 118.45 148.1 120.55 L147.3 123.6 146.9 125.4 146.75 126.7 Q146.6 127.2 147.15 127.35 147.7 127.45 148.4 126.95 149.2 126.45 149.7 125.15 150.2 123.9 151.25 123.65 L153.85 123.4 Q155.3 123.4 156.5 124.2 157.65 125.05 157.65 125.9 L157.9 128.2 Q158.1 129.55 158.9 130.65 159.65 131.6 160.3 131.55 160.95 131.4 161.45 129.9 162.0 128.2 162.15 125.9 L162.55 121.05 Q162.85 118.55 163.5 117.5 M187.45 124.05 Q186.4 125.55 186.25 126.45 186.1 127.4 186.25 128.15 186.35 128.9 187.4 129.05 188.4 129.2 188.7 128.3 L189.1 126.35 189.2 124.7 Q189.2 124.05 188.7 124.05 L187.45 124.05 M184.7 171.45 Q185.55 171.6 187.2 172.8 188.85 174.0 189.3 176.05 L189.55 178.55 189.35 183.6 Q189.0 189.15 188.3 194.1 187.7 199.05 186.75 200.7 185.75 202.4 184.1 202.6 L180.65 202.35 Q178.85 201.9 178.15 201.25 177.35 200.55 176.8 199.2 176.2 197.75 176.65 195.2 177.1 192.7 178.15 190.65 179.25 188.7 179.4 182.2 L179.2 179.5 179.2 178.55 179.15 177.95 178.8 176.55 178.55 175.0 179.0 173.2 Q179.45 172.2 180.2 171.85 180.95 171.5 182.4 171.4 L184.7 171.45 M165.0 150.25 Q166.6 150.5 167.7 151.65 168.85 152.8 169.45 154.45 170.05 156.2 170.55 170.95 L170.9 178.55 Q171.35 187.7 171.8 191.8 L172.3 198.95 Q172.15 200.15 170.95 201.05 169.75 201.95 168.25 202.1 166.7 202.25 165.05 201.05 163.3 199.75 162.8 198.3 162.3 196.95 162.15 195.9 162.05 195.05 161.05 196.2 160.0 197.3 158.4 198.0 L155.0 198.65 151.1 198.25 Q148.95 198.0 147.1 195.85 145.2 193.8 144.45 190.6 143.75 187.25 143.8 184.35 143.9 181.45 145.7 178.55 L145.95 178.1 Q147.95 175.05 150.15 172.6 152.25 170.3 154.6 169.7 156.9 169.05 157.85 168.95 L159.3 169.05 Q159.85 169.3 160.15 167.65 159.25 156.6 159.9 154.55 160.6 152.35 162.0 151.25 163.45 150.05 165.0 150.25 M199.95 175.1 Q202.2 172.45 203.35 171.5 204.75 170.3 207.75 169.3 210.7 168.25 212.65 168.4 214.5 168.55 216.2 169.75 217.9 170.9 218.7 172.65 219.45 174.4 219.6 177.8 L219.65 178.55 Q219.7 181.6 219.15 184.35 218.55 187.4 217.15 188.5 215.65 189.6 213.9 190.2 L210.55 190.9 Q209.0 190.95 209.85 191.65 L212.4 193.25 215.2 194.6 Q216.35 195.05 216.5 196.95 216.7 198.85 215.8 200.25 214.85 201.65 213.45 201.85 L210.35 201.8 Q208.9 201.55 206.8 200.65 204.8 199.75 202.4 198.1 199.95 196.45 198.15 194.65 196.4 193.0 195.95 189.2 195.55 185.3 195.9 182.8 196.1 181.1 197.6 178.55 L199.95 175.1 M231.95 164.0 Q232.9 163.15 234.45 162.75 L236.7 162.1 239.1 161.6 Q243.6 161.45 244.45 161.65 247.65 162.35 248.3 165.85 248.55 167.0 247.45 168.05 246.05 169.35 243.25 169.5 240.3 169.6 238.9 170.7 L237.5 172.3 236.5 173.85 Q235.6 175.15 235.8 176.0 236.05 176.95 237.65 178.45 L237.75 178.55 Q239.4 180.05 241.85 180.7 244.3 181.3 245.9 183.2 247.55 185.1 248.45 188.0 249.35 190.95 248.9 193.65 248.45 196.35 247.3 198.75 246.15 201.1 243.65 202.45 241.1 203.85 238.55 204.35 235.95 204.95 232.4 203.9 228.75 202.8 226.7 201.75 224.5 200.75 223.5 198.55 222.5 196.5 222.5 194.7 222.5 193.0 222.95 191.95 223.4 191.0 225.95 190.75 228.5 190.6 229.55 192.05 230.55 193.6 233.5 194.05 L238.15 194.25 Q239.8 193.85 240.1 193.0 240.45 192.1 240.15 191.4 L239.15 189.8 Q238.4 188.9 235.05 186.9 L229.85 183.6 Q227.95 182.25 226.95 180.45 L226.1 178.55 Q225.7 177.55 225.55 176.55 225.25 174.45 228.45 167.75 231.05 164.75 231.95 164.0 M209.85 178.45 L208.7 178.55 208.3 178.65 Q207.3 179.6 207.2 180.4 207.2 181.15 207.7 181.6 208.25 182.0 208.85 182.0 L210.15 181.8 Q210.8 181.45 210.95 180.8 L210.85 179.25 Q210.7 178.75 210.35 178.55 L209.85 178.45 M104.75 94.2 Q106.25 93.2 107.8 93.6 109.35 93.95 110.35 95.3 111.35 96.55 111.75 98.25 112.15 100.0 110.95 114.75 109.85 129.6 109.75 135.65 109.7 141.7 109.45 142.8 109.15 143.95 107.9 144.7 106.65 145.45 105.05 145.45 103.5 145.45 102.0 144.05 100.45 142.6 100.1 141.05 99.75 139.65 99.75 138.65 99.75 137.7 98.6 138.75 97.25 139.85 95.75 140.25 L92.3 140.5 88.45 139.7 Q86.4 139.15 84.75 136.85 83.15 134.55 82.75 131.3 82.45 128.0 82.8 125.05 83.25 121.95 85.7 119.05 88.3 115.95 90.45 114.1 92.8 112.1 95.25 111.7 L98.55 111.35 99.95 111.6 Q100.5 111.85 101.0 110.35 101.4 99.3 102.25 97.25 103.25 95.2 104.75 94.2 M22.65 90.55 Q23.85 89.9 25.7 90.15 27.5 90.45 28.1 92.1 L29.75 96.1 Q30.8 98.55 32.65 118.4 37.1 115.9 40.2 116.55 43.4 117.25 46.1 120.05 48.7 122.85 49.75 126.9 50.75 130.95 50.15 136.25 49.65 141.6 47.9 143.65 46.25 145.7 44.95 146.3 43.8 146.9 41.1 147.3 L37.15 147.65 Q35.8 147.65 34.95 147.15 L33.3 145.7 Q32.4 144.8 32.3 143.5 L32.2 141.2 Q32.2 140.2 33.35 139.3 34.45 138.45 36.05 138.15 37.65 137.9 39.55 136.9 41.45 135.9 41.45 134.35 41.5 132.9 40.75 130.8 40.0 128.75 39.2 128.35 38.55 127.95 37.95 127.95 37.5 127.95 36.4 128.8 35.35 129.7 35.35 131.35 L35.2 135.45 34.65 136.75 34.15 137.65 33.25 138.25 31.45 138.75 28.9 138.75 Q27.35 138.6 26.6 137.45 L24.95 134.5 Q24.05 132.7 23.45 128.05 L22.85 121.9 Q20.05 94.35 20.7 92.8 21.3 91.15 22.65 90.55 M66.15 123.2 Q66.15 123.95 66.65 124.35 67.2 124.75 67.8 124.75 L69.1 124.5 Q69.75 124.3 69.9 123.5 70.0 122.55 69.75 121.95 69.55 121.25 68.75 121.15 L67.2 121.4 Q66.25 122.35 66.15 123.2 M66.5 112.05 Q69.6 110.95 71.4 111.1 73.2 111.2 74.95 112.4 76.75 113.55 77.5 115.25 78.3 116.95 78.5 120.35 78.75 123.8 78.2 126.9 77.6 130.0 76.2 131.1 74.85 132.25 73.0 132.85 L69.65 133.6 Q68.15 133.75 69.0 134.35 L71.55 135.95 74.4 137.25 Q75.55 137.65 75.75 139.55 76.05 141.4 75.1 142.9 74.2 144.25 72.8 144.55 L69.7 144.5 66.15 143.45 Q64.0 142.55 61.65 140.95 59.2 139.35 57.35 137.6 55.55 135.95 55.1 132.2 54.6 128.7 54.85 125.8 55.15 123.05 58.8 118.0 60.65 115.7 62.15 114.35 63.4 113.2 66.5 112.05 M54.2 147.75 Q55.95 148.05 56.55 149.75 L58.15 153.75 Q59.1 156.25 60.6 176.15 65.05 173.65 68.2 174.4 71.45 175.15 74.0 178.0 L74.5 178.55 Q76.75 181.3 77.55 184.9 78.45 188.95 77.8 194.25 77.2 199.6 75.45 201.65 73.65 203.7 72.45 204.25 71.1 204.85 68.55 205.15 L64.6 205.45 Q63.05 205.35 62.4 204.9 L60.8 203.4 Q59.95 202.55 59.85 201.2 L59.75 198.9 Q59.85 197.9 60.95 197.0 62.15 196.15 63.7 195.95 65.2 195.75 67.15 194.75 69.15 193.75 69.15 192.25 69.2 190.8 68.5 188.65 67.75 186.6 67.0 186.15 L65.75 185.75 Q65.2 185.75 64.2 186.6 63.1 187.55 63.1 189.15 L63.0 191.7 62.85 193.25 62.3 194.5 61.75 195.4 60.85 196.0 59.05 196.45 56.5 196.4 Q54.95 196.25 54.2 195.05 L52.65 192.05 Q51.8 190.3 51.25 185.6 50.75 181.05 50.8 179.45 L50.75 178.55 Q48.4 151.95 49.1 150.3 49.85 148.65 51.1 148.05 52.4 147.45 54.2 147.75 M128.0 116.0 Q130.4 116.25 131.7 118.05 133.0 119.85 133.05 121.9 133.2 124.0 132.15 125.5 131.1 127.05 127.25 127.1 123.6 127.25 119.85 126.3 116.2 125.3 114.75 123.7 113.2 122.0 113.35 119.95 113.5 117.9 115.55 117.05 117.7 116.15 123.5 116.2 L128.0 116.0 M95.0 123.35 L92.15 125.9 Q91.2 126.8 91.1 127.8 91.1 128.7 91.9 129.45 92.65 130.25 94.15 130.25 95.75 130.25 97.15 128.6 L99.2 125.7 Q99.9 124.4 99.35 123.4 98.85 122.35 98.2 122.35 97.45 122.35 95.0 123.35 M83.75 169.85 Q85.0 169.0 85.95 169.05 86.95 169.05 88.75 169.75 90.55 170.45 91.0 171.85 L92.45 178.55 93.3 183.3 Q94.2 187.2 94.95 188.85 95.6 190.55 96.15 190.55 96.7 190.65 96.85 189.95 L97.0 187.9 96.8 185.35 96.25 182.75 Q95.9 181.35 95.95 179.65 L96.05 178.55 Q96.15 177.4 96.55 175.7 97.15 173.45 98.15 173.2 L101.1 173.0 Q103.05 173.1 104.25 175.3 105.05 176.65 105.65 178.55 L106.15 180.6 Q106.85 183.45 107.0 188.7 107.1 193.75 105.9 196.7 104.65 199.75 103.1 200.75 101.35 201.8 99.45 202.3 L95.85 202.75 Q94.2 202.5 92.05 201.5 89.7 200.35 87.65 197.5 85.55 194.65 84.2 188.6 82.8 182.65 82.65 178.7 L82.65 178.55 82.55 172.8 Q82.6 170.75 83.75 169.85 M119.2 184.55 Q119.2 185.45 119.95 186.2 120.7 187.05 122.25 187.05 123.75 187.15 125.2 185.45 126.55 184.05 127.35 182.6 128.0 181.35 127.55 180.25 127.0 179.25 126.4 179.2 125.7 179.2 123.2 180.15 121.7 181.35 120.3 182.65 119.3 183.6 119.2 184.55 M113.95 175.7 Q116.15 173.15 118.8 170.8 121.25 168.8 123.6 168.5 L126.95 168.2 128.35 168.5 Q128.85 168.8 129.4 167.25 130.0 156.25 130.9 154.2 131.85 152.2 133.4 151.2 135.0 150.2 136.5 150.65 138.05 151.1 139.05 152.4 140.05 153.7 140.35 155.35 140.75 157.1 139.3 171.85 L138.7 178.55 Q137.8 188.4 137.7 192.7 137.55 198.7 137.25 199.9 137.05 200.95 135.7 201.75 134.3 202.5 132.85 202.45 131.3 202.45 129.8 200.95 128.35 199.55 127.95 197.95 127.65 196.45 127.65 195.55 L126.5 195.6 Q125.45 196.55 123.65 197.1 L120.15 197.25 116.35 196.4 Q114.2 195.75 112.7 193.45 111.1 191.1 110.8 187.9 110.5 184.65 110.95 181.65 111.25 180.05 112.0 178.55 112.75 177.05 113.95 175.7 M153.15 184.15 Q152.3 185.25 152.35 186.15 152.45 187.05 153.3 187.75 154.1 188.4 155.7 188.25 157.15 188.1 158.45 186.3 L160.15 183.15 Q160.65 181.8 160.05 180.8 159.35 179.9 158.8 179.95 158.3 179.95 155.7 181.3 L153.15 184.15" fill="url(#gradient1)" fill-rule="evenodd" stroke="none"/>
      <path d="M190.65 163.75 Q189.3 165.6 187.35 167.15 185.55 168.55 184.8 168.55 182.75 168.55 179.8 164.7 176.4 160.25 178.25 156.3 179.05 154.65 181.55 154.9 184.15 155.15 184.9 157.2 L186.15 156.15 Q187.65 154.55 190.1 155.95 194.45 158.5 190.65 163.75" fill="url(#gradient2)" fill-rule="evenodd" stroke="none"/>
      <path d="M152.15 218.7 Q153.0 218.7 154.2 221.0 153.1 224.25 152.25 228.45 150.85 236.6 150.85 244.4 150.85 250.05 152.2 250.05 152.6 250.05 152.95 249.6 153.85 248.5 154.6 246.5 155.45 244.1 155.95 244.1 156.65 244.1 156.65 245.55 156.65 248.35 154.6 251.55 153.1 253.8 151.55 253.8 149.9 253.8 149.05 250.85 148.4 248.55 148.4 243.95 148.4 236.25 149.5 228.6 149.95 225.05 150.65 221.95 151.4 218.7 152.15 218.7 M139.55 234.7 Q140.95 235.35 142.25 236.65 143.65 238.2 144.5 240.7 145.25 242.85 145.25 245.4 145.25 250.55 142.25 253.05 140.85 254.25 139.15 254.25 135.75 254.25 134.05 249.9 133.25 247.85 133.25 245.35 133.25 241.8 134.65 238.55 L135.75 236.95 137.2 235.4 Q137.9 234.8 138.25 234.7 L139.55 234.7 M139.1 237.6 Q135.9 240.2 135.9 245.0 135.9 247.15 136.65 249.0 137.55 251.55 139.35 251.55 141.0 251.55 141.9 249.1 142.5 247.45 142.5 245.4 142.5 242.35 141.05 239.9 140.35 238.75 139.1 237.6 M124.7 227.3 Q121.55 222.45 117.65 222.45 116.0 222.45 114.9 223.55 113.8 224.6 113.8 226.3 113.8 228.55 115.2 230.4 L115.3 230.0 115.6 228.3 Q115.7 227.45 116.35 226.85 117.0 226.3 117.9 226.3 118.6 226.3 118.6 227.2 L118.35 228.65 Q117.6 232.2 117.2 236.25 116.95 239.65 116.95 244.05 116.95 250.05 118.0 251.05 L118.8 251.3 Q121.0 251.3 123.9 248.5 127.85 244.7 127.85 238.2 127.85 232.1 124.7 227.3 M130.75 238.2 Q130.75 244.4 127.45 248.75 125.6 251.15 123.0 252.7 120.15 254.35 117.45 254.35 115.55 254.35 114.85 252.6 114.2 250.85 114.2 245.95 114.2 242.45 114.55 237.95 L114.9 233.75 Q111.3 230.45 111.3 226.45 111.3 223.7 113.1 221.75 115.0 219.8 117.7 219.8 122.95 219.8 126.85 225.3 130.75 230.75 130.75 238.2 M159.75 228.6 Q160.2 225.05 160.9 221.95 161.6 218.7 162.45 218.7 163.2 218.7 164.4 221.0 163.3 224.25 162.55 228.45 161.15 236.6 161.15 244.4 161.15 250.05 162.5 250.05 162.9 250.05 163.15 249.6 164.15 248.5 164.85 246.5 165.7 244.1 166.15 244.1 166.95 244.1 166.95 245.55 166.95 248.35 164.85 251.55 163.35 253.8 161.85 253.8 160.15 253.8 159.35 250.85 158.65 248.55 158.65 243.95 158.65 236.25 159.75 228.6 M97.6 234.8 Q94.35 236.95 94.35 238.8 94.35 239.65 96.3 240.2 L99.1 240.8 Q100.05 241.1 100.7 241.5 103.05 242.95 103.05 245.8 103.05 250.4 98.7 253.05 96.8 254.25 94.65 254.25 93.4 254.25 92.45 253.7 91.2 253.0 91.2 251.85 91.2 251.4 91.6 251.0 91.9 250.6 92.3 250.6 L93.1 250.8 95.25 251.3 Q98.0 251.3 99.6 248.75 100.3 247.55 100.3 246.3 100.3 244.25 98.55 243.5 L97.05 243.05 95.05 242.65 Q91.5 242.05 91.5 239.2 91.5 235.95 95.2 233.2 96.7 232.05 97.75 232.05 99.05 232.05 99.05 233.25 99.05 233.85 97.6 234.8 M86.2 236.35 L86.15 236.65 86.05 238.6 85.8 243.45 Q85.8 250.15 86.95 250.15 87.65 250.15 88.95 247.5 L89.4 246.45 89.75 246.05 Q90.4 246.05 90.4 247.65 90.4 248.95 89.2 251.0 87.65 253.7 86.3 253.7 84.7 253.7 84.0 249.9 83.7 248.1 83.7 246.15 L83.8 243.8 83.4 244.75 81.0 250.15 Q79.05 253.6 77.65 253.6 75.05 253.6 75.05 245.9 75.05 239.65 76.4 234.7 77.0 232.4 77.7 232.4 78.3 232.4 78.75 232.95 79.25 233.35 79.25 233.95 L78.75 236.55 78.15 239.2 Q77.55 242.85 77.55 247.0 77.55 249.95 78.25 249.95 78.9 249.95 80.2 247.6 82.8 242.5 83.7 236.35 84.7 235.5 85.5 235.5 86.2 235.5 86.2 236.35 M47.55 221.2 Q47.55 222.1 46.5 223.25 45.5 222.55 44.1 222.55 41.8 222.55 37.8 224.1 L37.3 226.3 37.0 228.7 36.3 233.75 36.85 233.65 41.45 233.05 Q43.45 233.05 43.45 234.05 43.45 234.95 42.4 235.35 L36.15 236.4 36.15 236.8 36.0 239.2 36.05 239.65 Q37.35 245.05 37.35 249.25 37.35 254.75 35.95 254.75 34.95 254.75 34.1 250.55 33.6 248.2 33.35 244.55 L33.25 240.95 33.2 240.25 32.95 239.35 Q32.2 237.25 32.2 236.65 32.2 235.65 33.5 234.9 L34.85 225.15 34.4 225.35 Q33.1 225.9 32.8 225.9 32.2 225.9 32.2 225.2 32.2 223.65 35.6 222.35 36.9 219.15 38.0 219.15 38.75 219.15 38.75 219.8 L38.5 220.9 38.4 221.3 Q42.55 219.85 45.25 219.85 47.55 219.85 47.55 221.2 M54.7 234.05 Q55.35 235.2 55.35 236.75 55.35 242.95 49.25 247.85 50.2 251.25 52.05 251.25 54.15 251.25 56.35 246.15 56.7 245.35 57.1 245.35 57.55 245.35 57.8 245.9 L58.15 246.9 Q58.15 248.1 56.65 250.4 54.55 253.75 51.9 253.75 48.45 253.75 47.05 249.5 46.35 247.45 46.35 244.85 46.35 240.05 48.25 236.35 50.1 232.6 52.4 232.6 53.9 232.6 54.7 234.05 M48.85 245.3 Q51.35 243.25 52.55 239.95 53.1 238.4 53.1 236.85 53.1 235.3 52.3 235.3 50.6 235.3 49.35 240.7 48.85 243.05 48.85 245.3 M59.05 239.45 Q59.05 237.95 61.75 236.6 L61.8 236.15 Q62.35 231.7 63.5 229.35 64.5 227.25 65.75 227.25 66.25 227.25 66.25 227.75 L65.95 228.7 Q65.3 230.8 64.65 235.05 L64.55 235.5 Q68.1 234.4 70.6 234.4 73.0 234.4 73.0 235.8 73.0 236.6 71.7 237.9 70.85 237.0 69.5 237.0 67.2 237.0 64.25 238.1 L64.2 238.6 64.05 243.4 Q64.05 251.05 66.1 251.05 67.05 251.05 68.4 248.85 69.5 247.05 70.0 245.45 L70.15 244.85 Q70.35 244.3 70.7 244.3 71.2 244.3 71.45 245.2 L71.55 246.0 Q71.55 247.7 69.95 250.25 67.7 253.95 65.4 253.95 62.6 253.95 61.7 249.45 61.2 247.2 61.2 244.2 L61.4 239.2 60.7 239.6 59.9 240.05 59.55 240.2 Q59.05 240.2 59.05 239.45 M263.05 234.05 L263.5 235.25 263.25 236.8 262.75 239.7 262.45 241.75 262.2 246.15 Q262.2 249.2 263.25 249.2 264.15 249.2 265.75 245.55 267.65 241.2 268.4 235.1 L269.1 231.95 Q269.8 230.75 270.65 230.75 271.25 230.75 271.25 231.45 L271.2 232.3 270.95 236.15 270.6 243.55 270.55 247.85 270.7 254.65 270.8 258.1 Q270.8 264.75 266.45 267.1 264.45 268.15 261.95 268.15 257.45 268.15 255.1 265.25 254.05 263.9 254.05 262.35 254.05 261.55 254.6 260.8 255.15 260.15 255.95 260.15 256.45 260.15 256.5 260.7 L256.5 261.95 Q256.6 264.15 259.25 265.3 260.45 265.85 261.85 265.85 264.15 265.85 265.9 264.6 L267.15 263.15 Q268.3 261.3 268.3 257.55 L268.3 255.65 268.2 249.6 268.2 244.7 268.05 245.2 266.8 247.95 265.2 250.55 Q263.8 252.35 262.5 252.35 259.55 252.35 259.55 245.85 259.55 240.2 260.9 235.3 261.3 233.35 262.05 233.35 262.55 233.35 263.05 234.05 M255.85 234.3 L256.95 235.85 Q257.55 236.7 258.65 236.8 L258.3 237.8 Q257.8 239.2 257.0 239.2 256.35 239.2 255.7 238.0 L254.7 237.0 Q254.15 237.0 253.55 238.2 251.85 241.45 251.85 246.7 L251.9 248.9 251.95 251.8 Q252.0 253.5 251.15 253.5 249.25 253.5 249.25 244.85 249.25 238.95 249.6 235.95 L249.8 234.5 Q249.95 232.75 250.6 232.75 252.05 232.75 252.05 235.65 L252.0 237.0 252.6 235.95 Q253.8 233.75 254.8 233.75 255.45 233.75 255.85 234.3 M245.35 240.7 Q246.1 242.85 246.1 245.4 246.1 250.55 243.15 253.05 241.75 254.25 240.05 254.25 236.65 254.25 234.95 249.9 234.15 247.85 234.15 245.35 234.15 241.8 235.5 238.55 L236.6 236.95 238.1 235.4 239.1 234.7 240.45 234.7 Q241.85 235.35 243.1 236.65 244.55 238.2 245.35 240.7 M216.55 234.65 Q216.55 238.1 216.1 239.15 L215.25 240.15 Q214.6 240.6 214.05 240.6 213.6 240.6 213.6 239.9 L213.7 238.35 213.8 236.8 Q213.8 235.35 212.85 235.35 210.85 235.35 209.7 239.0 208.75 241.8 208.75 244.3 208.75 246.6 209.4 248.45 210.3 251.2 212.1 251.2 214.25 251.2 216.1 246.2 216.65 244.85 217.0 244.85 217.95 244.85 217.95 246.4 217.95 247.8 216.85 249.95 215.8 252.0 214.6 252.95 213.3 254.1 211.7 254.1 208.35 254.1 206.75 249.55 206.05 247.5 206.05 244.7 206.05 239.9 208.0 236.4 210.2 232.6 213.0 232.6 213.85 232.6 214.85 233.15 215.4 232.45 215.75 232.45 216.55 232.45 216.55 234.65 M220.6 239.6 L219.75 240.05 219.35 240.2 Q218.9 240.2 218.9 239.45 218.9 237.95 221.55 236.6 L221.6 236.15 Q222.15 231.7 223.3 229.35 224.35 227.25 225.55 227.25 226.05 227.25 226.05 227.75 L225.75 228.7 Q225.1 230.8 224.45 235.05 L224.4 235.5 Q227.9 234.4 230.4 234.4 232.85 234.4 232.85 235.8 232.85 236.6 231.5 237.9 230.65 237.0 229.35 237.0 227.1 237.0 224.1 238.1 L224.0 238.6 223.85 243.4 Q223.85 251.05 225.95 251.05 226.9 251.05 228.25 248.85 229.35 247.05 229.8 245.45 L230.0 244.85 Q230.15 244.3 230.55 244.3 231.0 244.3 231.25 245.2 L231.35 246.0 Q231.35 247.7 229.75 250.25 227.6 253.95 225.25 253.95 222.5 253.95 221.5 249.45 221.0 247.2 221.0 244.2 L221.25 239.2 220.6 239.6 M236.8 245.0 Q236.8 247.15 237.45 249.0 238.45 251.55 240.25 251.55 241.9 251.55 242.8 249.1 243.4 247.45 243.4 245.4 243.4 242.35 241.95 239.9 L240.0 237.6 Q236.8 240.2 236.8 245.0 M191.4 221.2 Q191.4 222.1 190.35 223.25 189.4 222.55 187.95 222.55 185.65 222.55 181.65 224.1 L181.2 226.3 180.85 228.7 Q180.4 231.25 180.25 233.75 L180.75 233.65 185.35 233.05 Q187.3 233.05 187.3 234.05 187.3 234.95 186.25 235.35 L180.05 236.4 180.05 236.8 179.85 239.2 179.95 239.65 Q181.25 245.05 181.25 249.25 181.25 254.75 179.8 254.75 178.85 254.75 177.95 250.55 177.45 248.2 177.25 244.55 L177.15 240.95 177.1 240.25 176.8 239.35 Q176.1 237.25 176.1 236.65 176.1 235.65 177.35 234.9 L178.7 225.15 178.3 225.35 176.7 225.9 Q176.1 225.9 176.1 225.2 176.1 223.65 179.5 222.35 180.8 219.15 181.9 219.15 182.6 219.15 182.6 219.8 L182.4 220.9 182.3 221.3 Q186.45 219.85 189.1 219.85 191.4 219.85 191.4 221.2 M200.3 234.05 Q201.4 235.2 201.4 236.95 201.4 238.7 199.95 239.55 199.8 241.1 199.8 242.55 199.8 250.3 201.25 250.3 202.0 250.3 203.0 247.95 203.75 246.3 204.0 246.3 204.7 246.3 204.7 247.65 204.7 248.75 203.7 250.85 202.25 253.8 200.55 253.8 198.2 253.8 197.4 247.95 L197.3 247.25 Q194.9 252.6 191.7 252.6 189.95 252.6 188.95 250.95 188.2 249.55 188.2 247.65 188.2 242.3 191.15 237.55 194.05 232.85 197.4 232.85 199.15 232.85 200.3 234.05 M197.5 237.9 L197.5 237.6 198.7 236.65 Q198.4 235.35 197.15 235.35 195.05 235.35 192.75 240.0 190.9 243.7 190.9 246.7 190.9 249.45 192.4 249.45 194.3 249.45 196.0 244.75 197.5 240.95 197.5 237.9" fill="#000000" fill-rule="evenodd" stroke="none"/>
    </g>
    <radialGradient cx="0" cy="0" gradientTransform="matrix(0.1426, 0.0, 0.0, 0.1525, 155.7, 181.3)" gradientUnits="userSpaceOnUse" id="gradient0" r="819.2" spreadMethod="pad">
      <stop offset="0.0" stop-color="#ffcccc"/>
      <stop offset="0.3137254901960784" stop-color="#ffcccc" stop-opacity="0.9647059"/>
      <stop offset="1.0" stop-color="#ffcccc" stop-opacity="0.0"/>
    </radialGradient>
    <radialGradient cx="0" cy="0" gradientTransform="matrix(0.1889, 0.0, 0.0, -0.109, 143.85, 145.15)" gradientUnits="userSpaceOnUse" id="gradient1" r="819.2" spreadMethod="pad">
      <stop offset="0.0" stop-color="#2d9ca8"/>
      <stop offset="1.0" stop-color="#2588c9"/>
    </radialGradient>
    <radialGradient cx="0" cy="0" gradientTransform="matrix(0.1889, 0.0, 0.0, -0.109, 155.5, 137.0)" gradientUnits="userSpaceOnUse" id="gradient2" r="819.2" spreadMethod="pad">
      <stop offset="0.0" stop-color="#2d9ca8"/>
      <stop offset="1.0" stop-color="#2588c9"/>
    </radialGradient>
  </defs>
</svg>
