<?xml version="1.0" encoding="UTF-8" standalone="no"?>
<svg xmlns:xlink="http://www.w3.org/1999/xlink" height="300.0px" width="300.0px" xmlns="http://www.w3.org/2000/svg">
  <g transform="matrix(1.0, 0.0, 0.0, 1.0, 0.0, 0.0)">
    <use height="169.6" transform="matrix(1.0, 0.0, 0.0, 1.0, -7.75, 94.35)" width="314.6" xlink:href="#shape0"/>
  </g>
  <defs>
    <g id="shape0" transform="matrix(1.0, 0.0, 0.0, 1.0, 7.75, -94.35)">
      <path d="M41.1 103.95 Q33.75 98.85 23.5 98.85 13.25 98.85 5.0 102.75 -5.65 108.0 -5.65 116.9 -5.65 122.9 -0.65 125.95 3.35 128.5 9.65 128.5 L12.95 128.25 15.4 127.5 Q15.95 127.5 15.95 128.3 15.95 130.0 12.65 130.6 L8.1 131.05 Q1.9 131.05 -2.7 127.45 -7.75 123.5 -7.75 117.45 -7.75 107.7 3.55 100.65 13.7 94.35 25.7 94.35 36.75 94.35 45.25 100.05 55.2 106.65 55.2 117.05 55.2 123.6 49.1 130.1 43.0 136.6 36.55 136.6 L34.6 136.35 32.95 136.0 Q36.0 140.5 40.25 144.25 45.6 148.8 49.7 148.8 52.7 148.8 53.75 147.3 L54.9 145.65 Q55.8 145.65 55.8 146.65 55.8 148.75 52.8 150.15 50.5 151.35 47.95 151.35 40.4 151.35 33.95 145.5 28.75 140.85 24.55 133.15 L24.3 145.7 24.95 149.4 25.3 151.3 Q25.3 152.1 24.25 152.5 L22.15 152.9 Q20.7 152.9 19.5 152.2 18.3 151.5 18.3 150.6 L18.65 148.45 18.3 141.2 Q18.3 136.1 19.15 128.45 L20.9 114.3 21.95 103.7 Q21.95 102.75 22.9 102.2 23.9 101.6 24.95 101.6 26.9 101.6 27.65 102.2 28.4 102.75 28.4 103.9 26.5 111.4 25.55 117.7 24.65 123.8 24.65 130.4 L26.35 129.1 Q27.4 128.5 28.0 128.5 29.05 128.5 29.4 129.3 L30.0 130.5 Q30.55 132.45 32.2 133.5 33.75 134.6 35.95 134.6 41.75 134.6 45.6 130.05 49.45 125.5 49.45 119.5 49.45 109.75 41.1 103.95" fill="#2f499f" fill-rule="evenodd" stroke="none"/>
      <path d="M73.2 121.55 Q77.15 121.95 78.7 127.65 79.7 131.0 79.7 136.55 79.7 143.2 77.3 147.85 74.15 153.95 68.25 153.95 62.85 153.95 59.75 148.8 57.25 144.45 57.25 138.65 57.25 132.55 60.2 125.85 63.1 119.15 66.5 119.15 67.9 119.15 70.05 120.35 72.25 121.55 73.2 121.55 M74.9 128.0 Q73.2 123.5 70.55 123.5 69.75 122.9 69.2 122.9 66.1 122.9 64.0 130.0 62.2 135.9 62.2 141.7 62.2 145.2 63.55 148.2 65.3 151.9 68.5 151.9 72.1 151.9 74.55 147.2 76.55 143.2 76.55 138.7 76.55 132.4 74.9 128.0" fill="#2f499f" fill-rule="evenodd" stroke="none"/>
      <path d="M90.55 122.0 Q91.85 122.6 91.85 123.65 90.8 126.7 89.7 133.95 88.75 141.45 88.75 145.35 88.75 147.75 89.15 147.75 L92.0 135.7 Q94.75 123.65 98.65 123.65 101.6 123.65 102.7 127.4 103.45 129.7 103.45 133.45 L103.45 144.55 106.2 131.9 Q108.8 122.65 112.15 122.65 114.65 122.65 115.6 126.35 116.25 129.1 116.25 134.7 L116.25 142.45 Q116.25 146.25 116.7 148.4 117.1 150.4 118.55 150.4 119.15 150.4 119.35 151.1 119.35 152.25 117.75 152.25 113.95 152.25 112.35 147.9 111.2 144.55 111.2 138.45 L111.35 130.2 Q111.35 126.95 110.5 126.95 108.55 126.95 106.75 139.65 104.95 152.25 102.65 152.25 100.6 152.25 99.8 149.7 99.0 147.25 99.0 142.7 L99.25 132.65 Q99.25 126.95 97.5 126.95 95.3 126.95 93.25 140.4 91.25 153.85 87.6 153.85 85.55 153.85 85.0 151.45 84.35 149.0 84.35 145.85 84.35 143.05 85.1 135.3 85.85 128.5 85.85 125.2 L85.85 122.6 Q85.85 122.1 86.45 121.75 86.9 121.3 88.15 121.3 89.3 121.3 90.55 122.0" fill="#2f499f" fill-rule="evenodd" stroke="none"/>
      <path d="M143.55 122.85 Q144.55 123.5 144.55 124.6 143.65 127.85 142.95 132.3 142.3 136.95 142.3 140.9 142.3 144.15 142.8 146.75 143.25 149.75 144.85 149.75 145.55 149.75 145.9 149.25 146.3 148.65 146.6 148.65 147.35 148.65 147.35 149.8 147.35 150.7 146.45 151.2 145.6 151.75 144.55 151.75 141.55 151.75 139.8 147.9 L138.5 144.15 Q136.55 148.55 135.25 150.1 132.9 153.25 129.6 153.25 125.2 153.25 122.65 148.05 120.65 144.0 120.65 139.05 120.65 133.15 124.55 126.0 128.4 119.0 131.65 119.0 132.35 119.0 133.0 119.4 L139.4 123.2 Q140.45 122.25 141.45 122.15 142.6 122.15 143.55 122.85 M137.45 124.65 Q136.35 123.2 134.85 123.2 130.5 123.2 127.7 131.0 125.55 137.1 125.55 142.8 125.55 145.95 126.45 148.25 127.8 151.65 130.4 151.65 134.65 151.65 136.95 141.45 138.5 134.35 138.5 127.7 138.5 126.25 137.45 124.65" fill="#2f499f" fill-rule="evenodd" stroke="none"/>
      <path d="M156.5 122.65 Q155.05 128.6 154.0 135.25 153.05 142.35 153.05 145.55 153.05 147.3 153.4 147.3 L156.25 135.05 Q159.15 122.75 163.65 122.75 166.35 122.75 167.35 126.9 168.1 129.75 168.1 136.0 L168.1 143.55 Q168.1 146.75 168.4 148.55 168.65 150.15 169.7 150.15 171.5 150.15 171.5 151.15 L171.15 151.75 169.75 152.05 Q165.9 152.05 164.3 148.05 163.2 145.25 163.2 139.35 L163.3 130.45 163.05 127.45 Q162.8 126.35 162.1 126.35 159.75 126.35 158.7 133.2 L156.7 146.55 Q155.45 153.7 152.7 153.7 150.75 153.7 150.0 151.45 149.15 149.15 149.15 146.75 149.15 143.3 150.35 132.3 150.9 127.25 150.9 123.8 L151.2 121.55 Q151.5 120.4 152.95 120.4 153.95 120.4 155.3 120.95 156.5 121.6 156.5 122.65" fill="#2f499f" fill-rule="evenodd" stroke="none"/>
      <path d="M184.5 109.75 L184.2 110.45 Q183.55 111.8 183.4 112.6 182.85 114.5 182.2 119.6 L181.6 125.4 187.0 125.65 Q189.6 125.85 189.6 126.6 189.6 127.8 186.25 128.15 L181.25 128.65 Q180.7 131.1 180.5 134.2 L180.3 140.7 180.3 142.4 Q180.3 146.05 180.8 147.85 181.65 150.95 184.1 150.95 185.25 150.95 186.15 150.05 L188.05 148.2 Q189.2 148.2 189.2 149.5 189.2 151.1 187.2 152.2 185.25 153.25 183.45 153.25 178.75 153.25 176.6 148.8 175.05 145.6 175.05 140.3 175.05 136.6 175.45 133.35 L176.0 128.45 174.1 128.1 Q172.7 127.6 172.7 126.7 172.7 126.2 174.2 125.85 L176.55 125.4 Q176.55 123.3 177.35 119.15 L178.2 114.6 178.35 111.4 178.35 108.8 Q178.35 108.05 179.3 107.5 L181.1 107.05 Q182.05 107.05 183.35 107.85 184.5 108.7 184.5 109.75" fill="#2f499f" fill-rule="evenodd" stroke="none"/>
      <path d="M193.35 113.65 Q194.45 112.65 196.05 112.65 197.2 112.65 198.5 113.55 199.75 114.35 199.75 115.35 199.75 116.5 198.5 117.7 197.2 118.8 195.9 118.8 194.55 118.8 193.4 118.05 192.25 117.4 192.25 116.05 192.25 114.6 193.35 113.65 M196.95 123.15 Q198.15 123.95 198.15 124.95 196.85 128.6 196.1 134.6 195.35 140.45 195.35 144.8 195.35 147.85 195.9 148.75 196.45 149.8 197.85 149.8 198.5 149.8 199.25 148.8 200.05 147.85 200.5 147.85 L201.0 148.05 Q201.6 148.6 201.6 149.1 201.6 150.3 200.3 151.05 198.95 151.85 197.85 151.85 194.0 151.85 192.1 147.85 190.7 144.85 190.7 140.45 190.7 137.1 191.45 131.4 L192.25 123.6 Q192.25 122.65 192.85 122.45 L194.75 122.25 Q195.75 122.25 196.95 123.15" fill="#2f499f" fill-rule="evenodd" stroke="none"/>
      <path d="M229.45 98.25 Q222.4 98.25 216.35 111.25 210.7 123.3 210.7 134.25 210.7 143.25 214.2 148.95 218.45 155.7 227.1 155.7 232.85 155.7 237.0 151.65 241.1 147.55 241.1 142.2 241.1 141.85 241.5 141.2 241.95 140.7 242.55 140.7 243.2 140.7 243.6 141.4 244.0 141.95 244.0 142.8 244.0 148.9 238.2 153.45 232.85 157.7 226.2 157.7 215.9 157.7 209.95 149.1 204.65 141.45 204.65 130.7 204.65 120.4 210.65 107.85 217.1 94.45 223.65 94.45 L225.8 94.8 228.15 95.5 Q236.4 97.65 239.85 102.95 242.55 107.15 242.55 114.55 L242.55 117.4 Q242.55 121.9 241.55 123.45 240.55 124.95 238.75 124.95 238.0 124.95 236.85 124.15 235.8 123.35 235.8 122.5 L236.45 117.15 Q236.85 114.35 236.85 111.3 236.85 106.3 235.6 103.0 233.65 98.25 229.45 98.25" fill="#2f499f" fill-rule="evenodd" stroke="none"/>
      <path d="M265.85 109.8 Q265.85 120.2 263.3 128.0 260.45 137.05 254.05 143.55 254.05 146.2 255.7 148.95 257.4 151.5 260.05 151.5 261.6 151.5 262.6 150.0 263.6 148.45 263.95 148.45 265.05 148.45 265.05 149.8 265.05 151.35 263.25 152.45 261.5 153.5 259.8 153.5 256.4 153.5 253.9 150.8 252.15 149.0 250.5 145.15 L248.85 145.15 Q247.35 145.15 246.0 144.55 244.6 143.95 244.6 142.55 244.6 141.8 245.3 141.6 245.95 141.6 247.2 142.4 248.55 143.1 249.6 142.85 L248.45 136.3 Q248.0 133.5 248.0 130.2 248.0 124.9 249.0 118.5 250.25 109.55 252.6 104.25 255.6 97.3 259.8 97.3 263.55 97.3 265.0 101.95 265.85 104.9 265.85 109.8 M262.2 106.75 Q261.55 101.45 259.7 101.45 257.0 101.45 254.95 111.85 253.0 122.3 253.0 131.2 L253.2 136.25 Q253.25 138.25 253.65 141.6 258.2 137.25 260.6 128.7 262.55 121.5 262.55 112.95 262.55 109.35 262.2 106.75" fill="#2f499f" fill-rule="evenodd" stroke="none"/>
      <path d="M278.95 149.1 Q278.95 150.2 277.6 151.05 276.3 151.85 275.15 151.85 271.35 151.85 269.45 147.85 268.0 144.9 268.0 140.45 268.0 137.9 268.75 131.4 269.5 125.65 269.5 123.6 269.5 122.75 270.2 122.45 L272.1 122.25 Q273.15 122.25 274.25 123.15 275.5 124.0 275.5 124.95 274.2 128.45 273.4 134.6 272.6 140.45 272.6 144.8 272.6 147.85 273.2 148.75 273.85 149.8 275.15 149.8 275.9 149.8 276.55 148.8 277.35 147.85 277.8 147.85 L278.35 148.05 Q278.95 148.65 278.95 149.1 M273.25 118.8 Q271.85 118.8 270.75 118.05 269.5 117.35 269.5 116.05 269.5 114.6 270.65 113.65 271.8 112.65 273.3 112.65 274.5 112.65 275.75 113.55 277.05 114.3 277.05 115.35 277.05 116.6 275.75 117.7 274.5 118.8 273.25 118.8" fill="#2f499f" fill-rule="evenodd" stroke="none"/>
      <path d="M289.85 118.45 Q288.7 121.55 287.9 126.0 286.95 130.7 286.95 136.4 288.3 130.8 290.25 127.35 293.2 122.1 297.6 122.1 302.3 122.1 304.8 127.15 306.85 131.25 306.85 136.35 306.85 142.85 303.5 147.3 299.75 152.35 293.55 152.35 L290.65 152.0 Q289.45 151.7 287.7 150.7 286.95 156.35 286.95 163.0 L287.35 167.9 287.85 170.7 Q287.85 171.6 286.85 172.05 L284.75 172.4 Q283.55 172.4 282.85 171.6 282.1 170.8 282.1 169.65 L282.35 150.5 Q282.35 142.25 282.9 135.2 283.5 127.15 284.55 118.9 284.55 117.4 284.8 116.7 285.0 115.9 286.15 115.9 287.25 115.9 288.55 116.65 289.85 117.35 289.85 118.45 M289.6 134.3 Q287.85 141.0 287.85 147.25 L288.9 148.6 Q290.25 150.85 293.25 150.85 297.85 150.85 300.1 146.25 301.8 142.75 301.8 137.4 301.8 133.1 301.0 130.15 299.55 125.35 296.25 125.35 292.0 125.35 289.6 134.3" fill="#2f499f" fill-rule="evenodd" stroke="none"/>
      <path d="M24.85 177.7 L20.0 177.7 20.0 202.3 Q20.0 205.2 20.7 206.15 21.35 207.15 23.45 207.15 L23.45 208.1 12.15 208.1 12.15 207.15 Q14.3 207.15 15.0 206.05 15.75 204.85 15.75 202.1 L15.75 177.7 11.15 177.7 Q7.85 177.7 6.35 178.8 4.9 179.75 4.6 182.3 L3.65 182.3 3.65 174.95 4.6 174.95 Q5.95 176.2 9.4 176.2 L26.15 176.2 Q29.8 176.2 31.2 174.95 L32.2 174.95 32.2 182.3 31.65 182.3 Q31.05 179.65 29.45 178.7 27.8 177.7 24.85 177.7" fill="#585455" fill-rule="evenodd" stroke="none"/>
      <path d="M37.05 187.85 Q40.3 187.85 42.2 189.7 44.2 191.65 44.2 195.05 L44.2 203.5 Q44.2 205.35 44.45 206.0 44.6 206.6 45.3 206.6 L46.0 206.2 46.65 204.7 47.6 204.7 Q47.4 206.6 46.45 207.6 45.5 208.75 43.75 208.75 41.4 208.75 40.4 205.9 L37.85 208.15 Q36.7 208.75 35.15 208.75 32.85 208.75 31.15 207.2 29.45 205.65 29.45 203.45 29.45 201.35 30.9 200.05 32.25 198.75 36.7 197.5 L40.4 196.15 40.4 194.7 Q40.4 192.6 39.25 191.25 38.0 189.9 36.0 189.9 34.25 189.9 32.8 191.05 31.35 192.15 30.8 194.15 L29.75 193.85 Q30.4 191.2 32.4 189.5 34.35 187.85 37.05 187.85 M34.15 200.3 Q33.3 201.3 33.3 203.0 33.3 204.45 34.2 205.5 35.1 206.6 36.3 206.6 37.55 206.6 38.65 205.85 39.85 205.15 40.4 204.1 L40.4 197.4 37.95 198.3 Q35.1 199.25 34.15 200.3" fill="#585455" fill-rule="evenodd" stroke="none"/>
      <path d="M55.85 187.85 L55.85 191.75 Q59.25 187.85 62.95 187.85 65.8 187.85 67.7 189.75 69.6 191.65 69.6 194.9 L69.6 203.8 Q69.6 205.9 70.3 206.5 70.95 207.15 73.0 207.15 L73.0 208.1 62.45 208.1 62.45 207.15 65.1 206.7 Q65.85 206.15 65.85 204.75 L65.85 194.4 Q65.85 192.35 64.6 191.1 63.35 189.9 61.4 189.9 58.65 189.9 55.85 193.75 L55.85 203.4 Q55.85 205.85 56.45 206.5 57.1 207.15 59.1 207.15 L59.1 208.1 48.7 208.1 48.7 207.15 Q51.0 207.15 51.5 206.45 52.0 205.7 52.0 203.4 L52.0 192.25 Q52.0 190.5 51.4 189.9 50.8 189.35 48.7 189.35 L48.7 188.45 54.85 187.85 55.85 187.85" fill="#585455" fill-rule="evenodd" stroke="none"/>
      <path d="M91.7 173.1 L91.7 204.3 Q91.7 206.0 92.4 206.55 93.05 207.15 95.0 207.15 L95.0 208.1 83.5 208.1 Q78.1 208.1 75.1 205.15 72.0 202.25 72.0 197.85 72.0 193.7 74.75 190.75 77.45 187.85 81.3 187.85 84.4 187.85 87.9 190.25 L87.9 178.15 Q87.9 176.15 87.4 175.45 86.85 174.7 85.3 174.7 L84.15 174.7 84.15 173.8 90.8 173.1 91.7 173.1 M87.9 192.3 Q86.7 190.7 85.2 189.9 83.75 189.0 82.15 189.0 79.35 189.0 77.85 191.25 76.15 193.45 76.15 196.95 76.15 201.6 78.45 204.4 80.7 207.2 84.8 207.2 86.45 207.2 87.2 206.5 87.9 205.8 87.9 204.25 L87.9 192.3" fill="#585455" fill-rule="evenodd" stroke="none"/>
      <path d="M99.6 195.1 L110.4 195.1 110.4 194.75 Q110.4 192.15 108.85 190.55 107.35 189.0 105.1 189.0 102.65 189.0 101.25 190.65 99.8 192.15 99.6 195.1 M95.7 198.5 Q95.7 193.95 98.55 190.9 101.4 187.85 105.6 187.85 109.05 187.85 111.55 190.15 114.1 192.45 114.1 195.7 L114.1 196.1 99.6 196.1 99.6 196.35 Q99.6 199.55 100.6 202.0 101.65 204.45 103.55 205.8 105.4 207.15 107.5 207.15 109.45 207.15 110.8 206.35 L114.45 203.05 114.45 204.45 Q112.6 206.8 110.8 207.75 108.9 208.75 106.35 208.75 101.7 208.75 98.65 205.8 95.7 202.95 95.7 198.5" fill="#585455" fill-rule="evenodd" stroke="none"/>
      <path d="M123.5 191.95 Q124.85 189.95 126.65 188.95 128.45 187.85 130.5 187.85 132.7 187.85 134.3 189.0 136.0 190.2 136.7 192.3 139.85 187.85 144.0 187.85 146.95 187.85 148.75 189.6 150.7 191.35 150.7 194.45 L150.7 204.4 Q150.7 206.05 151.4 206.55 152.15 207.15 153.95 207.15 L153.95 208.1 143.55 208.1 143.55 207.15 Q145.7 207.15 146.3 206.45 146.9 205.7 146.9 203.35 L146.9 194.0 Q146.9 192.05 145.7 191.0 144.5 189.9 142.6 189.9 139.55 189.9 137.0 193.75 L137.0 204.3 Q137.0 205.9 137.75 206.55 138.5 207.15 140.35 207.15 L140.35 208.1 129.95 208.1 129.95 207.15 Q132.2 207.15 132.7 206.4 133.25 205.7 133.25 203.35 L133.25 194.2 Q133.25 192.35 132.1 191.05 130.8 189.9 129.05 189.9 127.45 189.9 125.9 190.95 124.3 192.05 123.35 193.75 L123.35 204.45 Q123.35 206.0 124.05 206.55 124.85 207.15 126.7 207.15 L126.7 208.1 116.25 208.1 116.25 207.15 Q118.45 207.15 119.0 206.45 119.55 205.8 119.55 203.95 L119.55 192.25 Q119.55 190.65 118.9 190.0 118.25 189.35 116.8 189.35 L115.6 189.35 115.6 188.45 122.45 187.85 123.35 187.85 123.35 191.95 123.5 191.95" fill="#585455" fill-rule="evenodd" stroke="none"/>
      <path d="M183.7 177.7 L178.85 177.7 178.85 202.3 Q178.85 205.2 179.55 206.15 180.15 207.15 182.3 207.15 L182.3 208.1 171.0 208.1 171.0 207.15 Q173.1 207.15 173.85 206.05 174.6 204.85 174.6 202.1 L174.6 177.7 170.0 177.7 Q166.7 177.7 165.15 178.8 163.6 179.85 163.45 182.3 L162.5 182.3 162.5 174.95 163.45 174.95 Q164.8 176.2 168.25 176.2 L184.95 176.2 Q188.6 176.2 190.05 174.95 L191.05 174.95 191.05 182.3 190.4 182.3 Q189.85 179.7 188.3 178.7 186.65 177.7 183.7 177.7" fill="#585455" fill-rule="evenodd" stroke="none"/>
      <path d="M203.5 190.85 Q206.6 193.85 206.6 198.3 206.6 202.75 203.5 205.75 200.5 208.75 195.8 208.75 191.15 208.75 188.05 205.75 184.95 202.75 184.95 198.3 184.95 193.85 188.05 190.85 191.15 187.85 195.8 187.85 200.5 187.85 203.5 190.85 M195.8 188.9 Q192.75 188.9 190.9 191.45 189.05 194.1 189.05 198.3 189.05 202.45 190.9 205.1 192.65 207.6 195.8 207.6 198.9 207.6 200.7 205.1 202.45 202.45 202.45 198.3 202.45 194.1 200.7 191.55 198.9 188.9 195.8 188.9" fill="#585455" fill-rule="evenodd" stroke="none"/>
      <path d="M227.9 195.7 L227.9 196.1 213.4 196.1 213.4 196.35 Q213.4 199.55 214.4 202.0 215.35 204.35 217.25 205.8 219.25 207.15 221.25 207.15 223.1 207.15 224.6 206.35 225.95 205.5 228.2 203.05 L228.2 204.45 Q226.45 206.75 224.6 207.75 222.7 208.75 220.1 208.75 215.5 208.75 212.45 205.8 209.45 202.9 209.45 198.5 209.45 194.05 212.3 190.9 215.15 187.85 219.35 187.85 222.85 187.85 225.35 190.15 227.9 192.5 227.9 195.7 M218.85 189.0 Q216.45 189.0 215.05 190.65 213.6 192.15 213.4 195.1 L224.15 195.1 224.15 194.75 Q224.15 192.15 222.65 190.55 221.15 189.0 218.85 189.0" fill="#585455" fill-rule="evenodd" stroke="none"/>
      <path d="M242.2 189.9 Q239.5 189.9 236.55 193.75 L236.55 203.4 Q236.55 205.75 237.2 206.5 237.8 207.15 239.9 207.15 L239.9 208.1 229.5 208.1 229.5 207.15 Q231.7 207.15 232.25 206.45 232.75 205.75 232.75 203.4 L232.75 192.25 Q232.75 190.5 232.15 189.9 231.55 189.35 229.5 189.35 L229.5 188.45 235.65 187.85 236.55 187.85 236.55 191.75 Q240.1 187.85 243.7 187.85 246.6 187.85 248.5 189.75 250.4 191.75 250.4 194.9 L250.4 203.8 Q250.4 205.9 251.1 206.5 251.65 207.15 253.7 207.15 L253.7 208.1 243.2 208.1 243.2 207.15 245.9 206.7 Q246.6 206.15 246.6 204.75 L246.6 194.4 Q246.6 192.35 245.35 191.1 244.1 189.9 242.2 189.9" fill="#585455" fill-rule="evenodd" stroke="none"/>
      <path d="M268.65 195.05 L268.65 203.5 Q268.65 205.35 268.85 206.0 269.05 206.6 269.75 206.6 L270.45 206.2 271.1 204.7 272.05 204.7 Q271.85 206.6 270.85 207.6 269.9 208.75 268.15 208.75 265.85 208.75 264.85 205.9 263.25 207.6 262.25 208.15 261.15 208.75 259.5 208.75 257.25 208.75 255.6 207.2 253.9 205.65 253.9 203.45 253.9 201.35 255.35 200.05 256.7 198.75 261.15 197.5 L264.85 196.15 264.85 194.7 Q264.85 192.6 263.65 191.25 262.45 189.9 260.45 189.9 258.7 189.9 257.15 191.05 255.8 192.15 255.2 194.15 L254.2 193.85 Q254.85 191.2 256.8 189.5 258.8 187.85 261.5 187.85 264.7 187.85 266.65 189.7 268.65 191.65 268.65 195.05 M258.65 205.5 Q259.5 206.6 260.75 206.6 261.9 206.6 263.1 205.85 264.3 205.15 264.85 204.1 L264.85 197.4 262.4 198.3 Q259.5 199.25 258.55 200.3 257.75 201.3 257.75 203.0 257.75 204.45 258.65 205.5" fill="#585455" fill-rule="evenodd" stroke="none"/>
      <path d="M280.8 178.3 Q281.45 179.05 281.45 180.0 281.45 181.0 280.75 181.75 280.05 182.45 279.1 182.45 278.05 182.45 277.35 181.75 276.6 181.0 276.6 180.0 276.6 179.0 277.35 178.3 278.05 177.6 279.1 177.6 280.1 177.6 280.8 178.3 M277.1 192.3 Q277.1 190.5 276.5 189.95 275.9 189.35 273.4 189.35 L273.4 188.45 279.95 187.85 280.9 187.85 280.9 204.45 Q280.9 206.1 281.6 206.6 282.35 207.15 284.2 207.15 L284.2 208.1 273.4 208.1 273.4 207.15 Q275.85 207.15 276.4 206.6 277.1 206.1 277.1 204.45 L277.1 192.3" fill="#585455" fill-rule="evenodd" stroke="none"/>
      <path d="M294.05 173.1 L294.05 204.4 Q294.05 206.05 294.75 206.55 295.3 207.15 297.15 207.15 L297.65 207.15 297.65 208.1 286.65 208.1 286.65 207.15 287.65 207.15 Q289.15 207.15 289.7 206.4 290.3 205.65 290.3 203.45 L290.3 177.45 Q290.3 175.95 289.7 175.25 289.0 174.7 287.6 174.7 L286.3 174.7 286.3 173.8 293.15 173.1 294.05 173.1" fill="#585455" fill-rule="evenodd" stroke="none"/>
      <path d="M77.75 220.9 Q74.55 224.9 74.55 231.35 74.55 238.5 77.9 242.9 81.2 247.25 86.75 247.25 94.3 247.25 97.85 240.2 L98.65 241.05 Q97.05 244.9 93.55 247.05 89.9 249.3 85.35 249.3 81.05 249.3 77.3 247.25 73.7 245.25 71.65 241.6 69.65 238.05 69.65 233.35 69.65 225.75 74.35 220.7 79.0 215.75 86.15 215.75 88.55 215.75 92.25 216.65 L95.05 217.1 Q96.3 217.1 96.8 216.1 L97.7 216.1 97.7 225.65 96.75 225.65 Q95.65 221.2 93.05 219.1 90.6 217.0 86.4 217.0 80.9 217.0 77.75 220.9" fill="#585455" fill-rule="evenodd" stroke="none"/>
      <path d="M109.2 213.45 L109.2 244.75 Q109.2 246.4 109.9 247.0 110.6 247.6 112.3 247.6 L112.85 247.6 112.85 248.45 101.85 248.45 101.85 247.6 102.85 247.6 Q104.35 247.6 104.9 246.75 105.45 246.0 105.45 243.85 L105.45 217.8 Q105.45 216.3 104.8 215.65 104.25 215.05 102.75 215.05 L101.5 215.05 101.5 214.15 108.35 213.45 109.2 213.45" fill="#585455" fill-rule="evenodd" stroke="none"/>
      <path d="M120.45 217.95 Q121.45 217.95 122.15 218.7 122.85 219.4 122.85 220.35 122.85 221.45 122.1 222.15 121.35 222.85 120.45 222.85 119.4 222.85 118.7 222.15 117.9 221.45 117.9 220.35 117.9 219.4 118.7 218.7 119.4 217.95 120.45 217.95 M121.25 228.2 L122.25 228.2 122.25 244.85 Q122.25 246.45 122.95 247.0 123.7 247.6 125.55 247.6 L125.55 248.45 114.7 248.45 114.7 247.6 Q117.05 247.6 117.75 247.0 118.45 246.45 118.45 244.85 L118.45 232.65 Q118.45 230.8 117.8 230.3 117.2 229.75 114.7 229.75 L114.7 228.8 121.25 228.2" fill="#585455" fill-rule="evenodd" stroke="none"/>
      <path d="M150.2 238.5 Q150.2 243.15 147.45 246.05 144.65 249.1 140.45 249.1 137.4 249.1 134.5 246.75 L134.5 259.75 Q134.5 261.8 135.2 262.4 135.75 263.05 137.75 263.05 L137.75 263.95 127.15 263.95 127.15 263.05 Q129.25 263.05 129.9 262.45 130.7 261.85 130.7 260.3 L130.7 232.8 Q130.7 230.8 130.05 230.25 129.45 229.75 127.15 229.75 L127.15 228.8 133.5 228.2 134.5 228.2 134.5 231.5 Q136.4 229.7 137.85 228.95 139.4 228.2 141.35 228.2 145.2 228.2 147.7 231.15 150.2 234.0 150.2 238.5 M139.8 230.05 Q137.05 230.05 134.5 233.0 L134.5 245.35 Q136.75 247.8 139.9 247.8 142.55 247.8 144.35 245.3 146.1 242.85 146.1 239.15 146.1 235.25 144.35 232.6 142.5 230.05 139.8 230.05" fill="#585455" fill-rule="evenodd" stroke="none"/>
      <path d="M174.65 238.5 Q174.65 243.05 171.85 246.05 169.05 249.1 164.85 249.1 161.9 249.1 158.9 246.75 L158.9 259.75 Q158.9 261.8 159.6 262.4 160.2 263.05 162.15 263.05 L162.15 263.95 151.6 263.95 151.6 263.05 Q153.75 263.05 154.35 262.45 155.05 261.9 155.05 260.3 L155.05 232.8 Q155.05 230.85 154.5 230.25 153.9 229.75 151.6 229.75 L151.6 228.8 157.95 228.2 158.9 228.2 158.9 231.5 Q160.8 229.7 162.25 228.95 163.8 228.2 165.7 228.2 169.7 228.2 172.1 231.15 174.65 234.05 174.65 238.5 M164.2 230.05 Q161.45 230.05 158.9 233.0 L158.9 245.35 Q161.15 247.8 164.3 247.8 167.0 247.8 168.75 245.3 170.6 242.8 170.6 239.15 170.6 235.35 168.75 232.6 167.0 230.05 164.2 230.05" fill="#585455" fill-rule="evenodd" stroke="none"/>
      <path d="M196.05 236.45 L181.5 236.45 181.5 236.7 Q181.5 240.15 182.5 242.35 183.45 244.75 185.4 246.2 187.35 247.5 189.35 247.5 191.25 247.5 192.7 246.7 194.05 245.9 196.3 243.45 L196.3 244.85 Q194.7 247.05 192.7 248.1 190.7 249.1 188.2 249.1 183.5 249.1 180.6 246.2 177.55 243.3 177.55 238.85 177.55 234.4 180.4 231.25 183.25 228.2 187.5 228.2 190.95 228.2 193.45 230.5 196.05 232.9 196.05 236.05 L196.05 236.45 M192.25 235.1 Q192.25 232.5 190.75 230.9 189.15 229.4 186.95 229.4 184.55 229.4 183.1 231.0 181.65 232.7 181.5 235.45 L192.25 235.45 192.25 235.1" fill="#585455" fill-rule="evenodd" stroke="none"/>
      <path d="M206.4 232.5 L210.65 229.15 Q212.1 228.2 213.15 228.2 215.0 228.2 216.8 229.75 L215.3 233.25 Q212.1 231.5 210.6 231.5 208.95 231.5 206.4 233.9 L206.4 244.75 Q206.4 246.4 207.1 247.0 207.85 247.6 209.7 247.6 L209.7 248.45 199.25 248.45 199.25 247.6 Q201.3 247.6 202.0 246.9 202.65 246.25 202.65 243.8 L202.65 232.95 Q202.65 230.95 201.95 230.3 201.3 229.75 198.55 229.75 L198.55 228.8 205.45 228.2 206.4 228.2 206.4 232.5" fill="#585455" fill-rule="evenodd" stroke="none"/>
      <path d="M231.95 234.25 L230.85 234.25 Q230.6 232.0 229.2 230.6 227.85 229.25 225.95 229.25 224.6 229.25 223.55 230.05 222.65 230.75 222.65 231.95 222.65 233.15 223.45 234.05 224.3 235.0 227.1 236.3 230.8 238.0 231.85 239.4 233.0 240.9 233.0 243.0 233.0 245.4 231.15 247.3 229.3 249.1 226.75 249.1 225.4 249.1 223.3 248.15 L221.75 247.65 Q221.25 247.65 220.9 248.0 220.5 248.5 220.5 249.0 L219.55 249.0 219.55 242.25 220.5 242.25 Q221.0 244.9 222.75 246.45 224.45 248.0 226.8 248.0 228.3 248.0 229.25 247.05 230.25 246.05 230.25 244.6 230.25 243.25 229.4 242.2 228.45 241.15 225.4 239.85 221.95 238.3 220.9 237.05 219.8 235.75 219.8 233.9 219.8 231.5 221.6 229.85 223.35 228.2 225.8 228.2 227.0 228.2 228.25 228.75 L229.85 229.15 Q230.65 229.15 231.0 228.2 L231.95 228.2 231.95 234.25" fill="#585455" fill-rule="evenodd" stroke="none"/>
    </g>
  </defs>
</svg>
