<?xml version="1.0" encoding="UTF-8" standalone="no"?>
<svg xmlns:xlink="http://www.w3.org/1999/xlink" height="300.0px" width="300.0px" xmlns="http://www.w3.org/2000/svg">
  <g transform="matrix(1.0, 0.0, 0.0, 1.0, 0.0, 0.0)">
    <use height="38.3" transform="matrix(1.8156, 0.0, 0.0, 1.8156, 12.8028, 145.2163)" width="149.85" xlink:href="#text0"/>
    <use height="106.4" transform="matrix(1.0, 0.0, 0.0, 1.0, 94.15, 38.6)" width="103.45" xlink:href="#shape0"/>
  </g>
  <defs>
    <g id="text0" transform="matrix(1.0, 0.0, 0.0, 1.0, 1.1, -4.25)">
      <g transform="matrix(1.0, 0.0, 0.0, 1.0, 0.0, 0.0)">
        <use fill="#ec1c24" height="38.3" transform="matrix(0.0433, 0.0, 0.0, 0.0433, 0.0, 41.0)" width="149.85" xlink:href="#font_Alex_T0"/>
        <use fill="#ec1c24" height="38.3" transform="matrix(0.0433, 0.0, 0.0, 0.0433, 10.1, 41.0)" width="149.85" xlink:href="#font_Alex_e0"/>
        <use fill="#ec1c24" height="38.3" transform="matrix(0.0433, 0.0, 0.0, 0.0433, 27.35, 41.0)" width="149.85" xlink:href="#font_Alex_d0"/>
        <use fill="#ec1c24" height="38.3" transform="matrix(0.0433, 0.0, 0.0, 0.0433, 44.05, 41.0)" width="149.85" xlink:href="#font_Alex__0"/>
        <use fill="#ec1c24" height="38.3" transform="matrix(0.0433, 0.0, 0.0, 0.0433, 47.25, 41.0)" width="149.85" xlink:href="#font_Alex_s0"/>
        <use fill="#ec1c24" height="38.3" transform="matrix(0.0433, 0.0, 0.0, 0.0433, 71.3, 41.0)" width="149.85" xlink:href="#font_Alex_W0"/>
        <use fill="#ec1c24" height="38.3" transform="matrix(0.0433, 0.0, 0.0, 0.0433, 95.7, 41.0)" width="149.85" xlink:href="#font_Alex_i0"/>
        <use fill="#ec1c24" height="38.3" transform="matrix(0.0433, 0.0, 0.0, 0.0433, 103.45, 41.0)" width="149.85" xlink:href="#font_Alex_r0"/>
        <use fill="#ec1c24" height="38.3" transform="matrix(0.0433, 0.0, 0.0, 0.0433, 118.55, 41.0)" width="149.85" xlink:href="#font_Alex_e0"/>
        <use fill="#ec1c24" height="38.3" transform="matrix(0.0433, 0.0, 0.0, 0.0433, 134.7, 41.0)" width="149.85" xlink:href="#font_Alex_s0"/>
      </g>
    </g>
    <g id="font_Alex_T0">
      <path d="M365.5 -668.5 L365.5 -668.5 Q367.5 -670.5 368.5 -672.5 369.5 -674.5 370.5 -676.5 371.5 -679.0 371.5 -681.0 L371.5 -691.0 Q371.5 -698.5 368.5 -703.5 365.5 -708.5 353.0 -711.5 L333.5 -711.5 Q328.5 -711.5 323.5 -708.5 321.5 -706.5 314.5 -704.5 L292.0 -703.5 279.5 -703.5 Q264.0 -702.5 251.0 -702.0 237.5 -701.5 226.0 -701.5 189.5 -701.5 168.0 -704.0 146.5 -706.5 126.0 -710.0 114.5 -712.0 102.0 -713.5 89.0 -715.0 72.5 -717.0 67.5 -717.0 62.5 -717.5 57.0 -718.0 52.0 -719.0 46.0 -720.0 40.5 -720.5 34.5 -721.0 30.5 -721.0 L18.5 -721.0 Q12.0 -724.0 6.0 -724.0 0.0 -724.0 -6.5 -721.0 -14.5 -721.0 -20.0 -719.0 -25.5 -717.0 -25.5 -713.0 L-25.5 -700.5 Q-25.5 -693.5 -23.0 -685.0 -20.5 -677.0 -8.5 -677.0 L0.0 -677.0 11.0 -678.0 29.5 -681.0 Q33.5 -682.0 38.5 -683.0 43.0 -684.0 47.0 -685.0 55.0 -684.0 62.0 -683.0 68.5 -682.0 73.5 -681.0 82.0 -680.0 89.0 -679.0 96.0 -678.0 105.0 -677.5 113.5 -677.0 125.5 -676.0 137.0 -675.0 154.5 -673.0 159.5 -611.5 161.0 -552.5 162.5 -493.5 162.5 -433.0 162.5 -365.5 161.0 -298.5 159.5 -231.5 157.5 -166.0 156.5 -141.5 156.0 -117.5 155.5 -93.0 154.5 -68.5 L154.5 -44.0 Q154.5 -38.0 152.0 -32.5 149.5 -26.5 150.5 -19.5 151.5 -11.5 153.0 -7.5 154.5 -4.0 162.5 -2.0 L176.0 0.0 Q187.0 0.0 194.0 -4.5 200.5 -9.0 200.5 -20.5 L202.5 -30.5 Q203.5 -35.0 203.0 -39.5 202.5 -44.0 200.5 -46.0 197.5 -49.0 196.5 -53.0 195.5 -57.5 195.5 -59.5 197.5 -131.0 199.0 -210.0 200.5 -288.5 200.5 -371.5 200.5 -445.5 199.0 -523.0 197.5 -601.0 195.5 -671.5 L305.0 -668.5 Q310.0 -668.5 325.5 -663.5 L342.0 -661.5 Q350.0 -663.5 352.5 -664.0 355.0 -664.5 357.0 -664.5 358.5 -664.5 360.0 -665.5 361.5 -666.5 365.5 -668.5" fill-rule="evenodd" stroke="none"/>
    </g>
    <g id="font_Alex_e0">
      <path d="M149.5 -218.0 L220.5 -218.0 Q251.0 -218.0 278.5 -224.0 306.5 -230.5 327.5 -241.5 348.5 -253.0 360.5 -270.5 373.0 -288.5 373.0 -311.0 373.0 -327.5 362.0 -346.0 351.5 -364.5 332.5 -379.5 313.5 -395.0 287.0 -405.5 260.5 -415.5 228.5 -415.5 191.5 -415.5 158.0 -398.5 124.0 -381.5 98.0 -352.5 71.5 -323.5 56.5 -285.0 41.0 -246.5 41.0 -204.5 41.0 -149.5 65.5 -111.5 90.0 -73.5 125.5 -50.5 161.0 -27.5 200.5 -17.0 240.5 -7.0 272.5 -7.0 284.5 -7.0 297.5 -7.0 310.5 -7.0 319.5 -10.0 327.5 -11.0 329.5 -12.0 332.0 -12.5 334.0 -12.5 L341.0 -14.5 Q346.0 -16.5 354.0 -23.0 361.5 -30.0 361.5 -37.0 359.5 -48.0 359.0 -50.5 358.5 -53.5 357.5 -54.5 L355.5 -57.5 Q352.5 -62.5 349.0 -62.5 346.0 -62.5 341.0 -62.5 336.0 -62.5 335.0 -59.0 334.0 -55.5 333.0 -55.5 324.0 -55.5 320.0 -52.5 316.5 -49.0 309.5 -48.0 L300.0 -43.0 Q293.0 -41.0 285.5 -40.5 277.5 -40.0 272.5 -40.0 231.5 -40.0 196.5 -52.0 161.0 -63.5 135.0 -85.0 108.5 -106.5 94.0 -135.5 79.0 -165.0 79.0 -199.5 79.0 -235.5 91.0 -269.0 102.5 -302.0 122.5 -328.0 142.5 -354.5 169.5 -370.0 197.0 -386.0 228.5 -386.0 248.0 -386.0 267.0 -379.5 286.0 -372.5 301.0 -362.0 316.5 -351.0 326.5 -338.0 336.0 -324.5 336.0 -311.0 336.0 -286.5 307.5 -267.0 278.5 -247.5 228.5 -247.5 220.5 -247.5 206.0 -248.5 191.5 -249.5 174.0 -255.5 171.0 -255.5 167.0 -256.5 163.0 -257.5 159.0 -257.5 150.5 -260.0 145.0 -259.5 139.5 -259.0 131.0 -259.0 129.0 -260.0 126.0 -260.0 120.0 -260.0 117.0 -257.5 113.0 -254.5 111.0 -250.0 109.5 -245.5 109.5 -243.5 109.5 -233.5 111.0 -230.5 113.0 -228.0 121.0 -222.0 125.0 -220.0 127.0 -220.0 129.0 -220.0 130.0 -221.0 132.0 -219.0 136.0 -218.5 139.5 -218.0 142.5 -218.0 L149.5 -218.0" fill-rule="evenodd" stroke="none"/>
    </g>
    <g id="font_Alex_d0">
      <path d="M278.5 -289.5 L278.5 -289.5 Q278.5 -241.5 279.5 -184.0 280.5 -126.0 286.5 -78.0 283.5 -71.0 276.5 -62.5 269.5 -53.5 258.0 -46.0 247.0 -38.0 231.5 -33.0 216.0 -28.0 195.5 -28.0 176.0 -28.0 153.5 -40.5 131.0 -52.5 111.5 -75.5 92.0 -98.5 79.0 -132.0 65.5 -165.0 64.5 -206.0 63.5 -243.5 74.5 -274.0 86.0 -304.0 104.0 -325.0 122.0 -346.0 144.5 -357.5 167.0 -369.5 188.5 -369.5 209.0 -369.5 225.5 -362.0 241.5 -354.0 253.5 -342.5 265.0 -330.5 272.0 -316.5 278.5 -302.0 278.5 -289.5 M346.5 -6.0 L346.5 -6.0 Q354.5 -12.5 353.5 -21.5 352.5 -31.0 347.5 -39.0 342.0 -48.0 338.5 -54.5 335.0 -60.5 332.5 -67.0 330.0 -74.0 328.0 -82.5 326.0 -91.0 324.0 -104.5 319.5 -140.5 318.0 -197.0 316.5 -254.0 315.5 -323.5 314.5 -393.5 314.5 -471.0 314.5 -549.0 312.5 -625.5 311.5 -633.0 312.0 -638.0 312.5 -643.0 310.5 -654.5 311.5 -657.5 308.5 -661.5 303.5 -668.5 290.0 -668.5 284.0 -668.5 275.5 -665.0 267.5 -661.5 267.5 -650.0 L267.5 -646.0 267.5 -630.5 Q267.5 -625.5 269.5 -623.5 271.5 -621.5 271.5 -618.5 L271.5 -611.0 274.5 -560.0 Q276.5 -516.0 279.0 -464.5 281.5 -412.5 281.5 -354.5 275.5 -365.5 264.0 -374.5 253.0 -384.0 240.0 -391.0 227.0 -398.5 214.0 -402.5 200.5 -406.5 190.5 -406.5 157.5 -406.5 127.0 -390.0 96.0 -373.5 73.0 -346.5 50.0 -319.5 37.5 -283.0 24.5 -247.0 26.5 -206.0 28.5 -153.5 46.0 -114.5 63.5 -75.0 88.0 -48.0 112.5 -21.5 141.5 -8.5 170.0 5.0 195.5 5.0 226.5 5.0 249.0 -4.5 271.5 -14.5 298.0 -40.0 300.0 -30.0 309.5 -17.5 318.5 -5.0 325.0 -4.0 335.0 3.0 346.5 -6.0" fill-rule="evenodd" stroke="none"/>
    </g>
    <g id="font_Alex__0">
      <path d="M113.5 -732.0 L127.0 -758.0 129.0 -765.0 129.0 -772.0 Q130.0 -776.0 130.0 -780.5 130.0 -788.5 127.0 -790.5 125.0 -792.5 122.0 -794.5 115.5 -798.5 112.5 -798.5 108.5 -798.5 99.5 -799.0 90.0 -799.5 88.0 -790.5 L85.0 -778.0 Q83.0 -775.0 81.5 -772.0 80.0 -769.0 80.0 -762.0 81.0 -761.0 77.5 -747.0 73.5 -733.0 73.5 -722.0 66.5 -699.5 61.0 -683.5 55.5 -667.5 48.5 -653.5 42.0 -639.0 34.5 -624.5 26.5 -610.5 14.5 -590.0 11.5 -583.5 13.5 -577.5 15.5 -571.5 20.5 -568.5 25.5 -565.0 31.0 -566.5 37.0 -567.5 40.0 -574.5 63.5 -609.5 76.5 -642.5 89.0 -676.0 103.5 -714.5 105.5 -718.0 109.5 -724.0 113.5 -730.0 113.5 -732.0" fill-rule="evenodd" stroke="none"/>
    </g>
    <g id="font_Alex_s0">
      <path d="M322.5 -430.0 L322.5 -430.0 Q324.5 -434.0 324.5 -438.5 324.5 -443.0 319.5 -451.5 318.5 -459.5 312.5 -462.5 307.0 -465.5 301.0 -472.0 296.0 -479.0 288.5 -485.0 281.5 -491.5 276.5 -496.5 265.0 -504.5 246.5 -510.0 228.5 -515.0 203.5 -515.0 179.0 -515.0 157.5 -504.0 136.0 -493.5 120.5 -474.5 104.5 -455.5 94.5 -430.0 85.0 -404.5 85.0 -373.5 85.0 -338.0 95.5 -313.5 106.5 -288.5 122.0 -270.5 137.0 -252.0 156.0 -237.5 175.0 -223.0 190.0 -207.0 205.5 -190.5 216.5 -169.5 227.0 -148.5 227.0 -119.0 227.0 -100.5 217.0 -82.5 206.5 -64.5 191.0 -50.5 175.0 -37.0 155.0 -28.0 135.5 -19.5 116.0 -19.5 89.5 -19.5 78.5 -22.5 68.0 -25.5 64.0 -29.5 58.5 -34.0 52.0 -35.5 45.5 -37.0 39.0 -38.0 L32.0 -39.0 28.0 -39.0 Q24.0 -39.0 19.5 -35.0 L14.5 -29.5 Q10.5 -24.5 10.5 -18.5 12.5 -9.0 19.5 -5.0 L27.0 0.0 Q29.0 2.0 31.5 1.5 34.0 1.0 36.0 2.0 L40.0 4.0 Q42.5 5.0 44.5 5.0 47.5 5.0 49.5 5.0 51.5 5.0 58.5 9.0 73.0 17.5 88.5 16.0 103.5 14.5 119.0 13.5 137.5 12.5 162.0 3.5 186.5 -6.0 208.5 -23.0 230.5 -39.5 245.5 -63.5 261.0 -87.0 261.0 -117.5 261.0 -152.5 250.5 -177.0 239.5 -201.5 223.5 -220.0 208.0 -238.5 189.5 -253.0 171.0 -268.0 155.5 -284.5 139.5 -301.0 128.5 -321.5 118.0 -341.5 118.0 -371.5 118.0 -406.0 126.5 -427.5 135.5 -449.0 148.0 -461.5 161.0 -474.0 176.5 -478.0 192.5 -482.0 208.0 -482.0 238.5 -482.0 260.0 -463.5 261.0 -461.5 266.0 -455.0 271.5 -448.0 271.5 -446.0 274.5 -437.0 280.5 -428.5 L285.5 -423.5 Q288.5 -411.5 302.0 -411.5 305.0 -411.5 306.0 -412.5 314.5 -415.5 316.5 -418.5 318.5 -421.5 322.5 -430.0" fill-rule="evenodd" stroke="none"/>
    </g>
    <g id="font_Alex_W0">
      <path d="M426.0 -186.5 L426.0 -186.5 Q402.5 -280.0 380.5 -378.5 358.5 -477.5 347.0 -571.5 349.0 -573.5 349.0 -577.5 349.0 -585.0 343.5 -590.0 338.0 -595.0 327.5 -595.0 314.5 -595.0 311.0 -587.5 307.0 -580.0 306.0 -574.5 285.5 -491.5 258.0 -406.5 230.5 -321.5 203.0 -240.0 190.5 -205.0 179.5 -171.5 169.0 -138.5 157.5 -105.5 155.5 -108.5 155.5 -114.5 155.5 -120.0 153.5 -125.0 152.5 -129.0 151.5 -134.0 150.5 -138.5 149.5 -140.5 123.0 -295.0 96.5 -443.5 69.5 -592.0 37.0 -741.5 36.0 -742.5 36.0 -744.5 35.0 -753.0 34.5 -755.5 34.0 -758.0 28.5 -763.0 24.5 -767.0 14.5 -767.0 7.0 -767.0 4.0 -766.0 L-1.0 -765.0 Q-10.0 -761.0 -10.0 -753.0 -10.0 -750.5 -9.0 -747.5 -8.0 -744.5 -8.0 -742.5 -9.0 -740.5 -9.0 -737.5 -9.0 -732.5 -7.0 -730.0 -5.0 -727.5 -2.0 -722.0 -1.0 -721.0 -0.5 -720.0 0.0 -719.0 1.0 -718.0 1.0 -716.0 6.0 -709.0 12.5 -678.0 20.5 -639.0 28.5 -600.0 37.0 -556.0 45.0 -512.0 54.5 -465.5 63.5 -419.0 71.5 -374.0 81.0 -328.0 88.5 -286.0 96.5 -244.0 103.0 -209.0 109.5 -174.0 114.5 -148.5 120.0 -123.0 123.0 -110.5 125.0 -107.5 125.5 -103.5 126.0 -99.5 127.0 -94.5 128.0 -89.0 128.0 -82.5 128.0 -76.0 128.0 -71.0 128.0 -57.5 129.0 -45.5 130.0 -34.0 135.0 -25.5 140.5 -22.5 144.5 -22.5 149.5 -22.5 154.0 -22.0 158.5 -21.5 161.0 -23.5 164.0 -25.5 168.0 -24.5 172.0 -23.5 173.0 -29.0 181.5 -67.5 192.5 -106.5 204.0 -145.5 221.0 -189.5 236.5 -229.5 252.5 -278.5 268.5 -328.0 283.5 -378.0 304.0 -442.5 322.5 -498.0 337.0 -427.0 353.0 -353.0 368.5 -278.5 386.0 -206.0 393.0 -176.0 400.0 -147.5 406.5 -119.0 412.5 -90.0 417.0 -82.0 418.5 -72.5 420.0 -62.5 421.0 -53.5 423.0 -33.0 428.0 -17.5 437.5 -11.5 447.5 -11.5 461.0 -11.5 467.0 -21.5 472.0 -43.0 477.5 -73.5 483.5 -103.5 489.0 -136.0 494.5 -168.0 499.5 -200.0 505.0 -231.5 509.0 -255.0 522.0 -336.0 537.0 -421.0 552.0 -506.0 577.5 -580.5 582.5 -595.0 587.5 -608.5 592.0 -622.5 597.0 -635.0 606.0 -658.5 613.5 -680.0 620.5 -701.5 624.5 -722.0 621.5 -731.0 612.5 -731.0 609.5 -731.0 607.0 -730.0 603.0 -728.0 600.0 -728.0 589.0 -728.0 586.0 -720.0 583.5 -711.5 581.5 -700.5 580.5 -695.0 580.0 -691.0 579.5 -687.0 577.5 -683.0 559.0 -639.0 543.5 -586.0 528.5 -533.5 516.0 -477.5 504.0 -422.0 494.0 -366.0 484.5 -310.5 477.0 -260.0 470.0 -214.0 464.0 -170.5 457.5 -127.0 449.5 -91.5 443.5 -115.0 437.0 -139.0 431.0 -163.0 426.0 -186.5" fill-rule="evenodd" stroke="none"/>
    </g>
    <g id="font_Alex_i0">
      <path d="M80.5 -379.0 L81.5 -372.0 Q81.5 -357.5 81.5 -346.0 81.5 -335.0 80.5 -323.5 79.5 -312.5 78.5 -299.5 77.5 -287.0 77.5 -268.5 76.5 -214.0 73.5 -166.5 70.5 -119.0 70.5 -61.5 70.5 -56.5 69.0 -49.5 67.5 -43.0 66.5 -41.0 L66.5 -28.5 Q66.5 -25.5 67.5 -22.5 L69.5 -14.5 Q70.5 -10.5 69.5 -7.5 68.5 -5.0 73.5 3.0 76.5 6.0 80.0 6.0 L82.0 6.0 Q90.0 11.0 100.0 9.5 110.5 8.0 112.5 -4.0 112.5 -7.0 114.0 -9.5 115.5 -11.5 115.5 -16.5 L114.5 -30.0 Q114.5 -35.0 113.0 -39.5 111.5 -44.0 106.5 -46.0 108.5 -98.5 107.5 -149.5 106.5 -201.0 110.5 -260.0 112.5 -298.0 115.0 -325.0 117.5 -352.5 115.5 -382.0 L115.5 -386.0 Q118.5 -398.5 117.5 -411.5 L116.5 -420.0 Q115.5 -427.0 114.0 -428.0 112.5 -429.0 107.5 -431.0 L94.0 -432.0 Q89.0 -433.0 79.0 -427.5 69.5 -422.0 70.5 -410.5 L70.5 -406.5 72.5 -390.0 Q72.5 -388.0 73.5 -384.5 74.5 -381.0 80.5 -379.0 M63.5 -606.5 L63.5 -606.5 Q63.5 -603.0 62.5 -599.0 60.5 -592.0 63.5 -588.0 63.5 -580.5 76.0 -571.5 82.0 -567.5 83.5 -566.0 85.0 -564.5 89.0 -564.5 94.0 -564.5 98.5 -564.0 102.5 -563.5 107.5 -566.5 118.0 -573.5 118.0 -594.0 118.0 -605.0 115.5 -608.5 113.5 -611.5 108.5 -616.5 104.5 -620.5 95.5 -620.5 L87.0 -620.5 Q77.0 -620.5 70.5 -615.5 64.5 -610.5 63.5 -606.5" fill-rule="evenodd" stroke="none"/>
    </g>
    <g id="font_Alex_r0">
      <path d="M104.5 -22.5 L104.5 -28.5 Q106.5 -30.5 105.5 -32.5 104.5 -35.0 104.5 -40.0 L104.5 -49.0 104.5 -59.5 Q106.5 -76.0 115.0 -107.5 124.0 -139.5 137.0 -177.0 150.5 -215.0 167.5 -255.0 184.5 -295.0 202.5 -327.5 221.0 -359.5 240.5 -380.0 260.0 -400.5 279.5 -400.5 295.0 -400.5 304.5 -395.5 314.5 -390.5 323.5 -379.0 329.5 -371.0 337.0 -358.5 344.0 -346.0 342.0 -337.0 341.0 -330.0 347.0 -322.0 353.0 -314.5 364.5 -314.5 371.5 -314.5 379.0 -318.5 387.0 -324.5 388.0 -333.5 389.0 -342.0 386.0 -350.5 383.0 -358.5 377.5 -367.0 371.5 -376.0 368.5 -382.0 353.0 -402.5 332.0 -417.0 311.0 -431.0 279.5 -431.0 254.0 -431.0 228.5 -408.0 202.5 -385.0 180.0 -348.0 157.5 -311.0 139.0 -265.5 121.0 -220.0 109.5 -174.0 110.5 -224.0 110.0 -267.5 109.5 -311.5 109.5 -353.0 L109.5 -369.5 117.5 -406.5 117.5 -418.0 Q113.5 -427.0 99.0 -427.0 L94.0 -427.0 Q86.0 -427.0 79.0 -424.0 72.5 -421.0 71.5 -414.5 L71.5 -403.5 Q71.5 -399.5 72.0 -397.0 72.5 -394.0 74.5 -387.0 L74.5 -376.0 75.5 -330.5 Q76.5 -294.0 77.5 -262.0 78.5 -230.5 78.5 -200.0 78.5 -170.0 77.0 -138.0 75.5 -106.5 71.5 -68.5 71.5 -66.5 71.0 -63.0 70.5 -59.5 67.5 -54.0 61.5 -48.0 58.5 -39.5 56.0 -30.5 57.0 -24.5 55.0 -19.5 57.0 -12.0 58.0 -8.0 59.0 -6.0 63.5 0.0 73.5 -2.0 81.0 -2.0 89.0 -3.0 97.5 -4.0 102.5 -12.0 L104.5 -22.5" fill-rule="evenodd" stroke="none"/>
    </g>
    <g id="shape0" transform="matrix(1.0, 0.0, 0.0, 1.0, -94.15, -38.6)">
      <path d="M129.0 80.85 Q127.9 68.7 147.6 55.75" fill="none" stroke="#be1e2d" stroke-linecap="butt" stroke-linejoin="miter-clip" stroke-miterlimit="4.0" stroke-width="4.0"/>
      <path d="M147.6 55.75 Q139.45 46.2 131.45 43.0 120.75 38.75 111.3 42.0 101.3 45.4 98.5 55.45 95.5 65.9 96.3 76.45 97.25 87.25 102.05 96.85 L113.0 119.25 Q119.2 133.0 120.55 142.6 142.7 137.5 162.95 118.45 180.65 101.85 193.2 78.4 197.65 70.05 193.9 58.2 189.8 45.2 178.75 44.45 166.15 43.65 147.6 55.75" fill="none" stroke="#be1e2d" stroke-linecap="round" stroke-linejoin="miter-clip" stroke-miterlimit="4.0" stroke-width="4.0"/>
      <path d="M147.6 55.75 L152.05 61.45 Q163.4 77.15 156.85 84.5" fill="none" stroke="#be1e2d" stroke-linecap="round" stroke-linejoin="miter-clip" stroke-miterlimit="4.0" stroke-width="4.0"/>
    </g>
  </defs>
</svg>
