<?xml version="1.0" encoding="UTF-8" standalone="no"?>
<svg xmlns:xlink="http://www.w3.org/1999/xlink" height="300.0px" width="300.0px" xmlns="http://www.w3.org/2000/svg">
  <g transform="matrix(1.0, 0.0, 0.0, 1.0, 0.0, 0.0)">
    <use height="201.9" transform="matrix(1.0, 0.0, 0.0, 1.0, -6.6, 54.5)" width="293.2" xlink:href="#shape0"/>
  </g>
  <defs>
    <g id="shape0" transform="matrix(1.0, 0.0, 0.0, 1.0, 6.6, -54.5)">
      <path d="M189.7 152.0 Q195.05 146.5 203.4 146.5 211.75 146.5 217.15 152.0 222.5 157.45 222.5 165.75 222.5 174.15 217.15 179.6 211.75 185.1 203.4 185.1 195.05 185.1 189.7 179.6 184.35 174.15 184.35 165.75 184.35 157.4 189.7 152.0 M191.05 165.75 Q191.05 171.65 194.4 175.4 197.8 179.25 203.4 179.25 208.95 179.25 212.4 175.4 215.8 171.6 215.8 165.75 215.8 159.9 212.4 156.15 208.95 152.3 203.4 152.3 197.8 152.3 194.4 156.15 191.05 159.85 191.05 165.75 M178.6 156.6 Q178.6 159.95 176.65 162.35 174.85 164.6 172.1 165.2 175.15 165.6 177.25 168.25 179.35 170.85 179.35 174.3 179.35 178.75 176.55 181.55 173.65 184.4 168.45 184.4 L149.65 184.4 149.65 147.05 168.0 147.05 Q172.95 147.05 175.85 149.9 178.6 152.5 178.6 156.6 M166.7 152.85 L156.2 152.85 156.2 162.45 166.7 162.45 Q169.15 162.45 170.55 161.15 171.95 159.85 171.95 157.7 171.95 155.55 170.55 154.25 169.1 152.85 166.7 152.85 M172.6 173.45 Q172.6 171.2 171.2 169.8 169.65 168.25 166.95 168.25 L156.2 168.25 156.2 178.65 166.95 178.65 Q169.65 178.65 171.1 177.25 172.6 175.9 172.6 173.45 M224.95 152.85 L224.95 147.05 254.1 147.05 254.1 152.85 242.8 152.85 242.8 184.4 236.2 184.4 236.2 152.85 224.95 152.85 M271.15 152.3 Q268.3 152.3 266.6 153.6 264.9 154.85 264.9 156.95 264.9 159.2 268.3 160.5 L275.75 162.65 Q286.6 165.7 286.6 173.5 286.6 178.5 283.15 181.65 279.25 185.1 272.15 185.1 262.75 185.1 256.95 179.15 L260.6 174.05 Q262.7 176.35 265.5 177.7 268.8 179.25 272.45 179.25 276.2 179.25 278.2 177.65 279.9 176.25 279.9 174.1 279.9 171.55 276.45 170.15 275.7 169.8 269.05 168.0 263.95 166.65 261.6 164.75 258.15 162.05 258.15 157.45 258.15 152.7 261.85 149.65 265.65 146.5 271.75 146.5 280.3 146.5 285.65 151.75 L282.0 156.6 Q277.7 152.3 271.15 152.3 M71.65 184.4 L71.65 147.05 88.05 147.05 Q93.55 147.05 96.9 150.35 100.3 153.55 100.3 158.8 100.3 163.45 97.55 166.5 95.1 169.15 91.4 169.75 L100.6 184.4 93.0 184.4 84.75 170.5 78.2 170.5 78.2 184.4 71.65 184.4 M78.2 164.7 L87.2 164.7 Q90.0 164.7 91.75 163.1 93.55 161.45 93.55 158.7 93.55 156.1 91.75 154.45 90.0 152.85 87.2 152.85 L78.2 152.85 78.2 164.7 M110.6 152.0 Q115.95 146.5 124.3 146.5 132.6 146.5 138.0 152.0 143.35 157.4 143.35 165.75 143.35 174.15 138.0 179.6 132.6 185.1 124.3 185.1 115.95 185.1 110.6 179.6 105.25 174.15 105.25 165.75 105.25 157.4 110.6 152.0 M111.9 165.75 Q111.9 171.65 115.25 175.4 118.75 179.25 124.3 179.25 129.85 179.25 133.3 175.4 136.65 171.6 136.65 165.75 136.65 159.9 133.3 156.15 129.85 152.3 124.3 152.3 118.75 152.3 115.25 156.15 111.9 159.9 111.9 165.75" fill="#000000" fill-rule="evenodd" stroke="none"/>
      <path d="M168.35 190.0 L168.35 215.5 165.5 215.5 165.5 190.0 168.35 190.0 M236.45 192.5 Q236.45 191.7 237.05 191.1 237.65 190.55 238.45 190.55 239.25 190.55 239.8 191.1 240.35 191.65 240.35 192.5 240.35 193.3 239.8 193.85 239.3 194.4 238.45 194.4 237.65 194.4 237.05 193.85 236.45 193.25 236.45 192.5 M40.2 190.0 L40.2 200.95 55.15 200.95 55.15 190.0 58.35 190.0 58.35 215.5 55.15 215.5 55.15 203.8 40.2 203.8 40.2 215.5 37.05 215.5 37.05 190.0 40.2 190.0 M161.4 199.8 L159.5 201.55 Q157.8 199.15 154.8 199.15 151.9 199.15 150.15 201.2 148.4 203.15 148.4 206.25 148.4 209.35 150.15 211.35 151.9 213.4 154.8 213.4 157.7 213.4 159.5 211.05 L161.4 212.8 Q158.9 216.0 154.65 216.0 150.6 216.0 148.0 213.15 145.45 210.4 145.45 206.25 145.45 202.1 148.0 199.4 150.55 196.55 154.65 196.55 159.0 196.55 161.4 199.8 M141.9 207.25 L126.95 207.25 Q127.15 209.95 128.85 211.7 130.7 213.6 133.55 213.6 137.05 213.6 139.3 211.2 L140.7 213.1 Q137.8 216.0 133.35 216.0 129.2 216.0 126.55 213.3 123.9 210.6 123.9 206.25 123.9 202.2 126.45 199.4 129.1 196.55 133.0 196.55 137.1 196.55 139.55 199.45 141.9 202.2 141.9 206.5 L141.9 207.25 M132.95 198.95 Q130.2 198.95 128.5 200.95 127.05 202.7 126.9 205.1 L139.05 205.1 Q139.05 202.75 137.55 201.0 135.85 198.95 132.95 198.95 M131.35 226.55 Q135.05 222.9 140.65 222.9 146.85 222.9 150.3 227.95 L147.7 229.45 Q146.55 227.8 144.7 226.8 142.75 225.8 140.65 225.8 136.45 225.8 133.6 228.65 130.8 231.6 130.8 236.15 130.8 240.6 133.6 243.6 136.45 246.5 140.65 246.5 142.75 246.5 144.7 245.5 146.55 244.45 147.7 242.8 L150.35 244.2 Q146.65 249.35 140.65 249.35 135.05 249.35 131.35 245.7 127.55 241.95 127.55 236.15 127.55 230.3 131.35 226.55 M156.25 239.6 Q156.25 242.6 157.85 244.6 159.55 246.75 162.4 246.75 165.2 246.75 166.9 244.6 168.5 242.6 168.5 239.6 168.5 236.65 166.9 234.65 165.2 232.5 162.4 232.5 159.55 232.5 157.85 234.65 156.25 236.65 156.25 239.6 M155.7 232.75 Q158.25 229.9 162.4 229.9 166.55 229.9 169.1 232.75 171.55 235.45 171.55 239.6 171.55 243.75 169.1 246.45 166.55 249.35 162.4 249.35 158.25 249.35 155.7 246.45 153.25 243.75 153.25 239.6 153.25 235.45 155.7 232.75 M118.45 201.25 Q116.6 198.9 112.95 198.9 111.1 198.9 109.95 199.75 108.85 200.55 108.85 201.85 108.85 203.15 110.65 203.8 L114.6 204.9 Q120.3 206.4 120.3 210.4 120.3 212.85 118.45 214.4 116.5 216.0 113.1 216.0 108.45 216.0 105.6 213.05 L107.05 211.05 Q108.0 212.15 109.6 212.9 111.35 213.65 113.15 213.65 115.2 213.65 116.4 212.75 117.55 211.9 117.55 210.5 117.55 209.05 115.75 208.2 L111.8 207.1 Q106.1 205.65 106.1 201.9 106.1 199.65 107.9 198.15 109.75 196.55 112.95 196.55 117.2 196.55 119.8 199.25 L118.45 201.25 M101.45 215.5 L98.6 215.5 98.6 212.95 Q95.8 216.0 91.95 216.0 86.05 216.0 86.05 210.1 L86.05 197.0 88.95 197.0 88.95 209.25 Q88.95 211.5 90.1 212.55 91.1 213.4 93.15 213.4 94.7 213.4 96.3 212.6 97.75 211.8 98.6 210.65 L98.6 197.0 101.45 197.0 101.45 215.5 M78.95 199.4 Q81.4 202.1 81.4 206.25 81.4 210.4 78.95 213.1 76.4 216.0 72.25 216.0 68.15 216.0 65.6 213.1 63.1 210.4 63.1 206.25 63.1 202.1 65.6 199.4 68.15 196.55 72.25 196.55 76.4 196.55 78.95 199.4 M76.75 201.3 Q75.05 199.15 72.25 199.15 69.45 199.15 67.7 201.3 66.1 203.3 66.1 206.25 66.1 209.3 67.7 211.25 69.45 213.4 72.25 213.4 75.05 213.4 76.75 211.25 78.4 209.3 78.4 206.25 78.4 203.3 76.75 201.3 M277.85 200.05 Q276.25 199.15 274.65 199.15 271.85 199.15 270.25 201.15 268.65 203.05 268.65 206.15 268.65 209.3 270.25 211.2 271.85 213.15 274.65 213.15 276.3 213.15 277.85 212.3 279.35 211.45 280.15 210.2 L280.15 202.05 Q279.35 200.85 277.85 200.05 M280.15 199.85 L280.15 197.0 283.0 197.0 283.0 215.25 Q283.0 219.35 280.25 221.35 278.0 223.0 274.15 223.0 271.7 223.0 270.05 222.4 268.25 221.8 266.7 220.25 L268.15 218.2 Q270.25 220.65 274.15 220.65 276.65 220.65 278.3 219.45 280.15 218.0 280.15 215.25 L280.15 212.45 Q279.05 213.95 277.45 214.8 275.75 215.75 273.9 215.75 270.25 215.75 267.95 213.2 265.65 210.6 265.65 206.15 265.65 201.8 267.95 199.15 270.2 196.55 273.9 196.55 277.75 196.55 280.15 199.85 M260.95 202.55 L260.95 215.5 258.15 215.5 258.15 203.45 Q258.15 201.1 256.95 200.1 255.95 199.15 253.95 199.15 252.35 199.15 250.8 200.05 249.35 200.8 248.5 202.0 L248.5 215.5 245.6 215.5 245.6 197.0 248.5 197.0 248.5 199.75 Q249.5 198.4 251.2 197.55 253.1 196.55 255.1 196.55 260.95 196.55 260.95 202.55 M257.6 232.5 Q256.0 232.5 254.45 233.35 253.0 234.15 252.1 235.35 L252.1 248.9 249.2 248.9 249.2 230.4 252.1 230.4 252.1 233.1 Q253.15 231.75 254.85 230.95 256.75 229.9 258.7 229.9 264.6 229.9 264.6 235.9 L264.6 248.9 261.75 248.9 261.75 236.8 Q261.75 234.45 260.6 233.4 259.6 232.5 257.6 232.5 M270.75 230.4 L276.85 245.55 283.05 230.4 286.1 230.4 276.85 252.65 Q275.3 256.3 271.4 256.4 L269.35 256.1 269.75 253.5 271.35 253.8 Q272.35 253.8 272.95 253.4 L274.1 251.85 275.3 249.05 267.6 230.4 270.75 230.4 M243.45 248.9 L240.55 248.9 240.55 246.75 Q238.35 249.35 234.45 249.35 231.95 249.35 230.1 247.8 228.05 246.05 228.05 243.2 228.05 240.3 230.1 238.6 231.85 237.1 234.45 237.1 238.35 237.1 240.55 239.6 L240.55 236.3 Q240.55 234.5 239.25 233.4 238.0 232.4 235.95 232.4 232.6 232.4 230.25 234.95 L228.9 233.0 Q231.95 229.9 236.25 229.9 239.5 229.9 241.35 231.35 243.45 233.0 243.45 236.15 L243.45 248.9 M239.85 197.0 L239.85 215.5 237.0 215.5 237.0 197.0 239.85 197.0 M224.2 199.15 Q222.6 199.15 221.05 200.05 219.65 200.8 218.75 202.0 L218.75 215.5 215.9 215.5 215.9 197.0 218.75 197.0 218.75 199.75 Q219.75 198.4 221.5 197.55 223.35 196.55 225.35 196.55 231.2 196.55 231.2 202.55 L231.2 215.5 228.4 215.5 228.4 203.45 Q228.4 201.1 227.2 200.1 226.2 199.15 224.2 199.15 M210.1 202.8 L210.1 215.5 207.2 215.5 207.2 213.4 Q204.95 216.0 201.1 216.0 198.55 216.0 196.7 214.45 194.65 212.75 194.65 209.85 194.65 206.95 196.7 205.25 198.5 203.8 201.1 203.8 205.0 203.8 207.2 206.25 L207.2 202.95 Q207.2 201.15 205.9 200.1 204.6 199.05 202.55 199.05 199.2 199.05 196.9 201.65 L195.55 199.65 Q198.45 196.55 202.95 196.55 206.15 196.55 208.0 198.05 210.1 199.65 210.1 202.8 M207.2 208.1 Q205.5 205.8 202.15 205.8 200.1 205.8 198.85 207.0 197.6 208.1 197.6 209.85 197.6 211.65 198.85 212.8 200.1 213.9 202.15 213.9 205.55 213.9 207.2 211.6 L207.2 208.1 M216.2 229.9 Q219.9 229.9 222.15 232.5 224.45 235.15 224.45 239.6 224.45 244.05 222.15 246.7 219.9 249.35 216.2 249.35 212.45 249.35 210.0 246.05 L210.0 255.9 207.1 255.9 207.1 230.4 210.0 230.4 210.0 233.15 Q211.05 231.65 212.65 230.85 214.35 229.9 216.2 229.9 M210.0 235.45 L210.0 243.8 Q210.75 245.05 212.3 245.9 213.9 246.75 215.5 246.75 218.25 246.75 219.85 244.7 221.45 242.75 221.45 239.6 221.45 236.5 219.85 234.55 218.25 232.5 215.5 232.5 213.85 232.5 212.3 233.35 210.75 234.2 210.0 235.45 M230.9 243.2 Q230.9 245.0 232.25 246.1 233.5 247.3 235.55 247.3 238.95 247.3 240.55 244.95 L240.55 241.45 Q238.95 239.2 235.55 239.2 233.5 239.2 232.25 240.35 230.9 241.45 230.9 243.2 M186.7 201.0 Q185.0 198.95 182.1 198.95 179.35 198.95 177.65 200.95 176.2 202.7 176.05 205.1 L188.2 205.1 Q188.15 202.75 186.7 201.0 M182.5 216.0 Q178.35 216.0 175.7 213.3 173.05 210.6 173.05 206.25 173.05 202.15 175.65 199.4 178.2 196.55 182.15 196.55 186.25 196.55 188.65 199.45 191.0 202.2 191.0 206.5 L191.0 207.25 176.1 207.25 Q176.25 209.95 178.0 211.7 179.85 213.6 182.75 213.6 186.2 213.6 188.5 211.2 L189.85 213.1 Q186.85 216.0 182.5 216.0 M181.35 231.05 Q183.2 229.9 185.05 229.9 187.05 229.9 188.45 230.95 189.6 231.85 190.05 233.35 190.85 232.0 192.5 231.0 194.3 229.9 196.2 229.9 201.35 229.9 201.35 235.5 L201.35 248.9 198.5 248.9 198.5 236.35 Q198.5 232.5 195.1 232.5 193.75 232.5 192.3 233.3 190.95 234.15 190.25 235.3 L190.25 248.9 187.35 248.9 187.35 236.35 Q187.35 232.5 183.95 232.5 182.6 232.5 181.2 233.35 179.85 234.2 179.1 235.35 L179.1 248.9 176.2 248.9 176.2 230.4 179.1 230.4 179.1 233.1 Q179.75 232.0 181.35 231.05" fill="#6b6b6b" fill-rule="evenodd" stroke="none"/>
      <path d="M187.7 70.0 Q186.75 70.9 187.25 71.65 L189.3 71.5 Q188.95 72.1 186.5 72.6 L182.4 73.35 Q182.7 72.4 184.0 72.1 183.55 71.85 183.6 70.85 L183.6 69.15 Q192.2 66.25 196.15 65.35 195.95 65.4 196.05 65.85 196.1 66.3 196.35 66.1 196.9 66.05 196.95 65.65 L196.8 64.8 199.3 64.55 Q200.4 64.3 200.7 63.35 200.55 63.05 200.05 63.15 L199.15 63.4 Q204.15 61.55 214.1 59.0 L230.9 54.5 Q231.15 55.5 230.5 56.2 L228.95 57.3 Q228.4 57.35 226.6 56.65 L223.75 56.8 Q225.25 58.05 227.25 58.2 229.6 58.4 231.6 57.05 L228.55 64.45 Q227.0 64.6 226.7 61.85 224.5 61.85 222.45 62.65 L217.95 64.15 Q218.25 62.8 216.5 61.9 214.75 60.9 213.6 62.25 215.0 63.75 216.85 62.9 L216.85 63.7 Q216.8 64.0 217.15 64.0 216.1 65.1 214.5 64.45 L212.0 63.45 Q211.85 63.55 211.65 64.2 211.45 64.6 210.7 64.6 L211.1 65.2 211.45 65.9 190.1 71.65 Q190.4 70.45 189.6 70.1 L187.7 70.0 M177.05 80.95 L177.9 80.7 183.1 78.7 185.1 78.15 188.2 90.8 187.8 91.0 187.45 91.3 187.05 91.55 186.6 91.7 187.1 91.7 187.6 91.8 188.05 92.0 188.5 91.9 189.55 95.75 190.05 96.8 191.2 102.1 191.3 103.05 191.25 103.8 191.1 104.45 190.55 104.95 190.35 105.1 189.3 105.4 188.1 106.05 187.65 106.55 187.3 107.2 187.25 107.6 187.3 108.1 187.85 108.8 188.4 109.1 188.65 109.2 188.9 109.15 189.1 109.0 189.15 108.8 189.1 108.6 189.15 108.45 189.05 108.15 189.4 108.05 190.55 108.15 190.75 108.2 191.15 108.2 191.45 108.0 191.6 107.85 192.3 106.7 192.55 106.65 194.1 112.3 190.05 113.45 189.15 113.9 185.9 114.6 185.2 114.6 183.95 114.25 183.5 114.05 182.75 112.9 182.5 112.1 182.8 112.05 183.0 111.85 183.4 111.65 183.8 111.55 184.45 111.55 186.65 107.6 187.15 105.45 186.05 102.3 185.8 101.75 185.45 101.45 185.15 101.75 184.9 102.1 184.75 102.5 184.1 103.35 183.5 104.45 183.05 105.9 183.05 106.25 183.15 106.6 183.35 106.75 183.7 106.75 183.9 106.8 184.15 106.7 184.75 108.7 184.3 108.8 184.05 108.7 183.7 107.3 183.5 107.2 183.05 107.05 182.75 107.1 177.9 89.7 177.1 88.0 174.4 84.05 173.5 81.9 175.65 81.3 175.75 81.95 175.85 82.25 176.1 82.35 176.25 82.55 176.35 82.6 176.7 82.7 176.95 82.45 177.15 82.05 177.2 81.85 177.15 81.6 177.15 81.3 177.05 80.95 M170.7 74.55 Q170.4 75.7 171.4 75.45 L173.25 75.4 Q172.05 76.25 168.35 77.45 L169.1 75.75 Q169.5 74.7 170.7 74.55 M167.8 73.75 L166.75 74.4 Q166.35 73.3 168.35 73.2 171.5 73.1 167.8 73.75 M167.7 76.15 L166.55 76.4 Q166.4 75.95 167.1 75.85 L168.3 75.55 Q168.4 76.05 167.7 76.15 M163.6 75.7 L165.05 75.3 Q165.35 75.75 164.45 75.85 163.55 75.95 163.8 76.4 L165.4 76.6 167.45 76.95 Q166.8 78.1 163.3 79.05 159.7 80.0 159.75 78.65 159.05 78.65 159.0 79.25 L158.6 80.1 144.95 83.75 131.35 87.05 Q129.75 87.5 118.2 91.3 110.25 93.9 105.05 94.5 L104.4 94.5 104.15 93.95 103.9 94.45 103.6 94.9 Q100.25 96.7 91.55 98.3 82.45 99.95 78.95 101.5 78.9 101.2 79.65 100.85 80.35 100.55 80.15 100.05 79.05 100.05 78.65 100.6 L78.25 101.7 Q75.8 102.2 70.95 103.75 L64.1 105.5 63.3 105.3 62.45 105.15 61.9 105.7 61.25 106.3 Q58.45 107.55 52.15 108.8 45.3 110.25 42.0 111.45 41.95 110.25 40.95 110.1 L39.3 109.85 Q38.95 110.25 38.85 111.1 39.0 111.5 39.85 111.3 L40.85 111.35 Q39.85 112.1 38.0 112.4 L35.05 112.9 Q35.1 112.6 36.35 112.1 37.05 111.75 35.85 111.55 35.7 111.1 36.45 110.95 L37.6 110.7 Q36.25 110.25 35.15 110.7 L32.4 111.7 Q32.55 112.2 33.8 111.7 34.9 111.25 34.85 112.2 L33.4 112.35 Q32.3 113.05 31.6 113.05 31.95 113.8 32.7 113.55 L33.9 112.85 Q33.25 114.0 30.15 114.8 L25.9 115.0 25.65 115.5 25.4 115.9 Q21.95 117.7 13.4 119.35 4.3 121.0 0.75 122.55 1.1 124.65 2.65 129.3 4.1 133.75 4.35 135.95 L-4.25 126.95 -3.2 126.85 -2.05 126.4 Q-2.25 125.7 -3.05 125.7 L-4.55 125.9 -6.6 118.3 Q-5.6 117.7 -4.75 118.05 L-3.4 118.6 Q-3.05 119.25 -3.7 119.5 -4.5 119.85 -4.55 120.05 -2.6 121.3 -1.45 119.75 -0.65 118.7 -0.4 116.65 L18.9 111.35 Q31.4 107.85 38.6 107.3 38.6 107.75 38.25 107.6 37.8 107.45 37.6 107.95 37.7 108.45 38.4 108.2 L39.55 107.85 Q39.85 107.65 39.6 107.4 L38.95 107.2 Q38.75 106.8 39.8 106.65 40.65 106.45 40.1 105.75 43.85 104.5 51.1 103.15 L53.3 102.25 Q54.7 101.8 54.95 103.3 L54.35 102.9 53.35 103.0 Q53.8 103.9 54.8 103.5 56.05 103.0 56.55 103.25 L57.1 102.4 Q57.45 101.85 57.1 101.2 L60.45 100.35 63.3 99.5 Q63.55 100.0 63.4 100.65 63.35 101.1 63.8 101.3 72.35 98.15 80.5 97.25 L80.1 97.85 Q79.75 98.25 80.2 98.85 81.05 98.9 81.15 98.35 L80.9 97.15 Q83.8 95.75 87.3 95.0 L87.7 96.45 88.35 96.05 89.05 95.7 Q89.0 95.0 88.1 95.2 89.8 93.55 92.7 93.1 96.25 92.55 97.7 91.85 L98.65 92.35 99.8 92.4 Q98.3 91.55 100.4 91.1 103.05 90.55 102.95 89.65 L102.3 89.45 101.4 89.65 Q101.4 89.25 104.65 88.3 L108.75 88.1 Q109.65 86.95 112.65 86.2 L117.6 84.9 117.9 86.0 Q117.8 84.6 120.5 84.15 L119.85 85.0 Q119.45 85.4 120.15 85.8 L121.2 84.2 Q121.85 83.55 123.75 83.25 123.95 83.75 123.2 83.85 L122.05 84.1 Q122.9 84.7 123.8 83.85 124.9 82.8 125.55 82.8 124.55 83.8 125.7 83.5 126.75 83.25 127.45 82.7 126.95 83.75 127.3 83.65 L129.1 82.95 Q128.7 82.35 127.85 82.6 129.55 81.75 132.75 81.05 L138.35 79.75 142.2 78.3 146.05 78.05 Q146.15 78.55 145.25 78.7 L143.95 79.0 147.35 79.15 150.85 78.7 Q151.35 78.05 149.55 77.75 147.8 77.45 147.3 78.5 146.7 77.35 148.75 77.15 151.3 76.85 151.65 75.75 L154.45 76.0 Q155.75 76.2 155.8 77.0 158.1 75.75 160.95 75.1 L167.25 74.7 Q166.55 75.45 165.3 75.15 163.9 74.75 162.45 75.55 L163.6 75.7 M170.85 82.6 L171.25 82.8 171.6 82.9 172.25 83.55 172.4 84.05 171.85 84.35 171.3 85.0 171.05 85.6 170.8 86.65 171.45 90.8 171.95 92.0 175.2 106.45 175.9 108.3 176.8 109.55 176.75 110.35 176.65 110.85 177.8 115.15 177.85 116.1 177.4 116.75 176.25 117.35 170.2 119.0 170.1 118.35 169.65 117.65 169.25 117.25 168.55 116.9 168.05 116.9 167.4 117.0 167.2 116.25 167.15 115.5 166.75 113.75 165.1 102.25 164.85 101.35 166.2 100.5 165.55 100.3 164.9 99.85 163.95 98.35 162.65 95.3 160.4 85.25 163.95 84.75 164.8 85.65 164.8 85.1 164.95 84.35 164.85 84.0 168.15 82.85 170.3 82.5 170.85 82.6 M201.55 74.0 L206.15 72.9 207.0 72.5 207.95 72.25 212.9 90.2 212.65 90.25 212.5 90.3 212.35 90.45 212.3 90.6 212.1 91.4 212.45 92.95 213.9 96.15 214.1 96.85 214.75 98.4 214.45 98.55 214.25 98.75 214.2 98.95 214.15 99.35 214.25 99.8 214.25 100.15 214.3 100.35 212.8 100.8 211.95 101.3 211.45 101.8 211.4 102.2 211.5 102.55 211.6 102.75 211.8 102.95 212.1 103.1 212.35 103.15 212.6 103.15 213.05 103.0 213.15 102.75 213.05 102.35 215.65 101.6 216.9 106.15 206.95 108.95 206.9 108.6 207.0 107.9 207.0 107.5 207.3 107.3 209.35 103.05 209.85 102.3 210.3 101.9 210.05 101.55 209.75 101.25 209.45 100.85 208.8 100.25 208.0 99.9 207.75 99.9 207.5 100.0 207.35 99.65 206.75 98.9 206.4 99.75 206.05 100.3 205.9 100.45 203.85 91.05 203.4 89.6 203.4 89.05 200.35 79.5 199.8 78.8 199.55 78.4 199.35 78.15 198.8 77.75 198.5 77.75 198.2 77.7 197.9 77.75 197.3 75.35 199.75 74.35 200.3 73.9 200.75 74.0 201.55 74.0 M195.55 76.2 L195.85 76.6 197.3 81.95 197.4 83.15 197.5 83.6 197.4 84.25 197.25 84.4 197.2 84.5 196.75 84.45 196.4 84.3 196.15 84.05 195.85 83.85 194.75 82.95 192.25 81.4 190.6 80.7 190.15 80.55 189.4 80.45 188.85 80.45 187.7 80.75 187.35 78.1 187.25 77.8 187.25 77.5 188.65 77.15 190.35 76.95 192.0 76.5 192.5 76.25 192.7 76.0 192.95 75.95 193.15 76.55 193.35 76.9 193.5 77.05 193.75 77.2 193.9 77.05 194.1 76.9 194.5 76.5 195.2 76.05 195.35 76.2 195.55 76.2 M192.2 87.75 L192.6 87.55 193.25 87.0 193.6 86.8 197.1 99.4 196.35 99.45 195.9 99.3 195.15 98.45 193.95 96.5 193.25 95.95 192.8 95.8 191.9 95.85 191.4 94.05 191.3 92.7 191.35 92.2 191.9 91.2 192.4 88.8 192.35 88.3 192.2 87.75 M232.4 66.3 L230.8 66.75 230.25 66.4 230.35 66.4 232.4 66.3 M230.25 66.4 L227.95 67.05 Q227.55 66.35 228.65 66.1 L229.3 65.95 228.85 65.7 227.65 66.0 228.3 65.4 227.35 64.9 229.75 64.25 231.85 64.1 Q229.4 64.65 228.3 65.4 L228.85 65.7 229.15 65.55 Q230.1 65.25 230.3 65.7 L229.3 65.95 230.25 66.4 M230.8 66.75 L234.6 68.75 Q234.65 69.2 234.1 69.7 L235.3 71.55 Q236.25 73.1 236.0 73.85 L234.5 74.4 233.35 74.15 232.95 75.7 Q232.6 76.7 233.6 76.45 L233.1 76.95 232.25 77.2 Q232.2 77.95 232.75 77.85 L233.9 77.5 Q233.8 78.35 232.95 78.55 L234.0 78.5 Q234.65 78.05 235.25 78.3 235.2 78.85 234.15 79.1 L232.45 79.45 Q233.55 80.1 235.0 80.2 236.55 80.3 237.55 79.65 237.95 80.45 236.9 80.65 L235.2 81.05 236.35 81.15 237.85 80.75 237.4 81.85 238.3 82.55 Q236.9 82.7 235.6 83.75 234.25 84.85 233.2 85.05 233.0 84.2 234.8 83.9 234.65 83.4 233.85 83.7 L232.5 84.1 228.35 68.5 230.15 68.05 Q230.05 67.6 229.35 67.85 L228.25 68.2 Q228.8 67.4 230.8 66.75 M218.3 73.05 L218.5 73.15 218.8 73.2 218.9 73.3 219.05 73.55 219.9 74.2 220.15 74.55 219.5 74.8 219.25 74.95 219.15 75.05 219.2 75.25 219.75 75.5 221.15 75.55 221.6 75.45 222.2 76.7 225.7 81.95 226.1 82.75 226.75 85.05 226.7 85.9 226.5 86.7 227.1 87.6 227.25 88.4 227.25 88.95 227.3 89.25 227.2 89.55 227.25 90.75 227.4 91.3 227.15 91.4 226.85 92.35 226.75 92.85 226.65 94.35 226.6 94.5 226.5 94.65 226.7 94.95 226.9 95.15 227.05 95.7 227.05 96.2 226.7 98.1 226.8 98.55 226.55 98.6 226.4 98.8 226.15 99.0 226.0 99.2 225.15 100.85 224.7 101.55 224.5 101.75 224.1 102.0 224.1 101.55 224.5 100.55 224.5 100.05 224.8 99.9 225.0 99.7 225.35 98.55 225.35 98.3 225.3 98.05 226.15 97.75 226.35 97.55 226.45 97.25 226.5 97.0 226.5 96.8 226.3 96.55 226.15 96.3 225.55 95.9 224.45 95.5 224.05 95.6 223.6 95.55 223.3 95.65 223.15 95.4 223.05 95.3 222.85 95.15 222.75 95.1 222.2 95.1 221.8 95.25 221.05 95.8 220.9 96.2 220.85 96.45 220.9 96.7 220.6 96.85 220.35 97.05 220.25 97.4 220.25 97.7 219.4 97.5 219.3 94.85 219.35 94.35 219.6 93.5 218.75 93.3 216.95 86.8 216.9 86.55 216.8 86.35 216.05 83.75 215.7 81.55 213.7 76.4 213.45 76.1 213.25 75.65 212.15 74.7 211.5 74.5 211.15 74.45 210.8 74.55 210.65 73.95 210.15 72.75 209.7 72.2 210.0 71.95 210.55 71.7 210.85 71.65 212.2 71.6 214.15 71.8 214.8 71.7 215.15 71.9 216.0 72.1 218.0 73.0 218.3 73.05 M239.85 88.35 L243.65 102.45 241.15 103.1 Q241.0 102.7 241.7 102.55 L242.85 102.3 Q243.1 101.25 241.7 100.05 L239.85 98.4 Q239.8 97.7 238.95 97.9 238.8 97.75 239.85 97.3 241.15 96.7 241.1 95.75 241.0 95.5 240.6 95.55 L239.9 95.7 Q239.25 95.85 239.8 96.35 240.35 96.8 239.8 96.9 239.05 96.45 238.4 96.3 237.15 96.0 236.4 97.05 235.7 96.25 235.15 93.9 L234.2 90.25 Q234.95 89.65 236.75 89.15 L239.85 88.35 M241.85 104.8 Q240.9 105.75 239.35 106.0 L236.4 106.25 241.85 104.8 M240.7 104.3 L242.0 103.95 Q242.1 104.45 241.3 104.6 L239.9 104.9 Q239.8 104.45 240.7 104.3 M239.6 106.35 L241.65 106.2 Q242.25 106.4 243.25 106.9 243.8 106.95 244.45 106.0 244.95 105.25 245.25 105.6 244.55 106.7 245.3 108.55 L246.15 109.9 239.6 106.35 M236.55 97.6 Q235.85 97.25 237.95 97.0 237.3 98.05 236.55 97.6 M223.15 96.55 L223.9 99.35 223.65 99.45 223.45 99.65 223.4 99.85 223.4 100.0 223.45 100.2 223.4 100.65 223.35 100.8 222.95 100.9 222.8 100.75 222.6 100.45 222.3 99.75 221.5 98.7 221.7 98.0 222.05 97.4 222.8 96.7 223.15 96.55 M228.85 109.95 L234.7 108.45 Q235.4 108.05 235.4 109.05 235.4 110.2 236.25 109.95 236.8 109.9 236.85 109.5 L236.7 108.65 238.05 108.55 Q238.8 108.25 238.7 107.35 L239.6 107.7 240.7 107.6 Q240.3 109.0 242.15 109.0 244.25 109.0 244.45 110.1 243.35 110.85 242.35 110.7 241.3 110.6 241.55 109.3 240.3 109.35 240.0 111.0 239.7 112.7 240.9 112.6 239.65 113.45 233.9 113.9 228.85 114.2 227.2 116.65 226.6 116.9 226.1 116.2 L225.25 115.25 Q224.25 116.25 220.75 116.45 217.3 116.65 216.0 118.1 216.25 118.6 217.75 118.3 219.05 118.0 219.25 118.8 L207.65 121.9 207.15 120.1 Q206.35 120.25 206.05 121.3 205.75 122.35 205.1 122.6 204.25 123.0 203.6 122.3 L202.5 121.35 Q202.1 121.5 202.3 122.35 202.5 123.2 202.25 123.35 201.05 123.55 192.2 126.2 186.1 127.95 183.1 127.35 181.65 128.5 178.5 128.6 L173.05 128.85 Q172.45 128.55 172.75 128.25 L173.5 127.6 Q171.45 126.8 168.35 127.95 L162.85 130.05 Q163.85 128.85 162.85 129.0 161.95 129.1 160.9 129.8 161.05 128.2 162.6 127.8 L166.05 127.25 183.85 122.15 Q195.8 118.65 202.5 117.1 203.2 116.8 203.2 117.4 203.15 118.0 203.85 117.85 L204.4 117.25 Q204.45 116.75 203.65 117.15 204.4 116.4 206.6 115.9 L210.1 115.05 210.8 115.15 211.1 115.9 Q212.15 114.2 216.5 113.2 L223.45 111.45 224.2 111.55 224.5 112.3 Q225.25 110.8 228.85 109.95 M220.85 99.8 L221.05 101.7 221.25 102.35 221.3 102.45 221.4 104.4 220.65 104.65 218.55 105.75 218.45 105.4 218.55 104.15 218.7 103.65 218.8 103.05 220.05 99.5 220.5 99.05 220.65 99.0 220.85 99.8 M203.45 102.1 L203.4 102.75 203.85 105.6 204.9 109.35 196.25 111.75 195.45 108.6 195.8 108.55 196.15 108.2 198.25 106.75 198.7 106.65 198.95 105.6 199.9 102.75 200.0 102.05 199.95 101.5 200.15 101.3 200.4 101.25 200.55 101.15 200.6 101.05 200.6 100.75 200.55 100.4 200.15 99.7 200.0 99.5 199.9 99.2 201.4 98.8 201.4 98.95 201.55 99.1 201.75 99.45 203.35 101.8 203.45 102.1 M222.15 117.35 L224.25 117.1 Q223.75 117.7 221.95 118.2 220.0 118.75 219.75 117.85 L222.15 117.35 M162.4 104.75 L162.3 106.3 162.4 107.05 162.4 113.15 162.55 114.05 162.6 115.25 162.75 115.75 162.95 116.05 161.75 115.9 161.5 115.45 161.15 115.15 160.8 115.15 159.95 115.4 159.3 115.8 159.2 116.1 157.65 114.85 155.9 112.8 149.3 102.15 147.4 97.95 146.85 97.0 146.6 96.0 147.9 95.95 148.8 95.7 149.1 95.35 148.8 95.3 146.5 94.65 146.15 94.65 145.75 94.75 145.6 94.25 145.3 93.75 142.5 90.8 142.25 90.25 146.7 89.05 146.95 89.5 147.05 89.85 147.45 90.35 147.95 90.7 148.3 90.7 148.7 90.6 148.85 90.3 148.95 89.8 148.95 89.45 148.7 88.45 152.75 87.35 153.2 88.45 157.05 94.05 157.65 95.15 158.0 96.3 157.3 95.55 156.95 95.35 156.55 95.2 156.05 95.2 154.5 95.65 154.4 95.3 154.2 95.1 154.1 95.1 153.9 95.45 153.65 96.65 153.85 98.4 154.15 99.0 154.95 99.8 156.05 99.95 156.85 99.9 157.5 102.45 157.7 102.8 158.0 102.95 158.3 103.0 158.55 102.95 159.2 102.45 159.55 103.75 160.1 104.9 160.5 105.25 160.95 105.4 161.6 105.2 161.9 104.9 161.85 104.7 161.9 104.4 162.0 102.85 162.15 102.15 162.35 102.9 162.4 103.5 162.35 104.15 162.4 104.75 M162.3 119.05 L162.55 119.95 162.7 121.1 162.25 121.2 161.15 121.15 161.0 120.9 160.35 118.55 161.15 118.3 161.7 118.45 162.0 118.6 162.3 119.05 M129.05 94.05 L129.45 93.95 130.65 93.95 133.7 94.65 134.45 94.75 135.1 94.7 135.15 94.85 135.55 95.45 136.35 96.15 136.7 96.3 136.85 96.3 136.95 96.8 137.5 97.95 137.85 98.5 138.95 101.0 138.95 101.2 139.15 102.3 139.35 102.45 139.2 103.4 139.1 105.1 138.75 106.35 138.3 106.95 137.6 107.65 137.2 107.9 136.05 108.3 135.95 107.85 135.5 107.35 135.25 107.15 134.55 107.05 133.6 107.15 133.55 107.05 133.5 106.9 133.5 106.85 133.4 106.8 133.35 106.8 133.15 107.15 132.95 107.95 132.9 108.95 132.95 109.6 133.3 110.6 133.55 111.0 133.85 111.35 134.1 111.4 134.35 111.6 135.0 111.6 135.35 111.5 135.65 111.45 135.7 111.6 135.8 111.7 135.9 111.9 135.95 112.1 136.15 112.25 137.2 114.15 138.9 116.45 139.05 116.6 139.15 116.8 139.4 116.9 139.6 116.9 139.7 116.85 139.6 116.45 139.45 115.35 140.95 114.9 141.4 114.65 141.8 114.35 142.0 114.25 142.1 113.9 142.05 113.6 142.5 115.2 144.55 120.0 145.6 118.65 145.95 118.45 146.25 118.4 146.4 118.4 146.85 118.6 147.0 118.7 147.5 119.2 147.1 119.3 146.8 119.5 146.35 119.7 146.25 119.9 146.05 120.15 145.95 120.5 145.9 121.45 146.1 123.6 145.85 124.7 145.5 125.2 145.05 125.65 143.95 126.35 143.45 126.55 141.7 126.95 141.0 127.0 140.35 126.9 139.1 126.55 137.65 125.35 136.25 123.0 133.5 115.65 133.15 115.15 132.1 114.05 131.2 113.8 130.15 113.85 129.4 111.0 129.65 110.9 130.15 110.55 130.55 110.05 131.05 109.1 131.4 107.05 131.25 106.55 131.55 106.5 131.75 106.25 131.95 106.15 132.2 105.8 132.3 105.55 132.3 105.1 132.1 104.1 131.85 103.55 131.3 102.6 130.65 101.75 130.3 101.55 130.05 101.3 129.95 101.35 129.9 101.45 129.65 100.6 129.9 100.45 130.3 99.95 130.65 99.85 130.45 99.65 130.2 99.55 129.95 99.4 129.6 99.35 129.3 99.35 129.15 99.05 128.8 98.65 127.9 98.05 126.8 97.6 126.35 97.55 126.2 97.6 126.05 97.55 125.85 97.2 125.75 96.8 125.45 96.2 125.2 95.2 125.2 94.7 125.75 95.0 127.05 95.4 127.85 95.55 128.45 95.55 128.7 95.45 128.95 95.3 129.05 95.15 129.15 94.85 129.2 94.5 129.05 94.05 M160.7 94.45 L160.95 95.4 161.5 95.7 160.75 96.95 160.35 95.55 159.45 95.3 158.75 94.45 158.8 94.15 158.8 93.7 159.9 91.7 160.3 91.25 160.45 91.7 160.4 92.2 160.7 94.45 M80.65 107.0 L81.0 107.1 81.25 107.05 81.9 107.05 82.7 106.8 83.4 106.35 83.7 106.2 84.2 106.05 84.7 106.15 84.9 106.25 85.05 106.4 85.3 106.55 85.4 106.7 85.5 107.0 85.8 107.5 87.75 115.1 87.7 115.3 87.5 115.6 87.3 115.65 86.9 115.65 86.3 115.5 81.3 112.7 79.45 112.0 77.75 111.6 76.95 111.75 76.7 110.2 76.8 109.6 76.65 109.25 76.45 109.05 76.0 108.35 78.45 107.7 79.6 107.7 80.15 107.35 80.45 107.25 80.65 107.0 M69.2 110.25 L69.55 110.2 69.85 110.25 70.45 110.25 70.55 110.4 70.6 110.6 70.7 110.75 70.9 110.85 71.0 110.85 71.25 110.8 72.5 110.05 72.75 109.8 73.35 109.4 73.65 109.3 73.9 109.35 74.2 109.55 74.25 109.6 74.45 110.0 77.95 122.65 77.6 122.75 76.15 122.95 76.05 123.0 76.1 123.15 75.95 125.05 75.95 125.35 76.05 125.75 75.4 126.05 75.35 126.2 75.45 126.5 75.55 126.7 75.9 126.85 76.7 126.95 76.9 126.95 77.1 126.9 80.45 131.7 80.45 132.55 80.75 133.2 80.9 133.45 80.85 133.8 80.95 134.1 80.9 134.25 80.9 134.5 81.3 135.2 81.85 137.95 82.05 138.5 82.1 138.6 82.35 138.9 85.15 140.65 85.8 141.25 86.0 141.7 86.0 141.8 85.9 142.0 85.7 142.3 85.45 142.45 85.25 142.65 84.0 143.0 84.0 142.85 84.7 141.45 84.7 141.3 84.05 141.2 82.7 141.45 82.1 141.65 81.45 142.0 80.45 142.8 80.0 143.35 79.15 143.2 79.0 142.85 78.85 142.6 78.6 142.45 78.35 142.4 77.55 142.7 77.25 142.85 76.95 143.05 76.85 143.25 76.75 143.35 76.7 143.55 76.75 143.65 76.75 143.7 76.8 143.7 77.0 143.75 77.25 143.65 77.55 144.75 77.3 144.85 73.2 145.95 71.4 146.2 71.15 146.1 70.9 146.05 70.85 145.9 70.8 145.85 70.75 145.65 70.75 145.5 70.65 145.05 70.75 135.05 70.35 133.7 71.0 133.1 70.15 133.0 66.4 119.5 67.05 118.95 66.2 118.8 66.1 118.4 65.9 117.95 65.15 116.6 64.9 115.75 65.35 115.65 65.55 115.5 65.55 115.45 65.45 115.3 65.3 115.3 64.85 115.1 64.6 115.05 62.6 114.35 62.2 114.05 62.15 113.95 62.0 113.8 61.95 113.6 62.0 113.45 62.0 113.2 62.15 112.7 63.0 111.95 63.55 112.0 63.95 111.85 66.2 111.3 66.6 111.3 66.95 111.05 67.2 111.0 67.25 111.05 67.35 111.05 67.8 110.95 68.1 110.5 68.45 110.4 68.7 110.5 69.05 110.4 69.2 110.25 M41.5 119.15 L41.5 118.85 41.4 118.45 42.3 118.2 47.5 116.2 49.5 115.7 52.55 128.35 52.15 128.55 51.4 129.1 51.0 129.2 51.95 129.3 52.45 129.5 52.85 129.4 53.95 133.3 54.4 134.3 55.6 139.65 55.65 140.6 55.6 141.35 55.45 141.95 54.95 142.5 54.7 142.65 53.65 142.95 52.45 143.55 51.65 144.75 51.6 145.15 51.65 145.6 51.85 145.95 52.2 146.35 52.75 146.65 53.05 146.75 53.3 146.7 53.5 146.55 53.55 146.35 53.5 146.15 53.5 145.95 53.45 145.65 53.8 145.55 54.95 145.65 55.15 145.7 55.5 145.7 55.95 145.4 56.65 144.2 56.9 144.15 58.5 149.85 54.4 150.95 53.5 151.4 51.8 151.9 50.25 152.15 49.55 152.15 48.3 151.8 47.85 151.55 47.1 150.45 46.9 149.6 47.15 149.55 47.4 149.35 47.75 149.15 48.15 149.05 48.8 149.05 51.0 145.15 51.55 143.0 50.4 139.8 50.15 139.3 49.85 139.05 49.55 139.3 49.3 139.65 49.15 140.0 47.9 141.95 47.65 142.5 47.45 143.4 47.45 143.75 47.5 144.1 47.75 144.3 48.1 144.3 48.3 144.35 48.55 144.25 49.1 146.25 48.65 146.35 48.45 146.25 48.05 144.9 47.85 144.75 47.4 144.6 47.15 144.65 42.3 127.2 41.5 125.5 38.8 121.55 37.85 119.45 40.0 118.85 40.2 119.75 40.45 119.85 40.6 120.05 40.7 120.1 41.05 120.2 41.35 119.95 41.55 119.55 41.55 119.4 41.5 119.15 M51.7 115.65 L51.65 115.35 51.65 115.05 53.05 114.65 54.8 114.45 56.35 114.05 56.85 113.8 57.1 113.6 57.35 113.5 57.5 114.05 57.7 114.4 57.85 114.6 58.15 114.7 58.3 114.55 58.5 114.4 58.85 114.05 59.55 113.6 59.7 113.75 59.9 113.75 60.2 114.1 61.7 119.5 61.75 120.7 61.9 121.15 61.75 121.75 61.6 121.9 61.55 122.0 61.1 121.95 60.8 121.8 60.55 121.55 59.1 120.5 58.65 120.25 57.7 119.55 55.0 118.2 54.55 118.05 53.8 117.95 53.2 117.95 52.1 118.25 51.75 116.5 51.7 115.65 M56.6 125.25 L57.0 125.05 57.95 124.35 61.45 136.95 60.7 137.0 60.25 136.8 59.5 136.0 59.1 135.15 58.3 134.05 57.6 133.5 57.2 133.35 56.3 133.4 55.8 131.65 55.65 130.25 55.7 129.75 56.3 128.7 56.8 126.35 56.75 125.8 56.6 125.25 M66.15 137.0 L67.75 139.35 67.85 139.65 67.8 140.25 67.9 141.15 69.3 146.9 60.65 149.25 59.8 146.15 60.15 146.05 60.55 145.7 62.65 144.3 63.05 144.15 63.95 141.7 64.3 140.25 64.35 139.65 64.3 139.05 64.55 138.85 64.75 138.8 65.0 138.55 65.0 138.25 64.9 137.9 64.5 137.25 64.35 137.05 64.25 136.75 65.75 136.3 65.8 136.45 65.95 136.6 66.15 137.0 M36.5 106.7 Q36.55 107.2 35.6 107.4 L34.05 107.75 Q34.0 107.25 35.0 107.05 L36.5 106.7 M12.25 126.55 L12.35 126.3 12.35 125.95 20.15 123.8 22.05 132.7 22.55 134.4 23.45 136.45 23.75 136.9 23.75 137.25 26.05 146.75 26.1 147.8 26.0 148.65 25.9 148.9 26.75 149.15 27.3 150.6 29.35 154.45 29.85 155.65 29.95 156.6 29.9 157.0 29.8 157.15 29.3 157.65 29.1 157.75 28.15 158.0 25.15 158.05 23.8 157.95 23.3 158.0 23.1 158.1 22.95 158.3 22.9 158.6 22.9 158.9 23.05 159.45 19.7 160.35 19.35 159.0 18.75 155.4 18.5 154.55 19.2 154.3 19.7 153.85 19.85 153.6 19.95 153.0 19.8 152.35 19.45 152.05 18.95 151.9 18.6 151.9 18.2 152.0 18.25 151.85 18.35 151.3 18.3 150.25 18.1 149.35 17.9 149.15 17.75 149.05 17.6 149.05 17.45 149.1 17.2 148.35 16.4 141.6 16.5 141.1 15.65 140.95 12.5 131.25 12.65 131.2 12.75 131.05 12.9 131.05 13.05 130.8 12.8 130.35 9.9 128.25 9.35 127.6 9.25 127.35 9.75 127.05 10.2 126.85 10.6 126.6 10.85 126.5 11.1 126.3 11.25 126.55 11.45 126.75 11.7 126.85 11.85 126.85 12.1 126.7 12.25 126.55 M33.7 125.35 L34.25 126.55 34.6 127.05 35.65 129.55 35.65 129.8 35.9 130.85 36.1 131.05 35.85 133.7 35.45 134.9 35.0 135.55 34.7 135.9 34.35 136.2 33.95 136.45 32.8 136.85 32.7 136.45 32.25 135.95 31.95 135.75 31.25 135.65 30.35 135.8 30.3 135.65 30.2 135.5 30.1 135.4 30.05 135.45 29.85 135.75 29.75 136.05 29.6 137.0 29.65 138.15 30.0 139.2 30.25 139.65 30.6 139.9 30.9 139.95 31.05 140.15 31.7 140.15 32.05 140.05 32.4 140.0 32.45 140.15 32.55 140.25 32.65 140.45 32.7 140.65 32.85 140.85 33.2 141.5 33.6 142.0 33.95 142.75 34.85 143.95 35.2 144.55 35.6 145.05 35.8 145.2 35.9 145.35 36.15 145.45 36.35 145.45 36.45 145.4 36.45 145.2 36.35 145.05 36.35 144.4 36.2 143.9 37.7 143.45 38.2 143.25 38.5 142.95 38.75 142.85 38.8 142.7 38.8 142.15 39.25 143.75 41.3 148.6 42.3 147.2 42.65 147.0 43.15 147.0 43.6 147.15 44.0 147.5 44.2 147.75 43.8 147.85 43.1 148.3 42.75 148.75 42.6 149.6 42.6 150.05 42.8 152.2 42.55 153.25 42.45 153.5 41.8 154.25 Q41.25 154.6 40.65 154.9 L40.15 155.1 38.45 155.55 37.75 155.6 37.05 155.5 35.85 155.1 35.3 154.75 34.4 153.95 33.3 152.25 32.95 151.55 30.5 144.75 29.85 143.7 29.15 142.95 28.85 142.7 28.35 142.45 27.9 142.35 26.9 142.45 26.1 139.6 26.4 139.5 26.65 139.35 26.9 139.15 27.45 138.3 27.75 137.7 28.15 135.65 28.0 135.1 28.3 135.05 28.5 134.85 28.7 134.75 28.95 134.35 29.05 134.15 29.0 133.15 28.85 132.65 28.0 131.15 27.35 130.4 26.85 129.95 26.7 129.95 26.6 130.05 26.35 129.15 26.6 129.0 27.1 128.55 27.35 128.45 27.2 128.25 26.95 128.2 26.7 127.95 26.3 127.9 26.0 127.95 25.95 127.7 25.5 127.2 25.15 126.9 24.6 126.65 23.15 126.15 22.9 126.2 22.75 126.15 22.45 125.35 22.15 124.8 21.9 123.75 21.95 123.25 22.45 123.55 24.6 124.15 24.85 124.1 25.2 124.1 25.45 124.05 25.8 123.7 25.9 123.1 25.75 122.65 26.15 122.55 26.55 122.6 27.35 122.55 31.15 123.3 31.8 123.25 31.85 123.45 32.05 123.65 32.3 124.0 33.05 124.75 33.4 124.95 33.55 124.9 33.7 125.35 M29.05 166.4 L30.1 166.3 31.2 165.8 Q31.1 164.9 30.3 164.75 L28.95 164.5 Q28.55 163.65 29.7 163.45 L31.6 163.0 32.15 164.55 Q32.3 165.15 32.7 165.4 33.35 165.25 33.25 164.1 33.1 162.8 33.4 162.5 L42.45 160.05 42.15 161.3 Q41.85 161.95 41.95 162.55 L43.0 161.45 Q43.45 160.75 43.2 159.85 L47.2 158.8 47.2 160.9 Q47.35 161.7 48.5 160.8 49.0 161.05 47.05 161.85 45.65 162.4 47.7 162.15 L46.8 163.3 Q46.0 164.25 46.85 164.75 45.0 165.75 42.95 166.3 40.1 167.1 39.4 165.95 38.7 165.95 38.6 166.55 L38.25 167.4 29.35 169.75 21.25 172.0 21.3 170.85 Q20.2 172.05 17.6 172.95 L12.55 174.35 Q12.5 174.05 12.85 173.9 L13.55 173.7 13.6 171.9 Q13.55 170.7 13.75 170.15 13.15 169.65 12.6 170.5 11.9 171.5 11.4 171.55 10.95 170.75 11.3 169.95 11.65 169.1 11.35 168.45 11.1 168.7 10.85 170.0 10.65 171.0 9.75 171.2 9.8 171.75 10.35 172.4 10.8 172.9 10.8 173.65 9.35 174.1 8.75 172.3 L8.0 169.0 8.95 168.75 Q8.8 167.5 7.25 168.05 L6.4 164.8 9.25 164.0 Q9.0 163.2 7.25 163.75 7.2 163.5 7.6 163.35 L8.25 163.15 7.15 162.95 5.9 163.0 5.4 161.2 6.85 160.8 Q6.55 160.15 5.9 160.15 L5.15 160.05 4.75 158.65 Q6.05 158.6 7.05 159.1 8.0 159.6 8.3 160.4 L9.5 159.75 11.1 159.25 12.6 164.7 10.8 165.2 11.95 165.75 Q12.6 166.2 12.75 167.0 12.15 166.6 11.45 166.6 10.6 166.65 10.65 167.55 L12.1 167.9 13.8 167.4 Q15.2 167.25 15.75 168.2 16.3 169.05 15.75 170.4 18.2 169.8 16.75 167.0 L28.0 163.95 28.9 165.1 Q29.25 165.5 29.05 166.4 M7.8 146.95 L9.05 151.65 8.05 152.55 Q7.5 153.15 7.75 153.95 L5.9 153.4 Q4.8 153.3 3.5 153.95 L2.5 150.35 Q2.0 148.5 3.05 149.4 L3.15 148.7 Q3.05 148.1 2.35 148.4 2.35 148.1 2.85 147.9 L3.7 147.65 Q3.45 146.85 2.05 147.3 L2.95 146.45 Q4.05 145.45 3.05 145.15 3.9 144.3 6.85 143.35 L7.6 146.25 Q6.9 145.6 5.75 146.05 4.6 146.5 4.45 147.45 L6.05 147.55 7.8 146.95 M6.85 155.65 Q5.85 156.15 6.25 157.05 4.25 157.85 3.85 155.4 5.65 154.35 6.65 154.25 6.55 154.9 6.1 155.15 7.25 155.4 6.85 155.65 M64.95 160.15 Q63.05 161.25 61.8 161.1 60.9 161.35 61.2 160.85 61.7 160.0 61.4 159.7 61.25 159.6 59.8 161.4 58.1 163.0 56.85 161.65 56.45 162.4 55.05 162.9 L52.35 163.6 Q52.95 162.75 52.3 162.4 51.25 161.9 51.2 160.85 L53.1 160.5 54.7 160.7 54.25 158.8 53.05 157.65 52.0 158.25 Q51.35 158.65 51.15 157.75 L56.25 156.35 Q55.9 156.95 56.5 158.65 57.4 158.35 57.45 157.4 L57.3 156.1 Q57.9 155.95 58.1 156.4 58.3 156.95 59.05 156.8 L59.25 156.15 Q59.2 155.6 59.5 155.5 65.0 154.6 77.1 150.65 88.55 146.85 94.25 146.15 L94.9 146.2 95.15 146.7 Q95.95 145.6 98.75 144.95 L103.3 143.7 101.95 145.35 Q100.95 146.4 100.7 147.15 100.6 147.45 100.85 148.45 101.0 149.2 100.6 149.5 L102.7 149.2 105.1 149.05 97.15 151.75 89.3 153.7 88.35 153.55 87.95 153.35 Q87.55 153.45 86.9 154.05 86.2 154.6 85.7 154.65 L84.35 154.8 83.15 155.35 Q80.35 156.65 75.75 157.9 71.3 159.05 67.9 159.45 67.6 159.5 67.25 159.2 L67.0 158.9 64.95 160.15 M48.0 159.0 Q50.3 157.35 50.4 158.1 50.5 158.9 48.0 159.0 M148.2 101.7 L148.45 101.85 148.7 102.7 149.0 103.15 150.25 107.75 150.0 107.8 149.85 108.0 149.75 108.65 149.95 108.85 150.1 109.15 150.35 109.2 150.65 109.15 152.3 113.3 152.65 114.95 152.45 115.8 154.75 118.05 157.7 120.05 158.25 120.65 158.2 121.1 157.95 121.45 157.05 122.25 156.4 122.6 152.45 124.05 151.7 124.1 150.65 124.4 150.45 124.2 150.25 123.85 150.1 123.35 150.1 121.5 150.45 118.1 150.15 113.1 148.75 107.5 148.1 102.8 148.1 102.1 148.15 101.8 148.1 101.75 148.15 101.6 148.2 101.7 M125.85 105.85 L126.7 107.9 127.05 108.3 127.05 108.65 129.4 118.7 129.35 119.7 129.2 120.35 130.0 120.55 130.55 122.0 132.65 125.9 133.15 127.05 133.25 128.0 133.2 128.4 133.1 128.6 132.55 129.05 132.35 129.1 132.0 129.25 131.45 129.4 129.5 129.55 128.4 129.5 127.5 129.35 127.1 129.35 126.55 129.45 126.35 129.55 126.25 129.75 126.15 130.05 126.3 130.85 122.95 131.8 122.05 126.85 121.8 126.0 122.5 125.7 123.1 125.05 123.2 124.45 123.2 124.25 123.05 123.75 122.7 123.45 122.55 123.35 122.25 123.3 121.9 123.3 121.5 123.35 121.5 123.25 121.65 122.75 121.55 121.6 121.3 120.8 121.15 120.6 121.0 120.5 120.85 120.45 120.75 120.5 120.5 119.75 119.75 113.95 119.75 113.45 119.7 113.05 119.75 112.7 119.8 112.5 118.9 112.35 115.75 102.7 115.95 102.65 116.05 102.5 116.15 102.5 116.35 102.25 116.05 101.75 113.2 99.65 112.85 99.35 112.65 99.05 112.55 98.8 112.75 98.6 113.45 98.3 113.85 98.0 114.15 97.9 114.4 97.7 114.5 97.95 114.7 98.15 115.0 98.25 115.15 98.25 115.35 98.1 115.5 97.95 115.6 97.7 115.6 97.4 123.4 95.2 125.85 105.85 M131.45 141.65 L133.7 141.4 Q131.6 142.5 127.0 143.6 L119.7 145.55 Q119.45 144.75 119.8 143.9 L120.5 142.6 Q119.3 142.2 119.0 143.55 L118.65 145.85 115.35 146.75 Q114.8 146.6 115.85 146.15 L117.3 145.4 116.0 145.3 114.35 145.8 Q113.8 145.7 114.95 145.2 L116.7 144.4 Q116.2 143.65 115.15 144.2 113.85 144.85 113.25 144.55 113.2 144.05 114.15 143.9 L115.65 143.5 Q116.1 143.3 115.45 142.95 114.8 142.55 115.25 142.05 L113.5 142.85 111.65 143.05 Q111.65 144.05 112.35 143.65 113.2 143.2 113.3 143.35 L112.45 144.25 Q111.6 145.35 111.15 145.5 L112.35 145.55 Q112.4 145.95 111.9 146.6 111.5 147.05 111.7 147.7 L107.4 148.75 Q104.65 149.35 104.2 147.0 L102.7 147.35 103.5 145.75 Q103.9 145.15 103.75 144.0 108.4 142.2 112.7 141.2 113.45 141.4 112.45 141.6 111.2 141.9 111.5 142.3 L113.45 142.2 115.4 141.25 Q115.3 141.0 114.95 141.05 L114.25 141.2 Q117.7 139.7 124.25 138.05 L134.8 135.3 135.45 137.85 Q136.3 137.7 136.1 136.5 135.9 135.15 136.25 134.9 138.0 135.45 137.75 138.05 137.5 140.3 138.8 140.0 138.2 140.95 137.1 140.25 136.05 139.65 135.65 138.55 134.35 138.75 135.0 140.25 132.6 139.85 129.75 140.9 129.9 142.0 131.45 141.65 M140.25 133.85 L143.1 133.05 Q142.8 134.2 142.35 134.5 L140.65 135.25 140.25 133.85 M154.2 131.2 L154.8 131.95 154.8 132.75 Q155.0 133.65 156.05 133.45 L151.65 135.8 Q152.0 135.15 151.6 134.8 L150.5 134.55 Q150.3 134.2 150.5 133.65 150.65 133.15 150.35 132.6 149.85 131.9 149.0 131.85 L147.15 132.85 145.4 132.8 Q147.3 131.75 151.4 130.75 L157.95 129.05 Q158.6 129.3 157.1 129.7 L154.8 130.3 Q153.7 130.5 154.2 131.2 M102.55 105.05 L101.8 104.7 101.35 104.8 101.2 104.4 101.15 104.1 100.35 102.7 100.3 102.4 100.15 102.1 100.85 101.45 104.6 102.3 106.85 103.15 109.95 104.95 112.4 107.45 113.75 109.5 114.75 111.8 115.15 113.05 115.0 113.15 114.9 113.3 114.6 113.85 114.6 114.15 114.3 114.2 114.15 114.4 113.95 114.8 114.05 115.6 113.6 115.85 113.4 116.2 113.4 116.4 113.6 116.95 113.7 117.15 114.7 118.55 114.85 118.6 114.95 118.7 115.1 119.1 115.25 119.35 115.45 119.5 116.0 119.6 116.9 119.45 117.05 119.8 117.05 121.25 116.65 125.1 116.7 126.55 116.85 127.0 116.35 127.2 115.45 128.05 114.75 129.15 113.85 131.0 113.5 132.1 113.5 132.25 113.45 132.4 113.45 132.45 113.5 132.6 113.55 132.65 113.7 132.6 113.85 132.5 114.6 131.5 114.6 131.8 114.5 132.2 114.05 132.75 113.35 133.4 109.5 135.95 109.5 135.7 109.45 135.6 109.6 135.3 109.8 134.25 109.75 133.9 109.55 133.75 109.35 133.5 108.7 133.1 108.95 132.2 109.1 132.1 109.4 131.65 109.65 131.0 109.65 130.65 109.75 130.5 109.75 130.3 110.05 130.1 110.3 130.05 Q110.45 130.0 110.55 129.9 L110.65 129.7 110.75 129.55 110.8 129.15 110.45 128.65 109.65 128.3 109.4 128.3 109.2 128.4 106.0 118.5 105.25 113.75 105.35 112.9 105.3 112.8 105.5 111.8 105.55 111.25 105.5 111.0 105.35 110.5 105.2 110.4 104.8 110.2 104.45 110.2 104.2 110.3 103.65 108.35 103.65 107.9 103.55 107.4 103.6 106.6 103.55 106.45 103.35 106.15 103.15 105.75 102.85 105.45 102.55 105.05 M92.85 107.2 L93.75 106.3 94.55 105.25 96.55 103.3 97.45 102.75 98.2 102.55 98.45 102.75 98.6 103.1 98.6 103.2 98.65 103.45 98.7 103.6 99.2 114.95 99.1 115.6 99.1 115.8 99.05 115.95 99.1 116.05 100.0 116.65 100.1 116.8 100.25 116.95 100.05 117.25 99.9 117.65 99.8 118.25 100.05 119.5 99.3 119.85 98.95 120.2 98.8 120.45 98.7 120.85 98.75 121.85 98.9 122.2 99.2 122.7 100.4 121.8 100.6 121.55 100.85 120.95 100.75 120.5 101.15 121.25 101.35 122.15 101.35 122.55 101.55 123.3 101.25 123.45 100.75 123.85 100.5 124.0 101.35 124.15 101.55 124.95 103.6 130.7 103.45 130.55 103.35 130.35 103.15 130.25 103.0 130.15 102.7 130.0 102.4 130.05 101.9 130.3 101.7 130.55 101.4 131.15 101.4 131.75 101.45 132.0 101.65 132.2 101.95 132.3 102.05 132.35 102.3 132.35 102.75 132.25 102.75 132.7 102.65 133.15 101.95 135.0 101.9 135.5 102.0 135.95 101.65 136.0 100.9 135.75 100.15 135.3 99.8 135.15 99.05 135.05 99.0 134.85 98.8 134.6 98.7 134.35 95.9 132.05 95.65 131.8 95.45 131.5 95.2 131.0 94.75 128.9 94.75 127.35 94.45 126.15 94.3 125.85 94.1 125.55 93.75 125.4 93.4 125.4 93.25 125.3 92.95 125.4 92.65 125.35 92.35 125.45 92.25 125.15 91.8 124.65 91.65 124.35 91.8 123.5 92.1 123.35 92.3 123.2 92.25 122.65 91.9 122.3 91.7 122.3 91.55 122.25 91.4 122.35 91.15 122.45 91.2 122.4 91.15 122.25 91.6 120.1 91.6 119.7 91.55 119.35 91.8 119.25 92.0 119.1 92.1 118.95 92.2 118.75 92.2 118.3 92.15 118.0 92.3 117.9 92.45 117.85 92.65 117.6 92.85 116.85 92.9 115.9 92.8 114.7 91.95 110.9 92.2 110.8 92.5 110.1 92.25 109.1 92.55 108.95 92.75 108.75 92.85 108.55 92.9 108.25 92.8 107.7 92.8 107.45 92.7 107.25 92.85 107.2 M81.85 118.95 L81.85 118.65 82.05 118.2 82.4 118.1 82.65 118.1 82.85 118.15 83.75 118.7 84.2 119.15 84.6 119.75 84.7 120.05 83.7 120.2 83.35 120.1 83.0 120.15 83.05 120.45 82.85 121.05 82.85 121.35 82.6 121.35 81.75 121.9 81.5 122.0 81.6 121.7 81.65 121.35 82.0 119.95 82.0 119.6 81.85 118.95 M85.3 122.2 L87.3 129.55 87.35 129.8 87.3 130.05 87.25 130.2 87.15 130.35 87.05 130.45 86.9 130.5 86.75 130.5 86.6 130.4 86.35 130.35 85.1 129.6 82.3 127.45 81.65 127.05 81.45 127.0 81.35 126.95 81.2 127.0 80.9 126.0 81.05 125.95 81.15 125.85 81.4 125.65 81.5 125.35 81.5 125.15 81.55 125.05 81.95 125.25 82.6 125.4 82.95 125.4 83.15 125.35 83.75 124.95 83.8 124.7 83.9 124.45 83.9 124.2 83.95 123.85 83.9 123.25 83.75 122.65 85.3 122.2 M107.05 133.7 L106.9 134.55 106.95 134.85 106.85 135.55 106.9 135.85 107.45 136.5 107.15 136.55 106.45 136.45 106.1 136.5 106.0 136.2 105.8 135.9 105.35 135.45 104.7 134.55 104.6 134.35 105.05 134.15 105.15 133.95 105.2 133.35 105.1 133.0 106.65 133.7 106.95 133.75 107.05 133.7" fill="#0000ff" fill-rule="evenodd" stroke="none"/>
    </g>
  </defs>
</svg>
