<?xml version="1.0" encoding="UTF-8" standalone="no"?>
<svg xmlns:xlink="http://www.w3.org/1999/xlink" height="300.0px" width="300.0px" xmlns="http://www.w3.org/2000/svg">
  <g transform="matrix(1.0, 0.0, 0.0, 1.0, 0.0, 0.0)">
    <use height="141.0" transform="matrix(1.0, 0.0, 0.0, 1.0, 7.65, 89.0)" width="272.75" xlink:href="#sprite0"/>
  </g>
  <defs>
    <g id="sprite0" transform="matrix(1.0, 0.0, 0.0, 1.0, 136.35, 70.5)">
      <use height="141.0" transform="matrix(1.0, 0.0, 0.0, 1.0, -136.35, -70.5)" width="272.75" xlink:href="#shape0"/>
    </g>
    <g id="shape0" transform="matrix(1.0, 0.0, 0.0, 1.0, 136.35, 70.5)">
      <path d="M53.95 -62.85 L54.45 -63.65 55.6 -64.55 58.05 -65.45 59.45 -66.15 60.4 -66.5 61.1 -66.65 61.5 -66.1 61.4 -65.45 60.7 -64.55 60.2 -63.65 60.2 -62.9 60.9 -61.85 60.9 -60.7 60.6 -59.65 59.15 -57.85 58.15 -57.5 57.0 -57.3 55.55 -57.9 53.95 -59.4 53.55 -60.4 53.4 -61.1 53.55 -61.9 53.95 -62.85 M57.05 -67.1 L57.6 -66.55 57.0 -66.05 56.35 -65.95 56.55 -66.75 57.05 -67.1 M55.55 -50.85 L57.05 -51.65 58.05 -51.7 59.45 -50.85 60.3 -51.05 60.9 -50.6 61.5 -50.4 62.0 -50.05 62.0 -49.3 61.8 -48.9 60.9 -48.25 60.4 -47.65 60.0 -45.3 59.6 -43.95 59.85 -42.85 59.55 -41.85 59.25 -39.15 59.25 -37.8 59.45 -36.2 59.25 -34.85 59.25 -33.55 59.85 -31.6 59.55 -30.35 59.9 -29.35 59.9 -27.55 60.0 -26.9 60.3 -25.9 60.4 -24.8 60.7 -24.1 60.7 -23.35 61.05 -22.75 60.65 -21.95 60.2 -21.6 59.85 -21.75 59.55 -22.4 59.15 -23.9 58.75 -24.6 58.75 -25.35 58.2 -26.4 58.2 -27.5 58.05 -28.25 58.05 -29.35 57.8 -30.25 57.6 -32.6 57.45 -33.2 57.4 -37.8 57.0 -38.55 56.35 -38.75 55.85 -39.15 55.4 -40.55 55.25 -41.35 55.25 -44.45 55.4 -45.85 55.05 -48.1 54.8 -49.0 55.05 -50.0 55.55 -50.85 M75.0 -52.7 L75.9 -52.8 76.8 -52.5 77.25 -51.7 77.35 -51.0 77.3 -49.9 75.9 -47.85 75.45 -46.65 75.4 -45.65 74.6 -44.75 74.2 -43.15 73.8 -42.15 73.7 -39.45 74.0 -38.25 74.5 -37.35 75.2 -36.75 76.05 -36.35 76.85 -35.65 77.85 -35.65 79.1 -35.85 79.3 -35.65 81.95 -36.65 83.45 -38.0 84.3 -39.05 84.95 -40.55 85.15 -41.8 85.15 -43.4 84.85 -44.25 83.45 -46.05 82.55 -46.7 80.3 -47.9 80.15 -48.65 80.5 -49.3 81.25 -49.45 81.9 -49.2 82.9 -49.05 83.5 -48.7 84.85 -48.2 85.65 -47.7 87.55 -45.4 87.9 -44.6 88.15 -43.2 87.7 -40.45 86.1 -36.95 85.15 -36.05 84.55 -34.95 81.95 -33.2 77.5 -31.55 74.8 -31.35 72.6 -31.75 70.65 -33.2 69.7 -33.55 69.1 -34.4 68.65 -35.4 68.05 -36.25 67.85 -38.95 68.45 -41.75 68.45 -43.25 69.7 -47.45 70.6 -48.45 70.8 -49.4 73.6 -52.05 75.0 -52.7 M80.15 -49.85 L79.7 -49.6 Q79.45 -49.7 79.15 -49.85 L79.5 -50.25 80.05 -50.3 80.15 -49.85 M38.95 -43.45 L40.0 -43.6 41.35 -43.35 41.5 -42.6 42.1 -41.65 42.1 -40.05 42.55 -39.75 43.0 -39.8 43.65 -40.05 45.55 -41.85 46.75 -42.65 47.75 -43.55 50.2 -44.6 50.95 -44.8 51.85 -44.75 52.2 -44.2 52.2 -43.65 51.65 -43.4 50.2 -43.15 49.15 -42.65 47.85 -41.6 47.25 -40.6 46.0 -39.75 44.4 -37.75 43.6 -35.65 43.6 -34.55 42.6 -31.4 42.5 -26.55 42.15 -25.35 41.95 -21.9 41.35 -20.55 40.7 -19.7 38.9 -18.8 38.3 -18.8 37.7 -19.3 37.1 -20.6 37.3 -34.05 37.1 -35.85 35.9 -37.6 35.55 -38.4 35.5 -39.45 35.6 -40.45 36.0 -41.25 36.7 -41.95 38.95 -43.45 M28.4 -38.05 L29.5 -37.35 30.15 -36.65 30.55 -35.4 30.55 -34.25 29.8 -33.0 28.7 -32.05 25.7 -30.2 23.85 -29.6 22.15 -28.8 21.05 -27.85 18.5 -26.5 16.7 -25.95 15.25 -25.75 14.25 -25.4 13.45 -24.9 13.05 -23.9 13.15 -22.3 13.65 -21.5 16.25 -19.2 17.1 -18.6 20.7 -17.8 22.05 -18.15 24.25 -19.15 25.35 -19.9 27.15 -20.55 27.3 -20.3 26.9 -19.75 23.7 -17.15 21.3 -15.8 19.55 -15.4 17.85 -15.35 14.7 -16.4 13.15 -17.35 12.1 -17.75 11.35 -18.3 10.7 -19.1 10.25 -19.3 7.85 -24.8 7.65 -26.1 8.4 -30.45 9.15 -32.45 9.5 -33.05 10.25 -33.85 10.75 -34.05 11.7 -35.65 12.85 -36.95 14.05 -37.85 15.5 -38.45 18.85 -39.4 20.9 -39.65 22.55 -39.6 28.4 -38.05 M20.35 -35.6 L19.05 -35.45 17.85 -35.15 15.55 -33.8 14.55 -32.8 13.95 -32.35 13.3 -31.45 13.55 -31.0 14.1 -31.2 15.05 -31.35 16.5 -31.75 17.85 -31.75 20.55 -32.55 22.95 -33.8 23.15 -34.65 22.5 -35.2 20.35 -35.6 M5.5 -35.35 L4.5 -34.8 3.4 -34.45 2.2 -33.85 -0.15 -33.2 Q-0.85 -32.8 -1.6 -32.45 L-2.55 -32.45 -3.6 -31.85 -4.5 -31.15 -4.8 -30.4 -4.8 -29.65 -4.95 -28.4 -5.2 -27.75 -5.2 -26.8 -5.9 -24.1 -6.0 -22.75 -6.0 -15.0 -6.35 -13.8 -6.6 -11.35 -6.3 -8.75 -5.5 -7.25 -4.7 -6.85 -3.2 -6.65 -2.4 -6.95 -0.7 -7.35 -1.1 -6.65 -2.5 -5.75 -4.3 -5.35 -5.5 -5.25 -6.7 -5.3 -7.8 -5.75 -8.95 -5.85 -10.15 -6.85 -10.75 -7.95 -10.8 -9.35 -11.45 -11.6 -11.25 -14.8 -11.45 -15.95 -11.2 -17.15 -11.6 -18.55 -11.85 -21.7 -11.45 -24.5 -11.45 -29.55 -14.65 -27.85 -15.4 -27.1 -16.15 -26.75 -16.75 -26.7 -17.0 -27.0 -17.0 -27.4 -16.85 -28.15 -16.4 -28.75 -15.6 -29.35 -14.75 -29.45 -13.65 -30.0 -11.45 -30.8 -11.25 -31.55 -11.45 -32.6 -11.2 -35.65 -11.25 -36.75 -11.75 -38.55 -11.75 -39.4 -11.25 -40.45 -10.15 -41.35 -9.4 -42.35 -8.2 -43.15 -7.2 -43.25 -6.35 -43.15 -5.5 -42.75 -5.15 -42.25 -4.55 -41.65 -4.3 -41.15 -3.7 -40.35 -3.55 -39.85 -3.6 -38.75 -3.95 -37.8 -4.1 -36.8 -4.5 -35.95 -4.3 -35.2 -3.6 -34.95 -2.55 -34.95 -1.5 -35.4 3.85 -36.45 5.0 -36.45 5.5 -36.55 6.2 -36.45 6.1 -35.85 5.5 -35.35 M4.05 -31.45 L5.0 -31.35 4.5 -30.4 3.5 -30.35 3.4 -31.05 4.05 -31.45 M26.1 -20.9 L25.7 -21.2 25.9 -21.75 26.5 -21.9 26.55 -21.4 26.1 -20.9 M135.3 -69.45 L136.2 -68.25 136.2 -67.1 135.05 -65.35 134.1 -64.75 132.5 -64.15 130.1 -63.85 128.9 -63.25 127.8 -62.45 126.25 -60.7 125.95 -59.5 126.4 -58.8 127.15 -58.25 128.1 -58.3 130.4 -57.05 131.1 -56.45 131.85 -56.45 132.5 -56.3 133.05 -55.7 133.8 -55.6 135.3 -54.85 135.9 -54.25 136.4 -50.8 136.25 -49.65 135.3 -47.2 133.45 -45.05 132.6 -44.55 130.7 -43.15 127.15 -42.15 126.25 -42.55 125.2 -42.35 123.65 -42.35 122.4 -42.55 121.65 -43.0 120.85 -43.05 120.0 -44.6 120.0 -45.7 120.4 -47.0 121.25 -48.65 121.95 -48.9 122.25 -48.4 121.95 -47.45 121.85 -45.3 122.4 -44.6 125.55 -44.2 127.15 -44.4 128.1 -44.2 130.45 -45.4 133.65 -48.65 133.7 -51.05 133.3 -51.9 132.5 -52.7 131.4 -52.8 130.05 -53.1 129.5 -53.45 127.15 -54.25 126.0 -54.4 125.25 -54.6 124.2 -54.65 123.55 -54.5 121.65 -55.1 121.15 -56.0 120.55 -56.65 120.2 -57.6 120.05 -58.8 120.4 -59.9 120.45 -60.9 120.95 -62.15 122.25 -64.3 122.4 -64.85 122.95 -65.65 123.65 -65.85 123.95 -66.7 125.65 -67.85 127.85 -68.7 130.7 -70.25 131.85 -70.5 133.0 -70.45 135.3 -69.45 M97.6 -56.2 L99.3 -55.6 99.95 -54.8 100.35 -54.0 100.6 -52.85 100.5 -52.0 99.4 -50.1 99.35 -49.0 98.95 -47.6 99.0 -45.0 99.4 -43.55 100.0 -42.95 100.6 -42.05 101.75 -41.55 102.9 -41.25 104.2 -41.2 106.3 -42.65 107.1 -43.65 107.9 -45.1 109.35 -48.65 109.8 -51.9 109.2 -54.5 109.0 -55.0 109.15 -56.05 109.1 -57.05 109.2 -57.9 109.5 -58.7 109.6 -59.8 110.1 -60.5 110.55 -60.9 111.2 -60.85 111.55 -60.3 111.95 -59.05 111.85 -57.05 111.55 -55.8 111.55 -55.25 111.2 -54.7 111.55 -52.65 111.95 -51.8 112.0 -50.2 112.4 -49.25 112.75 -47.9 112.85 -46.9 113.35 -45.8 113.8 -45.05 114.4 -44.4 115.05 -43.85 116.8 -43.55 117.05 -43.0 116.65 -42.25 116.15 -41.8 115.55 -41.6 115.0 -41.6 114.65 -41.95 112.65 -43.35 111.65 -45.3 111.45 -46.2 111.0 -47.5 110.7 -47.45 109.8 -46.0 109.35 -44.35 108.95 -43.4 107.3 -40.8 105.4 -39.35 103.9 -38.55 102.7 -38.2 101.75 -38.15 100.7 -38.4 99.4 -38.4 98.55 -38.85 97.55 -39.2 96.0 -40.2 94.3 -45.9 94.5 -47.2 94.1 -48.5 93.85 -51.45 93.65 -52.2 93.7 -53.2 93.95 -54.05 94.75 -55.1 95.75 -55.8 96.6 -56.1 97.6 -56.2 M100.5 -50.45 L100.95 -51.05 101.75 -51.2 102.55 -50.9 103.7 -49.7 103.55 -47.85 102.4 -46.45 101.5 -47.1 100.8 -48.25 100.9 -49.7 100.5 -50.45 M117.55 -64.5 L118.0 -65.25 118.75 -65.25 118.75 -64.55 118.15 -64.15 117.55 -64.5 M67.65 47.55 L69.05 47.55 69.05 58.3 67.65 58.3 67.65 47.55 M88.75 56.75 L89.05 57.45 88.75 58.2 88.05 58.45 87.4 58.2 87.15 57.45 Q87.15 57.0 87.4 56.75 87.65 56.45 88.1 56.45 88.5 56.45 88.75 56.75 M84.0 50.4 L85.15 50.55 85.95 50.8 85.65 51.9 85.0 51.65 84.0 51.55 Q83.1 51.55 82.5 51.9 81.9 52.3 81.6 53.0 81.3 53.65 81.3 54.45 81.3 55.35 81.65 56.0 L82.6 57.0 83.95 57.35 85.0 57.2 85.7 56.95 85.95 58.0 85.05 58.3 83.7 58.45 81.65 57.95 Q80.8 57.5 80.35 56.6 79.85 55.7 79.85 54.5 79.85 53.3 80.35 52.4 80.9 51.45 81.8 50.95 82.75 50.4 84.0 50.4 M77.2 51.05 L77.9 52.05 78.15 53.7 78.15 58.3 76.75 58.3 76.75 53.85 76.55 52.7 76.0 51.9 Q75.6 51.55 74.95 51.55 74.25 51.6 73.75 52.0 73.25 52.4 73.05 53.0 L73.0 53.3 73.0 53.65 73.0 58.3 71.55 58.3 71.55 52.65 71.55 51.55 71.5 50.55 72.75 50.55 72.85 51.85 73.4 51.15 74.25 50.6 75.4 50.4 76.3 50.55 77.2 51.05 M-121.85 -8.85 L-120.65 -10.1 -120.25 -12.7 -116.05 -19.55 -113.95 -21.3 -112.15 -21.7 -111.05 -20.7 -109.85 -18.5 -104.85 -1.65 -103.4 8.2 -102.3 11.15 -100.6 12.95 -99.6 13.5 -98.5 11.95 -97.85 9.5 -96.5 6.55 -91.45 -8.45 -92.45 -9.3 -93.25 -11.3 -93.15 -14.1 -90.45 -20.4 -89.95 -23.2 -88.15 -26.9 -86.75 -28.6 -84.95 -31.45 -80.95 -35.0 -78.75 -35.0 -76.5 -35.35 -74.2 -34.55 -72.4 -33.35 -70.8 -31.6 -70.4 -28.8 -70.3 -6.45 -69.1 0.85 -70.0 22.0 -70.8 24.05 -70.0 27.4 -70.0 34.8 -69.2 36.05 -67.7 52.1 -67.4 60.9 -67.7 61.65 -68.55 62.5 -69.5 60.9 -70.4 57.55 -71.3 56.25 -71.55 50.0 -73.2 45.25 -73.75 39.85 -75.95 31.25 -76.35 27.4 -77.65 25.55 -78.75 21.7 -78.75 18.3 -79.65 15.75 -79.55 10.1 -80.55 8.4 -81.05 1.25 -80.55 -3.15 -79.65 -5.75 -80.55 -8.15 -81.05 -13.95 -82.8 -14.9 -84.25 -15.15 -88.05 -9.55 -91.45 -1.3 -96.4 15.6 -97.4 17.95 -98.5 19.3 -99.7 20.3 -101.5 19.95 -104.85 15.6 -106.0 13.0 -108.9 0.45 -110.25 -2.65 -111.05 -5.5 -112.15 -7.7 -115.25 -8.5 -118.45 0.85 -120.35 13.75 -120.35 15.4 -122.35 29.35 -122.5 33.25 -121.3 34.35 -121.15 37.2 -120.5 39.55 -123.45 44.7 -126.05 45.8 -131.8 47.4 -134.0 47.0 -135.55 46.2 -136.35 43.8 -135.55 37.95 -134.0 34.6 -132.75 33.8 -132.5 26.8 -130.15 18.1 -129.75 14.6 -128.1 11.15 -128.2 9.3 -126.3 5.75 -126.3 3.75 -122.35 -6.7 -121.85 -8.85 M-110.25 -32.75 L-110.9 -31.35 -112.05 -31.45 -111.9 -33.25 -110.65 -33.6 -110.25 -32.75 M-63.2 -16.2 L-62.2 -16.8 -61.1 -16.95 -60.2 -16.95 -59.3 -16.5 -58.7 -15.8 -57.45 -13.5 -57.05 -12.3 -56.85 -10.45 -56.95 -9.25 -56.75 -7.85 -56.35 -7.75 -56.1 -6.65 -55.7 -5.95 -55.65 -5.3 -54.95 -4.9 -52.9 -4.45 -51.9 -5.15 -50.95 -5.5 -49.3 -6.9 -48.25 -7.35 -46.85 -7.7 -46.15 -8.45 -45.3 -9.85 -45.45 -12.1 -46.3 -16.15 -46.3 -17.2 -46.85 -19.0 -47.5 -19.9 -47.5 -20.7 -47.1 -21.55 -46.55 -22.2 -45.65 -22.35 -45.05 -22.1 -44.75 -21.5 -43.85 -20.4 -43.65 -19.75 -43.15 -18.95 -42.5 -16.1 -42.7 -14.95 -42.7 -13.9 -42.5 -12.6 -42.65 -11.55 -42.3 -5.95 -42.05 -4.9 -42.4 -3.65 -42.1 -2.7 -42.0 -1.55 -42.05 -0.45 -42.4 1.7 -42.4 2.65 -42.65 3.75 -42.5 4.75 -42.7 5.75 -43.1 6.4 -43.1 7.55 -43.3 8.95 -43.7 10.3 -44.35 11.8 -44.5 12.55 -45.9 14.95 -46.65 15.95 -46.9 16.6 -48.95 19.3 -49.7 20.0 -50.7 20.6 -51.25 21.3 -52.25 22.0 -53.55 22.6 -54.9 22.9 -60.3 23.15 -61.15 22.5 -61.6 22.5 -62.0 21.95 -62.3 21.1 -62.35 20.3 -62.3 17.5 -61.8 16.4 -61.5 16.1 -61.15 16.3 -61.2 17.5 -61.1 18.15 -61.1 19.2 -61.2 19.9 -60.9 20.9 -60.35 21.2 -59.75 21.4 -59.05 21.8 -57.85 21.55 -57.05 21.6 -56.1 21.35 -54.95 21.2 -53.95 20.7 -53.1 20.4 -52.1 20.35 -51.5 19.55 -49.55 17.75 -47.35 14.35 -47.3 13.55 -46.75 12.9 -46.45 12.0 -46.05 11.3 -46.05 10.7 -45.25 8.5 -44.7 5.9 -44.85 5.1 -44.45 3.9 -44.25 0.1 -44.45 -1.25 -44.95 -2.9 -45.45 -3.45 -45.7 -3.55 -46.1 -3.25 -47.5 -1.65 -48.45 -1.1 -49.15 -0.3 -49.85 0.25 -50.7 0.65 -51.05 1.1 -52.1 1.55 -53.15 2.3 -54.5 2.65 -56.95 2.25 -57.55 2.3 -58.05 1.75 -58.55 1.75 -59.45 1.25 -60.35 0.9 -61.4 -0.65 -62.0 -2.35 -62.3 -3.7 -62.3 -5.05 -62.75 -6.25 -62.75 -7.5 -63.0 -8.25 -63.15 -9.45 -63.5 -10.5 -64.2 -11.4 -64.75 -13.15 -64.4 -14.6 -63.95 -15.5 -63.2 -16.2 M-65.75 -10.1 L-65.15 -10.75 -64.6 -10.75 -64.35 -10.3 -64.75 -9.75 -65.2 -9.75 -65.75 -10.1 M-19.05 -29.0 L-19.05 -27.95 -19.6 -26.95 -20.15 -26.2 -21.15 -25.55 -22.75 -25.0 -25.05 -24.6 -26.3 -24.1 -27.45 -23.3 -29.0 -21.55 -29.25 -20.3 -28.8 -19.55 -28.05 -19.1 -27.05 -19.15 -24.8 -17.9 -24.05 -17.3 -23.35 -17.3 -22.75 -17.1 -22.2 -16.55 -21.4 -16.4 -19.85 -15.7 -19.25 -15.0 -19.2 -13.95 -18.8 -11.6 -18.95 -10.5 -19.85 -8.05 -21.75 -5.9 -24.45 -3.95 -28.1 -2.95 -28.9 -3.35 -30.0 -3.15 -31.5 -3.15 -32.8 -3.35 -33.5 -3.75 -34.3 -3.9 -35.25 -5.45 -35.25 -6.55 -34.45 -8.55 -33.9 -9.5 -33.25 -9.75 -33.0 -9.15 -33.25 -8.25 -33.4 -7.25 -33.4 -6.1 -32.8 -5.45 -29.7 -4.95 -28.1 -5.25 -27.05 -5.05 -24.75 -6.25 -22.15 -8.7 -21.6 -9.45 -21.45 -11.8 -21.85 -12.7 -22.75 -13.55 -23.8 -13.6 -25.15 -13.95 -25.65 -14.3 -28.1 -15.0 -29.25 -15.2 -29.9 -15.4 -31.65 -15.35 -33.5 -15.95 -34.1 -16.8 -34.65 -17.4 -35.05 -18.4 -35.1 -19.55 -34.8 -20.75 -34.7 -21.75 -33.65 -24.1 -33.0 -25.15 -32.8 -25.6 -32.25 -26.5 -31.5 -26.7 -31.3 -27.55 -29.5 -28.65 -28.5 -29.0 -24.45 -31.0 -23.35 -31.25 -22.2 -31.25 -21.4 -31.0 -20.45 -30.45 -19.85 -30.25 -19.25 -29.55 -19.05 -29.0 M-37.05 -24.95 L-37.65 -25.3 -37.2 -26.1 -36.45 -26.1 -36.45 -25.4 -37.05 -24.95 M-67.15 13.9 L-66.15 12.2 -65.0 13.35 -66.4 15.2 -67.15 13.9 M-126.7 55.3 L-127.75 55.45 -127.65 53.6 -126.55 53.3 -125.7 54.1 -126.7 55.3" fill="#000000" fill-rule="evenodd" stroke="none"/>
      <path d="M15.7 8.95 Q22.45 8.95 26.95 7.95 31.6 6.95 31.6 5.35 31.6 3.2 30.9 1.35 L62.2 5.35 21.9 14.9 -28.85 8.5 0.6 1.1 Q-0.2 3.1 -0.2 5.35 -0.2 6.75 4.45 7.8 9.25 8.95 15.7 8.95" fill="#a3a3a3" fill-rule="evenodd" stroke="none"/>
      <path d="M15.7 -8.05 Q22.3 -8.05 26.95 -4.1 29.8 -1.7 30.9 1.35 31.6 3.2 31.6 5.35 31.6 6.95 26.95 7.95 22.45 8.95 15.7 8.95 9.25 8.95 4.45 7.8 -0.2 6.75 -0.2 5.35 -0.2 3.1 0.6 1.1 1.7 -1.8 4.45 -4.1 9.1 -8.05 15.7 -8.05" fill="#cf0008" fill-rule="evenodd" stroke="none"/>
      <path d="M62.2 57.4 L21.9 70.5 21.9 14.9 62.2 5.35 62.2 57.4" fill="#191919" fill-rule="evenodd" stroke="none"/>
      <path d="M21.9 14.9 L21.9 70.5 -28.85 60.55 -28.85 8.5 21.9 14.9" fill="#525252" fill-rule="evenodd" stroke="none"/>
    </g>
  </defs>
</svg>
