<?xml version="1.0" encoding="UTF-8" standalone="no"?>
<svg xmlns:xlink="http://www.w3.org/1999/xlink" height="300.0px" width="300.0px" xmlns="http://www.w3.org/2000/svg">
  <g transform="matrix(1.0, 0.0, 0.0, 1.0, 0.0, 0.0)">
    <use height="80.35" transform="matrix(1.0, 0.0, 0.0, 1.0, 5.8, 155.85)" width="283.5" xlink:href="#shape0"/>
    <use height="107.35" transform="matrix(1.0, 0.0, 0.0, 1.0, 41.0, 45.1)" width="211.05" xlink:href="#sprite0"/>
    <use height="112.55" transform="matrix(1.0, 0.0, 0.0, 1.0, 40.9, 35.5)" width="211.25" xlink:href="#sprite11"/>
  </g>
  <defs>
    <g id="shape0" transform="matrix(1.0, 0.0, 0.0, 1.0, -5.8, -155.85)">
      <path d="M153.8 214.15 L160.9 214.15 160.9 219.8 153.8 219.8 153.8 228.15 146.55 228.15 146.55 204.2 161.55 204.2 161.55 209.85 153.8 209.85 153.8 214.15 M128.15 211.05 L135.05 211.05 128.75 228.6 Q127.25 232.8 125.2 234.45 123.05 236.2 120.1 236.2 117.7 236.2 115.85 235.5 L115.85 230.15 Q117.1 231.0 118.7 231.0 120.65 231.0 121.3 229.4 L121.85 228.05 114.75 211.05 122.6 211.05 124.65 219.3 125.35 222.4 125.4 222.4 126.05 219.35 128.15 211.05 M107.55 214.05 L107.65 214.05 Q109.0 210.75 112.3 210.75 L113.3 210.95 113.3 217.15 Q112.2 216.65 111.1 216.65 107.55 216.65 107.55 220.7 L107.55 228.15 100.5 228.15 100.5 211.05 107.55 211.05 107.55 214.05 M88.0 214.95 Q85.15 214.95 81.95 216.6 L81.95 212.0 Q85.3 210.65 89.0 210.65 93.3 210.65 95.3 212.45 97.25 214.3 97.25 218.7 L97.25 228.15 90.8 228.15 90.8 225.5 90.75 225.5 Q89.0 228.55 85.5 228.55 83.05 228.55 81.7 227.1 80.35 225.65 80.35 223.25 80.35 218.25 86.55 217.45 L90.8 216.9 Q90.8 216.05 90.0 215.5 89.25 214.95 88.0 214.95 M86.6 222.3 Q86.6 223.0 87.0 223.5 87.45 223.9 88.3 223.9 89.4 223.9 90.05 223.1 90.8 222.25 90.8 221.0 L90.8 220.3 88.35 220.65 Q86.6 220.9 86.6 222.3 M64.6 221.65 L54.0 221.65 Q54.5 223.95 58.15 223.95 60.55 223.95 62.9 223.0 L62.9 227.5 Q60.25 228.55 56.6 228.55 52.1 228.55 49.6 226.25 47.15 223.9 47.15 220.0 47.15 215.55 49.75 213.1 52.4 210.65 56.2 210.65 60.2 210.65 62.4 212.9 64.6 215.15 64.6 218.95 L64.6 221.65 M68.5 215.95 L65.8 215.95 65.8 211.05 68.5 211.05 68.5 207.7 75.5 205.75 75.5 211.05 79.1 211.05 79.1 215.95 75.5 215.95 75.5 221.1 Q75.5 223.35 77.3 223.35 L79.1 223.0 79.1 227.95 Q77.55 228.55 74.85 228.55 71.85 228.55 70.15 226.9 68.5 225.25 68.5 222.25 L68.5 215.95 M44.9 206.4 Q44.9 207.9 43.8 208.85 42.7 209.8 40.9 209.8 39.15 209.8 38.05 208.8 36.95 207.85 36.95 206.4 36.95 204.95 38.05 204.05 39.15 203.15 40.9 203.15 42.7 203.15 43.8 204.05 44.9 204.95 44.9 206.4 M56.15 214.95 Q54.3 214.95 54.0 217.9 L58.3 217.9 Q58.3 214.95 56.15 214.95 M44.45 228.15 L37.35 228.15 37.35 211.05 44.45 211.05 44.45 228.15 M21.1 209.85 L19.25 209.85 19.25 222.5 21.3 222.5 Q23.85 222.5 25.4 220.7 27.0 218.95 27.0 215.9 27.0 213.3 25.4 211.6 23.85 209.85 21.1 209.85 M34.6 215.9 Q34.6 221.45 31.25 224.8 27.8 228.15 22.2 228.15 L12.05 228.15 12.05 204.2 21.95 204.2 Q34.6 204.2 34.6 215.9 M283.9 225.75 Q283.9 230.65 280.85 233.4 277.75 236.2 271.8 236.2 268.5 236.2 266.55 235.35 L266.55 229.8 Q269.0 231.25 271.6 231.25 274.05 231.25 275.45 230.05 276.85 228.9 276.85 227.05 L276.85 226.0 276.8 226.0 Q274.95 228.55 271.8 228.55 268.5 228.55 266.55 226.3 264.65 223.95 264.65 219.9 264.65 215.65 266.85 213.15 269.1 210.65 272.4 210.65 275.3 210.65 276.8 212.85 L276.85 212.85 276.85 211.05 283.9 211.05 283.9 225.75 M271.85 219.8 Q271.85 223.35 274.35 223.35 275.6 223.35 276.3 222.35 276.95 221.35 276.95 219.7 L276.95 219.1 Q276.95 217.65 276.3 216.75 275.65 215.85 274.5 215.85 273.3 215.85 272.6 216.9 271.85 217.95 271.85 219.8 M262.2 217.7 L262.2 228.15 255.1 228.15 255.1 218.8 Q255.1 215.85 253.05 215.85 252.1 215.85 251.65 216.55 251.1 217.3 251.1 218.4 L251.1 228.15 244.0 228.15 244.0 211.05 251.1 211.05 251.1 213.7 251.2 213.7 Q253.05 210.65 256.6 210.65 262.2 210.65 262.2 217.7 M234.15 208.8 Q233.05 207.85 233.05 206.4 233.05 204.95 234.15 204.05 235.25 203.15 237.0 203.15 238.8 203.15 239.9 204.05 241.0 204.95 241.0 206.4 241.0 207.9 239.9 208.85 238.8 209.8 237.0 209.8 235.25 209.8 234.15 208.8 M230.2 210.75 L231.2 210.95 231.2 217.15 Q230.1 216.65 229.0 216.65 225.45 216.65 225.45 220.7 L225.45 228.15 218.35 228.15 218.35 211.05 225.45 211.05 225.45 214.05 225.55 214.05 Q226.85 210.75 230.2 210.75 M240.55 211.05 L240.55 228.15 233.45 228.15 233.45 211.05 240.55 211.05 M215.7 219.3 Q215.7 223.55 213.1 226.05 210.45 228.55 205.75 228.55 201.1 228.55 198.55 226.15 195.9 223.7 195.9 219.5 195.9 215.35 198.65 213.0 201.35 210.65 205.8 210.65 210.45 210.65 213.05 213.1 215.7 215.6 215.7 219.3 M205.8 215.85 Q203.1 215.85 203.1 219.5 203.1 223.35 205.85 223.35 208.45 223.35 208.45 219.35 208.45 215.85 205.8 215.85 M191.35 213.1 Q194.0 215.6 194.0 219.3 194.0 223.55 191.4 226.05 188.8 228.55 184.1 228.55 179.45 228.55 176.85 226.15 174.25 223.7 174.25 219.5 174.25 215.35 176.95 213.0 179.65 210.65 184.1 210.65 188.75 210.65 191.35 213.1 M184.1 215.85 Q181.45 215.85 181.45 219.5 181.45 223.35 184.15 223.35 186.8 223.35 186.8 219.35 186.8 215.85 184.1 215.85 M171.55 202.8 L171.55 228.15 164.45 228.15 164.45 202.8 171.55 202.8" fill="#3b2314" fill-rule="evenodd" stroke="none"/>
      <path d="M177.45 172.35 L175.7 195.2 170.35 194.2 169.3 175.7 164.3 179.05 165.65 195.85 159.25 195.85 156.6 170.6 163.3 169.3 163.65 172.35 173.05 168.6 177.45 172.35 M185.6 185.3 L188.2 185.3 188.2 181.75 194.5 180.9 194.8 190.45 182.4 194.4 179.8 168.5 194.05 165.55 194.5 176.55 189.65 177.35 189.35 173.95 186.05 173.95 185.6 185.3 M196.95 161.55 L205.35 159.55 206.05 175.0 212.45 173.35 218.85 178.05 216.8 195.2 212.8 195.2 212.45 180.1 206.7 180.75 208.1 193.5 201.7 194.2 196.95 161.55 M229.85 170.35 L229.1 173.4 230.1 179.15 234.35 178.45 234.25 170.35 229.85 170.35 M242.45 189.05 L228.65 195.45 221.7 180.65 222.6 166.1 238.35 166.45 243.0 181.0 230.65 183.05 231.2 187.45 235.3 186.9 235.15 184.5 241.45 183.45 242.45 189.05 M270.85 156.55 L271.65 162.15 266.75 165.7 265.95 164.45 269.4 161.9 266.05 161.1 265.95 155.85 270.85 156.55 M282.6 167.0 L289.0 171.05 287.6 179.45 283.25 179.1 283.6 172.75 280.2 172.35 280.2 180.1 289.3 183.45 288.6 192.9 282.25 195.9 273.15 191.55 274.85 185.5 278.55 185.5 279.25 189.55 282.9 189.55 282.9 185.15 275.2 180.75 274.15 171.7 276.2 167.0 282.6 167.0 M252.3 171.15 L253.65 174.5 264.05 172.5 263.1 185.6 257.7 185.6 257.0 179.55 254.0 181.25 256.0 195.05 251.65 195.35 244.9 172.5 252.3 171.15 M6.15 158.85 L34.7 162.5 30.65 180.65 22.95 181.7 31.65 189.45 34.7 187.4 40.1 193.45 33.0 199.55 18.6 185.05 19.25 193.1 9.8 194.2 8.45 187.45 13.2 186.75 10.5 165.95 5.8 164.9 6.15 158.85 M24.6 168.3 L18.6 167.55 19.25 176.7 24.6 175.65 24.6 168.3 M67.55 173.0 L68.55 182.1 72.6 182.1 72.3 173.0 67.55 173.0 M75.3 164.95 L83.7 166.3 76.3 201.25 62.2 195.85 62.85 192.5 71.6 193.85 72.3 187.8 61.2 186.75 62.2 165.25 74.65 168.3 75.3 164.95 M52.75 195.45 L52.4 192.7 41.95 195.75 39.95 166.5 47.7 167.55 47.05 188.4 50.4 187.35 51.4 173.55 58.15 172.2 57.75 197.1 52.75 195.45 M96.0 171.15 L94.85 164.45 107.65 161.4 113.7 174.2 121.45 161.75 129.45 162.75 130.15 188.3 133.5 188.3 133.85 194.65 119.4 196.4 118.75 189.3 122.8 189.0 122.8 173.15 115.7 185.3 105.6 172.5 107.65 185.95 111.0 186.25 111.0 193.0 97.55 193.3 97.2 187.3 100.9 186.25 99.45 170.5 96.0 171.15 M146.6 187.35 L147.65 173.55 154.35 172.2 154.0 197.1 149.0 195.45 148.65 192.7 138.2 195.75 136.2 166.5 143.9 167.55 143.25 188.4 146.6 187.35" fill="#f05a28" fill-rule="evenodd" stroke="none"/>
    </g>
    <g id="sprite0" transform="matrix(1.0, 0.0, 0.0, 1.0, 0.0, 0.0)">
      <use height="10.5" transform="matrix(1.0, 0.0, 0.0, 1.0, 13.4, 43.65)" width="35.85" xlink:href="#sprite1"/>
      <use height="12.0" transform="matrix(1.0, 0.0, 0.0, 1.0, 0.0, 42.15)" width="13.55" xlink:href="#shape3"/>
      <use height="13.4" transform="matrix(1.0, 0.0, 0.0, 1.0, 49.15, 48.8)" width="27.3" xlink:href="#sprite3"/>
      <use height="12.9" transform="matrix(1.0, 0.0, 0.0, 1.0, 75.8, 60.8)" width="13.95" xlink:href="#sprite5"/>
      <use height="8.3" transform="matrix(1.0, 0.0, 0.0, 1.0, 81.6, 77.55)" width="2.75" xlink:href="#sprite7"/>
      <use height="6.45" transform="matrix(1.0, 0.0, 0.0, 1.0, 79.9, 88.1)" width="1.15" xlink:href="#sprite9"/>
      <use height="107.35" transform="matrix(1.0, 0.0, 0.0, 1.0, 0.1, 0.0)" width="210.95" xlink:href="#shape12"/>
    </g>
    <g id="sprite1" transform="matrix(1.0, 0.0, 0.0, 1.0, 0.0, 0.05)">
      <clipPath id="clipPath0" transform="matrix(1.0, 0.0, 0.0, 1.0, 0.0, 0.0)">
        <path d="M35.75 9.3 Q34.75 8.2 33.3 7.35 28.35 4.2 20.55 3.6 12.75 3.0 6.6 5.25 1.35 7.15 0.0 10.45 L0.15 6.95 Q1.5 3.75 6.75 1.75 12.85 -0.5 20.65 0.1 28.5 0.7 33.45 3.85 L35.85 5.8 35.75 9.3" fill="#ff0000" fill-rule="evenodd" stroke="none"/>
      </clipPath>
      <g clip-path="url(#clipPath0)">
        <use height="10.45" transform="matrix(1.0, 0.0, 0.0, 1.0, 0.0, 0.0)" width="35.85" xlink:href="#sprite2"/>
      </g>
    </g>
    <g id="sprite2" transform="matrix(1.0, 0.0, 0.0, 1.0, 0.0, 0.0)">
      <use height="10.45" transform="matrix(1.0, 0.0, 0.0, 1.0, 0.0, 0.0)" width="35.85" xlink:href="#shape2"/>
    </g>
    <g id="shape2" transform="matrix(1.0, 0.0, 0.0, 1.0, 0.0, 0.0)">
      <path d="M35.85 5.8 L35.75 9.3 Q34.75 8.2 33.3 7.35 L31.0 6.1 31.1 2.6 33.45 3.85 35.85 5.8" fill="#3d2815" fill-rule="evenodd" stroke="none"/>
      <path d="M31.1 2.6 L31.0 6.1 29.05 5.3 29.2 1.85 Q30.25 2.15 31.1 2.6" fill="#3f2916" fill-rule="evenodd" stroke="none"/>
      <path d="M29.2 1.85 L29.05 5.3 27.35 4.8 27.5 1.3 29.2 1.85" fill="#422b16" fill-rule="evenodd" stroke="none"/>
      <path d="M27.5 1.3 L27.35 4.8 25.8 4.4 25.9 0.9 27.5 1.3" fill="#442c17" fill-rule="evenodd" stroke="none"/>
      <path d="M25.9 0.9 L25.8 4.4 24.25 4.05 24.35 0.6 25.9 0.9" fill="#462e18" fill-rule="evenodd" stroke="none"/>
      <path d="M24.35 0.6 L24.25 4.05 22.7 3.8 22.8 0.35 24.35 0.6" fill="#492f19" fill-rule="evenodd" stroke="none"/>
      <path d="M22.8 0.35 L22.7 3.8 21.1 3.65 21.2 0.15 22.8 0.35" fill="#4b311a" fill-rule="evenodd" stroke="none"/>
      <path d="M21.2 0.15 L21.1 3.65 19.45 3.5 19.6 0.05 21.2 0.15" fill="#4d321a" fill-rule="evenodd" stroke="none"/>
      <path d="M19.6 0.05 L19.45 3.5 17.7 3.45 17.8 0.0 19.6 0.05" fill="#50341b" fill-rule="evenodd" stroke="none"/>
      <path d="M17.8 0.0 L17.7 3.45 15.7 3.5 15.85 0.05 17.8 0.0" fill="#52351c" fill-rule="evenodd" stroke="none"/>
      <path d="M15.85 0.05 L15.7 3.5 13.35 3.7 13.45 0.2 15.85 0.05" fill="#54371d" fill-rule="evenodd" stroke="none"/>
      <path d="M13.45 0.2 L13.35 3.7 Q9.55 4.2 6.6 5.25 L4.3 6.25 4.45 2.8 6.75 1.75 Q9.65 0.7 13.45 0.2" fill="#57381e" fill-rule="evenodd" stroke="none"/>
      <path d="M4.45 2.8 L4.3 6.25 2.85 7.2 2.95 3.7 4.45 2.8" fill="#54371d" fill-rule="evenodd" stroke="none"/>
      <path d="M2.95 3.7 L2.85 7.2 1.85 8.0 1.95 4.5 2.95 3.7" fill="#52351c" fill-rule="evenodd" stroke="none"/>
      <path d="M1.95 4.5 L1.85 8.0 1.1 8.75 1.2 5.25 1.95 4.5" fill="#50341b" fill-rule="evenodd" stroke="none"/>
      <path d="M1.2 5.25 L1.1 8.75 0.55 9.5 0.65 6.0 1.2 5.25" fill="#4d321a" fill-rule="evenodd" stroke="none"/>
      <path d="M0.65 6.0 L0.55 9.5 0.1 10.25 0.25 6.75 0.65 6.0" fill="#4b311a" fill-rule="evenodd" stroke="none"/>
      <path d="M0.25 6.75 L0.1 10.25 0.0 10.45 0.15 6.95 0.25 6.75" fill="#492f19" fill-rule="evenodd" stroke="none"/>
    </g>
    <g id="shape3" transform="matrix(1.0, 0.0, 0.0, 1.0, 0.0, -42.15)">
      <path d="M0.1 42.15 L13.55 50.65 13.4 54.15 0.0 45.65 0.1 42.15" fill="#3f2915" fill-rule="evenodd" stroke="none"/>
    </g>
    <g id="sprite3" transform="matrix(1.0, 0.0, 0.0, 1.0, 0.0, 0.0)">
      <clipPath id="clipPath1" transform="matrix(1.0, 0.0, 0.0, 1.0, 0.0, 0.0)">
        <path d="M22.95 7.35 Q18.75 4.7 12.25 3.85 L0.0 4.2 0.1 0.7 12.35 0.35 Q18.85 1.2 23.05 3.85 27.4 6.55 27.3 10.0 L27.15 13.4 Q27.25 10.1 22.95 7.35" fill="#ff0000" fill-rule="evenodd" stroke="none"/>
      </clipPath>
      <g clip-path="url(#clipPath1)">
        <use height="13.4" transform="matrix(1.0, 0.0, 0.0, 1.0, 0.0, 0.0)" width="27.3" xlink:href="#sprite4"/>
      </g>
    </g>
    <g id="sprite4" transform="matrix(1.0, 0.0, 0.0, 1.0, 0.0, 0.0)">
      <use height="13.4" transform="matrix(1.0, 0.0, 0.0, 1.0, 0.0, 0.0)" width="27.3" xlink:href="#shape5"/>
    </g>
    <g id="shape5" transform="matrix(1.0, 0.0, 0.0, 1.0, 0.0, 0.0)">
      <path d="M22.95 7.35 Q21.45 6.45 20.6 6.1 L20.75 2.6 23.05 3.85 Q27.4 6.55 27.3 10.0 L27.15 13.4 Q27.25 10.1 22.95 7.35" fill="#3d2815" fill-rule="evenodd" stroke="none"/>
      <path d="M20.75 2.6 L20.6 6.1 Q19.75 5.65 18.7 5.35 L18.8 1.85 20.75 2.6" fill="#3f2916" fill-rule="evenodd" stroke="none"/>
      <path d="M18.8 1.85 L18.7 5.35 17.0 4.8 17.1 1.3 18.8 1.85" fill="#422b16" fill-rule="evenodd" stroke="none"/>
      <path d="M17.1 1.3 L17.0 4.8 15.4 4.4 15.55 0.9 17.1 1.3" fill="#442c17" fill-rule="evenodd" stroke="none"/>
      <path d="M15.55 0.9 L15.4 4.4 13.85 4.1 14.0 0.6 15.55 0.9" fill="#462e18" fill-rule="evenodd" stroke="none"/>
      <path d="M14.0 0.6 L13.85 4.1 12.3 3.85 12.45 0.35 14.0 0.6" fill="#492f19" fill-rule="evenodd" stroke="none"/>
      <path d="M12.45 0.35 L12.3 3.85 10.75 3.65 10.85 0.15 12.45 0.35" fill="#4b311a" fill-rule="evenodd" stroke="none"/>
      <path d="M10.85 0.15 L10.75 3.65 9.1 3.55 9.2 0.05 10.85 0.15" fill="#4d321a" fill-rule="evenodd" stroke="none"/>
      <path d="M9.2 0.05 L9.1 3.55 7.35 3.5 7.45 0.0 9.2 0.05" fill="#50341b" fill-rule="evenodd" stroke="none"/>
      <path d="M7.45 0.0 L7.35 3.5 5.35 3.55 5.5 0.05 7.45 0.0" fill="#52351c" fill-rule="evenodd" stroke="none"/>
      <path d="M5.5 0.05 L5.35 3.55 2.95 3.75 3.1 0.25 5.5 0.05" fill="#54371d" fill-rule="evenodd" stroke="none"/>
      <path d="M3.1 0.25 L2.95 3.75 0.0 4.2 0.1 0.7 3.1 0.25" fill="#57381e" fill-rule="evenodd" stroke="none"/>
    </g>
    <g id="sprite5" transform="matrix(1.0, 0.0, 0.0, 1.0, 0.0, 0.0)">
      <clipPath id="clipPath2" transform="matrix(1.0, 0.0, 0.0, 1.0, 0.0, 0.0)">
        <path d="M9.6 6.85 Q5.85 4.45 0.0 3.5 L0.1 0.0 Q5.85 0.95 9.7 3.35 14.1 6.1 13.95 9.5 L13.85 12.9 Q13.9 9.55 9.6 6.85" fill="#ff0000" fill-rule="evenodd" stroke="none"/>
      </clipPath>
      <g clip-path="url(#clipPath2)">
        <use height="12.9" transform="matrix(1.0, 0.0, 0.0, 1.0, 0.0, 0.0)" width="13.95" xlink:href="#sprite6"/>
      </g>
    </g>
    <g id="sprite6" transform="matrix(1.0, 0.0, 0.0, 1.0, 0.0, 0.0)">
      <use height="12.9" transform="matrix(1.0, 0.0, 0.0, 1.0, 0.0, 0.0)" width="13.95" xlink:href="#shape7"/>
    </g>
    <g id="shape7" transform="matrix(1.0, 0.0, 0.0, 1.0, 0.0, 0.0)">
      <path d="M9.6 6.85 Q8.1 5.95 7.25 5.6 L7.35 2.1 Q8.85 2.8 9.7 3.35 14.1 6.1 13.95 9.5 L13.85 12.9 Q13.9 9.55 9.6 6.85" fill="#3d2815" fill-rule="evenodd" stroke="none"/>
      <path d="M7.35 2.1 L7.25 5.6 Q6.4 5.15 5.35 4.85 L5.45 1.35 7.35 2.1" fill="#3f2916" fill-rule="evenodd" stroke="none"/>
      <path d="M5.45 1.35 L5.35 4.85 3.65 4.3 3.75 0.8 5.45 1.35" fill="#422b16" fill-rule="evenodd" stroke="none"/>
      <path d="M3.75 0.8 L3.65 4.3 2.05 3.9 2.2 0.4 3.75 0.8" fill="#442c17" fill-rule="evenodd" stroke="none"/>
      <path d="M2.2 0.4 L2.05 3.9 0.5 3.6 0.6 0.1 2.2 0.4" fill="#462e18" fill-rule="evenodd" stroke="none"/>
      <path d="M0.6 0.1 L0.5 3.6 0.0 3.5 0.1 0.0 0.6 0.1" fill="#492f19" fill-rule="evenodd" stroke="none"/>
    </g>
    <g id="sprite7" transform="matrix(1.0, 0.0, 0.0, 1.0, 0.0, 0.0)">
      <clipPath id="clipPath3" transform="matrix(1.0, 0.0, 0.0, 1.0, 0.0, 0.0)">
        <path d="M0.0 3.45 L0.15 0.0 Q2.85 2.3 2.75 4.9 L2.6 8.3 Q2.65 5.8 0.0 3.45" fill="#ff0000" fill-rule="evenodd" stroke="none"/>
      </clipPath>
      <g clip-path="url(#clipPath3)">
        <use height="8.3" transform="matrix(1.0, 0.0, 0.0, 1.0, 0.0, 0.0)" width="2.75" xlink:href="#sprite8"/>
      </g>
    </g>
    <g id="sprite8" transform="matrix(1.0, 0.0, 0.0, 1.0, 0.0, 0.0)">
      <use height="8.3" transform="matrix(1.0, 0.0, 0.0, 1.0, 0.0, 0.0)" width="2.75" xlink:href="#shape9"/>
    </g>
    <g id="shape9" transform="matrix(1.0, 0.0, 0.0, 1.0, 0.0, 0.0)">
      <path d="M0.0 3.45 L0.15 0.0 Q2.85 2.3 2.75 4.9 L2.6 8.3 Q2.65 5.8 0.0 3.45" fill="#3d2815" fill-rule="evenodd" stroke="none"/>
    </g>
    <g id="sprite9" transform="matrix(1.0, 0.0, 0.0, 1.0, 0.0, 0.0)">
      <clipPath id="clipPath4" transform="matrix(1.0, 0.0, 0.0, 1.0, 0.0, 0.0)">
        <path d="M1.0 6.4 Q1.0 4.9 0.0 3.5 L0.15 0.0 Q1.15 1.5 1.15 3.2 L1.0 6.4" fill="#ff0000" fill-rule="evenodd" stroke="none"/>
      </clipPath>
      <g clip-path="url(#clipPath4)">
        <use height="6.45" transform="matrix(1.0, 0.0, 0.0, 1.0, 0.0, 0.0)" width="1.15" xlink:href="#sprite10"/>
      </g>
    </g>
    <g id="sprite10" transform="matrix(1.0, 0.0, 0.0, 1.0, 0.0, 0.0)">
      <use height="6.45" transform="matrix(1.0, 0.0, 0.0, 1.0, 0.0, 0.0)" width="1.15" xlink:href="#shape11"/>
    </g>
    <g id="shape11" transform="matrix(1.0, 0.0, 0.0, 1.0, 0.0, 0.0)">
      <path d="M1.0 6.45 Q1.05 4.95 0.0 3.5 L0.15 0.0 Q1.15 1.5 1.15 3.2 L1.0 6.45" fill="#3d2815" fill-rule="evenodd" stroke="none"/>
    </g>
    <g id="shape12" transform="matrix(1.0, 0.0, 0.0, 1.0, -0.1, 0.0)">
      <path d="M210.95 65.2 L97.75 107.35 97.85 103.85 211.05 61.7 210.95 65.2" fill="#5e3d20" fill-rule="evenodd" stroke="none"/>
      <path d="M85.5 64.15 Q81.65 61.75 75.9 60.8 76.95 58.75 76.0 56.65 75.05 54.45 72.2 52.65 68.0 50.0 61.5 49.15 L49.25 49.5 Q48.2 48.35 46.85 47.55 41.9 44.4 34.05 43.8 26.25 43.2 20.15 45.45 14.9 47.45 13.55 50.65 L0.1 42.15 113.3 0.0 211.05 61.7 97.85 103.85 80.65 93.0 Q81.7 90.45 80.05 88.1 83.8 85.95 84.3 83.05 84.75 80.15 81.75 77.55 L82.75 77.2 Q88.85 74.9 89.65 71.1 90.45 67.3 85.5 64.15" fill="#613f21" fill-rule="evenodd" stroke="none"/>
      <path d="M80.65 93.0 L97.85 103.85 97.75 107.35 80.55 96.45 80.65 93.0" fill="#3f2915" fill-rule="evenodd" stroke="none"/>
    </g>
    <g id="sprite11" transform="matrix(1.0, 0.0, 0.0, 1.0, 0.0, 0.0)">
      <use height="15.7" transform="matrix(1.0, 0.0, 0.0, 1.0, 13.45, 43.65)" width="36.0" xlink:href="#sprite12"/>
      <use height="17.2" transform="matrix(1.0, 0.0, 0.0, 1.0, 0.0, 42.15)" width="13.75" xlink:href="#shape15"/>
      <use height="18.6" transform="matrix(1.0, 0.0, 0.0, 1.0, 49.15, 48.8)" width="27.5" xlink:href="#sprite14"/>
      <use height="18.1" transform="matrix(1.0, 0.0, 0.0, 1.0, 75.8, 60.8)" width="14.15" xlink:href="#sprite16"/>
      <use height="13.45" transform="matrix(1.0, 0.0, 0.0, 1.0, 81.65, 77.55)" width="2.85" xlink:href="#sprite18"/>
      <use height="11.65" transform="matrix(1.0, 0.0, 0.0, 1.0, 79.9, 88.1)" width="1.35" xlink:href="#sprite20"/>
      <use height="112.55" transform="matrix(1.0, 0.0, 0.0, 1.0, 0.3, 0.0)" width="210.95" xlink:href="#shape24"/>
    </g>
    <g id="sprite12" transform="matrix(1.0, 0.0, 0.0, 1.0, 0.0, 0.05)">
      <clipPath id="clipPath5" transform="matrix(1.0, 0.0, 0.0, 1.0, 0.0, 0.0)">
        <path d="M35.7 14.5 L33.3 12.55 Q28.35 9.4 20.5 8.8 12.7 8.2 6.55 10.45 1.35 12.45 0.0 15.65 L0.3 6.95 Q1.65 3.75 6.85 1.75 13.0 -0.5 20.8 0.1 28.65 0.7 33.6 3.85 34.95 4.65 36.0 5.8 L35.7 14.5" fill="#ff0000" fill-rule="evenodd" stroke="none"/>
      </clipPath>
      <g clip-path="url(#clipPath5)">
        <use height="15.45" transform="matrix(1.0, 0.0, 0.0, 1.0, 0.05, 0.0)" width="35.95" xlink:href="#sprite13"/>
      </g>
    </g>
    <g id="sprite13" transform="matrix(1.0, 0.0, 0.0, 1.0, -0.05, 0.0)">
      <use height="15.45" transform="matrix(1.0, 0.0, 0.0, 1.0, 0.05, 0.0)" width="35.95" xlink:href="#shape14"/>
    </g>
    <g id="shape14" transform="matrix(1.0, 0.0, 0.0, 1.0, -0.05, 0.0)">
      <path d="M36.0 5.8 L35.7 14.5 33.3 12.55 Q31.8 11.65 30.95 11.3 L31.25 2.6 Q32.1 2.95 33.6 3.85 34.95 4.65 36.0 5.8" fill="#7d2f15" fill-rule="evenodd" stroke="none"/>
      <path d="M31.25 2.6 L30.95 11.3 Q30.05 10.85 29.0 10.55 L29.3 1.8 Q30.55 2.25 31.25 2.6" fill="#823116" fill-rule="evenodd" stroke="none"/>
      <path d="M29.3 1.8 L29.0 10.55 27.3 10.0 27.65 1.3 29.3 1.8" fill="#863216" fill-rule="evenodd" stroke="none"/>
      <path d="M27.65 1.3 L27.3 10.0 25.75 9.6 26.05 0.9 27.65 1.3" fill="#8b3417" fill-rule="evenodd" stroke="none"/>
      <path d="M26.05 0.9 L25.75 9.6 24.2 9.3 24.5 0.55 26.05 0.9" fill="#903618" fill-rule="evenodd" stroke="none"/>
      <path d="M24.5 0.55 L24.2 9.3 22.65 9.05 22.95 0.3 24.5 0.55" fill="#953819" fill-rule="evenodd" stroke="none"/>
      <path d="M22.95 0.3 L22.65 9.05 21.05 8.85 21.35 0.15 22.95 0.3" fill="#9a3a1a" fill-rule="evenodd" stroke="none"/>
      <path d="M21.35 0.15 L21.05 8.85 19.4 8.75 19.7 0.05 21.35 0.15" fill="#9e3b1a" fill-rule="evenodd" stroke="none"/>
      <path d="M19.7 0.05 L19.4 8.75 17.65 8.7 17.95 0.0 19.7 0.05" fill="#a33d1b" fill-rule="evenodd" stroke="none"/>
      <path d="M17.95 0.0 L17.65 8.7 15.7 8.75 16.0 0.0 17.95 0.0" fill="#a83f1c" fill-rule="evenodd" stroke="none"/>
      <path d="M16.0 0.0 L15.7 8.75 13.3 8.9 13.6 0.2 16.0 0.0" fill="#ad411d" fill-rule="evenodd" stroke="none"/>
      <path d="M13.6 0.2 L13.3 8.9 Q9.5 9.4 6.55 10.45 L4.3 11.5 4.6 2.8 Q5.45 2.25 6.85 1.75 9.85 0.7 13.6 0.2" fill="#b2431e" fill-rule="evenodd" stroke="none"/>
      <path d="M4.6 2.8 L4.3 11.5 2.8 12.4 3.1 3.7 4.6 2.8" fill="#ad411d" fill-rule="evenodd" stroke="none"/>
      <path d="M3.1 3.7 L2.8 12.4 1.8 13.2 2.1 4.5 3.1 3.7" fill="#a83f1c" fill-rule="evenodd" stroke="none"/>
      <path d="M2.1 4.5 L1.8 13.2 1.05 13.95 1.35 5.25 2.1 4.5" fill="#a33d1b" fill-rule="evenodd" stroke="none"/>
      <path d="M1.35 5.25 L1.05 13.95 0.5 14.7 0.8 6.0 1.35 5.25" fill="#9e3b1a" fill-rule="evenodd" stroke="none"/>
      <path d="M0.8 6.0 L0.5 14.7 0.05 15.45 0.35 6.75 0.8 6.0" fill="#9a3a1a" fill-rule="evenodd" stroke="none"/>
    </g>
    <g id="shape15" transform="matrix(1.0, 0.0, 0.0, 1.0, 0.0, -42.15)">
      <path d="M0.0 50.85 L0.3 42.15 13.75 50.65 13.45 59.35 0.0 50.85" fill="#803015" fill-rule="evenodd" stroke="none"/>
    </g>
    <g id="sprite14" transform="matrix(1.0, 0.0, 0.0, 1.0, 0.0, 0.0)">
      <clipPath id="clipPath6" transform="matrix(1.0, 0.0, 0.0, 1.0, 0.0, 0.0)">
        <path d="M27.2 18.6 Q27.25 15.2 22.95 12.55 18.75 9.9 12.25 9.05 L0.0 9.4 0.3 0.7 12.55 0.35 Q19.05 1.2 23.25 3.85 27.6 6.55 27.5 10.0 L27.2 18.6" fill="#ff0000" fill-rule="evenodd" stroke="none"/>
      </clipPath>
      <g clip-path="url(#clipPath6)">
        <use height="18.6" transform="matrix(1.0, 0.0, 0.0, 1.0, 0.0, 0.0)" width="27.5" xlink:href="#sprite15"/>
      </g>
    </g>
    <g id="sprite15" transform="matrix(1.0, 0.0, 0.0, 1.0, 0.0, 0.0)">
      <use height="18.6" transform="matrix(1.0, 0.0, 0.0, 1.0, 0.0, 0.0)" width="27.5" xlink:href="#shape17"/>
    </g>
    <g id="shape17" transform="matrix(1.0, 0.0, 0.0, 1.0, 0.0, 0.0)">
      <path d="M27.2 18.6 Q27.25 15.2 22.95 12.55 L20.6 11.3 20.95 2.6 23.25 3.85 Q27.6 6.55 27.5 10.0 L27.2 18.6" fill="#7d2f15" fill-rule="evenodd" stroke="none"/>
      <path d="M20.95 2.6 L20.6 11.3 18.7 10.55 19.0 1.85 20.95 2.6" fill="#823116" fill-rule="evenodd" stroke="none"/>
      <path d="M19.0 1.85 L18.7 10.55 17.0 10.0 17.3 1.3 19.0 1.85" fill="#863216" fill-rule="evenodd" stroke="none"/>
      <path d="M17.3 1.3 L17.0 10.0 15.4 9.6 15.75 0.9 17.3 1.3" fill="#8b3417" fill-rule="evenodd" stroke="none"/>
      <path d="M15.75 0.9 L15.4 9.6 13.9 9.3 14.2 0.6 15.75 0.9" fill="#903618" fill-rule="evenodd" stroke="none"/>
      <path d="M14.2 0.6 L13.9 9.3 12.35 9.05 12.65 0.35 14.2 0.6" fill="#953819" fill-rule="evenodd" stroke="none"/>
      <path d="M12.65 0.35 L12.35 9.05 10.75 8.85 11.05 0.15 12.65 0.35" fill="#9a3a1a" fill-rule="evenodd" stroke="none"/>
      <path d="M11.05 0.15 L10.75 8.85 9.1 8.75 9.4 0.05 11.05 0.15" fill="#9e3b1a" fill-rule="evenodd" stroke="none"/>
      <path d="M9.4 0.05 L9.1 8.75 7.35 8.7 7.65 0.0 9.4 0.05" fill="#a33d1b" fill-rule="evenodd" stroke="none"/>
      <path d="M7.65 0.0 L7.35 8.7 5.35 8.75 5.7 0.05 7.65 0.0" fill="#a83f1c" fill-rule="evenodd" stroke="none"/>
      <path d="M5.7 0.05 L5.35 8.75 2.95 8.95 3.3 0.25 5.7 0.05" fill="#ad411d" fill-rule="evenodd" stroke="none"/>
      <path d="M3.3 0.25 L2.95 8.95 0.0 9.4 0.3 0.7 3.3 0.25" fill="#b2431e" fill-rule="evenodd" stroke="none"/>
    </g>
    <g id="sprite16" transform="matrix(1.0, 0.0, 0.0, 1.0, 0.0, 0.0)">
      <clipPath id="clipPath7" transform="matrix(1.0, 0.0, 0.0, 1.0, 0.0, 0.0)">
        <path d="M13.85 18.1 Q13.9 14.7 9.6 12.05 5.65 9.65 0.0 8.7 L0.3 0.0 Q6.05 0.95 9.9 3.35 14.3 6.1 14.15 9.5 L13.85 18.1" fill="#ff0000" fill-rule="evenodd" stroke="none"/>
      </clipPath>
      <g clip-path="url(#clipPath7)">
        <use height="18.1" transform="matrix(1.0, 0.0, 0.0, 1.0, 0.0, 0.0)" width="14.15" xlink:href="#sprite17"/>
      </g>
    </g>
    <g id="sprite17" transform="matrix(1.0, 0.0, 0.0, 1.0, 0.0, 0.0)">
      <use height="18.1" transform="matrix(1.0, 0.0, 0.0, 1.0, 0.0, 0.0)" width="14.15" xlink:href="#shape19"/>
    </g>
    <g id="shape19" transform="matrix(1.0, 0.0, 0.0, 1.0, 0.0, 0.0)">
      <path d="M13.85 18.1 Q13.9 14.7 9.6 12.05 L7.25 10.8 7.55 2.1 9.9 3.35 Q14.3 6.1 14.15 9.5 L13.85 18.1" fill="#7d2f15" fill-rule="evenodd" stroke="none"/>
      <path d="M7.55 2.1 L7.25 10.8 5.35 10.05 5.65 1.35 7.55 2.1" fill="#823116" fill-rule="evenodd" stroke="none"/>
      <path d="M5.65 1.35 L5.35 10.05 3.65 9.5 3.95 0.8 5.65 1.35" fill="#863216" fill-rule="evenodd" stroke="none"/>
      <path d="M3.95 0.8 L3.65 9.5 2.05 9.1 2.35 0.4 3.95 0.8" fill="#8b3417" fill-rule="evenodd" stroke="none"/>
      <path d="M2.35 0.4 L2.05 9.1 0.5 8.8 0.8 0.1 2.35 0.4" fill="#903618" fill-rule="evenodd" stroke="none"/>
      <path d="M0.8 0.1 L0.5 8.8 0.0 8.7 0.3 0.0 0.8 0.1" fill="#953819" fill-rule="evenodd" stroke="none"/>
    </g>
    <g id="sprite18" transform="matrix(1.0, 0.0, 0.0, 1.0, 0.0, 0.0)">
      <clipPath id="clipPath8" transform="matrix(1.0, 0.0, 0.0, 1.0, 0.0, 0.0)">
        <path d="M2.55 13.45 Q2.55 11.0 0.0 8.7 L0.3 0.0 Q3.0 2.35 2.85 4.9 L2.55 13.45" fill="#ff0000" fill-rule="evenodd" stroke="none"/>
      </clipPath>
      <g clip-path="url(#clipPath8)">
        <use height="13.45" transform="matrix(1.0, 0.0, 0.0, 1.0, 0.0, 0.0)" width="2.85" xlink:href="#sprite19"/>
      </g>
    </g>
    <g id="sprite19" transform="matrix(1.0, 0.0, 0.0, 1.0, 0.0, 0.0)">
      <use height="13.45" transform="matrix(1.0, 0.0, 0.0, 1.0, 0.0, 0.0)" width="2.85" xlink:href="#shape21"/>
    </g>
    <g id="shape21" transform="matrix(1.0, 0.0, 0.0, 1.0, 0.0, 0.0)">
      <path d="M2.55 13.45 Q2.55 11.0 0.0 8.7 L0.3 0.0 Q3.0 2.35 2.85 4.9 L2.55 13.45" fill="#7d2f15" fill-rule="evenodd" stroke="none"/>
    </g>
    <g id="sprite20" transform="matrix(1.0, 0.0, 0.0, 1.0, 0.0, 0.0)">
      <clipPath id="clipPath9" transform="matrix(1.0, 0.0, 0.0, 1.0, 0.0, 0.0)">
        <path d="M1.0 11.65 Q1.0 10.1 0.0 8.7 L0.35 0.0 Q1.35 1.5 1.35 3.15 L1.0 11.65" fill="#ff0000" fill-rule="evenodd" stroke="none"/>
      </clipPath>
      <g clip-path="url(#clipPath9)">
        <use height="11.65" transform="matrix(1.0, 0.0, 0.0, 1.0, 0.0, 0.0)" width="1.35" xlink:href="#sprite21"/>
      </g>
    </g>
    <g id="sprite21" transform="matrix(1.0, 0.0, 0.0, 1.0, 0.0, 0.0)">
      <use height="11.65" transform="matrix(1.0, 0.0, 0.0, 1.0, 0.0, 0.0)" width="1.35" xlink:href="#shape23"/>
    </g>
    <g id="shape23" transform="matrix(1.0, 0.0, 0.0, 1.0, 0.0, 0.0)">
      <path d="M1.0 11.65 Q1.0 10.1 0.0 8.7 L0.35 0.0 Q1.35 1.5 1.35 3.15 L1.0 11.65" fill="#7d2f15" fill-rule="evenodd" stroke="none"/>
    </g>
    <g id="shape24" transform="matrix(1.0, 0.0, 0.0, 1.0, -0.3, 0.0)">
      <path d="M210.95 70.4 L97.75 112.55 98.05 103.85 211.25 61.7 210.95 70.4" fill="#c04820" fill-rule="evenodd" stroke="none"/>
      <path d="M85.7 64.15 Q81.85 61.75 76.1 60.8 77.15 58.75 76.2 56.65 75.25 54.45 72.4 52.65 68.2 50.0 61.7 49.15 L49.45 49.5 47.05 47.55 Q42.1 44.4 34.25 43.8 26.45 43.2 20.3 45.45 15.1 47.45 13.75 50.65 L0.3 42.15 113.5 0.0 211.25 61.7 98.05 103.85 80.85 93.0 Q81.85 90.55 80.25 88.1 84.0 85.95 84.5 83.05 84.95 80.15 81.95 77.55 L82.95 77.2 Q89.05 74.9 89.85 71.1 90.65 67.25 85.7 64.15" fill="#c84b21" fill-rule="evenodd" stroke="none"/>
      <path d="M97.75 112.55 L80.55 101.7 80.85 93.0 98.05 103.85 97.75 112.55" fill="#803015" fill-rule="evenodd" stroke="none"/>
    </g>
  </defs>
</svg>
