<?xml version="1.0" encoding="UTF-8" standalone="no"?>
<svg xmlns:xlink="http://www.w3.org/1999/xlink" height="300.0px" width="300.0px" xmlns="http://www.w3.org/2000/svg">
  <g transform="matrix(1.0, 0.0, 0.0, 1.0, 0.0, 0.0)">
    <use height="147.5" transform="matrix(1.0, 0.0, 0.0, 1.0, -3.95, 139.7)" width="308.05" xlink:href="#shape0"/>
  </g>
  <defs>
    <g id="shape0" transform="matrix(1.0, 0.0, 0.0, 1.0, 3.95, -139.7)">
      <path d="M242.15 140.55 L245.25 141.1 250.4 141.55 250.7 148.25 250.95 154.9 250.9 156.45 250.8 160.35 245.0 161.1 243.0 161.05 240.95 161.05 238.55 161.1 Q237.45 160.0 237.3 157.2 237.1 154.0 236.65 153.05 235.65 151.15 232.35 151.15 L230.35 151.35 Q226.45 154.45 226.45 160.9 226.45 173.5 232.4 173.5 L232.8 173.5 234.4 173.4 Q236.4 172.0 237.3 169.15 237.75 167.55 238.1 164.0 L243.35 163.45 243.9 163.5 249.95 163.6 Q250.7 165.3 250.7 167.3 250.7 175.15 244.05 180.0 238.05 184.4 230.0 184.4 220.65 184.4 214.5 177.8 208.45 171.3 208.45 162.0 208.45 153.5 214.05 146.95 219.9 140.15 228.35 140.15 232.9 140.15 236.5 143.15 L238.85 140.15 242.15 140.55 M184.35 147.35 Q194.6 147.35 200.4 151.7 206.95 156.55 206.95 166.5 206.95 175.9 199.9 180.5 194.0 184.4 184.05 184.4 L177.4 184.2 170.75 184.0 166.5 184.15 Q165.9 181.65 165.9 178.9 L166.15 174.95 168.35 174.6 Q169.75 174.4 169.8 173.55 L169.35 157.65 168.45 157.8 Q165.65 157.8 165.65 154.85 165.65 153.9 165.95 152.05 L166.3 149.3 166.15 148.05 167.6 148.1 175.95 147.8 184.35 147.35 M191.05 166.25 L190.75 162.15 Q190.35 159.25 189.85 158.35 189.2 157.2 187.05 157.25 L185.25 157.3 Q184.7 161.1 184.7 165.75 184.7 170.55 185.25 173.9 L187.65 174.25 Q189.35 174.25 189.85 173.5 190.35 172.8 190.75 170.0 L191.05 166.25 M274.1 167.9 L273.85 161.9 Q273.2 157.9 270.8 157.9 269.05 157.9 268.6 159.2 268.3 159.95 267.95 163.35 L267.7 167.85 Q267.7 170.5 268.35 172.5 269.25 175.55 271.25 175.55 273.25 175.55 273.85 172.55 L274.1 167.9 M258.1 154.05 Q262.95 149.25 271.2 149.25 279.0 149.25 283.9 154.05 288.8 158.9 288.8 166.7 288.8 174.55 283.75 179.45 278.65 184.3 270.65 184.3 262.9 184.3 258.05 179.55 253.2 174.85 253.2 167.15 253.2 158.9 258.1 154.05 M297.1 171.15 Q300.0 171.15 302.05 173.1 304.1 175.05 304.1 177.75 304.1 180.5 302.05 182.4 300.3 184.0 298.05 184.3 L298.05 287.2 296.15 287.2 296.15 184.3 Q293.8 184.05 292.15 182.4 290.1 180.5 290.1 177.75 290.1 175.0 292.15 173.1 294.15 171.15 297.1 171.15 M71.25 147.35 Q72.15 148.7 72.25 151.55 L72.3 156.35 Q71.9 156.9 71.05 156.95 L69.6 156.9 Q69.25 156.9 68.65 157.2 68.0 157.5 68.0 157.8 L68.35 173.95 Q69.7 174.75 71.8 174.75 73.9 174.75 75.2 173.95 L75.15 171.8 75.0 169.75 Q75.0 167.8 76.65 167.15 L78.45 167.35 81.3 167.1 84.05 166.85 Q87.2 166.85 87.2 169.3 L87.05 183.3 86.35 184.4 49.7 184.4 Q49.25 182.95 49.25 180.75 49.25 178.55 49.7 175.05 L51.6 175.05 Q53.45 175.05 53.45 169.8 L53.4 167.5 53.35 165.8 Q53.35 160.45 52.9 157.45 L49.7 156.7 49.3 148.05 60.3 147.45 71.25 147.35 M38.4 141.45 Q45.25 144.2 45.25 152.0 45.25 154.45 43.4 156.9 L39.85 161.0 44.4 165.05 Q46.85 167.65 46.85 170.4 46.85 175.5 43.0 179.85 38.9 184.4 33.8 184.4 L-3.05 184.4 Q-3.9 182.55 -3.9 179.4 L-3.9 177.85 -3.85 176.2 -3.95 173.95 Q-3.4 173.05 -1.15 172.85 0.8 172.7 0.8 171.85 L0.8 152.25 Q0.8 151.05 -1.45 151.05 -2.85 151.05 -3.5 150.55 L-3.5 140.1 9.55 139.9 22.6 139.7 24.9 139.7 Q34.1 139.7 38.4 141.45 M22.1 158.15 Q23.75 158.15 25.1 157.3 26.45 156.45 26.45 154.95 26.45 153.0 24.2 152.05 22.6 151.45 20.35 151.45 19.05 152.3 19.05 155.2 L19.05 156.3 19.0 157.35 Q19.0 158.45 19.9 158.45 L20.9 158.3 22.1 158.15 M26.4 169.45 Q26.4 165.2 22.9 165.2 22.5 165.2 21.4 165.7 L19.95 166.2 Q19.05 167.3 19.05 169.0 L19.45 172.25 21.15 172.35 22.85 172.45 Q24.3 172.45 25.35 171.65 26.4 170.85 26.4 169.45 M110.35 167.05 Q110.35 162.45 110.05 160.75 109.35 156.55 106.85 156.55 105.0 156.55 104.5 157.9 104.25 158.7 103.85 162.3 L103.6 167.0 Q103.6 169.8 104.3 171.9 105.2 175.1 107.3 175.1 109.45 175.1 110.05 171.95 110.35 170.6 110.35 167.05 M93.5 152.5 Q98.6 147.45 107.25 147.45 115.45 147.45 120.6 152.5 125.8 157.6 125.8 165.8 125.8 174.05 120.45 179.2 115.1 184.3 106.7 184.3 98.55 184.3 93.45 179.3 88.35 174.35 88.35 166.25 88.35 157.6 93.5 152.5 M149.0 167.05 Q149.0 162.45 148.7 160.75 148.0 156.55 145.5 156.55 143.65 156.55 143.15 157.9 L142.5 162.3 142.25 167.0 Q142.25 169.8 142.95 171.9 143.85 175.1 145.95 175.1 148.1 175.1 148.7 171.95 149.0 170.6 149.0 167.05 M132.15 152.5 Q137.25 147.45 145.9 147.45 154.1 147.45 159.25 152.5 164.45 157.6 164.45 165.8 164.45 174.05 159.1 179.2 153.75 184.3 145.35 184.3 137.2 184.3 132.1 179.3 127.0 174.35 127.0 166.25 127.0 157.6 132.15 152.5" fill="#ff0000" fill-rule="evenodd" stroke="none"/>
    </g>
  </defs>
</svg>
