<?xml version="1.0" encoding="UTF-8" standalone="no"?>
<svg xmlns:xlink="http://www.w3.org/1999/xlink" height="300.0px" width="300.0px" xmlns="http://www.w3.org/2000/svg">
  <g transform="matrix(1.0, 0.0, 0.0, 1.0, 0.0, 0.0)">
    <use height="175.25" transform="matrix(1.0, 0.0, 0.0, 1.0, -8.05, 80.4)" width="315.45" xlink:href="#shape0"/>
  </g>
  <defs>
    <g id="shape0" transform="matrix(1.0, 0.0, 0.0, 1.0, 8.05, -80.4)">
      <path d="M-3.75 161.35 L-7.4 161.35 -7.4 159.9 1.5 159.9 1.5 161.35 -2.15 161.35 -2.15 175.85 -3.75 175.85 -3.75 161.35" fill="#75602a" fill-rule="evenodd" stroke="none"/>
      <path d="M13.15 159.9 L14.7 159.9 14.7 175.85 13.15 175.85 13.15 168.35 4.85 168.35 4.85 175.85 3.3 175.85 3.3 159.9 4.85 159.9 4.85 166.9 13.15 166.9 13.15 159.9" fill="#75602a" fill-rule="evenodd" stroke="none"/>
      <path d="M26.55 175.85 L17.85 175.85 17.85 159.9 26.55 159.9 26.55 161.35 19.45 161.35 19.45 167.05 26.35 167.05 26.35 168.5 19.45 168.5 19.45 174.4 26.55 174.4 26.55 175.85" fill="#75602a" fill-rule="evenodd" stroke="none"/>
      <path d="M40.1 166.85 Q42.6 167.45 43.55 169.35 44.0 170.25 44.0 171.45 44.0 173.3 42.65 174.7 41.3 176.1 39.2 176.1 37.4 176.1 36.0 175.05 34.35 173.8 34.3 171.35 L35.9 171.35 Q35.95 172.85 36.85 173.8 37.75 174.65 39.2 174.65 40.5 174.65 41.45 173.8 42.4 172.85 42.4 171.5 42.4 169.9 41.05 169.0 40.45 168.6 38.85 168.1 37.0 167.55 36.25 167.0 34.75 165.95 34.75 163.9 34.75 162.05 36.05 160.8 37.3 159.6 39.2 159.6 41.15 159.6 42.35 160.9 43.6 162.15 43.6 163.95 L42.0 163.95 Q42.0 162.75 41.15 161.9 40.35 161.05 39.2 161.05 37.9 161.05 37.1 161.9 36.3 162.75 36.3 163.85 36.3 165.15 37.4 165.85 38.1 166.25 40.1 166.85" fill="#75602a" fill-rule="evenodd" stroke="none"/>
      <path d="M47.75 159.9 L47.75 169.8 Q47.75 171.7 48.3 172.7 49.35 174.65 51.6 174.65 53.8 174.65 54.85 172.7 55.4 171.7 55.4 169.8 L55.4 159.9 57.0 159.9 57.0 169.8 Q57.0 171.85 56.4 173.15 55.65 174.75 54.15 175.5 52.95 176.1 51.6 176.1 50.2 176.1 49.05 175.5 47.5 174.75 46.75 173.15 46.15 171.85 46.15 169.8 L46.15 159.9 47.75 159.9" fill="#75602a" fill-rule="evenodd" stroke="none"/>
      <path d="M60.25 159.9 L61.85 159.9 61.85 175.85 60.25 175.85 60.25 159.9" fill="#75602a" fill-rule="evenodd" stroke="none"/>
      <path d="M67.25 161.35 L63.6 161.35 63.6 159.9 72.5 159.9 72.5 161.35 68.85 161.35 68.85 175.85 67.25 175.85 67.25 161.35" fill="#75602a" fill-rule="evenodd" stroke="none"/>
      <path d="M86.8 161.3 Q88.55 162.5 89.2 163.95 L87.4 163.95 Q86.3 162.3 84.35 161.55 83.1 161.05 81.85 161.05 79.1 161.05 77.1 163.15 75.15 165.2 75.15 167.9 75.15 170.65 77.25 172.7 79.25 174.65 81.9 174.65 85.2 174.65 87.45 171.65 L89.25 171.65 Q88.05 173.85 85.95 175.05 84.0 176.1 81.95 176.1 78.55 176.1 76.1 173.75 73.55 171.35 73.55 167.85 73.55 164.35 76.05 162.0 78.45 159.65 81.9 159.65 84.6 159.65 86.8 161.3" fill="#75602a" fill-rule="evenodd" stroke="none"/>
      <path d="M99.0 159.9 L105.85 175.85 104.1 175.85 101.8 170.45 94.4 170.45 92.05 175.85 90.45 175.85 97.2 159.9 99.0 159.9 M101.15 169.05 L98.1 161.7 95.0 169.05 101.15 169.05" fill="#75602a" fill-rule="evenodd" stroke="none"/>
      <path d="M112.35 166.85 Q114.8 167.45 115.8 169.35 116.25 170.25 116.25 171.45 116.25 173.3 114.9 174.7 113.5 176.1 111.45 176.1 109.6 176.1 108.25 175.05 106.55 173.8 106.55 171.35 L108.15 171.35 Q108.2 172.85 109.1 173.8 109.95 174.65 111.45 174.65 112.75 174.65 113.7 173.8 114.65 172.85 114.65 171.5 114.65 169.9 113.25 169.0 112.7 168.6 111.1 168.1 109.25 167.55 108.5 167.0 106.95 165.95 106.95 163.9 106.95 162.05 108.25 160.8 109.55 159.6 111.45 159.6 113.35 159.6 114.6 160.9 115.85 162.15 115.85 163.95 L114.25 163.95 Q114.25 162.75 113.4 161.9 112.6 161.05 111.45 161.05 110.15 161.05 109.35 161.9 108.55 162.75 108.55 163.85 108.55 165.15 109.65 165.85 L112.35 166.85" fill="#75602a" fill-rule="evenodd" stroke="none"/>
      <path d="M127.0 161.35 L119.9 161.35 119.9 167.05 126.75 167.05 126.75 168.5 119.9 168.5 119.9 174.4 127.0 174.4 127.0 175.85 118.3 175.85 118.3 159.9 127.0 159.9 127.0 161.35" fill="#75602a" fill-rule="evenodd" stroke="none"/>
      <path d="M140.55 166.85 Q143.05 167.45 143.95 169.35 144.45 170.3 144.45 171.45 144.45 173.3 143.1 174.7 141.75 176.1 139.65 176.1 137.8 176.1 136.45 175.05 134.8 173.8 134.75 171.35 L136.35 171.35 Q136.4 172.85 137.3 173.8 138.2 174.65 139.65 174.65 140.95 174.65 141.9 173.8 142.85 172.85 142.85 171.5 142.85 169.9 141.5 169.0 140.9 168.6 139.3 168.1 137.4 167.5 136.7 167.0 135.2 165.95 135.2 163.9 135.2 162.05 136.45 160.8 137.75 159.6 139.65 159.6 141.55 159.6 142.85 160.9 144.05 162.15 144.05 163.95 L142.5 163.95 Q142.5 162.75 141.65 161.9 140.8 161.05 139.65 161.05 138.35 161.05 137.5 161.9 136.8 162.75 136.8 163.85 136.8 165.15 137.9 165.85 138.55 166.25 140.55 166.85" fill="#75602a" fill-rule="evenodd" stroke="none"/>
      <path d="M157.45 159.9 L157.45 169.8 Q157.45 171.85 156.85 173.15 156.1 174.75 154.6 175.5 153.4 176.1 152.0 176.1 150.65 176.1 149.45 175.5 147.95 174.75 147.2 173.15 146.6 171.85 146.6 169.8 L146.6 159.9 148.2 159.9 148.2 169.8 Q148.2 171.7 148.75 172.7 149.8 174.65 152.0 174.65 154.25 174.65 155.3 172.7 155.85 171.7 155.85 169.8 L155.85 159.9 157.45 159.9" fill="#75602a" fill-rule="evenodd" stroke="none"/>
      <path d="M160.7 159.9 L162.3 159.9 162.3 175.85 160.7 175.85 160.7 159.9" fill="#75602a" fill-rule="evenodd" stroke="none"/>
      <path d="M167.75 161.35 L164.1 161.35 164.1 159.9 172.95 159.9 172.95 161.35 169.3 161.35 169.3 175.85 167.75 175.85 167.75 161.35" fill="#75602a" fill-rule="evenodd" stroke="none"/>
      <path d="M192.9 175.85 L189.4 162.75 189.35 162.75 185.9 175.85 183.85 175.85 179.3 159.9 180.95 159.9 184.85 173.8 188.65 159.9 190.15 159.9 193.95 173.75 194.0 173.75 197.9 159.9 199.5 159.9 194.95 175.85 192.9 175.85" fill="#75602a" fill-rule="evenodd" stroke="none"/>
      <path d="M207.0 159.9 L213.85 175.85 212.1 175.85 209.8 170.45 202.4 170.45 200.05 175.85 198.4 175.85 205.2 159.9 207.0 159.9 M209.15 169.05 L206.1 161.7 203.0 169.05 209.15 169.05" fill="#75602a" fill-rule="evenodd" stroke="none"/>
      <path d="M223.05 161.95 Q221.85 161.35 219.9 161.35 L217.15 161.35 217.15 175.85 215.55 175.85 215.55 159.9 219.6 159.9 Q222.25 159.9 223.55 160.5 224.85 161.15 225.6 162.35 226.35 163.6 226.35 165.05 226.35 166.85 225.15 168.25 223.8 169.75 221.6 169.9 L226.1 175.85 224.15 175.85 218.7 168.6 222.15 168.35 Q223.4 168.0 224.1 167.0 224.75 166.15 224.75 165.0 224.75 164.05 224.3 163.2 223.8 162.3 223.05 161.95" fill="#75602a" fill-rule="evenodd" stroke="none"/>
      <path d="M237.35 161.35 L230.25 161.35 230.25 167.05 237.1 167.05 237.1 168.5 230.25 168.5 230.25 174.4 237.35 174.4 237.35 175.85 228.65 175.85 228.65 159.9 237.35 159.9 237.35 161.35" fill="#75602a" fill-rule="evenodd" stroke="none"/>
      <path d="M250.15 168.35 L241.9 168.35 241.9 175.85 240.3 175.85 240.3 159.9 241.9 159.9 241.9 166.9 250.15 166.9 250.15 159.9 251.7 159.9 251.7 175.85 250.15 175.85 250.15 168.35" fill="#75602a" fill-rule="evenodd" stroke="none"/>
      <path d="M271.1 167.85 Q271.1 171.3 268.6 173.75 266.05 176.1 262.7 176.1 259.3 176.1 256.8 173.7 254.25 171.3 254.25 167.95 254.25 164.3 256.9 161.9 259.35 159.6 262.7 159.6 266.1 159.6 268.6 162.0 271.1 164.4 271.1 167.85 M267.5 163.1 Q265.5 161.05 262.7 161.05 259.95 161.05 257.9 163.0 255.85 165.05 255.85 167.95 255.85 170.65 257.9 172.7 259.9 174.65 262.7 174.65 265.45 174.65 267.5 172.7 269.55 170.7 269.55 167.85 269.55 165.05 267.5 163.1" fill="#75602a" fill-rule="evenodd" stroke="none"/>
      <path d="M275.25 159.9 L275.25 169.8 Q275.25 171.7 275.8 172.7 276.85 174.65 279.1 174.65 281.3 174.65 282.4 172.7 282.9 171.7 282.9 169.8 L282.9 159.9 284.5 159.9 284.5 169.8 Q284.5 171.85 283.9 173.15 283.15 174.75 281.65 175.5 280.45 176.1 279.1 176.1 277.7 176.1 276.5 175.5 275.0 174.75 274.25 173.15 273.65 171.85 273.65 169.8 L273.65 159.9 275.25 159.9" fill="#75602a" fill-rule="evenodd" stroke="none"/>
      <path d="M293.45 161.9 Q292.65 161.05 291.5 161.05 290.2 161.05 289.4 161.9 288.6 162.75 288.6 163.85 288.6 165.15 289.7 165.85 290.4 166.25 292.4 166.85 294.9 167.45 295.85 169.35 296.3 170.25 296.3 171.45 296.3 173.3 294.95 174.7 293.6 176.1 291.5 176.1 289.7 176.1 288.3 175.05 286.65 173.8 286.6 171.35 L288.2 171.35 Q288.25 172.85 289.15 173.8 290.05 174.65 291.5 174.65 292.8 174.65 293.75 173.8 294.7 172.85 294.7 171.5 294.7 169.9 293.35 169.0 292.75 168.6 291.15 168.1 289.3 167.55 288.55 167.0 287.0 165.95 287.0 163.9 287.0 162.05 288.35 160.8 289.6 159.6 291.5 159.6 293.45 159.6 294.65 160.9 295.9 162.15 295.9 163.95 L294.3 163.95 Q294.3 162.75 293.45 161.9" fill="#75602a" fill-rule="evenodd" stroke="none"/>
      <path d="M307.05 159.9 L307.05 161.35 299.95 161.35 299.95 167.05 306.8 167.05 306.8 168.5 299.95 168.5 299.95 174.4 307.05 174.4 307.05 175.85 298.35 175.85 298.35 159.9 307.05 159.9" fill="#75602a" fill-rule="evenodd" stroke="none"/>
      <path d="M307.4 155.9 L-8.05 155.9 -8.05 154.3 307.4 154.3 307.4 155.9" fill="#75602a" fill-rule="evenodd" stroke="none"/>
      <path d="M307.4 180.7 L-8.05 180.7 -8.05 179.1 307.4 179.1 307.4 180.7" fill="#75602a" fill-rule="evenodd" stroke="none"/>
      <path d="M138.65 100.0 Q134.1 91.45 129.15 87.0 124.2 82.6 117.5 82.6 114.15 82.6 111.3 84.1 108.45 85.7 106.75 88.4 105.0 91.1 105.0 94.4 105.0 99.0 108.15 101.45 111.25 103.9 117.45 105.15 L128.45 107.25 Q133.4 108.15 136.2 109.5 141.45 112.15 144.35 116.65 147.25 121.2 147.25 127.0 147.25 132.55 144.6 137.35 141.9 142.2 137.05 145.0 132.25 147.9 126.25 147.9 L121.2 147.4 115.35 145.4 Q111.2 143.95 109.0 143.95 105.3 143.95 103.1 146.75 L100.5 146.75 100.5 123.3 103.55 123.3 Q106.1 130.65 109.65 135.55 113.2 140.5 117.45 142.95 121.6 145.3 126.25 145.3 132.05 145.3 136.15 141.75 140.25 138.1 140.25 132.5 140.25 127.25 137.5 124.3 134.8 121.35 131.05 120.2 127.05 118.95 121.05 118.0 L112.3 116.15 Q108.3 114.75 105.5 112.3 102.7 109.95 101.2 106.5 99.75 103.05 99.75 99.25 99.75 95.5 101.05 92.1 102.35 88.65 104.7 86.1 107.0 83.5 110.45 81.9 113.9 80.4 118.0 80.4 L125.35 81.25 131.7 82.1 Q134.2 82.1 136.4 81.0 L139.9 81.0 141.9 100.0 138.65 100.0 M132.2 85.15 L128.65 84.65 Q130.5 85.85 131.85 87.35 L134.75 90.9 136.8 93.45 135.25 84.65 132.2 85.15 M114.15 115.3 L123.7 117.05 Q129.95 118.1 132.4 119.05 136.8 120.65 139.3 124.0 141.75 127.3 141.75 131.8 141.75 135.05 139.9 138.85 143.65 134.95 143.65 129.6 143.65 124.15 140.9 121.1 138.1 118.0 133.95 116.45 129.9 115.0 122.7 113.7 L115.35 112.4 Q108.85 110.7 105.4 106.45 102.0 102.3 102.0 96.8 L102.0 93.8 Q101.25 97.25 101.25 99.5 101.25 101.9 102.05 104.4 102.9 106.9 104.5 109.1 106.2 111.3 108.15 112.65 110.8 114.45 114.15 115.3 M102.0 131.9 L102.0 144.2 Q103.3 142.5 104.5 141.95 L107.95 141.5 105.75 138.9 104.1 136.35 Q103.05 134.55 102.0 131.9" fill="#000000" fill-rule="evenodd" stroke="none"/>
      <path d="M197.35 96.8 Q197.35 102.25 193.95 106.45 190.55 110.7 184.0 112.4 L176.7 113.7 Q169.55 114.95 165.4 116.45 161.2 118.0 158.5 121.1 155.7 124.15 155.7 129.6 155.7 134.9 159.5 138.85 157.55 135.1 157.55 131.8 157.55 127.4 160.05 124.0 162.6 120.65 166.95 119.05 169.3 118.1 175.6 117.05 L185.2 115.3 Q188.6 114.45 191.2 112.65 193.25 111.25 194.85 109.1 196.45 106.9 197.3 104.4 198.15 101.95 198.15 99.5 198.15 97.4 197.35 93.8 L197.35 96.8 M198.3 92.1 Q199.6 95.5 199.6 99.25 199.6 103.15 198.15 106.5 196.7 109.95 193.9 112.3 191.1 114.7 187.05 116.15 L178.3 118.0 Q172.2 119.0 168.35 120.2 164.6 121.35 161.8 124.3 159.1 127.25 159.1 132.5 159.1 138.1 163.2 141.75 167.35 145.3 173.05 145.3 177.7 145.3 181.95 142.95 186.1 140.5 189.7 135.55 193.35 130.45 195.8 123.3 L198.85 123.3 198.85 146.75 196.25 146.75 Q194.05 143.95 190.4 143.95 188.15 143.95 184.0 145.4 L178.15 147.4 173.05 147.9 Q167.1 147.9 162.25 145.0 157.45 142.15 154.75 137.35 152.1 132.5 152.1 127.0 152.1 121.3 155.0 116.65 157.9 112.15 163.15 109.5 165.95 108.15 170.9 107.25 L181.95 105.15 Q188.05 103.9 191.2 101.45 194.35 99.0 194.35 94.4 194.35 91.15 192.6 88.4 190.9 85.65 188.0 84.1 185.2 82.6 181.85 82.6 175.1 82.6 170.2 87.0 165.25 91.45 160.7 100.0 L157.5 100.0 159.5 81.0 163.0 81.0 Q165.15 82.1 167.7 82.1 L174.05 81.25 181.4 80.4 Q185.45 80.4 188.95 81.9 192.3 83.5 194.65 86.1 197.0 88.65 198.3 92.1 M167.5 87.35 Q168.95 85.85 170.75 84.65 L167.1 85.15 164.1 84.65 162.55 93.45 164.6 90.9 Q166.25 88.6 167.5 87.35 M195.25 136.35 L193.6 138.9 191.4 141.5 194.9 141.95 Q196.0 142.45 197.35 144.2 L197.35 131.9 Q196.3 134.6 195.25 136.35" fill="#000000" fill-rule="evenodd" stroke="none"/>
      <path d="M123.65 202.05 L136.05 237.8 148.8 201.3 Q147.65 197.55 146.55 195.7 145.4 193.7 144.3 193.0 143.15 192.2 142.35 192.1 L138.95 191.85 138.95 189.3 166.9 189.3 166.9 191.85 Q163.6 191.95 161.65 192.6 159.75 193.2 159.75 195.35 159.75 197.6 161.9 203.55 L173.9 237.8 183.75 209.5 185.3 204.65 Q185.95 202.3 185.95 200.35 185.95 196.25 183.85 194.2 181.8 192.25 177.5 191.85 L177.5 189.3 198.3 189.3 198.3 191.85 Q194.9 193.4 192.35 196.95 189.8 200.5 187.45 207.25 L170.6 255.65 167.95 255.65 150.2 204.9 132.55 255.65 130.1 255.65 112.5 204.9 109.25 196.0 Q108.25 193.9 106.8 192.85 105.25 191.85 102.3 191.85 L102.3 189.3 129.5 189.3 129.5 191.85 129.0 191.75 128.4 191.75 Q122.15 191.75 122.15 195.5 122.15 197.55 123.65 202.05 M113.5 194.85 Q112.6 193.0 111.3 192.35 110.1 191.65 107.55 191.85 109.25 192.95 110.3 195.05 111.4 197.2 112.8 201.3 L130.7 253.05 131.8 250.5 132.05 249.1 Q132.05 247.3 131.3 245.4 L116.05 201.3 Q114.35 196.5 113.5 194.85 M151.1 194.55 Q150.4 193.25 149.15 192.6 147.9 191.9 145.3 191.85 147.95 194.05 150.3 200.55 L168.6 252.8 Q169.95 250.0 169.95 248.35 169.95 247.3 169.05 244.65 L153.05 199.25 151.1 194.55 M183.2 191.85 Q185.45 193.25 186.25 194.95 187.15 196.8 187.25 199.25 188.25 196.8 189.45 195.0 190.6 193.15 192.35 191.85 L183.2 191.85" fill="#000000" fill-rule="evenodd" stroke="none"/>
    </g>
  </defs>
</svg>
