<?xml version="1.0" encoding="UTF-8" standalone="no"?>
<svg xmlns:xlink="http://www.w3.org/1999/xlink" height="300.0px" width="300.0px" xmlns="http://www.w3.org/2000/svg">
  <g transform="matrix(1.0, 0.0, 0.0, 1.0, 0.0, 0.0)">
    <use height="232.0" transform="matrix(0.6995, 0.0, 0.0, 0.7, 2.0539, 57.0054)" width="423.05" xlink:href="#sprite0"/>
  </g>
  <defs>
    <g id="sprite0" transform="matrix(1.0, 0.0, 0.0, 1.0, 211.5, 132.85)">
      <use height="232.0" transform="matrix(1.0, 0.0, 0.0, 1.0, -211.5, -132.85)" width="423.05" xlink:href="#shape0"/>
    </g>
    <g id="shape0" transform="matrix(1.0, 0.0, 0.0, 1.0, 211.5, 132.85)">
      <path d="M-63.05 78.8 L-63.05 78.75 -63.0 78.7 Q-61.2 78.0 -59.3 78.0 L-57.25 78.15 -55.5 78.6 -55.45 78.65 Q-54.8 78.85 -54.05 79.35 L-52.7 80.35 -52.6 80.45 -52.6 80.5 -52.6 80.6 -52.65 80.7 -53.45 81.7 -53.6 81.8 -53.8 81.75 -54.95 80.9 Q-55.35 80.6 -56.05 80.25 L-56.1 80.25 -57.55 79.85 -59.35 79.7 Q-60.9 79.7 -62.2 80.3 -63.65 80.95 -64.4 81.9 -65.35 83.05 -65.9 84.4 -66.45 85.7 -66.45 87.35 L-66.45 87.4 Q-66.45 89.1 -65.9 90.45 -65.45 91.75 -64.4 92.95 -63.45 94.0 -62.15 94.45 -60.8 95.1 -59.1 95.1 L-57.45 94.95 -56.0 94.5 -56.05 94.5 -56.0 94.5 -55.95 94.45 -54.75 93.95 -54.7 93.9 -53.65 93.2 -53.65 88.55 -59.35 88.55 -59.5 88.5 -59.55 88.5 -59.6 88.3 -59.6 87.1 -59.55 86.95 -59.5 86.9 -59.35 86.85 -52.2 86.85 -52.0 86.9 -52.0 86.95 -51.95 87.1 -51.95 93.9 -51.95 94.0 -52.05 94.05 Q-53.1 95.1 -55.1 95.95 -57.0 96.8 -59.15 96.8 -61.2 96.8 -63.0 96.05 -64.65 95.35 -65.9 94.0 -67.1 92.75 -67.6 91.1 L-67.65 91.05 Q-68.3 89.4 -68.3 87.45 L-68.3 87.4 Q-68.3 85.55 -67.65 83.8 -67.05 82.2 -65.9 80.9 L-65.9 80.8 Q-64.7 79.6 -63.05 78.8 M-72.8 78.3 L-72.6 78.35 -72.6 78.4 -72.55 78.55 -72.55 96.25 -72.6 96.45 -72.8 96.5 -73.8 96.5 -73.85 96.5 -73.95 96.4 -85.95 81.2 -85.95 96.25 -86.0 96.45 -86.2 96.5 -87.5 96.5 -87.65 96.45 -87.7 96.45 -87.75 96.25 -87.75 78.55 -87.7 78.4 -87.65 78.35 -87.5 78.3 -86.15 78.3 -86.05 78.35 -86.0 78.4 -74.25 93.2 -74.25 78.55 -74.2 78.4 -74.15 78.35 -74.0 78.3 -72.8 78.3 M-26.5 78.55 L-26.5 79.7 -26.55 79.9 -26.75 79.95 -37.8 79.95 -37.8 86.45 -27.9 86.45 -27.7 86.5 -27.7 86.55 -27.65 86.7 -27.65 87.9 -27.7 88.1 -27.9 88.15 -37.8 88.15 -37.8 94.8 -26.65 94.8 -26.45 94.85 -26.45 94.9 -26.4 95.05 -26.4 96.25 -26.45 96.45 -26.65 96.5 -39.35 96.5 -39.5 96.45 -39.55 96.45 -39.6 96.25 -39.6 78.55 -39.55 78.4 -39.5 78.35 -39.35 78.3 -26.75 78.3 -26.55 78.35 -26.55 78.4 -26.5 78.55 M-20.7 80.8 Q-19.6 79.65 -17.8 78.8 L-17.8 78.75 -17.75 78.7 Q-16.05 78.0 -14.0 78.0 -11.95 78.0 -10.3 78.7 -8.45 79.6 -7.4 80.8 -6.2 82.05 -5.55 83.75 -4.9 85.45 -4.9 87.2 L-4.85 87.35 -4.9 87.55 Q-4.9 89.45 -5.5 90.85 L-5.5 90.9 Q-6.0 92.4 -7.1 93.6 L-4.8 95.55 -4.7 95.65 -4.7 95.7 -4.7 95.8 -4.75 95.95 -4.75 95.9 -5.7 96.9 -5.7 96.95 -5.85 97.0 -6.05 96.95 -8.4 94.85 Q-9.55 95.8 -10.8 96.25 -12.35 96.8 -14.05 96.8 -16.05 96.8 -17.8 96.0 -19.5 95.3 -20.6 94.0 L-20.7 93.95 Q-21.95 92.7 -22.6 90.95 -23.2 89.35 -23.2 87.45 L-23.2 87.4 Q-23.2 85.65 -22.55 83.8 -21.85 82.05 -20.7 80.8 M-21.35 87.4 Q-21.35 88.85 -20.75 90.4 L-19.3 92.85 -19.25 92.85 Q-18.25 93.85 -16.95 94.45 L-14.0 95.1 -11.55 94.65 -9.75 93.65 -12.9 90.95 -12.95 90.9 -13.0 90.85 -13.0 90.7 -12.95 90.6 -12.0 89.55 -11.8 89.45 -11.65 89.5 -8.45 92.4 -7.25 90.25 Q-6.8 88.95 -6.8 87.45 L-6.8 87.4 Q-6.8 85.7 -7.3 84.4 -8.0 82.85 -8.85 81.9 -9.75 80.95 -11.0 80.3 L-11.1 80.3 Q-12.5 79.7 -14.05 79.7 -15.8 79.7 -16.95 80.25 L-19.3 81.9 -19.35 81.95 Q-20.3 83.0 -20.75 84.35 -21.35 85.75 -21.35 87.35 L-21.35 87.4 M-0.9 78.4 L-0.85 78.35 -0.7 78.3 0.65 78.3 0.85 78.35 0.85 78.4 0.9 78.55 0.9 88.75 Q0.9 91.75 2.4 93.45 3.9 95.05 6.65 95.05 9.2 95.05 10.7 93.5 L10.8 93.5 Q12.2 91.9 12.2 88.85 L12.2 78.55 12.25 78.4 12.3 78.35 12.45 78.3 13.8 78.3 14.0 78.35 14.0 78.4 14.05 78.55 14.05 88.7 Q14.05 90.7 13.5 92.2 13.05 93.65 12.0 94.7 L11.95 94.75 Q11.0 95.7 9.65 96.25 L6.6 96.75 3.55 96.3 Q2.2 95.75 1.2 94.8 L1.1 94.75 Q0.15 93.8 -0.4 92.25 -0.95 90.8 -0.95 88.85 L-0.95 78.55 -0.9 78.4 M-148.5 80.3 L-151.4 79.7 Q-153.1 79.7 -154.35 80.25 -155.65 80.9 -156.65 81.9 L-156.7 81.95 Q-157.65 83.0 -158.1 84.35 -158.7 85.75 -158.7 87.35 L-158.7 87.4 Q-158.7 88.85 -158.1 90.4 -157.55 91.75 -156.6 92.9 L-154.3 94.45 Q-152.95 95.1 -151.35 95.1 -149.75 95.1 -148.45 94.5 L-148.45 94.45 Q-147.1 93.85 -146.2 92.9 -145.2 91.7 -144.65 90.4 -144.15 89.1 -144.15 87.45 L-144.15 87.4 Q-144.15 85.65 -144.7 84.4 -145.25 83.05 -146.2 81.9 -147.1 80.9 -148.5 80.3 M-144.75 80.8 Q-143.55 82.05 -142.9 83.75 -142.25 85.5 -142.25 87.35 L-142.25 87.4 Q-142.25 89.3 -142.9 90.95 -143.45 92.55 -144.75 93.9 -146.0 95.3 -147.7 96.0 L-147.75 96.0 -147.8 96.0 Q-149.4 96.8 -151.4 96.8 -153.45 96.8 -155.05 96.0 L-155.15 96.0 Q-156.85 95.3 -158.1 93.9 -159.3 92.65 -159.95 90.95 -160.55 89.35 -160.55 87.45 L-160.55 87.4 Q-160.55 85.55 -159.95 83.8 -159.15 81.95 -158.05 80.8 -157.0 79.6 -155.15 78.7 -153.35 78.0 -151.35 78.0 -149.4 78.0 -147.65 78.7 L-147.6 78.75 -147.55 78.8 Q-145.9 79.6 -144.75 80.8 M-126.8 78.25 L-126.65 78.3 -126.55 78.4 -121.6 93.45 -116.35 78.45 -116.2 78.35 -116.25 78.35 -116.1 78.3 -114.7 78.3 -114.55 78.35 -114.45 78.5 -114.45 78.65 -120.9 96.45 -121.0 96.55 -121.15 96.6 -122.2 96.6 -122.35 96.55 -122.3 96.55 -122.45 96.45 -127.35 81.8 -132.3 96.45 -132.4 96.55 -132.55 96.6 -133.6 96.6 -133.75 96.55 -133.7 96.55 -133.8 96.45 -133.85 96.45 -140.3 78.65 -140.3 78.5 -140.2 78.35 -140.05 78.3 -138.55 78.3 -138.4 78.35 -138.3 78.45 -133.0 93.45 -128.05 78.4 -127.9 78.3 -127.95 78.3 -127.8 78.25 -126.8 78.25 M-109.25 78.3 L-109.05 78.35 -109.05 78.4 -109.0 78.55 -109.0 94.8 -98.85 94.8 -98.65 94.85 -98.65 94.9 -98.6 95.05 -98.6 96.25 -98.65 96.45 -98.85 96.5 -110.55 96.5 -110.7 96.45 -110.75 96.45 -110.8 96.25 -110.8 78.55 -110.75 78.4 -110.7 78.35 -110.55 78.3 -109.25 78.3 M-93.15 78.3 L-92.95 78.35 -92.95 78.4 -92.9 78.55 -92.9 96.25 -92.95 96.45 -93.15 96.5 -94.5 96.5 -94.65 96.45 -94.7 96.45 -94.75 96.25 -94.75 78.55 -94.7 78.4 -94.65 78.35 -94.5 78.3 -93.15 78.3 M-167.95 78.7 Q-166.7 79.15 -165.95 79.9 -164.75 81.15 -164.75 82.85 L-164.75 82.9 Q-164.75 83.8 -165.0 84.6 L-165.0 84.7 -165.05 84.7 -165.05 84.65 -165.75 85.85 -166.75 86.7 -166.8 86.75 -167.4 87.1 -166.5 87.45 -166.45 87.45 Q-165.55 87.8 -165.05 88.4 L-165.05 88.35 -165.05 88.4 Q-164.5 88.85 -164.1 89.65 -163.8 90.45 -163.8 91.35 L-163.8 91.4 Q-163.8 92.5 -164.2 93.5 L-164.25 93.55 -164.25 93.6 Q-164.75 94.5 -165.65 95.1 -166.45 95.75 -167.65 96.1 L-167.7 96.1 -170.35 96.5 -178.0 96.5 -178.15 96.45 -178.2 96.45 -178.25 96.25 -178.25 78.55 -178.2 78.4 -178.15 78.35 -178.0 78.3 -170.75 78.3 -167.95 78.7 M-169.1 86.25 Q-168.35 86.05 -167.85 85.6 L-167.75 85.55 -166.95 84.55 -166.9 84.5 -166.85 84.5 Q-166.55 83.85 -166.55 83.05 L-166.55 83.0 Q-166.55 81.65 -167.65 80.8 -168.75 79.95 -170.75 79.95 L-176.45 79.95 -176.45 86.45 -170.85 86.45 -169.1 86.25 M-176.45 94.8 L-170.3 94.8 Q-168.1 94.8 -166.85 93.9 -165.6 92.95 -165.6 91.4 L-165.6 91.35 Q-165.6 89.85 -166.9 89.0 -168.2 88.15 -170.75 88.15 L-176.45 88.15 -176.45 94.8 M173.5 80.85 L173.55 81.0 173.55 81.15 173.5 81.25 172.55 82.2 172.4 82.25 172.35 82.25 172.2 82.2 171.0 81.15 169.75 80.45 169.7 80.45 169.7 80.4 Q169.2 80.1 168.2 79.85 L166.4 79.7 Q164.7 79.7 163.55 80.25 L163.5 80.25 163.45 80.25 Q162.2 80.9 161.3 81.85 160.45 82.8 159.75 84.35 159.25 85.65 159.25 87.35 L159.25 87.4 Q159.25 89.15 159.8 90.4 160.4 91.75 161.35 92.9 162.15 93.85 163.55 94.45 164.95 95.1 166.45 95.1 168.25 95.1 169.7 94.4 L172.35 92.4 172.5 92.35 172.55 92.35 172.65 92.4 173.55 93.25 173.6 93.25 173.65 93.4 173.65 93.55 173.6 93.65 172.1 94.9 Q171.4 95.55 170.45 95.9 L170.4 95.9 168.6 96.55 166.4 96.8 Q164.45 96.8 162.8 96.05 161.1 95.35 160.0 94.1 L159.9 94.05 Q158.75 92.9 158.0 91.05 157.35 89.4 157.35 87.45 L157.35 87.4 Q157.35 85.5 158.0 83.75 158.75 81.95 159.9 80.75 161.05 79.5 162.8 78.7 164.55 78.0 166.45 78.0 L168.6 78.2 170.45 78.75 172.1 79.7 173.45 80.85 173.5 80.85 M176.6 93.9 L176.75 93.85 178.4 93.85 178.6 93.9 178.6 93.95 178.65 94.1 178.65 96.25 178.6 96.45 178.4 96.5 176.75 96.5 176.6 96.45 176.55 96.45 176.5 96.25 176.5 94.1 176.55 93.95 176.6 93.9 M96.2 78.3 L97.45 78.3 97.65 78.35 97.65 78.4 97.7 78.55 97.7 96.25 97.65 96.45 97.45 96.5 96.4 96.5 96.35 96.5 96.25 96.4 84.25 81.2 84.25 96.25 84.2 96.45 84.0 96.5 82.75 96.5 82.6 96.45 82.55 96.45 82.5 96.25 82.5 78.55 82.55 78.4 82.6 78.35 82.75 78.3 84.05 78.3 84.15 78.35 84.2 78.4 95.95 93.2 95.95 78.55 96.0 78.4 96.05 78.35 96.2 78.3 M115.6 78.4 L115.65 78.55 115.65 79.7 115.6 79.9 115.4 79.95 109.4 79.95 109.4 96.25 109.35 96.45 109.15 96.5 107.85 96.5 107.7 96.45 107.65 96.45 107.6 96.25 107.6 79.95 101.7 79.95 101.55 79.9 101.5 79.9 101.45 79.7 101.45 78.55 101.5 78.4 101.55 78.35 101.7 78.3 115.4 78.3 115.6 78.35 115.6 78.4 M116.35 93.95 L116.4 93.9 116.55 93.85 118.15 93.85 118.35 93.9 118.35 93.95 118.4 94.1 118.4 95.9 Q118.4 97.25 117.9 97.95 117.35 98.75 116.1 99.15 L116.15 99.15 115.95 99.15 115.85 99.0 115.8 99.0 115.55 98.4 115.55 98.2 115.6 98.2 Q115.6 98.1 115.75 98.1 L115.7 98.1 116.7 97.25 116.95 96.5 116.55 96.5 116.4 96.45 116.35 96.45 116.3 96.25 116.3 94.1 116.35 93.95 M138.15 78.3 L139.45 78.3 139.55 78.35 139.6 78.4 151.35 93.2 151.35 78.55 151.4 78.4 151.45 78.35 151.6 78.3 152.9 78.3 153.1 78.35 153.1 78.4 153.15 78.55 153.15 96.25 153.1 96.45 152.9 96.5 151.8 96.5 151.75 96.5 151.65 96.4 139.65 81.2 139.65 96.25 139.6 96.45 139.4 96.5 138.15 96.5 138.0 96.45 137.95 96.45 137.9 96.25 137.9 78.55 137.95 78.4 138.0 78.35 138.15 78.3 M132.65 78.4 L132.7 78.55 132.7 96.25 132.65 96.45 132.45 96.5 131.2 96.5 131.05 96.45 131.0 96.45 130.95 96.25 130.95 78.55 131.0 78.4 131.05 78.35 131.2 78.3 132.45 78.3 132.65 78.35 132.65 78.4 M19.05 78.35 L19.2 78.3 20.55 78.3 20.75 78.35 20.75 78.4 20.8 78.55 20.8 96.25 20.75 96.45 20.55 96.5 19.2 96.5 19.05 96.45 19.0 96.45 18.95 96.25 18.95 78.55 19.0 78.4 19.05 78.35 M34.6 80.25 L32.55 79.95 27.8 79.95 27.8 88.2 32.4 88.2 34.55 87.95 34.55 87.9 36.25 87.05 37.25 85.85 37.25 85.75 Q37.65 84.95 37.65 84.05 L37.65 84.0 Q37.65 83.1 37.25 82.2 L37.25 82.15 36.25 81.0 Q35.65 80.55 34.65 80.25 L34.6 80.25 M35.4 78.65 Q36.6 79.0 37.55 79.75 38.55 80.6 39.0 81.55 39.5 82.65 39.5 83.9 L39.5 83.95 Q39.5 85.45 38.85 86.6 L38.85 86.55 37.3 88.45 Q36.5 89.1 35.05 89.55 L35.0 89.55 32.35 89.85 27.8 89.85 27.8 96.25 27.75 96.45 27.55 96.5 26.2 96.5 26.05 96.45 26.0 96.45 25.95 96.25 25.95 78.55 26.0 78.4 26.05 78.35 26.2 78.3 32.65 78.3 35.4 78.65 M58.8 78.3 L60.05 78.3 60.25 78.35 60.25 78.4 60.3 78.55 60.3 96.25 60.25 96.45 60.05 96.5 58.7 96.5 58.55 96.45 58.5 96.45 58.45 96.25 58.45 81.65 51.9 91.15 51.9 91.2 51.8 91.25 51.75 91.25 51.6 91.25 51.5 91.25 51.45 91.2 51.4 91.15 44.85 81.65 44.85 96.25 44.8 96.45 44.6 96.5 43.35 96.5 43.2 96.45 43.15 96.45 43.1 96.25 43.1 78.55 43.15 78.4 43.2 78.35 43.35 78.3 44.65 78.3 44.7 78.35 44.8 78.4 51.7 88.5 58.6 78.4 58.65 78.4 58.7 78.35 58.8 78.3 M78.4 79.7 L78.35 79.9 78.15 79.95 67.15 79.95 67.15 86.45 77.0 86.45 77.2 86.5 77.2 86.55 77.25 86.7 77.25 87.9 77.2 88.1 77.0 88.15 67.15 88.15 67.15 94.8 78.25 94.8 78.45 94.85 78.45 94.9 78.5 95.05 78.5 96.25 78.45 96.45 78.25 96.5 65.55 96.5 65.4 96.45 65.35 96.45 65.3 96.25 65.3 78.55 65.35 78.4 65.4 78.35 65.55 78.3 78.15 78.3 78.35 78.35 78.35 78.4 78.4 78.55 78.4 79.7" fill="#000000" fill-rule="evenodd" stroke="none"/>
      <path d="M45.0 -113.1 L49.6 -108.5 51.55 -105.9 Q52.65 -104.45 53.9 -103.85 54.4 -100.4 56.55 -98.85 56.25 -97.3 57.3 -95.45 L59.6 -92.45 Q58.05 -91.05 59.75 -89.0 61.4 -87.8 61.55 -84.2 L61.3 -78.5 Q63.5 -77.85 63.15 -72.45 L62.45 -64.65 Q62.95 -63.3 62.35 -62.0 61.45 -60.1 61.35 -59.3 61.2 -58.15 61.6 -57.45 L62.0 -56.15 Q60.75 -55.45 60.45 -53.45 60.05 -50.9 59.55 -50.15 57.55 -46.95 56.55 -42.9 56.25 -41.55 54.25 -39.5 52.45 -37.7 52.55 -35.85 L50.9 -32.6 Q50.1 -31.3 48.3 -30.9 L46.9 -29.25 45.3 -27.3 44.25 -24.8 Q43.5 -23.6 41.7 -23.45 41.3 -22.6 39.05 -21.5 37.25 -20.6 37.45 -19.3 L35.65 -19.4 Q35.15 -17.65 31.0 -15.2 26.95 -12.75 24.6 -12.6 20.85 -12.4 14.9 -10.6 9.15 -9.0 6.1 -7.35 L4.95 -7.9 -4.3 -8.35 Q-10.2 -8.5 -12.95 -9.35 L-16.85 -10.35 Q-18.3 -9.65 -22.0 -11.7 L-27.6 -14.95 Q-33.4 -17.45 -36.55 -19.6 -40.95 -22.55 -43.6 -26.65 -44.7 -25.6 -50.5 -34.6 -56.3 -43.55 -56.45 -46.35 L-57.8 -46.9 Q-58.1 -49.55 -60.15 -56.25 -61.95 -62.3 -62.05 -66.0 -63.0 -67.3 -62.3 -71.75 -61.45 -77.2 -61.5 -77.8 L-62.25 -78.7 Q-60.4 -79.6 -59.75 -83.4 L-58.95 -89.25 Q-57.15 -95.6 -54.8 -100.25 -52.85 -104.05 -49.1 -108.45 L-42.3 -115.85 Q-38.85 -119.4 -35.65 -121.6 -32.55 -123.7 -27.7 -125.85 L-18.95 -128.85 Q-12.5 -131.05 -12.3 -132.2 L-7.75 -132.55 -2.95 -132.35 2.8 -132.75 9.2 -132.3 14.4 -131.55 Q18.85 -130.25 19.9 -130.1 21.95 -128.7 24.4 -128.05 27.15 -128.8 27.15 -126.05 28.55 -125.05 34.1 -122.6 38.25 -120.8 40.6 -117.7 41.9 -115.9 45.0 -113.1" fill="#000000" fill-rule="evenodd" stroke="none"/>
      <path d="M-166.75 2.5 Q-166.35 2.5 -166.3 2.65 L-165.95 2.85 Q-165.75 2.85 -165.6 2.65 -165.4 2.5 -165.2 2.5 L-164.05 2.85 -162.65 3.45 Q-162.95 4.1 -162.7 4.5 -162.45 4.15 -162.15 4.3 -162.45 4.4 -162.45 4.8 L-162.3 5.3 -162.0 5.7 -162.1 11.2 -161.9 11.4 Q-161.75 11.5 -161.75 11.8 L-161.9 12.15 -162.1 12.55 -161.75 13.25 -164.15 15.1 Q-164.35 15.15 -164.15 15.35 L-164.7 15.25 -165.2 15.1 Q-165.95 14.95 -165.7 15.35 L-166.4 15.35 -166.05 15.15 -166.7 14.95 Q-167.2 14.65 -167.4 14.65 L-167.85 14.85 -168.15 15.1 -168.55 14.85 -168.95 14.65 -169.3 14.85 -169.75 15.1 -170.1 14.85 Q-170.2 14.65 -170.45 14.65 L-170.85 14.85 -171.25 15.1 -171.65 14.85 Q-171.75 14.65 -171.95 14.65 L-172.35 14.85 -172.8 15.1 -173.1 14.85 -173.5 14.65 -173.85 14.85 -174.2 15.1 -174.6 14.85 Q-174.7 14.65 -175.0 14.65 L-175.3 14.85 -175.7 15.1 -176.1 14.85 Q-176.2 14.65 -176.45 14.65 -176.75 14.65 -176.75 15.0 -176.75 14.65 -177.95 14.65 -178.6 15.3 -178.95 15.3 -179.35 15.3 -179.35 14.65 -179.55 14.65 -179.55 14.95 L-180.4 15.2 Q-180.75 15.2 -180.9 15.35 L-184.9 15.35 -187.75 15.2 -188.15 14.75 Q-188.4 14.4 -188.7 14.3 L-188.55 13.55 -188.45 13.1 Q-188.75 12.75 -189.0 12.85 L-188.45 11.8 -188.6 11.45 -188.8 11.15 -188.3 10.45 Q-188.15 10.25 -188.15 9.5 L-188.8 6.4 -188.6 6.1 -188.45 5.7 -188.6 5.4 -188.8 4.95 Q-188.8 4.65 -188.25 4.1 -187.65 3.45 -187.35 3.45 L-174.75 3.25 -171.45 3.25 -170.95 3.15 -170.45 3.25 -169.85 3.15 -170.0 2.9 -169.5 3.0 -168.95 3.25 Q-168.5 3.25 -168.5 2.85 -168.5 2.5 -166.75 2.5 M-200.25 3.5 L-199.7 3.75 -199.35 3.55 Q-198.85 3.65 -198.85 3.9 L-199.0 4.15 -199.3 4.1 Q-198.3 4.55 -198.15 5.7 L-198.15 10.8 -197.9 11.2 -197.75 11.8 Q-197.75 12.45 -198.5 12.7 L-198.2 12.85 -198.2 13.55 -198.5 13.95 -198.35 14.35 -198.15 14.75 -198.5 15.2 Q-198.5 15.55 -197.75 16.05 L-198.5 16.85 -198.0 17.35 -197.9 17.1 -198.15 18.45 -198.0 18.75 -197.8 18.3 -197.8 29.4 -198.05 30.3 -198.35 31.2 -198.0 32.15 -197.75 33.1 -197.9 33.35 -198.15 33.6 -197.9 34.1 Q-197.8 34.2 -197.85 35.2 -197.85 36.2 -197.45 36.35 L-197.75 37.25 Q-197.9 37.9 -197.65 37.9 L-197.45 37.85 -197.75 38.8 Q-197.9 39.4 -197.65 39.4 L-197.45 39.3 -197.8 39.65 -197.6 40.35 -197.4 41.05 -197.55 41.45 -197.75 41.85 -197.55 42.2 -197.4 42.55 Q-197.4 42.9 -197.55 42.95 L-197.75 43.35 Q-197.75 43.9 -197.45 43.65 L-197.75 44.85 Q-197.75 45.35 -197.45 45.1 L-197.6 45.75 -197.75 46.3 -197.5 46.75 Q-197.4 46.9 -197.6 47.25 L-197.75 47.85 Q-197.75 48.35 -197.45 48.1 L-197.75 49.25 -197.55 49.7 -197.4 50.1 Q-197.4 50.35 -197.55 50.4 -197.75 50.45 -197.75 50.8 L-197.55 51.2 Q-197.4 51.35 -197.4 51.65 L-197.75 52.3 Q-198.15 52.7 -198.15 53.0 L-198.0 53.35 -197.9 53.0 -197.95 54.2 -197.65 55.15 -197.4 56.1 -197.55 56.5 -197.75 56.85 -197.5 57.65 -197.25 58.45 -197.5 59.05 -197.75 59.75 -197.55 60.15 Q-197.4 60.25 -197.4 60.5 -197.4 60.85 -198.0 61.4 L-198.8 62.3 -199.5 62.4 -199.5 62.7 Q-199.5 63.1 -201.25 63.1 L-201.6 62.95 -201.95 62.75 -202.4 62.95 -202.75 63.1 -203.85 62.75 -205.05 62.4 -205.45 62.6 -205.85 62.75 -206.05 62.6 -206.25 62.4 Q-206.35 62.4 -206.9 62.75 L-207.05 62.3 Q-207.1 62.0 -207.4 62.0 L-207.65 62.15 -207.9 62.4 Q-209.1 62.4 -210.65 60.1 -210.6 59.75 -211.3 59.1 L-210.7 56.85 -210.9 56.45 -211.1 56.0 -210.9 55.7 -210.7 55.3 -210.9 54.9 -211.1 54.5 -210.9 54.15 -210.7 53.8 Q-210.7 53.35 -211.1 53.6 L-210.65 52.7 -210.9 27.5 -210.7 26.85 Q-210.55 26.0 -211.1 26.3 L-210.7 26.0 -210.75 24.75 -211.1 24.85 -210.7 24.45 -210.75 23.35 Q-210.75 23.15 -211.1 23.35 L-210.9 22.75 -210.7 22.25 -210.9 21.85 -211.1 21.45 -210.9 21.15 -210.7 20.75 -210.9 20.35 -211.1 19.95 -210.9 19.6 -210.7 19.3 Q-210.7 18.8 -211.1 19.0 L-210.9 18.4 -210.7 17.75 Q-210.7 17.3 -211.1 17.5 L-210.9 16.85 -210.7 16.3 Q-210.7 15.75 -211.1 16.0 L-210.9 15.35 -210.7 14.65 Q-210.7 14.3 -211.05 14.3 L-210.75 12.95 Q-210.75 12.75 -211.05 12.85 L-210.9 12.35 -210.7 11.8 -210.9 11.4 -211.1 11.05 -210.9 10.65 -210.7 10.3 -210.9 9.9 -211.1 9.5 -210.9 9.15 -210.7 8.75 -211.05 8.3 -210.9 7.25 -211.2 6.9 -211.4 7.25 -211.4 5.8 -211.1 5.6 Q-211.05 4.9 -210.45 4.15 -209.85 3.4 -209.5 3.4 -209.3 3.4 -209.15 3.55 -208.95 3.75 -208.75 3.75 -208.3 3.75 -208.35 3.55 L-207.85 3.6 -207.3 3.75 Q-206.8 3.75 -206.95 3.45 L-205.95 3.8 -205.1 4.15 Q-204.5 4.15 -203.8 3.55 L-202.8 3.75 -200.7 3.25 Q-200.5 3.25 -200.25 3.5 M-169.35 24.45 L-167.8 25.15 -166.95 25.1 -166.1 25.75 Q-165.95 26.2 -166.1 26.85 -165.7 27.6 -165.7 28.1 L-165.75 29.0 Q-166.05 28.95 -166.05 29.25 L-166.05 33.75 Q-166.05 33.9 -165.85 33.85 -165.7 33.65 -165.7 33.95 L-165.85 34.05 Q-166.05 33.9 -166.05 34.1 L-165.85 34.45 Q-165.7 34.6 -165.7 34.85 -165.7 35.3 -166.05 35.7 -165.8 35.5 -165.8 36.45 L-167.25 38.1 -168.95 38.55 -169.75 38.25 -169.55 38.4 -169.85 38.9 -170.1 38.7 -170.25 38.45 -171.35 38.4 -170.9 38.25 -182.25 38.55 -182.75 38.75 -183.35 38.9 -183.65 38.75 Q-183.7 38.55 -183.95 38.55 L-184.3 38.75 -184.65 38.9 -186.6 38.45 Q-187.55 37.8 -187.8 36.9 L-187.8 34.1 Q-187.75 32.35 -188.15 31.3 L-188.3 28.4 -188.45 27.55 Q-188.45 27.25 -188.15 27.35 L-187.9 27.35 Q-188.05 26.2 -186.4 25.5 L-183.15 25.0 -182.95 25.2 -183.0 25.6 -177.65 25.6 -177.45 25.4 Q-177.45 25.2 -177.15 25.2 L-176.9 25.4 -176.6 25.6 Q-176.25 25.6 -176.1 25.4 L-175.7 25.2 -175.3 25.4 -175.0 25.6 Q-174.65 25.6 -174.6 25.4 L-174.2 25.2 Q-174.05 25.2 -173.85 25.4 L-173.5 25.6 Q-173.15 25.6 -173.15 25.3 L-171.2 24.85 Q-171.05 24.85 -170.85 25.05 L-170.55 25.2 -169.9 25.05 -169.35 24.75 Q-169.2 24.75 -169.35 24.45" fill="#000000" fill-rule="evenodd" stroke="none"/>
      <path d="M-155.15 6.2 L-155.35 5.6 Q-155.35 4.85 -153.9 2.7 L-148.0 2.6 -146.45 2.5 Q-144.3 2.5 -143.5 3.15 L-142.6 4.3 -142.6 17.25 -142.4 17.4 Q-142.25 17.35 -142.25 17.55 L-142.25 36.9 -142.0 37.05 -141.8 37.2 -141.8 56.9 -141.55 57.05 Q-141.4 57.0 -141.4 57.2 L-141.4 61.15 -142.3 62.3 Q-144.05 63.1 -144.35 63.1 L-144.55 62.95 Q-144.45 62.75 -144.75 62.75 L-149.7 62.75 -150.0 63.1 -150.1 62.85 -153.1 62.2 -153.9 61.5 Q-153.9 61.05 -154.35 60.3 L-154.35 47.9 Q-154.75 47.35 -154.75 46.35 L-154.7 44.95 Q-154.35 45.25 -154.35 44.8 L-154.35 40.45 Q-154.35 40.1 -154.55 40.05 L-154.75 39.85 -155.0 6.7 -155.15 6.2" fill="#000000" fill-rule="evenodd" stroke="none"/>
      <path d="M-127.65 5.6 L-126.1 4.25 -122.6 3.55 -121.75 2.9 -118.4 2.5 -115.45 2.9 -113.85 4.25 -113.65 5.2 -113.4 6.05 -113.8 6.55 -114.2 10.2 Q-114.2 11.6 -113.85 12.0 L-113.8 12.0 -113.8 12.25 Q-113.8 13.15 -114.6 14.4 -115.2 15.25 -117.5 15.7 L-119.85 15.8 -121.8 17.65 Q-123.2 19.35 -123.2 19.95 -123.2 20.5 -121.8 22.35 -120.5 24.25 -119.85 24.6 L-117.8 25.1 -117.1 25.5 -114.7 25.6 -110.2 27.05 -100.2 28.25 -97.95 29.25 -95.1 29.55 -91.75 31.75 -90.45 31.85 -86.1 35.85 Q-86.1 36.5 -85.35 37.7 L-84.25 39.3 -83.65 40.95 -82.85 44.05 -82.85 48.2 Q-82.85 47.95 -83.15 48.4 L-83.65 51.8 Q-84.0 52.7 -85.05 53.9 L-85.55 55.15 -87.1 57.55 Q-87.9 58.75 -88.85 59.25 L-89.9 60.25 -91.75 60.95 -92.35 61.55 -94.55 62.4 -100.4 62.4 -100.95 62.15 -101.5 61.9 -102.6 60.2 -102.7 58.8 -102.65 57.35 Q-102.35 57.7 -102.35 57.2 L-102.35 52.3 -99.2 50.4 -97.0 50.15 Q-94.85 48.4 -94.85 46.5 L-95.05 44.85 Q-96.8 42.15 -98.1 42.0 -99.6 41.85 -101.7 41.0 -103.7 40.2 -104.9 40.1 -107.95 39.8 -114.7 37.7 L-118.3 37.15 -121.95 36.75 Q-124.1 36.35 -126.1 35.45 -128.45 34.25 -129.7 32.4 L-132.5 29.25 -134.8 25.85 Q-135.05 23.85 -135.75 22.35 L-135.75 18.9 -135.6 18.7 -135.45 18.7 -134.8 14.6 -133.3 11.2 -130.45 8.05 -129.35 6.5 Q-129.0 6.45 -127.65 5.6 M-128.2 46.05 L-125.55 45.45 -124.5 45.5 -122.65 46.5 -121.25 48.05 Q-119.5 50.1 -117.65 50.25 L-114.55 50.4 -112.85 51.8 -112.85 60.8 Q-112.85 61.2 -113.85 62.2 L-115.0 63.1 -119.1 63.1 Q-118.95 63.1 -119.4 62.85 -120.7 62.15 -125.05 60.7 -125.2 59.95 -125.55 59.95 L-125.7 60.3 -127.45 59.1 -129.0 57.6 -129.05 57.05 -130.15 56.35 -132.15 54.4 -132.35 53.2 Q-132.4 52.7 -133.0 52.6 L-132.5 51.35 -130.85 49.1 Q-130.25 48.9 -130.1 48.35 -129.5 48.1 -129.35 47.6 L-128.7 47.4 -128.2 46.05 M-105.9 12.95 L-105.9 4.6 -103.8 2.5 -99.85 2.5 Q-99.6 2.5 -98.55 3.0 L-96.8 3.9 -94.2 4.6 -93.15 5.6 -91.2 6.5 Q-90.95 6.65 -90.25 7.75 -89.5 8.85 -88.75 8.9 L-87.65 10.05 Q-85.8 11.45 -85.8 13.2 -85.8 13.85 -86.15 14.2 L-86.75 14.8 -90.1 18.6 -90.8 19.65 -92.0 19.95 -93.15 20.15 -94.4 20.1 -98.35 16.85 Q-100.5 15.1 -101.45 15.1 L-102.05 15.25 -102.7 15.45 -105.05 14.45 Q-105.3 13.85 -105.9 12.95" fill="#000000" fill-rule="evenodd" stroke="none"/>
      <path d="M-22.5 10.4 L-22.65 10.7 -22.5 11.3 -22.35 11.8 Q-22.35 12.8 -24.6 15.1 L-25.55 15.3 -26.45 15.5 -27.15 15.35 -27.8 15.15 Q-28.35 15.15 -28.4 15.5 L-32.45 15.5 -32.7 15.15 -33.75 15.15 Q-34.85 15.15 -35.05 15.5 L-43.95 15.5 -44.15 15.35 -44.35 15.15 -48.2 15.15 -48.45 15.3 -50.2 15.4 -51.65 15.7 -55.3 15.7 -55.45 15.6 Q-55.35 15.5 -55.6 15.5 L-72.95 15.5 -73.05 15.6 -73.2 15.7 -76.85 15.7 Q-77.6 15.1 -78.3 14.95 L-78.75 12.4 -78.7 10.9 Q-78.35 11.25 -78.35 10.75 L-78.35 6.4 -78.6 6.1 -78.75 5.75 Q-78.75 5.3 -78.0 3.8 -77.75 3.5 -75.75 2.55 L-74.25 2.5 -72.15 2.85 Q-71.7 2.85 -71.6 2.5 L-24.25 2.5 Q-24.0 2.5 -23.8 2.65 L-23.55 2.9 -22.35 4.5 -22.35 10.05 Q-22.35 10.35 -22.5 10.4 M-44.4 32.0 L-44.4 55.15 -44.75 56.15 Q-44.75 57.1 -44.4 57.15 L-44.4 61.65 Q-45.15 61.85 -45.95 62.75 L-50.3 62.75 -50.55 63.05 -52.0 63.1 -56.4 62.7 -57.8 61.25 -57.8 56.8 -57.65 56.55 -57.5 56.65 -57.5 50.7 -57.35 50.55 -57.15 50.55 -57.15 30.8 Q-57.15 30.25 -56.4 29.6 L-55.3 28.95 -54.1 28.8 -53.65 28.45 Q-53.45 28.45 -53.15 28.9 L-45.6 28.9 -44.1 30.95 -44.25 31.05 -44.4 31.2 -44.25 31.4 Q-44.1 31.35 -44.1 31.55 -44.1 31.9 -44.25 31.8 L-44.4 32.0" fill="#000000" fill-rule="evenodd" stroke="none"/>
      <path d="M19.75 2.9 Q21.15 3.65 21.3 5.2 L21.85 8.15 23.75 12.75 24.3 15.5 26.05 18.2 27.1 21.35 27.7 22.2 29.2 25.75 29.4 26.65 Q30.2 27.6 31.5 30.1 L32.15 34.55 34.35 38.75 36.5 44.75 38.35 47.6 40.75 53.6 40.9 55.3 41.95 57.6 Q43.1 59.9 43.1 60.6 43.1 61.4 42.2 62.3 L41.1 62.75 35.75 62.75 35.55 62.95 35.4 63.1 31.75 63.1 31.5 62.85 30.2 62.7 Q29.65 61.95 29.0 61.9 L28.2 60.7 Q28.1 59.3 27.45 58.2 L26.45 56.7 Q25.3 55.0 24.55 55.0 L16.5 55.0 Q16.2 55.0 16.3 55.2 16.4 55.4 16.15 55.4 L12.45 55.4 Q11.65 54.7 11.4 54.2 11.25 53.85 11.25 53.05 L11.25 51.85 12.1 50.8 13.5 48.9 13.65 47.45 13.75 46.05 Q14.25 44.45 15.25 43.05 L16.6 42.75 18.15 41.7 19.35 41.65 Q20.25 41.05 20.25 39.8 L20.2 38.6 19.2 37.55 19.05 36.7 18.5 36.05 15.1 28.05 14.15 26.65 13.5 22.2 12.85 21.7 Q12.75 20.9 11.3 19.1 L10.35 16.3 9.15 13.55 8.75 12.05 6.7 8.8 Q5.4 6.7 5.4 5.3 5.4 4.45 5.8 3.9 L6.6 2.85 15.8 2.85 Q16.3 2.5 17.15 2.5 L19.75 2.9 M-2.85 20.35 Q-2.5 20.35 -1.85 20.8 -0.5 21.75 -0.3 22.65 L0.25 25.2 0.55 26.15 0.75 27.0 Q2.85 29.45 4.0 32.5 4.4 33.8 4.4 35.25 4.4 36.6 4.05 37.55 L3.2 39.65 2.25 40.7 2.15 41.5 1.1 43.1 1.0 44.75 Q0.5 45.2 -0.05 46.15 L-1.7 50.1 -2.15 52.85 -4.7 59.45 Q-4.85 60.2 -5.75 61.1 L-7.35 62.7 -8.2 62.9 -9.2 63.1 -9.7 62.95 -10.1 62.75 -16.5 62.75 -17.0 62.95 -17.5 63.1 -18.35 62.9 -19.4 62.7 -20.1 61.5 -20.25 60.0 Q-20.25 58.8 -19.55 57.55 L-19.4 56.65 -17.0 52.85 -16.95 52.0 -15.45 48.35 -14.45 47.0 -13.0 43.05 -12.4 42.3 -11.5 38.55 -10.1 36.05 -9.95 35.15 -9.4 34.15 -8.35 30.85 -7.65 30.25 -7.15 28.55 -6.15 27.05 -6.0 25.75 Q-4.8 24.0 -4.4 21.2 -3.65 20.35 -2.85 20.35" fill="#000000" fill-rule="evenodd" stroke="none"/>
      <path d="M95.55 21.65 Q95.55 21.4 95.15 21.9 L94.3 27.25 Q89.0 34.35 83.6 36.2 82.6 36.25 80.2 37.05 L75.95 37.05 75.7 37.3 73.05 37.45 72.5 37.75 71.85 37.5 71.1 37.3 Q69.65 35.7 69.65 34.2 L69.65 25.9 Q71.65 24.45 73.3 24.45 L75.9 24.85 77.45 24.55 79.35 24.4 80.35 23.75 81.25 23.6 82.8 22.5 Q83.9 19.5 83.9 18.45 83.9 17.7 83.7 17.5 83.15 16.8 81.25 15.65 L80.1 15.2 75.25 15.2 Q74.95 15.2 75.05 15.4 L74.85 15.6 69.9 15.6 Q69.85 15.1 69.25 14.75 L69.25 9.3 68.9 9.15 68.65 7.45 68.45 6.05 68.65 4.95 68.9 3.7 69.95 2.9 72.6 2.5 77.4 2.5 Q77.5 2.25 77.85 2.5 L78.6 2.5 79.2 2.3 79.9 2.1 80.35 2.4 83.2 2.9 Q85.5 4.1 86.1 4.1 L91.75 7.75 93.85 11.05 94.6 12.75 95.05 14.5 95.05 16.05 Q95.05 17.1 95.55 17.4 L95.55 21.65 M59.9 4.8 L59.9 9.5 60.25 9.65 60.55 11.5 60.55 26.9 Q60.55 27.15 60.7 27.05 L60.95 27.2 60.95 36.15 61.15 36.3 61.3 36.45 61.3 40.15 61.5 40.4 Q61.65 40.35 61.65 40.5 L61.65 51.8 Q61.65 52.0 61.85 51.9 L62.1 52.15 62.1 60.7 61.8 61.15 61.6 61.5 Q61.1 61.55 60.35 62.4 L51.25 62.4 50.7 62.75 49.95 62.3 49.35 61.85 48.95 61.3 48.7 60.65 Q48.7 60.35 48.95 60.5 49.2 60.6 49.2 60.3 L48.95 60.25 Q48.7 60.55 48.7 60.25 L48.7 47.5 48.65 47.3 48.4 47.4 48.4 39.25 48.3 39.05 47.95 39.15 47.95 28.05 47.85 27.8 47.6 27.95 47.6 17.2 47.5 17.0 47.2 17.1 47.2 7.4 47.0 7.1 46.8 6.8 47.0 5.9 47.3 4.9 48.4 3.95 53.05 3.95 53.2 3.8 53.45 3.6 57.85 3.6 Q58.15 3.6 59.9 4.8 M80.0 47.9 Q83.85 48.35 85.2 45.25 85.75 45.2 86.75 44.05 87.5 44.15 88.45 43.6 89.55 42.85 90.05 42.75 L91.95 42.0 93.7 40.8 94.2 40.7 Q97.05 37.85 98.3 37.85 100.75 37.85 100.75 41.65 L100.35 43.65 100.55 44.2 100.75 44.8 100.4 45.8 100.0 46.85 99.45 49.45 95.8 54.75 Q95.1 55.0 94.75 55.75 94.2 56.6 93.25 56.9 L92.85 57.85 Q92.3 57.95 91.35 58.95 89.7 59.5 89.0 59.8 L87.15 59.9 86.9 60.1 Q85.6 60.2 83.85 60.8 L77.1 60.8 76.85 61.05 73.5 61.45 72.95 61.55 Q72.3 61.55 71.45 60.95 L70.55 60.1 70.55 55.25 70.5 55.0 70.25 55.15 70.25 50.0 72.25 48.25 79.75 48.25 80.0 47.9" fill="#000000" fill-rule="evenodd" stroke="none"/>
      <path d="M153.75 48.05 L154.15 48.2 154.45 48.05 Q154.55 47.9 154.8 47.9 155.15 47.9 155.7 48.8 L155.75 49.65 155.9 49.3 155.9 49.75 156.15 50.3 156.4 50.85 156.2 51.2 Q156.05 51.3 156.05 51.55 L156.2 51.9 156.4 52.2 156.2 52.6 156.05 52.9 Q156.05 53.5 156.35 53.2 L156.2 53.8 156.05 54.3 Q156.05 54.9 156.35 54.65 L156.2 55.15 156.05 55.7 156.25 56.1 156.55 56.5 156.05 57.35 Q156.05 57.85 156.35 57.7 L156.05 58.0 156.2 59.1 156.4 59.1 155.35 60.7 154.9 61.25 Q154.45 61.45 154.45 61.65 L153.6 61.7 152.8 61.45 152.1 61.15 Q151.55 61.15 151.75 61.5 L151.25 61.4 150.7 61.15 150.3 61.45 150.0 61.7 Q149.4 61.7 149.2 61.15 L148.5 61.7 148.1 61.45 Q147.95 61.15 147.65 61.15 L146.05 61.7 145.5 61.55 145.0 61.4 Q144.7 61.4 144.55 61.55 L144.15 61.7 143.85 61.55 143.5 61.4 Q143.3 61.4 143.15 61.55 L142.75 61.7 142.15 61.15 141.4 61.7 Q140.9 61.65 140.9 62.0 L140.7 61.8 140.1 61.9 139.65 62.15 139.3 62.5 Q139.1 62.5 138.9 62.15 L138.6 61.9 137.8 62.2 137.15 61.55 136.45 61.55 136.25 62.2 135.6 61.9 134.9 62.5 134.9 61.85 133.6 61.55 Q133.3 61.55 132.85 61.9 L132.15 62.2 131.4 61.65 130.5 60.8 130.65 60.5 130.85 60.0 130.65 59.65 130.5 59.2 130.65 58.85 130.85 58.45 130.65 58.15 130.5 57.9 130.75 57.55 131.0 57.2 130.5 56.5 131.0 55.8 130.85 55.35 130.7 54.95 Q130.7 54.75 130.85 54.65 L131.0 54.3 130.85 54.0 130.7 53.65 131.25 52.55 130.5 52.2 131.25 51.1 Q131.25 50.9 130.85 51.1 131.55 49.7 131.6 48.65 L131.8 49.1 132.9 48.2 133.45 48.8 Q134.05 48.4 134.35 48.4 134.7 48.35 134.85 48.8 135.3 48.75 135.1 48.4 L136.45 48.75 136.6 48.55 Q136.95 48.25 137.4 48.15 L137.6 47.9 137.9 48.25 Q139.45 48.25 140.7 48.75 L141.05 48.55 141.25 48.25 142.75 48.2 Q144.65 48.2 145.0 48.75 145.3 48.2 145.65 48.2 L146.1 48.4 146.15 48.65 147.15 48.25 147.75 47.9 148.15 48.05 148.5 48.2 Q149.3 48.35 149.0 47.9 L149.3 48.05 149.7 48.2 150.25 47.95 150.65 47.7 151.35 48.2 151.7 47.95 152.1 47.7 152.35 47.95 152.65 48.2 153.1 48.05 Q153.25 47.9 153.45 47.9 153.7 47.9 153.75 48.05 M108.1 4.4 L107.85 3.9 108.7 3.9 108.7 3.15 Q108.95 3.15 109.3 3.45 L109.9 2.75 110.45 3.0 110.85 3.3 111.15 3.0 111.55 2.75 111.9 3.0 112.25 3.3 112.65 3.0 Q112.8 2.75 113.0 2.75 L113.35 3.0 113.65 3.3 114.05 3.15 Q114.2 2.9 114.5 2.9 L114.85 2.95 114.85 2.85 Q114.85 2.6 115.0 2.6 L115.2 2.7 114.9 2.5 115.4 2.6 115.85 2.75 116.25 2.6 116.65 2.5 Q116.55 2.75 117.3 2.75 118.0 2.9 117.75 2.5 L118.0 2.85 120.15 2.85 121.6 4.6 121.4 4.9 121.2 5.35 121.4 5.7 121.6 6.05 121.4 6.4 121.2 6.8 121.4 7.15 121.6 7.5 121.4 7.8 Q121.2 7.9 121.2 8.15 121.15 8.9 121.6 8.7 121.2 9.15 121.2 9.6 121.15 10.35 121.6 10.05 L121.05 11.4 121.15 12.1 121.3 12.7 Q121.3 13.0 121.55 12.7 121.65 13.0 121.4 13.2 L121.2 13.7 121.4 14.15 121.6 14.6 121.4 14.95 121.2 15.3 Q121.2 15.75 121.55 15.6 L121.4 16.15 121.2 16.7 121.4 17.1 121.6 17.4 121.4 17.65 121.2 17.95 121.4 18.25 121.6 18.55 121.4 19.0 121.2 19.4 121.4 19.8 121.6 20.3 121.3 20.8 121.15 22.65 121.05 24.15 Q121.05 25.6 121.6 26.15 121.2 26.2 121.2 26.65 121.2 27.15 121.55 26.9 L121.4 27.5 121.2 28.1 Q121.2 28.5 121.55 28.35 L121.4 28.9 121.2 29.4 121.5 29.85 121.75 30.25 121.6 34.4 121.4 34.75 121.2 35.1 121.4 35.5 121.6 35.95 121.2 36.45 Q121.35 36.8 121.8 36.9 L121.95 37.85 121.9 38.75 121.45 39.4 121.7 39.8 121.95 40.15 121.7 40.5 Q121.45 40.65 121.45 40.85 L121.7 41.2 121.95 41.65 121.7 41.9 121.45 42.2 Q121.45 42.7 122.3 43.75 L121.65 43.4 121.45 43.75 121.75 44.3 121.5 44.75 Q121.2 44.9 121.2 45.1 L121.5 45.45 121.75 45.85 121.5 46.15 Q121.2 46.25 121.2 46.45 L121.5 46.9 121.75 47.2 121.2 47.75 Q121.95 48.45 121.95 49.25 L121.8 50.0 121.6 50.7 121.95 51.45 122.3 52.3 122.1 52.6 121.95 52.9 Q121.95 53.5 122.3 53.2 L121.95 54.3 Q121.95 54.6 122.1 54.75 L122.3 55.0 122.1 55.4 121.95 55.8 Q121.95 56.05 122.1 56.1 L122.3 56.5 122.1 56.85 121.95 57.2 Q121.8 58.0 122.3 57.7 121.95 58.25 121.95 58.55 L122.1 58.95 122.3 59.45 122.1 59.75 121.95 60.0 122.1 60.25 122.3 60.6 121.8 61.5 121.0 62.5 120.65 62.85 Q120.45 63.1 120.05 63.1 119.8 63.1 119.75 62.85 L119.4 62.6 119.0 62.85 118.65 63.1 118.35 62.85 Q118.15 62.6 117.95 62.6 L117.6 62.85 117.3 63.1 116.85 62.85 116.45 62.6 Q116.2 62.6 116.1 62.85 L115.75 63.1 115.4 62.85 115.0 62.6 114.75 62.85 114.4 63.1 Q114.1 63.1 114.05 62.85 113.9 62.6 113.7 62.6 113.5 62.6 113.4 62.8 L113.0 63.0 112.65 62.8 112.25 62.6 Q112.1 62.6 111.9 62.8 L111.6 63.0 Q111.25 63.0 111.25 62.55 L110.85 62.5 Q110.5 62.5 110.15 63.0 109.75 62.6 109.9 62.4 L109.5 62.6 Q109.15 62.6 108.85 62.3 L108.3 62.05 Q108.5 61.4 107.8 60.7 L108.3 58.9 108.05 58.35 107.8 57.9 108.05 57.55 108.3 57.2 Q108.3 56.85 107.8 56.5 L108.3 55.7 108.1 55.3 107.95 54.95 108.1 54.65 108.3 54.3 108.1 54.0 107.95 53.65 108.1 53.0 108.15 52.4 108.15 52.2 Q108.15 51.9 108.3 51.9 L108.65 51.9 108.3 51.8 108.6 51.35 108.85 50.8 108.6 50.4 108.3 50.1 Q108.3 49.85 108.6 49.7 L108.85 49.25 108.55 48.7 108.15 48.1 108.3 46.5 108.1 45.75 107.95 45.0 108.1 44.75 108.3 44.4 107.8 43.75 108.3 42.95 108.1 42.55 107.95 42.2 108.1 41.85 108.3 41.45 108.1 41.15 Q107.95 41.1 107.95 40.85 L108.1 40.45 108.3 40.1 108.1 39.75 107.95 39.4 108.1 39.15 108.3 38.8 107.8 38.25 108.25 37.7 108.3 36.55 Q108.3 35.4 107.8 35.25 L108.3 34.1 108.1 33.9 107.95 33.8 108.3 28.8 108.25 27.35 107.8 26.55 Q107.8 26.35 107.95 26.25 L108.1 26.0 107.95 25.55 107.8 25.15 Q107.8 24.95 107.95 24.85 L108.1 24.55 107.95 24.1 Q107.8 23.9 107.8 23.6 107.8 23.35 107.95 23.35 L108.1 23.05 107.95 22.7 Q107.8 22.65 107.8 22.4 107.8 22.2 107.95 22.05 L108.1 21.65 107.95 21.3 Q107.8 21.25 107.8 21.0 107.8 20.75 107.95 20.65 L108.1 20.35 Q108.1 20.0 107.8 20.15 L108.1 18.7 107.95 18.3 107.8 17.9 Q107.8 17.6 107.95 17.6 L108.1 17.4 107.8 17.35 108.1 16.0 107.95 15.65 Q107.8 15.6 107.8 15.35 L108.3 14.75 107.8 13.85 Q107.8 13.6 107.95 13.5 L108.1 13.2 107.95 12.8 Q107.8 12.75 107.8 12.5 L107.95 12.1 108.1 11.7 107.95 11.4 107.8 11.05 107.95 10.65 108.1 10.35 107.95 9.9 107.8 9.45 Q107.8 9.2 107.95 9.2 L108.1 8.9 Q108.1 8.65 107.8 8.8 107.8 8.1 108.1 7.5 L107.95 7.1 107.8 6.7 Q107.8 6.5 107.95 6.4 L108.1 6.05 107.95 5.7 107.8 5.35 Q107.8 5.15 107.95 4.85 L108.1 4.4" fill="#000000" fill-rule="evenodd" stroke="none"/>
      <path d="M185.0 4.15 L185.85 3.3 186.95 3.1 187.95 2.85 188.85 2.9 Q188.7 3.25 189.15 3.25 L200.5 3.25 200.65 3.0 200.85 2.85 206.6 2.85 Q207.1 2.55 207.75 2.5 L208.75 2.7 209.85 2.9 210.7 3.75 211.15 6.5 210.75 8.45 211.15 8.9 211.15 12.85 210.9 13.55 210.7 14.0 209.85 14.8 208.7 15.1 207.6 15.3 206.2 14.95 195.9 14.95 194.3 15.3 191.35 14.95 Q189.95 14.95 189.8 15.3 L185.75 15.3 Q184.3 14.35 184.3 9.45 184.3 4.8 185.0 4.15 M175.7 7.5 L175.7 50.55 Q175.7 50.8 175.4 50.7 175.2 50.6 175.2 50.85 L175.2 55.8 Q175.2 56.05 175.4 55.95 175.7 55.85 175.7 56.15 L175.7 61.15 174.2 62.7 173.7 62.9 172.95 63.1 172.75 62.95 172.55 62.75 163.45 62.75 162.3 61.5 161.9 59.1 161.95 58.0 Q162.15 58.2 162.15 57.85 L162.15 50.3 Q162.15 50.05 162.35 50.15 L162.6 50.15 162.6 16.15 Q162.6 15.85 162.7 15.85 L162.95 16.0 162.95 9.3 162.9 9.15 162.6 9.25 162.6 5.65 164.3 3.7 166.05 2.85 166.2 3.0 166.55 3.25 171.55 3.25 172.15 3.0 172.85 2.85 173.75 3.1 174.7 3.3 Q176.1 5.15 176.1 6.25 L176.05 7.25 Q175.7 7.05 175.7 7.5 M209.15 49.3 L210.25 49.6 211.55 50.8 211.55 59.45 Q211.1 59.7 209.85 61.1 L208.95 61.1 Q208.2 61.1 208.05 61.55 L197.6 61.55 197.4 61.8 197.2 62.0 189.55 62.0 189.3 62.3 187.75 62.4 Q186.55 62.4 184.55 61.15 L184.55 56.8 184.75 56.35 184.9 55.95 184.55 53.9 Q184.55 51.95 185.35 50.4 L186.55 49.6 196.45 49.6 196.75 49.65 196.75 49.9 198.05 49.95 Q199.4 49.95 199.55 49.6 L206.95 49.6 Q207.4 49.25 208.2 49.1 L209.15 49.3 M207.45 36.45 L206.55 37.75 Q206.0 38.45 205.0 38.25 L190.55 38.05 188.95 38.25 188.35 38.7 Q187.9 39.05 187.65 39.05 186.8 39.05 185.35 37.95 L184.9 37.2 184.9 33.4 Q184.9 33.2 185.05 33.25 L185.3 33.25 185.3 29.8 184.9 28.7 Q184.9 27.6 185.75 26.05 186.55 25.85 187.1 25.45 L188.3 25.2 189.25 25.3 Q189.1 25.6 189.55 25.6 L200.55 25.6 200.75 25.3 204.3 24.85 Q207.65 24.85 207.65 28.7 L207.45 36.45" fill="#000000" fill-rule="evenodd" stroke="none"/>
      <path d="M24.85 -107.75 L25.45 -107.45 25.75 -106.9 37.95 -52.15 37.9 -51.4 37.85 -51.4 37.35 -50.9 12.45 -38.75 12.35 -38.7 11.55 -38.6 11.45 -38.65 10.9 -39.15 3.8 -52.05 -34.1 -52.05 -34.6 -52.2 -34.7 -52.25 -35.1 -52.7 -46.35 -76.35 -46.45 -76.95 -46.25 -77.5 -45.8 -77.9 24.2 -107.7 24.85 -107.75 M13.95 -92.05 L14.0 -92.0 14.25 -91.25 12.55 -62.05 28.1 -61.45 28.9 -61.1 29.2 -60.3 28.8 -59.5 Q28.45 -59.2 28.05 -59.2 L9.6 -59.9 5.75 -53.15 12.35 -41.15 35.55 -52.5 23.85 -105.05 -6.3 -92.2 -3.65 -54.3 3.85 -54.3 8.0 -61.6 8.4 -62.0 9.0 -62.15 10.3 -62.1 12.0 -91.35 Q12.0 -91.85 12.35 -92.15 L12.4 -92.15 Q12.75 -92.45 13.15 -92.4 L13.2 -92.4 Q13.65 -92.4 13.95 -92.05 M-22.2 -54.3 L-28.1 -82.95 -43.8 -76.25 -33.35 -54.3 -22.2 -54.3 M-5.9 -54.3 L-8.45 -91.25 -25.95 -83.85 -19.95 -54.3 -5.9 -54.3" fill="#ffffff" fill-rule="evenodd" stroke="none"/>
    </g>
  </defs>
</svg>
