<?xml version="1.0" encoding="UTF-8" standalone="no"?>
<svg xmlns:xlink="http://www.w3.org/1999/xlink" height="300.0px" width="300.0px" xmlns="http://www.w3.org/2000/svg">
  <g transform="matrix(1.0, 0.0, 0.0, 1.0, 0.0, 0.0)">
    <use height="330.65" transform="matrix(1.0, 0.0, 0.0, 1.0, 55.75, -57.6)" width="183.35" xlink:href="#shape0"/>
  </g>
  <defs>
    <g id="shape0" transform="matrix(1.0, 0.0, 0.0, 1.0, -55.75, 57.6)">
      <path d="M206.2 138.1 L200.05 138.1 203.75 125.8 211.35 125.8 206.2 138.1 M213.0 138.0 Q213.0 132.35 216.4 128.75 219.8 125.15 225.4 125.15 229.4 125.15 233.1 126.95 L233.1 136.1 Q229.75 134.0 227.05 134.0 222.95 134.0 222.95 137.8 222.95 139.9 226.35 142.65 231.15 146.65 232.55 148.35 235.95 152.45 235.95 157.85 235.95 164.2 232.1 167.6 228.25 171.05 221.8 171.05 217.3 171.05 214.05 168.9 L214.05 159.55 Q216.7 162.2 220.15 162.2 222.2 162.2 224.0 161.0 225.8 159.85 225.8 157.85 225.8 155.25 222.45 152.15 L216.35 146.45 Q213.0 142.6 213.0 138.0 M185.55 141.45 L185.65 141.45 190.45 125.8 200.5 125.8 189.95 153.65 189.95 170.45 180.5 170.45 180.5 153.65 171.05 126.8 163.05 147.35 173.85 170.45 163.65 170.45 154.55 149.85 154.55 170.45 145.1 170.45 145.1 125.8 154.55 125.8 154.55 145.6 161.75 125.8 180.75 125.8 185.55 141.45 M174.6 185.15 L164.9 185.15 164.9 194.6 173.2 194.6 173.2 202.95 164.9 202.95 164.9 213.1 175.0 213.1 175.0 221.45 155.45 221.45 155.45 176.8 174.6 176.8 174.6 185.15 M187.0 176.8 L197.85 202.4 198.0 202.3 198.0 176.8 206.85 176.8 206.85 221.45 198.65 221.45 187.85 195.9 187.85 221.45 179.0 221.45 179.0 176.8 187.0 176.8 M210.65 185.15 L210.65 176.8 232.45 176.8 232.45 185.15 226.3 185.15 226.3 221.45 216.8 221.45 216.8 185.15 210.65 185.15 M71.55 125.8 Q77.8 125.8 81.1 129.2 84.4 132.6 84.4 138.9 84.4 148.25 77.55 150.3 L85.3 170.45 75.2 170.45 68.3 150.8 68.3 170.45 58.85 170.45 58.85 125.8 71.55 125.8 M68.3 146.0 Q74.7 146.0 74.7 140.05 74.7 134.1 68.3 134.1 L68.3 146.0 M71.85 185.1 L71.85 197.0 Q78.25 197.0 78.25 191.05 78.25 185.1 71.85 185.1 M75.1 176.8 Q81.35 176.8 84.65 180.2 87.95 183.6 87.95 189.9 87.95 199.25 81.1 201.3 L88.85 221.45 78.75 221.45 71.85 201.8 71.85 221.45 62.4 221.45 62.4 176.8 75.1 176.8 M135.8 125.15 Q138.35 125.15 141.1 126.0 L141.1 136.05 Q139.3 134.0 136.7 134.0 132.4 134.0 130.4 139.25 129.05 142.9 129.05 148.1 129.05 153.3 130.4 156.95 132.4 162.2 136.7 162.2 139.3 162.2 141.1 160.15 L141.1 170.2 135.8 171.05 Q127.55 171.05 122.95 163.35 119.1 156.95 119.1 148.1 119.1 139.25 122.95 132.85 127.55 125.15 135.8 125.15 M101.35 134.0 Q96.3 134.0 96.3 148.1 96.3 162.2 101.35 162.2 106.35 162.2 106.35 148.1 106.35 134.0 101.35 134.0 M89.3 133.0 Q93.15 125.15 101.35 125.15 109.55 125.15 113.4 133.0 116.3 138.95 116.3 148.1 116.3 157.25 113.4 163.2 109.55 171.05 101.35 171.05 93.15 171.05 89.3 163.2 86.4 157.25 86.4 148.1 86.4 138.95 89.3 133.0 M116.95 184.0 Q119.85 189.95 119.85 199.1 119.85 208.25 116.95 214.2 113.1 222.05 104.9 222.05 96.7 222.05 92.85 214.2 89.95 208.25 89.95 199.1 89.95 189.95 92.85 184.0 96.7 176.15 104.9 176.15 113.1 176.15 116.95 184.0 M133.45 185.15 L133.45 213.1 134.3 213.1 Q141.2 213.1 141.2 199.15 141.2 185.15 134.3 185.15 L133.45 185.15 M133.45 176.8 Q142.9 176.8 147.35 183.55 151.15 189.25 151.15 199.15 151.15 208.9 147.35 214.7 142.85 221.45 133.45 221.45 L124.0 221.45 124.0 176.8 133.45 176.8 M138.0 228.0 L138.0 238.05 Q136.2 236.0 133.6 236.0 129.3 236.0 127.3 241.25 125.95 244.9 125.95 250.1 125.95 255.3 127.3 258.95 129.3 264.2 133.6 264.2 136.2 264.2 138.0 262.15 L138.0 272.2 132.7 273.05 Q124.45 273.05 119.85 265.35 116.0 258.95 116.0 250.1 116.0 241.25 119.85 234.85 124.45 227.15 132.7 227.15 135.25 227.15 138.0 228.0 M151.45 227.8 L151.45 247.6 158.65 227.8 168.35 227.8 159.95 249.35 170.75 272.45 160.55 272.45 151.45 251.85 151.45 272.45 142.0 272.45 142.0 227.8 151.45 227.8 M109.9 199.1 Q109.9 185.0 104.9 185.0 99.85 185.0 99.85 199.1 99.85 213.2 104.9 213.2 109.9 213.2 109.9 199.1 M98.25 227.15 Q106.45 227.15 110.3 235.0 113.2 240.95 113.2 250.1 113.2 259.25 110.3 265.2 106.45 273.05 98.25 273.05 90.05 273.05 86.2 265.2 83.3 259.25 83.3 250.1 83.3 240.95 86.2 235.0 90.05 227.15 98.25 227.15 M103.25 250.1 Q103.25 236.0 98.25 236.0 93.2 236.0 93.2 250.1 93.2 264.2 98.25 264.2 103.25 264.2 103.25 250.1 M65.2 236.1 L65.2 248.0 Q71.6 248.0 71.6 242.05 71.6 236.1 65.2 236.1 M78.0 231.2 Q81.3 234.6 81.3 240.9 81.3 250.25 74.45 252.3 L82.2 272.45 72.1 272.45 65.2 252.8 65.2 272.45 55.75 272.45 55.75 227.8 68.45 227.8 Q74.7 227.8 78.0 231.2 M219.55 230.75 Q222.95 227.15 228.55 227.15 232.55 227.15 236.25 228.95 L236.25 238.1 Q232.9 236.0 230.2 236.0 226.1 236.0 226.1 239.8 226.1 241.9 229.5 244.65 234.3 248.65 235.7 250.35 239.1 254.45 239.1 259.85 239.1 266.2 235.25 269.6 231.4 273.05 224.95 273.05 220.45 273.05 217.2 270.9 L217.2 261.55 Q219.85 264.2 223.3 264.2 225.35 264.2 227.15 263.0 228.95 261.85 228.95 259.85 228.95 257.25 225.6 254.15 L219.5 248.45 Q216.15 244.6 216.15 240.0 216.15 234.35 219.55 230.75 M208.3 236.15 L208.3 272.45 198.8 272.45 198.8 236.15 192.65 236.15 192.65 227.8 214.45 227.8 214.45 236.15 208.3 236.15 M180.55 245.6 L188.85 245.6 188.85 253.95 180.55 253.95 180.55 264.1 190.65 264.1 190.65 272.45 171.1 272.45 171.1 227.8 190.25 227.8 190.25 236.15 180.55 236.15 180.55 245.6" fill="#90278e" fill-rule="evenodd" stroke="none"/>
      <path d="M146.75 -3.1 Q150.85 -35.1 155.85 -57.6 165.85 11.15 165.35 66.15 165.1 93.65 162.85 107.4 L142.85 108.4 Q138.5 60.9 146.75 -3.1" fill="#90278e" fill-rule="evenodd" stroke="none"/>
      <path d="M141.85 71.4 L144.85 92.4 130.85 94.4 141.85 71.4" fill="#90278e" fill-rule="evenodd" stroke="none"/>
      <path d="M173.8 89.9 L159.95 92.4 163.15 71.4 173.8 89.9" fill="#90278e" fill-rule="evenodd" stroke="none"/>
      <path d="M90.85 105.4 Q77.75 113.55 66.5 114.3 60.85 114.65 57.85 113.4 65.75 114.05 70.15 112.3 78.8 107.95 89.35 102.9 99.4 98.15 106.0 96.75 L117.1 96.4 Q120.55 96.9 128.6 98.7 137.0 100.25 146.35 100.4 L157.35 101.05 151.85 101.4 153.9 101.45 Q155.2 102.0 151.35 104.4 146.95 107.2 139.15 106.3 136.2 106.0 123.9 103.2 113.7 100.9 107.25 100.95 97.95 101.0 90.85 105.4" fill="#90278e" fill-rule="evenodd" stroke="none"/>
    </g>
  </defs>
</svg>
