<?xml version="1.0" encoding="UTF-8" standalone="no"?>
<svg xmlns:xlink="http://www.w3.org/1999/xlink" height="300.0px" width="300.0px" xmlns="http://www.w3.org/2000/svg">
  <g transform="matrix(1.0, 0.0, 0.0, 1.0, 0.0, 0.0)">
    <use height="137.05" transform="matrix(1.0, 0.0, 0.0, 1.0, 2.85, 81.0)" width="292.55" xlink:href="#shape0"/>
  </g>
  <defs>
    <g id="shape0" transform="matrix(1.0, 0.0, 0.0, 1.0, -2.85, -81.0)">
      <path d="M33.2 92.05 Q32.4 93.5 31.35 94.15 35.35 96.05 35.35 101.0 35.35 104.65 32.95 106.8 30.65 108.85 26.9 108.85 L23.5 108.85 23.5 102.5 26.95 102.0 Q28.0 101.45 28.0 100.05 28.0 98.65 26.8 98.05 25.75 97.55 23.5 97.55 L23.5 91.85 Q25.1 91.85 26.0 91.3 26.85 90.7 26.85 89.8 26.85 87.3 24.65 87.3 22.1 87.3 22.1 90.05 L22.1 108.85 15.3 108.85 15.3 91.1 Q15.3 86.3 17.95 83.6 20.55 81.0 25.05 81.0 29.6 81.0 32.0 83.6 34.0 85.8 34.0 89.25 34.0 90.55 33.2 92.05" fill="#000000" fill-rule="evenodd" stroke="none"/>
      <path d="M54.85 100.7 Q54.85 104.55 52.75 106.85 50.55 109.3 46.65 109.3 42.8 109.3 40.6 106.85 38.5 104.55 38.5 100.7 L38.5 89.8 44.5 89.8 44.5 100.7 Q44.5 101.95 45.1 102.65 45.65 103.35 46.65 103.35 47.65 103.35 48.25 102.65 48.85 101.95 48.85 100.7 L48.85 89.8 54.85 89.8 54.85 100.7" fill="#000000" fill-rule="evenodd" stroke="none"/>
      <path d="M63.35 93.0 L63.4 93.0 Q64.05 91.1 65.5 90.4 66.65 89.8 68.9 89.8 L68.9 95.55 Q65.75 95.65 64.9 96.55 64.15 97.35 64.15 99.9 L64.15 108.85 57.9 108.85 57.9 89.8 63.35 89.8 63.35 93.0" fill="#000000" fill-rule="evenodd" stroke="none"/>
      <path d="M77.1 97.95 L77.1 108.85 71.1 108.85 71.1 97.95 Q71.1 94.15 73.2 91.8 75.4 89.35 79.25 89.35 83.15 89.35 85.35 91.8 87.45 94.15 87.45 97.95 L87.45 108.85 81.4 108.85 81.4 97.95 Q81.4 96.7 80.85 96.0 80.25 95.3 79.25 95.3 78.25 95.3 77.7 96.0 77.1 96.7 77.1 97.95" fill="#000000" fill-rule="evenodd" stroke="none"/>
      <path d="M94.5 88.1 Q93.0 88.1 92.0 87.1 90.95 86.05 90.95 84.55 90.95 83.0 92.0 82.0 93.0 81.0 94.5 81.0 96.0 81.0 97.05 82.0 98.05 83.0 98.05 84.55 98.05 86.05 97.05 87.1 96.0 88.1 94.5 88.1 M97.6 108.85 L91.35 108.85 91.35 89.8 97.6 89.8 97.6 108.85" fill="#000000" fill-rule="evenodd" stroke="none"/>
      <path d="M121.2 101.85 Q119.8 105.15 117.05 107.2 114.15 109.3 110.7 109.3 106.75 109.3 103.8 106.35 100.85 103.4 100.85 99.35 100.85 95.25 103.8 92.3 106.75 89.35 110.7 89.35 116.65 89.35 120.0 95.4 L110.55 101.9 108.2 98.15 113.3 94.8 Q112.2 94.1 110.9 94.1 109.1 94.1 107.95 95.7 106.9 97.15 106.9 99.0 106.9 100.85 108.05 102.3 109.25 103.85 111.1 103.85 112.8 103.85 114.45 102.55 115.95 101.3 116.7 99.55 L121.2 101.85" fill="#000000" fill-rule="evenodd" stroke="none"/>
      <path d="M121.0 90.35 L121.7 81.45 126.85 81.45 124.95 90.35 121.0 90.35" fill="#000000" fill-rule="evenodd" stroke="none"/>
      <path d="M138.5 107.3 Q136.8 108.85 133.7 108.85 L126.7 108.85 126.7 103.5 132.7 103.5 Q133.8 103.5 133.8 102.65 133.8 102.1 132.7 101.6 L130.35 100.6 Q126.9 98.9 126.9 95.2 126.9 92.65 128.85 91.15 130.55 89.8 133.0 89.8 L139.1 89.8 139.1 94.9 134.2 94.9 133.25 95.15 Q132.9 95.4 132.9 95.8 L136.6 98.0 Q140.25 99.85 140.25 102.85 140.25 105.7 138.5 107.3" fill="#000000" fill-rule="evenodd" stroke="none"/>
      <path d="M74.5 118.0 Q79.65 122.1 79.65 128.65 79.65 131.15 79.0 133.0 78.25 134.85 76.6 136.7 82.6 140.4 82.6 148.25 82.6 154.9 78.3 158.8 74.25 162.45 67.9 162.35 L61.8 162.35 61.8 149.8 Q67.45 149.5 67.45 146.45 67.45 144.4 65.45 143.75 L61.8 143.35 61.8 132.9 Q63.35 132.9 64.25 132.05 65.2 131.2 65.2 129.75 65.2 128.7 64.25 127.95 63.4 127.4 62.35 127.4 60.95 127.4 60.35 128.15 59.75 129.05 59.75 131.0 L59.75 162.35 45.05 162.35 45.05 130.1 Q45.05 122.95 49.95 118.6 54.8 114.25 63.0 114.25 69.7 114.25 74.5 118.0" fill="#fd3599" fill-rule="evenodd" stroke="none"/>
      <path d="M91.65 132.9 Q96.7 127.75 104.0 127.75 112.35 127.75 117.55 132.8 123.5 138.55 123.5 149.3 L123.5 162.35 109.8 162.35 109.8 145.45 Q109.8 143.3 108.3 141.9 106.9 140.65 104.85 140.65 102.9 140.65 101.5 141.9 100.1 143.3 100.1 145.45 100.1 147.65 101.5 149.05 102.75 150.35 104.55 150.35 L108.05 149.65 108.05 162.85 103.35 163.15 Q96.4 163.15 91.4 158.2 86.45 153.3 86.45 146.5 86.45 138.25 91.65 132.9" fill="#fd3599" fill-rule="evenodd" stroke="none"/>
      <path d="M159.15 158.2 Q154.2 163.15 146.8 163.15 138.65 163.15 133.8 158.15 128.25 152.45 128.25 141.7 L128.25 115.15 141.7 115.15 141.7 144.4 Q141.7 147.3 143.15 148.9 144.5 150.35 146.75 150.35 148.7 150.35 150.1 149.05 151.5 147.65 151.5 145.45 151.5 143.3 149.9 141.9 148.45 140.65 146.55 140.65 145.15 140.65 143.25 141.35 L143.25 128.05 147.85 127.75 Q155.2 127.75 159.8 132.8 164.3 137.7 164.3 145.05 164.3 153.05 159.15 158.2" fill="#fd3599" fill-rule="evenodd" stroke="none"/>
      <path d="M186.95 149.8 Q187.45 148.9 187.45 146.8 L187.45 128.55 200.95 128.55 200.95 148.9 Q200.95 153.6 198.6 157.1 196.2 160.8 191.5 162.5 L191.5 175.95 178.35 175.95 178.35 162.5 Q174.2 160.45 171.8 157.3 169.15 153.8 169.15 149.5 L169.15 128.55 182.65 128.55 182.65 146.8 Q182.65 148.9 183.15 149.8 183.75 150.75 185.1 150.75 186.35 150.75 186.95 149.8" fill="#fd3599" fill-rule="evenodd" stroke="none"/>
      <path d="M25.7 202.05 L19.6 202.05 19.6 189.5 Q25.25 189.2 25.25 186.15 25.25 184.1 23.3 183.45 L19.6 183.05 19.6 172.6 Q21.15 172.6 22.05 171.75 23.0 170.9 23.0 169.45 23.0 168.4 22.05 167.65 21.2 167.1 20.15 167.1 18.85 167.1 18.25 167.85 17.6 168.75 17.6 170.7 L17.6 202.05 2.85 202.05 2.85 169.8 Q2.85 162.65 7.75 158.3 12.7 153.95 20.8 153.95 27.5 153.95 32.3 157.7 37.45 161.8 37.45 168.35 37.45 170.85 36.8 172.7 36.05 174.55 34.4 176.4 40.4 180.0 40.4 187.95 40.4 194.6 36.15 198.5 32.05 202.15 25.7 202.05" fill="#693d38" fill-rule="evenodd" stroke="none"/>
      <path d="M68.95 179.1 Q62.95 179.1 60.45 181.45 58.05 183.8 58.05 189.45 L58.05 202.05 44.65 202.05 44.65 168.25 57.45 168.25 57.45 172.3 57.6 172.3 Q59.7 169.2 62.1 168.25 64.1 167.45 68.8 167.45 L70.45 167.45 70.45 179.1 68.95 179.1" fill="#693d38" fill-rule="evenodd" stroke="none"/>
      <path d="M78.45 172.7 Q83.6 167.45 91.0 167.45 98.3 167.45 103.55 172.7 108.75 177.85 108.75 185.15 108.75 192.5 103.55 197.7 98.3 202.85 91.0 202.85 83.6 202.85 78.45 197.7 73.25 192.5 73.25 185.15 73.25 177.85 78.45 172.7 M86.55 185.15 Q86.55 186.9 87.9 188.2 89.2 189.5 91.0 189.5 92.8 189.5 94.1 188.2 95.35 186.9 95.35 185.15 95.35 183.45 94.1 182.15 92.8 180.85 91.0 180.85 89.2 180.85 87.9 182.15 86.55 183.45 86.55 185.15" fill="#693d38" fill-rule="evenodd" stroke="none"/>
      <path d="M163.75 189.5 Q163.75 195.35 159.45 199.15 155.3 202.85 149.25 202.85 142.7 202.85 138.55 198.7 134.35 202.85 127.9 202.85 121.85 202.85 117.65 199.15 113.4 195.35 113.4 189.5 L113.4 168.25 126.85 168.25 126.85 185.75 Q126.85 190.7 129.3 190.7 130.5 190.7 131.05 189.7 131.8 188.6 131.8 185.75 L131.8 168.25 145.35 168.25 145.35 185.75 Q145.35 190.7 147.85 190.7 149.05 190.7 149.55 189.7 150.2 188.6 150.2 185.75 L150.2 168.25 163.75 168.25 163.75 189.5" fill="#693d38" fill-rule="evenodd" stroke="none"/>
      <path d="M168.3 202.05 L168.3 181.8 Q168.3 175.6 172.35 171.7 176.65 167.45 184.2 167.45 191.8 167.45 196.15 171.7 200.2 175.6 200.2 181.8 L200.2 202.05 186.65 202.05 186.65 183.9 Q186.65 181.75 186.05 180.8 185.55 179.9 184.2 179.9 181.8 179.9 181.8 183.9 L181.8 202.05 168.3 202.05" fill="#693d38" fill-rule="evenodd" stroke="none"/>
      <path d="M206.15 152.4 Q203.85 150.05 203.85 146.85 203.85 143.55 206.15 141.2 208.5 138.85 211.8 138.85 215.1 138.85 217.45 141.2 219.8 143.6 219.8 146.85 219.8 150.05 217.45 152.4 215.05 154.75 211.8 154.75 208.5 154.75 206.15 152.4 M205.0 202.05 L205.0 168.25 218.55 168.25 218.55 202.05 205.0 202.05" fill="#693d38" fill-rule="evenodd" stroke="none"/>
      <path d="M241.15 180.8 Q240.6 179.9 239.3 179.9 238.05 179.9 237.5 180.8 236.9 181.75 236.9 183.9 L236.9 202.05 223.35 202.05 223.35 181.8 Q223.35 175.6 227.4 171.7 231.7 167.45 239.3 167.45 246.9 167.45 251.25 171.7 255.25 175.6 255.25 181.8 L255.25 202.05 241.75 202.05 241.75 183.9 Q241.75 181.75 241.15 180.8" fill="#693d38" fill-rule="evenodd" stroke="none"/>
      <path d="M289.7 172.15 Q295.4 177.05 295.4 183.65 L295.4 200.4 Q295.4 207.95 290.5 212.25 285.65 216.55 276.7 216.55 270.6 216.55 263.1 214.8 L263.1 203.4 268.65 204.6 274.2 205.15 Q277.3 205.15 279.35 204.05 281.75 202.8 281.75 200.4 L281.75 184.9 Q281.75 182.8 280.3 181.6 279.1 180.6 277.4 180.6 275.6 180.6 274.4 181.6 273.0 182.8 273.0 184.9 273.0 187.0 274.4 188.2 275.6 189.25 277.4 189.25 L279.9 188.8 279.9 201.15 Q277.5 202.05 275.05 202.05 268.4 202.05 263.9 196.8 259.6 191.75 259.6 185.05 259.6 177.65 264.9 172.55 270.1 167.45 277.6 167.45 284.25 167.45 289.7 172.15" fill="#693d38" fill-rule="evenodd" stroke="none"/>
      <path d="M203.1 215.95 L205.65 215.95 206.85 215.75 Q207.25 215.5 207.25 214.8 L207.05 214.15 206.5 213.8 205.8 213.65 203.1 213.65 203.1 215.95 M206.35 211.6 Q206.85 211.35 206.85 210.75 206.85 210.15 206.4 209.9 L205.1 209.65 203.1 209.65 203.1 211.9 204.85 211.9 206.35 211.6 M210.25 215.0 L209.9 216.35 Q209.55 216.95 208.6 217.35 L206.15 217.8 200.25 217.8 200.25 207.8 206.15 207.8 208.25 208.15 209.45 209.05 Q209.85 209.6 209.85 210.25 209.85 211.15 209.3 211.75 208.7 212.4 207.75 212.65 208.9 212.8 209.55 213.4 210.25 214.05 210.25 215.0 M225.3 207.8 L225.3 209.85 219.6 209.85 219.6 211.7 224.95 211.7 224.95 213.75 219.6 213.75 219.6 215.75 225.4 215.75 225.4 217.8 216.7 217.8 216.7 207.8 225.3 207.8 M240.35 212.8 Q240.3 211.6 239.9 210.9 239.45 210.25 238.65 210.0 L236.8 209.75 235.0 209.75 235.0 215.9 236.3 215.9 237.95 215.75 239.2 215.35 240.05 214.4 240.35 212.8 M239.55 207.95 Q240.5 208.15 241.25 208.6 242.2 209.25 242.75 210.3 243.3 211.35 243.3 212.7 243.3 214.0 242.85 215.0 242.45 216.0 241.7 216.6 241.05 217.15 240.0 217.5 L237.45 217.8 232.1 217.8 232.1 207.8 237.65 207.8 239.55 207.95 M258.0 208.95 Q258.45 209.65 258.5 210.65 L255.7 210.65 255.35 209.9 Q255.1 209.65 254.7 209.55 L253.9 209.5 252.45 209.75 Q252.05 210.05 252.05 210.45 252.05 210.8 252.35 211.0 L253.05 211.3 254.05 211.55 255.4 211.85 257.05 212.3 258.25 213.2 Q258.65 213.8 258.7 214.8 258.65 215.8 258.25 216.45 L257.05 217.5 255.4 217.95 253.65 218.05 251.2 217.75 Q250.3 217.5 249.75 216.95 L249.1 215.9 248.95 214.55 251.85 214.55 252.05 215.55 252.7 216.0 253.8 216.15 255.1 215.95 255.65 215.55 255.8 215.05 Q255.8 214.6 255.3 214.35 L253.95 214.0 252.5 213.7 250.9 213.25 249.65 212.4 Q249.15 211.8 249.15 210.85 249.15 209.95 249.5 209.3 249.9 208.65 250.55 208.3 L252.05 207.7 253.7 207.55 256.55 207.9 Q257.6 208.25 258.0 208.95 M78.4 207.8 L89.05 207.8 89.05 209.85 85.15 209.85 85.15 217.8 82.25 217.8 82.25 209.85 78.4 209.85 78.4 207.8 M102.0 215.85 L96.15 215.85 95.2 217.8 92.2 217.8 97.5 207.8 101.0 207.8 106.2 217.8 102.9 217.8 102.0 215.85 M97.1 214.0 L101.1 214.0 99.15 209.75 97.1 214.0 M120.05 215.0 L120.1 215.0 120.1 207.8 122.65 207.8 122.65 217.8 118.8 217.8 114.3 210.6 114.25 210.6 114.25 217.8 111.65 217.8 111.65 207.8 115.5 207.8 120.05 215.0 M146.5 207.8 L149.45 207.8 149.45 217.8 146.5 217.8 146.5 207.8 M137.5 215.0 L137.55 215.0 137.55 207.8 140.15 207.8 140.15 217.8 136.25 217.8 131.75 210.6 131.7 210.6 131.7 217.8 129.1 217.8 129.1 207.8 132.95 207.8 137.5 215.0 M166.85 207.8 L166.85 217.8 163.0 217.8 158.45 210.6 158.45 217.8 155.85 217.8 155.85 207.8 159.65 207.8 164.25 215.0 164.25 207.8 166.85 207.8 M180.9 207.7 L182.55 208.25 183.75 209.3 Q184.25 209.95 184.25 211.0 L181.3 211.0 180.95 210.1 180.15 209.6 179.05 209.5 Q177.9 209.5 177.15 209.95 176.45 210.35 176.2 211.1 175.85 211.85 175.85 212.75 175.85 214.4 176.75 215.25 177.7 216.15 179.4 216.15 L180.5 216.05 181.45 215.9 181.45 214.15 178.85 214.15 178.85 212.3 184.15 212.3 184.15 217.6 181.7 217.9 179.25 218.05 176.75 217.8 Q175.55 217.5 174.7 216.95 173.85 216.3 173.4 215.35 172.85 214.4 172.85 213.0 172.9 211.1 173.65 209.9 174.45 208.7 175.8 208.1 177.15 207.55 179.05 207.55 L180.9 207.7" fill="#000000" fill-rule="evenodd" stroke="none"/>
    </g>
  </defs>
</svg>
