<?xml version="1.0" encoding="UTF-8" standalone="no"?>
<svg xmlns:xlink="http://www.w3.org/1999/xlink" height="300.0px" width="300.0px" xmlns="http://www.w3.org/2000/svg">
  <g transform="matrix(1.0, 0.0, 0.0, 1.0, 0.0, 0.0)">
    <use height="158.25" transform="matrix(1.0, 0.0, 0.0, 1.0, 2.0, 72.0)" width="294.8" xlink:href="#shape0"/>
  </g>
  <defs>
    <g id="shape0" transform="matrix(1.0, 0.0, 0.0, 1.0, -2.0, -72.0)">
      <path d="M38.45 86.7 L22.75 120.45 Q22.2 120.3 21.95 120.05 L20.95 119.3 19.9 119.05 18.55 118.6 18.05 118.15 Q18.35 116.0 18.95 114.5 L20.6 110.8 22.4 107.4 23.7 104.55 16.5 105.25 14.1 105.65 13.5 106.65 12.05 109.45 6.7 120.65 5.7 120.4 4.7 119.7 3.95 119.1 2.9 118.65 2.0 118.1 3.4 114.6 8.1 105.2 7.15 101.7 8.9 101.2 10.1 101.0 11.85 97.95 14.35 93.15 Q15.35 91.2 17.65 87.4 L18.9 87.05 19.75 87.25 22.7 86.7 23.25 86.8 16.65 100.6 26.35 99.75 31.7 90.4 34.2 86.85 34.6 86.8 35.7 86.85 36.4 86.95 36.8 86.75 37.6 86.6 38.45 86.7" fill="#000000" fill-rule="evenodd" stroke="none"/>
      <path d="M52.9 98.4 Q51.65 101.8 49.9 104.6 48.1 107.45 45.6 109.45 43.1 111.3 40.65 111.3 38.9 111.3 37.3 110.35 33.85 108.6 33.85 104.25 33.85 102.15 34.7 99.8 35.5 97.55 37.15 95.1 38.75 92.85 40.85 90.95 42.95 89.1 45.55 87.75 46.95 87.05 48.3 87.05 49.7 87.05 51.1 87.95 52.35 88.8 53.1 90.1 53.85 91.4 54.05 92.65 54.05 95.15 52.9 98.4 M47.85 91.9 Q46.35 91.9 44.45 93.8 42.45 95.75 41.3 97.4 40.05 99.45 39.3 101.4 38.45 103.5 38.45 105.0 38.45 106.45 39.35 106.8 41.15 106.8 42.8 105.45 44.45 104.2 46.3 101.4 L47.6 98.8 48.6 95.8 Q49.0 94.45 49.0 93.4 49.0 92.3 48.55 92.05 L47.85 91.9" fill="#000000" fill-rule="evenodd" stroke="none"/>
      <path d="M68.45 82.85 Q69.65 82.0 72.85 81.45 L74.2 81.35 Q76.3 81.35 77.25 82.5 78.2 83.65 78.2 85.75 78.2 87.3 77.7 89.05 L76.25 92.75 73.95 96.5 71.15 99.8 Q69.2 101.55 66.55 103.05 63.75 104.6 61.65 104.6 60.0 104.6 59.0 103.55 L53.4 113.75 52.65 113.5 51.6 112.5 Q51.45 112.25 50.85 112.25 L49.75 112.35 Q49.5 112.35 49.5 111.9 L64.55 81.4 68.35 80.85 69.1 81.0 68.95 81.8 68.45 82.85 M68.8 86.8 Q67.45 87.65 66.6 88.75 63.05 95.0 61.15 99.1 61.75 99.5 62.5 99.5 63.65 99.5 65.1 98.7 66.45 97.95 67.9 96.55 L70.25 93.85 Q72.9 89.65 72.9 87.45 72.9 86.0 71.4 86.0 70.05 86.0 68.8 86.8" fill="#000000" fill-rule="evenodd" stroke="none"/>
      <path d="M103.65 73.45 L93.15 96.4 92.65 96.55 91.65 96.3 91.1 96.05 90.25 96.35 89.25 96.6 Q88.9 96.6 88.9 96.2 88.9 95.45 90.2 93.25 89.55 94.15 87.7 95.15 86.05 96.25 84.7 96.55 L83.95 96.65 82.1 96.3 80.4 95.25 Q79.85 94.7 79.6 93.85 L79.4 92.05 Q79.4 90.5 80.2 88.45 80.85 86.7 83.0 83.65 85.85 79.55 89.75 76.75 93.65 73.95 97.65 73.95 L99.25 74.1 99.8 73.5 100.25 72.9 102.4 72.95 Q103.05 72.95 103.25 73.2 L103.65 73.45 M97.3 77.5 Q94.65 77.9 91.45 80.6 88.3 83.3 86.25 86.7 84.2 90.2 84.2 92.5 85.5 92.45 86.65 91.8 88.15 90.9 88.95 90.0 L90.9 87.75 92.9 84.7 Q96.6 79.1 97.3 77.5" fill="#000000" fill-rule="evenodd" stroke="none"/>
      <path d="M112.65 72.3 Q113.25 72.0 113.55 72.0 L114.2 72.2 108.9 82.8 105.8 89.75 101.3 102.75 99.15 102.25 Q97.85 101.7 97.35 101.35 L96.65 101.0 96.0 100.8 95.8 100.45 95.85 100.1 96.85 97.6 101.55 87.7 Q107.3 76.4 110.0 72.4 L110.35 72.2 111.75 72.65 112.65 72.3" fill="#000000" fill-rule="evenodd" stroke="none"/>
      <path d="M125.3 83.05 Q126.1 84.45 126.3 85.6 126.3 88.15 125.15 91.35 124.1 94.45 122.15 97.6 120.2 100.6 117.8 102.4 115.35 104.3 112.85 104.3 111.1 104.3 109.5 103.35 106.05 101.55 106.05 97.25 106.05 95.35 106.9 92.75 107.9 90.3 109.4 88.15 110.9 85.9 113.1 83.9 115.3 81.9 117.75 80.8 119.1 80.1 120.55 80.1 122.1 80.1 123.3 80.9 124.4 81.6 125.3 83.05 M120.1 84.85 Q118.65 84.85 116.7 86.75 114.75 88.75 113.5 90.4 112.4 92.1 111.55 94.35 110.75 96.45 110.75 97.95 110.75 99.4 111.55 99.8 113.4 99.8 115.05 98.45 116.7 97.15 118.55 94.35 L119.85 91.8 120.85 88.85 121.25 86.4 Q121.25 85.35 120.8 85.05 L120.1 84.85" fill="#000000" fill-rule="evenodd" stroke="none"/>
      <path d="M141.05 87.3 Q142.35 87.3 143.55 88.15 144.95 89.25 144.95 91.25 144.95 94.3 141.55 100.45 L139.5 104.45 136.95 109.5 Q136.4 109.5 136.1 109.05 L135.35 108.45 134.4 108.25 133.65 108.05 Q133.35 107.9 133.35 107.45 133.4 106.15 134.25 104.1 135.3 101.65 136.9 98.45 L139.35 93.45 140.25 90.9 Q138.95 91.2 137.65 92.15 136.25 93.2 135.15 94.4 L131.25 99.1 129.45 103.05 125.8 109.75 124.9 109.55 124.4 108.95 124.05 108.35 123.15 107.95 122.35 107.6 122.15 106.9 128.35 94.2 131.2 88.3 132.1 86.7 Q132.25 86.5 132.45 86.5 L133.25 86.9 133.95 87.35 134.75 87.05 135.65 86.9 Q136.05 86.9 136.2 87.15 L135.7 88.45 134.75 90.15 137.85 88.25 Q138.55 87.8 139.5 87.55 L141.05 87.3" fill="#000000" fill-rule="evenodd" stroke="none"/>
      <path d="M155.5 97.6 Q153.85 98.25 151.45 100.4 149.25 102.35 147.3 105.15 145.6 107.8 145.6 109.5 145.6 110.3 145.9 110.8 146.9 110.8 148.8 109.15 150.75 107.65 153.05 105.15 L156.8 100.6 Q158.25 98.5 158.25 97.5 L158.15 97.0 157.6 96.85 156.9 96.95 155.5 97.6 M158.8 92.9 Q159.95 93.1 160.15 93.65 L161.15 92.5 Q161.65 92.5 162.0 92.8 L162.55 93.25 164.75 92.9 165.3 93.1 162.8 98.45 156.15 111.8 154.15 116.05 152.05 120.7 150.15 124.05 Q149.05 125.9 148.15 126.6 147.1 127.35 145.75 127.35 144.25 127.35 142.7 126.45 141.1 125.55 140.1 124.25 139.15 122.9 139.15 121.65 139.15 120.35 140.25 119.5 L141.15 119.35 Q142.5 119.35 143.35 120.5 144.3 121.7 145.0 123.55 147.05 120.9 148.55 117.5 L151.5 111.6 Q150.1 113.3 148.05 114.65 146.05 115.9 144.45 115.9 143.75 115.9 142.9 115.5 L141.6 114.3 Q141.2 113.7 140.7 112.2 140.7 110.55 141.4 108.15 142.15 105.65 143.8 102.75 145.6 99.85 148.8 97.1 152.2 94.3 156.8 92.75 L158.8 92.9" fill="#000000" fill-rule="evenodd" stroke="none"/>
      <path d="M204.4 81.9 L188.65 115.65 187.85 115.3 186.85 114.55 184.5 113.85 183.95 113.35 Q184.2 111.6 184.85 109.7 L186.5 106.0 188.3 102.65 189.65 99.8 182.4 100.5 180.05 100.85 Q179.85 100.95 179.4 101.8 L172.65 115.9 171.65 115.6 170.65 114.9 169.85 114.3 168.85 113.9 167.95 113.3 169.3 109.8 170.75 106.75 174.0 100.45 173.1 96.95 174.85 96.4 176.0 96.2 177.8 93.2 180.3 88.35 Q181.65 85.7 183.6 82.6 L184.15 82.4 184.8 82.3 185.7 82.45 188.65 81.9 Q189.1 81.9 189.15 82.05 L182.55 95.8 192.3 94.95 194.55 90.6 197.6 85.6 200.1 82.1 200.5 82.05 201.6 82.1 202.3 82.2 202.7 82.0 203.5 81.8 204.4 81.9" fill="#000000" fill-rule="evenodd" stroke="none"/>
      <path d="M219.8 92.55 L209.25 115.55 208.85 115.65 208.3 115.6 207.3 115.2 206.35 115.45 205.45 115.7 Q205.0 115.7 205.0 115.35 205.0 114.55 206.35 112.4 L203.9 114.3 Q202.0 115.45 200.9 115.65 L200.1 115.75 198.25 115.4 Q197.3 115.05 196.6 114.35 195.9 113.75 195.8 112.95 L195.6 111.15 Q195.6 109.7 196.35 107.6 197.2 105.5 199.1 102.8 201.9 98.85 205.9 95.85 209.8 93.1 213.75 93.1 L215.4 93.2 215.9 92.6 216.45 92.0 218.55 92.1 219.45 92.3 219.8 92.55 M207.0 106.85 L209.1 103.8 213.45 96.65 Q210.7 97.0 207.65 99.7 204.65 102.3 202.4 105.8 200.3 109.3 200.3 111.6 201.55 111.6 202.85 110.9 L205.15 109.1 207.0 106.85" fill="#000000" fill-rule="evenodd" stroke="none"/>
      <path d="M225.5 93.15 L226.45 92.65 Q227.05 92.15 227.6 92.15 L228.3 92.4 226.35 96.8 Q227.55 95.7 230.3 93.95 232.95 92.35 234.3 91.85 L234.95 92.3 235.3 92.9 235.5 93.9 236.4 95.05 236.55 95.5 236.45 95.9 230.6 98.7 227.0 100.9 Q225.45 102.1 224.35 103.5 222.9 105.8 218.9 115.55 218.05 115.5 217.5 114.95 L216.85 114.1 216.0 113.75 215.25 113.45 215.15 113.05 216.3 109.35 218.6 103.25 223.15 93.35 223.85 93.1 225.5 93.15" fill="#000000" fill-rule="evenodd" stroke="none"/>
      <path d="M242.9 92.65 Q243.55 92.15 244.05 92.15 L244.8 92.4 242.85 96.8 246.75 93.95 Q249.45 92.35 250.85 91.85 L251.4 92.3 251.75 92.9 252.0 93.9 252.4 94.45 252.85 95.05 253.05 95.5 252.9 95.9 247.15 98.7 Q245.15 99.7 243.5 100.9 241.95 102.1 240.8 103.5 239.2 106.2 235.4 115.55 234.55 115.5 234.0 114.95 L233.3 114.1 Q233.1 113.9 232.5 113.75 L231.75 113.45 231.65 113.05 232.8 109.35 Q233.65 106.65 235.05 103.25 L239.6 93.35 240.3 93.1 242.0 93.15 242.9 92.65" fill="#000000" fill-rule="evenodd" stroke="none"/>
      <path d="M275.0 94.95 L275.15 95.3 271.2 100.5 263.2 110.9 259.8 115.05 250.45 126.85 Q249.85 126.75 249.7 126.45 L249.35 125.5 248.9 124.65 Q247.45 124.3 247.45 123.5 L247.6 123.05 254.55 112.8 Q253.8 109.05 253.8 99.2 L253.9 93.35 254.05 93.2 254.35 93.1 Q255.25 93.1 256.55 94.9 L257.05 95.05 258.35 94.75 Q258.9 94.75 259.25 95.4 L258.65 108.95 264.4 101.25 264.35 101.3 264.3 101.3 270.3 93.9 Q270.8 93.55 271.85 93.55 273.25 93.55 273.4 93.85 L273.95 94.3 275.0 94.95" fill="#000000" fill-rule="evenodd" stroke="none"/>
      <path d="M285.55 83.7 Q285.55 85.7 284.2 87.65 282.85 89.65 280.7 91.05 278.55 92.4 276.65 92.4 L275.4 92.2 Q275.4 91.75 276.0 91.2 L277.55 89.9 279.1 88.55 Q279.7 87.9 279.7 87.45 279.7 86.9 278.9 86.45 L278.05 85.4 Q277.65 84.7 277.65 84.0 277.65 83.1 278.1 82.5 L279.25 81.1 Q280.0 80.55 280.6 80.4 L282.2 80.2 Q283.3 80.2 284.1 80.75 L285.0 81.65 Q285.55 82.5 285.55 83.7" fill="#000000" fill-rule="evenodd" stroke="none"/>
      <path d="M285.65 97.1 Q284.2 97.7 283.1 98.65 283.1 99.95 284.1 100.75 L287.35 103.0 290.75 105.4 Q291.8 106.6 291.8 108.1 291.6 109.8 289.95 111.35 288.15 113.0 286.0 114.0 284.4 114.8 282.45 115.2 L278.4 115.55 276.3 115.4 Q274.25 115.05 273.0 113.9 271.8 112.7 271.8 111.05 271.8 110.1 272.05 109.35 272.35 108.45 273.2 107.55 274.05 106.7 275.15 106.15 276.25 105.65 277.3 105.65 279.25 105.65 279.9 107.6 278.65 108.1 277.9 108.55 277.3 108.9 277.05 109.45 276.75 110.05 276.75 111.1 276.9 111.65 278.2 111.65 280.1 111.65 283.0 110.55 285.75 109.55 286.4 108.3 286.4 107.15 285.4 106.45 284.4 105.75 282.1 104.55 279.85 103.45 278.7 102.3 277.55 101.3 277.45 99.6 277.45 97.15 279.95 95.3 282.55 93.4 287.4 92.45 L289.5 92.2 292.05 92.5 294.25 93.2 Q295.2 93.6 295.4 94.1 L296.25 95.1 296.8 96.05 296.55 98.25 294.5 100.1 292.45 101.25 290.0 101.65 Q289.15 100.95 289.15 99.55 L289.35 98.4 Q290.0 97.9 291.05 97.55 L292.7 96.85 289.3 96.4 Q287.2 96.4 285.65 97.1" fill="#000000" fill-rule="evenodd" stroke="none"/>
      <path d="M27.7 148.2 Q27.7 155.35 25.45 159.9 22.4 166.05 16.05 166.05 9.7 166.05 6.7 159.9 4.45 155.35 4.45 148.2 4.45 141.15 6.7 136.45 9.7 130.4 16.05 130.4 22.4 130.4 25.45 136.45 27.7 141.15 27.7 148.2 M16.05 137.25 Q12.2 137.25 12.2 148.2 12.2 159.15 16.05 159.15 19.95 159.15 19.95 148.2 19.95 137.25 16.05 137.25" fill="#000000" fill-rule="evenodd" stroke="none"/>
      <path d="M36.65 143.65 L36.65 146.0 36.85 146.0 Q38.6 143.3 40.85 143.3 45.95 143.3 45.95 149.8 L45.95 165.55 39.65 165.55 39.65 152.05 39.5 150.2 Q39.15 149.45 38.15 149.45 36.85 149.45 36.85 151.7 L36.85 165.55 30.6 165.55 30.6 143.65 36.65 143.65" fill="#000000" fill-rule="evenodd" stroke="none"/>
      <path d="M56.85 143.3 Q65.05 143.25 65.05 154.2 L65.05 156.2 55.3 156.2 55.3 158.2 Q55.3 161.15 57.25 161.15 59.2 161.15 59.2 158.5 L64.7 158.5 Q64.6 162.1 62.5 164.0 60.4 165.9 56.85 165.9 52.65 165.9 50.55 162.15 48.85 159.15 48.85 154.6 48.85 150.05 50.55 147.05 52.75 143.3 56.85 143.3 M57.25 148.35 Q55.3 148.35 55.3 151.35 L55.3 152.25 59.2 152.25 59.2 151.35 Q59.2 148.35 57.25 148.35" fill="#000000" fill-rule="evenodd" stroke="none"/>
      <path d="M78.2 151.5 L78.2 157.7 68.3 157.7 68.3 151.5 78.2 151.5" fill="#000000" fill-rule="evenodd" stroke="none"/>
      <path d="M96.4 165.55 L81.7 165.55 81.7 107.9 89.05 107.9 89.05 159.05 96.4 159.05 96.4 165.55" fill="#000000" fill-rule="evenodd" stroke="none"/>
      <path d="M105.0 143.3 Q113.15 143.25 113.15 154.2 L113.15 156.2 103.45 156.2 103.45 158.2 Q103.45 161.15 105.35 161.15 107.3 161.15 107.3 158.5 L112.8 158.5 Q112.75 162.05 110.6 164.0 108.55 165.9 105.0 165.9 100.75 165.9 98.65 162.15 96.95 159.15 96.95 154.6 96.95 150.05 98.65 147.05 100.85 143.3 105.0 143.3 M105.35 148.35 Q103.45 148.35 103.45 151.35 L103.45 152.25 107.3 152.25 107.3 151.35 Q107.3 148.35 105.35 148.35" fill="#000000" fill-rule="evenodd" stroke="none"/>
      <path d="M121.25 143.3 Q123.75 143.3 125.25 145.55 L125.35 145.55 125.35 143.65 131.6 143.65 131.6 164.7 Q131.6 173.55 124.15 173.55 117.15 173.55 116.45 167.05 L122.35 167.05 Q122.35 168.95 123.85 168.95 125.35 168.95 125.35 166.2 L125.35 163.05 125.25 163.05 Q124.15 165.55 121.25 165.55 117.85 165.55 116.4 161.25 115.45 158.35 115.45 154.25 115.45 150.15 116.45 147.4 117.9 143.3 121.25 143.3 M124.0 149.45 Q121.95 149.45 121.95 155.15 121.95 159.55 123.8 159.55 125.35 159.55 125.35 157.65 L125.35 151.15 Q125.35 149.45 124.0 149.45" fill="#000000" fill-rule="evenodd" stroke="none"/>
      <path d="M144.35 151.5 L144.35 157.7 134.5 157.7 134.5 151.5 144.35 151.5" fill="#000000" fill-rule="evenodd" stroke="none"/>
      <path d="M149.45 149.4 L147.6 144.7 Q150.05 143.3 153.4 143.3 158.7 143.3 160.7 145.65 162.9 148.0 162.9 153.2 L162.9 165.55 156.55 165.55 156.55 163.4 156.45 163.4 Q155.05 165.9 152.05 165.9 149.35 165.9 147.8 164.0 146.3 162.25 146.3 159.4 146.3 156.3 147.65 154.1 149.2 151.55 152.15 151.55 154.7 151.55 156.55 153.6 L156.55 152.45 Q156.55 148.55 152.45 148.55 151.35 148.55 149.45 149.4 M154.5 155.4 Q152.55 155.4 152.55 158.35 152.55 161.3 154.5 161.3 156.55 161.3 156.55 158.35 156.55 155.4 154.5 155.4" fill="#000000" fill-rule="evenodd" stroke="none"/>
      <path d="M177.0 148.25 L173.75 148.25 173.75 156.75 173.95 159.15 Q174.35 160.15 175.65 160.2 L175.75 160.2 177.0 160.1 177.0 165.65 173.75 165.9 Q170.3 165.9 168.85 164.1 167.55 162.45 167.55 158.9 L167.55 148.25 165.35 148.25 165.35 143.65 167.55 143.65 167.55 137.55 173.75 137.55 173.75 143.65 177.0 143.65 177.0 148.25" fill="#000000" fill-rule="evenodd" stroke="none"/>
      <path d="M188.75 151.5 L188.75 157.7 178.85 157.7 178.85 151.5 188.75 151.5" fill="#000000" fill-rule="evenodd" stroke="none"/>
      <path d="M205.15 145.65 Q207.3 147.95 207.3 153.2 L207.3 165.55 200.9 165.55 200.9 163.4 200.8 163.4 Q199.4 165.9 196.45 165.9 193.7 165.9 192.15 164.0 190.7 162.2 190.7 159.4 190.7 156.2 192.0 154.1 193.6 151.55 196.5 151.55 199.05 151.55 200.9 153.6 L200.9 152.45 Q200.9 148.55 196.85 148.55 195.7 148.55 193.8 149.4 L191.95 144.7 Q194.5 143.3 197.8 143.3 203.0 143.3 205.15 145.65 M198.9 155.4 Q196.9 155.4 196.9 158.35 196.9 161.3 198.9 161.3 200.9 161.3 200.9 158.35 200.9 155.4 198.9 155.4" fill="#000000" fill-rule="evenodd" stroke="none"/>
      <path d="M210.15 151.5 L220.05 151.5 220.05 157.7 210.15 157.7 210.15 151.5" fill="#000000" fill-rule="evenodd" stroke="none"/>
      <path d="M219.15 130.85 L236.1 130.85 236.1 137.35 231.25 137.35 231.25 165.55 223.9 165.55 223.9 137.35 219.15 137.35 219.15 130.85" fill="#000000" fill-rule="evenodd" stroke="none"/>
      <path d="M241.95 140.8 Q240.3 140.8 239.25 139.75 238.1 138.6 238.1 137.0 238.1 135.4 239.25 134.35 240.3 133.2 241.95 133.2 243.6 133.2 244.6 134.35 245.75 135.4 245.75 137.0 245.75 138.6 244.6 139.75 243.55 140.8 241.95 140.8 M238.75 165.55 L238.75 143.65 245.05 143.65 245.05 165.55 238.75 165.55" fill="#000000" fill-rule="evenodd" stroke="none"/>
      <path d="M269.25 143.3 Q272.05 143.3 273.2 145.2 274.05 146.85 274.05 149.85 L274.05 165.55 267.6 165.55 267.6 151.7 Q267.6 149.1 266.1 149.1 264.65 149.1 264.65 150.6 L264.65 165.55 258.45 165.55 258.45 151.7 Q258.45 149.1 256.95 149.1 255.45 149.1 255.45 150.6 L255.45 165.55 249.05 165.55 249.05 143.65 255.45 143.65 255.45 146.25 Q256.65 143.3 259.9 143.3 262.65 143.3 264.6 146.0 265.85 143.3 269.25 143.3" fill="#000000" fill-rule="evenodd" stroke="none"/>
      <path d="M285.3 148.35 Q283.4 148.35 283.4 151.35 L283.4 152.25 287.25 152.25 287.25 151.35 Q287.25 148.35 285.3 148.35 M276.9 154.6 Q276.9 150.05 278.6 147.05 280.8 143.3 284.95 143.3 293.1 143.25 293.1 154.2 L293.1 156.2 283.4 156.2 283.4 158.2 Q283.4 161.15 285.3 161.15 287.25 161.15 287.25 158.5 L292.7 158.5 Q292.7 162.0 290.6 164.0 288.5 165.9 284.95 165.9 280.7 165.9 278.6 162.15 276.9 159.15 276.9 154.6" fill="#000000" fill-rule="evenodd" stroke="none"/>
      <path d="M23.4 204.5 L23.2 204.55 22.05 204.55 22.05 189.3 23.2 189.3 Q26.5 189.3 28.2 191.6 26.75 190.65 24.55 190.65 L23.4 190.65 23.4 204.5" fill="#000000" fill-rule="evenodd" stroke="none"/>
      <path d="M36.2 184.9 Q41.1 189.0 41.1 198.2 41.1 206.2 36.95 210.5 32.85 214.8 24.95 214.8 L23.4 214.8 23.4 229.6 13.25 229.6 13.25 228.3 22.05 228.3 22.05 213.5 23.6 213.5 Q31.6 213.5 35.7 209.15 39.8 204.75 39.8 196.95 39.8 189.05 36.2 184.9" fill="#000000" fill-rule="evenodd" stroke="none"/>
      <path d="M56.05 196.45 L56.2 196.45 56.95 199.8 54.45 212.05 52.85 212.05 56.05 196.45" fill="#000000" fill-rule="evenodd" stroke="none"/>
      <path d="M61.4 219.45 L61.7 220.8 52.55 220.8 50.6 229.6 40.95 229.6 41.25 228.3 49.3 228.3 51.25 219.45 61.4 219.45" fill="#000000" fill-rule="evenodd" stroke="none"/>
      <path d="M62.55 181.65 L74.4 229.6 64.75 229.6 64.45 228.3 73.05 228.3 61.6 181.65 62.55 181.65" fill="#000000" fill-rule="evenodd" stroke="none"/>
      <path d="M83.7 181.65 L84.45 181.65 94.9 206.4 94.9 207.75 94.75 207.8 83.7 181.65" fill="#000000" fill-rule="evenodd" stroke="none"/>
      <path d="M84.0 200.9 L85.3 204.0 85.3 229.6 75.8 229.6 75.8 228.3 84.0 228.3 84.0 200.9" fill="#000000" fill-rule="evenodd" stroke="none"/>
      <path d="M104.4 181.65 L105.7 181.65 105.7 229.6 96.9 229.6 96.3 228.3 104.4 228.3 104.4 181.65" fill="#000000" fill-rule="evenodd" stroke="none"/>
      <path d="M133.2 181.65 L133.2 190.65 126.55 190.65 126.55 229.6 116.4 229.6 116.4 228.3 125.25 228.3 125.25 189.3 131.85 189.3 131.85 181.65 133.2 181.65" fill="#000000" fill-rule="evenodd" stroke="none"/>
      <path d="M115.15 189.3 L115.15 190.65 109.8 190.65 109.8 189.3 115.15 189.3" fill="#000000" fill-rule="evenodd" stroke="none"/>
      <path d="M148.5 218.95 Q144.85 216.7 144.85 204.35 144.85 189.2 150.25 189.2 152.15 189.2 153.3 190.95 152.5 190.5 151.55 190.5 146.2 190.5 146.2 205.6 146.2 215.65 148.5 218.95" fill="#000000" fill-rule="evenodd" stroke="none"/>
      <path d="M160.55 184.2 Q162.8 186.1 164.45 189.45 167.65 195.9 167.65 205.6 167.65 215.45 164.45 221.8 160.4 230.25 151.55 230.25 145.2 230.25 141.25 225.8 144.9 228.95 150.25 228.95 159.0 228.95 163.2 220.45 166.3 214.2 166.3 204.35 166.3 194.45 163.2 188.15 161.95 185.7 160.55 184.2" fill="#000000" fill-rule="evenodd" stroke="none"/>
      <path d="M180.95 207.2 L182.25 211.0 182.25 229.6 172.1 229.6 172.1 228.3 180.95 228.3 180.95 207.2" fill="#000000" fill-rule="evenodd" stroke="none"/>
      <path d="M182.25 190.65 L182.25 201.95 180.95 202.1 180.95 189.3 Q185.3 189.3 186.9 191.85 185.25 190.65 182.25 190.65" fill="#000000" fill-rule="evenodd" stroke="none"/>
      <path d="M195.1 184.55 L195.95 185.35 Q199.5 189.05 199.5 195.75 199.5 205.85 192.15 208.0 L200.45 229.6 189.65 229.6 189.15 228.3 199.2 228.3 190.85 206.65 Q198.2 204.45 198.2 194.45 198.2 188.25 195.1 184.55" fill="#000000" fill-rule="evenodd" stroke="none"/>
      <path d="M212.45 181.65 L213.7 181.65 213.7 229.6 203.65 229.6 203.65 228.3 212.45 228.3 212.45 181.65" fill="#000000" fill-rule="evenodd" stroke="none"/>
      <path d="M229.0 181.65 L230.3 181.65 230.3 216.05 Q230.3 217.9 230.9 219.1 229.0 218.15 229.0 214.8 L229.0 181.65" fill="#000000" fill-rule="evenodd" stroke="none"/>
      <path d="M246.4 181.65 L247.7 181.65 247.7 216.9 Q247.7 223.25 244.05 226.8 240.5 230.25 233.95 230.25 227.4 230.25 223.8 226.8 L222.95 225.85 Q226.55 228.95 232.65 228.95 239.05 228.95 242.8 225.45 246.4 222.05 246.4 215.55 L246.4 181.65" fill="#000000" fill-rule="evenodd" stroke="none"/>
      <path d="M260.9 229.6 L250.9 229.6 251.05 228.3 259.6 228.3 262.55 199.35 262.65 199.35 263.5 203.8 260.9 229.6" fill="#000000" fill-rule="evenodd" stroke="none"/>
      <path d="M271.65 208.65 L266.5 181.65 267.55 181.65 272.3 206.3 271.8 208.65 271.65 208.65" fill="#000000" fill-rule="evenodd" stroke="none"/>
      <path d="M281.0 199.35 L281.45 204.2 276.6 229.6 269.55 229.6 269.3 228.3 275.25 228.3 280.8 199.35 281.0 199.35" fill="#000000" fill-rule="evenodd" stroke="none"/>
      <path d="M289.45 181.65 L295.2 229.6 285.2 229.6 285.05 228.3 293.9 228.3 288.25 181.65 289.45 181.65" fill="#000000" fill-rule="evenodd" stroke="none"/>
      <path d="M22.5 177.95 Q38.25 177.95 38.25 194.5 38.25 202.55 34.15 206.75 30.05 211.1 22.1 211.1 L20.55 211.1 20.55 225.9 10.4 225.9 10.4 177.95 22.5 177.95 M20.55 202.15 L21.65 202.15 Q27.95 202.15 27.95 194.5 27.95 186.9 21.65 186.9 L20.55 186.9 20.55 202.15" fill="#990000" fill-rule="evenodd" stroke="none"/>
      <path d="M59.7 177.95 L71.5 225.9 61.9 225.9 59.9 217.05 49.7 217.05 47.75 225.9 38.1 225.9 49.6 177.95 59.7 177.95 M51.35 209.65 L58.15 209.65 54.65 194.05 54.5 194.05 51.35 209.65" fill="#990000" fill-rule="evenodd" stroke="none"/>
      <path d="M102.85 177.95 L102.85 225.9 94.05 225.9 82.45 198.5 82.45 225.9 72.95 225.9 72.95 177.95 81.6 177.95 93.2 205.4 93.35 205.35 93.35 177.95 102.85 177.95" fill="#990000" fill-rule="evenodd" stroke="none"/>
      <path d="M130.35 177.95 L130.35 186.9 123.7 186.9 123.7 225.9 113.55 225.9 113.55 186.9 106.95 186.9 106.95 177.95 130.35 177.95" fill="#990000" fill-rule="evenodd" stroke="none"/>
      <path d="M164.8 201.9 Q164.8 211.6 161.65 218.1 157.55 226.55 148.7 226.55 139.95 226.55 135.8 218.1 132.65 211.55 132.65 201.9 132.65 192.25 135.8 185.7 139.95 177.3 148.7 177.3 157.55 177.3 161.65 185.7 164.8 192.2 164.8 201.9 M143.35 201.9 Q143.35 217.05 148.7 217.05 154.1 217.05 154.1 201.9 154.1 186.8 148.7 186.8 143.35 186.8 143.35 201.9" fill="#990000" fill-rule="evenodd" stroke="none"/>
      <path d="M179.4 199.65 Q186.35 199.65 186.35 193.3 186.35 186.9 179.4 186.9 L179.4 199.65 M196.65 192.05 Q196.65 202.0 189.3 204.25 L197.6 225.9 186.8 225.9 179.4 204.8 179.4 225.9 169.25 225.9 169.25 177.95 182.85 177.95 Q189.6 177.95 193.1 181.6 196.65 185.3 196.65 192.05" fill="#990000" fill-rule="evenodd" stroke="none"/>
      <path d="M210.85 177.95 L210.85 225.9 200.75 225.9 200.75 177.95 210.85 177.95" fill="#990000" fill-rule="evenodd" stroke="none"/>
      <path d="M244.9 177.95 L244.9 213.2 Q244.9 219.55 241.25 223.05 237.6 226.55 231.1 226.55 224.6 226.55 220.95 223.05 217.3 219.55 217.3 213.2 L217.3 177.95 227.45 177.95 227.45 212.35 Q227.45 217.05 231.1 217.05 234.75 217.05 234.75 212.35 L234.75 177.95 244.9 177.95" fill="#990000" fill-rule="evenodd" stroke="none"/>
      <path d="M286.6 177.95 L292.35 225.9 282.35 225.9 279.4 196.95 279.3 196.95 273.75 225.9 266.7 225.9 261.15 196.95 260.95 196.95 258.05 225.9 248.05 225.9 253.85 177.95 264.7 177.95 270.15 206.25 270.3 206.25 275.65 177.95 286.6 177.95" fill="#990000" fill-rule="evenodd" stroke="none"/>
    </g>
  </defs>
</svg>
