<?xml version="1.0" encoding="UTF-8" standalone="no"?>
<svg xmlns:xlink="http://www.w3.org/1999/xlink" height="300.0px" width="300.0px" xmlns="http://www.w3.org/2000/svg">
  <g transform="matrix(1.0, 0.0, 0.0, 1.0, 0.0, 0.0)">
    <use height="163.4" transform="matrix(1.0, 0.0, 0.0, 1.0, 11.35, 88.55)" width="273.35" xlink:href="#sprite0"/>
  </g>
  <defs>
    <g id="sprite0" transform="matrix(1.0, 0.0, 0.0, 1.0, 136.65, 90.9)">
      <use height="163.4" transform="matrix(1.0, 0.0, 0.0, 1.0, -136.65, -90.9)" width="273.35" xlink:href="#shape0"/>
    </g>
    <g id="shape0" transform="matrix(1.0, 0.0, 0.0, 1.0, 136.65, 90.9)">
      <path d="M132.25 -59.15 Q127.8 -54.7 121.4 -54.7 115.1 -54.7 110.6 -59.15 106.1 -63.6 106.1 -70.0 106.1 -76.3 110.6 -80.8 115.1 -85.3 121.4 -85.3 127.8 -85.3 132.25 -80.8 136.7 -76.3 136.7 -70.0 136.7 -63.6 132.25 -59.15 M-107.6 -59.15 Q-112.1 -54.7 -118.45 -54.7 -124.75 -54.7 -129.3 -59.15 -133.75 -63.6 -133.75 -70.0 -133.75 -76.3 -129.3 -80.8 -124.75 -85.3 -118.45 -85.3 -112.1 -85.3 -107.6 -80.8 -103.15 -76.3 -103.15 -70.0 -103.15 -63.6 -107.6 -59.15" fill="#000000" fill-rule="evenodd" stroke="none"/>
      <path d="M24.95 -32.55 Q24.4 -32.95 23.15 -33.1 L23.0 -34.0 46.25 -38.5 53.25 -39.35 Q55.7 -39.35 57.8 -38.5 62.15 -36.75 63.25 -31.1 64.05 -26.8 62.2 -23.9 60.25 -21.05 55.2 -18.9 L63.75 -10.85 Q66.05 -8.6 67.4 -7.9 68.65 -7.2 70.1 -7.2 L70.25 -6.3 55.35 -3.4 55.2 -4.3 Q56.7 -5.1 56.5 -6.05 56.35 -6.75 55.1 -8.0 L46.05 -16.75 37.55 -15.1 39.7 -3.8 Q39.9 -2.85 40.45 -2.35 41.0 -1.95 42.25 -1.85 L42.4 -0.95 29.85 1.5 29.7 0.6 Q30.7 0.15 31.1 -0.5 31.45 -1.15 31.3 -2.15 L25.65 -31.15 Q25.5 -32.15 24.95 -32.55 M2.8 -26.9 Q3.0 -25.85 4.0 -24.55 L22.4 -1.65 Q23.9 0.15 24.65 0.7 L26.8 1.15 26.95 2.05 12.45 4.85 12.3 3.95 Q14.25 3.2 13.95 1.65 13.75 0.65 12.7 -0.6 L10.05 -3.85 -6.25 -0.7 -7.4 3.5 Q-7.8 5.05 -7.65 5.85 -7.35 7.35 -5.2 7.35 L-5.05 8.25 -18.1 10.75 -18.25 9.85 Q-17.1 9.45 -16.6 8.8 -16.1 8.15 -15.6 6.4 L-7.75 -22.3 Q-7.35 -23.95 -7.55 -25.05 -7.8 -26.35 -9.7 -26.75 L-9.85 -27.65 3.9 -30.3 4.05 -29.4 Q2.5 -28.35 2.8 -26.9 M36.3 -21.55 L49.1 -24.0 Q52.05 -24.55 53.3 -25.5 55.1 -26.7 54.6 -29.25 54.2 -31.5 52.65 -32.1 51.1 -32.75 47.55 -32.05 L34.75 -29.6 36.3 -21.55 M115.9 -1.25 L113.2 7.9 112.4 7.6 Q112.2 6.6 111.35 6.1 109.25 4.8 105.55 4.45 L98.2 4.75 Q95.15 5.35 92.9 6.65 89.75 8.6 90.2 10.95 90.5 12.5 92.3 12.8 94.05 13.15 98.8 12.65 L103.9 12.0 Q110.6 11.25 114.4 12.65 116.5 13.4 118.15 15.05 120.15 17.1 120.7 20.1 121.75 25.5 117.45 29.6 113.4 33.5 105.45 35.05 97.45 36.6 89.3 34.65 L88.4 34.6 Q87.75 34.75 87.4 35.6 L86.55 35.45 88.5 26.05 89.35 26.25 89.4 26.5 Q89.6 27.3 90.3 27.75 92.15 28.8 96.25 29.1 L104.15 28.65 Q107.5 28.0 110.0 26.6 113.05 24.85 112.6 22.45 112.25 20.5 109.8 20.2 L104.15 20.4 99.1 21.0 92.8 21.3 Q90.6 21.25 88.8 20.6 86.55 19.7 85.0 17.75 83.4 15.75 82.9 13.15 81.8 7.3 86.2 3.3 90.2 -0.4 96.95 -1.7 L103.9 -2.15 Q107.2 -2.0 111.95 -0.8 L113.85 -0.55 Q114.35 -0.65 115.05 -1.5 L115.9 -1.25 M65.1 11.9 L70.05 37.7 Q70.25 38.65 70.8 39.15 71.3 39.55 72.55 39.65 L72.7 40.55 60.15 43.0 60.0 42.1 Q61.0 41.65 61.4 41.0 61.75 40.35 61.6 39.35 L56.6 13.55 46.15 15.6 Q45.1 15.75 44.65 16.3 44.25 16.9 44.15 18.1 L43.3 18.25 41.25 7.75 42.1 7.6 Q42.6 8.65 43.25 9.0 L44.85 9.15 74.3 3.45 Q75.3 3.25 75.7 2.7 76.15 2.2 76.25 1.0 L77.1 0.8 79.15 11.3 78.3 11.5 Q77.75 10.4 77.15 10.05 L75.55 9.9 65.1 11.9 M46.6 45.65 L31.7 48.55 31.55 47.65 Q33.05 46.85 32.85 45.9 32.7 45.2 31.45 43.95 L22.4 35.2 13.9 36.85 16.05 48.15 Q16.25 49.1 16.8 49.6 L18.6 50.1 18.75 51.0 6.2 53.45 6.05 52.55 Q7.05 52.1 7.45 51.45 7.8 50.8 7.65 49.8 L2.0 20.8 Q1.85 19.8 1.3 19.4 0.75 19.0 -0.5 18.85 L-0.65 17.95 22.6 13.45 29.6 12.6 Q32.05 12.6 34.15 13.45 38.5 15.2 39.6 20.85 40.4 25.15 38.55 28.05 36.6 30.9 31.55 33.05 L40.1 41.1 Q42.4 43.35 43.75 44.05 45.0 44.75 46.45 44.75 L46.6 45.65 M23.9 19.9 L11.1 22.35 12.65 30.4 25.45 27.95 Q28.4 27.4 29.65 26.45 31.45 25.25 30.95 22.7 30.55 20.45 29.0 19.85 27.45 19.2 23.9 19.9 M3.3 54.0 L-11.2 56.8 -11.35 55.9 Q-9.4 55.15 -9.7 53.6 -9.9 52.6 -10.95 51.35 L-13.6 48.1 -29.9 51.25 -31.05 55.45 Q-31.45 57.0 -31.3 57.8 -31.0 59.3 -28.85 59.3 L-28.7 60.2 -41.75 62.7 -41.9 61.8 Q-40.75 61.4 -40.25 60.75 -39.75 60.1 -39.25 58.35 L-31.4 29.65 Q-31.0 28.0 -31.2 26.9 -31.45 25.6 -33.35 25.2 L-33.5 24.3 -19.75 21.65 -19.6 22.55 Q-21.15 23.6 -20.85 25.05 -20.65 26.1 -19.65 27.4 L-1.25 50.3 1.0 52.65 3.15 53.1 3.3 54.0 M-64.35 -2.65 Q-63.0 4.3 -56.95 7.65 -51.8 10.45 -44.35 9.05 -38.1 7.85 -33.15 3.6 -31.3 2.05 -30.65 1.1 -30.05 0.15 -30.25 -0.8 L-30.45 -1.6 -29.7 -2.35 -21.95 5.5 -22.65 6.25 Q-23.75 5.55 -24.3 5.65 L-27.2 7.85 Q-32.05 12.0 -35.5 13.8 -39.05 15.65 -44.2 16.6 -54.4 18.6 -61.9 15.0 -66.35 12.95 -69.35 9.2 -72.8 4.95 -73.95 -0.85 -75.45 -8.7 -71.95 -15.4 -66.75 -25.45 -52.8 -28.15 L-43.8 -28.8 Q-39.9 -28.4 -33.8 -26.3 -30.85 -25.3 -30.3 -25.45 -29.75 -25.55 -29.0 -26.5 L-28.05 -26.1 -32.35 -15.9 -33.3 -16.35 -33.4 -17.2 Q-33.6 -18.1 -34.5 -18.75 -35.45 -19.45 -37.7 -20.15 -43.95 -22.2 -50.2 -21.0 -57.65 -19.6 -61.3 -15.0 -65.7 -9.65 -64.35 -2.65 M-4.85 -6.15 L6.5 -8.35 -1.5 -18.65 -4.85 -6.15 M-28.5 45.8 L-17.15 43.6 -25.15 33.3 -28.5 45.8 M-64.05 24.05 Q-57.45 25.5 -53.4 31.0 -50.15 35.3 -48.95 41.65 -46.75 52.85 -52.5 60.0 -54.9 63.1 -58.55 64.85 -62.2 66.65 -68.2 67.85 L-92.35 72.5 -92.55 71.5 Q-91.45 70.95 -91.1 70.35 -90.8 69.75 -91.0 68.75 L-98.05 32.2 Q-98.25 31.2 -98.75 30.8 -99.3 30.4 -100.5 30.25 L-100.7 29.25 -76.55 24.6 Q-68.65 23.05 -64.05 24.05 M-68.9 31.4 L-76.05 31.9 -87.9 34.2 -82.3 63.15 -70.45 60.85 Q-64.75 59.75 -62.2 57.65 -56.65 53.15 -58.55 43.5 -59.9 36.55 -63.9 33.5 -66.15 31.8 -68.9 31.4" fill="#d1d1d1" fill-rule="evenodd" stroke="none"/>
      <path d="M30.5 -27.15 L43.25 -29.65 Q46.15 -30.2 47.5 -31.05 49.2 -32.35 48.8 -34.85 48.35 -37.05 46.8 -37.75 45.35 -38.35 41.75 -37.65 L28.95 -35.25 30.5 -27.15 M19.1 -38.15 Q18.55 -38.6 17.35 -38.7 L17.15 -39.55 40.4 -44.1 47.45 -44.95 Q50.0 -44.95 51.95 -44.1 56.3 -42.3 57.4 -36.7 58.2 -32.4 56.35 -29.55 54.45 -26.65 49.4 -24.5 L57.9 -16.5 Q60.15 -14.35 61.5 -13.5 62.65 -12.85 64.25 -12.85 L64.45 -11.9 49.5 -9.05 49.35 -9.95 Q50.85 -10.7 50.7 -11.65 50.6 -12.35 49.25 -13.55 L40.2 -22.4 31.7 -20.7 33.9 -9.4 Q34.1 -8.5 34.65 -8.0 35.2 -7.55 36.4 -7.45 L36.55 -6.55 24.0 -4.15 23.9 -5.0 25.3 -6.1 Q25.6 -6.65 25.4 -7.75 L19.85 -36.75 Q19.65 -37.65 19.1 -38.15 M18.8 -4.95 Q19.45 -4.45 20.9 -4.45 L21.05 -3.55 6.55 -0.7 6.45 -1.65 Q8.45 -2.45 8.1 -3.95 L6.85 -6.2 4.15 -9.45 -12.15 -6.35 -13.2 -2.1 Q-13.65 -0.65 -13.45 0.2 -13.2 1.75 -11.05 1.75 L-10.9 2.65 -23.9 5.15 -24.1 4.25 Q-23.05 3.9 -22.45 3.2 -22.0 2.65 -21.45 0.8 L-13.65 -27.95 Q-13.2 -29.45 -13.4 -30.7 -13.7 -32.0 -15.55 -32.35 L-15.7 -33.25 -1.95 -35.9 -1.75 -35.05 Q-3.35 -33.95 -3.1 -32.55 -2.95 -31.6 -1.8 -30.1 L16.55 -7.25 18.8 -4.95 M69.9 -2.9 Q70.3 -3.35 70.45 -4.65 L71.3 -4.8 73.3 5.7 72.45 5.85 Q71.85 4.75 71.3 4.45 L69.7 4.3 59.25 6.3 64.2 32.1 Q64.4 33.1 64.95 33.5 65.4 33.9 66.7 34.1 L66.9 34.95 54.35 37.4 54.15 36.5 55.55 35.4 Q55.95 34.7 55.75 33.8 L50.75 8.0 40.3 10.0 Q39.25 10.2 38.85 10.75 38.4 11.3 38.3 12.45 L37.45 12.65 35.45 2.15 36.3 2.0 Q36.8 3.0 37.4 3.4 L39.0 3.55 68.4 -2.1 Q69.45 -2.45 69.9 -2.9 M108.05 -6.15 Q108.7 -6.4 109.25 -7.15 L110.05 -6.9 107.4 2.2 106.55 2.0 Q106.35 0.95 105.55 0.45 103.5 -0.85 99.75 -1.2 L92.4 -0.85 Q89.25 -0.3 87.1 1.05 83.9 2.9 84.4 5.3 84.65 6.8 86.45 7.2 L93.0 7.0 98.1 6.4 Q104.85 5.65 108.55 7.0 110.5 7.65 112.3 9.45 114.3 11.45 114.85 14.45 115.95 19.85 111.7 24.0 107.5 27.9 99.65 29.45 91.55 30.9 83.5 29.0 L82.55 28.95 Q81.95 29.15 81.6 29.95 L80.7 29.8 82.7 20.4 83.55 20.6 83.6 20.85 Q83.65 21.6 84.45 22.1 86.35 23.2 90.45 23.45 L98.35 23.05 Q101.55 22.4 104.15 20.95 107.2 19.25 106.8 16.85 106.4 14.85 103.95 14.6 L98.35 14.75 93.25 15.3 86.95 15.7 83.0 14.95 Q80.6 14.05 79.15 12.1 77.6 10.2 77.1 7.55 75.95 1.65 80.35 -2.35 84.4 -6.05 91.1 -7.3 L98.05 -7.8 106.1 -6.45 108.05 -6.15 M40.75 40.05 L25.85 42.9 25.65 42.0 Q27.25 41.25 27.05 40.3 27.0 39.65 25.65 38.35 L16.6 29.6 8.1 31.25 10.3 42.55 Q10.5 43.55 11.05 43.95 11.6 44.45 12.75 44.5 L12.9 45.4 0.4 47.8 0.2 46.95 Q1.25 46.45 1.6 45.8 1.95 45.2 1.8 44.2 L-3.85 15.2 Q-4.05 14.15 -4.6 13.8 -5.15 13.3 -6.3 13.25 L-6.45 12.3 16.8 7.85 23.75 7.0 Q26.3 7.0 28.35 7.8 32.65 9.5 33.75 15.25 34.6 19.65 32.7 22.4 30.8 25.35 25.75 27.45 L34.3 35.45 Q36.5 37.65 37.9 38.45 39.25 39.1 40.6 39.1 L40.75 40.05 M23.15 14.2 Q21.55 13.55 18.05 14.3 L5.25 16.75 6.85 24.8 19.65 22.3 Q22.55 21.75 23.8 20.85 25.65 19.65 25.15 17.1 24.75 14.9 23.15 14.2 M-56.1 -26.65 Q-63.55 -25.2 -67.2 -20.65 -71.5 -15.4 -70.15 -8.3 -68.9 -1.4 -62.85 2.0 -57.65 4.85 -50.3 3.4 -44.05 2.2 -39.05 -2.05 -37.2 -3.65 -36.6 -4.55 -35.9 -5.55 -36.1 -6.4 L-36.35 -7.25 -35.6 -8.0 -27.85 -0.15 -28.55 0.55 Q-29.6 -0.1 -30.15 0.0 -30.7 0.15 -33.05 2.15 -37.95 6.45 -41.4 8.15 -45.1 10.1 -50.05 10.95 -60.25 13.0 -67.8 9.4 -72.25 7.35 -75.2 3.55 -78.75 -0.7 -79.85 -6.45 -81.3 -14.4 -77.9 -21.05 -72.6 -31.05 -58.65 -33.75 L-49.7 -34.45 Q-45.9 -34.05 -39.65 -31.9 L-36.15 -31.05 Q-35.6 -31.15 -34.85 -32.15 L-33.95 -31.75 -38.25 -21.6 -39.15 -21.95 -39.25 -22.8 Q-39.45 -23.8 -40.35 -24.4 -41.55 -25.15 -43.6 -25.8 -49.8 -27.8 -56.1 -26.65 M-10.7 -11.8 L0.7 -13.95 -7.35 -24.25 -10.7 -11.8 M-39.2 19.6 L-39.4 18.7 -25.55 16.05 -25.4 16.9 Q-27.05 17.9 -26.75 19.4 -26.55 20.45 -25.45 21.8 L-7.1 44.7 -4.8 47.0 Q-4.05 47.5 -2.75 47.5 L-2.55 48.35 -17.05 51.2 -17.25 50.3 Q-15.2 49.6 -15.55 48.0 -15.7 47.0 -16.8 45.75 L-19.45 42.5 -35.8 45.6 -36.9 49.85 -37.15 52.15 Q-36.85 53.7 -34.75 53.7 L-34.55 54.6 -47.6 57.1 -47.8 56.2 Q-46.6 55.85 -46.15 55.15 -45.65 54.55 -45.15 52.75 L-37.25 24.0 Q-36.85 22.4 -37.0 21.25 -37.25 19.95 -39.2 19.6 M-34.3 40.15 L-23.0 37.95 -31.0 27.7 -34.3 40.15 M-54.8 36.05 Q-52.6 47.25 -58.45 54.4 -60.75 57.4 -64.5 59.25 -68.1 61.05 -74.1 62.25 L-98.25 66.9 -98.45 65.85 Q-97.3 65.3 -97.05 64.75 -96.65 64.15 -96.85 63.15 L-103.95 26.6 Q-104.15 25.65 -104.7 25.15 -105.3 24.75 -106.4 24.7 L-106.6 23.65 -82.45 19.0 Q-74.6 17.45 -69.95 18.45 -63.3 19.9 -59.3 25.35 -56.0 29.75 -54.8 36.05 M-69.8 27.85 Q-72.05 26.15 -74.8 25.8 L-81.9 26.25 -93.75 28.55 -88.15 57.55 -76.3 55.3 Q-70.65 54.15 -68.05 52.05 -62.6 47.5 -64.4 37.9 -65.75 31.0 -69.8 27.85" fill="#ff9d26" fill-rule="evenodd" stroke="none"/>
      <path d="M30.5 -27.15 L43.25 -29.65 Q46.15 -30.2 47.5 -31.05 49.2 -32.35 48.8 -34.85 48.35 -37.05 46.8 -37.75 45.35 -38.35 41.75 -37.65 L28.95 -35.25 30.5 -27.15 M19.1 -38.15 Q18.55 -38.6 17.35 -38.7 L17.15 -39.55 40.4 -44.1 47.45 -44.95 Q50.0 -44.95 51.95 -44.1 56.3 -42.3 57.4 -36.7 58.2 -32.4 56.35 -29.55 54.45 -26.65 49.4 -24.5 L57.9 -16.5 Q60.15 -14.35 61.5 -13.5 62.65 -12.85 64.25 -12.85 L64.45 -11.9 49.5 -9.05 49.35 -9.95 Q50.85 -10.7 50.7 -11.65 50.6 -12.35 49.25 -13.55 L40.2 -22.4 31.7 -20.7 33.9 -9.4 Q34.1 -8.5 34.65 -8.0 35.2 -7.55 36.4 -7.45 L36.55 -6.55 24.0 -4.15 23.9 -5.0 25.3 -6.1 Q25.6 -6.65 25.4 -7.75 L19.85 -36.75 Q19.65 -37.65 19.1 -38.15 M18.8 -4.95 Q19.45 -4.45 20.9 -4.45 L21.05 -3.55 6.55 -0.7 6.45 -1.65 Q8.45 -2.45 8.1 -3.95 L6.85 -6.2 4.15 -9.45 -12.15 -6.35 -13.2 -2.1 Q-13.65 -0.65 -13.45 0.2 -13.2 1.75 -11.05 1.75 L-10.9 2.65 -23.9 5.15 -24.1 4.25 Q-23.05 3.9 -22.45 3.2 -22.0 2.65 -21.45 0.8 L-13.65 -27.95 Q-13.2 -29.45 -13.4 -30.7 -13.7 -32.0 -15.55 -32.35 L-15.7 -33.25 -1.95 -35.9 -1.75 -35.05 Q-3.35 -33.95 -3.1 -32.55 -2.95 -31.6 -1.8 -30.1 L16.55 -7.25 18.8 -4.95 M69.9 -2.9 Q70.3 -3.35 70.45 -4.65 L71.3 -4.8 73.3 5.7 72.45 5.85 Q71.85 4.75 71.3 4.45 L69.7 4.3 59.25 6.3 64.2 32.1 Q64.4 33.1 64.95 33.5 65.4 33.9 66.7 34.1 L66.9 34.95 54.35 37.4 54.15 36.5 55.55 35.4 Q55.95 34.7 55.75 33.8 L50.75 8.0 40.3 10.0 Q39.25 10.2 38.85 10.75 38.4 11.3 38.3 12.45 L37.45 12.65 35.45 2.15 36.3 2.0 Q36.8 3.0 37.4 3.4 L39.0 3.55 68.4 -2.1 Q69.45 -2.45 69.9 -2.9 M108.05 -6.15 Q108.7 -6.4 109.25 -7.15 L110.05 -6.9 107.4 2.2 106.55 2.0 Q106.35 0.95 105.55 0.45 103.5 -0.85 99.75 -1.2 L92.4 -0.85 Q89.25 -0.3 87.1 1.05 83.9 2.9 84.4 5.3 84.65 6.8 86.45 7.2 L93.0 7.0 98.1 6.4 Q104.85 5.65 108.55 7.0 110.5 7.65 112.3 9.45 114.3 11.45 114.85 14.45 115.95 19.85 111.7 24.0 107.5 27.9 99.65 29.45 91.55 30.9 83.5 29.0 L82.55 28.95 Q81.95 29.15 81.6 29.95 L80.7 29.8 82.7 20.4 83.55 20.6 83.6 20.85 Q83.65 21.6 84.45 22.1 86.35 23.2 90.45 23.45 L98.35 23.05 Q101.55 22.4 104.15 20.95 107.2 19.25 106.8 16.85 106.4 14.85 103.95 14.6 L98.35 14.75 93.25 15.3 86.95 15.7 83.0 14.95 Q80.6 14.05 79.15 12.1 77.6 10.2 77.1 7.55 75.95 1.65 80.35 -2.35 84.4 -6.05 91.1 -7.3 L98.05 -7.8 106.1 -6.45 108.05 -6.15 M40.75 40.05 L25.85 42.9 25.65 42.0 Q27.25 41.25 27.05 40.3 27.0 39.65 25.65 38.35 L16.6 29.6 8.1 31.25 10.3 42.55 Q10.5 43.55 11.05 43.95 11.6 44.45 12.75 44.5 L12.9 45.4 0.4 47.8 0.2 46.95 Q1.25 46.45 1.6 45.8 1.95 45.2 1.8 44.2 L-3.85 15.2 Q-4.05 14.15 -4.6 13.8 -5.15 13.3 -6.3 13.25 L-6.45 12.3 16.8 7.85 23.75 7.0 Q26.3 7.0 28.35 7.8 32.65 9.5 33.75 15.25 34.6 19.65 32.7 22.4 30.8 25.35 25.75 27.45 L34.3 35.45 Q36.5 37.65 37.9 38.45 39.25 39.1 40.6 39.1 L40.75 40.05 M23.15 14.2 Q21.55 13.55 18.05 14.3 L5.25 16.75 6.85 24.8 19.65 22.3 Q22.55 21.75 23.8 20.85 25.65 19.65 25.15 17.1 24.75 14.9 23.15 14.2 M-56.1 -26.65 Q-63.55 -25.2 -67.2 -20.65 -71.5 -15.4 -70.15 -8.3 -68.9 -1.4 -62.85 2.0 -57.65 4.85 -50.3 3.4 -44.05 2.2 -39.05 -2.05 -37.2 -3.65 -36.6 -4.55 -35.9 -5.55 -36.1 -6.4 L-36.35 -7.25 -35.6 -8.0 -27.85 -0.15 -28.55 0.55 Q-29.6 -0.1 -30.15 0.0 -30.7 0.15 -33.05 2.15 -37.95 6.45 -41.4 8.15 -45.1 10.1 -50.05 10.95 -60.25 13.0 -67.8 9.4 -72.25 7.35 -75.2 3.55 -78.75 -0.7 -79.85 -6.45 -81.3 -14.4 -77.9 -21.05 -72.6 -31.05 -58.65 -33.75 L-49.7 -34.45 Q-45.9 -34.05 -39.65 -31.9 L-36.15 -31.05 Q-35.6 -31.15 -34.85 -32.15 L-33.95 -31.75 -38.25 -21.6 -39.15 -21.95 -39.25 -22.8 Q-39.45 -23.8 -40.35 -24.4 -41.55 -25.15 -43.6 -25.8 -49.8 -27.8 -56.1 -26.65 M-10.7 -11.8 L0.7 -13.95 -7.35 -24.25 -10.7 -11.8 M-39.2 19.6 L-39.4 18.7 -25.55 16.05 -25.4 16.9 Q-27.05 17.9 -26.75 19.4 -26.55 20.45 -25.45 21.8 L-7.1 44.7 -4.8 47.0 Q-4.05 47.5 -2.75 47.5 L-2.55 48.35 -17.05 51.2 -17.25 50.3 Q-15.2 49.6 -15.55 48.0 -15.7 47.0 -16.8 45.75 L-19.45 42.5 -35.8 45.6 -36.9 49.85 -37.15 52.15 Q-36.85 53.7 -34.75 53.7 L-34.55 54.6 -47.6 57.1 -47.8 56.2 Q-46.6 55.85 -46.15 55.15 -45.65 54.55 -45.15 52.75 L-37.25 24.0 Q-36.85 22.4 -37.0 21.25 -37.25 19.95 -39.2 19.6 M-34.3 40.15 L-23.0 37.95 -31.0 27.7 -34.3 40.15 M-54.8 36.05 Q-52.6 47.25 -58.45 54.4 -60.75 57.4 -64.5 59.25 -68.1 61.05 -74.1 62.25 L-98.25 66.9 -98.45 65.85 Q-97.3 65.3 -97.05 64.75 -96.65 64.15 -96.85 63.15 L-103.95 26.6 Q-104.15 25.65 -104.7 25.15 -105.3 24.75 -106.4 24.7 L-106.6 23.65 -82.45 19.0 Q-74.6 17.45 -69.95 18.45 -63.3 19.9 -59.3 25.35 -56.0 29.75 -54.8 36.05 M-69.8 27.85 Q-72.05 26.15 -74.8 25.8 L-81.9 26.25 -93.75 28.55 -88.15 57.55 -76.3 55.3 Q-70.65 54.15 -68.05 52.05 -62.6 47.5 -64.4 37.9 -65.75 31.0 -69.8 27.85" fill="none" stroke="#000000" stroke-linecap="butt" stroke-linejoin="miter-clip" stroke-miterlimit="4.0" stroke-width="1.6"/>
      <path d="M107.7 -85.6 Q112.25 -90.05 118.55 -90.05 124.9 -90.05 129.35 -85.6 133.85 -81.05 133.85 -74.75 133.85 -68.4 129.35 -63.9 124.9 -59.45 118.55 -59.45 112.25 -59.45 107.7 -63.9 103.25 -68.4 103.25 -74.75 103.25 -81.05 107.7 -85.6" fill="url(#gradient0)" fill-rule="evenodd" stroke="none"/>
      <path d="M-106.05 -74.75 Q-106.05 -68.4 -110.5 -63.9 -114.95 -59.45 -121.35 -59.45 -127.65 -59.45 -132.15 -63.9 -136.65 -68.4 -136.65 -74.75 -136.65 -81.05 -132.15 -85.6 -127.65 -90.05 -121.35 -90.05 -114.95 -90.05 -110.5 -85.6 -106.05 -81.05 -106.05 -74.75" fill="url(#gradient1)" fill-rule="evenodd" stroke="none"/>
      <path d="M107.2 -78.75 L131.45 -75.1 130.7 -70.1 106.5 -73.7 107.2 -78.75" fill="#ffffff" fill-rule="evenodd" stroke="none"/>
      <path d="M-108.25 -76.7 Q-119.55 -72.1 -130.95 -67.55 L-132.85 -72.25 -110.15 -81.4 -108.25 -76.7" fill="#ffffff" fill-rule="evenodd" stroke="none"/>
      <path d="M107.3 -80.15 L130.65 -76.65 129.85 -71.65 106.5 -75.1 107.3 -80.15" fill="url(#gradient2)" fill-rule="evenodd" stroke="none"/>
      <path d="M-109.7 -77.65 L-131.65 -68.75 -133.55 -73.45 -111.6 -82.35 -109.7 -77.65" fill="url(#gradient3)" fill-rule="evenodd" stroke="none"/>
      <path d="M64.85 -90.15 L72.15 -90.15 72.15 -87.2 Q69.3 -85.15 68.35 -79.3 L67.95 -77.65 Q67.45 -76.85 66.55 -76.85 65.55 -76.85 65.1 -77.5 L64.85 -78.3 64.85 -90.15 M59.9 -74.9 L59.9 -67.15 42.15 -67.15 42.15 -74.9 59.9 -74.9 M74.4 -57.85 L74.4 -90.15 86.85 -90.15 86.85 -57.85 Q86.85 -56.4 87.1 -56.05 87.35 -55.55 88.6 -55.15 89.7 -54.75 89.7 -53.75 89.7 -52.3 87.8 -52.2 L73.5 -52.2 72.45 -52.4 Q71.6 -52.85 71.6 -53.75 71.6 -54.75 72.7 -55.15 74.0 -55.55 74.25 -56.05 L74.4 -57.85 M24.45 -90.15 L35.75 -90.15 35.75 -79.85 Q35.75 -78.6 34.15 -78.6 33.25 -78.6 32.8 -79.9 30.75 -86.2 24.45 -87.2 L24.45 -90.15 M29.55 -79.35 Q30.6 -79.35 30.85 -78.35 L30.9 -77.1 30.9 -66.15 30.85 -64.9 Q30.55 -63.9 29.55 -63.9 28.45 -63.9 28.0 -65.6 27.05 -69.35 24.45 -70.05 L24.45 -73.2 Q27.05 -73.9 28.0 -77.7 28.45 -79.35 29.55 -79.35 M1.0 -79.9 Q-1.1 -86.2 -7.4 -87.2 L-7.4 -90.15 3.95 -90.15 3.95 -79.85 Q3.95 -78.6 2.35 -78.6 1.4 -78.6 1.0 -79.9 M9.5 -86.3 L7.95 -87.2 Q6.85 -87.6 6.85 -88.6 6.85 -89.5 7.7 -89.95 L8.75 -90.15 22.1 -90.15 22.1 -52.2 8.75 -52.2 7.7 -52.4 Q6.85 -52.85 6.85 -53.75 6.85 -54.75 7.95 -55.15 9.25 -55.55 9.5 -56.05 9.7 -56.4 9.7 -57.85 L9.7 -84.5 Q9.7 -85.95 9.5 -86.3 M33.65 -63.55 Q34.05 -64.05 34.6 -64.05 36.05 -64.05 36.05 -62.35 L36.05 -52.2 24.45 -52.2 24.45 -55.15 Q27.5 -55.55 29.75 -57.5 32.0 -59.4 33.05 -62.5 L33.65 -63.55 M79.55 -46.75 L79.55 -41.3 Q79.55 -40.45 78.85 -40.45 78.1 -40.45 77.95 -41.3 77.05 -45.5 74.25 -46.2 L74.25 -47.6 76.0 -47.1 77.55 -46.6 Q77.95 -46.6 78.15 -47.1 L78.85 -47.6 Q79.55 -47.6 79.55 -46.75 M73.2 -46.2 Q71.75 -45.95 71.75 -44.05 L71.75 -32.9 Q71.75 -31.0 73.2 -30.7 L73.2 -29.3 Q69.5 -29.35 67.5 -32.0 65.6 -34.3 65.6 -38.15 65.6 -42.2 67.7 -44.85 69.85 -47.45 73.2 -47.6 L73.2 -46.2 M79.55 -33.95 Q79.55 -32.45 77.85 -30.9 76.0 -29.25 74.25 -29.3 L74.25 -30.7 Q77.3 -31.3 78.1 -34.0 78.4 -34.75 78.9 -34.75 79.55 -34.75 79.55 -33.95 M96.2 -77.5 Q95.8 -76.85 94.8 -76.85 93.2 -76.85 92.95 -79.3 92.45 -82.1 91.85 -83.55 90.95 -85.95 89.15 -87.2 L89.15 -90.15 96.45 -90.15 96.45 -78.3 96.2 -77.5 M120.35 -46.5 L120.35 -42.5 Q120.35 -41.35 119.65 -41.35 118.9 -41.35 118.8 -42.25 118.6 -43.6 117.6 -44.75 116.6 -45.95 115.25 -46.2 L115.25 -47.6 Q116.7 -47.5 118.55 -46.65 L119.15 -47.1 Q119.4 -47.5 119.7 -47.5 120.35 -47.5 120.35 -46.5 M114.2 -46.2 Q112.5 -45.75 112.5 -44.3 112.5 -43.35 113.15 -42.8 113.9 -42.15 115.9 -41.35 121.05 -39.4 121.05 -35.4 121.05 -32.7 119.1 -31.0 117.2 -29.35 114.5 -29.3 L114.5 -30.7 Q116.65 -31.25 116.65 -32.85 116.7 -33.8 115.7 -34.5 L113.85 -35.4 Q111.0 -36.55 109.9 -37.6 108.15 -39.2 108.15 -41.65 108.15 -44.3 109.85 -45.95 111.5 -47.45 114.2 -47.6 L114.2 -46.2 M103.75 -47.6 Q104.9 -47.6 105.7 -46.6 106.4 -45.75 106.4 -44.55 106.4 -42.3 104.3 -40.55 102.85 -39.4 101.9 -39.25 101.1 -39.2 101.1 -39.8 101.1 -40.1 102.15 -40.8 103.85 -41.75 103.85 -42.45 L103.05 -42.8 Q102.25 -42.85 101.7 -43.6 101.2 -44.35 101.2 -45.2 101.2 -46.2 101.95 -46.9 102.7 -47.6 103.75 -47.6 M108.85 -36.1 Q109.55 -36.1 109.8 -35.3 110.05 -33.7 110.95 -32.4 112.0 -30.95 113.45 -30.7 L113.45 -29.3 Q112.3 -29.35 111.4 -29.8 L110.15 -30.2 Q109.75 -30.2 109.4 -29.8 109.2 -29.4 108.85 -29.4 108.15 -29.4 108.15 -30.4 L108.15 -34.9 Q108.15 -36.1 108.85 -36.1 M102.15 -31.3 Q102.15 -30.45 101.55 -29.9 101.0 -29.3 100.1 -29.3 99.3 -29.3 98.7 -29.9 98.1 -30.45 98.1 -31.3 98.1 -32.1 98.7 -32.7 99.25 -33.25 100.1 -33.25 101.0 -33.25 101.55 -32.7 102.15 -32.1 102.15 -31.3 M96.65 -38.45 Q96.65 -34.75 94.85 -32.3 92.9 -29.65 89.35 -29.3 L89.35 -30.7 Q90.55 -31.15 90.55 -32.35 L90.55 -44.55 Q90.55 -45.75 89.35 -46.2 L89.35 -47.6 Q92.9 -47.2 94.85 -44.6 96.65 -42.15 96.65 -38.45 M87.1 -44.55 L87.1 -32.35 Q87.1 -31.15 88.3 -30.7 L88.3 -29.3 Q84.7 -29.65 82.75 -32.3 80.95 -34.75 80.95 -38.45 80.95 -42.15 82.75 -44.6 84.7 -47.2 88.3 -47.6 L88.3 -46.2 Q87.1 -45.75 87.1 -44.55 M-88.7 -87.35 Q-85.1 -90.75 -79.4 -90.9 L-79.4 -87.95 Q-82.95 -86.7 -82.95 -83.8 -82.95 -81.85 -81.55 -80.55 -79.95 -79.15 -75.55 -77.45 -69.4 -75.05 -66.7 -71.45 -64.55 -68.55 -64.55 -64.6 -64.55 -58.85 -68.75 -55.1 -72.8 -51.55 -78.6 -51.45 L-78.6 -54.4 Q-76.5 -55.05 -75.45 -55.95 -74.1 -57.15 -74.05 -59.05 -73.95 -61.1 -76.1 -62.65 -76.9 -63.25 -80.1 -64.65 -86.15 -67.1 -88.65 -69.45 -92.45 -72.8 -92.45 -78.2 -92.45 -83.8 -88.7 -87.35 M-86.35 -58.15 Q-84.0 -55.0 -80.9 -54.4 L-80.9 -51.45 Q-83.45 -51.5 -85.45 -52.4 -87.5 -53.35 -88.1 -53.35 -88.95 -53.35 -89.65 -52.5 -90.25 -51.6 -90.85 -51.6 -92.45 -51.6 -92.45 -53.75 L-92.45 -63.55 Q-92.45 -66.05 -90.8 -66.05 -89.25 -66.05 -88.9 -64.35 -88.35 -61.0 -86.35 -58.15 M-0.9 -77.1 L-0.9 -66.15 -0.95 -64.9 Q-1.2 -63.9 -2.2 -63.9 -3.35 -63.9 -3.85 -65.6 -4.65 -69.35 -7.4 -70.05 L-7.4 -73.2 Q-4.65 -73.9 -3.85 -77.7 -3.35 -79.35 -2.2 -79.35 -1.2 -79.35 -0.95 -78.35 L-0.9 -77.1 M-22.3 -86.3 Q-22.55 -86.8 -23.85 -87.2 -24.95 -87.6 -24.95 -88.6 -24.95 -89.5 -24.1 -89.95 L-23.05 -90.15 -9.65 -90.15 -9.65 -57.85 Q-9.65 -56.4 -9.45 -56.05 -9.25 -55.55 -7.95 -55.15 -6.85 -54.75 -6.85 -53.75 -6.85 -52.2 -8.75 -52.2 L-23.05 -52.2 -24.1 -52.4 Q-24.95 -52.85 -24.95 -53.75 -24.95 -54.75 -23.85 -55.15 -22.55 -55.55 -22.3 -56.05 -22.1 -56.4 -22.1 -57.85 L-22.1 -84.5 Q-22.1 -85.95 -22.3 -86.3 M-27.65 -53.5 Q-27.65 -52.2 -30.4 -52.2 L-43.05 -52.2 Q-45.6 -52.2 -45.6 -53.65 -45.6 -54.5 -44.6 -55.05 -43.55 -55.6 -43.35 -56.1 -43.2 -56.65 -43.5 -58.1 L-44.55 -62.05 -51.95 -62.05 -51.2 -64.95 -45.0 -64.95 -50.15 -87.4 -49.5 -90.15 -38.3 -90.15 -30.7 -58.1 -30.2 -56.3 Q-29.85 -55.55 -28.95 -55.1 -27.65 -54.55 -27.65 -53.5 M-51.25 -83.0 L-50.0 -77.3 -54.75 -59.95 Q-55.3 -57.8 -54.9 -56.75 -54.5 -55.9 -53.1 -55.25 L-52.05 -54.6 Q-51.55 -54.25 -51.55 -53.6 -51.55 -52.2 -54.2 -52.2 L-60.1 -52.2 Q-62.9 -52.2 -62.9 -53.7 -62.9 -54.5 -62.35 -54.8 L-60.95 -55.4 Q-58.6 -56.7 -57.5 -60.8 L-51.45 -83.0 -51.25 -83.0 M-65.95 -88.65 L-65.95 -79.95 Q-65.95 -77.5 -67.6 -77.5 -69.2 -77.5 -69.45 -79.45 -69.85 -82.4 -72.0 -84.8 -74.2 -87.35 -77.1 -87.95 L-77.1 -90.9 -72.5 -89.95 -69.95 -88.95 Q-69.25 -88.95 -68.65 -89.8 -68.05 -90.75 -67.4 -90.75 -65.95 -90.75 -65.95 -88.65" fill="#000000" fill-rule="evenodd" stroke="none"/>
    </g>
    <radialGradient cx="0" cy="0" gradientTransform="matrix(0.0147, 0.0205, 0.0205, -0.0147, 116.15, -77.55)" gradientUnits="userSpaceOnUse" id="gradient0" r="819.2" spreadMethod="pad">
      <stop offset="0.0" stop-color="#e5e2df"/>
      <stop offset="0.0" stop-color="#f1efee"/>
      <stop offset="0.0" stop-color="#ffffff"/>
      <stop offset="0.12549019607843137" stop-color="#f0f0f1"/>
      <stop offset="0.36470588235294116" stop-color="#c9cacb"/>
      <stop offset="0.5215686274509804" stop-color="#adaeb0"/>
      <stop offset="0.6039215686274509" stop-color="#a3a5a7"/>
      <stop offset="0.7372549019607844" stop-color="#898d90"/>
      <stop offset="0.9098039215686274" stop-color="#5f6769"/>
      <stop offset="1.0" stop-color="#465053"/>
    </radialGradient>
    <radialGradient cx="0" cy="0" gradientTransform="matrix(0.0147, 0.0205, 0.0205, -0.0147, -123.7, -77.55)" gradientUnits="userSpaceOnUse" id="gradient1" r="819.2" spreadMethod="pad">
      <stop offset="0.0" stop-color="#e5e2df"/>
      <stop offset="0.0" stop-color="#f1efee"/>
      <stop offset="0.0" stop-color="#ffffff"/>
      <stop offset="0.12549019607843137" stop-color="#f0f0f1"/>
      <stop offset="0.36470588235294116" stop-color="#c9cacb"/>
      <stop offset="0.5215686274509804" stop-color="#adaeb0"/>
      <stop offset="0.6039215686274509" stop-color="#a3a5a7"/>
      <stop offset="0.7372549019607844" stop-color="#898d90"/>
      <stop offset="0.9098039215686274" stop-color="#5f6769"/>
      <stop offset="1.0" stop-color="#465053"/>
    </radialGradient>
    <radialGradient cx="0" cy="0" gradientTransform="matrix(0.0056, 0.0233, 0.0233, -0.0056, 111.6, -89.2)" gradientUnits="userSpaceOnUse" id="gradient2" r="819.2" spreadMethod="pad">
      <stop offset="0.0" stop-color="#e5e2df"/>
      <stop offset="0.0" stop-color="#f1efee"/>
      <stop offset="0.0" stop-color="#ffffff"/>
      <stop offset="0.12549019607843137" stop-color="#f0f0f1"/>
      <stop offset="0.36470588235294116" stop-color="#c9cacb"/>
      <stop offset="0.5215686274509804" stop-color="#adaeb0"/>
      <stop offset="0.6039215686274509" stop-color="#a3a5a7"/>
      <stop offset="0.7372549019607844" stop-color="#898d90"/>
      <stop offset="0.9098039215686274" stop-color="#5f6769"/>
      <stop offset="1.0" stop-color="#465053"/>
    </radialGradient>
    <radialGradient cx="0" cy="0" gradientTransform="matrix(0.0166, 0.0173, 0.0173, -0.0166, -134.35, -83.55)" gradientUnits="userSpaceOnUse" id="gradient3" r="819.2" spreadMethod="pad">
      <stop offset="0.0" stop-color="#e5e2df"/>
      <stop offset="0.0" stop-color="#f1efee"/>
      <stop offset="0.0" stop-color="#ffffff"/>
      <stop offset="0.12549019607843137" stop-color="#f0f0f1"/>
      <stop offset="0.36470588235294116" stop-color="#c9cacb"/>
      <stop offset="0.5215686274509804" stop-color="#adaeb0"/>
      <stop offset="0.6039215686274509" stop-color="#a3a5a7"/>
      <stop offset="0.7372549019607844" stop-color="#898d90"/>
      <stop offset="0.9098039215686274" stop-color="#5f6769"/>
      <stop offset="1.0" stop-color="#465053"/>
    </radialGradient>
  </defs>
</svg>
