<?xml version="1.0" encoding="UTF-8" standalone="no"?>
<svg xmlns:xlink="http://www.w3.org/1999/xlink" height="300.0px" width="300.0px" xmlns="http://www.w3.org/2000/svg">
  <g transform="matrix(1.0, 0.0, 0.0, 1.0, 0.0, 0.0)">
    <use height="209.55" transform="matrix(0.7, 0.0, 0.0, 0.7, -6.2943, 74.0753)" width="448.6" xlink:href="#sprite0"/>
  </g>
  <defs>
    <g id="sprite0" transform="matrix(1.0, 0.0, 0.0, 1.0, 225.35, 104.75)">
      <use height="209.55" transform="matrix(1.0, 0.0, 0.0, 1.0, -225.35, -104.75)" width="448.6" xlink:href="#shape0"/>
    </g>
    <g id="shape0" transform="matrix(1.0, 0.0, 0.0, 1.0, 225.35, 104.75)">
      <path d="M-65.6 32.15 Q-62.85 31.3 -59.7 27.65 -59.45 28.8 -60.4 30.75 -61.35 32.7 -63.1 34.4 -62.5 35.2 -62.05 36.5 L-61.45 38.55 Q-60.85 40.2 -61.2 41.2 L-62.25 43.6 Q-62.65 45.1 -60.35 46.6 L-57.95 47.75 -58.8 52.15 -58.55 56.7 -59.55 59.05 -63.95 58.9 -64.25 56.7 Q-63.5 56.55 -62.75 56.0 -61.3 54.9 -61.5 52.85 -61.8 50.1 -65.45 49.35 L-65.8 51.3 -65.6 55.45 -66.6 57.6 -70.95 57.45 -71.3 55.45 Q-70.5 55.35 -69.8 54.8 -68.35 53.85 -68.55 51.95 -68.75 50.0 -70.9 49.2 L-74.0 48.5 Q-74.85 48.3 -76.55 46.85 L-78.05 45.45 -77.95 45.4 -86.6 45.85 Q-92.35 46.4 -95.45 47.9 L-97.25 49.05 -99.1 50.05 -98.9 50.3 -99.0 54.05 -101.15 58.5 -106.15 58.5 -105.45 57.2 -104.85 56.0 Q-104.05 54.85 -103.4 54.9 -102.35 55.0 -101.95 53.8 -101.55 52.5 -102.5 50.8 L-105.65 51.05 -105.4 53.1 -106.1 56.8 -108.15 59.1 -114.55 59.1 -113.9 57.7 -112.45 56.9 Q-110.85 56.0 -110.2 56.0 -109.35 56.0 -109.2 54.4 -109.05 52.6 -110.2 51.65 L-111.15 50.6 -112.35 49.7 -113.55 48.65 Q-117.45 47.75 -120.15 45.9 -122.6 44.2 -123.3 42.35 -125.35 36.4 -125.95 31.85 L-127.3 22.85 Q-128.35 16.15 -128.65 11.75 -129.5 1.45 -129.45 -6.45 -129.35 -16.35 -127.9 -33.4 -125.7 -56.25 -125.25 -64.3 -124.4 -77.35 -126.65 -79.35 -128.75 -81.2 -131.2 -81.15 L-134.5 -80.9 -137.4 -81.85 -139.0 -82.5 -142.0 -79.4 -148.1 -81.25 -146.8 -83.3 -144.15 -86.45 -140.85 -88.15 Q-138.55 -89.2 -137.7 -90.6 -137.05 -91.65 -135.4 -92.75 -134.0 -93.6 -133.4 -95.25 -132.75 -97.15 -130.0 -97.35 L-127.4 -97.2 Q-126.3 -100.2 -126.15 -102.95 -126.05 -104.95 -124.55 -104.75 -123.0 -104.55 -123.4 -102.8 -123.85 -100.65 -123.05 -98.1 -122.05 -98.35 -121.0 -100.9 -120.25 -102.85 -118.85 -103.0 -117.4 -103.15 -118.15 -101.2 -118.75 -99.75 -118.7 -98.2 -118.6 -96.4 -118.75 -95.85 -119.0 -94.7 -117.05 -94.1 L-115.05 -93.65 -116.3 -90.6 -113.45 -84.0 Q-110.65 -75.25 -110.65 -64.5 -110.7 -49.25 -109.0 -22.85 -107.15 6.35 -105.2 11.8 L-102.45 19.3 Q-101.05 22.65 -99.6 24.6 L-96.3 28.7 Q-92.9 31.6 -87.4 31.9 L-75.85 31.35 -68.3 31.15 Q-66.85 31.3 -65.6 32.15" fill="#000000" fill-rule="evenodd" stroke="none"/>
      <path d="M-217.05 75.1 L-216.65 75.3 Q-216.5 75.45 -216.5 76.4 L-217.45 88.55 -217.3 90.45 -217.0 92.05 -216.1 95.15 -215.75 96.8 -215.35 98.45 -214.6 99.75 Q-214.05 100.25 -213.05 100.25 L-211.4 100.0 Q-210.45 99.85 -209.6 99.3 L-208.15 98.2 Q-207.5 97.45 -207.35 96.7 L-207.05 94.75 -206.65 89.5 Q-206.65 87.85 -206.8 86.4 L-207.35 80.95 -207.5 77.95 -207.45 77.0 -207.25 76.1 -206.8 75.45 -205.9 75.15 Q-205.35 75.15 -205.0 75.4 -204.55 75.65 -204.55 76.0 -204.55 79.65 -204.15 82.35 -203.8 85.6 -203.8 88.05 -203.8 90.9 -203.95 93.45 L-204.2 95.75 Q-204.25 97.15 -204.8 98.35 -205.35 99.55 -206.45 100.35 -207.6 101.15 -209.6 101.65 L-214.6 102.15 Q-215.5 102.15 -216.3 101.6 L-217.45 100.3 -218.2 98.4 -219.15 93.4 -219.85 85.9 -219.55 81.85 -219.25 79.2 -218.75 76.5 Q-218.5 75.45 -218.0 75.3 L-217.05 75.1" fill="#000000" fill-rule="evenodd" stroke="none"/>
      <path d="M-196.3 77.5 L-194.9 80.2 -193.95 83.0 -190.35 94.95 -189.45 96.95 -188.65 94.35 -188.35 93.35 -187.15 79.8 -186.8 78.2 Q-186.65 77.6 -186.1 77.6 -185.4 77.6 -184.95 78.0 -184.5 78.5 -184.5 79.0 L-185.7 92.4 Q-185.7 93.55 -185.85 94.15 L-187.2 102.4 -187.7 103.75 Q-187.9 104.25 -188.35 104.4 L-189.4 104.5 Q-189.95 104.5 -190.3 103.85 L-190.9 102.15 -191.3 99.9 -191.6 97.45 Q-191.65 96.65 -192.05 95.0 L-193.7 90.45 -194.55 88.9 Q-194.55 88.1 -194.85 86.65 L-195.7 83.65 Q-196.4 81.5 -196.95 80.65 -197.45 79.6 -198.35 78.65 -199.1 80.35 -199.1 82.1 L-198.2 92.55 -198.15 100.15 Q-198.15 101.25 -198.5 101.75 -198.8 102.45 -199.2 102.45 -199.75 102.45 -200.3 101.5 -200.8 100.5 -200.8 99.35 L-200.85 83.85 -200.65 79.55 -200.3 75.7 Q-200.0 74.0 -199.55 73.45 L-197.9 75.15 -196.3 77.5" fill="#000000" fill-rule="evenodd" stroke="none"/>
      <path d="M-179.2 78.65 Q-179.95 80.35 -179.95 82.1 L-179.05 92.55 -179.0 100.15 Q-179.0 101.25 -179.35 101.75 -179.65 102.45 -180.1 102.45 -180.6 102.45 -181.15 101.5 -181.7 100.5 -181.7 99.35 L-181.8 87.3 -181.15 75.7 Q-180.85 74.0 -180.4 73.45 L-178.75 75.15 -177.15 77.5 -175.75 80.2 -174.75 83.0 -172.0 92.8 -170.3 96.95 -169.25 93.35 -168.3 82.7 -168.0 79.8 -167.7 78.2 Q-167.55 77.6 -166.95 77.6 -166.25 77.6 -165.85 78.0 -165.35 78.45 -165.35 79.0 L-166.65 94.15 -168.05 102.4 -168.5 103.75 Q-168.8 104.25 -169.25 104.4 L-170.25 104.5 Q-170.85 104.5 -171.15 103.85 L-171.75 102.15 -172.2 99.9 -172.45 97.45 Q-172.5 96.65 -172.9 95.0 L-173.7 92.5 Q-174.0 91.4 -174.55 90.45 L-175.45 88.9 -175.7 86.65 -176.55 83.65 -177.75 80.65 -179.2 78.65" fill="#000000" fill-rule="evenodd" stroke="none"/>
      <path d="M-157.35 79.25 L-159.4 79.85 -159.3 81.6 -159.7 86.25 -156.8 85.8 -154.75 85.1 -153.3 84.45 -152.15 84.25 -151.2 84.85 Q-150.65 85.55 -150.65 86.35 -150.65 86.9 -151.25 87.25 L-152.75 87.9 -154.8 88.45 -160.1 89.15 -160.45 96.25 -154.0 95.5 -152.85 95.4 Q-152.3 95.4 -151.9 96.05 -151.45 96.75 -151.45 97.25 -151.45 97.75 -151.8 97.95 L-152.85 98.3 -158.1 98.4 -161.6 98.25 Q-162.6 97.95 -162.6 97.5 L-162.2 92.9 -162.15 87.55 -161.65 84.8 Q-161.3 83.25 -161.3 82.25 L-161.4 81.2 -161.75 79.8 -161.85 79.15 Q-161.85 78.0 -161.5 77.6 -161.25 77.25 -160.35 76.85 L-157.5 75.8 -154.2 75.2 Q-153.5 75.2 -153.15 75.65 -152.8 76.15 -152.8 76.9 -152.8 77.45 -153.55 77.95 L-155.2 78.65 -157.35 79.25" fill="#000000" fill-rule="evenodd" stroke="none"/>
      <path d="M-145.9 77.95 Q-144.75 76.2 -142.6 75.15 -140.5 74.15 -137.2 74.15 -136.5 74.15 -136.25 74.75 L-135.95 75.75 Q-135.95 76.95 -137.15 77.15 -140.1 77.55 -142.2 78.45 -144.0 79.3 -144.95 80.7 -145.9 82.1 -146.1 84.0 L-146.3 88.6 -146.05 91.55 Q-145.85 92.85 -145.25 94.0 -144.65 95.1 -143.6 95.65 -142.6 96.3 -140.95 96.3 L-139.4 96.15 -138.3 95.85 -137.6 95.55 -136.85 95.4 Q-136.05 95.4 -135.75 96.05 -135.45 96.75 -135.45 97.15 -135.45 97.95 -136.0 98.6 L-137.4 99.65 -139.15 100.25 -140.8 100.45 Q-142.4 100.45 -143.65 99.75 L-145.65 97.9 -146.9 95.25 -147.6 92.2 -148.0 89.15 -148.05 86.55 Q-148.05 84.2 -147.6 81.9 -147.1 79.55 -145.9 77.95" fill="#000000" fill-rule="evenodd" stroke="none"/>
      <path d="M-129.3 79.85 L-129.2 81.6 -129.55 86.25 -126.75 85.8 -124.65 85.1 -123.2 84.45 -122.1 84.25 Q-121.7 84.25 -121.1 84.85 -120.6 85.55 -120.6 86.35 -120.6 86.9 -121.15 87.25 L-122.65 87.9 -124.65 88.45 -130.05 89.15 -130.35 96.25 -123.9 95.5 -122.75 95.4 Q-122.2 95.4 -121.8 96.05 -121.35 96.75 -121.35 97.25 -121.35 97.75 -121.65 97.95 L-122.75 98.3 -128.0 98.4 -131.55 98.25 Q-132.5 97.95 -132.5 97.5 L-132.1 92.9 -132.05 87.55 -131.6 84.8 -131.2 82.25 -131.3 81.2 -131.65 79.8 -131.75 79.15 Q-131.75 78.1 -131.45 77.6 -131.2 77.3 -130.25 76.85 L-127.4 75.8 -124.1 75.2 Q-123.4 75.2 -123.05 75.65 -122.7 76.15 -122.7 76.9 -122.7 77.45 -123.45 77.95 L-125.15 78.65 -127.25 79.25 -129.3 79.85" fill="#000000" fill-rule="evenodd" stroke="none"/>
      <path d="M-105.8 73.3 L-103.65 74.1 Q-102.6 74.65 -101.95 75.45 -101.35 76.25 -101.35 77.35 -101.35 77.9 -101.7 78.05 L-102.55 78.25 Q-103.3 78.25 -103.95 77.85 L-105.1 76.85 -106.45 75.9 Q-107.05 75.45 -107.95 75.45 -109.2 75.45 -110.3 76.05 -111.4 76.65 -112.1 77.5 -112.8 78.25 -113.3 79.55 -113.75 80.7 -113.75 81.8 -113.75 82.9 -113.4 83.75 L-112.45 84.95 -111.05 85.8 -107.55 87.75 -105.15 89.65 -103.1 92.1 Q-102.15 93.5 -102.15 95.0 -102.15 96.0 -103.05 96.9 L-105.05 98.65 -107.7 99.95 -110.2 100.35 -111.75 100.25 -113.1 100.0 -114.4 99.55 -118.0 97.65 -118.9 96.8 -119.25 95.85 -119.05 94.95 Q-118.9 94.65 -118.15 94.65 -117.55 94.65 -116.95 95.1 L-113.2 97.6 Q-112.1 98.3 -110.75 98.3 L-109.1 98.0 Q-108.05 97.65 -107.25 97.2 L-105.75 96.0 Q-105.1 95.25 -105.1 94.55 -105.1 93.55 -105.95 92.55 -106.6 91.7 -107.75 90.8 L-109.75 89.55 -111.1 88.9 -113.15 87.7 -114.65 86.25 -115.55 84.25 -115.85 81.45 Q-115.85 79.8 -115.2 78.4 -114.65 77.0 -113.5 75.7 -112.4 74.5 -110.95 73.8 -109.5 73.1 -107.8 73.1 L-105.8 73.3" fill="#000000" fill-rule="evenodd" stroke="none"/>
      <path d="M-87.05 73.3 Q-85.9 73.6 -84.9 74.1 -83.85 74.65 -83.2 75.45 -82.55 76.3 -82.55 77.35 -82.55 77.85 -82.95 78.05 L-83.8 78.25 -85.15 77.85 -86.35 76.85 -87.65 75.9 Q-88.35 75.45 -89.2 75.45 -90.45 75.45 -91.55 76.05 L-93.35 77.5 Q-94.05 78.25 -94.55 79.55 -94.95 80.55 -94.95 81.8 -94.95 83.05 -94.6 83.75 L-93.7 84.95 -92.3 85.8 -88.8 87.75 Q-87.7 88.45 -86.4 89.65 -85.15 90.85 -84.35 92.1 -83.4 93.5 -83.4 95.0 -83.4 95.95 -84.25 96.9 L-86.3 98.65 -88.95 99.95 -91.45 100.35 -93.0 100.25 -94.35 100.0 -95.65 99.55 -99.25 97.65 -100.15 96.8 -100.5 95.85 -100.25 94.95 Q-100.05 94.65 -99.4 94.65 -98.85 94.65 -98.15 95.1 L-94.45 97.6 Q-93.35 98.3 -91.95 98.3 L-90.35 98.0 -88.5 97.2 -87.0 96.0 Q-86.35 95.25 -86.35 94.55 -86.35 93.55 -87.2 92.55 -87.85 91.7 -89.0 90.8 L-91.0 89.55 -92.35 88.9 -94.4 87.7 -95.85 86.25 -96.8 84.25 -97.1 81.45 Q-97.1 79.8 -96.45 78.4 -95.75 76.85 -94.75 75.7 -93.65 74.5 -92.2 73.8 -90.75 73.1 -89.05 73.1 L-87.05 73.3" fill="#000000" fill-rule="evenodd" stroke="none"/>
      <path d="M-73.25 77.7 L-75.15 89.0 -72.85 88.9 -70.35 89.0 -71.65 85.0 -73.25 77.7 M-71.5 71.85 L-69.7 80.75 -67.35 90.4 -66.7 92.2 -65.3 95.95 Q-65.0 96.9 -65.0 97.85 -65.0 98.45 -65.15 99.05 -65.25 99.6 -65.9 99.6 L-66.9 99.4 -67.45 98.8 -67.75 98.05 -67.9 97.15 -69.7 92.4 -73.6 92.05 -75.6 92.1 -76.65 94.75 -77.35 96.75 -78.0 98.05 Q-78.3 98.45 -78.8 98.45 -79.5 98.45 -79.8 98.05 L-80.0 96.9 -79.85 95.1 -79.15 93.1 -79.7 92.2 -80.35 91.75 -80.9 91.45 -81.15 91.2 Q-81.15 90.4 -80.25 89.85 -79.45 89.3 -77.65 89.0 L-75.85 76.75 -74.8 71.85 Q-74.6 71.05 -74.05 70.65 -73.55 70.3 -73.15 70.3 -72.5 70.3 -72.05 70.75 -71.65 71.1 -71.5 71.85" fill="#000000" fill-rule="evenodd" stroke="none"/>
      <path d="M-52.5 74.35 Q-51.15 74.65 -50.3 75.25 -49.35 76.1 -48.95 77.05 -48.45 78.05 -48.45 79.75 -48.45 80.85 -48.85 82.15 -49.3 83.45 -50.05 84.5 -50.75 85.6 -51.9 86.35 -53.0 87.15 -54.4 87.15 L-55.65 86.95 -53.15 91.85 -49.6 96.75 -48.3 99.05 Q-47.7 100.3 -47.7 101.5 -47.7 101.9 -48.15 102.25 L-49.05 102.55 -49.6 102.1 -49.95 101.2 -57.7 87.4 -58.95 85.85 Q-59.55 87.45 -59.85 89.4 L-60.15 94.75 -60.25 97.65 Q-60.35 99.15 -60.6 100.1 -60.85 101.25 -61.25 101.9 -61.75 102.55 -62.45 102.55 L-62.95 102.35 -63.05 101.5 -61.2 81.6 -61.25 80.65 -63.2 82.95 -63.6 83.35 -63.85 83.45 -64.35 83.4 Q-64.55 83.35 -64.55 82.9 L-64.35 81.4 -63.85 80.05 -61.5 76.85 -60.8 71.2 -60.55 70.15 -60.15 69.8 -59.15 70.2 Q-58.75 70.55 -58.5 71.2 L-58.2 72.6 -58.05 74.35 -55.3 74.05 -52.5 74.35 M-58.95 82.75 L-57.9 84.0 -56.6 84.8 -55.3 85.15 Q-54.15 85.15 -53.3 84.6 L-51.95 83.25 Q-51.35 82.4 -51.15 81.45 -50.9 80.7 -50.9 79.6 -50.9 78.75 -51.25 78.1 L-52.15 77.0 Q-52.65 76.6 -53.4 76.4 L-54.8 76.15 -58.65 76.7 Q-59.4 78.3 -59.4 81.45 L-58.95 82.75" fill="#000000" fill-rule="evenodd" stroke="none"/>
      <path d="M-45.65 71.7 Q-44.95 71.7 -44.65 72.1 L-44.15 73.3 -43.95 74.7 -43.75 75.85 -43.3 77.25 -38.1 88.45 -37.0 86.65 -34.55 80.95 -34.15 79.15 -34.25 78.4 -34.65 77.65 -34.75 76.8 Q-34.75 76.35 -34.35 76.05 -34.05 75.8 -33.7 75.8 -32.2 75.8 -31.85 76.6 -31.45 77.5 -31.45 79.05 -31.45 79.8 -31.95 81.6 L-33.25 85.05 -35.05 88.9 -37.05 92.75 -40.6 98.75 Q-41.3 99.9 -41.6 100.95 L-42.15 102.95 -42.6 104.3 Q-42.85 104.8 -43.55 104.8 L-44.4 104.55 Q-44.8 104.15 -44.8 103.5 -44.8 102.55 -44.2 101.25 L-42.75 98.4 -39.0 92.05 -42.9 83.55 -45.2 78.05 Q-46.2 75.25 -46.2 72.6 -46.2 71.7 -45.65 71.7" fill="#000000" fill-rule="evenodd" stroke="none"/>
      <path d="M-11.45 86.6 L-12.05 89.0 -9.7 88.9 -7.2 89.0 -8.45 85.0 Q-9.25 82.4 -10.1 77.7 L-11.45 86.6 M-8.35 71.85 L-6.55 80.75 -4.25 90.4 -2.8 94.05 -2.15 95.95 Q-1.85 96.9 -1.85 97.85 -1.85 98.45 -2.0 99.05 -2.1 99.6 -2.75 99.6 L-3.7 99.4 -4.3 98.8 -4.6 98.05 -5.05 96.05 -6.5 92.4 -10.5 92.05 -12.45 92.1 -13.5 94.75 -14.2 96.75 -14.85 98.05 Q-15.15 98.45 -15.65 98.45 -16.35 98.45 -16.65 98.05 L-16.9 96.9 -16.7 95.1 -15.95 93.1 -16.55 92.2 -17.2 91.75 -17.75 91.45 -18.0 91.2 Q-18.0 90.4 -17.1 89.85 -16.2 89.3 -14.45 89.0 L-12.7 76.75 -11.65 71.85 -10.9 70.65 Q-10.4 70.3 -9.95 70.3 -9.35 70.3 -8.95 70.75 -8.45 71.1 -8.35 71.85" fill="#000000" fill-rule="evenodd" stroke="none"/>
      <path d="M2.95 78.65 Q2.2 80.35 2.2 82.1 L3.15 100.15 Q3.15 101.25 2.8 101.75 2.5 102.45 2.05 102.45 1.55 102.45 1.0 101.5 0.45 100.5 0.45 99.35 L0.3 87.3 1.0 75.7 Q1.3 74.0 1.75 73.45 L3.35 75.15 Q4.25 76.2 4.95 77.5 L6.4 80.2 7.4 83.0 10.15 92.8 11.85 96.95 12.9 93.35 13.85 82.7 14.15 79.8 14.45 78.2 Q14.6 77.6 15.2 77.6 15.85 77.6 16.3 78.0 16.8 78.45 16.8 79.0 L15.5 94.15 14.1 102.4 13.65 103.75 12.9 104.4 11.9 104.5 Q11.35 104.5 11.05 103.85 L10.4 102.15 9.95 99.9 9.65 97.45 9.25 95.0 8.45 92.5 7.6 90.45 6.7 88.9 6.45 86.65 5.6 83.65 4.4 80.65 2.95 78.65" fill="#000000" fill-rule="evenodd" stroke="none"/>
      <path d="M27.0 74.85 Q28.0 74.9 28.65 75.3 29.35 75.6 29.35 76.3 L29.15 76.75 28.3 76.9 25.65 76.55 25.7 97.15 25.85 97.7 28.2 97.65 30.25 97.25 31.05 97.15 32.15 97.35 Q32.8 97.5 32.8 98.1 32.8 98.8 31.8 99.25 L29.45 99.9 26.6 100.1 20.75 99.95 19.4 99.35 Q18.85 99.0 18.85 98.4 18.85 97.7 19.65 97.45 L21.75 97.25 23.1 97.25 23.25 96.45 23.1 86.65 22.85 82.0 22.7 80.65 22.8 76.5 Q21.3 75.95 20.75 75.4 20.25 74.85 20.25 74.3 20.25 74.1 20.4 73.95 L21.05 73.8 22.65 74.1 25.0 74.6 27.0 74.85" fill="#000000" fill-rule="evenodd" stroke="none"/>
      <path d="M37.15 74.15 Q37.7 74.15 38.0 75.35 L38.8 78.25 39.5 82.0 40.35 85.4 42.4 95.95 Q43.7 94.65 44.45 92.95 L46.15 88.8 48.2 81.45 48.95 79.05 49.75 77.3 Q50.15 76.55 50.5 76.55 51.2 76.55 51.6 78.7 L52.3 84.85 53.5 102.2 53.35 102.9 Q52.4 102.9 52.0 102.0 51.7 101.3 51.55 100.15 L50.3 84.35 Q49.8 84.75 49.25 85.65 L48.2 87.35 47.3 89.25 46.8 91.2 46.45 93.2 46.2 94.65 45.85 95.4 44.7 97.5 44.2 98.65 Q43.8 100.1 42.05 100.1 41.2 100.1 40.7 99.4 40.2 98.7 39.9 97.45 L39.55 94.85 39.2 89.15 38.7 87.0 37.0 81.85 36.9 96.2 36.6 97.7 36.1 98.8 Q35.7 99.2 35.15 99.2 L34.85 99.15 34.7 98.65 34.6 97.5 34.7 85.05 Q34.75 83.1 34.95 81.65 L35.5 78.8 35.6 77.7 Q35.6 76.85 35.75 76.15 35.9 75.2 36.2 74.75 36.45 74.15 37.15 74.15" fill="#000000" fill-rule="evenodd" stroke="none"/>
      <path d="M63.45 77.7 L61.5 89.0 63.85 88.9 66.35 89.0 65.05 85.0 Q64.3 82.2 63.45 77.7 M65.2 71.85 L67.0 80.75 69.3 90.4 70.0 92.2 71.4 95.95 71.7 97.85 71.55 99.05 Q71.4 99.6 70.8 99.6 L69.8 99.4 69.2 98.8 68.95 98.05 68.8 97.15 67.0 92.4 63.05 92.05 61.1 92.1 60.05 94.75 59.35 96.75 58.7 98.05 Q58.35 98.45 57.85 98.45 57.2 98.45 56.9 98.05 56.65 97.7 56.65 96.9 L56.85 95.1 57.55 93.1 57.0 92.2 56.35 91.75 55.75 91.45 55.55 91.2 Q55.55 90.4 56.4 89.85 57.3 89.3 59.05 89.0 L61.4 73.9 61.9 71.85 Q62.1 71.05 62.6 70.65 63.15 70.3 63.55 70.3 64.2 70.3 64.6 70.75 L65.2 71.85" fill="#000000" fill-rule="evenodd" stroke="none"/>
      <path d="M75.7 75.85 Q75.7 75.0 76.35 75.0 76.65 75.0 76.8 75.3 L77.05 76.15 77.1 78.1 77.05 84.4 76.1 97.3 Q76.95 96.8 78.0 96.7 L79.5 96.55 83.3 96.75 83.95 97.2 84.5 98.3 85.1 100.1 84.85 100.6 84.1 100.65 83.0 100.6 81.95 100.35 79.65 100.05 78.15 100.2 76.3 100.85 74.5 101.05 73.85 100.85 Q73.65 100.7 73.65 99.95 73.65 98.4 73.8 97.4 L74.2 95.55 74.6 93.9 74.8 92.1 74.6 89.7 74.2 87.5 75.35 82.45 Q75.75 79.75 75.75 76.95 L75.7 75.85" fill="#000000" fill-rule="evenodd" stroke="none"/>
      <path d="M101.85 71.45 Q102.85 71.45 103.1 72.4 L103.35 75.0 103.1 83.1 114.3 81.85 114.55 79.85 114.3 76.4 Q114.0 74.55 114.0 72.5 L114.2 71.0 114.55 70.4 Q114.85 70.15 115.15 70.15 L116.3 70.4 Q116.85 70.7 116.85 71.7 L117.15 81.8 118.25 82.05 118.9 82.5 119.15 83.15 119.2 83.95 Q119.2 84.8 118.5 85.05 L117.15 85.45 116.5 96.25 116.2 98.8 Q115.85 101.05 114.95 101.05 L114.2 101.0 113.55 100.65 Q113.25 100.45 113.15 99.9 L112.95 98.4 113.75 88.55 113.9 84.55 107.45 85.0 Q104.9 85.35 103.1 86.05 L102.55 95.6 102.0 99.15 Q101.65 100.75 101.1 101.75 100.6 102.85 99.95 102.85 99.4 102.85 99.3 102.1 L99.2 100.9 100.6 92.2 100.75 89.75 100.7 86.6 100.5 86.0 99.45 85.4 99.25 84.95 Q99.25 84.1 99.6 83.75 99.85 83.5 100.9 83.25 100.9 77.4 101.05 74.4 101.2 71.45 101.85 71.45" fill="#000000" fill-rule="evenodd" stroke="none"/>
      <path d="M121.65 71.7 Q122.35 71.7 122.65 72.1 L123.15 73.3 123.3 74.7 123.5 75.85 124.05 77.25 129.2 88.45 130.3 86.65 132.7 80.95 133.15 79.15 133.05 78.4 132.6 77.65 132.5 76.8 Q132.5 76.35 132.95 76.05 L133.55 75.8 Q135.1 75.8 135.45 76.6 135.8 77.35 135.8 79.05 L135.3 81.6 134.05 85.05 126.75 98.75 Q125.95 99.8 125.7 100.95 L125.2 102.95 124.65 104.3 Q124.45 104.8 123.75 104.8 L122.85 104.55 Q122.55 104.2 122.55 103.5 122.55 102.55 123.1 101.25 L124.55 98.4 126.45 95.25 128.3 92.05 124.4 83.55 122.15 78.05 Q121.05 75.1 121.05 72.6 121.05 71.7 121.65 71.7" fill="#000000" fill-rule="evenodd" stroke="none"/>
      <path d="M147.5 74.65 Q148.3 75.1 148.95 75.9 149.5 76.7 149.5 77.7 149.5 78.7 148.95 79.75 148.3 80.9 146.35 81.6 148.0 81.9 149.45 82.65 150.8 83.35 151.85 84.5 152.9 85.75 153.45 87.1 153.95 88.6 153.95 90.15 153.95 92.1 153.3 93.55 152.55 94.95 151.35 95.85 150.05 96.8 148.25 97.45 L144.15 98.65 144.0 100.4 Q143.85 101.05 143.35 101.05 142.7 101.05 142.1 100.4 141.6 99.9 141.15 98.8 140.4 97.0 139.85 94.3 L138.6 88.35 136.9 76.95 Q137.2 76.3 137.95 75.7 138.85 74.95 139.65 74.65 140.5 74.15 141.7 73.85 L143.95 73.55 145.7 73.85 147.5 74.65 M145.0 76.3 L143.8 76.0 142.35 75.95 140.85 76.25 Q140.05 76.4 139.55 77.05 L139.7 78.45 139.9 79.75 140.25 80.8 140.65 81.25 141.95 81.1 143.85 80.55 145.5 79.7 Q146.15 79.2 146.15 78.55 L145.85 77.1 145.0 76.3 M141.7 83.1 L140.25 83.55 141.95 90.95 142.8 93.75 Q143.15 94.95 143.5 94.95 L146.85 94.4 149.2 93.2 150.5 91.75 150.9 90.55 150.4 88.4 Q149.85 87.05 148.85 85.85 147.85 84.7 146.4 83.8 145.05 82.95 143.15 82.95 L141.7 83.1" fill="#000000" fill-rule="evenodd" stroke="none"/>
      <path d="M166.2 74.35 Q167.45 74.65 168.35 75.25 169.35 76.1 169.7 77.05 170.2 78.05 170.2 79.75 170.2 80.85 169.8 82.15 169.4 83.45 168.6 84.5 167.95 85.6 166.75 86.35 165.7 87.15 164.3 87.15 L163.05 86.95 165.5 91.85 169.1 96.75 170.4 99.05 Q171.0 100.3 171.0 101.5 L170.55 102.25 169.65 102.55 Q169.25 102.55 169.1 102.1 L168.75 101.2 160.95 87.4 159.75 85.85 Q159.1 87.45 158.8 89.4 158.55 91.55 158.55 94.75 L158.45 97.65 158.1 100.1 157.35 101.9 Q156.95 102.55 156.25 102.55 155.75 102.55 155.7 102.35 L155.6 101.5 157.45 81.6 157.4 80.65 155.5 82.95 155.1 83.35 154.85 83.45 154.3 83.4 154.1 82.9 154.3 81.4 154.85 80.05 157.15 76.85 157.9 71.2 158.15 70.15 Q158.35 69.8 158.55 69.8 159.2 69.9 159.55 70.2 L160.2 71.2 160.45 72.6 160.6 74.35 163.35 74.05 166.2 74.35 M165.25 76.4 L163.85 76.15 160.05 76.7 Q159.3 78.3 159.3 81.45 L159.75 82.75 160.75 84.0 162.05 84.8 163.35 85.15 Q164.55 85.15 165.35 84.6 L166.7 83.25 167.55 81.45 167.8 79.6 Q167.8 78.75 167.45 78.1 L166.5 77.0 Q166.05 76.6 165.25 76.4" fill="#000000" fill-rule="evenodd" stroke="none"/>
      <path d="M174.75 73.8 L176.3 74.1 178.65 74.6 180.7 74.85 182.35 75.3 Q183.05 75.6 183.05 76.3 L182.8 76.75 182.0 76.9 179.35 76.55 179.4 97.15 179.55 97.7 181.9 97.65 183.2 97.45 183.9 97.25 184.7 97.15 185.8 97.35 Q186.5 97.5 186.5 98.1 186.5 98.8 185.45 99.25 L183.1 99.9 180.25 100.1 174.45 99.95 173.05 99.35 Q172.55 98.95 172.55 98.4 172.55 97.65 173.35 97.45 L175.45 97.25 176.8 97.25 176.95 96.45 176.8 86.65 176.5 82.0 176.4 80.65 176.45 76.5 Q175.05 75.95 174.4 75.4 173.9 74.8 173.9 74.3 L174.1 73.95 Q174.25 73.8 174.75 73.8" fill="#000000" fill-rule="evenodd" stroke="none"/>
      <path d="M188.1 74.3 Q188.1 73.5 188.45 72.9 188.7 72.25 189.8 72.25 L190.55 72.4 191.25 72.9 191.7 73.95 191.9 75.7 Q194.4 76.5 195.95 77.9 197.4 79.05 198.3 80.6 199.2 82.2 199.45 83.75 L199.7 87.0 Q199.7 88.45 198.95 90.4 198.1 92.2 196.7 93.9 195.45 95.45 193.3 96.85 191.2 98.2 188.8 98.65 L188.55 75.85 Q188.1 75.2 188.1 74.3 M191.9 78.0 L191.85 86.6 191.6 95.4 193.05 94.55 195.0 92.55 196.8 90.1 Q197.55 88.8 197.55 87.85 L197.35 84.9 196.5 82.15 Q196.0 80.95 194.8 79.75 193.75 78.7 191.9 78.0" fill="#000000" fill-rule="evenodd" stroke="none"/>
      <path d="M207.55 84.95 L208.95 85.8 210.7 86.7 Q211.45 87.05 212.45 87.75 L214.8 89.65 Q215.9 90.6 216.9 92.1 217.8 93.55 217.8 95.0 217.8 96.05 216.95 96.9 L214.95 98.65 212.3 99.95 209.8 100.35 208.2 100.25 206.9 100.0 205.6 99.55 204.15 98.85 202.0 97.65 201.05 96.8 Q200.75 96.4 200.75 95.85 L200.95 94.95 Q201.15 94.65 201.85 94.65 202.35 94.65 203.05 95.1 L206.75 97.6 Q207.95 98.3 209.25 98.3 L210.85 98.0 212.7 97.2 Q213.55 96.8 214.2 96.0 214.85 95.3 214.85 94.55 214.85 93.5 214.05 92.55 L212.2 90.8 210.25 89.55 208.9 88.9 Q207.65 88.3 206.85 87.7 205.9 87.2 205.35 86.25 204.75 85.4 204.45 84.25 204.15 83.05 204.15 81.45 204.15 79.8 204.8 78.4 205.35 77.0 206.5 75.7 207.45 74.6 209.0 73.8 210.55 73.1 212.15 73.1 L214.2 73.3 Q215.45 73.65 216.35 74.1 217.35 74.6 218.0 75.45 218.65 76.2 218.65 77.35 218.65 77.9 218.3 78.05 L217.45 78.25 Q216.65 78.25 216.05 77.85 L213.55 75.9 Q212.95 75.45 212.05 75.45 210.8 75.45 209.7 76.05 208.7 76.55 207.85 77.5 207.2 78.3 206.7 79.55 206.25 80.7 206.25 81.8 206.25 83.05 206.6 83.75 L207.55 84.95" fill="#000000" fill-rule="evenodd" stroke="none"/>
      <path d="M-194.65 -15.8 L-189.0 -15.05 Q-185.95 -14.35 -183.15 -12.8 -180.45 -11.3 -178.5 -8.9 -176.6 -6.5 -176.6 -3.35 -176.6 -1.1 -178.05 -0.25 -179.4 0.65 -181.4 0.65 -183.65 0.65 -185.3 -0.45 -186.9 -1.45 -188.5 -2.9 -189.75 -4.05 -191.55 -5.3 -193.05 -6.4 -194.95 -6.4 -197.9 -6.4 -200.3 -5.1 -202.65 -3.75 -204.35 -1.75 -206.05 0.25 -207.05 2.8 -208.0 5.45 -208.0 7.85 -208.0 10.6 -207.15 12.2 -206.35 13.85 -204.9 14.95 -203.5 16.0 -201.65 16.85 L-197.9 18.75 Q-196.15 19.7 -193.05 21.8 -189.95 23.9 -186.75 26.95 -183.6 29.85 -181.15 33.65 -178.8 37.3 -178.8 41.3 -178.8 44.05 -181.05 46.75 -183.3 49.55 -186.75 51.7 -190.05 53.85 -193.9 55.2 -197.65 56.55 -200.75 56.55 L-207.65 55.65 Q-211.9 54.6 -215.75 52.95 -219.7 51.25 -222.5 48.85 -225.35 46.55 -225.35 43.55 -225.35 41.0 -224.45 39.95 -223.45 38.9 -220.8 38.9 -218.7 38.9 -216.7 40.35 L-212.25 43.45 -207.4 46.6 Q-204.9 48.0 -202.1 48.0 L-198.5 47.4 Q-196.3 46.8 -194.35 45.75 -192.45 44.7 -190.95 43.3 -189.55 41.85 -189.55 40.15 -189.55 37.3 -191.6 35.1 -193.8 32.85 -196.8 31.15 -200.3 29.2 -203.25 27.75 -206.55 26.2 -209.35 24.3 -213.15 21.6 -214.85 17.65 -216.65 13.7 -216.65 7.1 -216.65 2.95 -214.95 -1.25 -213.25 -5.3 -210.3 -8.6 -207.3 -11.85 -203.3 -13.8 -199.4 -15.8 -194.65 -15.8" fill="#000000" fill-rule="evenodd" stroke="none"/>
      <path d="M-150.75 -19.5 Q-148.5 -19.5 -147.0 -18.2 -145.45 -16.9 -145.0 -14.35 L-142.9 -3.45 -140.55 7.95 -138.15 18.5 -136.1 26.9 -133.5 35.35 -131.1 41.9 -129.25 47.15 Q-128.55 49.6 -128.55 51.7 -128.55 53.8 -129.2 55.95 -129.85 57.8 -132.55 57.8 -135.1 57.8 -136.5 56.6 -137.95 55.4 -139.0 53.0 -140.1 50.5 -141.0 47.3 L-143.3 39.5 -147.75 38.85 -152.0 38.7 -155.9 38.8 -157.95 44.9 Q-159.0 47.9 -160.0 50.0 -161.15 52.35 -162.4 53.65 -163.65 55.0 -165.15 55.0 -167.7 55.0 -168.85 53.4 -169.9 51.9 -169.9 49.35 -169.9 46.75 -169.35 44.65 -168.8 42.35 -167.2 38.35 -170.55 38.15 -171.65 37.2 -172.75 36.35 -172.75 34.85 -172.75 32.05 -170.6 30.5 -168.45 28.95 -163.7 27.9 L-162.6 17.7 -160.7 5.4 -158.55 -6.2 -156.6 -14.45 Q-155.65 -17.25 -154.25 -18.4 -152.75 -19.5 -150.75 -19.5 M-145.7 28.05 L-148.05 20.5 -150.75 9.1 -152.45 19.3 Q-153.15 23.2 -154.4 28.05 L-152.25 27.9 -145.7 28.05" fill="#000000" fill-rule="evenodd" stroke="none"/>
      <path d="M-54.3 -15.55 Q-52.75 -10.2 -51.6 -3.9 L-48.9 9.7 Q-47.6 16.3 -45.6 23.85 -43.8 30.9 -40.8 37.15 -39.0 33.95 -37.35 29.3 -35.55 24.6 -34.3 19.8 L-31.85 10.45 Q-30.85 6.0 -30.4 3.0 -29.75 -0.85 -29.6 -4.35 L-28.7 -11.15 Q-28.1 -14.25 -26.95 -16.15 -25.75 -18.05 -23.35 -18.05 -21.65 -18.05 -20.55 -17.2 -19.5 -16.45 -18.7 -15.05 -18.05 -13.75 -17.85 -12.15 -17.6 -10.8 -17.6 -9.2 -17.6 -6.3 -17.95 -3.9 L-18.9 1.35 -20.3 7.0 -22.1 13.45 -23.85 20.05 -25.45 26.8 -27.15 32.95 -28.95 37.8 -31.3 42.5 Q-32.45 44.8 -33.6 48.55 L-34.75 52.95 Q-35.3 55.25 -36.1 56.8 -36.95 58.45 -38.3 59.5 -39.5 60.55 -41.75 60.55 -44.35 60.55 -46.1 58.45 -47.8 56.35 -49.05 53.0 -50.2 49.65 -51.1 45.4 L-52.75 36.9 -54.45 28.6 Q-55.3 24.65 -56.55 21.7 -57.6 19.35 -58.45 15.8 L-59.95 8.4 -62.6 -6.65 Q-63.2 -9.85 -64.0 -11.95 L-65.35 -14.95 -66.3 -16.65 Q-66.65 -17.2 -66.65 -18.3 -66.65 -23.75 -62.0 -23.75 -59.05 -23.75 -57.25 -21.5 -55.45 -19.35 -54.3 -15.55" fill="#000000" fill-rule="evenodd" stroke="none"/>
      <path d="M3.7 -18.7 Q6.05 -18.7 7.55 -17.4 9.0 -16.15 9.55 -13.45 L11.6 -2.6 14.0 8.8 16.35 19.4 18.45 27.8 Q19.6 32.25 21.0 36.2 L23.45 42.8 25.3 48.0 Q25.95 50.4 25.95 52.6 25.95 54.7 25.3 56.75 24.7 58.7 22.0 58.7 19.5 58.7 18.0 57.45 16.55 56.15 15.55 53.9 14.45 51.5 13.55 48.15 L11.2 40.35 6.7 39.7 2.5 39.55 0.5 39.55 -1.4 39.65 -3.4 45.7 -5.5 50.9 Q-6.6 53.2 -7.85 54.5 -9.25 55.9 -10.65 55.9 -13.3 55.9 -14.3 54.3 -15.45 52.65 -15.45 50.2 -15.45 47.85 -14.85 45.5 -14.25 43.25 -12.65 39.2 -15.9 39.0 -17.1 38.1 -18.25 37.15 -18.25 35.65 -18.25 32.9 -16.1 31.3 -13.95 29.8 -9.2 28.8 L-8.05 18.5 -6.15 6.25 -4.05 -5.35 -2.05 -13.55 Q-1.1 -16.45 0.25 -17.55 1.75 -18.7 3.7 -18.7 M8.85 28.9 Q7.8 26.2 6.45 21.4 5.55 18.2 3.7 10.0 L2.0 20.1 0.15 28.9 8.85 28.9" fill="#000000" fill-rule="evenodd" stroke="none"/>
      <path d="M34.45 -12.85 L36.8 -12.45 Q38.05 -12.0 39.05 -11.05 L40.7 -8.2 Q41.3 -6.45 41.45 -3.55 47.7 -1.25 51.65 2.2 55.55 5.6 57.65 9.4 59.8 13.25 60.5 17.6 61.2 21.95 61.2 26.05 61.2 32.75 56.7 39.85 52.45 46.75 43.15 53.3 38.9 56.25 36.05 56.25 33.2 56.25 31.75 53.65 30.35 51.0 30.35 46.3 L30.55 39.45 30.8 33.4 30.5 15.65 29.8 -1.65 Q29.05 -2.65 28.7 -3.75 28.4 -4.8 28.4 -6.05 28.4 -7.15 28.7 -8.4 29.0 -9.75 29.7 -10.6 30.3 -11.55 31.5 -12.2 32.6 -12.85 34.45 -12.85 M40.7 5.95 Q41.35 13.35 41.35 21.15 L41.0 32.8 39.85 44.85 43.65 41.9 Q45.75 40.05 47.55 37.4 49.4 34.7 50.6 31.25 51.9 27.8 51.9 23.65 51.9 18.35 49.15 13.6 46.4 8.8 40.7 5.95" fill="#000000" fill-rule="evenodd" stroke="none"/>
      <path d="M103.8 -9.15 Q106.6 -8.15 107.6 -6.65 L109.15 -3.1 110.45 1.45 111.35 6.45 111.65 11.15 111.5 16.1 110.15 29.45 109.3 35.95 Q108.8 38.75 105.55 41.35 102.55 43.75 98.4 45.75 94.1 47.7 90.3 48.75 L83.8 49.85 Q80.55 49.85 77.25 47.45 73.9 44.9 71.25 41.35 68.45 37.45 66.85 33.45 65.15 29.35 65.15 25.75 65.15 22.9 65.9 18.95 66.6 15.0 68.05 10.8 69.6 6.6 71.7 2.55 73.9 -1.6 76.65 -4.85 79.3 -8.0 82.8 -10.1 86.25 -12.1 90.15 -12.1 L92.75 -11.65 98.1 -10.8 103.8 -9.15 M101.7 7.05 Q101.05 3.95 99.5 1.5 97.95 -0.9 95.5 -2.2 93.05 -3.6 89.3 -3.6 87.2 -3.6 84.65 -1.2 81.9 1.3 79.75 4.85 77.5 8.5 75.9 12.9 74.3 17.25 74.3 21.35 74.3 26.0 75.3 29.7 76.2 33.25 77.7 35.7 79.15 38.15 81.05 39.35 82.9 40.55 84.65 40.55 89.75 40.55 93.1 39.05 96.5 37.55 98.55 34.2 100.6 30.95 101.45 26.0 102.25 21.25 102.25 13.95 102.25 10.25 101.7 7.05" fill="#000000" fill-rule="evenodd" stroke="none"/>
      <path d="M128.0 -32.45 Q129.75 -32.45 131.0 -31.5 132.2 -30.45 132.95 -28.9 133.7 -27.4 134.1 -25.35 L134.7 -21.0 137.3 -21.55 140.2 -21.7 148.0 -20.85 Q151.5 -20.15 153.95 -18.2 156.4 -16.4 157.75 -13.25 159.1 -10.2 159.1 -5.6 159.1 -2.8 158.2 0.6 157.1 4.2 155.2 7.1 153.15 10.15 149.9 12.25 146.7 14.45 142.15 14.45 L140.45 14.35 144.55 20.2 149.45 27.9 152.25 31.45 155.25 35.3 Q156.75 37.4 158.05 39.85 159.35 42.15 160.2 44.65 161.05 47.1 161.05 49.45 161.05 51.15 159.45 52.45 157.95 53.75 156.05 53.75 154.45 53.75 153.85 52.55 L151.65 48.4 147.2 39.95 135.8 19.9 131.5 12.95 130.25 20.55 Q129.55 25.4 129.55 32.35 L129.3 40.3 Q129.0 44.0 128.2 47.1 127.35 50.15 125.95 51.95 124.45 53.75 122.2 53.75 120.05 53.75 119.45 52.9 118.95 52.0 118.95 49.6 118.95 47.3 119.1 45.55 L119.6 41.9 121.15 31.8 122.05 24.15 123.35 8.0 123.55 1.15 Q121.85 3.9 120.75 4.65 119.7 5.4 118.6 5.4 L116.25 5.0 Q115.15 4.55 115.15 2.35 115.15 0.4 115.65 -1.65 116.1 -3.4 117.05 -5.25 L119.4 -9.0 122.85 -13.5 124.1 -22.35 124.85 -28.15 Q125.35 -30.5 125.95 -31.45 126.65 -32.45 128.0 -32.45 M144.6 -13.1 L141.55 -13.65 132.6 -12.3 Q131.8 -9.95 131.45 -7.6 131.05 -5.2 131.05 -1.3 131.15 0.3 132.05 1.75 132.95 3.15 134.35 4.35 135.7 5.55 137.25 6.2 138.8 7.0 140.2 7.0 142.8 7.0 144.75 5.75 146.7 4.45 147.9 2.55 149.2 0.65 149.8 -1.7 150.4 -4.0 150.4 -6.05 150.4 -7.9 149.6 -9.3 148.75 -10.8 147.55 -11.65 L144.6 -13.1" fill="#000000" fill-rule="evenodd" stroke="none"/>
      <path d="M180.35 -23.85 L178.75 -21.35 Q178.0 -20.3 177.3 -18.7 L176.25 -16.25 174.9 -13.5 Q174.1 -12.05 173.1 -11.2 172.2 -10.2 171.05 -10.2 167.75 -10.2 167.75 -13.7 167.75 -16.6 168.85 -20.1 169.75 -23.25 171.5 -26.6 172.9 -29.35 175.05 -31.65 177.05 -33.65 178.85 -33.65 180.4 -33.65 181.3 -32.45 182.15 -31.25 182.15 -30.05 182.15 -27.9 181.65 -26.6 L180.35 -23.85" fill="#000000" fill-rule="evenodd" stroke="none"/>
      <path d="M196.3 -16.8 L201.9 -17.25 Q205.2 -17.1 208.1 -16.15 211.2 -15.2 213.45 -13.25 215.7 -11.35 216.4 -8.2 216.8 -6.0 215.6 -4.85 214.35 -3.7 212.5 -3.4 L208.5 -3.6 Q206.7 -4.3 204.85 -5.4 L201.4 -7.15 Q199.75 -7.95 197.8 -7.55 194.85 -6.95 192.85 -5.2 190.7 -3.5 189.5 -1.1 188.25 1.3 187.8 3.9 187.35 6.45 187.85 9.0 188.45 11.8 189.55 13.15 190.65 14.55 192.3 15.35 L195.9 16.6 199.9 17.7 Q201.75 18.25 205.3 19.75 208.75 21.15 212.5 23.5 216.35 25.95 219.3 28.95 222.4 32.15 223.1 35.95 223.7 38.6 222.0 41.85 220.25 45.05 217.45 47.75 214.75 50.4 211.1 52.65 207.7 54.65 204.65 55.35 L197.7 55.75 189.2 54.75 Q185.25 53.95 181.8 52.1 178.55 50.3 177.95 47.45 177.45 44.9 178.15 43.7 178.85 42.55 181.5 41.95 183.5 41.6 185.8 42.55 L190.75 44.75 Q193.15 45.85 196.1 46.8 198.8 47.75 201.6 47.15 202.85 46.9 205.05 45.9 L208.8 43.45 Q210.4 42.1 211.6 40.35 212.7 38.6 212.35 37.0 211.8 34.2 209.3 32.5 206.8 30.7 203.5 29.6 L196.45 27.6 Q192.85 26.65 189.8 25.4 185.6 23.55 183.1 19.95 180.6 16.5 179.25 9.95 178.5 5.85 179.25 1.45 180.15 -2.95 182.35 -6.7 184.65 -10.4 188.15 -13.15 191.8 -15.95 196.3 -16.8" fill="#000000" fill-rule="evenodd" stroke="none"/>
    </g>
  </defs>
</svg>
