<?xml version="1.0" encoding="UTF-8" standalone="no"?>
<svg xmlns:xlink="http://www.w3.org/1999/xlink" height="300.0px" width="300.0px" xmlns="http://www.w3.org/2000/svg">
  <g transform="matrix(1.0, 0.0, 0.0, 1.0, 0.0, 0.0)">
    <use height="184.8" transform="matrix(1.0, 0.0, 0.0, 1.0, 34.65, 55.6)" width="236.7" xlink:href="#shape0"/>
  </g>
  <defs>
    <g id="shape0" transform="matrix(1.0, 0.0, 0.0, 1.0, -34.65, -55.6)">
      <path d="M117.0 79.75 L117.0 58.75 113.25 58.75 113.25 55.6 132.75 55.6 132.75 58.75 129.0 58.75 129.0 79.75 117.0 79.75" fill="#000000" fill-rule="evenodd" stroke="none"/>
      <path d="M161.0 65.55 L161.0 79.75 150.0 79.75 150.0 65.45 Q150.0 64.3 148.65 64.3 147.4 64.3 147.4 65.45 L147.4 79.75 135.3 79.75 135.3 55.6 147.4 55.6 147.4 61.9 151.0 61.05 154.55 60.75 156.2 60.8 157.7 61.15 Q159.1 61.5 160.2 62.8 161.0 63.95 161.0 65.55" fill="#000000" fill-rule="evenodd" stroke="none"/>
      <path d="M175.0 68.7 L179.15 68.7 Q179.15 66.9 178.5 65.8 177.9 64.8 177.0 64.8 176.2 64.8 175.6 65.9 175.0 66.8 175.0 68.7 M176.1 75.5 Q177.1 76.65 179.4 76.65 L184.0 75.9 184.0 78.4 179.75 79.75 176.0 80.05 Q170.7 80.05 167.55 78.05 163.9 75.65 163.9 70.95 163.9 66.2 167.25 63.5 170.15 61.25 174.05 61.25 179.5 61.25 182.0 64.45 184.0 67.2 184.0 71.85 L175.0 71.85 Q175.0 74.35 176.1 75.5" fill="#000000" fill-rule="evenodd" stroke="none"/>
      <path d="M115.25 133.3 Q115.25 141.5 112.65 147.2 109.7 153.85 103.2 157.75 L120.3 178.95 83.9 178.95 73.85 164.05 73.85 178.95 35.75 178.95 35.75 102.55 73.85 102.55 Q96.15 102.55 106.45 111.75 115.25 119.45 115.25 133.3 M73.85 112.75 L73.85 153.25 Q79.15 153.25 82.25 151.35 85.5 149.35 85.5 146.0 L85.5 120.25 Q85.5 116.85 82.0 114.7 78.45 112.75 73.85 112.75" fill="#cc0000" fill-rule="evenodd" stroke="none"/>
      <path d="M176.7 112.75 L160.0 112.75 160.0 134.1 176.7 134.1 176.7 144.15 160.0 144.15 160.0 169.05 178.85 169.05 178.85 178.95 121.85 178.95 121.85 102.8 176.7 102.8 176.7 112.75" fill="#cc0000" fill-rule="evenodd" stroke="none"/>
      <path d="M222.6 102.55 Q246.5 102.55 257.6 111.4 268.65 120.1 268.65 140.85 268.65 161.8 257.45 170.6 246.65 178.95 222.6 178.95 L184.45 178.95 184.45 102.55 222.6 102.55 M222.6 112.75 L222.6 169.05 Q227.4 169.05 230.8 166.6 234.2 164.2 234.2 160.65 L234.2 120.85 Q234.2 117.55 230.55 115.15 227.1 112.75 222.6 112.75" fill="#cc0000" fill-rule="evenodd" stroke="none"/>
      <path d="M65.9 209.75 Q61.5 208.35 58.3 208.35 L55.65 208.65 Q54.3 209.05 53.45 210.25 52.65 211.5 52.65 213.4 L52.65 231.3 Q52.65 235.2 55.65 235.2 L60.6 234.8 Q63.9 234.45 65.9 233.6 L65.9 239.15 60.75 240.1 55.3 240.4 Q46.5 240.4 40.6 235.0 34.65 229.55 34.65 221.9 34.65 214.3 40.6 208.9 46.65 203.5 55.3 203.5 L56.85 203.5 62.0 203.85 Q64.1 204.1 65.9 205.1 L65.9 209.75" fill="#000000" fill-rule="evenodd" stroke="none"/>
      <path d="M87.8 203.5 Q96.4 203.5 102.45 209.0 108.55 214.4 108.55 221.9 108.55 229.45 102.45 235.0 96.5 240.4 87.8 240.4 79.1 240.4 73.1 235.0 67.05 229.45 67.05 221.9 67.05 214.4 73.2 209.0 79.15 203.5 87.8 203.5 M85.9 209.25 Q85.05 210.15 85.05 213.3 L85.05 231.05 Q85.05 233.35 85.55 234.2 85.95 235.2 87.95 235.2 89.45 235.2 89.95 234.7 90.6 233.8 90.6 231.05 L90.6 213.45 Q90.6 210.15 89.95 209.25 89.45 208.65 87.95 208.65 86.45 208.65 85.9 209.25" fill="#000000" fill-rule="evenodd" stroke="none"/>
      <path d="M128.9 204.0 L128.9 231.3 Q128.9 233.1 130.0 234.1 131.0 235.1 132.5 235.1 134.0 235.1 134.95 234.1 135.95 233.3 135.95 231.3 L135.95 204.0 142.2 204.0 142.2 231.3 Q142.2 235.0 139.05 237.25 134.95 240.15 126.5 240.15 118.05 240.15 114.1 237.2 111.0 234.95 111.0 231.3 L111.0 204.0 128.9 204.0" fill="#000000" fill-rule="evenodd" stroke="none"/>
      <path d="M179.15 204.0 L179.25 239.9 168.3 239.9 151.8 223.5 151.8 239.9 146.4 239.9 146.4 204.0 158.95 204.0 173.8 218.05 173.8 204.0 179.15 204.0" fill="#000000" fill-rule="evenodd" stroke="none"/>
      <path d="M207.6 208.35 L204.95 208.65 Q203.55 209.05 202.8 210.25 201.95 211.3 201.95 213.4 L201.95 231.3 Q201.95 235.2 204.85 235.2 L209.95 234.8 Q213.1 234.45 215.25 233.6 L215.25 239.15 210.0 240.1 204.55 240.4 Q195.85 240.4 189.95 235.0 183.9 229.55 183.9 221.9 183.9 214.2 189.95 208.9 196.0 203.5 204.55 203.5 L206.1 203.5 211.25 203.85 Q213.25 204.1 215.25 205.1 L215.25 209.75 Q210.75 208.35 207.6 208.35" fill="#000000" fill-rule="evenodd" stroke="none"/>
      <path d="M237.85 204.0 L237.85 239.9 219.9 239.9 219.9 204.0 237.85 204.0" fill="#000000" fill-rule="evenodd" stroke="none"/>
      <path d="M261.15 204.0 L261.15 235.2 271.35 235.2 271.35 239.9 243.25 239.9 243.25 204.0 261.15 204.0" fill="#000000" fill-rule="evenodd" stroke="none"/>
      <path d="M264.3 197.45 L35.5 197.45 35.5 184.2 264.3 184.2 264.3 197.45" fill="#cc0000" fill-rule="evenodd" stroke="none"/>
      <path d="M264.3 97.95 L35.5 97.95 35.5 84.7 264.3 84.7 264.3 97.95" fill="#cc0000" fill-rule="evenodd" stroke="none"/>
    </g>
  </defs>
</svg>
