<?xml version="1.0" encoding="UTF-8" standalone="no"?>
<svg xmlns:xlink="http://www.w3.org/1999/xlink" height="300.0px" width="300.0px" xmlns="http://www.w3.org/2000/svg">
  <g transform="matrix(1.0, 0.0, 0.0, 1.0, 0.0, 0.0)">
    <use height="98.8" transform="matrix(1.0, 0.0, 0.0, 1.0, 95.25, 228.05)" width="107.0" xlink:href="#shape0"/>
    <use height="219.6" transform="matrix(0.805, 0.0, 0.0, 0.805, 29.5571, 26.7572)" width="316.3" xlink:href="#text0"/>
    <use height="72.6" transform="matrix(1.0, 0.0, 0.0, 1.0, 95.6, 219.2)" width="106.95" xlink:href="#shape1"/>
  </g>
  <defs>
    <g id="shape0" transform="matrix(1.0, 0.0, 0.0, 1.0, -95.25, -228.05)">
      <path d="M129.85 274.45 Q138.75 271.55 148.8 271.55 160.55 271.55 170.5 275.45 L198.4 276.1 190.85 302.4 Q189.0 312.75 177.05 319.75 164.95 326.85 148.8 326.85 132.15 326.85 119.95 319.45 107.8 312.05 106.55 301.3 L98.3 273.7 129.85 274.45" fill="url(#gradient0)" fill-rule="evenodd" stroke="none"/>
      <path d="M148.8 230.5 Q169.85 230.5 184.65 244.05 191.2 250.05 194.8 257.45 198.4 264.85 198.4 272.1 198.4 286.65 185.15 295.5 171.8 304.55 149.8 304.55 128.25 304.55 112.7 292.6 105.65 287.15 101.75 280.3 97.75 273.35 97.75 266.2 97.75 251.5 112.2 241.1 127.0 230.5 148.8 230.5" fill="url(#gradient1)" fill-rule="evenodd" stroke="none"/>
      <path d="M148.8 228.05 Q170.95 228.05 186.6 238.3 202.25 248.5 202.25 262.95 202.25 277.4 186.6 287.65 170.95 297.85 148.8 297.85 126.95 297.85 111.6 287.6 96.55 277.55 95.35 262.95 93.95 246.0 110.25 236.55 124.95 228.05 148.8 228.05" fill="url(#gradient2)" fill-rule="evenodd" stroke="none"/>
    </g>
    <linearGradient gradientTransform="matrix(0.0611, 0.0, 0.0, -0.0611, 148.3, 299.2)" gradientUnits="userSpaceOnUse" id="gradient0" spreadMethod="pad" x1="-819.2" x2="819.2">
      <stop offset="0.0" stop-color="#4a050d"/>
      <stop offset="0.3137254901960784" stop-color="#340307"/>
      <stop offset="0.6509803921568628" stop-color="#240102"/>
      <stop offset="0.9098039215686274" stop-color="#1e0000"/>
    </linearGradient>
    <linearGradient gradientTransform="matrix(0.0614, 0.0, 0.0, -0.0614, 148.05, 267.5)" gradientUnits="userSpaceOnUse" id="gradient1" spreadMethod="pad" x1="-819.2" x2="819.2">
      <stop offset="0.0" stop-color="#14050d"/>
      <stop offset="0.32941176470588235" stop-color="#1a0206"/>
      <stop offset="0.8352941176470589" stop-color="#1e0000"/>
    </linearGradient>
    <linearGradient gradientTransform="matrix(0.0653, 0.0, 0.0, -0.0653, 148.7, 262.95)" gradientUnits="userSpaceOnUse" id="gradient2" spreadMethod="pad" x1="-819.2" x2="819.2">
      <stop offset="0.0" stop-color="#9c050d"/>
      <stop offset="0.16862745098039217" stop-color="#760309"/>
      <stop offset="0.3686274509803922" stop-color="#500205"/>
      <stop offset="0.5529411764705883" stop-color="#340102"/>
      <stop offset="0.7137254901960784" stop-color="#240001"/>
      <stop offset="0.8352941176470589" stop-color="#1e0000"/>
    </linearGradient>
    <g id="text0" transform="matrix(1.0, 0.0, 0.0, 1.0, 76.7, -9.45)">
      <g transform="matrix(1.0, 0.0, 0.0, 1.0, -79.7, 0.0)">
        <use fill="#000000" height="219.6" transform="matrix(0.0693, 0.0, 0.0, 0.0693, 96.0, 62.0)" width="316.3" xlink:href="#font_Goudy_Old_Style_T0"/>
        <use fill="#000000" height="219.6" transform="matrix(0.0693, 0.0, 0.0, 0.0693, 139.15, 62.0)" width="316.3" xlink:href="#font_Goudy_Old_Style_h0"/>
        <use fill="#000000" height="219.6" transform="matrix(0.0693, 0.0, 0.0, 0.0693, 177.6, 62.0)" width="316.3" xlink:href="#font_Goudy_Old_Style_e0"/>
      </g>
      <g transform="matrix(1.0, 0.0, 0.0, 1.0, -79.7, 0.0)">
        <use fill="#000000" height="219.6" transform="matrix(0.0693, 0.0, 0.0, 0.0693, 0.0, 117.0)" width="316.3" xlink:href="#font_Goudy_Old_Style_P0"/>
        <use fill="#000000" height="219.6" transform="matrix(0.0693, 0.0, 0.0, 0.0693, 33.8, 117.0)" width="316.3" xlink:href="#font_Goudy_Old_Style_o0"/>
        <use fill="#000000" height="219.6" transform="matrix(0.0693, 0.0, 0.0, 0.0693, 68.8, 117.0)" width="316.3" xlink:href="#font_Goudy_Old_Style_t0"/>
        <use fill="#000000" height="219.6" transform="matrix(0.0693, 0.0, 0.0, 0.0693, 90.2, 117.0)" width="316.3" xlink:href="#font_Goudy_Old_Style_-0"/>
        <use fill="#000000" height="219.6" transform="matrix(0.0693, 0.0, 0.0, 0.0693, 103.85, 117.0)" width="316.3" xlink:href="#font_Goudy_Old_Style_O0"/>
        <use fill="#000000" height="219.6" transform="matrix(0.0693, 0.0, 0.0, 0.0693, 159.5, 117.0)" width="316.3" xlink:href="#font_Goudy_Old_Style_-0"/>
        <use fill="#000000" height="219.6" transform="matrix(0.0693, 0.0, 0.0, 0.0693, 173.15, 117.0)" width="316.3" xlink:href="#font_Goudy_Old_Style_M0"/>
        <use fill="#000000" height="219.6" transform="matrix(0.0693, 0.0, 0.0, 0.0693, 234.1, 117.0)" width="316.3" xlink:href="#font_Goudy_Old_Style_a0"/>
        <use fill="#000000" height="219.6" transform="matrix(0.0693, 0.0, 0.0, 0.0693, 264.15, 117.0)" width="316.3" xlink:href="#font_Goudy_Old_Style_n0"/>
      </g>
      <g transform="matrix(1.0, 0.0, 0.0, 1.0, -79.7, 0.0)">
        <use fill="#000000" height="219.6" transform="matrix(0.0693, 0.0, 0.0, 0.0693, 72.0, 172.0)" width="316.3" xlink:href="#font_Goudy_Old_Style_T0"/>
        <use fill="#000000" height="219.6" transform="matrix(0.0693, 0.0, 0.0, 0.0693, 109.35, 172.0)" width="316.3" xlink:href="#font_Goudy_Old_Style_o0"/>
        <use fill="#000000" height="219.6" transform="matrix(0.0693, 0.0, 0.0, 0.0693, 145.15, 172.0)" width="316.3" xlink:href="#font_Goudy_Old_Style_i0"/>
        <use fill="#000000" height="219.6" transform="matrix(0.0693, 0.0, 0.0, 0.0693, 163.85, 172.0)" width="316.3" xlink:href="#font_Goudy_Old_Style_l0"/>
        <use fill="#000000" height="219.6" transform="matrix(0.0693, 0.0, 0.0, 0.0693, 181.9, 172.0)" width="316.3" xlink:href="#font_Goudy_Old_Style_e0"/>
        <use fill="#000000" height="219.6" transform="matrix(0.0693, 0.0, 0.0, 0.0693, 211.0, 172.0)" width="316.3" xlink:href="#font_Goudy_Old_Style_t0"/>
      </g>
      <g transform="matrix(1.0, 0.0, 0.0, 1.0, -79.7, 0.0)">
        <use fill="#000000" height="219.6" transform="matrix(0.0693, 0.0, 0.0, 0.0693, 22.0, 227.0)" width="316.3" xlink:href="#font_Goudy_Old_Style_O0"/>
        <use fill="#000000" height="219.6" transform="matrix(0.0693, 0.0, 0.0, 0.0693, 77.65, 227.0)" width="316.3" xlink:href="#font_Goudy_Old_Style_t0"/>
        <use fill="#000000" height="219.6" transform="matrix(0.0693, 0.0, 0.0, 0.0693, 99.05, 227.0)" width="316.3" xlink:href="#font_Goudy_Old_Style_t0"/>
        <use fill="#000000" height="219.6" transform="matrix(0.0693, 0.0, 0.0, 0.0693, 120.05, 227.0)" width="316.3" xlink:href="#font_Goudy_Old_Style_o0"/>
        <use fill="#000000" height="219.6" transform="matrix(0.0693, 0.0, 0.0, 0.0693, 155.85, 227.0)" width="316.3" xlink:href="#font_Goudy_Old_Style_m0"/>
        <use fill="#000000" height="219.6" transform="matrix(0.0693, 0.0, 0.0, 0.0693, 211.65, 227.0)" width="316.3" xlink:href="#font_Goudy_Old_Style_a0"/>
        <use fill="#000000" height="219.6" transform="matrix(0.0693, 0.0, 0.0, 0.0693, 241.7, 227.0)" width="316.3" xlink:href="#font_Goudy_Old_Style_n0"/>
      </g>
    </g>
    <g id="font_Goudy_Old_Style_T0">
      <path d="M524.0 -630.5 L524.0 -630.5 Q566.0 -630.5 580.5 -619.5 595.0 -609.0 601.5 -573.5 604.5 -557.5 613.5 -558.0 624.5 -559.0 624.0 -574.0 623.5 -581.5 621.0 -598.5 618.5 -612.0 618.5 -641.0 618.5 -670.5 612.5 -676.5 607.0 -682.5 579.5 -682.5 L41.0 -682.5 Q24.0 -682.5 19.0 -675.5 13.5 -668.0 13.5 -645.0 13.5 -621.5 6.0 -586.0 0.0 -558.0 0.0 -547.5 0.0 -534.5 9.0 -534.0 18.0 -533.5 22.5 -553.0 32.5 -598.0 51.0 -614.0 69.0 -630.5 109.5 -630.5 L242.0 -630.5 Q261.0 -630.5 266.5 -625.5 271.5 -620.5 271.5 -602.5 L272.0 -589.5 272.0 -93.0 Q272.0 -51.0 258.5 -35.0 245.0 -18.5 206.5 -13.5 190.0 -11.5 190.0 -3.5 190.0 7.0 205.0 7.0 210.0 7.0 238.5 4.0 253.0 2.5 274.0 2.5 L313.5 2.0 350.0 2.5 Q385.5 2.5 395.0 4.0 413.5 7.0 419.5 7.0 433.5 7.0 433.5 -4.0 433.5 -12.0 416.0 -15.0 353.0 -26.0 350.5 -84.5 L350.0 -104.0 350.0 -595.0 Q350.0 -618.5 356.0 -624.5 361.5 -630.5 383.5 -630.5 L524.0 -630.5" fill-rule="evenodd" stroke="none"/>
    </g>
    <g id="font_Goudy_Old_Style_h0">
      <path d="M164.5 -340.0 L164.5 -683.0 Q164.5 -700.0 165.0 -708.5 166.0 -717.5 166.0 -720.5 166.0 -731.5 157.5 -731.5 153.0 -731.5 147.0 -728.5 L108.0 -710.0 Q69.0 -691.5 37.5 -684.0 26.0 -681.0 26.0 -673.5 26.0 -669.0 29.5 -667.0 32.5 -665.5 36.5 -665.5 L62.0 -667.0 Q95.5 -669.0 95.5 -607.5 L95.5 -87.0 Q95.5 -44.0 89.0 -32.5 82.0 -21.0 52.5 -12.0 40.5 -8.5 41.0 0.0 41.5 8.0 53.5 8.0 60.0 8.0 76.5 6.5 114.0 4.0 134.0 4.0 192.5 4.0 210.5 6.0 232.5 8.0 238.0 8.0 249.0 8.0 249.0 -0.5 249.0 -10.0 232.0 -12.5 187.5 -18.5 176.0 -33.5 164.5 -48.5 164.5 -99.5 L164.5 -293.5 Q164.5 -326.0 198.5 -352.5 232.5 -378.5 274.5 -378.5 328.5 -378.5 361.0 -341.5 393.5 -304.5 393.5 -241.0 L393.5 -75.0 393.0 -60.0 Q393.0 -37.5 387.0 -29.5 381.0 -22.0 355.5 -12.5 345.0 -8.5 345.5 -2.0 346.0 7.0 359.5 7.0 363.0 7.0 375.0 5.5 396.0 3.0 440.0 3.0 466.5 3.0 503.5 5.5 522.0 7.0 528.0 7.0 541.5 7.0 541.5 -2.0 541.5 -11.0 528.0 -13.0 487.5 -19.5 475.0 -33.5 462.5 -47.5 462.5 -85.5 L462.5 -244.0 Q462.5 -322.5 419.0 -371.0 375.0 -419.5 305.0 -419.5 229.0 -419.5 164.5 -340.0" fill-rule="evenodd" stroke="none"/>
    </g>
    <g id="font_Goudy_Old_Style_e0">
      <path d="M109.0 -276.0 L109.0 -276.0 Q115.5 -332.5 143.0 -365.0 170.0 -398.0 211.0 -398.0 250.5 -398.0 284.5 -364.5 318.0 -331.0 318.0 -292.0 318.0 -276.0 278.5 -276.0 L109.0 -276.0 M106.0 -248.5 L295.5 -248.5 329.5 -247.5 366.5 -247.0 Q399.0 -247.0 399.0 -263.5 399.0 -275.0 386.5 -304.0 374.0 -333.0 362.0 -350.0 312.0 -419.5 228.5 -419.5 152.0 -419.5 95.0 -354.5 38.0 -289.0 38.0 -202.0 38.0 -111.0 93.5 -49.0 148.5 13.0 230.0 13.0 302.5 13.0 367.5 -37.5 402.5 -65.0 402.5 -80.0 402.5 -88.5 395.5 -88.0 392.0 -87.5 388.0 -84.5 324.0 -35.5 269.5 -35.5 200.0 -35.5 153.0 -93.5 105.5 -152.0 105.5 -237.5 L106.0 -248.5" fill-rule="evenodd" stroke="none"/>
    </g>
    <g id="font_Goudy_Old_Style_P0">
      <path d="M206.5 -603.5 L207.0 -618.0 Q207.0 -639.0 214.5 -646.5 222.0 -654.0 242.0 -654.0 329.0 -654.0 386.0 -604.5 443.0 -554.5 443.0 -479.0 443.0 -413.0 400.0 -373.5 356.5 -334.0 285.0 -334.0 259.5 -334.0 248.0 -337.5 242.0 -339.0 238.0 -339.0 229.5 -339.0 228.5 -333.0 227.5 -325.0 254.0 -318.5 280.0 -311.5 311.5 -311.5 378.5 -311.5 438.5 -353.5 518.5 -410.0 518.5 -508.0 518.5 -589.0 453.5 -639.0 388.0 -689.5 283.5 -689.5 263.5 -689.5 232.0 -687.0 171.0 -681.5 139.0 -681.5 118.5 -681.5 87.0 -686.0 71.0 -688.5 61.5 -688.5 42.5 -688.5 42.0 -676.5 41.5 -667.5 55.0 -666.5 105.0 -661.0 117.5 -633.5 130.0 -605.5 130.0 -500.5 L130.0 -197.5 Q130.0 -98.5 116.0 -60.5 101.5 -22.5 62.5 -16.5 46.0 -14.0 46.0 -5.0 46.0 5.0 59.0 5.0 68.0 5.0 87.5 2.5 102.5 0.5 132.0 0.5 L171.0 0.0 206.5 1.0 Q242.5 1.0 258.5 2.0 283.5 4.0 292.0 4.0 310.5 4.0 309.5 -8.5 309.0 -17.5 294.0 -17.5 280.0 -17.5 252.5 -25.0 213.0 -35.0 207.5 -95.5 L206.0 -137.5 206.5 -186.0 206.5 -603.5" fill-rule="evenodd" stroke="none"/>
    </g>
    <g id="font_Goudy_Old_Style_o0">
      <path d="M247.5 -399.5 L247.5 -399.5 Q318.0 -399.5 363.0 -337.5 408.0 -275.5 408.0 -177.0 408.0 -99.0 372.5 -53.5 336.5 -8.0 274.5 -8.0 204.0 -8.0 156.0 -72.0 108.5 -136.5 108.5 -232.0 108.5 -307.0 146.5 -353.0 185.0 -399.5 247.5 -399.5 M260.0 -419.5 L260.0 -419.5 Q167.5 -419.5 102.5 -356.0 37.5 -292.0 37.5 -201.0 37.5 -107.5 99.0 -47.0 160.0 13.0 255.0 13.0 352.0 13.0 415.5 -49.0 479.0 -111.0 479.0 -205.5 479.0 -293.0 414.5 -356.5 350.0 -419.5 260.0 -419.5" fill-rule="evenodd" stroke="none"/>
    </g>
    <g id="font_Goudy_Old_Style_t0">
      <path d="M154.5 -359.0 L273.0 -359.0 Q289.5 -359.0 295.0 -373.5 L306.5 -402.5 Q311.0 -412.5 311.0 -415.0 311.5 -421.5 306.0 -420.5 302.5 -420.0 295.0 -414.5 283.0 -406.5 261.0 -406.5 L154.5 -406.5 156.5 -493.0 Q156.5 -506.0 149.5 -506.0 144.0 -506.0 130.5 -484.0 99.5 -434.5 41.0 -384.5 28.0 -373.5 28.0 -366.5 28.0 -359.0 41.0 -359.0 L85.5 -359.0 85.5 -107.0 Q85.5 13.0 200.5 13.0 234.5 13.0 274.0 -6.0 313.5 -25.0 313.5 -41.5 313.5 -47.0 307.5 -47.0 L304.5 -46.0 278.5 -33.5 Q257.5 -22.5 227.0 -22.5 189.0 -22.5 168.5 -44.0 154.5 -58.5 154.5 -107.5 L154.5 -359.0" fill-rule="evenodd" stroke="none"/>
    </g>
    <g id="font_Goudy_Old_Style_-0">
      <path d="M192.0 -280.5 L186.0 -278.5 Q177.5 -274.5 151.5 -265.5 114.0 -253.0 97.5 -246.5 56.0 -231.5 44.0 -228.0 11.5 -218.0 6.0 -210.0 0.0 -201.5 0.0 -166.0 0.0 -148.0 7.0 -149.0 10.5 -149.5 16.5 -153.5 22.0 -157.0 36.0 -161.0 52.5 -165.0 108.0 -185.0 131.5 -193.5 166.0 -205.0 190.5 -213.0 194.0 -218.5 197.5 -224.0 197.5 -254.0 197.5 -280.5 192.0 -280.5" fill-rule="evenodd" stroke="none"/>
    </g>
    <g id="font_Goudy_Old_Style_O0">
      <path d="M372.0 -663.5 L372.0 -663.5 Q507.5 -663.5 598.0 -564.0 688.5 -464.5 688.5 -315.0 688.5 -185.0 613.0 -100.5 537.5 -16.0 421.5 -16.0 294.0 -16.0 207.0 -120.0 119.5 -223.5 119.5 -375.0 119.5 -507.0 188.0 -585.5 256.0 -663.5 372.0 -663.5 M404.5 -696.0 L404.5 -696.0 Q329.0 -696.0 257.0 -668.0 185.0 -639.5 138.0 -591.5 93.5 -546.0 67.5 -478.5 41.0 -410.5 41.0 -341.5 41.0 -183.0 141.0 -85.0 240.5 13.0 402.0 13.0 559.5 13.0 660.5 -89.5 761.5 -192.0 761.5 -351.5 761.5 -502.5 661.5 -599.5 561.0 -696.0 404.5 -696.0" fill-rule="evenodd" stroke="none"/>
    </g>
    <g id="font_Goudy_Old_Style_M0">
      <path d="M663.0 -503.5 L676.0 -185.5 678.0 -104.0 Q678.0 -59.0 668.0 -41.0 658.0 -23.0 628.5 -15.0 616.0 -11.5 616.0 -4.0 616.0 5.0 630.5 5.0 638.5 5.0 690.5 2.0 724.0 0.0 739.0 0.0 761.5 0.0 781.0 2.0 L820.0 6.0 Q827.0 6.5 832.5 6.5 851.0 6.5 851.0 -3.5 851.0 -12.5 824.5 -16.5 787.5 -22.0 773.5 -38.5 759.5 -55.0 759.5 -93.0 L757.0 -156.0 747.5 -428.0 744.5 -549.0 Q744.5 -606.5 755.0 -631.5 765.0 -657.0 790.5 -663.0 L812.0 -668.5 Q822.0 -671.0 822.0 -680.0 822.0 -690.5 812.0 -690.0 806.5 -689.5 797.5 -689.0 778.5 -687.0 747.0 -687.0 737.0 -687.0 730.5 -687.5 712.5 -689.5 708.5 -689.5 699.0 -689.5 695.5 -685.5 691.5 -682.0 684.0 -666.0 L449.5 -162.5 445.0 -152.5 439.0 -139.0 Q434.5 -129.5 431.5 -129.5 429.0 -129.5 423.5 -142.5 L398.0 -194.0 189.5 -643.5 184.0 -655.0 Q169.5 -686.5 148.0 -686.5 141.0 -686.5 129.5 -685.0 118.5 -684.0 77.5 -684.0 50.5 -684.0 43.5 -685.0 31.5 -686.0 27.0 -686.0 14.5 -686.0 14.5 -675.0 14.5 -665.5 29.5 -663.0 84.5 -653.0 108.0 -610.0 131.5 -567.5 131.5 -478.5 131.5 -437.0 124.0 -279.0 L117.0 -134.0 Q114.0 -72.5 99.5 -47.0 85.0 -21.5 48.5 -13.0 36.5 -10.5 36.5 -2.0 36.5 8.5 51.5 8.5 57.0 8.5 67.0 7.0 100.5 2.5 137.0 2.5 167.0 2.5 223.0 7.5 232.0 8.5 241.5 8.5 256.0 8.5 256.0 -3.0 256.0 -12.5 225.5 -17.5 163.5 -27.0 163.5 -115.0 163.5 -206.5 165.0 -237.0 L176.5 -484.5 364.5 -79.0 374.5 -58.0 Q386.5 -35.0 388.5 -30.5 399.5 -6.0 411.0 -6.0 422.5 -6.0 432.5 -29.5 435.0 -35.0 441.5 -48.5 453.0 -71.0 468.5 -106.0 506.5 -191.0 510.5 -200.0 L562.0 -304.5 606.5 -400.0 Q620.5 -429.0 663.0 -503.5" fill-rule="evenodd" stroke="none"/>
    </g>
    <g id="font_Goudy_Old_Style_a0">
      <path d="M272.0 -200.0 L272.0 -101.0 Q272.0 -63.0 254.5 -46.0 226.5 -18.5 184.5 -18.5 150.5 -18.5 130.0 -38.5 110.0 -59.0 110.0 -93.0 110.0 -137.0 152.0 -165.0 194.5 -193.0 272.0 -200.0 M272.0 -220.0 L272.0 -220.0 Q147.5 -201.0 95.0 -169.0 42.5 -137.5 42.5 -80.0 42.5 -37.5 70.0 -12.0 98.0 13.0 145.0 13.0 206.5 13.0 279.0 -42.0 312.0 9.0 353.5 9.0 375.5 9.0 398.5 0.0 421.5 -9.5 422.0 -18.5 422.5 -26.0 414.0 -25.5 411.0 -25.5 402.0 -23.5 397.5 -22.5 390.0 -22.5 363.5 -22.5 352.5 -42.0 341.0 -62.0 341.0 -108.5 L341.0 -304.0 Q341.0 -359.0 303.5 -389.5 266.0 -419.5 198.0 -419.5 123.5 -419.5 78.5 -371.0 45.0 -335.5 45.0 -304.5 45.0 -292.5 64.0 -282.5 83.0 -272.5 106.5 -272.5 117.0 -272.5 116.5 -281.5 116.0 -288.5 113.0 -297.5 106.5 -318.5 106.5 -335.0 106.5 -390.5 172.5 -390.5 221.5 -390.5 250.5 -360.5 272.0 -339.0 272.0 -281.5 L272.0 -220.0" fill-rule="evenodd" stroke="none"/>
    </g>
    <g id="font_Goudy_Old_Style_n0">
      <path d="M174.0 -340.0 L174.0 -396.5 Q174.0 -407.5 174.5 -415.5 175.5 -430.0 166.5 -430.0 161.5 -430.0 154.5 -426.0 150.5 -424.0 135.0 -416.5 L108.5 -403.5 Q77.5 -389.0 44.0 -383.0 31.0 -380.5 31.0 -373.0 31.0 -368.0 35.5 -366.0 39.0 -364.0 43.5 -364.0 L65.0 -364.5 Q88.5 -364.5 97.0 -352.0 105.5 -339.0 105.5 -303.5 L105.5 -78.0 Q105.5 -49.0 97.0 -36.0 88.0 -23.0 62.5 -14.0 53.5 -10.5 53.0 -4.0 52.5 4.0 62.0 4.0 66.5 4.0 82.0 2.5 97.5 0.0 177.0 0.0 214.5 0.0 224.0 1.0 241.0 4.0 249.5 4.0 261.0 4.0 261.0 -5.0 261.0 -14.5 244.5 -16.0 177.5 -20.0 175.0 -62.0 L174.5 -87.0 174.0 -102.0 174.0 -293.0 Q174.0 -324.5 206.5 -349.0 238.5 -373.5 280.0 -373.5 339.5 -373.5 371.5 -336.0 403.5 -298.0 403.5 -228.5 L403.5 -56.5 Q403.5 -25.5 383.5 -20.5 L368.5 -16.5 Q359.5 -14.5 359.5 -6.5 359.5 -1.0 363.0 1.0 L370.0 2.5 384.5 1.5 403.5 1.5 453.0 0.0 Q497.0 0.0 513.5 2.5 527.5 4.0 533.0 4.0 550.0 4.0 549.5 -6.5 549.0 -14.5 535.5 -16.5 L514.5 -19.5 Q478.0 -25.0 472.5 -58.0 L471.0 -82.0 471.5 -97.0 471.5 -216.5 Q471.5 -309.0 439.5 -354.0 393.0 -419.5 313.0 -419.5 241.0 -419.5 174.0 -340.0" fill-rule="evenodd" stroke="none"/>
    </g>
    <g id="font_Goudy_Old_Style_i0">
      <path d="M175.0 -81.0 L175.0 -418.0 Q175.0 -429.5 168.5 -430.0 L142.0 -417.5 Q98.5 -395.0 70.5 -385.5 45.5 -377.5 45.0 -371.0 44.5 -363.0 63.5 -363.0 90.0 -363.0 98.0 -350.5 106.0 -338.0 106.0 -296.5 L106.0 -79.0 Q106.0 -49.0 100.0 -35.5 93.5 -22.0 77.5 -16.5 L68.0 -13.5 Q59.0 -10.5 59.0 -2.5 59.0 6.5 72.5 6.5 77.5 6.5 90.5 5.0 96.0 4.0 106.0 3.5 L142.5 1.5 175.0 2.0 Q196.5 2.0 210.0 3.0 234.0 5.5 242.5 5.5 255.5 5.5 256.0 -3.0 256.5 -13.0 238.5 -15.5 L215.5 -18.0 Q190.5 -21.5 183.0 -33.5 175.0 -45.5 175.0 -81.0 M144.0 -626.0 L144.0 -626.0 Q133.5 -626.0 115.5 -605.5 97.0 -585.0 97.0 -573.0 97.0 -561.5 113.5 -541.5 130.0 -521.5 140.0 -521.5 151.0 -521.5 168.5 -542.0 186.0 -562.5 185.5 -574.0 185.5 -580.0 180.5 -587.0 L168.5 -606.0 Q156.0 -626.0 144.0 -626.0" fill-rule="evenodd" stroke="none"/>
    </g>
    <g id="font_Goudy_Old_Style_l0">
      <path d="M164.5 -702.0 L165.0 -717.5 Q165.0 -740.0 157.5 -739.5 153.5 -739.5 147.5 -735.5 134.0 -725.5 99.0 -711.5 L68.0 -699.0 Q54.0 -693.5 37.0 -689.5 24.0 -686.0 24.0 -678.5 24.0 -673.0 30.0 -670.5 33.5 -669.5 38.5 -669.5 L63.5 -670.5 Q95.5 -670.5 95.5 -624.5 L95.5 -70.0 Q95.5 -46.0 88.0 -35.0 80.0 -24.5 57.5 -18.0 43.0 -14.0 43.5 -6.0 44.0 4.0 57.0 4.0 60.0 4.0 76.0 1.5 87.0 0.0 134.5 0.0 L161.0 0.0 204.5 -0.5 Q219.5 -0.5 227.0 1.0 235.5 3.0 240.0 3.0 251.0 3.0 250.5 -8.0 250.0 -16.0 236.0 -18.5 185.0 -27.0 174.0 -52.0 164.5 -74.0 164.5 -115.0 L164.5 -702.0" fill-rule="evenodd" stroke="none"/>
    </g>
    <g id="font_Goudy_Old_Style_m0">
      <path d="M174.5 -352.0 L174.5 -412.5 Q174.5 -431.0 167.0 -431.0 163.0 -431.0 143.5 -420.0 99.0 -395.0 47.5 -381.5 35.5 -378.0 35.5 -371.0 35.5 -367.5 38.5 -366.0 42.0 -363.5 47.0 -363.5 L69.0 -363.5 Q90.0 -363.5 98.0 -350.0 105.5 -336.5 105.5 -300.5 L105.5 -77.0 Q105.5 -45.0 99.0 -34.0 92.5 -23.0 69.5 -16.0 58.5 -12.5 58.5 -4.5 58.5 4.5 71.0 4.0 76.5 3.5 89.5 1.5 100.0 0.5 107.0 0.5 L141.0 0.0 175.0 0.0 Q206.0 0.0 216.5 1.5 233.5 3.5 240.5 4.0 252.5 4.5 252.5 -4.5 252.5 -14.5 237.0 -16.0 203.0 -20.0 189.0 -35.0 174.5 -50.0 174.5 -82.5 L174.5 -297.0 Q174.5 -334.0 201.5 -356.5 229.0 -379.0 273.0 -379.0 320.5 -379.0 348.0 -349.0 375.0 -318.5 375.0 -266.0 L375.0 -81.0 Q375.0 -41.5 370.0 -32.0 365.0 -23.0 338.5 -13.5 329.5 -10.5 329.5 -4.5 329.5 4.0 341.5 4.0 347.5 4.0 357.0 2.5 375.0 0.0 444.0 0.0 463.5 0.0 491.0 3.0 502.0 4.0 507.0 4.0 521.5 4.0 521.5 -5.0 521.5 -14.5 505.0 -16.0 469.5 -19.0 457.0 -34.0 444.0 -49.0 444.0 -87.0 L444.0 -268.0 Q444.0 -284.5 441.0 -302.5 439.5 -310.0 439.5 -315.0 439.5 -338.5 470.5 -359.5 501.5 -380.5 535.5 -380.5 586.5 -380.5 615.5 -343.0 644.0 -305.5 644.0 -238.0 L644.0 -74.5 643.5 -57.5 Q643.5 -39.5 637.0 -31.5 630.0 -23.5 608.0 -15.0 599.0 -11.5 599.5 -6.0 600.0 4.0 613.0 4.0 617.0 4.0 628.0 2.5 644.5 0.0 710.5 0.0 744.5 0.0 760.5 2.5 770.5 4.0 776.0 4.0 788.0 4.0 788.0 -4.5 788.0 -14.5 776.0 -15.5 741.5 -19.0 726.5 -37.5 711.5 -56.0 711.5 -94.5 L711.5 -255.5 Q711.5 -333.0 673.5 -376.0 635.5 -419.5 568.0 -419.5 488.0 -419.5 431.0 -344.5 406.5 -385.5 378.5 -402.5 350.5 -419.5 306.5 -419.5 230.5 -419.5 174.5 -352.0" fill-rule="evenodd" stroke="none"/>
    </g>
    <g id="shape1" transform="matrix(1.0, 0.0, 0.0, 1.0, -95.6, -219.2)">
      <path d="M111.25 231.85 Q126.9 221.6 149.05 221.6 171.2 221.6 186.85 231.85 202.55 242.05 202.55 256.5 202.55 270.95 186.85 281.2 171.2 291.4 149.05 291.4 126.9 291.4 111.25 281.2 95.6 270.95 95.6 256.5 95.6 242.05 111.25 231.85" fill="url(#gradient3)" fill-rule="evenodd" stroke="none"/>
      <path d="M111.25 229.45 Q126.9 219.2 149.05 219.2 171.2 219.2 186.85 229.45 202.55 239.65 202.55 254.1 202.55 268.55 186.85 278.8 171.2 289.0 149.05 289.0 126.9 289.0 111.25 278.8 95.6 268.55 95.6 254.1 95.6 239.65 111.25 229.45" fill="url(#gradient4)" fill-rule="evenodd" stroke="none"/>
      <path d="M95.6 256.9 L95.6 255.7 Q96.4 269.75 111.9 279.6 127.4 289.4 149.05 289.4 170.7 289.4 186.25 279.6 201.7 269.75 202.45 255.7 L202.55 256.9 Q202.55 271.35 186.85 281.6 171.2 291.8 149.05 291.8 126.9 291.8 111.25 281.6 95.6 271.35 95.6 256.9" fill="url(#gradient5)" fill-rule="evenodd" stroke="none"/>
      <path d="M144.7 271.0 Q144.7 271.9 143.8 272.5 142.9 273.15 141.6 273.15 140.35 273.15 139.4 272.5 138.55 271.9 138.55 271.0 138.55 270.1 139.4 269.5 140.3 268.9 141.6 268.9 142.9 268.9 143.8 269.5 144.7 270.1 144.7 271.0" fill="url(#gradient6)" fill-rule="evenodd" stroke="none"/>
      <path d="M153.0 250.1 Q153.0 250.95 152.15 251.55 151.2 252.2 149.9 252.2 148.65 252.2 147.75 251.55 146.85 250.95 146.85 250.1 146.85 249.2 147.75 248.55 148.65 247.95 149.9 247.95 151.2 247.95 152.15 248.55 153.0 249.2 153.0 250.1" fill="url(#gradient7)" fill-rule="evenodd" stroke="none"/>
      <path d="M124.15 245.75 Q124.15 246.7 123.3 247.3 122.4 247.95 121.1 247.95 119.8 247.95 118.9 247.3 118.0 246.7 118.0 245.75 118.0 244.9 118.9 244.3 119.8 243.65 121.1 243.65 122.35 243.65 123.3 244.3 124.15 244.9 124.15 245.75" fill="url(#gradient8)" fill-rule="evenodd" stroke="none"/>
      <path d="M156.5 230.75 Q157.75 230.75 158.7 231.4 159.6 232.0 159.6 232.9 159.6 233.8 158.7 234.4 157.75 235.05 156.5 235.05 155.2 235.05 154.3 234.4 153.4 233.8 153.4 232.9 153.4 232.0 154.3 231.4 155.25 230.75 156.5 230.75" fill="url(#gradient9)" fill-rule="evenodd" stroke="none"/>
      <path d="M182.95 254.9 Q182.95 255.8 182.05 256.4 181.1 257.05 179.85 257.05 178.6 257.05 177.65 256.4 176.75 255.8 176.75 254.9 176.75 254.0 177.65 253.4 178.6 252.8 179.85 252.8 181.15 252.8 182.05 253.4 182.95 254.0 182.95 254.9" fill="url(#gradient10)" fill-rule="evenodd" stroke="none"/>
    </g>
    <linearGradient gradientTransform="matrix(0.0652, 0.0, 0.0, -0.0652, 149.05, 256.5)" gradientUnits="userSpaceOnUse" id="gradient3" spreadMethod="pad" x1="-819.2" x2="819.2">
      <stop offset="0.0" stop-color="#9c050d"/>
      <stop offset="0.22745098039215686" stop-color="#83040a"/>
      <stop offset="0.5294117647058824" stop-color="#670307"/>
      <stop offset="0.796078431372549" stop-color="#570206"/>
      <stop offset="1.0" stop-color="#510205"/>
    </linearGradient>
    <linearGradient gradientTransform="matrix(0.0652, 0.0, 0.0, -0.0652, 149.05, 254.1)" gradientUnits="userSpaceOnUse" id="gradient4" spreadMethod="pad" x1="-819.2" x2="819.2">
      <stop offset="0.0" stop-color="#9c050d"/>
      <stop offset="0.22745098039215686" stop-color="#83040a"/>
      <stop offset="0.5294117647058824" stop-color="#670307"/>
      <stop offset="0.796078431372549" stop-color="#570206"/>
      <stop offset="1.0" stop-color="#510205"/>
    </linearGradient>
    <linearGradient gradientTransform="matrix(0.0652, 0.0, 0.0, -0.0652, 149.05, 273.75)" gradientUnits="userSpaceOnUse" id="gradient5" spreadMethod="pad" x1="-819.2" x2="819.2">
      <stop offset="0.0" stop-color="#d4ccd4"/>
      <stop offset="0.11764705882352941" stop-color="#c1bbc0"/>
      <stop offset="0.3803921568627451" stop-color="#9d9b9b"/>
      <stop offset="0.6235294117647059" stop-color="#83837f"/>
      <stop offset="0.8392156862745098" stop-color="#74756f"/>
      <stop offset="1.0" stop-color="#6e7069"/>
    </linearGradient>
    <radialGradient cx="0" cy="0" gradientTransform="matrix(0.0033, 0.0, 0.0, -0.0023, 141.65, 271.0)" gradientUnits="userSpaceOnUse" id="gradient6" r="819.2" spreadMethod="pad">
      <stop offset="0.0" stop-color="#ffffff"/>
      <stop offset="0.054901960784313725" stop-color="#f1f0f0"/>
      <stop offset="0.24705882352941178" stop-color="#c1c0c0"/>
      <stop offset="0.43137254901960786" stop-color="#9c9a9a"/>
      <stop offset="0.6" stop-color="#817e7f"/>
      <stop offset="0.7490196078431373" stop-color="#716e6f"/>
      <stop offset="0.8588235294117647" stop-color="#6b6869"/>
    </radialGradient>
    <radialGradient cx="0" cy="0" gradientTransform="matrix(0.0033, 0.0, 0.0, -0.0023, 149.9, 250.1)" gradientUnits="userSpaceOnUse" id="gradient7" r="819.2" spreadMethod="pad">
      <stop offset="0.0" stop-color="#ffffff"/>
      <stop offset="0.054901960784313725" stop-color="#f1f0f0"/>
      <stop offset="0.24705882352941178" stop-color="#c1c0c0"/>
      <stop offset="0.43137254901960786" stop-color="#9c9a9a"/>
      <stop offset="0.6" stop-color="#817e7f"/>
      <stop offset="0.7490196078431373" stop-color="#716e6f"/>
      <stop offset="0.8588235294117647" stop-color="#6b6869"/>
    </radialGradient>
    <radialGradient cx="0" cy="0" gradientTransform="matrix(0.0033, 0.0, 0.0, -0.0023, 121.1, 245.75)" gradientUnits="userSpaceOnUse" id="gradient8" r="819.2" spreadMethod="pad">
      <stop offset="0.0" stop-color="#ffffff"/>
      <stop offset="0.054901960784313725" stop-color="#f1f0f0"/>
      <stop offset="0.24705882352941178" stop-color="#c1c0c0"/>
      <stop offset="0.43137254901960786" stop-color="#9c9a9a"/>
      <stop offset="0.6" stop-color="#817e7f"/>
      <stop offset="0.7490196078431373" stop-color="#716e6f"/>
      <stop offset="0.8588235294117647" stop-color="#6b6869"/>
    </radialGradient>
    <radialGradient cx="0" cy="0" gradientTransform="matrix(0.0033, 0.0, 0.0, -0.0023, 156.5, 232.9)" gradientUnits="userSpaceOnUse" id="gradient9" r="819.2" spreadMethod="pad">
      <stop offset="0.0" stop-color="#ffffff"/>
      <stop offset="0.054901960784313725" stop-color="#f1f0f0"/>
      <stop offset="0.24705882352941178" stop-color="#c1c0c0"/>
      <stop offset="0.43137254901960786" stop-color="#9c9a9a"/>
      <stop offset="0.6" stop-color="#817e7f"/>
      <stop offset="0.7490196078431373" stop-color="#716e6f"/>
      <stop offset="0.8588235294117647" stop-color="#6b6869"/>
    </radialGradient>
    <radialGradient cx="0" cy="0" gradientTransform="matrix(0.0033, 0.0, 0.0, -0.0023, 179.85, 254.9)" gradientUnits="userSpaceOnUse" id="gradient10" r="819.2" spreadMethod="pad">
      <stop offset="0.0" stop-color="#ffffff"/>
      <stop offset="0.054901960784313725" stop-color="#f1f0f0"/>
      <stop offset="0.24705882352941178" stop-color="#c1c0c0"/>
      <stop offset="0.43137254901960786" stop-color="#9c9a9a"/>
      <stop offset="0.6" stop-color="#817e7f"/>
      <stop offset="0.7490196078431373" stop-color="#716e6f"/>
      <stop offset="0.8588235294117647" stop-color="#6b6869"/>
    </radialGradient>
  </defs>
</svg>
