<?xml version="1.0" encoding="UTF-8" standalone="no"?>
<svg xmlns:xlink="http://www.w3.org/1999/xlink" height="300.0px" width="300.0px" xmlns="http://www.w3.org/2000/svg">
  <g transform="matrix(1.0, 0.0, 0.0, 1.0, 0.0, 0.0)">
    <use height="275.4" transform="matrix(0.5698, 0.0, 0.0, 0.5698, 11.3749, 71.5394)" width="493.65" xlink:href="#sprite0"/>
  </g>
  <defs>
    <g id="sprite0" transform="matrix(1.0, 0.0, 0.0, 1.0, 246.8, 137.7)">
      <use height="275.4" transform="matrix(1.0, 0.0, 0.0, 1.0, -246.8, -137.7)" width="493.65" xlink:href="#shape0"/>
    </g>
    <g id="shape0" transform="matrix(1.0, 0.0, 0.0, 1.0, 246.8, 137.7)">
      <path d="M-26.6 -116.8 Q-40.85 -106.75 -56.55 -106.75 -61.75 -106.75 -71.2 -108.65 L-78.7 -101.75 Q-90.15 -90.05 -96.9 -51.45 L-86.5 -52.75 Q-81.55 -52.75 -74.6 -50.1 L-75.7 -47.7 Q-81.55 -49.7 -85.25 -49.7 L-97.15 -48.2 Q-100.9 -29.85 -103.15 -21.65 -110.0 3.9 -127.25 17.95 -137.9 26.65 -154.55 31.0 -165.4 33.9 -174.5 33.9 -189.5 33.9 -203.4 27.3 -217.3 20.65 -227.5 8.8 -246.8 -13.65 -246.8 -44.2 -246.8 -70.5 -231.5 -90.1 -218.35 -106.85 -196.05 -114.5 -186.9 -117.65 -176.5 -118.55 -158.0 -137.7 -127.85 -137.7 -115.9 -137.7 -100.9 -132.95 L-78.95 -125.4 Q-56.45 -117.65 -41.0 -117.65 -31.55 -117.65 -24.6 -122.65 -21.2 -125.15 -16.55 -130.95 L-14.15 -129.3 Q-19.6 -121.6 -26.6 -116.8 M-75.35 -109.5 L-89.5 -113.75 Q-93.3 -115.1 -114.8 -124.4 -131.0 -131.45 -141.5 -131.45 -150.0 -131.45 -158.0 -128.05 -165.95 -124.65 -172.1 -118.3 -158.15 -117.9 -146.15 -111.75 -133.7 -105.15 -126.6 -93.85 -117.85 -79.55 -117.85 -61.0 -117.85 -54.05 -119.6 -48.35 L-114.7 -47.95 -112.45 -48.1 -110.05 -55.35 Q-101.6 -80.15 -97.25 -86.95 -92.0 -95.2 -80.85 -104.85 L-75.35 -109.5 M-160.05 -113.75 Q-166.4 -115.5 -174.85 -115.5 -179.95 -110.1 -182.9 -102.0 -185.75 -93.95 -185.75 -85.55 -185.75 -69.25 -175.35 -57.75 -165.8 -47.1 -152.45 -47.1 -140.9 -47.1 -133.35 -56.85 -134.0 -58.95 -134.0 -61.5 -134.0 -67.25 -130.85 -67.25 -128.5 -67.25 -128.5 -62.9 -128.5 -60.8 -130.1 -56.75 -129.3 -52.75 -124.1 -50.1 -121.7 -57.45 -121.7 -64.5 -121.7 -80.6 -130.35 -93.85 -140.4 -108.9 -160.05 -113.75 M-152.55 -44.2 Q-169.6 -44.2 -180.4 -58.85 -188.9 -70.6 -188.9 -85.3 -188.9 -101.2 -179.25 -115.25 -197.85 -112.6 -212.2 -101.85 -226.7 -90.85 -234.6 -75.05 -242.4 -59.2 -242.4 -41.05 -242.4 -9.9 -221.1 11.2 -201.8 30.25 -176.85 30.25 -154.45 30.25 -137.75 9.05 -128.8 -2.3 -121.2 -22.65 -118.5 -30.0 -113.55 -45.2 L-115.45 -44.95 -120.35 -45.45 Q-125.05 -31.85 -131.25 -24.15 -138.2 -15.4 -149.55 -10.6 -158.45 -6.75 -168.1 -6.75 -189.3 -6.75 -201.2 -22.4 -209.2 -33.0 -209.2 -46.6 -209.2 -53.1 -206.8 -59.35 L-203.95 -58.5 Q-206.2 -51.8 -206.2 -46.2 -206.2 -33.25 -197.8 -23.15 -187.0 -10.25 -170.85 -10.25 -158.3 -10.25 -145.8 -19.15 -132.95 -28.15 -124.95 -46.95 -129.95 -49.9 -132.0 -53.35 -141.0 -44.2 -152.55 -44.2" fill="#000000" fill-rule="evenodd" stroke="none"/>
      <path d="M-48.55 -47.7 L-41.4 -47.2 -35.75 -47.7 -50.15 5.05 Q-50.95 7.75 -50.95 9.45 -50.95 12.6 -47.55 12.6 -42.7 12.6 -36.0 -1.45 L-28.25 -18.65 -25.6 -17.75 Q-30.6 -6.0 -35.15 3.05 -38.95 11.0 -42.4 13.85 -45.7 16.7 -49.65 16.7 -59.05 16.7 -60.85 3.2 -63.85 9.1 -65.85 11.55 -69.6 16.2 -74.6 16.2 -80.7 16.2 -84.4 9.3 -87.0 4.25 -87.0 -3.45 -87.0 -19.2 -78.75 -33.55 -74.85 -40.45 -69.3 -44.85 -63.75 -49.1 -59.05 -49.1 -53.55 -49.1 -50.65 -39.8 L-48.55 -47.7 M-58.7 -45.85 Q-61.35 -45.85 -64.35 -38.8 -69.95 -25.3 -74.25 -9.1 -76.75 0.3 -76.75 6.05 -76.75 12.35 -72.75 12.35 -66.45 12.35 -59.9 -6.35 -53.3 -25.0 -53.3 -35.95 -53.3 -39.95 -55.05 -43.05 -56.7 -45.85 -58.7 -45.85" fill="#000000" fill-rule="evenodd" stroke="none"/>
      <path d="M-0.05 -48.45 Q3.85 -42.85 8.0 -33.65 11.6 -25.7 11.6 -16.65 11.6 -3.2 3.95 7.05 0.6 11.5 -4.6 14.25 -9.85 17.1 -14.7 17.1 -20.3 17.1 -25.0 12.95 -29.1 9.35 -29.1 2.8 -29.1 -4.6 -24.6 -9.25 -20.65 -13.35 -15.35 -13.35 -8.55 -13.35 -8.55 -6.85 -8.55 -3.35 -10.95 -1.2 -12.2 -0.1 -13.55 -0.1 -14.6 -0.1 -17.1 -1.1 -18.65 -1.7 -19.95 -1.7 -22.35 -1.7 -23.85 0.65 -25.0 2.35 -25.0 4.55 -25.0 8.05 -22.6 10.3 -20.5 12.45 -17.85 12.45 -12.55 12.45 -7.55 2.4 -0.15 -12.55 -0.15 -26.3 -0.15 -36.6 -4.55 -51.1 -14.85 -38.85 -25.75 -17.0 L-28.1 -18.15 Q-6.8 -62.15 8.35 -62.15 14.5 -62.15 14.5 -56.6 14.5 -51.6 9.1 -51.6 7.5 -51.6 3.35 -54.0 L1.85 -54.35 Q0.6 -54.35 -0.4 -53.5 -1.4 -52.65 -1.4 -51.45 -1.4 -50.45 -0.05 -48.45" fill="#000000" fill-rule="evenodd" stroke="none"/>
      <path d="M55.25 -102.1 L38.05 -38.95 Q45.7 -48.35 52.35 -48.35 57.4 -48.35 60.0 -44.45 61.75 -41.95 61.75 -37.95 61.75 -31.6 57.35 -18.25 L51.0 1.3 Q49.35 6.05 49.35 9.3 49.35 13.2 52.75 13.2 60.25 13.2 71.8 -18.9 L74.4 -17.75 Q70.6 -6.75 66.5 1.55 62.45 9.7 59.65 12.85 55.95 16.7 50.5 16.7 44.4 16.7 41.35 11.7 39.2 8.35 39.2 4.3 39.2 -2.75 45.1 -18.65 51.1 -34.55 51.1 -39.8 51.1 -43.85 48.35 -43.85 44.2 -43.85 39.55 -35.3 35.2 -27.4 32.2 -17.0 L23.15 15.35 17.15 15.1 10.35 15.6 42.85 -101.85 49.1 -101.1 Q51.65 -101.1 55.25 -102.1" fill="#000000" fill-rule="evenodd" stroke="none"/>
      <path d="M100.25 -68.65 Q100.25 -65.0 97.75 -62.45 95.15 -59.85 91.2 -59.85 84.3 -59.85 84.3 -66.65 84.3 -70.45 87.2 -73.3 89.65 -75.8 93.2 -75.8 96.5 -75.8 98.6 -73.3 100.25 -71.4 100.25 -68.65 M85.7 -47.2 L92.1 -47.95 79.55 -2.2 Q77.3 7.7 77.3 9.45 77.3 10.85 78.25 11.95 79.15 13.1 80.3 13.1 84.8 13.1 91.1 1.05 93.05 -2.65 99.75 -19.0 L102.35 -17.9 99.75 -11.35 Q94.55 1.45 90.2 8.3 84.95 16.7 78.95 16.7 73.35 16.7 69.65 11.3 67.0 7.65 67.0 2.95 67.0 -1.05 69.9 -11.6 L79.55 -47.7 85.7 -47.2" fill="#000000" fill-rule="evenodd" stroke="none"/>
      <path d="M136.1 -43.85 Q138.85 -39.45 138.85 -32.9 138.85 -25.15 133.45 -5.95 L133.7 -5.95 Q136.6 -5.95 138.85 -9.1 140.6 -11.55 143.0 -17.75 L145.35 -16.5 Q141.0 -2.7 132.85 -2.7 L132.1 -2.7 Q124.15 16.7 113.55 16.7 106.35 16.7 101.5 10.05 97.5 4.8 97.5 -3.35 97.5 -20.8 108.4 -36.2 117.25 -48.6 127.2 -48.6 133.1 -48.6 136.1 -43.85 M128.55 -45.2 Q124.5 -45.2 121.3 -38.7 116.7 -29.4 112.8 -15.6 108.15 0.7 108.15 6.45 108.15 9.55 109.75 11.55 111.4 13.6 114.05 13.6 122.6 13.6 129.05 -3.1 124.05 -5.0 124.05 -11.35 124.05 -16.25 126.3 -20.15 128.85 -24.25 132.7 -24.25 L134.95 -24.0 Q135.85 -28.55 135.85 -31.65 135.85 -38.1 133.7 -41.8 131.85 -45.2 128.55 -45.2" fill="#000000" fill-rule="evenodd" stroke="none"/>
      <path d="M183.35 -43.6 Q185.25 -40.5 185.25 -36.95 185.25 -29.65 178.45 -11.0 172.45 5.75 172.45 9.2 172.45 13.35 175.7 13.35 183.95 13.35 194.9 -18.4 L197.5 -17.25 Q193.55 -5.85 189.1 3.05 185.7 9.85 182.6 12.95 178.7 16.85 173.55 16.85 166.4 16.85 163.4 10.05 162.3 7.5 162.3 4.45 162.3 -2.55 167.05 -15.5 174.45 -35.4 174.45 -40.3 174.45 -43.6 171.95 -43.6 168.2 -43.6 162.4 -34.45 158.55 -28.45 156.0 -19.75 147.65 8.95 146.1 15.6 L138.6 15.1 133.2 15.7 151.0 -47.2 158.4 -46.6 163.65 -46.95 161.3 -38.8 Q169.2 -47.95 175.7 -47.95 180.6 -47.95 183.35 -43.6" fill="#000000" fill-rule="evenodd" stroke="none"/>
      <path d="M-201.45 99.6 Q-192.35 96.0 -192.9 93.35 -193.45 90.75 -202.1 89.7 L-210.65 89.15 -210.65 102.65 -201.45 99.6 M-209.8 46.85 L-211.5 59.55 -210.25 60.05 -207.05 60.6 Q-202.0 60.6 -198.8 55.3 -195.65 50.0 -202.4 47.9 L-207.35 47.0 -209.8 46.85 M-210.65 32.5 L-206.65 31.65 -197.0 30.8 Q-182.0 30.8 -175.15 39.25 -167.25 48.95 -170.9 57.2 -174.15 64.65 -186.95 71.4 L-182.85 72.65 Q-178.1 74.45 -174.6 77.1 -163.4 85.55 -169.2 99.3 -175.4 113.95 -196.7 116.3 -210.85 117.85 -236.85 113.65 L-235.15 90.0 -242.75 79.85 -235.15 72.2 -233.45 53.6 -239.4 34.2 -233.45 34.2 -231.8 24.85 -210.65 25.7 -210.65 32.5" fill="#c79e5e" fill-rule="evenodd" stroke="none"/>
      <path d="M-209.2 26.2 Q-188.1 26.2 -177.55 32.8 -166.9 39.4 -166.9 49.05 -166.9 51.6 -167.8 54.65 -168.7 57.8 -170.65 60.8 -172.55 63.8 -175.85 66.55 -179.2 69.25 -183.85 70.65 -179.4 71.2 -175.65 73.05 -172.0 74.85 -169.3 77.5 -166.65 80.25 -165.3 83.05 -163.9 85.9 -163.9 88.65 -163.9 118.1 -206.9 118.1 L-212.15 117.9 -220.25 117.45 -229.2 116.95 -236.7 116.65 -238.8 116.65 -236.15 88.45 -245.4 77.25 -236.15 69.9 -234.7 51.2 -240.95 32.25 -233.45 30.65 -234.55 21.75 -210.45 24.25 -209.2 26.2 M-225.45 26.55 L-231.35 24.95 Q-230.8 26.45 -230.8 33.35 L-233.1 101.85 -232.95 108.65 -232.4 113.25 Q-230.95 111.8 -229.55 109.45 -228.15 107.1 -226.7 103.8 -224.0 111.7 -224.0 114.15 L-223.5 114.35 -221.95 110.05 -219.9 104.2 Q-218.7 110.9 -217.25 114.35 L-216.7 114.15 -212.4 28.35 -215.8 27.8 -218.1 37.1 -218.85 27.1 -221.85 26.9 -221.95 35.85 Q-222.0 37.7 -222.6 39.25 L-223.65 34.95 -225.45 26.55 M-237.4 34.25 L-234.9 40.1 -234.35 39.95 -234.35 34.25 -237.4 34.25 M-209.4 44.75 Q-204.15 44.75 -200.45 46.3 -196.7 47.8 -196.7 52.25 -196.7 57.6 -210.65 61.55 L-205.45 62.8 -201.35 61.9 Q-203.3 65.1 -209.75 67.05 L-209.55 67.6 -207.5 67.7 -205.45 67.8 Q-201.1 67.8 -196.9 64.75 -197.05 69.0 -204.55 70.8 L-204.55 71.35 Q-197.55 70.85 -191.65 69.1 -185.65 67.45 -181.3 64.75 -176.95 62.1 -174.4 58.4 -171.9 54.7 -171.9 50.3 -171.9 46.05 -174.05 42.45 -176.15 38.95 -179.75 36.35 -183.35 33.85 -188.05 32.45 -192.85 31.0 -197.8 31.0 -204.2 31.0 -209.75 32.8 -209.75 34.35 -210.1 36.75 L-210.45 40.1 Q-210.45 43.55 -209.4 44.75 M-209.55 47.1 L-209.55 57.05 Q-200.3 55.45 -200.3 50.85 -200.3 50.05 -201.9 48.6 -203.45 47.1 -207.75 47.1 L-209.55 47.1 M-220.45 46.35 Q-222.05 46.35 -222.05 44.75 -222.05 43.15 -220.45 43.15 -219.0 43.15 -219.0 44.75 -219.0 46.35 -220.45 46.35 M-187.35 42.25 Q-186.5 43.55 -186.0 45.3 -185.5 47.05 -185.1 49.3 -184.75 51.95 -184.75 53.3 L-185.3 52.6 -187.6 48.35 Q-189.1 45.1 -189.75 41.0 L-189.2 41.0 Q-188.2 41.0 -187.35 42.25 M-182.45 40.65 Q-180.8 40.65 -180.05 43.15 -179.2 45.7 -179.05 49.75 L-180.1 50.85 Q-180.95 46.75 -182.25 44.3 L-183.5 41.55 Q-183.5 40.65 -182.45 40.65 M-183.25 84.65 Q-182.1 86.45 -182.1 88.45 L-182.35 89.8 -183.7 93.85 -184.2 94.9 -186.35 85.8 -186.7 83.65 Q-186.7 82.75 -186.0 82.75 -184.4 82.75 -183.25 84.65 M-179.75 81.85 Q-178.35 81.85 -176.9 84.35 -175.5 86.85 -175.5 88.65 -175.5 93.1 -177.6 93.85 L-178.5 91.95 -179.5 88.75 -180.2 85.35 -180.5 82.75 Q-180.5 81.85 -179.75 81.85 M-202.25 89.0 Q-206.65 89.0 -211.35 93.1 -209.75 95.0 -209.75 98.65 L-203.65 97.05 Q-196.6 93.7 -195.45 91.7 L-195.65 91.35 Q-198.0 89.0 -202.25 89.0 M-198.95 100.35 Q-203.9 102.4 -210.65 103.45 -209.9 110.6 -208.65 110.6 -206.65 110.6 -201.15 107.55 -202.45 109.75 -204.05 111.15 L-208.85 115.25 -204.05 115.95 -192.95 113.7 Q-187.3 112.45 -181.2 110.4 -169.25 101.35 -169.25 91.5 -169.25 82.95 -175.55 78.5 -181.9 74.0 -192.05 74.0 -206.35 74.0 -209.75 79.9 L-209.75 84.9 -203.3 84.9 Q-191.2 84.9 -191.2 93.1 L-191.2 94.2 Q-194.05 98.3 -198.95 100.35 M-224.2 74.0 Q-222.75 74.4 -222.75 75.65 -222.75 77.25 -224.0 77.25 -225.1 76.5 -225.1 75.65 -225.1 74.0 -224.2 74.0 M-235.8 84.2 L-235.45 84.2 -236.85 74.0 -240.6 77.6 -235.8 84.2 M-223.1 88.3 Q-224.9 88.3 -224.9 86.35 -224.9 84.2 -223.1 84.2 -221.15 84.2 -221.15 86.35 -221.15 88.3 -223.1 88.3" fill="#000000" fill-rule="evenodd" stroke="none"/>
      <path d="M-121.0 86.6 L-110.9 89.15 -115.95 74.75 -121.0 86.6 M-131.15 43.5 L-136.25 30.8 -123.55 24.85 -121.0 20.65 -102.4 30.8 -106.65 48.55 -85.5 84.9 -77.9 85.75 -80.45 106.05 -76.2 110.25 -95.65 117.9 -102.4 107.75 -130.3 109.4 -137.1 122.95 -158.2 114.5 -161.6 88.3 -148.9 86.6 -131.15 43.5" fill="#c79e5e" fill-rule="evenodd" stroke="none"/>
      <path d="M-138.55 29.25 L-125.15 24.05 -121.75 16.4 -98.55 29.95 -104.3 46.7 -86.1 82.25 -75.75 82.25 -76.65 103.8 -74.3 112.05 -95.9 120.95 -103.55 107.75 Q-119.15 110.4 -128.75 110.4 L-131.6 117.3 Q-133.4 121.85 -135.7 126.85 L-159.25 118.25 -163.7 86.35 -149.4 84.2 -133.7 42.25 -138.55 29.25 M-126.75 28.9 L-134.1 31.4 -131.2 38.15 -126.75 28.9 M-117.65 23.35 Q-118.8 22.75 -120.0 22.1 L-129.35 43.7 Q-134.05 54.85 -138.55 67.95 L-155.5 114.5 -151.55 115.4 -144.8 102.05 -144.8 106.85 Q-144.8 113.0 -146.2 116.85 L-139.1 105.6 -140.7 119.9 -138.2 121.3 -127.9 94.65 -104.3 34.05 Q-104.3 30.95 -105.9 29.05 -110.3 31.0 -115.15 35.85 -114.6 33.5 -113.45 31.3 L-110.7 26.75 -115.5 24.4 -122.5 34.4 -117.65 23.35 M-119.1 44.75 Q-120.5 44.25 -120.5 43.0 -120.5 41.35 -119.1 41.35 -117.65 41.95 -117.65 43.0 -117.65 44.75 -119.1 44.75 M-119.65 84.75 L-113.2 86.35 -116.4 77.6 -119.65 84.75 M-114.65 89.65 L-119.25 89.0 -120.0 89.0 Q-125.15 99.5 -126.95 106.3 -117.5 106.3 -105.35 104.2 L-105.35 101.3 -110.45 100.45 -117.65 99.0 -108.05 97.05 Q-110.5 95.3 -116.05 93.85 -112.15 92.75 -112.15 90.6 -112.15 90.25 -114.65 89.65 M-95.0 96.5 Q-96.8 96.0 -96.8 94.35 -96.8 92.2 -95.0 92.2 -93.05 92.8 -93.05 94.35 -93.05 96.5 -95.0 96.5 M-86.8 105.8 L-86.6 104.35 Q-83.6 108.5 -80.75 109.9 L-79.3 107.75 -106.05 51.0 Q-113.4 65.25 -113.4 71.5 -113.4 79.05 -105.0 95.45 -96.05 113.45 -90.2 113.45 L-94.65 104.9 -85.9 109.9 Q-86.8 107.2 -86.8 106.3 L-86.8 105.8 M-152.1 89.9 L-158.0 90.6 -156.9 104.0 -152.1 89.9 M-138.9 94.0 Q-137.3 94.9 -137.3 95.95 -137.3 98.1 -138.9 98.1 -140.7 97.6 -140.7 95.95 -140.7 94.0 -138.9 94.0 M-78.6 86.35 L-83.75 86.35 -79.3 100.6 -78.6 86.35" fill="#000000" fill-rule="evenodd" stroke="none"/>
      <path d="M-23.8 58.7 Q-21.65 53.4 -28.45 50.45 -30.6 49.55 -33.3 48.95 L-35.65 48.55 -37.3 66.3 -31.8 65.65 Q-25.9 64.0 -23.8 58.7 M-61.0 52.8 L-74.5 51.95 -74.5 30.8 -60.15 28.25 -59.3 22.35 -34.8 23.2 -34.8 27.4 Q-23.25 28.35 -14.9 33.45 -2.65 40.9 -2.65 55.3 -2.65 69.05 -11.1 78.8 -15.3 83.65 -19.55 85.75 L13.4 121.25 -4.35 133.95 -41.55 100.95 -42.4 117.05 -68.6 118.75 -65.2 93.35 -73.65 72.2 -62.7 67.15 -61.0 52.8" fill="#c79e5e" fill-rule="evenodd" stroke="none"/>
      <path d="M-59.5 20.5 L-33.1 20.5 -33.1 24.95 Q-25.7 25.2 -19.9 27.7 -13.95 30.35 -9.8 34.7 -5.6 39.05 -3.35 45.05 -1.15 51.05 -1.15 57.95 -1.15 66.55 -4.9 73.65 -8.7 80.85 -15.6 84.2 L15.25 122.0 -5.4 137.7 -39.5 102.05 -40.4 118.45 -70.35 119.9 -67.35 93.1 -75.0 69.9 -64.3 67.4 -62.5 53.15 -75.7 53.85 -75.9 41.2 -76.1 28.35 -67.25 27.55 -60.55 26.4 -59.5 20.5 M-56.65 23.35 L-66.6 117.0 -61.1 116.5 -58.95 103.3 -58.25 115.6 -53.6 115.6 -51.45 104.9 -50.9 114.15 -43.95 115.4 -37.55 24.4 -41.8 24.4 -44.3 38.0 -44.3 24.6 -48.95 24.05 -51.45 38.5 -53.4 23.55 -56.65 23.35 M-69.85 38.8 L-66.25 39.95 -73.2 41.75 -73.05 44.95 -66.45 44.95 -73.05 47.8 -73.05 51.35 -62.0 50.65 -61.35 38.5 -61.1 28.9 -73.05 29.95 -73.2 37.8 -69.85 38.8 M-47.35 42.55 L-47.7 43.0 -48.25 42.55 -48.6 42.1 -47.7 41.35 -46.8 42.1 -47.35 42.55 M-33.95 28.9 L-34.7 46.7 Q-28.3 46.7 -24.05 49.5 -19.9 52.3 -19.9 57.25 -19.9 61.55 -23.45 64.2 -26.95 66.9 -36.45 69.75 L-36.85 73.5 Q-23.45 72.6 -20.6 69.2 L-20.4 69.4 Q-20.4 73.5 -36.65 76.35 L-36.85 79.55 -26.75 78.5 Q-22.5 77.75 -19.5 76.35 -22.0 80.4 -38.25 81.7 L-38.05 85.45 -31.45 85.6 Q-25.75 85.6 -20.95 83.5 -16.05 81.3 -12.55 77.4 -9.0 73.45 -7.05 68.15 -5.05 62.8 -5.05 56.55 -5.05 50.55 -7.1 45.4 -9.2 40.3 -12.85 36.65 -16.45 33.0 -21.4 30.95 -26.15 28.9 -32.0 28.9 L-33.95 28.9 M-34.7 50.65 L-36.85 65.1 Q-30.55 64.95 -27.55 62.7 -24.5 60.4 -24.5 57.25 -24.5 50.65 -34.7 50.65 M9.55 121.5 L-18.65 86.85 Q-25.6 89.2 -38.25 89.2 L-38.25 97.2 -4.15 132.0 -0.05 129.15 -1.4 127.1 -3.8 123.6 1.7 128.25 4.55 125.95 -0.25 121.3 6.0 123.6 9.55 121.5 M-51.45 74.4 L-50.55 73.5 -48.95 75.25 -49.65 76.15 -50.65 75.25 -51.45 74.4 M-71.8 71.35 L-66.8 86.7 -66.1 86.5 -65.0 69.75 -71.8 71.35" fill="#000000" fill-rule="evenodd" stroke="none"/>
      <path d="M59.9 57.85 Q62.55 52.05 54.75 49.3 52.3 48.45 49.1 48.0 L46.4 47.7 43.85 66.3 45.75 66.3 50.3 65.55 Q57.3 63.65 59.9 57.85 M21.0 50.25 L6.65 51.1 5.8 29.1 22.7 27.4 22.7 24.05 45.55 23.2 45.55 26.55 Q62.2 27.8 69.95 35.55 77.25 42.8 78.5 57.85 79.55 70.0 71.1 77.8 68.5 80.25 65.2 81.95 L62.45 83.2 94.6 122.1 76.0 133.95 39.6 100.95 37.95 117.05 12.55 117.9 15.95 90.8 7.5 71.4 18.5 68.0 21.0 50.25" fill="#c79e5e" fill-rule="evenodd" stroke="none"/>
      <path d="M79.85 57.95 Q79.85 66.55 76.1 73.65 72.35 80.8 65.4 84.2 L96.25 122.0 75.55 137.7 41.45 102.05 40.6 118.45 10.6 119.9 13.65 93.1 5.95 69.9 16.65 67.4 18.45 53.15 5.25 53.85 5.05 41.2 Q4.9 35.0 4.9 28.35 L13.75 27.55 20.4 26.4 21.5 20.5 47.9 20.5 47.9 24.95 Q55.25 25.2 61.1 27.7 67.1 30.4 71.2 34.7 75.35 39.1 77.6 45.05 79.85 51.0 79.85 57.95 M90.55 121.5 L62.35 86.85 Q55.3 89.2 42.7 89.2 L42.7 97.2 76.8 132.0 80.9 129.15 77.15 123.6 82.7 128.25 85.55 125.95 80.7 121.3 86.95 123.6 90.55 121.5 M24.35 23.35 L14.35 117.0 19.9 116.5 22.0 103.3 22.75 115.6 27.35 115.6 29.5 104.9 30.05 114.15 37.0 115.4 43.45 24.4 39.15 24.4 36.65 38.0 36.65 24.6 32.0 24.05 29.5 38.5 27.55 23.55 24.35 23.35 M11.15 38.8 L14.7 39.95 7.75 41.75 7.95 44.95 14.55 44.95 7.95 47.8 7.95 51.35 19.0 50.65 19.6 38.5 19.9 28.9 7.95 29.95 7.75 37.8 11.15 38.8 M33.6 42.55 L33.25 43.0 32.75 42.55 32.35 42.1 33.25 41.35 34.15 42.1 Q33.85 42.2 33.6 42.55 M47.0 28.9 L46.3 46.7 Q52.65 46.7 56.9 49.5 61.1 52.3 61.1 57.25 61.1 61.5 57.55 64.2 53.95 66.9 44.5 69.75 L44.15 73.5 Q57.55 72.6 60.4 69.2 L60.55 69.4 Q60.55 73.5 44.35 76.35 L44.15 79.55 54.25 78.5 Q58.6 77.7 61.45 76.35 59.0 80.4 42.7 81.7 L42.9 85.45 49.5 85.6 Q55.2 85.6 60.0 83.5 64.95 81.3 68.4 77.4 72.0 73.5 73.95 68.15 75.9 62.75 75.9 56.55 75.9 50.55 73.85 45.4 71.85 40.35 68.15 36.65 64.5 33.0 59.6 30.95 54.75 28.9 48.95 28.9 L47.0 28.9 M46.3 50.65 L44.15 65.1 Q50.4 64.95 53.4 62.7 56.45 60.45 56.45 57.25 56.45 50.65 46.3 50.65 M29.5 74.4 L30.4 73.5 32.0 75.25 31.3 76.15 30.3 75.25 29.5 74.4 M9.2 71.35 L14.15 86.7 14.9 86.5 15.95 69.75 9.2 71.35" fill="#000000" fill-rule="evenodd" stroke="none"/>
      <path d="M96.25 58.7 L99.65 35.0 109.8 36.7 111.5 29.1 136.0 29.95 136.0 34.2 167.3 34.2 174.05 52.8 135.15 57.0 135.15 67.15 158.0 69.7 157.15 90.8 136.0 86.6 135.15 97.6 161.4 104.35 158.0 122.95 126.7 117.05 108.95 117.9 108.95 113.65 92.9 111.95 95.45 91.65 110.65 90.8 109.8 59.55 96.25 58.7" fill="#c79e5e" fill-rule="evenodd" stroke="none"/>
      <path d="M109.25 26.75 L122.35 27.3 135.3 27.8 137.95 30.65 153.65 30.85 169.35 31.2 175.05 54.05 136.7 57.8 136.7 65.1 148.3 65.65 159.75 66.15 159.2 79.3 158.5 92.6 136.15 90.95 136.15 94.9 164.0 101.5 162.05 112.85 159.9 124.15 Q149.3 122.15 139.05 121.2 L118.8 120.25 112.6 120.3 106.4 120.6 106.4 116.3 98.25 115.35 89.95 114.35 92.0 101.85 Q92.95 95.9 94.25 89.35 L107.25 90.25 108.35 59.95 101.85 60.45 95.3 61.2 98.15 32.1 109.25 32.65 109.25 26.75 M108.15 56.35 L106.4 35.65 100.85 35.65 99.05 56.35 108.15 56.35 M121.8 30.65 L118.45 34.75 112.8 29.4 112.8 114.15 114.05 114.15 116.85 101.3 118.3 115.05 122.0 114.9 124.8 102.75 126.4 114.9 131.7 111.5 132.25 32.45 131.7 32.25 130.15 36.35 128.55 40.65 125.55 30.65 121.8 30.65 M121.25 48.5 L121.25 44.4 124.45 44.4 124.65 44.95 Q124.25 47.1 121.25 48.5 M137.05 53.5 L170.6 50.65 169.0 45.85 164.8 45.4 160.6 44.95 168.3 42.6 167.95 39.25 163.55 39.05 159.0 38.7 167.6 34.6 167.4 34.05 137.05 34.05 137.05 53.5 M157.6 81.35 L153.5 80.0 149.4 78.5 156.35 76.7 156.35 68.15 137.25 68.15 137.25 86.35 154.35 87.05 154.55 86.5 147.75 84.2 157.6 81.35 M121.9 75.8 L119.6 71.5 120.45 70.65 123.5 74.4 121.9 75.8 M97.1 92.75 L93.35 110.4 106.4 114.9 107.25 92.75 97.1 92.75 M154.45 115.95 L156.7 116.3 159.0 116.15 Q157.55 113.95 152.6 111.85 156.0 111.7 157.85 110.35 159.6 109.0 161.15 104.9 L136.15 100.25 132.95 116.85 157.4 120.75 157.6 120.4 Q153.25 117.5 152.75 115.6 L154.45 115.95" fill="#000000" fill-rule="evenodd" stroke="none"/>
      <path d="M182.5 26.55 L210.4 29.95 207.05 92.5 240.85 89.15 245.95 111.1 208.75 113.65 208.75 121.25 182.5 120.4 170.7 121.25 167.3 95.9 180.0 93.35 182.5 26.55" fill="#c79e5e" fill-rule="evenodd" stroke="none"/>
      <path d="M186.75 30.5 L182.1 120.05 184.95 119.7 187.1 106.65 189.95 119.35 197.8 118.8 199.95 107.75 201.9 118.25 204.55 118.1 209.05 31.9 201.9 31.55 198.85 46.2 197.6 31.2 194.75 31.2 191.55 44.6 191.55 30.65 186.75 30.5 M212.6 27.6 L210.1 89.7 242.05 86.15 246.85 112.9 208.3 115.75 207.95 122.55 178.35 124.7 177.65 121.85 168.15 123.95 167.3 93.3 179.05 91.85 182.6 26.2 212.6 27.6 M175.85 101.15 Q173.2 102.6 170.5 104.0 L170.65 107.4 176.0 109.0 170.65 111.1 171.2 119.15 176.4 119.15 178.35 117.2 179.05 95.8 170.15 97.05 170.3 100.8 175.85 101.15 M194.05 106.3 L192.25 104.7 194.05 103.3 195.45 104.7 194.05 106.3 M209.05 112.2 L243.8 110.05 241.85 102.9 226.0 102.2 240.45 99.35 240.05 96.5 229.75 95.95 239.55 92.55 239.2 90.45 209.9 93.65 209.05 112.2" fill="#000000" fill-rule="evenodd" stroke="none"/>
    </g>
  </defs>
</svg>
