<?xml version="1.0" encoding="UTF-8" standalone="no"?>
<svg xmlns:xlink="http://www.w3.org/1999/xlink" height="300.0px" width="300.0px" xmlns="http://www.w3.org/2000/svg">
  <g transform="matrix(1.0, 0.0, 0.0, 1.0, 0.0, 0.0)">
    <use height="249.35" transform="matrix(0.8, 0.0, 0.0, 0.8, 13.7121, 67.5815)" width="337.1" xlink:href="#sprite0"/>
  </g>
  <defs>
    <g id="sprite0" transform="matrix(1.0, 0.0, 0.0, 1.0, 168.55, 124.65)">
      <use height="249.35" transform="matrix(1.0, 0.0, 0.0, 1.0, -168.55, -124.65)" width="337.1" xlink:href="#shape0"/>
    </g>
    <g id="shape0" transform="matrix(1.0, 0.0, 0.0, 1.0, 168.55, 124.65)">
      <path d="M-57.6 -82.95 Q-60.25 -76.05 -62.9 -67.25 -68.2 -49.7 -68.2 -34.15 -68.2 -25.5 -64.85 -22.15 -62.2 -19.55 -57.7 -20.35 -52.75 -21.2 -47.5 -26.0 L-41.85 -30.9 Q-40.15 -31.2 -36.55 -13.7 -36.55 -12.5 -38.1 -12.05 L-40.5 -11.6 -77.75 -5.1 Q-79.6 -4.7 -80.35 -5.35 -81.1 -6.0 -81.3 -8.25 L-81.6 -26.05 Q-81.6 -36.2 -78.75 -58.4 -75.75 -81.6 -73.9 -81.9 L-59.35 -84.45 Q-57.6 -84.85 -57.6 -82.95" fill="#000000" fill-rule="evenodd" stroke="none"/>
      <path d="M12.95 -86.6 Q25.1 -72.1 25.1 -45.05 25.1 -29.15 22.8 -24.5 21.95 -22.8 20.65 -22.3 L18.45 -21.95 8.2 -20.15 6.15 -19.8 Q4.7 -19.75 4.7 -20.65 L8.25 -29.35 Q11.75 -37.8 11.75 -44.0 11.75 -46.9 9.3 -47.95 L3.7 -48.25 Q-4.9 -46.75 -10.2 -43.8 -17.9 -39.55 -17.9 -32.6 -17.9 -28.25 -14.9 -22.75 L-11.95 -17.25 Q-11.95 -16.6 -13.7 -16.3 L-26.75 -14.05 Q-30.05 -13.45 -31.5 -18.8 -32.7 -23.35 -32.7 -33.1 -32.7 -58.25 -18.6 -78.95 -13.7 -86.15 -8.1 -91.35 -3.45 -95.6 -1.5 -95.95 0.15 -96.25 3.9 -94.2 8.8 -91.55 12.95 -86.6 M5.3 -74.85 Q1.45 -80.85 -1.15 -80.35 -4.8 -79.7 -10.4 -70.65 -15.9 -61.65 -15.9 -56.55 -15.9 -54.85 -14.15 -55.15 L-7.25 -57.5 Q-0.35 -59.9 4.45 -60.75 7.0 -61.2 8.0 -61.9 9.1 -62.75 9.1 -64.6 9.1 -68.9 5.3 -74.85" fill="#000000" fill-rule="evenodd" stroke="none"/>
      <path d="M105.1 -111.85 Q106.75 -109.2 106.75 -98.25 106.75 -63.0 84.25 -31.25 82.1 -30.9 75.7 -41.8 69.25 -52.8 67.85 -52.55 66.5 -52.3 60.05 -39.1 53.65 -25.85 51.5 -25.5 31.8 -45.3 31.8 -76.7 31.8 -93.35 32.9 -98.15 33.5 -100.7 35.45 -101.05 L46.8 -103.05 Q48.9 -103.4 48.9 -102.1 L47.6 -96.35 Q46.25 -89.7 46.25 -82.25 46.25 -67.3 49.25 -57.85 51.7 -50.2 53.85 -50.55 56.65 -51.05 60.1 -60.85 64.2 -72.55 64.2 -87.15 64.2 -94.6 63.4 -100.0 L62.55 -104.6 Q62.55 -105.35 62.95 -105.7 L64.1 -106.05 76.0 -108.15 Q78.3 -108.55 78.3 -107.0 L77.45 -101.5 Q76.55 -95.7 76.55 -89.55 76.55 -75.5 79.5 -64.9 82.1 -55.5 84.5 -55.9 87.35 -56.4 90.75 -66.95 94.4 -78.25 94.4 -89.1 94.4 -95.0 92.85 -102.45 91.3 -108.85 91.3 -109.45 91.3 -110.4 91.95 -110.8 L93.2 -111.15 101.65 -112.6 Q104.3 -113.1 105.1 -111.85" fill="#000000" fill-rule="evenodd" stroke="none"/>
      <path d="M168.55 -80.75 Q168.55 -58.2 166.9 -51.3 166.25 -48.7 165.25 -47.85 L163.5 -47.3 153.9 -45.6 Q151.7 -45.2 150.9 -46.4 150.4 -47.2 149.4 -51.3 146.4 -63.85 138.95 -77.6 137.0 -81.45 133.55 -86.5 128.7 -93.65 126.8 -93.3 125.35 -93.05 125.1 -87.8 L125.15 -81.2 Q125.15 -65.65 127.05 -53.7 L128.9 -42.05 Q128.9 -41.3 127.95 -41.05 L126.35 -40.8 117.85 -39.3 116.1 -39.25 Q115.1 -39.7 114.45 -42.15 112.8 -48.45 112.8 -71.0 112.8 -100.0 115.35 -110.2 116.65 -115.2 119.1 -115.7 L126.35 -116.95 Q129.3 -117.45 135.0 -110.85 142.1 -102.6 153.9 -82.75 L154.45 -81.85 Q154.9 -81.3 155.45 -81.4 156.0 -81.5 156.15 -83.65 L156.2 -86.75 Q156.2 -97.15 153.85 -109.15 L151.5 -120.35 Q151.5 -121.15 152.7 -121.55 L155.25 -122.0 162.2 -123.2 164.05 -123.05 Q165.3 -122.3 166.15 -119.05 168.55 -110.0 168.55 -80.75" fill="#000000" fill-rule="evenodd" stroke="none"/>
      <path d="M15.1 -7.75 Q17.8 -8.25 18.6 -7.0 20.25 -4.35 20.25 6.6 20.25 29.1 9.65 53.2 6.0 61.45 1.95 67.95 -1.45 73.45 -2.3 73.6 -4.45 73.95 -10.85 63.05 -17.3 52.05 -18.65 52.3 -20.05 52.55 -26.45 65.75 -32.9 79.0 -35.05 79.35 -54.7 59.55 -54.7 28.15 -54.7 11.5 -53.6 6.7 -53.0 4.15 -51.05 3.8 L-39.7 1.8 Q-37.6 1.45 -37.6 2.75 L-38.9 8.5 Q-40.25 15.15 -40.25 22.6 -40.25 37.55 -37.25 47.05 -34.85 54.7 -32.65 54.3 -29.9 53.8 -26.45 44.0 -22.35 32.3 -22.35 17.75 -22.35 10.3 -23.15 4.9 L-24.0 0.25 Q-24.0 -0.5 -23.6 -0.8 L-22.4 -1.2 -10.5 -3.3 Q-8.25 -3.7 -8.25 -2.15 -8.25 -1.35 -9.1 3.35 -10.0 9.15 -10.0 15.3 -10.0 29.35 -7.05 39.95 -4.4 49.4 -2.0 48.95 0.8 48.45 4.2 37.9 7.85 26.6 7.85 15.75 7.85 9.85 6.3 2.4 4.75 -4.0 4.75 -4.6 4.75 -5.55 5.4 -5.95 L6.7 -6.3 15.1 -7.75" fill="#000000" fill-rule="evenodd" stroke="none"/>
      <path d="M69.75 -6.85 Q81.9 7.65 81.9 34.75 81.9 50.65 79.6 55.3 78.75 57.0 77.45 57.5 L75.25 57.85 65.0 59.65 62.95 60.0 Q61.5 60.05 61.5 59.15 61.5 58.85 65.05 50.4 68.55 42.0 68.55 35.8 68.55 32.9 66.05 31.85 63.95 30.9 60.5 31.5 51.85 33.05 46.55 36.0 38.9 40.25 38.9 47.2 38.9 51.55 41.9 57.05 L44.85 62.55 Q44.85 62.95 44.45 63.15 L43.1 63.5 30.0 65.75 Q26.7 66.35 25.3 61.0 24.05 56.4 24.05 46.7 24.05 21.55 38.15 0.85 43.05 -6.35 48.7 -11.55 53.35 -15.8 55.3 -16.15 56.95 -16.45 60.7 -14.4 65.6 -11.75 69.75 -6.85 M62.05 4.95 Q58.2 -1.05 55.65 -0.6 52.0 0.05 46.4 9.15 40.9 18.15 40.9 23.25 40.9 24.95 42.65 24.65 L49.55 22.3 Q56.45 19.9 61.25 19.05 63.8 18.6 64.8 17.9 65.9 17.05 65.9 15.2 65.9 10.9 62.05 4.95" fill="#000000" fill-rule="evenodd" stroke="none"/>
      <path d="M138.35 -27.95 Q138.85 -27.15 138.85 -24.0 138.85 -10.85 132.7 -1.0 L128.45 5.05 Q126.55 7.75 126.55 9.25 126.55 11.4 133.7 19.65 140.85 30.15 140.85 43.65 140.85 45.8 140.2 46.3 L137.3 47.0 128.2 48.6 124.95 49.0 Q124.1 48.7 123.85 46.25 L123.55 42.35 Q122.65 32.35 118.95 26.3 116.05 21.6 114.05 21.95 111.65 22.4 108.15 28.15 103.25 36.1 102.05 48.3 101.55 52.2 101.2 52.7 100.7 53.4 97.75 53.95 L90.95 55.1 88.6 55.5 Q87.2 55.55 87.2 54.4 87.2 40.15 96.2 26.6 L102.35 18.15 Q105.15 14.4 105.15 13.0 105.15 11.3 102.95 8.85 L98.05 3.5 Q90.95 -5.25 90.95 -18.55 90.95 -20.4 92.4 -21.1 L95.45 -21.8 105.5 -23.6 Q107.2 -23.7 107.4 -23.25 107.7 -22.7 108.1 -17.8 108.9 -7.55 112.1 -1.95 114.55 2.4 116.6 2.05 119.05 1.6 121.6 -5.5 124.1 -12.5 124.1 -18.4 L123.85 -25.05 Q123.85 -26.6 125.3 -27.1 L127.6 -27.45 134.7 -28.7 Q137.6 -29.25 138.35 -27.95" fill="#000000" fill-rule="evenodd" stroke="none"/>
      <path d="M-82.65 -120.95 L-83.3 -108.0 -96.95 -104.6 -96.3 -94.7 Q-95.85 -89.5 -94.9 -85.5 -94.4 -83.45 -92.0 -77.35 -90.1 -72.65 -90.15 -69.8 -97.3 -70.45 -101.9 -79.7 -103.35 -82.6 -105.35 -88.15 -107.6 -94.35 -108.55 -96.4 -113.8 -97.45 -117.0 -95.35 -120.3 -93.2 -120.8 -88.25 -121.15 -86.5 -118.75 -86.2 -116.3 -85.85 -116.7 -84.15 -116.5 -82.0 -116.8 -73.1 -117.05 -66.35 -116.05 -64.35 -116.15 -63.5 -117.65 -63.25 -119.25 -62.95 -119.45 -62.3 L-112.5 -59.6 Q-108.35 -57.5 -107.85 -54.8 -107.65 -53.5 -109.75 -50.15 -112.05 -46.65 -111.95 -43.9 -111.9 -42.1 -109.5 -38.45 -107.15 -34.85 -107.15 -33.7 -107.2 -31.85 -109.65 -28.45 -112.0 -25.2 -111.95 -23.45 -111.85 -21.15 -110.25 -19.15 L-107.2 -16.0 Q-103.5 -12.2 -105.8 -7.1 -91.8 1.4 -85.15 12.65 -77.55 25.4 -77.85 44.05 -78.3 72.55 -87.2 109.15 -89.55 110.3 -98.85 113.35 -109.25 116.75 -116.7 118.55 -147.4 125.9 -152.85 124.5 -161.2 108.0 -165.25 82.95 -168.85 60.55 -168.55 34.5 -168.25 6.85 -164.5 -16.15 -160.3 -42.05 -152.15 -59.6 -151.45 -60.6 -149.1 -61.65 -146.75 -62.7 -146.05 -63.7 -147.9 -63.5 -148.1 -65.4 L-148.1 -68.45 Q-148.45 -72.15 -148.15 -79.2 L-147.75 -85.55 -158.7 -87.35 Q-165.15 -88.85 -167.15 -91.65 -166.4 -98.95 -163.1 -107.3 -159.6 -116.1 -156.05 -119.15 -151.35 -123.15 -141.25 -123.7 -109.5 -125.2 -96.25 -124.35 L-82.65 -120.95" fill="#669900" fill-rule="evenodd" stroke="none"/>
    </g>
  </defs>
</svg>
