<?xml version="1.0" encoding="UTF-8" standalone="no"?>
<svg xmlns:xlink="http://www.w3.org/1999/xlink" height="300.0px" width="300.0px" xmlns="http://www.w3.org/2000/svg">
  <g transform="matrix(1.0, 0.0, 0.0, 1.0, 0.0, 0.0)">
    <use height="243.2" transform="matrix(1.0, 0.0, 0.0, 1.0, 24.6, 17.0)" width="252.7" xlink:href="#shape0"/>
  </g>
  <defs>
    <g id="shape0" transform="matrix(1.0, 0.0, 0.0, 1.0, -24.6, -17.0)">
      <path d="M104.2 38.3 Q107.5 50.7 98.3 62.55 89.15 74.45 72.85 78.8 56.5 83.2 42.6 77.5 28.8 71.8 25.5 59.4 22.15 46.95 31.25 35.15 40.45 23.3 56.8 18.9 73.1 14.55 86.95 20.2 100.85 25.85 104.2 38.3" fill="#66cc99" fill-rule="evenodd" stroke="none"/>
      <path d="M257.8 98.05 L257.55 104.7 265.6 105.0 265.1 118.55 237.55 120.5 237.65 105.0 248.45 104.7 248.45 97.85 227.95 72.3 241.65 65.7 258.8 83.35 270.7 71.85 276.1 75.95 257.8 98.05 M175.2 88.2 L175.8 70.65 198.4 71.35 197.85 106.4 212.8 106.55 213.25 94.6 223.4 95.05 223.0 114.85 181.5 116.7 180.4 102.4 188.2 102.0 188.2 87.5 175.2 88.2 M163.05 85.35 Q163.05 89.75 161.4 92.65 159.3 96.2 154.65 98.25 156.4 98.65 157.1 99.5 157.65 100.15 158.0 101.6 158.4 103.0 158.9 103.65 159.6 104.65 162.3 104.65 L170.6 104.15 170.15 119.6 165.3 119.95 Q159.2 119.95 155.1 118.35 149.5 116.3 149.1 111.65 L148.5 105.9 Q147.8 103.0 145.65 101.6 143.0 100.0 137.4 100.0 L133.7 100.15 133.9 104.15 140.85 104.15 141.45 115.35 115.9 116.45 115.9 104.5 124.45 104.15 123.5 81.25 118.6 81.25 118.25 71.45 137.8 70.65 Q151.95 70.65 157.55 73.5 162.35 76.0 162.9 82.3 L163.05 85.35 M235.9 136.35 L250.85 120.2 260.55 128.95 245.0 144.6 257.95 155.05 266.4 154.9 266.15 168.55 240.85 168.0 241.05 155.8 246.35 155.65 238.9 150.25 234.85 154.9 234.85 163.95 228.3 164.05 226.8 124.25 235.9 124.25 235.9 136.35 M219.55 127.05 L221.2 161.5 205.05 163.2 188.75 142.7 188.05 165.9 173.3 165.2 172.65 150.7 179.5 150.5 179.75 123.75 193.8 124.5 208.55 150.25 212.7 150.25 212.9 127.2 219.55 127.05 M165.05 132.95 L142.35 134.85 141.85 122.4 163.85 120.55 165.05 132.95 M170.85 195.95 L186.05 195.55 186.4 187.9 170.6 188.25 170.85 195.95 M179.3 178.45 Q187.15 178.45 190.55 181.65 193.75 184.55 193.9 190.75 L193.9 192.1 Q193.9 196.35 192.55 198.4 190.85 201.0 186.1 202.3 180.8 203.75 170.5 204.3 L170.05 217.7 163.1 217.45 162.5 196.9 155.55 196.9 154.65 180.4 175.3 178.6 179.3 178.45 M196.45 177.7 L216.05 178.3 215.5 208.7 228.55 208.9 228.95 198.5 237.7 198.85 237.45 216.1 201.35 217.7 200.4 205.25 207.15 204.9 207.15 192.35 195.85 192.9 196.45 177.7 M270.8 178.75 L275.5 182.3 259.6 201.5 259.4 207.25 266.4 207.55 265.9 219.3 242.0 220.95 242.1 207.55 251.55 207.25 251.55 201.3 233.7 179.15 245.6 173.4 260.5 188.75 270.8 178.75 M107.45 86.5 L106.55 116.05 93.85 116.7 92.25 87.45 107.45 86.5 M88.1 71.6 L110.15 69.7 111.35 82.1 88.6 84.0 88.1 71.6 M151.85 87.35 L152.55 80.95 133.4 80.55 133.7 88.35 151.85 87.35 M33.3 78.5 Q37.5 73.25 44.9 71.0 48.6 69.85 56.05 68.8 L63.15 68.25 Q80.9 68.25 83.55 83.8 L66.3 84.4 65.65 78.6 43.6 80.7 43.25 102.5 71.9 103.1 71.9 99.0 51.65 98.25 51.9 90.9 82.95 89.1 83.55 116.45 66.85 118.55 65.9 112.55 Q62.55 114.1 54.75 114.1 44.0 114.1 37.1 110.65 27.95 106.1 27.95 96.35 27.95 85.05 33.3 78.5 M50.9 133.65 L50.4 150.35 69.3 149.2 69.3 132.8 50.9 133.65 M62.6 122.25 Q70.8 122.25 75.35 125.15 81.95 129.4 81.95 140.25 81.95 152.3 73.25 158.8 66.6 163.75 57.45 164.25 L39.25 164.95 39.15 150.85 42.75 150.6 42.1 134.25 37.8 133.95 37.8 126.15 Q50.95 122.8 60.35 122.25 L62.6 122.25 M38.1 191.9 L51.15 196.5 Q57.05 198.85 59.4 201.25 62.3 204.0 62.3 208.0 62.3 214.0 55.8 216.95 50.75 219.3 43.65 219.3 35.45 219.3 31.3 217.15 25.55 214.25 25.55 206.65 L40.0 205.9 40.35 209.9 51.65 209.55 51.65 206.1 Q49.3 204.2 42.4 202.15 35.0 200.0 32.1 198.3 27.25 195.3 27.25 189.95 27.25 182.55 33.8 179.15 38.65 176.65 46.85 176.65 55.5 176.65 59.75 179.45 65.0 182.8 64.9 191.3 L53.0 191.1 52.75 187.1 38.45 187.75 38.1 191.9 M66.7 181.9 L74.1 182.35 74.7 203.5 94.3 203.7 94.3 194.7 86.8 194.5 86.9 181.1 111.1 180.65 111.35 194.7 103.75 195.0 103.2 203.2 Q102.35 208.75 99.35 211.65 95.4 215.5 87.05 215.5 L85.7 215.45 Q74.15 215.15 69.5 209.25 65.9 204.6 65.9 195.35 L66.7 181.9 M131.6 133.1 L131.65 136.15 Q131.65 140.55 130.05 143.45 128.05 147.0 123.25 149.1 125.05 149.45 125.7 150.3 126.2 150.85 126.65 152.4 127.05 153.8 127.55 154.5 128.25 155.5 130.95 155.5 L139.25 155.0 138.85 170.4 133.95 170.8 Q127.85 170.8 123.75 169.2 118.2 167.1 117.75 162.45 L117.15 156.7 Q116.45 153.8 114.3 152.45 111.65 150.8 106.05 150.8 L102.4 151.0 102.55 155.0 109.5 155.0 110.1 166.15 84.55 167.3 84.55 155.3 93.1 155.0 92.15 132.05 87.25 132.05 86.9 122.25 106.45 121.45 Q120.6 121.45 126.2 124.3 131.05 126.85 131.6 133.1 M161.15 137.35 L160.25 166.9 147.6 167.5 145.95 138.3 161.15 137.35 M102.05 131.4 L102.4 139.2 120.5 138.15 121.2 131.75 102.05 131.4 M114.25 196.9 L113.35 180.4 134.05 178.6 138.05 178.45 Q145.9 178.45 149.35 181.65 152.4 184.55 152.65 190.75 L152.65 192.1 Q152.65 196.35 151.3 198.4 149.65 201.0 144.8 202.3 139.5 203.75 129.2 204.3 L128.8 217.7 121.85 217.45 121.25 196.9 114.25 196.9 M129.6 195.95 L144.75 195.55 145.15 187.9 129.35 188.25 129.6 195.95" fill="#90278e" fill-rule="evenodd" stroke="none"/>
      <path d="M129.1 230.7 L137.7 230.7 137.7 238.55 Q137.7 239.5 136.5 239.5 135.8 239.5 135.45 238.55 133.95 233.75 129.1 233.0 L129.1 230.7 M129.1 243.65 Q131.15 243.05 131.75 240.25 L132.15 239.35 Q132.5 239.0 133.05 239.0 133.8 239.0 134.0 239.7 L134.05 240.65 134.05 249.0 134.0 249.95 Q133.8 250.7 133.05 250.7 132.15 250.7 131.75 249.4 131.15 246.6 129.1 246.0 L129.1 243.65 M154.8 233.0 Q153.85 233.25 153.65 233.6 153.5 233.9 153.5 235.1 L153.5 255.3 Q153.5 256.45 153.65 256.7 153.85 257.1 154.8 257.4 155.65 257.65 155.65 258.45 155.65 259.55 154.2 259.65 L143.3 259.65 Q141.9 259.55 141.9 258.45 141.9 257.65 142.7 257.4 L143.9 256.7 144.0 255.3 144.0 235.1 143.9 233.6 Q143.65 233.25 142.7 233.0 141.9 232.65 141.9 231.95 141.9 231.2 142.5 230.9 L143.3 230.7 154.2 230.7 155.0 230.9 Q155.65 231.2 155.65 231.95 155.65 232.65 154.8 233.0 M157.9 230.7 L168.85 230.7 169.6 230.9 Q170.25 231.2 170.25 231.95 170.25 232.7 169.4 233.0 168.45 233.25 168.25 233.6 168.1 233.9 168.1 235.1 L168.1 255.3 Q168.1 256.45 168.25 256.7 L169.4 257.4 Q170.25 257.65 170.25 258.45 170.25 259.55 168.85 259.65 L157.9 259.65 157.15 259.45 Q156.45 259.15 156.45 258.45 156.45 257.65 157.3 257.4 158.25 257.1 158.5 256.7 L158.6 255.3 158.6 246.05 155.2 246.05 155.2 243.85 158.6 243.85 158.6 235.1 158.5 233.6 Q158.25 233.25 157.3 233.0 156.45 232.65 156.45 231.95 156.45 231.2 157.15 230.9 L157.9 230.7 M100.2 230.7 L104.0 230.85 Q106.1 231.05 107.6 231.75 111.5 233.65 111.55 238.1 111.6 241.25 109.65 243.05 108.05 244.65 104.75 245.4 L104.75 245.45 Q107.95 245.95 109.45 246.95 111.5 248.35 111.55 251.1 L111.55 254.5 Q111.55 255.6 112.0 255.6 L112.65 255.05 Q113.1 254.5 113.6 254.5 113.95 254.5 114.4 254.85 L114.75 255.6 Q114.75 256.35 114.0 257.4 L112.6 258.8 Q110.95 260.2 108.25 260.2 105.55 260.2 103.9 258.6 102.95 257.65 102.65 256.25 102.35 255.25 102.35 253.7 L102.35 251.05 Q102.35 249.2 102.05 248.35 101.55 247.0 100.0 246.85 L100.0 244.6 Q101.45 244.45 101.95 243.55 102.35 242.9 102.35 241.25 L102.35 236.55 Q102.35 235.1 101.9 234.35 101.4 233.55 100.0 233.05 L100.0 230.7 100.2 230.7 M88.65 233.6 Q88.45 233.25 87.45 233.0 86.6 232.65 86.6 231.95 86.6 231.2 87.3 230.9 L88.05 230.7 98.25 230.7 98.25 255.3 Q98.25 256.45 98.4 256.7 98.65 257.1 99.6 257.4 100.4 257.65 100.4 258.45 100.4 259.55 99.0 259.65 L88.05 259.65 Q86.6 259.55 86.6 258.45 86.6 257.65 87.45 257.4 88.45 257.1 88.65 256.7 L88.8 255.3 88.8 235.1 88.65 233.6 M117.75 233.6 Q117.5 233.25 116.55 233.0 115.7 232.65 115.7 231.95 115.7 231.2 116.4 230.9 L117.15 230.7 127.35 230.7 127.35 259.65 117.15 259.65 116.4 259.45 Q115.7 259.15 115.7 258.45 115.7 257.65 116.55 257.4 117.5 257.1 117.75 256.7 L117.9 255.3 117.9 235.1 117.75 233.6 M83.45 257.4 Q84.4 257.9 84.4 258.65 84.4 259.3 83.6 259.55 L82.25 259.65 72.65 259.65 Q70.8 259.65 70.8 258.55 70.8 257.85 71.5 257.45 72.25 257.05 72.4 256.65 72.55 256.2 72.3 255.1 L71.55 252.15 65.85 252.15 66.4 249.9 71.15 249.9 67.25 232.8 67.75 230.7 76.25 230.7 82.05 255.15 82.45 256.5 Q82.7 257.1 83.45 257.4 M136.1 250.95 Q136.4 250.6 136.85 250.6 138.0 250.6 138.0 251.9 L138.0 259.65 129.1 259.65 129.1 257.4 Q131.4 257.1 133.15 255.6 134.9 254.1 135.65 251.8 L136.1 250.95 M51.9 231.75 Q51.9 230.7 53.4 230.7 L58.4 230.7 Q60.0 230.7 60.0 231.8 L59.75 232.45 59.15 232.75 Q57.85 233.35 57.15 234.45 56.7 235.25 56.25 236.95 L53.75 246.75 53.65 246.7 52.6 242.5 54.1 236.5 54.35 234.9 Q54.35 233.85 53.1 233.15 51.9 232.45 51.9 231.75 M47.85 230.7 L52.9 250.0 50.5 259.65 45.85 259.65 40.85 241.0 43.5 230.7 47.85 230.7 M67.4 240.5 L63.8 253.75 Q63.35 255.4 63.65 256.2 63.9 256.8 65.0 257.3 L65.8 257.75 Q66.15 258.1 66.15 258.6 66.15 259.3 65.4 259.55 L64.15 259.65 59.7 259.65 Q57.55 259.65 57.55 258.45 57.55 257.85 58.0 257.65 L59.05 257.2 Q60.85 256.2 61.65 253.1 L66.3 236.15 66.35 236.15 67.4 240.5 M37.45 234.25 L37.65 235.2 41.45 249.35 38.9 259.65 34.35 259.65 27.45 234.5 27.15 233.65 26.5 233.15 25.8 232.75 25.6 232.0 Q25.6 230.7 28.05 230.7 L37.0 230.7 38.4 230.8 Q39.2 231.05 39.2 231.85 39.2 232.5 38.35 233.0 37.45 233.55 37.45 234.25 M255.7 230.9 L256.45 230.7 266.65 230.7 266.65 259.65 256.45 259.65 Q255.05 259.55 255.05 258.45 255.05 257.65 255.85 257.4 256.8 257.1 257.05 256.7 L257.2 255.3 257.2 235.1 257.05 233.6 Q256.8 233.25 255.85 233.0 255.05 232.65 255.05 231.95 255.05 231.2 255.7 230.9 M248.9 231.0 Q249.35 230.25 249.85 230.25 250.95 230.25 250.95 231.9 L250.95 238.5 Q250.95 240.35 249.7 240.35 248.55 240.35 248.3 238.85 247.95 236.6 246.35 234.8 244.65 232.85 242.5 232.4 L242.5 230.2 Q244.0 230.2 245.95 230.95 L247.95 231.65 Q248.4 231.65 248.9 231.0 M250.4 244.95 Q252.0 247.15 252.0 250.2 252.0 254.55 248.8 257.4 245.75 260.1 241.3 260.2 L241.3 257.95 Q242.95 257.5 243.75 256.75 244.8 255.85 244.85 254.4 244.9 252.8 243.25 251.7 242.55 251.2 240.2 250.15 235.6 248.2 233.7 246.5 230.8 243.95 230.8 239.85 230.8 235.55 233.7 232.9 236.4 230.3 240.75 230.2 L240.75 232.4 Q239.55 232.8 238.8 233.6 238.0 234.45 238.0 235.6 238.0 237.05 239.1 238.05 240.3 239.1 243.6 240.4 248.35 242.2 250.4 244.95 M268.4 230.7 L277.0 230.7 277.0 238.55 Q277.0 239.5 275.8 239.5 275.1 239.5 274.8 238.55 273.2 233.75 268.4 233.0 L268.4 230.7 M273.35 240.65 L273.35 249.0 273.3 249.95 Q273.1 250.7 272.35 250.7 271.45 250.7 271.1 249.4 270.4 246.55 268.4 246.0 L268.4 243.65 Q270.4 243.1 271.1 240.25 271.45 239.0 272.35 239.0 273.1 239.0 273.3 239.7 L273.35 240.65 M276.15 250.6 Q277.3 250.6 277.3 251.9 L277.3 259.65 268.4 259.65 268.4 257.4 Q270.7 257.1 272.45 255.6 274.2 254.1 274.95 251.8 L275.4 250.95 Q275.7 250.6 276.15 250.6 M214.7 230.9 Q215.35 231.2 215.35 231.95 215.35 232.65 214.55 233.0 213.6 233.25 213.35 233.6 213.2 233.9 213.2 235.1 L213.2 253.65 213.4 255.65 Q213.95 257.4 215.75 257.95 L215.75 260.2 211.6 260.05 Q209.5 259.7 207.7 258.7 205.25 257.35 204.4 256.05 203.75 255.0 203.75 253.35 L203.75 235.1 203.6 233.6 Q203.35 233.25 202.4 233.0 201.6 232.65 201.6 231.95 201.6 231.2 202.25 230.9 L203.0 230.7 213.95 230.7 214.7 230.9 M221.55 230.7 L225.95 230.7 Q228.0 230.7 228.0 231.85 228.0 232.35 226.7 233.15 225.3 234.05 224.9 236.85 L224.9 251.4 Q224.7 255.7 222.0 258.15 219.95 260.1 217.5 260.1 L217.5 257.85 Q220.1 257.05 221.35 255.5 222.45 253.95 222.65 251.3 L222.65 236.85 Q222.35 234.05 220.9 233.15 219.55 232.35 219.55 231.85 219.55 230.7 221.55 230.7 M176.25 235.1 Q179.4 230.7 185.25 230.2 L185.25 232.4 Q183.3 233.1 183.3 235.15 L183.3 255.2 Q183.3 256.15 183.65 256.7 184.05 257.55 185.25 257.95 L185.25 260.2 Q179.4 259.7 176.25 255.3 173.3 251.3 173.3 245.2 173.3 239.05 176.25 235.1 M187.05 232.4 L187.05 230.2 Q192.9 230.7 196.1 235.1 199.0 239.05 199.0 245.2 199.0 251.3 196.1 255.3 192.9 259.7 187.05 260.2 L187.05 257.95 Q188.25 257.55 188.7 256.7 L189.0 255.2 189.0 235.15 188.7 233.65 Q188.25 232.8 187.05 232.4 M232.95 259.4 Q232.45 260.05 232.0 260.05 230.8 260.05 230.8 258.45 L230.8 250.95 Q230.8 249.1 232.05 249.1 233.2 249.1 233.5 250.35 233.95 252.95 235.45 255.05 237.2 257.5 239.6 257.95 L239.6 260.2 Q237.65 260.15 236.1 259.45 234.6 258.75 234.1 258.75 233.45 258.75 232.95 259.4" fill="#231f20" fill-rule="evenodd" stroke="none"/>
      <path d="M90.9 45.05 Q91.9 45.85 91.95 47.95 91.95 49.25 91.15 50.25 L89.25 52.15 86.8 53.5 84.55 54.35 83.05 54.6 82.25 54.7 Q82.0 54.8 82.0 55.05 82.05 55.6 82.7 56.1 L84.15 56.55 Q85.55 56.5 87.05 55.85 L89.8 54.5 91.55 53.3 92.4 52.55 92.85 52.25 93.15 52.75 93.25 53.65 93.1 55.05 92.25 56.2 89.8 57.85 Q88.4 58.7 86.75 59.2 L83.3 59.75 Q80.9 59.75 79.45 58.6 78.2 57.6 77.95 55.55 L76.6 56.75 74.6 58.05 72.2 59.25 69.85 59.75 68.4 59.35 Q67.75 58.95 67.75 58.0 67.75 57.5 68.25 56.3 L69.4 53.75 70.55 51.4 71.05 50.25 71.05 50.1 70.95 50.05 Q70.8 50.05 69.35 51.1 L65.2 54.55 62.4 57.05 60.2 59.0 Q59.25 59.75 58.7 59.75 58.0 59.75 57.6 59.4 57.25 59.05 57.25 58.35 L57.5 57.2 58.0 55.8 58.45 54.6 58.4 54.55 57.15 55.6 56.45 56.05 56.3 55.4 56.3 54.1 56.4 53.0 Q56.5 52.55 56.7 52.35 L58.6 50.7 60.65 48.7 61.9 47.15 63.25 43.65 65.05 38.95 67.05 34.3 Q68.1 32.05 69.05 30.65 69.95 29.2 70.7 29.15 71.75 29.2 72.1 29.65 72.45 30.1 72.4 30.7 72.4 32.0 71.75 33.9 L70.1 37.85 68.05 41.9 66.15 45.35 63.4 52.3 63.45 52.3 66.4 50.1 69.5 47.55 72.35 45.45 Q73.7 44.6 74.65 44.55 75.6 44.55 76.05 45.0 76.5 45.4 76.5 46.0 76.45 46.85 75.85 48.3 L74.45 51.2 73.1 53.9 72.45 55.4 72.5 55.65 72.75 55.7 Q73.15 55.7 73.95 55.15 L75.7 53.95 77.3 52.75 77.95 52.25 Q78.05 50.7 78.9 49.35 79.85 47.8 81.45 46.7 83.0 45.55 84.8 44.9 L88.25 44.3 Q89.85 44.25 90.9 45.05 M88.0 48.55 L87.75 47.65 Q87.5 47.3 86.95 47.3 85.85 47.35 84.75 48.1 83.7 48.85 82.9 49.9 82.1 51.0 81.8 52.0 L83.4 51.7 85.45 50.9 Q86.5 50.45 87.25 49.8 87.95 49.2 88.0 48.55 M57.4 30.4 Q58.15 29.75 59.3 29.75 60.15 29.75 60.85 30.3 61.55 30.85 61.55 31.75 61.55 32.75 61.0 33.6 60.4 34.4 59.5 34.8 L56.2 42.6 52.55 50.9 48.75 59.15 48.05 60.2 Q47.7 60.5 47.05 60.5 L44.5 60.5 43.45 60.4 Q43.15 60.3 43.15 59.9 L43.55 58.95 44.85 56.95 47.05 53.2 50.15 46.85 54.25 37.2 54.5 36.6 54.55 36.2 54.45 35.9 54.25 35.85 53.15 36.05 50.55 36.55 47.2 37.3 43.9 38.1 41.35 38.85 Q40.35 39.2 40.35 39.45 L41.05 40.1 42.55 41.0 44.1 41.85 44.8 42.4 44.25 43.45 43.15 44.6 Q42.5 45.1 42.0 45.1 L40.9 44.55 38.65 43.2 36.5 41.25 Q35.6 40.15 35.55 39.05 35.6 37.3 38.2 36.1 40.85 34.95 45.5 34.0 L56.2 32.0 Q56.7 31.0 57.4 30.4" fill="#000000" fill-rule="evenodd" stroke="none"/>
    </g>
  </defs>
</svg>
